<?xml version="1.0" encoding="utf-8"?>
<svg xmlns="http://www.w3.org/2000/svg" xmlns:xlink="http://www.w3.org/1999/xlink" width="960" height="672" viewBox="0 0 3840 2688">
<defs>
  <clipPath id="clip960">
    <rect x="0" y="0" width="3840" height="2688"/>
  </clipPath>
</defs>
<path clip-path="url(#clip960)" d="M0 2688 L3840 2688 L3840 0 L0 0  Z" fill="#ffffff" fill-rule="evenodd" fill-opacity="1"/>
<defs>
  <clipPath id="clip961">
    <rect x="449" y="431" width="3335" height="2047"/>
  </clipPath>
</defs>
<path clip-path="url(#clip960)" d="M192.221 2496.2 L3792.76 2496.2 L3792.76 126.496 L192.221 126.496  Z" fill="#ffffff" fill-rule="evenodd" fill-opacity="1"/>
<defs>
  <clipPath id="clip962">
    <rect x="192" y="126" width="3602" height="2371"/>
  </clipPath>
</defs>
<polyline clip-path="url(#clip962)" style="stroke:#000000; stroke-linecap:round; stroke-linejoin:round; stroke-width:2; stroke-opacity:0.1; fill:none" points="671.538,2496.2 671.538,126.496 "/>
<polyline clip-path="url(#clip962)" style="stroke:#000000; stroke-linecap:round; stroke-linejoin:round; stroke-width:2; stroke-opacity:0.1; fill:none" points="1426.37,2496.2 1426.37,126.496 "/>
<polyline clip-path="url(#clip962)" style="stroke:#000000; stroke-linecap:round; stroke-linejoin:round; stroke-width:2; stroke-opacity:0.1; fill:none" points="2181.2,2496.2 2181.2,126.496 "/>
<polyline clip-path="url(#clip962)" style="stroke:#000000; stroke-linecap:round; stroke-linejoin:round; stroke-width:2; stroke-opacity:0.1; fill:none" points="2936.02,2496.2 2936.02,126.496 "/>
<polyline clip-path="url(#clip962)" style="stroke:#000000; stroke-linecap:round; stroke-linejoin:round; stroke-width:2; stroke-opacity:0.1; fill:none" points="3690.85,2496.2 3690.85,126.496 "/>
<polyline clip-path="url(#clip962)" style="stroke:#000000; stroke-linecap:round; stroke-linejoin:round; stroke-width:2; stroke-opacity:0.1; fill:none" points="192.221,2319.17 3792.76,2319.17 "/>
<polyline clip-path="url(#clip962)" style="stroke:#000000; stroke-linecap:round; stroke-linejoin:round; stroke-width:2; stroke-opacity:0.1; fill:none" points="192.221,1960.81 3792.76,1960.81 "/>
<polyline clip-path="url(#clip962)" style="stroke:#000000; stroke-linecap:round; stroke-linejoin:round; stroke-width:2; stroke-opacity:0.1; fill:none" points="192.221,1602.45 3792.76,1602.45 "/>
<polyline clip-path="url(#clip962)" style="stroke:#000000; stroke-linecap:round; stroke-linejoin:round; stroke-width:2; stroke-opacity:0.1; fill:none" points="192.221,1244.09 3792.76,1244.09 "/>
<polyline clip-path="url(#clip962)" style="stroke:#000000; stroke-linecap:round; stroke-linejoin:round; stroke-width:2; stroke-opacity:0.1; fill:none" points="192.221,885.725 3792.76,885.725 "/>
<polyline clip-path="url(#clip962)" style="stroke:#000000; stroke-linecap:round; stroke-linejoin:round; stroke-width:2; stroke-opacity:0.1; fill:none" points="192.221,527.365 3792.76,527.365 "/>
<polyline clip-path="url(#clip962)" style="stroke:#000000; stroke-linecap:round; stroke-linejoin:round; stroke-width:2; stroke-opacity:0.1; fill:none" points="192.221,169.005 3792.76,169.005 "/>
<polyline clip-path="url(#clip960)" style="stroke:#000000; stroke-linecap:round; stroke-linejoin:round; stroke-width:4; stroke-opacity:1; fill:none" points="192.221,2496.2 3792.76,2496.2 "/>
<polyline clip-path="url(#clip960)" style="stroke:#000000; stroke-linecap:round; stroke-linejoin:round; stroke-width:4; stroke-opacity:1; fill:none" points="671.538,2496.2 671.538,2477.3 "/>
<polyline clip-path="url(#clip960)" style="stroke:#000000; stroke-linecap:round; stroke-linejoin:round; stroke-width:4; stroke-opacity:1; fill:none" points="1426.37,2496.2 1426.37,2477.3 "/>
<polyline clip-path="url(#clip960)" style="stroke:#000000; stroke-linecap:round; stroke-linejoin:round; stroke-width:4; stroke-opacity:1; fill:none" points="2181.2,2496.2 2181.2,2477.3 "/>
<polyline clip-path="url(#clip960)" style="stroke:#000000; stroke-linecap:round; stroke-linejoin:round; stroke-width:4; stroke-opacity:1; fill:none" points="2936.02,2496.2 2936.02,2477.3 "/>
<polyline clip-path="url(#clip960)" style="stroke:#000000; stroke-linecap:round; stroke-linejoin:round; stroke-width:4; stroke-opacity:1; fill:none" points="3690.85,2496.2 3690.85,2477.3 "/>
<path clip-path="url(#clip960)" d="M649.721 2538.63 Q646.11 2538.63 644.281 2542.2 Q642.475 2545.74 642.475 2552.87 Q642.475 2559.98 644.281 2563.54 Q646.11 2567.08 649.721 2567.08 Q653.355 2567.08 655.16 2563.54 Q656.989 2559.98 656.989 2552.87 Q656.989 2545.74 655.16 2542.2 Q653.355 2538.63 649.721 2538.63 M649.721 2534.93 Q655.531 2534.93 658.586 2539.54 Q661.665 2544.12 661.665 2552.87 Q661.665 2561.6 658.586 2566.2 Q655.531 2570.79 649.721 2570.79 Q643.911 2570.79 640.832 2566.2 Q637.776 2561.6 637.776 2552.87 Q637.776 2544.12 640.832 2539.54 Q643.911 2534.93 649.721 2534.93 Z" fill="#000000" fill-rule="nonzero" fill-opacity="1" /><path clip-path="url(#clip960)" d="M669.883 2564.24 L674.767 2564.24 L674.767 2570.12 L669.883 2570.12 L669.883 2564.24 Z" fill="#000000" fill-rule="nonzero" fill-opacity="1" /><path clip-path="url(#clip960)" d="M688.98 2566.18 L705.299 2566.18 L705.299 2570.12 L683.355 2570.12 L683.355 2566.18 Q686.017 2563.43 690.6 2558.8 Q695.207 2554.14 696.387 2552.8 Q698.632 2550.28 699.512 2548.54 Q700.415 2546.78 700.415 2545.09 Q700.415 2542.34 698.47 2540.6 Q696.549 2538.87 693.447 2538.87 Q691.248 2538.87 688.795 2539.63 Q686.364 2540.39 683.586 2541.94 L683.586 2537.22 Q686.41 2536.09 688.864 2535.51 Q691.318 2534.93 693.355 2534.93 Q698.725 2534.93 701.919 2537.62 Q705.114 2540.3 705.114 2544.79 Q705.114 2546.92 704.304 2548.84 Q703.517 2550.74 701.41 2553.33 Q700.831 2554 697.73 2557.22 Q694.628 2560.42 688.98 2566.18 Z" fill="#000000" fill-rule="nonzero" fill-opacity="1" /><path clip-path="url(#clip960)" d="M1403.51 2538.63 Q1399.9 2538.63 1398.07 2542.2 Q1396.26 2545.74 1396.26 2552.87 Q1396.26 2559.98 1398.07 2563.54 Q1399.9 2567.08 1403.51 2567.08 Q1407.14 2567.08 1408.95 2563.54 Q1410.78 2559.98 1410.78 2552.87 Q1410.78 2545.74 1408.95 2542.2 Q1407.14 2538.63 1403.51 2538.63 M1403.51 2534.93 Q1409.32 2534.93 1412.37 2539.54 Q1415.45 2544.12 1415.45 2552.87 Q1415.45 2561.6 1412.37 2566.2 Q1409.32 2570.79 1403.51 2570.79 Q1397.7 2570.79 1394.62 2566.2 Q1391.56 2561.6 1391.56 2552.87 Q1391.56 2544.12 1394.62 2539.54 Q1397.7 2534.93 1403.51 2534.93 Z" fill="#000000" fill-rule="nonzero" fill-opacity="1" /><path clip-path="url(#clip960)" d="M1423.67 2564.24 L1428.55 2564.24 L1428.55 2570.12 L1423.67 2570.12 L1423.67 2564.24 Z" fill="#000000" fill-rule="nonzero" fill-opacity="1" /><path clip-path="url(#clip960)" d="M1451.59 2539.63 L1439.78 2558.08 L1451.59 2558.08 L1451.59 2539.63 M1450.36 2535.56 L1456.24 2535.56 L1456.24 2558.08 L1461.17 2558.08 L1461.17 2561.97 L1456.24 2561.97 L1456.24 2570.12 L1451.59 2570.12 L1451.59 2561.97 L1435.98 2561.97 L1435.98 2557.45 L1450.36 2535.56 Z" fill="#000000" fill-rule="nonzero" fill-opacity="1" /><path clip-path="url(#clip960)" d="M2158.5 2538.63 Q2154.89 2538.63 2153.06 2542.2 Q2151.25 2545.74 2151.25 2552.87 Q2151.25 2559.98 2153.06 2563.54 Q2154.89 2567.08 2158.5 2567.08 Q2162.13 2567.08 2163.94 2563.54 Q2165.77 2559.98 2165.77 2552.87 Q2165.77 2545.74 2163.94 2542.2 Q2162.13 2538.63 2158.5 2538.63 M2158.5 2534.93 Q2164.31 2534.93 2167.36 2539.54 Q2170.44 2544.12 2170.44 2552.87 Q2170.44 2561.6 2167.36 2566.2 Q2164.31 2570.79 2158.5 2570.79 Q2152.69 2570.79 2149.61 2566.2 Q2146.55 2561.6 2146.55 2552.87 Q2146.55 2544.12 2149.61 2539.54 Q2152.69 2534.93 2158.5 2534.93 Z" fill="#000000" fill-rule="nonzero" fill-opacity="1" /><path clip-path="url(#clip960)" d="M2178.66 2564.24 L2183.55 2564.24 L2183.55 2570.12 L2178.66 2570.12 L2178.66 2564.24 Z" fill="#000000" fill-rule="nonzero" fill-opacity="1" /><path clip-path="url(#clip960)" d="M2204.31 2550.97 Q2201.16 2550.97 2199.31 2553.13 Q2197.48 2555.28 2197.48 2559.03 Q2197.48 2562.75 2199.31 2564.93 Q2201.16 2567.08 2204.31 2567.08 Q2207.46 2567.08 2209.29 2564.93 Q2211.14 2562.75 2211.14 2559.03 Q2211.14 2555.28 2209.29 2553.13 Q2207.46 2550.97 2204.31 2550.97 M2213.59 2536.32 L2213.59 2540.58 Q2211.83 2539.75 2210.03 2539.31 Q2208.24 2538.87 2206.49 2538.87 Q2201.86 2538.87 2199.4 2541.99 Q2196.97 2545.12 2196.62 2551.44 Q2197.99 2549.42 2200.05 2548.36 Q2202.11 2547.27 2204.59 2547.27 Q2209.8 2547.27 2212.8 2550.44 Q2215.84 2553.59 2215.84 2559.03 Q2215.84 2564.35 2212.69 2567.57 Q2209.54 2570.79 2204.31 2570.79 Q2198.31 2570.79 2195.14 2566.2 Q2191.97 2561.6 2191.97 2552.87 Q2191.97 2544.68 2195.86 2539.82 Q2199.75 2534.93 2206.3 2534.93 Q2208.06 2534.93 2209.84 2535.28 Q2211.65 2535.63 2213.59 2536.32 Z" fill="#000000" fill-rule="nonzero" fill-opacity="1" /><path clip-path="url(#clip960)" d="M2913.46 2538.63 Q2909.84 2538.63 2908.02 2542.2 Q2906.21 2545.74 2906.21 2552.87 Q2906.21 2559.98 2908.02 2563.54 Q2909.84 2567.08 2913.46 2567.08 Q2917.09 2567.08 2918.9 2563.54 Q2920.72 2559.98 2920.72 2552.87 Q2920.72 2545.74 2918.9 2542.2 Q2917.09 2538.63 2913.46 2538.63 M2913.46 2534.93 Q2919.27 2534.93 2922.32 2539.54 Q2925.4 2544.12 2925.4 2552.87 Q2925.4 2561.6 2922.32 2566.2 Q2919.27 2570.79 2913.46 2570.79 Q2907.65 2570.79 2904.57 2566.2 Q2901.51 2561.6 2901.51 2552.87 Q2901.51 2544.12 2904.57 2539.54 Q2907.65 2534.93 2913.46 2534.93 Z" fill="#000000" fill-rule="nonzero" fill-opacity="1" /><path clip-path="url(#clip960)" d="M2933.62 2564.24 L2938.5 2564.24 L2938.5 2570.12 L2933.62 2570.12 L2933.62 2564.24 Z" fill="#000000" fill-rule="nonzero" fill-opacity="1" /><path clip-path="url(#clip960)" d="M2958.69 2553.7 Q2955.35 2553.7 2953.43 2555.49 Q2951.53 2557.27 2951.53 2560.39 Q2951.53 2563.52 2953.43 2565.3 Q2955.35 2567.08 2958.69 2567.08 Q2962.02 2567.08 2963.94 2565.3 Q2965.86 2563.5 2965.86 2560.39 Q2965.86 2557.27 2963.94 2555.49 Q2962.04 2553.7 2958.69 2553.7 M2954.01 2551.71 Q2951 2550.97 2949.31 2548.91 Q2947.65 2546.85 2947.65 2543.89 Q2947.65 2539.75 2950.59 2537.34 Q2953.55 2534.93 2958.69 2534.93 Q2963.85 2534.93 2966.79 2537.34 Q2969.73 2539.75 2969.73 2543.89 Q2969.73 2546.85 2968.04 2548.91 Q2966.37 2550.97 2963.39 2551.71 Q2966.77 2552.5 2968.64 2554.79 Q2970.54 2557.08 2970.54 2560.39 Q2970.54 2565.42 2967.46 2568.1 Q2964.4 2570.79 2958.69 2570.79 Q2952.97 2570.79 2949.89 2568.1 Q2946.84 2565.42 2946.84 2560.39 Q2946.84 2557.08 2948.73 2554.79 Q2950.63 2552.5 2954.01 2551.71 M2952.3 2544.33 Q2952.3 2547.01 2953.96 2548.52 Q2955.65 2550.02 2958.69 2550.02 Q2961.7 2550.02 2963.39 2548.52 Q2965.1 2547.01 2965.1 2544.33 Q2965.1 2541.64 2963.39 2540.14 Q2961.7 2538.63 2958.69 2538.63 Q2955.65 2538.63 2953.96 2540.14 Q2952.3 2541.64 2952.3 2544.33 Z" fill="#000000" fill-rule="nonzero" fill-opacity="1" /><path clip-path="url(#clip960)" d="M3658.01 2566.18 L3665.65 2566.18 L3665.65 2539.82 L3657.34 2541.48 L3657.34 2537.22 L3665.6 2535.56 L3670.28 2535.56 L3670.28 2566.18 L3677.91 2566.18 L3677.91 2570.12 L3658.01 2570.12 L3658.01 2566.18 Z" fill="#000000" fill-rule="nonzero" fill-opacity="1" /><path clip-path="url(#clip960)" d="M3687.36 2564.24 L3692.24 2564.24 L3692.24 2570.12 L3687.36 2570.12 L3687.36 2564.24 Z" fill="#000000" fill-rule="nonzero" fill-opacity="1" /><path clip-path="url(#clip960)" d="M3712.43 2538.63 Q3708.82 2538.63 3706.99 2542.2 Q3705.18 2545.74 3705.18 2552.87 Q3705.18 2559.98 3706.99 2563.54 Q3708.82 2567.08 3712.43 2567.08 Q3716.06 2567.08 3717.87 2563.54 Q3719.7 2559.98 3719.7 2552.87 Q3719.7 2545.74 3717.87 2542.2 Q3716.06 2538.63 3712.43 2538.63 M3712.43 2534.93 Q3718.24 2534.93 3721.29 2539.54 Q3724.37 2544.12 3724.37 2552.87 Q3724.37 2561.6 3721.29 2566.2 Q3718.24 2570.79 3712.43 2570.79 Q3706.62 2570.79 3703.54 2566.2 Q3700.48 2561.6 3700.48 2552.87 Q3700.48 2544.12 3703.54 2539.54 Q3706.62 2534.93 3712.43 2534.93 Z" fill="#000000" fill-rule="nonzero" fill-opacity="1" /><path clip-path="url(#clip960)" d="M1725 2618.8 L1725 2625.58 Q1721.76 2622.56 1718.06 2621.06 Q1714.4 2619.56 1710.26 2619.56 Q1702.12 2619.56 1697.79 2624.56 Q1693.46 2629.53 1693.46 2638.95 Q1693.46 2648.34 1697.79 2653.33 Q1702.12 2658.3 1710.26 2658.3 Q1714.4 2658.3 1718.06 2656.8 Q1721.76 2655.31 1725 2652.28 L1725 2659 Q1721.63 2661.29 1717.84 2662.44 Q1714.08 2663.58 1709.88 2663.58 Q1699.09 2663.58 1692.89 2656.99 Q1686.68 2650.37 1686.68 2638.95 Q1686.68 2627.49 1692.89 2620.9 Q1699.09 2614.28 1709.88 2614.28 Q1714.15 2614.28 1717.9 2615.43 Q1721.69 2616.54 1725 2618.8 Z" fill="#000000" fill-rule="nonzero" fill-opacity="1" /><path clip-path="url(#clip960)" d="M1734.45 2627.01 L1740.28 2627.01 L1740.28 2643.75 L1756.8 2627.01 L1763.99 2627.01 L1750.37 2640.79 L1765.74 2662.66 L1759.19 2662.66 L1746.55 2644.68 L1740.28 2651.04 L1740.28 2662.66 L1734.45 2662.66 L1734.45 2627.01 Z" fill="#000000" fill-rule="nonzero" fill-opacity="1" /><path clip-path="url(#clip960)" d="M1787.86 2631.12 Q1783.15 2631.12 1780.42 2634.81 Q1777.68 2638.47 1777.68 2644.87 Q1777.68 2651.27 1780.38 2654.96 Q1783.12 2658.62 1787.86 2658.62 Q1792.54 2658.62 1795.28 2654.93 Q1798.02 2651.23 1798.02 2644.87 Q1798.02 2638.53 1795.28 2634.84 Q1792.54 2631.12 1787.86 2631.12 M1787.86 2626.15 Q1795.5 2626.15 1799.86 2631.12 Q1804.22 2636.08 1804.22 2644.87 Q1804.22 2653.62 1799.86 2658.62 Q1795.5 2663.58 1787.86 2663.58 Q1780.19 2663.58 1775.83 2658.62 Q1771.5 2653.62 1771.5 2644.87 Q1771.5 2636.08 1775.83 2631.12 Q1780.19 2626.15 1787.86 2626.15 Z" fill="#000000" fill-rule="nonzero" fill-opacity="1" /><path clip-path="url(#clip960)" d="M1819.6 2657.31 L1819.6 2676.22 L1813.71 2676.22 L1813.71 2627.01 L1819.6 2627.01 L1819.6 2632.42 Q1821.44 2629.24 1824.24 2627.71 Q1827.08 2626.15 1830.99 2626.15 Q1837.48 2626.15 1841.53 2631.31 Q1845.6 2636.46 1845.6 2644.87 Q1845.6 2653.27 1841.53 2658.43 Q1837.48 2663.58 1830.99 2663.58 Q1827.08 2663.58 1824.24 2662.06 Q1821.44 2660.5 1819.6 2657.31 M1839.52 2644.87 Q1839.52 2638.41 1836.85 2634.75 Q1834.21 2631.05 1829.56 2631.05 Q1824.91 2631.05 1822.24 2634.75 Q1819.6 2638.41 1819.6 2644.87 Q1819.6 2651.33 1822.24 2655.02 Q1824.91 2658.68 1829.56 2658.68 Q1834.21 2658.68 1836.85 2655.02 Q1839.52 2651.33 1839.52 2644.87 Z" fill="#000000" fill-rule="nonzero" fill-opacity="1" /><path clip-path="url(#clip960)" d="M1869.12 2631.12 Q1864.41 2631.12 1861.67 2634.81 Q1858.94 2638.47 1858.94 2644.87 Q1858.94 2651.27 1861.64 2654.96 Q1864.38 2658.62 1869.12 2658.62 Q1873.8 2658.62 1876.54 2654.93 Q1879.27 2651.23 1879.27 2644.87 Q1879.27 2638.53 1876.54 2634.84 Q1873.8 2631.12 1869.12 2631.12 M1869.12 2626.15 Q1876.76 2626.15 1881.12 2631.12 Q1885.48 2636.08 1885.48 2644.87 Q1885.48 2653.62 1881.12 2658.62 Q1876.76 2663.58 1869.12 2663.58 Q1861.45 2663.58 1857.09 2658.62 Q1852.76 2653.62 1852.76 2644.87 Q1852.76 2636.08 1857.09 2631.12 Q1861.45 2626.15 1869.12 2626.15 Z" fill="#000000" fill-rule="nonzero" fill-opacity="1" /><path clip-path="url(#clip960)" d="M1920.84 2628.38 L1920.84 2633.86 Q1918.36 2632.49 1915.85 2631.82 Q1913.36 2631.12 1910.82 2631.12 Q1905.12 2631.12 1901.97 2634.75 Q1898.82 2638.34 1898.82 2644.87 Q1898.82 2651.39 1901.97 2655.02 Q1905.12 2658.62 1910.82 2658.62 Q1913.36 2658.62 1915.85 2657.95 Q1918.36 2657.25 1920.84 2655.88 L1920.84 2661.29 Q1918.39 2662.44 1915.75 2663.01 Q1913.14 2663.58 1910.18 2663.58 Q1902.13 2663.58 1897.38 2658.52 Q1892.64 2653.46 1892.64 2644.87 Q1892.64 2636.15 1897.42 2631.15 Q1902.22 2626.15 1910.56 2626.15 Q1913.27 2626.15 1915.85 2626.73 Q1918.42 2627.27 1920.84 2628.38 Z" fill="#000000" fill-rule="nonzero" fill-opacity="1" /><path clip-path="url(#clip960)" d="M1926.79 2627.01 L1960.95 2627.01 L1960.95 2631.69 L1946.75 2631.69 L1946.75 2662.66 L1940.99 2662.66 L1940.99 2631.69 L1926.79 2631.69 L1926.79 2627.01 Z" fill="#000000" fill-rule="nonzero" fill-opacity="1" /><path clip-path="url(#clip960)" d="M1991.18 2652.09 Q1991.18 2649.23 1989.08 2647.73 Q1987.01 2646.24 1983 2646.24 L1974.66 2646.24 L1974.66 2657.98 L1983 2657.98 Q1987.01 2657.98 1989.08 2656.49 Q1991.18 2654.96 1991.18 2652.09 M1968.78 2627.01 L1974.66 2627.01 L1974.66 2641.56 L1983.26 2641.56 Q1990.07 2641.56 1993.73 2644.17 Q1997.42 2646.75 1997.42 2652.09 Q1997.42 2657.44 1993.73 2660.05 Q1990.07 2662.66 1983.26 2662.66 L1968.78 2662.66 L1968.78 2627.01 Z" fill="#000000" fill-rule="nonzero" fill-opacity="1" /><path clip-path="url(#clip960)" d="M2033.8 2657.31 L2033.8 2676.22 L2027.91 2676.22 L2027.91 2627.01 L2033.8 2627.01 L2033.8 2632.42 Q2035.65 2629.24 2038.45 2627.71 Q2041.28 2626.15 2045.2 2626.15 Q2051.69 2626.15 2055.73 2631.31 Q2059.81 2636.46 2059.81 2644.87 Q2059.81 2653.27 2055.73 2658.43 Q2051.69 2663.58 2045.2 2663.58 Q2041.28 2663.58 2038.45 2662.06 Q2035.65 2660.5 2033.8 2657.31 M2053.73 2644.87 Q2053.73 2638.41 2051.05 2634.75 Q2048.41 2631.05 2043.76 2631.05 Q2039.12 2631.05 2036.44 2634.75 Q2033.8 2638.41 2033.8 2644.87 Q2033.8 2651.33 2036.44 2655.02 Q2039.12 2658.68 2043.76 2658.68 Q2048.41 2658.68 2051.05 2655.02 Q2053.73 2651.33 2053.73 2644.87 Z" fill="#000000" fill-rule="nonzero" fill-opacity="1" /><path clip-path="url(#clip960)" d="M2083.33 2631.12 Q2078.62 2631.12 2075.88 2634.81 Q2073.14 2638.47 2073.14 2644.87 Q2073.14 2651.27 2075.85 2654.96 Q2078.58 2658.62 2083.33 2658.62 Q2088.01 2658.62 2090.74 2654.93 Q2093.48 2651.23 2093.48 2644.87 Q2093.48 2638.53 2090.74 2634.84 Q2088.01 2631.12 2083.33 2631.12 M2083.33 2626.15 Q2090.97 2626.15 2095.33 2631.12 Q2099.69 2636.08 2099.69 2644.87 Q2099.69 2653.62 2095.33 2658.62 Q2090.97 2663.58 2083.33 2663.58 Q2075.66 2663.58 2071.3 2658.62 Q2066.97 2653.62 2066.97 2644.87 Q2066.97 2636.08 2071.3 2631.12 Q2075.66 2626.15 2083.33 2626.15 Z" fill="#000000" fill-rule="nonzero" fill-opacity="1" /><path clip-path="url(#clip960)" d="M2135.05 2628.38 L2135.05 2633.86 Q2132.57 2632.49 2130.05 2631.82 Q2127.57 2631.12 2125.02 2631.12 Q2119.33 2631.12 2116.17 2634.75 Q2113.02 2638.34 2113.02 2644.87 Q2113.02 2651.39 2116.17 2655.02 Q2119.33 2658.62 2125.02 2658.62 Q2127.57 2658.62 2130.05 2657.95 Q2132.57 2657.25 2135.05 2655.88 L2135.05 2661.29 Q2132.6 2662.44 2129.96 2663.01 Q2127.35 2663.58 2124.39 2663.58 Q2116.33 2663.58 2111.59 2658.52 Q2106.85 2653.46 2106.85 2644.87 Q2106.85 2636.15 2111.62 2631.15 Q2116.43 2626.15 2124.77 2626.15 Q2127.47 2626.15 2130.05 2626.73 Q2132.63 2627.27 2135.05 2628.38 Z" fill="#000000" fill-rule="nonzero" fill-opacity="1" /><path clip-path="url(#clip960)" d="M2141 2627.01 L2175.15 2627.01 L2175.15 2631.69 L2160.96 2631.69 L2160.96 2662.66 L2155.2 2662.66 L2155.2 2631.69 L2141 2631.69 L2141 2627.01 Z" fill="#000000" fill-rule="nonzero" fill-opacity="1" /><path clip-path="url(#clip960)" d="M2199.41 2644.74 Q2192.31 2644.74 2189.57 2646.36 Q2186.83 2647.99 2186.83 2651.9 Q2186.83 2655.02 2188.87 2656.87 Q2190.94 2658.68 2194.47 2658.68 Q2199.34 2658.68 2202.27 2655.24 Q2205.23 2651.77 2205.23 2646.05 L2205.23 2644.74 L2199.41 2644.74 M2211.09 2642.32 L2211.09 2662.66 L2205.23 2662.66 L2205.23 2657.25 Q2203.23 2660.5 2200.23 2662.06 Q2197.24 2663.58 2192.91 2663.58 Q2187.44 2663.58 2184.19 2660.53 Q2180.98 2657.44 2180.98 2652.28 Q2180.98 2646.27 2184.99 2643.21 Q2189.03 2640.16 2197.02 2640.16 L2205.23 2640.16 L2205.23 2639.58 Q2205.23 2635.54 2202.56 2633.35 Q2199.92 2631.12 2195.11 2631.12 Q2192.05 2631.12 2189.16 2631.85 Q2186.26 2632.58 2183.59 2634.05 L2183.59 2628.64 Q2186.8 2627.39 2189.83 2626.79 Q2192.85 2626.15 2195.71 2626.15 Q2203.45 2626.15 2207.27 2630.16 Q2211.09 2634.17 2211.09 2642.32 Z" fill="#000000" fill-rule="nonzero" fill-opacity="1" /><path clip-path="url(#clip960)" d="M2224.65 2654.58 L2231.36 2654.58 L2231.36 2660.05 L2226.14 2670.24 L2222.04 2670.24 L2224.65 2660.05 L2224.65 2654.58 Z" fill="#000000" fill-rule="nonzero" fill-opacity="1" /><path clip-path="url(#clip960)" d="M2285.37 2646.08 L2283.97 2638.72 Q2282.54 2631.18 2276.88 2631.18 Q2272.61 2631.18 2270.67 2634.68 Q2268.22 2639.07 2268.22 2644.87 Q2268.22 2651.87 2270.61 2655.21 Q2273.03 2658.62 2276.88 2658.62 Q2281.14 2658.62 2283.43 2651.84 L2285.37 2646.08 M2288.65 2636.34 L2291.8 2627.01 L2297.02 2627.01 L2290.5 2646.33 L2291.77 2653.3 Q2292.06 2654.86 2293.17 2656.17 Q2294.48 2657.69 2295.5 2657.69 L2298.3 2657.69 L2298.3 2662.66 L2294.8 2662.66 Q2291.8 2662.66 2289.13 2659.99 Q2287.83 2658.65 2287.28 2655.85 Q2285.82 2659.38 2282.83 2662.15 Q2281.43 2663.46 2276.88 2663.46 Q2269.4 2663.46 2265.77 2658.62 Q2262.04 2653.62 2262.04 2644.87 Q2262.04 2635.51 2266.09 2631.12 Q2270.57 2626.22 2276.88 2626.22 Q2286.78 2626.22 2288.65 2636.34 Z" fill="#000000" fill-rule="nonzero" fill-opacity="1" /><polyline clip-path="url(#clip960)" style="stroke:#000000; stroke-linecap:round; stroke-linejoin:round; stroke-width:4; stroke-opacity:1; fill:none" points="192.221,2496.2 192.221,126.496 "/>
<polyline clip-path="url(#clip960)" style="stroke:#000000; stroke-linecap:round; stroke-linejoin:round; stroke-width:4; stroke-opacity:1; fill:none" points="192.221,2319.17 211.119,2319.17 "/>
<polyline clip-path="url(#clip960)" style="stroke:#000000; stroke-linecap:round; stroke-linejoin:round; stroke-width:4; stroke-opacity:1; fill:none" points="192.221,1960.81 211.119,1960.81 "/>
<polyline clip-path="url(#clip960)" style="stroke:#000000; stroke-linecap:round; stroke-linejoin:round; stroke-width:4; stroke-opacity:1; fill:none" points="192.221,1602.45 211.119,1602.45 "/>
<polyline clip-path="url(#clip960)" style="stroke:#000000; stroke-linecap:round; stroke-linejoin:round; stroke-width:4; stroke-opacity:1; fill:none" points="192.221,1244.09 211.119,1244.09 "/>
<polyline clip-path="url(#clip960)" style="stroke:#000000; stroke-linecap:round; stroke-linejoin:round; stroke-width:4; stroke-opacity:1; fill:none" points="192.221,885.725 211.119,885.725 "/>
<polyline clip-path="url(#clip960)" style="stroke:#000000; stroke-linecap:round; stroke-linejoin:round; stroke-width:4; stroke-opacity:1; fill:none" points="192.221,527.365 211.119,527.365 "/>
<polyline clip-path="url(#clip960)" style="stroke:#000000; stroke-linecap:round; stroke-linejoin:round; stroke-width:4; stroke-opacity:1; fill:none" points="192.221,169.005 211.119,169.005 "/>
<path clip-path="url(#clip960)" d="M114.714 2332.51 L122.353 2332.51 L122.353 2306.14 L114.043 2307.81 L114.043 2303.55 L122.306 2301.89 L126.982 2301.89 L126.982 2332.51 L134.621 2332.51 L134.621 2336.45 L114.714 2336.45 L114.714 2332.51 Z" fill="#000000" fill-rule="nonzero" fill-opacity="1" /><path clip-path="url(#clip960)" d="M118.302 1974.15 L134.621 1974.15 L134.621 1978.09 L112.677 1978.09 L112.677 1974.15 Q115.339 1971.4 119.922 1966.77 Q124.529 1962.11 125.709 1960.77 Q127.955 1958.25 128.834 1956.51 Q129.737 1954.75 129.737 1953.06 Q129.737 1950.31 127.793 1948.57 Q125.871 1946.84 122.769 1946.84 Q120.57 1946.84 118.117 1947.6 Q115.686 1948.36 112.908 1949.91 L112.908 1945.19 Q115.732 1944.06 118.186 1943.48 Q120.64 1942.9 122.677 1942.9 Q128.047 1942.9 131.242 1945.59 Q134.436 1948.27 134.436 1952.76 Q134.436 1954.89 133.626 1956.81 Q132.839 1958.71 130.732 1961.3 Q130.154 1961.97 127.052 1965.19 Q123.95 1968.39 118.302 1974.15 Z" fill="#000000" fill-rule="nonzero" fill-opacity="1" /><path clip-path="url(#clip960)" d="M127.492 1601.09 Q130.848 1601.81 132.723 1604.08 Q134.621 1606.35 134.621 1609.68 Q134.621 1614.79 131.103 1617.6 Q127.584 1620.4 121.103 1620.4 Q118.927 1620.4 116.612 1619.96 Q114.32 1619.54 111.867 1618.68 L111.867 1614.17 Q113.811 1615.3 116.126 1615.88 Q118.441 1616.46 120.964 1616.46 Q125.362 1616.46 127.654 1614.73 Q129.968 1612.99 129.968 1609.68 Q129.968 1606.62 127.816 1604.91 Q125.686 1603.17 121.867 1603.17 L117.839 1603.17 L117.839 1599.33 L122.052 1599.33 Q125.501 1599.33 127.33 1597.97 Q129.158 1596.58 129.158 1593.98 Q129.158 1591.32 127.26 1589.91 Q125.385 1588.48 121.867 1588.48 Q119.945 1588.48 117.746 1588.89 Q115.547 1589.31 112.908 1590.19 L112.908 1586.02 Q115.57 1585.28 117.885 1584.91 Q120.223 1584.54 122.283 1584.54 Q127.607 1584.54 130.709 1586.97 Q133.811 1589.38 133.811 1593.5 Q133.811 1596.37 132.168 1598.36 Q130.524 1600.33 127.492 1601.09 Z" fill="#000000" fill-rule="nonzero" fill-opacity="1" /><path clip-path="url(#clip960)" d="M125.038 1230.88 L113.232 1249.33 L125.038 1249.33 L125.038 1230.88 M123.811 1226.81 L129.691 1226.81 L129.691 1249.33 L134.621 1249.33 L134.621 1253.22 L129.691 1253.22 L129.691 1261.37 L125.038 1261.37 L125.038 1253.22 L109.436 1253.22 L109.436 1248.7 L123.811 1226.81 Z" fill="#000000" fill-rule="nonzero" fill-opacity="1" /><path clip-path="url(#clip960)" d="M113.719 868.445 L132.075 868.445 L132.075 872.38 L118.001 872.38 L118.001 880.853 Q119.019 880.505 120.038 880.343 Q121.056 880.158 122.075 880.158 Q127.862 880.158 131.242 883.329 Q134.621 886.501 134.621 891.917 Q134.621 897.496 131.149 900.598 Q127.677 903.677 121.357 903.677 Q119.181 903.677 116.913 903.306 Q114.668 902.936 112.26 902.195 L112.26 897.496 Q114.344 898.63 116.566 899.186 Q118.788 899.741 121.265 899.741 Q125.269 899.741 127.607 897.635 Q129.945 895.528 129.945 891.917 Q129.945 888.306 127.607 886.2 Q125.269 884.093 121.265 884.093 Q119.39 884.093 117.515 884.51 Q115.663 884.927 113.719 885.806 L113.719 868.445 Z" fill="#000000" fill-rule="nonzero" fill-opacity="1" /><path clip-path="url(#clip960)" d="M123.093 525.502 Q119.945 525.502 118.094 527.655 Q116.265 529.807 116.265 533.557 Q116.265 537.284 118.094 539.46 Q119.945 541.613 123.093 541.613 Q126.242 541.613 128.07 539.46 Q129.922 537.284 129.922 533.557 Q129.922 529.807 128.07 527.655 Q126.242 525.502 123.093 525.502 M132.376 510.849 L132.376 515.108 Q130.617 514.275 128.811 513.835 Q127.029 513.395 125.269 513.395 Q120.64 513.395 118.186 516.52 Q115.756 519.645 115.408 525.965 Q116.774 523.951 118.834 522.886 Q120.894 521.798 123.371 521.798 Q128.58 521.798 131.589 524.969 Q134.621 528.118 134.621 533.557 Q134.621 538.881 131.473 542.099 Q128.325 545.317 123.093 545.317 Q117.098 545.317 113.927 540.733 Q110.756 536.127 110.756 527.4 Q110.756 519.206 114.644 514.345 Q118.533 509.46 125.084 509.46 Q126.843 509.46 128.626 509.808 Q130.431 510.155 132.376 510.849 Z" fill="#000000" fill-rule="nonzero" fill-opacity="1" /><path clip-path="url(#clip960)" d="M112.399 151.725 L134.621 151.725 L134.621 153.716 L122.075 186.285 L117.191 186.285 L128.996 155.661 L112.399 155.661 L112.399 151.725 Z" fill="#000000" fill-rule="nonzero" fill-opacity="1" /><path clip-path="url(#clip960)" d="M14.8864 1627.01 L32.2966 1627.01 L32.2966 1616.69 Q32.2966 1611.5 30.1641 1609.02 Q27.9998 1606.51 23.5756 1606.51 Q19.1196 1606.51 17.0189 1609.02 Q14.8864 1611.5 14.8864 1616.69 L14.8864 1627.01 M-4.65631 1627.01 L9.66653 1627.01 L9.66653 1617.49 Q9.66653 1612.78 7.91596 1610.49 Q6.13357 1608.16 2.50511 1608.16 Q-1.09151 1608.16 -2.87391 1610.49 Q-4.65631 1612.78 -4.65631 1617.49 L-4.65631 1627.01 M-9.93984 1633.43 L-9.93984 1617.01 Q-9.93984 1609.66 -6.8843 1605.68 Q-3.82876 1601.7 1.80489 1601.7 Q6.1654 1601.7 8.74351 1603.74 Q11.3216 1605.78 11.9582 1609.72 Q12.9767 1604.98 16.2232 1602.37 Q19.4379 1599.73 24.2758 1599.73 Q30.6415 1599.73 34.1108 1604.06 Q37.5802 1608.39 37.5802 1616.37 L37.5802 1633.43 L-9.93984 1633.43 Z" fill="#000000" fill-rule="nonzero" fill-opacity="1" /><path clip-path="url(#clip960)" d="M32.233 1583.3 L51.1391 1583.3 L51.1391 1589.19 L1.9322 1589.19 L1.9322 1583.3 L7.34305 1583.3 Q4.1602 1581.46 2.63243 1578.66 Q1.07283 1575.83 1.07283 1571.91 Q1.07283 1565.42 6.22905 1561.38 Q11.3853 1557.3 19.788 1557.3 Q28.1907 1557.3 33.347 1561.38 Q38.5032 1565.42 38.5032 1571.91 Q38.5032 1575.83 36.9754 1578.66 Q35.4158 1581.46 32.233 1583.3 M19.788 1563.38 Q13.3268 1563.38 9.66653 1566.05 Q5.97442 1568.7 5.97442 1573.34 Q5.97442 1577.99 9.66653 1580.66 Q13.3268 1583.3 19.788 1583.3 Q26.2492 1583.3 29.9413 1580.66 Q33.6016 1577.99 33.6016 1573.34 Q33.6016 1568.7 29.9413 1566.05 Q26.2492 1563.38 19.788 1563.38 Z" fill="#000000" fill-rule="nonzero" fill-opacity="1" /><path clip-path="url(#clip960)" d="M18.2921 1517.1 L21.1566 1517.1 L21.1566 1544.03 Q27.2041 1543.65 30.3869 1540.4 Q33.5379 1537.12 33.5379 1531.3 Q33.5379 1527.92 32.7104 1524.77 Q31.8829 1521.59 30.2278 1518.47 L35.7659 1518.47 Q37.1027 1521.62 37.803 1524.93 Q38.5032 1528.24 38.5032 1531.65 Q38.5032 1540.18 33.5379 1545.17 Q28.5727 1550.14 20.1063 1550.14 Q11.3534 1550.14 6.22905 1545.43 Q1.07283 1540.69 1.07283 1532.67 Q1.07283 1525.47 5.7198 1521.3 Q10.3349 1517.1 18.2921 1517.1 M16.5733 1522.96 Q11.7672 1523.02 8.90265 1525.66 Q6.03808 1528.27 6.03808 1532.6 Q6.03808 1537.5 8.80716 1540.46 Q11.5762 1543.39 16.6052 1543.84 L16.5733 1522.96 Z" fill="#000000" fill-rule="nonzero" fill-opacity="1" /><path clip-path="url(#clip960)" d="M1.9322 1507.71 L1.9322 1499.15 L25.8036 1489.03 L1.9322 1478.88 L1.9322 1470.38 L37.5802 1470.38 L37.5802 1476.27 L7.53402 1476.27 L30.737 1486.1 L30.737 1491.96 L7.53402 1501.82 L37.5802 1501.82 L37.5802 1507.71 L1.9322 1507.71 Z" fill="#000000" fill-rule="nonzero" fill-opacity="1" /><path clip-path="url(#clip960)" d="M12.2128 1452.43 Q14.8546 1452.43 16.3505 1450.39 Q17.8465 1448.35 17.8465 1444.56 L17.8465 1436.67 L6.61099 1436.67 L6.61099 1444.56 Q6.61099 1448.35 8.07511 1450.39 Q9.53922 1452.43 12.2128 1452.43 M37.5802 1460.77 L21.9523 1449.88 Q21.1248 1453.57 18.9605 1456.02 Q16.7643 1458.47 12.2128 1458.47 Q7.05659 1458.47 4.51031 1455.07 Q1.9322 1451.63 1.9322 1444.72 L1.9322 1430.78 L37.5802 1430.78 L37.5802 1436.67 L22.5253 1436.67 L22.5253 1443.96 L37.5802 1454.46 L37.5802 1460.77 Z" fill="#000000" fill-rule="nonzero" fill-opacity="1" /><path clip-path="url(#clip960)" d="M40.8903 1383.55 Q47.256 1386.03 49.1976 1388.39 Q51.1391 1390.74 51.1391 1394.69 L51.1391 1399.37 L46.2375 1399.37 L46.2375 1395.93 Q46.2375 1393.51 45.0917 1392.17 Q43.9459 1390.84 39.6808 1389.21 L37.0072 1388.16 L1.9322 1402.58 L1.9322 1396.38 L29.814 1385.24 L1.9322 1374.1 L1.9322 1367.89 L40.8903 1383.55 Z" fill="#000000" fill-rule="nonzero" fill-opacity="1" /><path clip-path="url(#clip960)" d="M32.9014 1351.85 L32.9014 1334.85 L6.61099 1334.85 L6.61099 1347.17 L11.067 1347.17 Q24.1803 1347.17 31.1826 1350.92 L32.9014 1351.85 M32.9014 1360.35 Q31.6282 1357.45 28.9228 1356.18 Q22.207 1353.06 8.67985 1353.06 L1.9322 1353.06 L1.9322 1328.96 L32.9014 1328.96 L32.9014 1324.28 L46.5876 1324.28 L46.5876 1328.96 L37.5802 1328.96 L37.5802 1357.86 L46.5876 1357.86 L46.5876 1362.54 L32.9014 1362.54 L32.9014 1360.35 Z" fill="#000000" fill-rule="nonzero" fill-opacity="1" /><path clip-path="url(#clip960)" d="M21.1566 1309.1 L32.9014 1309.1 L32.9014 1300.76 Q32.9014 1296.75 31.4054 1294.65 Q29.8777 1292.55 27.0131 1292.55 Q24.1485 1292.55 22.6526 1294.65 Q21.1566 1296.75 21.1566 1300.76 L21.1566 1309.1 M6.61099 1309.1 L16.4778 1309.1 L16.4778 1301.4 Q16.4778 1298.09 15.1729 1295.99 Q13.8361 1293.89 11.4808 1293.89 Q9.12545 1293.89 7.88414 1295.99 Q6.61099 1298.09 6.61099 1301.4 L6.61099 1309.1 M1.9322 1314.96 L1.9322 1301.02 Q1.9322 1294.75 4.22385 1291.37 Q6.51551 1288 10.7487 1288 Q14.027 1288 15.9686 1289.72 Q17.8783 1291.44 18.3557 1294.81 Q19.1196 1290.77 21.5386 1288.54 Q23.9575 1286.31 27.586 1286.31 Q32.3603 1286.31 34.9702 1290 Q37.5802 1293.67 37.5802 1300.48 L37.5802 1314.96 L1.9322 1314.96 Z" fill="#000000" fill-rule="nonzero" fill-opacity="1" /><path clip-path="url(#clip960)" d="M6.03808 1262.51 Q6.03808 1267.22 9.73019 1269.95 Q13.3905 1272.69 19.788 1272.69 Q26.1855 1272.69 29.8777 1269.98 Q33.5379 1267.25 33.5379 1262.51 Q33.5379 1257.83 29.8458 1255.09 Q26.1537 1252.35 19.788 1252.35 Q13.4541 1252.35 9.76202 1255.09 Q6.03808 1257.83 6.03808 1262.51 M1.07283 1262.51 Q1.07283 1254.87 6.03808 1250.51 Q11.0033 1246.15 19.788 1246.15 Q28.5409 1246.15 33.5379 1250.51 Q38.5032 1254.87 38.5032 1262.51 Q38.5032 1270.18 33.5379 1274.54 Q28.5409 1278.86 19.788 1278.86 Q11.0033 1278.86 6.03808 1274.54 Q1.07283 1270.18 1.07283 1262.51 Z" fill="#000000" fill-rule="nonzero" fill-opacity="1" /><path clip-path="url(#clip960)" d="M18.2921 1205.95 L21.1566 1205.95 L21.1566 1232.87 Q27.2041 1232.49 30.3869 1229.24 Q33.5379 1225.97 33.5379 1220.14 Q33.5379 1216.77 32.7104 1213.62 Q31.8829 1210.43 30.2278 1207.31 L35.7659 1207.31 Q37.1027 1210.47 37.803 1213.78 Q38.5032 1217.09 38.5032 1220.49 Q38.5032 1229.02 33.5379 1234.02 Q28.5727 1238.98 20.1063 1238.98 Q11.3534 1238.98 6.22905 1234.27 Q1.07283 1229.53 1.07283 1221.51 Q1.07283 1214.32 5.7198 1210.15 Q10.3349 1205.95 18.2921 1205.95 M16.5733 1211.8 Q11.7672 1211.87 8.90265 1214.51 Q6.03808 1217.12 6.03808 1221.45 Q6.03808 1226.35 8.80716 1229.31 Q11.5762 1232.24 16.6052 1232.68 L16.5733 1211.8 Z" fill="#000000" fill-rule="nonzero" fill-opacity="1" /><path clip-path="url(#clip960)" d="M1.9322 1196.56 L1.9322 1190.67 L16.4778 1190.67 L16.4778 1171.67 L1.9322 1171.67 L1.9322 1165.78 L37.5802 1165.78 L37.5802 1171.67 L21.1566 1171.67 L21.1566 1190.67 L37.5802 1190.67 L37.5802 1196.56 L1.9322 1196.56 Z" fill="#000000" fill-rule="nonzero" fill-opacity="1" /><path clip-path="url(#clip960)" d="M1.9322 1123.41 L37.5802 1123.41 L37.5802 1129.24 L8.96631 1129.24 L37.5802 1146.43 L37.5802 1153.94 L1.9322 1153.94 L1.9322 1148.11 L30.4824 1148.11 L1.9322 1130.96 L1.9322 1123.41 Z" fill="#000000" fill-rule="nonzero" fill-opacity="1" /><path clip-path="url(#clip960)" d="M12.2128 1105.46 Q14.8546 1105.46 16.3505 1103.43 Q17.8465 1101.39 17.8465 1097.6 L17.8465 1089.71 L6.61099 1089.71 L6.61099 1097.6 Q6.61099 1101.39 8.07511 1103.43 Q9.53922 1105.46 12.2128 1105.46 M37.5802 1113.8 L21.9523 1102.92 Q21.1248 1106.61 18.9605 1109.06 Q16.7643 1111.51 12.2128 1111.51 Q7.05659 1111.51 4.51031 1108.1 Q1.9322 1104.67 1.9322 1097.76 L1.9322 1083.82 L37.5802 1083.82 L37.5802 1089.71 L22.5253 1089.71 L22.5253 1097 L37.5802 1107.5 L37.5802 1113.8 Z" fill="#000000" fill-rule="nonzero" fill-opacity="1" /><path clip-path="url(#clip960)" d="M29.4957 1070.64 L29.4957 1063.93 L34.9702 1063.93 L45.1553 1069.15 L45.1553 1073.25 L34.9702 1070.64 L29.4957 1070.64 Z" fill="#000000" fill-rule="nonzero" fill-opacity="1" /><path clip-path="url(#clip960)" d="M-8.18927 1024.91 L1.9322 1024.91 L1.9322 1012.84 L6.48368 1012.84 L6.48368 1024.91 L25.8354 1024.91 Q30.1959 1024.91 31.4373 1023.73 Q32.6786 1022.52 32.6786 1018.86 L32.6786 1012.84 L37.5802 1012.84 L37.5802 1018.86 Q37.5802 1025.64 35.0657 1028.22 Q32.5194 1030.79 25.8354 1030.79 L6.48368 1030.79 L6.48368 1035.09 L1.9322 1035.09 L1.9322 1030.79 L-8.18927 1030.79 L-8.18927 1024.91 Z" fill="#000000" fill-rule="nonzero" fill-opacity="1" /><path clip-path="url(#clip960)" d="M33.9517 1002.75 L33.9517 989.257 L37.5802 989.257 L37.5802 1008.29 L34.079 1008.29 Q33.0923 1007.21 31.3099 1005.2 Q21.6022 994.254 18.6104 994.254 Q16.5097 994.254 15.2365 995.909 Q13.9316 997.564 13.9316 1000.27 Q13.9316 1001.92 14.5045 1003.87 Q15.0456 1005.81 16.1596 1008.1 L12.2446 1008.1 Q11.3534 1005.65 10.9078 1003.55 Q10.4622 1001.42 10.4622 999.601 Q10.4622 994.986 12.5629 992.217 Q14.6636 989.448 18.1011 989.448 Q22.5253 989.448 31.5646 999.983 Q33.0923 1001.77 33.9517 1002.75 Z" fill="#000000" fill-rule="nonzero" fill-opacity="1" /><path clip-path="url(#clip960)" d="M1209.73 11.0023 Q1219.7 11.0023 1226.02 15.2557 Q1232.34 19.4686 1232.34 26.6793 Q1232.34 31.7024 1229.46 35.1862 Q1226.58 38.6294 1221.28 39.9662 Q1227.15 41.222 1230.43 45.1919 Q1233.75 49.1618 1233.75 54.9951 Q1233.75 64.3122 1226.54 69.0517 Q1219.37 73.7508 1209.73 73.7508 Q1204.79 73.7508 1199.04 72.414 Q1193.29 71.0772 1191.5 69.9429 L1191.5 61.517 Q1197.7 65.1223 1201.1 66.0135 Q1204.55 66.8642 1209.57 66.8642 Q1217.19 66.8642 1221.4 63.9476 Q1225.61 61.0309 1225.61 54.9951 Q1225.61 49.6479 1221.84 46.6502 Q1218.12 43.612 1210.22 43.612 L1201.95 43.612 L1201.95 36.8875 L1210.54 36.8875 Q1217.79 36.8875 1220.99 34.4975 Q1224.19 32.067 1224.19 27.5299 Q1224.19 22.8714 1220.87 20.4004 Q1217.59 17.8888 1209.57 17.8888 Q1204.14 17.8888 1202.28 18.3749 Q1200.42 18.861 1192.11 21.9802 L1192.11 13.9999 Q1196.69 12.3796 1201.47 11.6909 Q1206.25 11.0023 1209.73 11.0023 Z" fill="#000000" fill-rule="nonzero" fill-opacity="1" /><path clip-path="url(#clip960)" d="M1267.66 49.7694 Q1258.63 49.7694 1255.14 51.8354 Q1251.66 53.9013 1251.66 58.8839 Q1251.66 62.8538 1254.25 65.2034 Q1256.88 67.5124 1261.38 67.5124 Q1267.58 67.5124 1271.31 63.1374 Q1275.07 58.7219 1275.07 51.4303 L1275.07 49.7694 L1267.66 49.7694 M1282.53 46.6907 L1282.53 72.576 L1275.07 72.576 L1275.07 65.6895 Q1272.52 69.8214 1268.71 71.8063 Q1264.91 73.7508 1259.4 73.7508 Q1252.43 73.7508 1248.3 69.8619 Q1244.21 65.9325 1244.21 59.3701 Q1244.21 51.7138 1249.31 47.825 Q1254.45 43.9361 1264.62 43.9361 L1275.07 43.9361 L1275.07 43.2069 Q1275.07 38.0623 1271.67 35.2672 Q1268.31 32.4315 1262.19 32.4315 Q1258.3 32.4315 1254.62 33.3632 Q1250.93 34.295 1247.53 36.1584 L1247.53 29.2718 Q1251.62 27.692 1255.47 26.9223 Q1259.32 26.1121 1262.96 26.1121 Q1272.8 26.1121 1277.67 31.2163 Q1282.53 36.3204 1282.53 46.6907 Z" fill="#000000" fill-rule="nonzero" fill-opacity="1" /><path clip-path="url(#clip960)" d="M1305.05 51.6733 L1305.05 66.6212 L1315.66 66.6212 Q1320.77 66.6212 1323.44 64.7172 Q1326.11 62.7728 1326.11 59.127 Q1326.11 55.4812 1323.44 53.5773 Q1320.77 51.6733 1315.66 51.6733 L1305.05 51.6733 M1305.05 33.1607 L1305.05 45.7185 L1314.85 45.7185 Q1319.07 45.7185 1321.74 44.0576 Q1324.41 42.3563 1324.41 39.3586 Q1324.41 36.3609 1321.74 34.7811 Q1319.07 33.1607 1314.85 33.1607 L1305.05 33.1607 M1297.6 27.2059 L1315.34 27.2059 Q1323.32 27.2059 1327.61 30.1225 Q1331.91 33.0392 1331.91 38.4269 Q1331.91 42.5993 1329.72 45.0704 Q1327.53 47.5009 1323.24 48.1085 Q1328.38 49.0808 1331.22 52.1594 Q1334.05 55.2381 1334.05 59.8562 Q1334.05 65.9325 1329.36 69.2543 Q1324.7 72.576 1316.03 72.576 L1297.6 72.576 L1297.6 27.2059 Z" fill="#000000" fill-rule="nonzero" fill-opacity="1" /><path clip-path="url(#clip960)" d="M1385.34 27.2059 L1385.34 72.576 L1377.93 72.576 L1377.93 36.1584 L1356.05 72.576 L1346.49 72.576 L1346.49 27.2059 L1353.9 27.2059 L1353.9 63.5425 L1375.74 27.2059 L1385.34 27.2059 Z" fill="#000000" fill-rule="nonzero" fill-opacity="1" /><path clip-path="url(#clip960)" d="M1433.34 28.9478 L1433.34 35.9153 Q1430.18 34.1734 1426.98 33.3227 Q1423.82 32.4315 1420.58 32.4315 Q1413.33 32.4315 1409.32 37.0496 Q1405.31 41.6271 1405.31 49.9314 Q1405.31 58.2358 1409.32 62.8538 Q1413.33 67.4314 1420.58 67.4314 Q1423.82 67.4314 1426.98 66.5807 Q1430.18 65.6895 1433.34 63.9476 L1433.34 70.8341 Q1430.22 72.2924 1426.86 73.0216 Q1423.54 73.7508 1419.77 73.7508 Q1409.52 73.7508 1403.49 67.3098 Q1397.45 60.8689 1397.45 49.9314 Q1397.45 38.832 1403.53 32.472 Q1409.64 26.1121 1420.26 26.1121 Q1423.7 26.1121 1426.98 26.8413 Q1430.26 27.5299 1433.34 28.9478 Z" fill="#000000" fill-rule="nonzero" fill-opacity="1" /><path clip-path="url(#clip960)" d="M1484.87 27.2059 L1484.87 72.576 L1477.46 72.576 L1477.46 36.1584 L1455.58 72.576 L1446.02 72.576 L1446.02 27.2059 L1453.43 27.2059 L1453.43 63.5425 L1475.27 27.2059 L1484.87 27.2059 Z" fill="#000000" fill-rule="nonzero" fill-opacity="1" /><path clip-path="url(#clip960)" d="M1499.94 27.2059 L1510.84 27.2059 L1523.72 57.5877 L1536.64 27.2059 L1547.46 27.2059 L1547.46 72.576 L1539.96 72.576 L1539.96 34.3355 L1527.44 63.8666 L1519.99 63.8666 L1507.43 34.3355 L1507.43 72.576 L1499.94 72.576 L1499.94 27.2059 Z" fill="#000000" fill-rule="nonzero" fill-opacity="1" /><path clip-path="url(#clip960)" d="M1580.39 32.4315 Q1574.39 32.4315 1570.91 37.1306 Q1567.43 41.7891 1567.43 49.9314 Q1567.43 58.0738 1570.87 62.7728 Q1574.35 67.4314 1580.39 67.4314 Q1586.34 67.4314 1589.83 62.7323 Q1593.31 58.0333 1593.31 49.9314 Q1593.31 41.8701 1589.83 37.1711 Q1586.34 32.4315 1580.39 32.4315 M1580.39 26.1121 Q1590.11 26.1121 1595.66 32.4315 Q1601.21 38.7509 1601.21 49.9314 Q1601.21 61.0714 1595.66 67.4314 Q1590.11 73.7508 1580.39 73.7508 Q1570.63 73.7508 1565.08 67.4314 Q1559.57 61.0714 1559.57 49.9314 Q1559.57 38.7509 1565.08 32.4315 Q1570.63 26.1121 1580.39 26.1121 Z" fill="#000000" fill-rule="nonzero" fill-opacity="1" /><path clip-path="url(#clip960)" d="M1646.22 28.9478 L1646.22 35.9153 Q1643.06 34.1734 1639.86 33.3227 Q1636.7 32.4315 1633.46 32.4315 Q1626.21 32.4315 1622.2 37.0496 Q1618.19 41.6271 1618.19 49.9314 Q1618.19 58.2358 1622.2 62.8538 Q1626.21 67.4314 1633.46 67.4314 Q1636.7 67.4314 1639.86 66.5807 Q1643.06 65.6895 1646.22 63.9476 L1646.22 70.8341 Q1643.1 72.2924 1639.74 73.0216 Q1636.41 73.7508 1632.65 73.7508 Q1622.4 73.7508 1616.36 67.3098 Q1610.33 60.8689 1610.33 49.9314 Q1610.33 38.832 1616.4 32.472 Q1622.52 26.1121 1633.13 26.1121 Q1636.58 26.1121 1639.86 26.8413 Q1643.14 27.5299 1646.22 28.9478 Z" fill="#000000" fill-rule="nonzero" fill-opacity="1" /><path clip-path="url(#clip960)" d="M1653.79 27.2059 L1697.26 27.2059 L1697.26 33.1607 L1679.19 33.1607 L1679.19 72.576 L1671.86 72.576 L1671.86 33.1607 L1653.79 33.1607 L1653.79 27.2059 Z" fill="#000000" fill-rule="nonzero" fill-opacity="1" /><path clip-path="url(#clip960)" d="M1735.74 59.127 Q1735.74 55.4812 1733.07 53.5773 Q1730.44 51.6733 1725.33 51.6733 L1714.72 51.6733 L1714.72 66.6212 L1725.33 66.6212 Q1730.44 66.6212 1733.07 64.7172 Q1735.74 62.7728 1735.74 59.127 M1707.22 27.2059 L1714.72 27.2059 L1714.72 45.7185 L1725.66 45.7185 Q1734.32 45.7185 1738.98 49.0402 Q1743.68 52.3215 1743.68 59.127 Q1743.68 65.9325 1738.98 69.2543 Q1734.32 72.576 1725.66 72.576 L1707.22 72.576 L1707.22 27.2059 Z" fill="#000000" fill-rule="nonzero" fill-opacity="1" /><path clip-path="url(#clip960)" d="M1789.94 51.6733 L1789.94 66.6212 L1800.56 66.6212 Q1805.66 66.6212 1808.33 64.7172 Q1811.01 62.7728 1811.01 59.127 Q1811.01 55.4812 1808.33 53.5773 Q1805.66 51.6733 1800.56 51.6733 L1789.94 51.6733 M1789.94 33.1607 L1789.94 45.7185 L1799.75 45.7185 Q1803.96 45.7185 1806.63 44.0576 Q1809.31 42.3563 1809.31 39.3586 Q1809.31 36.3609 1806.63 34.7811 Q1803.96 33.1607 1799.75 33.1607 L1789.94 33.1607 M1782.49 27.2059 L1800.23 27.2059 Q1808.21 27.2059 1812.51 30.1225 Q1816.8 33.0392 1816.8 38.4269 Q1816.8 42.5993 1814.61 45.0704 Q1812.43 47.5009 1808.13 48.1085 Q1813.28 49.0808 1816.11 52.1594 Q1818.95 55.2381 1818.95 59.8562 Q1818.95 65.9325 1814.25 69.2543 Q1809.59 72.576 1800.92 72.576 L1782.49 72.576 L1782.49 27.2059 Z" fill="#000000" fill-rule="nonzero" fill-opacity="1" /><path clip-path="url(#clip960)" d="M1838.88 65.7705 L1838.88 89.8329 L1831.38 89.8329 L1831.38 27.2059 L1838.88 27.2059 L1838.88 34.0924 Q1841.23 30.0415 1844.79 28.0971 Q1848.4 26.1121 1853.38 26.1121 Q1861.64 26.1121 1866.79 32.6746 Q1871.97 39.2371 1871.97 49.9314 Q1871.97 60.6258 1866.79 67.1883 Q1861.64 73.7508 1853.38 73.7508 Q1848.4 73.7508 1844.79 71.8063 Q1841.23 69.8214 1838.88 65.7705 M1864.24 49.9314 Q1864.24 41.7081 1860.83 37.0496 Q1857.47 32.3505 1851.56 32.3505 Q1845.64 32.3505 1842.24 37.0496 Q1838.88 41.7081 1838.88 49.9314 Q1838.88 58.1548 1842.24 62.8538 Q1845.64 67.5124 1851.56 67.5124 Q1857.47 67.5124 1860.83 62.8538 Q1864.24 58.1548 1864.24 49.9314 Z" fill="#000000" fill-rule="nonzero" fill-opacity="1" /><path clip-path="url(#clip960)" d="M1923.14 48.0275 L1923.14 51.6733 L1888.87 51.6733 Q1889.35 59.3701 1893.48 63.421 Q1897.66 67.4314 1905.07 67.4314 Q1909.36 67.4314 1913.37 66.3781 Q1917.43 65.3249 1921.4 63.2184 L1921.4 70.267 Q1917.38 71.9684 1913.17 72.8596 Q1908.96 73.7508 1904.62 73.7508 Q1893.77 73.7508 1887.41 67.4314 Q1881.09 61.1119 1881.09 50.3365 Q1881.09 39.1965 1887.08 32.6746 Q1893.12 26.1121 1903.33 26.1121 Q1912.48 26.1121 1917.79 32.0264 Q1923.14 37.9003 1923.14 48.0275 M1915.68 45.84 Q1915.6 39.7232 1912.24 36.0774 Q1908.92 32.4315 1903.41 32.4315 Q1897.17 32.4315 1893.4 35.9558 Q1889.68 39.4801 1889.11 45.8805 L1915.68 45.84 Z" fill="#000000" fill-rule="nonzero" fill-opacity="1" /><path clip-path="url(#clip960)" d="M1935.09 27.2059 L1945.98 27.2059 L1958.87 57.5877 L1971.79 27.2059 L1982.6 27.2059 L1982.6 72.576 L1975.11 72.576 L1975.11 34.3355 L1962.59 63.8666 L1955.14 63.8666 L1942.58 34.3355 L1942.58 72.576 L1935.09 72.576 L1935.09 27.2059 Z" fill="#000000" fill-rule="nonzero" fill-opacity="1" /><path clip-path="url(#clip960)" d="M2036.76 48.0275 L2036.76 51.6733 L2002.49 51.6733 Q2002.98 59.3701 2007.11 63.421 Q2011.28 67.4314 2018.7 67.4314 Q2022.99 67.4314 2027 66.3781 Q2031.05 65.3249 2035.02 63.2184 L2035.02 70.267 Q2031.01 71.9684 2026.8 72.8596 Q2022.59 73.7508 2018.25 73.7508 Q2007.4 73.7508 2001.04 67.4314 Q1994.72 61.1119 1994.72 50.3365 Q1994.72 39.1965 2000.71 32.6746 Q2006.75 26.1121 2016.96 26.1121 Q2026.11 26.1121 2031.42 32.0264 Q2036.76 37.9003 2036.76 48.0275 M2029.31 45.84 Q2029.23 39.7232 2025.87 36.0774 Q2022.55 32.4315 2017.04 32.4315 Q2010.8 32.4315 2007.03 35.9558 Q2003.3 39.4801 2002.74 45.8805 L2029.31 45.84 Z" fill="#000000" fill-rule="nonzero" fill-opacity="1" /><path clip-path="url(#clip960)" d="M2048.72 27.2059 L2056.21 27.2059 L2056.21 45.7185 L2080.39 45.7185 L2080.39 27.2059 L2087.89 27.2059 L2087.89 72.576 L2080.39 72.576 L2080.39 51.6733 L2056.21 51.6733 L2056.21 72.576 L2048.72 72.576 L2048.72 27.2059 Z" fill="#000000" fill-rule="nonzero" fill-opacity="1" /><path clip-path="url(#clip960)" d="M2141.8 27.2059 L2141.8 72.576 L2134.39 72.576 L2134.39 36.1584 L2112.52 72.576 L2102.96 72.576 L2102.96 27.2059 L2110.37 27.2059 L2110.37 63.5425 L2132.2 27.2059 L2141.8 27.2059 Z" fill="#000000" fill-rule="nonzero" fill-opacity="1" /><path clip-path="url(#clip960)" d="M2202.41 76.7889 Q2199.25 84.8907 2196.25 87.3618 Q2193.25 89.8329 2188.23 89.8329 L2182.27 89.8329 L2182.27 83.5945 L2186.65 83.5945 Q2189.73 83.5945 2191.43 82.1361 Q2193.13 80.6778 2195.2 75.2496 L2196.53 71.8468 L2178.18 27.2059 L2186.08 27.2059 L2200.26 62.6918 L2214.44 27.2059 L2222.34 27.2059 L2202.41 76.7889 Z" fill="#000000" fill-rule="nonzero" fill-opacity="1" /><path clip-path="url(#clip960)" d="M2242.75 66.6212 L2264.39 66.6212 L2264.39 33.1607 L2248.71 33.1607 L2248.71 38.832 Q2248.71 55.5217 2243.93 64.4337 L2242.75 66.6212 M2231.94 66.6212 Q2235.62 65.0008 2237.24 61.5575 Q2241.21 53.0101 2241.21 35.7938 L2241.21 27.2059 L2271.88 27.2059 L2271.88 66.6212 L2277.83 66.6212 L2277.83 84.0401 L2271.88 84.0401 L2271.88 72.576 L2235.1 72.576 L2235.1 84.0401 L2229.14 84.0401 L2229.14 66.6212 L2231.94 66.6212 Z" fill="#000000" fill-rule="nonzero" fill-opacity="1" /><path clip-path="url(#clip960)" d="M2297.16 51.6733 L2297.16 66.6212 L2307.77 66.6212 Q2312.87 66.6212 2315.55 64.7172 Q2318.22 62.7728 2318.22 59.127 Q2318.22 55.4812 2315.55 53.5773 Q2312.87 51.6733 2307.77 51.6733 L2297.16 51.6733 M2297.16 33.1607 L2297.16 45.7185 L2306.96 45.7185 Q2311.17 45.7185 2313.85 44.0576 Q2316.52 42.3563 2316.52 39.3586 Q2316.52 36.3609 2313.85 34.7811 Q2311.17 33.1607 2306.96 33.1607 L2297.16 33.1607 M2289.7 27.2059 L2307.45 27.2059 Q2315.43 27.2059 2319.72 30.1225 Q2324.01 33.0392 2324.01 38.4269 Q2324.01 42.5993 2321.83 45.0704 Q2319.64 47.5009 2315.35 48.1085 Q2320.49 49.0808 2323.33 52.1594 Q2326.16 55.2381 2326.16 59.8562 Q2326.16 65.9325 2321.46 69.2543 Q2316.8 72.576 2308.14 72.576 L2289.7 72.576 L2289.7 27.2059 Z" fill="#000000" fill-rule="nonzero" fill-opacity="1" /><path clip-path="url(#clip960)" d="M2356.46 32.4315 Q2350.47 32.4315 2346.98 37.1306 Q2343.5 41.7891 2343.5 49.9314 Q2343.5 58.0738 2346.94 62.7728 Q2350.43 67.4314 2356.46 67.4314 Q2362.42 67.4314 2365.9 62.7323 Q2369.38 58.0333 2369.38 49.9314 Q2369.38 41.8701 2365.9 37.1711 Q2362.42 32.4315 2356.46 32.4315 M2356.46 26.1121 Q2366.18 26.1121 2371.73 32.4315 Q2377.28 38.7509 2377.28 49.9314 Q2377.28 61.0714 2371.73 67.4314 Q2366.18 73.7508 2356.46 73.7508 Q2346.7 73.7508 2341.15 67.4314 Q2335.64 61.0714 2335.64 49.9314 Q2335.64 38.7509 2341.15 32.4315 Q2346.7 26.1121 2356.46 26.1121 Z" fill="#000000" fill-rule="nonzero" fill-opacity="1" /><path clip-path="url(#clip960)" d="M2428.45 48.0275 L2428.45 51.6733 L2394.18 51.6733 Q2394.66 59.3701 2398.79 63.421 Q2402.97 67.4314 2410.38 67.4314 Q2414.67 67.4314 2418.68 66.3781 Q2422.74 65.3249 2426.7 63.2184 L2426.7 70.267 Q2422.69 71.9684 2418.48 72.8596 Q2414.27 73.7508 2409.93 73.7508 Q2399.08 73.7508 2392.72 67.4314 Q2386.4 61.1119 2386.4 50.3365 Q2386.4 39.1965 2392.39 32.6746 Q2398.43 26.1121 2408.64 26.1121 Q2417.79 26.1121 2423.1 32.0264 Q2428.45 37.9003 2428.45 48.0275 M2420.99 45.84 Q2420.91 39.7232 2417.55 36.0774 Q2414.23 32.4315 2408.72 32.4315 Q2402.48 32.4315 2398.71 35.9558 Q2394.99 39.4801 2394.42 45.8805 L2420.99 45.84 Z" fill="#000000" fill-rule="nonzero" fill-opacity="1" /><path clip-path="url(#clip960)" d="M2440.4 27.2059 L2447.89 27.2059 L2447.89 45.7185 L2472.08 45.7185 L2472.08 27.2059 L2479.57 27.2059 L2479.57 72.576 L2472.08 72.576 L2472.08 51.6733 L2447.89 51.6733 L2447.89 72.576 L2440.4 72.576 L2440.4 27.2059 Z" fill="#000000" fill-rule="nonzero" fill-opacity="1" /><path clip-path="url(#clip960)" d="M2533.49 27.2059 L2533.49 72.576 L2526.07 72.576 L2526.07 36.1584 L2504.2 72.576 L2494.64 72.576 L2494.64 27.2059 L2502.05 27.2059 L2502.05 63.5425 L2523.89 27.2059 L2533.49 27.2059 Z" fill="#000000" fill-rule="nonzero" fill-opacity="1" /><path clip-path="url(#clip960)" d="M2556.33 40.2903 Q2556.33 43.6525 2558.93 45.5565 Q2561.52 47.4604 2566.34 47.4604 L2576.39 47.4604 L2576.39 33.1607 L2566.34 33.1607 Q2561.52 33.1607 2558.93 35.0241 Q2556.33 36.8875 2556.33 40.2903 M2545.72 72.576 L2559.57 52.6861 Q2554.88 51.6328 2551.76 48.8782 Q2548.64 46.0831 2548.64 40.2903 Q2548.64 33.7278 2552.97 30.4871 Q2557.35 27.2059 2566.14 27.2059 L2583.88 27.2059 L2583.88 72.576 L2576.39 72.576 L2576.39 53.4152 L2567.11 53.4152 L2553.74 72.576 L2545.72 72.576 Z" fill="#000000" fill-rule="nonzero" fill-opacity="1" /><path clip-path="url(#clip960)" d="M2642.7 32.4315 Q2636.7 32.4315 2633.22 37.1306 Q2629.74 41.7891 2629.74 49.9314 Q2629.74 58.0738 2633.18 62.7728 Q2636.66 67.4314 2642.7 67.4314 Q2648.65 67.4314 2652.14 62.7323 Q2655.62 58.0333 2655.62 49.9314 Q2655.62 41.8701 2652.14 37.1711 Q2648.65 32.4315 2642.7 32.4315 M2642.7 26.1121 Q2652.42 26.1121 2657.97 32.4315 Q2663.52 38.7509 2663.52 49.9314 Q2663.52 61.0714 2657.97 67.4314 Q2652.42 73.7508 2642.7 73.7508 Q2632.94 73.7508 2627.39 67.4314 Q2621.88 61.0714 2621.88 49.9314 Q2621.88 38.7509 2627.39 32.4315 Q2632.94 26.1121 2642.7 26.1121 Z" fill="#000000" fill-rule="nonzero" fill-opacity="1" /><path clip-path="url(#clip960)" d="M2670.49 27.2059 L2713.95 27.2059 L2713.95 33.1607 L2695.89 33.1607 L2695.89 72.576 L2688.56 72.576 L2688.56 33.1607 L2670.49 33.1607 L2670.49 27.2059 Z" fill="#000000" fill-rule="nonzero" fill-opacity="1" /><path clip-path="url(#clip960)" d="M2777.03 51.4708 L2775.24 42.1132 Q2773.42 32.5126 2766.21 32.5126 Q2760.78 32.5126 2758.31 36.9686 Q2755.19 42.5588 2755.19 49.9314 Q2755.19 58.8434 2758.23 63.0969 Q2761.31 67.4314 2766.21 67.4314 Q2771.64 67.4314 2774.56 58.8029 L2777.03 51.4708 M2781.2 39.075 L2785.21 27.2059 L2791.85 27.2059 L2783.55 51.7949 L2785.17 60.6663 Q2785.53 62.6513 2786.95 64.3122 Q2788.61 66.2566 2789.91 66.2566 L2793.47 66.2566 L2793.47 72.576 L2789.02 72.576 Q2785.21 72.576 2781.81 69.1732 Q2780.15 67.4719 2779.46 63.9071 Q2777.59 68.4036 2773.79 71.9279 Q2772 73.5887 2766.21 73.5887 Q2756.69 73.5887 2752.07 67.4314 Q2747.33 61.0714 2747.33 49.9314 Q2747.33 38.0218 2752.48 32.4315 Q2758.19 26.1931 2766.21 26.1931 Q2778.81 26.1931 2781.2 39.075 Z" fill="#000000" fill-rule="nonzero" fill-opacity="1" /><circle clip-path="url(#clip962)" cx="294.123" cy="193.563" r="28.8" fill="#ff0000" fill-rule="evenodd" fill-opacity="1" stroke="#000000" stroke-opacity="1" stroke-width="5.376"/>
<circle clip-path="url(#clip962)" cx="1048.95" cy="1849.54" r="28.8" fill="#ff0000" fill-rule="evenodd" fill-opacity="1" stroke="#000000" stroke-opacity="1" stroke-width="5.376"/>
<circle clip-path="url(#clip962)" cx="1803.78" cy="2180.73" r="28.8" fill="#ff0000" fill-rule="evenodd" fill-opacity="1" stroke="#000000" stroke-opacity="1" stroke-width="5.376"/>
<circle clip-path="url(#clip962)" cx="2936.02" cy="2367.03" r="28.8" fill="#ff0000" fill-rule="evenodd" fill-opacity="1" stroke="#000000" stroke-opacity="1" stroke-width="5.376"/>
<circle clip-path="url(#clip962)" cx="3690.85" cy="2429.13" r="28.8" fill="#ff0000" fill-rule="evenodd" fill-opacity="1" stroke="#000000" stroke-opacity="1" stroke-width="5.376"/>
<path clip-path="url(#clip960)" d="M2812.41 309.166 L3672.74 309.166 L3672.74 205.486 L2812.41 205.486  Z" fill="#ffffff" fill-rule="evenodd" fill-opacity="1"/>
<polyline clip-path="url(#clip960)" style="stroke:#000000; stroke-linecap:round; stroke-linejoin:round; stroke-width:4; stroke-opacity:1; fill:none" points="2812.41,309.166 3672.74,309.166 3672.74,205.486 2812.41,205.486 2812.41,309.166 "/>
<circle clip-path="url(#clip960)" cx="2972.43" cy="257.326" r="21.6847" fill="#ff0000" fill-rule="evenodd" fill-opacity="1" stroke="#000000" stroke-opacity="1" stroke-width="4.04781"/>
<path clip-path="url(#clip960)" d="M3151.55 274.606 L3151.55 260.44 L3141.9 260.44 Q3137.6 260.44 3135.03 257.754 Q3132.46 255.046 3132.46 249.537 L3132.46 240.046 L3137.11 240.046 L3137.11 249.166 Q3137.11 252.847 3138.54 254.676 Q3139.98 256.504 3142.85 256.504 L3151.55 256.504 L3151.55 240.046 L3156.25 240.046 L3156.25 274.606 L3151.55 274.606 Z" fill="#000000" fill-rule="nonzero" fill-opacity="1" /><path clip-path="url(#clip960)" d="M3187.41 248.68 L3187.41 274.606 L3183.17 274.606 L3183.17 253.796 L3170.67 274.606 L3165.21 274.606 L3165.21 248.68 L3169.45 248.68 L3169.45 269.444 L3181.92 248.68 L3187.41 248.68 Z" fill="#000000" fill-rule="nonzero" fill-opacity="1" /><path clip-path="url(#clip960)" d="M3214.84 249.676 L3214.84 253.657 Q3213.04 252.662 3211.21 252.176 Q3209.4 251.666 3207.55 251.666 Q3203.41 251.666 3201.11 254.305 Q3198.82 256.921 3198.82 261.666 Q3198.82 266.412 3201.11 269.051 Q3203.41 271.666 3207.55 271.666 Q3209.4 271.666 3211.21 271.18 Q3213.04 270.671 3214.84 269.676 L3214.84 273.611 Q3213.06 274.444 3211.14 274.861 Q3209.24 275.277 3207.09 275.277 Q3201.23 275.277 3197.78 271.597 Q3194.33 267.916 3194.33 261.666 Q3194.33 255.324 3197.8 251.69 Q3201.3 248.055 3207.36 248.055 Q3209.33 248.055 3211.21 248.472 Q3213.08 248.866 3214.84 249.676 Z" fill="#000000" fill-rule="nonzero" fill-opacity="1" /><path clip-path="url(#clip960)" d="M3219.54 274.606 L3219.54 271.064 Q3223.75 270.416 3225.05 267.5 Q3226.62 263.402 3226.62 252.916 L3226.62 248.68 L3244.15 248.68 L3244.15 274.606 L3239.89 274.606 L3239.89 252.083 L3230.88 252.083 L3230.88 254.653 Q3230.88 264.652 3228.85 269.143 Q3226.67 273.935 3219.54 274.606 Z" fill="#000000" fill-rule="nonzero" fill-opacity="1" /><path clip-path="url(#clip960)" d="M3274.72 260.578 L3274.72 262.662 L3255.14 262.662 Q3255.42 267.06 3257.78 269.375 Q3260.16 271.666 3264.4 271.666 Q3266.85 271.666 3269.15 271.064 Q3271.46 270.463 3273.73 269.259 L3273.73 273.287 Q3271.44 274.259 3269.03 274.768 Q3266.62 275.277 3264.15 275.277 Q3257.94 275.277 3254.31 271.666 Q3250.7 268.055 3250.7 261.898 Q3250.7 255.532 3254.12 251.805 Q3257.57 248.055 3263.41 248.055 Q3268.64 248.055 3271.67 251.435 Q3274.72 254.791 3274.72 260.578 M3270.47 259.328 Q3270.42 255.833 3268.5 253.75 Q3266.6 251.666 3263.45 251.666 Q3259.89 251.666 3257.73 253.68 Q3255.6 255.694 3255.28 259.352 L3270.47 259.328 Z" fill="#000000" fill-rule="nonzero" fill-opacity="1" /><path clip-path="url(#clip960)" d="M3281.55 248.68 L3285.84 248.68 L3285.84 259.259 L3299.66 259.259 L3299.66 248.68 L3303.94 248.68 L3303.94 274.606 L3299.66 274.606 L3299.66 262.662 L3285.84 262.662 L3285.84 274.606 L3281.55 274.606 L3281.55 248.68 Z" fill="#000000" fill-rule="nonzero" fill-opacity="1" /><path clip-path="url(#clip960)" d="M3312.55 248.68 L3316.83 248.68 L3316.83 259.259 L3330.65 259.259 L3330.65 248.68 L3334.93 248.68 L3334.93 274.606 L3330.65 274.606 L3330.65 262.662 L3316.83 262.662 L3316.83 274.606 L3312.55 274.606 L3312.55 248.68 Z" fill="#000000" fill-rule="nonzero" fill-opacity="1" /><path clip-path="url(#clip960)" d="M3353.75 251.666 Q3350.33 251.666 3348.34 254.352 Q3346.34 257.014 3346.34 261.666 Q3346.34 266.319 3348.31 269.004 Q3350.3 271.666 3353.75 271.666 Q3357.15 271.666 3359.15 268.981 Q3361.14 266.296 3361.14 261.666 Q3361.14 257.06 3359.15 254.375 Q3357.15 251.666 3353.75 251.666 M3353.75 248.055 Q3359.31 248.055 3362.48 251.666 Q3365.65 255.278 3365.65 261.666 Q3365.65 268.032 3362.48 271.666 Q3359.31 275.277 3353.75 275.277 Q3348.17 275.277 3345 271.666 Q3341.85 268.032 3341.85 261.666 Q3341.85 255.278 3345 251.666 Q3348.17 248.055 3353.75 248.055 Z" fill="#000000" fill-rule="nonzero" fill-opacity="1" /><path clip-path="url(#clip960)" d="M3394.89 260.578 L3394.89 262.662 L3375.3 262.662 Q3375.58 267.06 3377.94 269.375 Q3380.33 271.666 3384.56 271.666 Q3387.02 271.666 3389.31 271.064 Q3391.62 270.463 3393.89 269.259 L3393.89 273.287 Q3391.6 274.259 3389.19 274.768 Q3386.78 275.277 3384.31 275.277 Q3378.1 275.277 3374.47 271.666 Q3370.86 268.055 3370.86 261.898 Q3370.86 255.532 3374.28 251.805 Q3377.73 248.055 3383.57 248.055 Q3388.8 248.055 3391.83 251.435 Q3394.89 254.791 3394.89 260.578 M3390.63 259.328 Q3390.58 255.833 3388.66 253.75 Q3386.76 251.666 3383.61 251.666 Q3380.05 251.666 3377.9 253.68 Q3375.77 255.694 3375.44 259.352 L3390.63 259.328 Z" fill="#000000" fill-rule="nonzero" fill-opacity="1" /><path clip-path="url(#clip960)" d="M3421.07 270.717 L3421.07 284.467 L3416.78 284.467 L3416.78 248.68 L3421.07 248.68 L3421.07 252.615 Q3422.41 250.301 3424.45 249.19 Q3426.51 248.055 3429.35 248.055 Q3434.08 248.055 3437.02 251.805 Q3439.98 255.555 3439.98 261.666 Q3439.98 267.777 3437.02 271.527 Q3434.08 275.277 3429.35 275.277 Q3426.51 275.277 3424.45 274.166 Q3422.41 273.032 3421.07 270.717 M3435.56 261.666 Q3435.56 256.967 3433.61 254.305 Q3431.69 251.62 3428.31 251.62 Q3424.93 251.62 3422.99 254.305 Q3421.07 256.967 3421.07 261.666 Q3421.07 266.365 3422.99 269.051 Q3424.93 271.713 3428.31 271.713 Q3431.69 271.713 3433.61 269.051 Q3435.56 266.365 3435.56 261.666 Z" fill="#000000" fill-rule="nonzero" fill-opacity="1" /><path clip-path="url(#clip960)" d="M3469.21 260.578 L3469.21 262.662 L3449.63 262.662 Q3449.91 267.06 3452.27 269.375 Q3454.65 271.666 3458.89 271.666 Q3461.34 271.666 3463.64 271.064 Q3465.95 270.463 3468.22 269.259 L3468.22 273.287 Q3465.93 274.259 3463.52 274.768 Q3461.11 275.277 3458.64 275.277 Q3452.43 275.277 3448.8 271.666 Q3445.19 268.055 3445.19 261.898 Q3445.19 255.532 3448.61 251.805 Q3452.06 248.055 3457.9 248.055 Q3463.13 248.055 3466.16 251.435 Q3469.21 254.791 3469.21 260.578 M3464.96 259.328 Q3464.91 255.833 3462.99 253.75 Q3461.09 251.666 3457.94 251.666 Q3454.38 251.666 3452.22 253.68 Q3450.09 255.694 3449.77 259.352 L3464.96 259.328 Z" fill="#000000" fill-rule="nonzero" fill-opacity="1" /><path clip-path="url(#clip960)" d="M3495.56 271.203 L3506.53 271.203 L3506.53 248.68 L3510.81 248.68 L3510.81 274.606 L3476.04 274.606 L3476.04 248.68 L3480.33 248.68 L3480.33 271.203 L3491.27 271.203 L3491.27 248.68 L3495.56 248.68 L3495.56 271.203 Z" fill="#000000" fill-rule="nonzero" fill-opacity="1" /><path clip-path="url(#clip960)" d="M3541.76 260.578 L3541.76 262.662 L3522.18 262.662 Q3522.45 267.06 3524.82 269.375 Q3527.2 271.666 3531.44 271.666 Q3533.89 271.666 3536.18 271.064 Q3538.5 270.463 3540.77 269.259 L3540.77 273.287 Q3538.47 274.259 3536.07 274.768 Q3533.66 275.277 3531.18 275.277 Q3524.98 275.277 3521.34 271.666 Q3517.73 268.055 3517.73 261.898 Q3517.73 255.532 3521.16 251.805 Q3524.61 248.055 3530.44 248.055 Q3535.67 248.055 3538.7 251.435 Q3541.76 254.791 3541.76 260.578 M3537.5 259.328 Q3537.45 255.833 3535.53 253.75 Q3533.64 251.666 3530.49 251.666 Q3526.92 251.666 3524.77 253.68 Q3522.64 255.694 3522.32 259.352 L3537.5 259.328 Z" fill="#000000" fill-rule="nonzero" fill-opacity="1" /><path clip-path="url(#clip960)" d="M3548.59 248.68 L3552.87 248.68 L3552.87 259.259 L3566.69 259.259 L3566.69 248.68 L3570.97 248.68 L3570.97 274.606 L3566.69 274.606 L3566.69 262.662 L3552.87 262.662 L3552.87 274.606 L3548.59 274.606 L3548.59 248.68 Z" fill="#000000" fill-rule="nonzero" fill-opacity="1" /><path clip-path="url(#clip960)" d="M3601.78 248.68 L3601.78 274.606 L3597.55 274.606 L3597.55 253.796 L3585.05 274.606 L3579.58 274.606 L3579.58 248.68 L3583.82 248.68 L3583.82 269.444 L3596.3 248.68 L3601.78 248.68 Z" fill="#000000" fill-rule="nonzero" fill-opacity="1" /><path clip-path="url(#clip960)" d="M3632.73 260.578 L3632.73 262.662 L3613.15 262.662 Q3613.43 267.06 3615.79 269.375 Q3618.17 271.666 3622.41 271.666 Q3624.86 271.666 3627.15 271.064 Q3629.47 270.463 3631.74 269.259 L3631.74 273.287 Q3629.45 274.259 3627.04 274.768 Q3624.63 275.277 3622.15 275.277 Q3615.95 275.277 3612.32 271.666 Q3608.7 268.055 3608.7 261.898 Q3608.7 255.532 3612.13 251.805 Q3615.58 248.055 3621.41 248.055 Q3626.64 248.055 3629.68 251.435 Q3632.73 254.791 3632.73 260.578 M3628.47 259.328 Q3628.43 255.833 3626.51 253.75 Q3624.61 251.666 3621.46 251.666 Q3617.89 251.666 3615.74 253.68 Q3613.61 255.694 3613.29 259.352 L3628.47 259.328 Z" fill="#000000" fill-rule="nonzero" fill-opacity="1" /></svg>
