<?xml version="1.0" encoding="utf-8"?>
<svg xmlns="http://www.w3.org/2000/svg" xmlns:xlink="http://www.w3.org/1999/xlink" width="960" height="672" viewBox="0 0 3840 2688">
<defs>
  <clipPath id="clip200">
    <rect x="0" y="0" width="3840" height="2688"/>
  </clipPath>
</defs>
<path clip-path="url(#clip200)" d="M0 2688 L3840 2688 L3840 0 L0 0  Z" fill="#ffffff" fill-rule="evenodd" fill-opacity="1"/>
<defs>
  <clipPath id="clip201">
    <rect x="192" y="126" width="3602" height="2371"/>
  </clipPath>
</defs>
<path clip-path="url(#clip200)" d="M443.775 2496.2 L3792.76 2496.2 L3792.76 126.496 L443.775 126.496  Z" fill="#ffffff" fill-rule="evenodd" fill-opacity="1"/>
<defs>
  <clipPath id="clip202">
    <rect x="443" y="126" width="3350" height="2371"/>
  </clipPath>
</defs>
<polyline clip-path="url(#clip202)" style="stroke:#000000; stroke-linecap:round; stroke-linejoin:round; stroke-width:2; stroke-opacity:0.1; fill:none" points="889.604,2496.2 889.604,126.496 "/>
<polyline clip-path="url(#clip202)" style="stroke:#000000; stroke-linecap:round; stroke-linejoin:round; stroke-width:2; stroke-opacity:0.1; fill:none" points="1591.7,2496.2 1591.7,126.496 "/>
<polyline clip-path="url(#clip202)" style="stroke:#000000; stroke-linecap:round; stroke-linejoin:round; stroke-width:2; stroke-opacity:0.1; fill:none" points="2293.79,2496.2 2293.79,126.496 "/>
<polyline clip-path="url(#clip202)" style="stroke:#000000; stroke-linecap:round; stroke-linejoin:round; stroke-width:2; stroke-opacity:0.1; fill:none" points="2995.88,2496.2 2995.88,126.496 "/>
<polyline clip-path="url(#clip202)" style="stroke:#000000; stroke-linecap:round; stroke-linejoin:round; stroke-width:2; stroke-opacity:0.1; fill:none" points="3697.97,2496.2 3697.97,126.496 "/>
<polyline clip-path="url(#clip202)" style="stroke:#000000; stroke-linecap:round; stroke-linejoin:round; stroke-width:2; stroke-opacity:0.1; fill:none" points="443.775,2180.73 3792.76,2180.73 "/>
<polyline clip-path="url(#clip202)" style="stroke:#000000; stroke-linecap:round; stroke-linejoin:round; stroke-width:2; stroke-opacity:0.1; fill:none" points="443.775,1825.88 3792.76,1825.88 "/>
<polyline clip-path="url(#clip202)" style="stroke:#000000; stroke-linecap:round; stroke-linejoin:round; stroke-width:2; stroke-opacity:0.1; fill:none" points="443.775,1471.03 3792.76,1471.03 "/>
<polyline clip-path="url(#clip202)" style="stroke:#000000; stroke-linecap:round; stroke-linejoin:round; stroke-width:2; stroke-opacity:0.1; fill:none" points="443.775,1116.18 3792.76,1116.18 "/>
<polyline clip-path="url(#clip202)" style="stroke:#000000; stroke-linecap:round; stroke-linejoin:round; stroke-width:2; stroke-opacity:0.1; fill:none" points="443.775,761.326 3792.76,761.326 "/>
<polyline clip-path="url(#clip202)" style="stroke:#000000; stroke-linecap:round; stroke-linejoin:round; stroke-width:2; stroke-opacity:0.1; fill:none" points="443.775,406.474 3792.76,406.474 "/>
<polyline clip-path="url(#clip200)" style="stroke:#000000; stroke-linecap:round; stroke-linejoin:round; stroke-width:4; stroke-opacity:1; fill:none" points="443.775,2496.2 3792.76,2496.2 "/>
<polyline clip-path="url(#clip200)" style="stroke:#000000; stroke-linecap:round; stroke-linejoin:round; stroke-width:4; stroke-opacity:1; fill:none" points="889.604,2496.2 889.604,2477.3 "/>
<polyline clip-path="url(#clip200)" style="stroke:#000000; stroke-linecap:round; stroke-linejoin:round; stroke-width:4; stroke-opacity:1; fill:none" points="1591.7,2496.2 1591.7,2477.3 "/>
<polyline clip-path="url(#clip200)" style="stroke:#000000; stroke-linecap:round; stroke-linejoin:round; stroke-width:4; stroke-opacity:1; fill:none" points="2293.79,2496.2 2293.79,2477.3 "/>
<polyline clip-path="url(#clip200)" style="stroke:#000000; stroke-linecap:round; stroke-linejoin:round; stroke-width:4; stroke-opacity:1; fill:none" points="2995.88,2496.2 2995.88,2477.3 "/>
<polyline clip-path="url(#clip200)" style="stroke:#000000; stroke-linecap:round; stroke-linejoin:round; stroke-width:4; stroke-opacity:1; fill:none" points="3697.97,2496.2 3697.97,2477.3 "/>
<path clip-path="url(#clip200)" d="M867.787 2538.63 Q864.176 2538.63 862.347 2542.2 Q860.541 2545.74 860.541 2552.87 Q860.541 2559.98 862.347 2563.54 Q864.176 2567.08 867.787 2567.08 Q871.421 2567.08 873.227 2563.54 Q875.055 2559.98 875.055 2552.87 Q875.055 2545.74 873.227 2542.2 Q871.421 2538.63 867.787 2538.63 M867.787 2534.93 Q873.597 2534.93 876.652 2539.54 Q879.731 2544.12 879.731 2552.87 Q879.731 2561.6 876.652 2566.2 Q873.597 2570.79 867.787 2570.79 Q861.977 2570.79 858.898 2566.2 Q855.842 2561.6 855.842 2552.87 Q855.842 2544.12 858.898 2539.54 Q861.977 2534.93 867.787 2534.93 Z" fill="#000000" fill-rule="nonzero" fill-opacity="1" /><path clip-path="url(#clip200)" d="M887.949 2564.24 L892.833 2564.24 L892.833 2570.12 L887.949 2570.12 L887.949 2564.24 Z" fill="#000000" fill-rule="nonzero" fill-opacity="1" /><path clip-path="url(#clip200)" d="M907.046 2566.18 L923.365 2566.18 L923.365 2570.12 L901.421 2570.12 L901.421 2566.18 Q904.083 2563.43 908.666 2558.8 Q913.273 2554.14 914.453 2552.8 Q916.699 2550.28 917.578 2548.54 Q918.481 2546.78 918.481 2545.09 Q918.481 2542.34 916.537 2540.6 Q914.615 2538.87 911.513 2538.87 Q909.314 2538.87 906.861 2539.63 Q904.43 2540.39 901.652 2541.94 L901.652 2537.22 Q904.476 2536.09 906.93 2535.51 Q909.384 2534.93 911.421 2534.93 Q916.791 2534.93 919.986 2537.62 Q923.18 2540.3 923.18 2544.79 Q923.18 2546.92 922.37 2548.84 Q921.583 2550.74 919.476 2553.33 Q918.898 2554 915.796 2557.22 Q912.694 2560.42 907.046 2566.18 Z" fill="#000000" fill-rule="nonzero" fill-opacity="1" /><path clip-path="url(#clip200)" d="M1568.84 2538.63 Q1565.23 2538.63 1563.4 2542.2 Q1561.59 2545.74 1561.59 2552.87 Q1561.59 2559.98 1563.4 2563.54 Q1565.23 2567.08 1568.84 2567.08 Q1572.47 2567.08 1574.28 2563.54 Q1576.11 2559.98 1576.11 2552.87 Q1576.11 2545.74 1574.28 2542.2 Q1572.47 2538.63 1568.84 2538.63 M1568.84 2534.93 Q1574.65 2534.93 1577.7 2539.54 Q1580.78 2544.12 1580.78 2552.87 Q1580.78 2561.6 1577.7 2566.2 Q1574.65 2570.79 1568.84 2570.79 Q1563.03 2570.79 1559.95 2566.2 Q1556.89 2561.6 1556.89 2552.87 Q1556.89 2544.12 1559.95 2539.54 Q1563.03 2534.93 1568.84 2534.93 Z" fill="#000000" fill-rule="nonzero" fill-opacity="1" /><path clip-path="url(#clip200)" d="M1589 2564.24 L1593.88 2564.24 L1593.88 2570.12 L1589 2570.12 L1589 2564.24 Z" fill="#000000" fill-rule="nonzero" fill-opacity="1" /><path clip-path="url(#clip200)" d="M1616.92 2539.63 L1605.11 2558.08 L1616.92 2558.08 L1616.92 2539.63 M1615.69 2535.56 L1621.57 2535.56 L1621.57 2558.08 L1626.5 2558.08 L1626.5 2561.97 L1621.57 2561.97 L1621.57 2570.12 L1616.92 2570.12 L1616.92 2561.97 L1601.31 2561.97 L1601.31 2557.45 L1615.69 2535.56 Z" fill="#000000" fill-rule="nonzero" fill-opacity="1" /><path clip-path="url(#clip200)" d="M2271.09 2538.63 Q2267.48 2538.63 2265.65 2542.2 Q2263.85 2545.74 2263.85 2552.87 Q2263.85 2559.98 2265.65 2563.54 Q2267.48 2567.08 2271.09 2567.08 Q2274.73 2567.08 2276.53 2563.54 Q2278.36 2559.98 2278.36 2552.87 Q2278.36 2545.74 2276.53 2542.2 Q2274.73 2538.63 2271.09 2538.63 M2271.09 2534.93 Q2276.9 2534.93 2279.96 2539.54 Q2283.04 2544.12 2283.04 2552.87 Q2283.04 2561.6 2279.96 2566.2 Q2276.9 2570.79 2271.09 2570.79 Q2265.28 2570.79 2262.2 2566.2 Q2259.15 2561.6 2259.15 2552.87 Q2259.15 2544.12 2262.2 2539.54 Q2265.28 2534.93 2271.09 2534.93 Z" fill="#000000" fill-rule="nonzero" fill-opacity="1" /><path clip-path="url(#clip200)" d="M2291.25 2564.24 L2296.14 2564.24 L2296.14 2570.12 L2291.25 2570.12 L2291.25 2564.24 Z" fill="#000000" fill-rule="nonzero" fill-opacity="1" /><path clip-path="url(#clip200)" d="M2316.9 2550.97 Q2313.75 2550.97 2311.9 2553.13 Q2310.07 2555.28 2310.07 2559.03 Q2310.07 2562.75 2311.9 2564.93 Q2313.75 2567.08 2316.9 2567.08 Q2320.05 2567.08 2321.88 2564.93 Q2323.73 2562.75 2323.73 2559.03 Q2323.73 2555.28 2321.88 2553.13 Q2320.05 2550.97 2316.9 2550.97 M2326.18 2536.32 L2326.18 2540.58 Q2324.43 2539.75 2322.62 2539.31 Q2320.84 2538.87 2319.08 2538.87 Q2314.45 2538.87 2311.99 2541.99 Q2309.56 2545.12 2309.22 2551.44 Q2310.58 2549.42 2312.64 2548.36 Q2314.7 2547.27 2317.18 2547.27 Q2322.39 2547.27 2325.4 2550.44 Q2328.43 2553.59 2328.43 2559.03 Q2328.43 2564.35 2325.28 2567.57 Q2322.13 2570.79 2316.9 2570.79 Q2310.91 2570.79 2307.74 2566.2 Q2304.56 2561.6 2304.56 2552.87 Q2304.56 2544.68 2308.45 2539.82 Q2312.34 2534.93 2318.89 2534.93 Q2320.65 2534.93 2322.43 2535.28 Q2324.24 2535.63 2326.18 2536.32 Z" fill="#000000" fill-rule="nonzero" fill-opacity="1" /><path clip-path="url(#clip200)" d="M2973.31 2538.63 Q2969.7 2538.63 2967.87 2542.2 Q2966.07 2545.74 2966.07 2552.87 Q2966.07 2559.98 2967.87 2563.54 Q2969.7 2567.08 2973.31 2567.08 Q2976.95 2567.08 2978.75 2563.54 Q2980.58 2559.98 2980.58 2552.87 Q2980.58 2545.74 2978.75 2542.2 Q2976.95 2538.63 2973.31 2538.63 M2973.31 2534.93 Q2979.12 2534.93 2982.18 2539.54 Q2985.26 2544.12 2985.26 2552.87 Q2985.26 2561.6 2982.18 2566.2 Q2979.12 2570.79 2973.31 2570.79 Q2967.5 2570.79 2964.42 2566.2 Q2961.37 2561.6 2961.37 2552.87 Q2961.37 2544.12 2964.42 2539.54 Q2967.5 2534.93 2973.31 2534.93 Z" fill="#000000" fill-rule="nonzero" fill-opacity="1" /><path clip-path="url(#clip200)" d="M2993.47 2564.24 L2998.36 2564.24 L2998.36 2570.12 L2993.47 2570.12 L2993.47 2564.24 Z" fill="#000000" fill-rule="nonzero" fill-opacity="1" /><path clip-path="url(#clip200)" d="M3018.54 2553.7 Q3015.21 2553.7 3013.29 2555.49 Q3011.39 2557.27 3011.39 2560.39 Q3011.39 2563.52 3013.29 2565.3 Q3015.21 2567.08 3018.54 2567.08 Q3021.88 2567.08 3023.8 2565.3 Q3025.72 2563.5 3025.72 2560.39 Q3025.72 2557.27 3023.8 2555.49 Q3021.9 2553.7 3018.54 2553.7 M3013.87 2551.71 Q3010.86 2550.97 3009.17 2548.91 Q3007.5 2546.85 3007.5 2543.89 Q3007.5 2539.75 3010.44 2537.34 Q3013.4 2534.93 3018.54 2534.93 Q3023.7 2534.93 3026.64 2537.34 Q3029.58 2539.75 3029.58 2543.89 Q3029.58 2546.85 3027.89 2548.91 Q3026.23 2550.97 3023.24 2551.71 Q3026.62 2552.5 3028.5 2554.79 Q3030.39 2557.08 3030.39 2560.39 Q3030.39 2565.42 3027.32 2568.1 Q3024.26 2570.79 3018.54 2570.79 Q3012.83 2570.79 3009.75 2568.1 Q3006.69 2565.42 3006.69 2560.39 Q3006.69 2557.08 3008.59 2554.79 Q3010.49 2552.5 3013.87 2551.71 M3012.15 2544.33 Q3012.15 2547.01 3013.82 2548.52 Q3015.51 2550.02 3018.54 2550.02 Q3021.55 2550.02 3023.24 2548.52 Q3024.95 2547.01 3024.95 2544.33 Q3024.95 2541.64 3023.24 2540.14 Q3021.55 2538.63 3018.54 2538.63 Q3015.51 2538.63 3013.82 2540.14 Q3012.15 2541.64 3012.15 2544.33 Z" fill="#000000" fill-rule="nonzero" fill-opacity="1" /><path clip-path="url(#clip200)" d="M3665.13 2566.18 L3672.77 2566.18 L3672.77 2539.82 L3664.46 2541.48 L3664.46 2537.22 L3672.72 2535.56 L3677.39 2535.56 L3677.39 2566.18 L3685.03 2566.18 L3685.03 2570.12 L3665.13 2570.12 L3665.13 2566.18 Z" fill="#000000" fill-rule="nonzero" fill-opacity="1" /><path clip-path="url(#clip200)" d="M3694.48 2564.24 L3699.36 2564.24 L3699.36 2570.12 L3694.48 2570.12 L3694.48 2564.24 Z" fill="#000000" fill-rule="nonzero" fill-opacity="1" /><path clip-path="url(#clip200)" d="M3719.55 2538.63 Q3715.94 2538.63 3714.11 2542.2 Q3712.3 2545.74 3712.3 2552.87 Q3712.3 2559.98 3714.11 2563.54 Q3715.94 2567.08 3719.55 2567.08 Q3723.18 2567.08 3724.99 2563.54 Q3726.82 2559.98 3726.82 2552.87 Q3726.82 2545.74 3724.99 2542.2 Q3723.18 2538.63 3719.55 2538.63 M3719.55 2534.93 Q3725.36 2534.93 3728.41 2539.54 Q3731.49 2544.12 3731.49 2552.87 Q3731.49 2561.6 3728.41 2566.2 Q3725.36 2570.79 3719.55 2570.79 Q3713.74 2570.79 3710.66 2566.2 Q3707.6 2561.6 3707.6 2552.87 Q3707.6 2544.12 3710.66 2539.54 Q3713.74 2534.93 3719.55 2534.93 Z" fill="#000000" fill-rule="nonzero" fill-opacity="1" /><path clip-path="url(#clip200)" d="M1850.78 2618.8 L1850.78 2625.58 Q1847.53 2622.56 1843.84 2621.06 Q1840.18 2619.56 1836.04 2619.56 Q1827.89 2619.56 1823.57 2624.56 Q1819.24 2629.53 1819.24 2638.95 Q1819.24 2648.34 1823.57 2653.33 Q1827.89 2658.3 1836.04 2658.3 Q1840.18 2658.3 1843.84 2656.8 Q1847.53 2655.31 1850.78 2652.28 L1850.78 2659 Q1847.4 2661.29 1843.62 2662.44 Q1839.86 2663.58 1835.66 2663.58 Q1824.87 2663.58 1818.66 2656.99 Q1812.46 2650.37 1812.46 2638.95 Q1812.46 2627.49 1818.66 2620.9 Q1824.87 2614.28 1835.66 2614.28 Q1839.92 2614.28 1843.68 2615.43 Q1847.47 2616.54 1850.78 2618.8 Z" fill="#000000" fill-rule="nonzero" fill-opacity="1" /><path clip-path="url(#clip200)" d="M1860.23 2627.01 L1866.06 2627.01 L1866.06 2643.75 L1882.58 2627.01 L1889.77 2627.01 L1876.15 2640.79 L1891.52 2662.66 L1884.96 2662.66 L1872.33 2644.68 L1866.06 2651.04 L1866.06 2662.66 L1860.23 2662.66 L1860.23 2627.01 Z" fill="#000000" fill-rule="nonzero" fill-opacity="1" /><path clip-path="url(#clip200)" d="M1913.64 2631.12 Q1908.93 2631.12 1906.19 2634.81 Q1903.45 2638.47 1903.45 2644.87 Q1903.45 2651.27 1906.16 2654.96 Q1908.9 2658.62 1913.64 2658.62 Q1918.32 2658.62 1921.06 2654.93 Q1923.79 2651.23 1923.79 2644.87 Q1923.79 2638.53 1921.06 2634.84 Q1918.32 2631.12 1913.64 2631.12 M1913.64 2626.15 Q1921.28 2626.15 1925.64 2631.12 Q1930 2636.08 1930 2644.87 Q1930 2653.62 1925.64 2658.62 Q1921.28 2663.58 1913.64 2663.58 Q1905.97 2663.58 1901.61 2658.62 Q1897.28 2653.62 1897.28 2644.87 Q1897.28 2636.08 1901.61 2631.12 Q1905.97 2626.15 1913.64 2626.15 Z" fill="#000000" fill-rule="nonzero" fill-opacity="1" /><path clip-path="url(#clip200)" d="M1945.37 2657.31 L1945.37 2676.22 L1939.48 2676.22 L1939.48 2627.01 L1945.37 2627.01 L1945.37 2632.42 Q1947.22 2629.24 1950.02 2627.71 Q1952.85 2626.15 1956.77 2626.15 Q1963.26 2626.15 1967.3 2631.31 Q1971.38 2636.46 1971.38 2644.87 Q1971.38 2653.27 1967.3 2658.43 Q1963.26 2663.58 1956.77 2663.58 Q1952.85 2663.58 1950.02 2662.06 Q1947.22 2660.5 1945.37 2657.31 M1965.3 2644.87 Q1965.3 2638.41 1962.62 2634.75 Q1959.98 2631.05 1955.34 2631.05 Q1950.69 2631.05 1948.01 2634.75 Q1945.37 2638.41 1945.37 2644.87 Q1945.37 2651.33 1948.01 2655.02 Q1950.69 2658.68 1955.34 2658.68 Q1959.98 2658.68 1962.62 2655.02 Q1965.3 2651.33 1965.3 2644.87 Z" fill="#000000" fill-rule="nonzero" fill-opacity="1" /><path clip-path="url(#clip200)" d="M1994.9 2631.12 Q1990.19 2631.12 1987.45 2634.81 Q1984.71 2638.47 1984.71 2644.87 Q1984.71 2651.27 1987.42 2654.96 Q1990.16 2658.62 1994.9 2658.62 Q1999.58 2658.62 2002.31 2654.93 Q2005.05 2651.23 2005.05 2644.87 Q2005.05 2638.53 2002.31 2634.84 Q1999.58 2631.12 1994.9 2631.12 M1994.9 2626.15 Q2002.54 2626.15 2006.9 2631.12 Q2011.26 2636.08 2011.26 2644.87 Q2011.26 2653.62 2006.9 2658.62 Q2002.54 2663.58 1994.9 2663.58 Q1987.23 2663.58 1982.87 2658.62 Q1978.54 2653.62 1978.54 2644.87 Q1978.54 2636.08 1982.87 2631.12 Q1987.23 2626.15 1994.9 2626.15 Z" fill="#000000" fill-rule="nonzero" fill-opacity="1" /><path clip-path="url(#clip200)" d="M2046.62 2628.38 L2046.62 2633.86 Q2044.14 2632.49 2041.62 2631.82 Q2039.14 2631.12 2036.59 2631.12 Q2030.9 2631.12 2027.75 2634.75 Q2024.59 2638.34 2024.59 2644.87 Q2024.59 2651.39 2027.75 2655.02 Q2030.9 2658.62 2036.59 2658.62 Q2039.14 2658.62 2041.62 2657.95 Q2044.14 2657.25 2046.62 2655.88 L2046.62 2661.29 Q2044.17 2662.44 2041.53 2663.01 Q2038.92 2663.58 2035.96 2663.58 Q2027.9 2663.58 2023.16 2658.52 Q2018.42 2653.46 2018.42 2644.87 Q2018.42 2636.15 2023.19 2631.15 Q2028 2626.15 2036.34 2626.15 Q2039.04 2626.15 2041.62 2626.73 Q2044.2 2627.27 2046.62 2628.38 Z" fill="#000000" fill-rule="nonzero" fill-opacity="1" /><path clip-path="url(#clip200)" d="M2052.57 2627.01 L2086.72 2627.01 L2086.72 2631.69 L2072.53 2631.69 L2072.53 2662.66 L2066.77 2662.66 L2066.77 2631.69 L2052.57 2631.69 L2052.57 2627.01 Z" fill="#000000" fill-rule="nonzero" fill-opacity="1" /><path clip-path="url(#clip200)" d="M2116.96 2652.09 Q2116.96 2649.23 2114.86 2647.73 Q2112.79 2646.24 2108.78 2646.24 L2100.44 2646.24 L2100.44 2657.98 L2108.78 2657.98 Q2112.79 2657.98 2114.86 2656.49 Q2116.96 2654.96 2116.96 2652.09 M2094.55 2627.01 L2100.44 2627.01 L2100.44 2641.56 L2109.04 2641.56 Q2115.85 2641.56 2119.51 2644.17 Q2123.2 2646.75 2123.2 2652.09 Q2123.2 2657.44 2119.51 2660.05 Q2115.85 2662.66 2109.04 2662.66 L2094.55 2662.66 L2094.55 2627.01 Z" fill="#000000" fill-rule="nonzero" fill-opacity="1" /><path clip-path="url(#clip200)" d="M2159.58 2657.31 L2159.58 2676.22 L2153.69 2676.22 L2153.69 2627.01 L2159.58 2627.01 L2159.58 2632.42 Q2161.43 2629.24 2164.23 2627.71 Q2167.06 2626.15 2170.97 2626.15 Q2177.47 2626.15 2181.51 2631.31 Q2185.58 2636.46 2185.58 2644.87 Q2185.58 2653.27 2181.51 2658.43 Q2177.47 2663.58 2170.97 2663.58 Q2167.06 2663.58 2164.23 2662.06 Q2161.43 2660.5 2159.58 2657.31 M2179.5 2644.87 Q2179.5 2638.41 2176.83 2634.75 Q2174.19 2631.05 2169.54 2631.05 Q2164.89 2631.05 2162.22 2634.75 Q2159.58 2638.41 2159.58 2644.87 Q2159.58 2651.33 2162.22 2655.02 Q2164.89 2658.68 2169.54 2658.68 Q2174.19 2658.68 2176.83 2655.02 Q2179.5 2651.33 2179.5 2644.87 Z" fill="#000000" fill-rule="nonzero" fill-opacity="1" /><path clip-path="url(#clip200)" d="M2209.1 2631.12 Q2204.39 2631.12 2201.66 2634.81 Q2198.92 2638.47 2198.92 2644.87 Q2198.92 2651.27 2201.62 2654.96 Q2204.36 2658.62 2209.1 2658.62 Q2213.78 2658.62 2216.52 2654.93 Q2219.26 2651.23 2219.26 2644.87 Q2219.26 2638.53 2216.52 2634.84 Q2213.78 2631.12 2209.1 2631.12 M2209.1 2626.15 Q2216.74 2626.15 2221.1 2631.12 Q2225.46 2636.08 2225.46 2644.87 Q2225.46 2653.62 2221.1 2658.62 Q2216.74 2663.58 2209.1 2663.58 Q2201.43 2663.58 2197.07 2658.62 Q2192.74 2653.62 2192.74 2644.87 Q2192.74 2636.08 2197.07 2631.12 Q2201.43 2626.15 2209.1 2626.15 Z" fill="#000000" fill-rule="nonzero" fill-opacity="1" /><path clip-path="url(#clip200)" d="M2260.83 2628.38 L2260.83 2633.86 Q2258.34 2632.49 2255.83 2631.82 Q2253.35 2631.12 2250.8 2631.12 Q2245.1 2631.12 2241.95 2634.75 Q2238.8 2638.34 2238.8 2644.87 Q2238.8 2651.39 2241.95 2655.02 Q2245.1 2658.62 2250.8 2658.62 Q2253.35 2658.62 2255.83 2657.95 Q2258.34 2657.25 2260.83 2655.88 L2260.83 2661.29 Q2258.37 2662.44 2255.73 2663.01 Q2253.12 2663.58 2250.16 2663.58 Q2242.11 2663.58 2237.37 2658.52 Q2232.63 2653.46 2232.63 2644.87 Q2232.63 2636.15 2237.4 2631.15 Q2242.21 2626.15 2250.54 2626.15 Q2253.25 2626.15 2255.83 2626.73 Q2258.41 2627.27 2260.83 2628.38 Z" fill="#000000" fill-rule="nonzero" fill-opacity="1" /><path clip-path="url(#clip200)" d="M2266.78 2627.01 L2300.93 2627.01 L2300.93 2631.69 L2286.73 2631.69 L2286.73 2662.66 L2280.97 2662.66 L2280.97 2631.69 L2266.78 2631.69 L2266.78 2627.01 Z" fill="#000000" fill-rule="nonzero" fill-opacity="1" /><path clip-path="url(#clip200)" d="M2325.18 2644.74 Q2318.09 2644.74 2315.35 2646.36 Q2312.61 2647.99 2312.61 2651.9 Q2312.61 2655.02 2314.65 2656.87 Q2316.72 2658.68 2320.25 2658.68 Q2325.12 2658.68 2328.05 2655.24 Q2331.01 2651.77 2331.01 2646.05 L2331.01 2644.74 L2325.18 2644.74 M2336.86 2642.32 L2336.86 2662.66 L2331.01 2662.66 L2331.01 2657.25 Q2329 2660.5 2326.01 2662.06 Q2323.02 2663.58 2318.69 2663.58 Q2313.22 2663.58 2309.97 2660.53 Q2306.75 2657.44 2306.75 2652.28 Q2306.75 2646.27 2310.76 2643.21 Q2314.81 2640.16 2322.8 2640.16 L2331.01 2640.16 L2331.01 2639.58 Q2331.01 2635.54 2328.33 2633.35 Q2325.69 2631.12 2320.89 2631.12 Q2317.83 2631.12 2314.93 2631.85 Q2312.04 2632.58 2309.36 2634.05 L2309.36 2628.64 Q2312.58 2627.39 2315.6 2626.79 Q2318.63 2626.15 2321.49 2626.15 Q2329.23 2626.15 2333.04 2630.16 Q2336.86 2634.17 2336.86 2642.32 Z" fill="#000000" fill-rule="nonzero" fill-opacity="1" /><path clip-path="url(#clip200)" d="M2350.42 2654.58 L2357.14 2654.58 L2357.14 2660.05 L2351.92 2670.24 L2347.81 2670.24 L2350.42 2660.05 L2350.42 2654.58 Z" fill="#000000" fill-rule="nonzero" fill-opacity="1" /><path clip-path="url(#clip200)" d="M2411.15 2646.08 L2409.75 2638.72 Q2408.32 2631.18 2402.65 2631.18 Q2398.39 2631.18 2396.45 2634.68 Q2394 2639.07 2394 2644.87 Q2394 2651.87 2396.38 2655.21 Q2398.8 2658.62 2402.65 2658.62 Q2406.92 2658.62 2409.21 2651.84 L2411.15 2646.08 M2414.43 2636.34 L2417.58 2627.01 L2422.8 2627.01 L2416.28 2646.33 L2417.55 2653.3 Q2417.84 2654.86 2418.95 2656.17 Q2420.25 2657.69 2421.27 2657.69 L2424.07 2657.69 L2424.07 2662.66 L2420.57 2662.66 Q2417.58 2662.66 2414.91 2659.99 Q2413.6 2658.65 2413.06 2655.85 Q2411.6 2659.38 2408.61 2662.15 Q2407.2 2663.46 2402.65 2663.46 Q2395.17 2663.46 2391.55 2658.62 Q2387.82 2653.62 2387.82 2644.87 Q2387.82 2635.51 2391.86 2631.12 Q2396.35 2626.22 2402.65 2626.22 Q2412.55 2626.22 2414.43 2636.34 Z" fill="#000000" fill-rule="nonzero" fill-opacity="1" /><polyline clip-path="url(#clip200)" style="stroke:#000000; stroke-linecap:round; stroke-linejoin:round; stroke-width:4; stroke-opacity:1; fill:none" points="443.775,2496.2 443.775,126.496 "/>
<polyline clip-path="url(#clip200)" style="stroke:#000000; stroke-linecap:round; stroke-linejoin:round; stroke-width:4; stroke-opacity:1; fill:none" points="443.775,2180.73 462.673,2180.73 "/>
<polyline clip-path="url(#clip200)" style="stroke:#000000; stroke-linecap:round; stroke-linejoin:round; stroke-width:4; stroke-opacity:1; fill:none" points="443.775,1825.88 462.673,1825.88 "/>
<polyline clip-path="url(#clip200)" style="stroke:#000000; stroke-linecap:round; stroke-linejoin:round; stroke-width:4; stroke-opacity:1; fill:none" points="443.775,1471.03 462.673,1471.03 "/>
<polyline clip-path="url(#clip200)" style="stroke:#000000; stroke-linecap:round; stroke-linejoin:round; stroke-width:4; stroke-opacity:1; fill:none" points="443.775,1116.18 462.673,1116.18 "/>
<polyline clip-path="url(#clip200)" style="stroke:#000000; stroke-linecap:round; stroke-linejoin:round; stroke-width:4; stroke-opacity:1; fill:none" points="443.775,761.326 462.673,761.326 "/>
<polyline clip-path="url(#clip200)" style="stroke:#000000; stroke-linecap:round; stroke-linejoin:round; stroke-width:4; stroke-opacity:1; fill:none" points="443.775,406.474 462.673,406.474 "/>
<path clip-path="url(#clip200)" d="M110.107 2200.53 L117.746 2200.53 L117.746 2174.16 L109.436 2175.83 L109.436 2171.57 L117.7 2169.9 L122.376 2169.9 L122.376 2200.53 L130.015 2200.53 L130.015 2204.46 L110.107 2204.46 L110.107 2200.53 Z" fill="#000000" fill-rule="nonzero" fill-opacity="1" /><path clip-path="url(#clip200)" d="M139.459 2198.58 L144.343 2198.58 L144.343 2204.46 L139.459 2204.46 L139.459 2198.58 Z" fill="#000000" fill-rule="nonzero" fill-opacity="1" /><path clip-path="url(#clip200)" d="M153.348 2169.9 L175.57 2169.9 L175.57 2171.89 L163.024 2204.46 L158.14 2204.46 L169.945 2173.84 L153.348 2173.84 L153.348 2169.9 Z" fill="#000000" fill-rule="nonzero" fill-opacity="1" /><path clip-path="url(#clip200)" d="M194.69 2172.98 Q191.079 2172.98 189.251 2176.54 Q187.445 2180.09 187.445 2187.21 Q187.445 2194.32 189.251 2197.89 Q191.079 2201.43 194.69 2201.43 Q198.325 2201.43 200.13 2197.89 Q201.959 2194.32 201.959 2187.21 Q201.959 2180.09 200.13 2176.54 Q198.325 2172.98 194.69 2172.98 M194.69 2169.28 Q200.5 2169.28 203.556 2173.88 Q206.635 2178.47 206.635 2187.21 Q206.635 2195.94 203.556 2200.55 Q200.5 2205.13 194.69 2205.13 Q188.88 2205.13 185.801 2200.55 Q182.746 2195.94 182.746 2187.21 Q182.746 2178.47 185.801 2173.88 Q188.88 2169.28 194.69 2169.28 Z" fill="#000000" fill-rule="nonzero" fill-opacity="1" /><path clip-path="url(#clip200)" d="M224.852 2172.98 Q221.241 2172.98 219.412 2176.54 Q217.607 2180.09 217.607 2187.21 Q217.607 2194.32 219.412 2197.89 Q221.241 2201.43 224.852 2201.43 Q228.486 2201.43 230.292 2197.89 Q232.121 2194.32 232.121 2187.21 Q232.121 2180.09 230.292 2176.54 Q228.486 2172.98 224.852 2172.98 M224.852 2169.28 Q230.662 2169.28 233.718 2173.88 Q236.797 2178.47 236.797 2187.21 Q236.797 2195.94 233.718 2200.55 Q230.662 2205.13 224.852 2205.13 Q219.042 2205.13 215.963 2200.55 Q212.908 2195.94 212.908 2187.21 Q212.908 2178.47 215.963 2173.88 Q219.042 2169.28 224.852 2169.28 Z" fill="#000000" fill-rule="nonzero" fill-opacity="1" /><path clip-path="url(#clip200)" d="M273.185 2179 L262.607 2189.62 L273.185 2200.2 L270.431 2203 L259.806 2192.38 L249.181 2203 L246.449 2200.2 L257.005 2189.62 L246.449 2179 L249.181 2176.2 L259.806 2186.82 L270.431 2176.2 L273.185 2179 Z" fill="#000000" fill-rule="nonzero" fill-opacity="1" /><path clip-path="url(#clip200)" d="M285.546 2200.53 L293.185 2200.53 L293.185 2174.16 L284.875 2175.83 L284.875 2171.57 L293.139 2169.9 L297.815 2169.9 L297.815 2200.53 L305.454 2200.53 L305.454 2204.46 L285.546 2204.46 L285.546 2200.53 Z" fill="#000000" fill-rule="nonzero" fill-opacity="1" /><path clip-path="url(#clip200)" d="M324.898 2172.98 Q321.287 2172.98 319.458 2176.54 Q317.653 2180.09 317.653 2187.21 Q317.653 2194.32 319.458 2197.89 Q321.287 2201.43 324.898 2201.43 Q328.532 2201.43 330.338 2197.89 Q332.166 2194.32 332.166 2187.21 Q332.166 2180.09 330.338 2176.54 Q328.532 2172.98 324.898 2172.98 M324.898 2169.28 Q330.708 2169.28 333.764 2173.88 Q336.842 2178.47 336.842 2187.21 Q336.842 2195.94 333.764 2200.55 Q330.708 2205.13 324.898 2205.13 Q319.088 2205.13 316.009 2200.55 Q312.954 2195.94 312.954 2187.21 Q312.954 2178.47 316.009 2173.88 Q319.088 2169.28 324.898 2169.28 Z" fill="#000000" fill-rule="nonzero" fill-opacity="1" /><path clip-path="url(#clip200)" d="M336.842 2163.38 L360.954 2163.38 L360.954 2166.57 L336.842 2166.57 L336.842 2163.38 Z" fill="#000000" fill-rule="nonzero" fill-opacity="1" /><path clip-path="url(#clip200)" d="M369.192 2148.97 L384.106 2148.97 L384.106 2152.17 L372.671 2152.17 L372.671 2159.05 Q373.499 2158.77 374.326 2158.64 Q375.154 2158.49 375.981 2158.49 Q380.683 2158.49 383.429 2161.06 Q386.175 2163.64 386.175 2168.04 Q386.175 2172.57 383.354 2175.09 Q380.533 2177.6 375.398 2177.6 Q373.63 2177.6 371.787 2177.29 Q369.963 2176.99 368.007 2176.39 L368.007 2172.57 Q369.7 2173.5 371.505 2173.95 Q373.311 2174.4 375.323 2174.4 Q378.577 2174.4 380.476 2172.69 Q382.376 2170.97 382.376 2168.04 Q382.376 2165.11 380.476 2163.4 Q378.577 2161.68 375.323 2161.68 Q373.8 2161.68 372.276 2162.02 Q370.772 2162.36 369.192 2163.08 L369.192 2148.97 Z" fill="#000000" fill-rule="nonzero" fill-opacity="1" /><path clip-path="url(#clip200)" d="M110.107 1845.67 L117.746 1845.67 L117.746 1819.31 L109.436 1820.97 L109.436 1816.72 L117.7 1815.05 L122.376 1815.05 L122.376 1845.67 L130.015 1845.67 L130.015 1849.61 L110.107 1849.61 L110.107 1845.67 Z" fill="#000000" fill-rule="nonzero" fill-opacity="1" /><path clip-path="url(#clip200)" d="M139.459 1843.73 L144.343 1843.73 L144.343 1849.61 L139.459 1849.61 L139.459 1843.73 Z" fill="#000000" fill-rule="nonzero" fill-opacity="1" /><path clip-path="url(#clip200)" d="M153.348 1815.05 L175.57 1815.05 L175.57 1817.04 L163.024 1849.61 L158.14 1849.61 L169.945 1818.98 L153.348 1818.98 L153.348 1815.05 Z" fill="#000000" fill-rule="nonzero" fill-opacity="1" /><path clip-path="url(#clip200)" d="M184.737 1815.05 L203.093 1815.05 L203.093 1818.98 L189.019 1818.98 L189.019 1827.46 Q190.038 1827.11 191.056 1826.95 Q192.075 1826.76 193.093 1826.76 Q198.88 1826.76 202.26 1829.93 Q205.639 1833.1 205.639 1838.52 Q205.639 1844.1 202.167 1847.2 Q198.695 1850.28 192.376 1850.28 Q190.2 1850.28 187.931 1849.91 Q185.686 1849.54 183.278 1848.8 L183.278 1844.1 Q185.362 1845.23 187.584 1845.79 Q189.806 1846.34 192.283 1846.34 Q196.288 1846.34 198.625 1844.24 Q200.963 1842.13 200.963 1838.52 Q200.963 1834.91 198.625 1832.8 Q196.288 1830.7 192.283 1830.7 Q190.408 1830.7 188.533 1831.11 Q186.681 1831.53 184.737 1832.41 L184.737 1815.05 Z" fill="#000000" fill-rule="nonzero" fill-opacity="1" /><path clip-path="url(#clip200)" d="M224.852 1818.13 Q221.241 1818.13 219.412 1821.69 Q217.607 1825.23 217.607 1832.36 Q217.607 1839.47 219.412 1843.03 Q221.241 1846.58 224.852 1846.58 Q228.486 1846.58 230.292 1843.03 Q232.121 1839.47 232.121 1832.36 Q232.121 1825.23 230.292 1821.69 Q228.486 1818.13 224.852 1818.13 M224.852 1814.42 Q230.662 1814.42 233.718 1819.03 Q236.797 1823.61 236.797 1832.36 Q236.797 1841.09 233.718 1845.7 Q230.662 1850.28 224.852 1850.28 Q219.042 1850.28 215.963 1845.7 Q212.908 1841.09 212.908 1832.36 Q212.908 1823.61 215.963 1819.03 Q219.042 1814.42 224.852 1814.42 Z" fill="#000000" fill-rule="nonzero" fill-opacity="1" /><path clip-path="url(#clip200)" d="M273.185 1824.15 L262.607 1834.77 L273.185 1845.35 L270.431 1848.15 L259.806 1837.53 L249.181 1848.15 L246.449 1845.35 L257.005 1834.77 L246.449 1824.15 L249.181 1821.34 L259.806 1831.97 L270.431 1821.34 L273.185 1824.15 Z" fill="#000000" fill-rule="nonzero" fill-opacity="1" /><path clip-path="url(#clip200)" d="M285.546 1845.67 L293.185 1845.67 L293.185 1819.31 L284.875 1820.97 L284.875 1816.72 L293.139 1815.05 L297.815 1815.05 L297.815 1845.67 L305.454 1845.67 L305.454 1849.61 L285.546 1849.61 L285.546 1845.67 Z" fill="#000000" fill-rule="nonzero" fill-opacity="1" /><path clip-path="url(#clip200)" d="M324.898 1818.13 Q321.287 1818.13 319.458 1821.69 Q317.653 1825.23 317.653 1832.36 Q317.653 1839.47 319.458 1843.03 Q321.287 1846.58 324.898 1846.58 Q328.532 1846.58 330.338 1843.03 Q332.166 1839.47 332.166 1832.36 Q332.166 1825.23 330.338 1821.69 Q328.532 1818.13 324.898 1818.13 M324.898 1814.42 Q330.708 1814.42 333.764 1819.03 Q336.842 1823.61 336.842 1832.36 Q336.842 1841.09 333.764 1845.7 Q330.708 1850.28 324.898 1850.28 Q319.088 1850.28 316.009 1845.7 Q312.954 1841.09 312.954 1832.36 Q312.954 1823.61 316.009 1819.03 Q319.088 1814.42 324.898 1814.42 Z" fill="#000000" fill-rule="nonzero" fill-opacity="1" /><path clip-path="url(#clip200)" d="M336.842 1808.52 L360.954 1808.52 L360.954 1811.72 L336.842 1811.72 L336.842 1808.52 Z" fill="#000000" fill-rule="nonzero" fill-opacity="1" /><path clip-path="url(#clip200)" d="M369.192 1794.12 L384.106 1794.12 L384.106 1797.32 L372.671 1797.32 L372.671 1804.2 Q373.499 1803.92 374.326 1803.79 Q375.154 1803.63 375.981 1803.63 Q380.683 1803.63 383.429 1806.21 Q386.175 1808.79 386.175 1813.19 Q386.175 1817.72 383.354 1820.24 Q380.533 1822.74 375.398 1822.74 Q373.63 1822.74 371.787 1822.44 Q369.963 1822.14 368.007 1821.54 L368.007 1817.72 Q369.7 1818.64 371.505 1819.09 Q373.311 1819.55 375.323 1819.55 Q378.577 1819.55 380.476 1817.83 Q382.376 1816.12 382.376 1813.19 Q382.376 1810.26 380.476 1808.54 Q378.577 1806.83 375.323 1806.83 Q373.8 1806.83 372.276 1807.17 Q370.772 1807.51 369.192 1808.22 L369.192 1794.12 Z" fill="#000000" fill-rule="nonzero" fill-opacity="1" /><path clip-path="url(#clip200)" d="M110.107 1490.82 L117.746 1490.82 L117.746 1464.46 L109.436 1466.12 L109.436 1461.86 L117.7 1460.2 L122.376 1460.2 L122.376 1490.82 L130.015 1490.82 L130.015 1494.76 L110.107 1494.76 L110.107 1490.82 Z" fill="#000000" fill-rule="nonzero" fill-opacity="1" /><path clip-path="url(#clip200)" d="M139.459 1488.88 L144.343 1488.88 L144.343 1494.76 L139.459 1494.76 L139.459 1488.88 Z" fill="#000000" fill-rule="nonzero" fill-opacity="1" /><path clip-path="url(#clip200)" d="M164.528 1478.34 Q161.195 1478.34 159.274 1480.13 Q157.376 1481.91 157.376 1485.03 Q157.376 1488.16 159.274 1489.94 Q161.195 1491.72 164.528 1491.72 Q167.862 1491.72 169.783 1489.94 Q171.704 1488.14 171.704 1485.03 Q171.704 1481.91 169.783 1480.13 Q167.885 1478.34 164.528 1478.34 M159.853 1476.35 Q156.843 1475.61 155.154 1473.55 Q153.487 1471.49 153.487 1468.53 Q153.487 1464.39 156.427 1461.98 Q159.39 1459.57 164.528 1459.57 Q169.69 1459.57 172.63 1461.98 Q175.57 1464.39 175.57 1468.53 Q175.57 1471.49 173.88 1473.55 Q172.214 1475.61 169.228 1476.35 Q172.607 1477.14 174.482 1479.43 Q176.38 1481.72 176.38 1485.03 Q176.38 1490.06 173.302 1492.74 Q170.246 1495.43 164.528 1495.43 Q158.811 1495.43 155.732 1492.74 Q152.677 1490.06 152.677 1485.03 Q152.677 1481.72 154.575 1479.43 Q156.473 1477.14 159.853 1476.35 M158.14 1468.97 Q158.14 1471.66 159.806 1473.16 Q161.496 1474.66 164.528 1474.66 Q167.538 1474.66 169.228 1473.16 Q170.94 1471.66 170.94 1468.97 Q170.94 1466.28 169.228 1464.78 Q167.538 1463.28 164.528 1463.28 Q161.496 1463.28 159.806 1464.78 Q158.14 1466.28 158.14 1468.97 Z" fill="#000000" fill-rule="nonzero" fill-opacity="1" /><path clip-path="url(#clip200)" d="M194.69 1463.28 Q191.079 1463.28 189.251 1466.84 Q187.445 1470.38 187.445 1477.51 Q187.445 1484.62 189.251 1488.18 Q191.079 1491.72 194.69 1491.72 Q198.325 1491.72 200.13 1488.18 Q201.959 1484.62 201.959 1477.51 Q201.959 1470.38 200.13 1466.84 Q198.325 1463.28 194.69 1463.28 M194.69 1459.57 Q200.5 1459.57 203.556 1464.18 Q206.635 1468.76 206.635 1477.51 Q206.635 1486.24 203.556 1490.84 Q200.5 1495.43 194.69 1495.43 Q188.88 1495.43 185.801 1490.84 Q182.746 1486.24 182.746 1477.51 Q182.746 1468.76 185.801 1464.18 Q188.88 1459.57 194.69 1459.57 Z" fill="#000000" fill-rule="nonzero" fill-opacity="1" /><path clip-path="url(#clip200)" d="M224.852 1463.28 Q221.241 1463.28 219.412 1466.84 Q217.607 1470.38 217.607 1477.51 Q217.607 1484.62 219.412 1488.18 Q221.241 1491.72 224.852 1491.72 Q228.486 1491.72 230.292 1488.18 Q232.121 1484.62 232.121 1477.51 Q232.121 1470.38 230.292 1466.84 Q228.486 1463.28 224.852 1463.28 M224.852 1459.57 Q230.662 1459.57 233.718 1464.18 Q236.797 1468.76 236.797 1477.51 Q236.797 1486.24 233.718 1490.84 Q230.662 1495.43 224.852 1495.43 Q219.042 1495.43 215.963 1490.84 Q212.908 1486.24 212.908 1477.51 Q212.908 1468.76 215.963 1464.18 Q219.042 1459.57 224.852 1459.57 Z" fill="#000000" fill-rule="nonzero" fill-opacity="1" /><path clip-path="url(#clip200)" d="M273.185 1469.29 L262.607 1479.92 L273.185 1490.5 L270.431 1493.3 L259.806 1482.67 L249.181 1493.3 L246.449 1490.5 L257.005 1479.92 L246.449 1469.29 L249.181 1466.49 L259.806 1477.12 L270.431 1466.49 L273.185 1469.29 Z" fill="#000000" fill-rule="nonzero" fill-opacity="1" /><path clip-path="url(#clip200)" d="M285.546 1490.82 L293.185 1490.82 L293.185 1464.46 L284.875 1466.12 L284.875 1461.86 L293.139 1460.2 L297.815 1460.2 L297.815 1490.82 L305.454 1490.82 L305.454 1494.76 L285.546 1494.76 L285.546 1490.82 Z" fill="#000000" fill-rule="nonzero" fill-opacity="1" /><path clip-path="url(#clip200)" d="M324.898 1463.28 Q321.287 1463.28 319.458 1466.84 Q317.653 1470.38 317.653 1477.51 Q317.653 1484.62 319.458 1488.18 Q321.287 1491.72 324.898 1491.72 Q328.532 1491.72 330.338 1488.18 Q332.166 1484.62 332.166 1477.51 Q332.166 1470.38 330.338 1466.84 Q328.532 1463.28 324.898 1463.28 M324.898 1459.57 Q330.708 1459.57 333.764 1464.18 Q336.842 1468.76 336.842 1477.51 Q336.842 1486.24 333.764 1490.84 Q330.708 1495.43 324.898 1495.43 Q319.088 1495.43 316.009 1490.84 Q312.954 1486.24 312.954 1477.51 Q312.954 1468.76 316.009 1464.18 Q319.088 1459.57 324.898 1459.57 Z" fill="#000000" fill-rule="nonzero" fill-opacity="1" /><path clip-path="url(#clip200)" d="M336.842 1453.67 L360.954 1453.67 L360.954 1456.87 L336.842 1456.87 L336.842 1453.67 Z" fill="#000000" fill-rule="nonzero" fill-opacity="1" /><path clip-path="url(#clip200)" d="M369.192 1439.27 L384.106 1439.27 L384.106 1442.46 L372.671 1442.46 L372.671 1449.35 Q373.499 1449.07 374.326 1448.93 Q375.154 1448.78 375.981 1448.78 Q380.683 1448.78 383.429 1451.36 Q386.175 1453.94 386.175 1458.34 Q386.175 1462.87 383.354 1465.39 Q380.533 1467.89 375.398 1467.89 Q373.63 1467.89 371.787 1467.59 Q369.963 1467.29 368.007 1466.69 L368.007 1462.87 Q369.7 1463.79 371.505 1464.24 Q373.311 1464.69 375.323 1464.69 Q378.577 1464.69 380.476 1462.98 Q382.376 1461.27 382.376 1458.34 Q382.376 1455.4 380.476 1453.69 Q378.577 1451.98 375.323 1451.98 Q373.8 1451.98 372.276 1452.32 Q370.772 1452.66 369.192 1453.37 L369.192 1439.27 Z" fill="#000000" fill-rule="nonzero" fill-opacity="1" /><path clip-path="url(#clip200)" d="M110.107 1135.97 L117.746 1135.97 L117.746 1109.6 L109.436 1111.27 L109.436 1107.01 L117.7 1105.35 L122.376 1105.35 L122.376 1135.97 L130.015 1135.97 L130.015 1139.91 L110.107 1139.91 L110.107 1135.97 Z" fill="#000000" fill-rule="nonzero" fill-opacity="1" /><path clip-path="url(#clip200)" d="M139.459 1134.03 L144.343 1134.03 L144.343 1139.91 L139.459 1139.91 L139.459 1134.03 Z" fill="#000000" fill-rule="nonzero" fill-opacity="1" /><path clip-path="url(#clip200)" d="M164.528 1123.49 Q161.195 1123.49 159.274 1125.28 Q157.376 1127.06 157.376 1130.18 Q157.376 1133.31 159.274 1135.09 Q161.195 1136.87 164.528 1136.87 Q167.862 1136.87 169.783 1135.09 Q171.704 1133.28 171.704 1130.18 Q171.704 1127.06 169.783 1125.28 Q167.885 1123.49 164.528 1123.49 M159.853 1121.5 Q156.843 1120.76 155.154 1118.7 Q153.487 1116.64 153.487 1113.68 Q153.487 1109.53 156.427 1107.13 Q159.39 1104.72 164.528 1104.72 Q169.69 1104.72 172.63 1107.13 Q175.57 1109.53 175.57 1113.68 Q175.57 1116.64 173.88 1118.7 Q172.214 1120.76 169.228 1121.5 Q172.607 1122.29 174.482 1124.58 Q176.38 1126.87 176.38 1130.18 Q176.38 1135.21 173.302 1137.89 Q170.246 1140.58 164.528 1140.58 Q158.811 1140.58 155.732 1137.89 Q152.677 1135.21 152.677 1130.18 Q152.677 1126.87 154.575 1124.58 Q156.473 1122.29 159.853 1121.5 M158.14 1114.12 Q158.14 1116.8 159.806 1118.31 Q161.496 1119.81 164.528 1119.81 Q167.538 1119.81 169.228 1118.31 Q170.94 1116.8 170.94 1114.12 Q170.94 1111.43 169.228 1109.93 Q167.538 1108.42 164.528 1108.42 Q161.496 1108.42 159.806 1109.93 Q158.14 1111.43 158.14 1114.12 Z" fill="#000000" fill-rule="nonzero" fill-opacity="1" /><path clip-path="url(#clip200)" d="M184.737 1105.35 L203.093 1105.35 L203.093 1109.28 L189.019 1109.28 L189.019 1117.75 Q190.038 1117.41 191.056 1117.24 Q192.075 1117.06 193.093 1117.06 Q198.88 1117.06 202.26 1120.23 Q205.639 1123.4 205.639 1128.82 Q205.639 1134.4 202.167 1137.5 Q198.695 1140.58 192.376 1140.58 Q190.2 1140.58 187.931 1140.21 Q185.686 1139.84 183.278 1139.09 L183.278 1134.4 Q185.362 1135.53 187.584 1136.09 Q189.806 1136.64 192.283 1136.64 Q196.288 1136.64 198.625 1134.53 Q200.963 1132.43 200.963 1128.82 Q200.963 1125.21 198.625 1123.1 Q196.288 1120.99 192.283 1120.99 Q190.408 1120.99 188.533 1121.41 Q186.681 1121.83 184.737 1122.71 L184.737 1105.35 Z" fill="#000000" fill-rule="nonzero" fill-opacity="1" /><path clip-path="url(#clip200)" d="M224.852 1108.42 Q221.241 1108.42 219.412 1111.99 Q217.607 1115.53 217.607 1122.66 Q217.607 1129.77 219.412 1133.33 Q221.241 1136.87 224.852 1136.87 Q228.486 1136.87 230.292 1133.33 Q232.121 1129.77 232.121 1122.66 Q232.121 1115.53 230.292 1111.99 Q228.486 1108.42 224.852 1108.42 M224.852 1104.72 Q230.662 1104.72 233.718 1109.33 Q236.797 1113.91 236.797 1122.66 Q236.797 1131.39 233.718 1135.99 Q230.662 1140.58 224.852 1140.58 Q219.042 1140.58 215.963 1135.99 Q212.908 1131.39 212.908 1122.66 Q212.908 1113.91 215.963 1109.33 Q219.042 1104.72 224.852 1104.72 Z" fill="#000000" fill-rule="nonzero" fill-opacity="1" /><path clip-path="url(#clip200)" d="M273.185 1114.44 L262.607 1125.07 L273.185 1135.65 L270.431 1138.45 L259.806 1127.82 L249.181 1138.45 L246.449 1135.65 L257.005 1125.07 L246.449 1114.44 L249.181 1111.64 L259.806 1122.27 L270.431 1111.64 L273.185 1114.44 Z" fill="#000000" fill-rule="nonzero" fill-opacity="1" /><path clip-path="url(#clip200)" d="M285.546 1135.97 L293.185 1135.97 L293.185 1109.6 L284.875 1111.27 L284.875 1107.01 L293.139 1105.35 L297.815 1105.35 L297.815 1135.97 L305.454 1135.97 L305.454 1139.91 L285.546 1139.91 L285.546 1135.97 Z" fill="#000000" fill-rule="nonzero" fill-opacity="1" /><path clip-path="url(#clip200)" d="M324.898 1108.42 Q321.287 1108.42 319.458 1111.99 Q317.653 1115.53 317.653 1122.66 Q317.653 1129.77 319.458 1133.33 Q321.287 1136.87 324.898 1136.87 Q328.532 1136.87 330.338 1133.33 Q332.166 1129.77 332.166 1122.66 Q332.166 1115.53 330.338 1111.99 Q328.532 1108.42 324.898 1108.42 M324.898 1104.72 Q330.708 1104.72 333.764 1109.33 Q336.842 1113.91 336.842 1122.66 Q336.842 1131.39 333.764 1135.99 Q330.708 1140.58 324.898 1140.58 Q319.088 1140.58 316.009 1135.99 Q312.954 1131.39 312.954 1122.66 Q312.954 1113.91 316.009 1109.33 Q319.088 1104.72 324.898 1104.72 Z" fill="#000000" fill-rule="nonzero" fill-opacity="1" /><path clip-path="url(#clip200)" d="M336.842 1098.82 L360.954 1098.82 L360.954 1102.02 L336.842 1102.02 L336.842 1098.82 Z" fill="#000000" fill-rule="nonzero" fill-opacity="1" /><path clip-path="url(#clip200)" d="M369.192 1084.41 L384.106 1084.41 L384.106 1087.61 L372.671 1087.61 L372.671 1094.5 Q373.499 1094.21 374.326 1094.08 Q375.154 1093.93 375.981 1093.93 Q380.683 1093.93 383.429 1096.51 Q386.175 1099.08 386.175 1103.49 Q386.175 1108.02 383.354 1110.54 Q380.533 1113.04 375.398 1113.04 Q373.63 1113.04 371.787 1112.74 Q369.963 1112.44 368.007 1111.84 L368.007 1108.02 Q369.7 1108.94 371.505 1109.39 Q373.311 1109.84 375.323 1109.84 Q378.577 1109.84 380.476 1108.13 Q382.376 1106.42 382.376 1103.49 Q382.376 1100.55 380.476 1098.84 Q378.577 1097.13 375.323 1097.13 Q373.8 1097.13 372.276 1097.47 Q370.772 1097.81 369.192 1098.52 L369.192 1084.41 Z" fill="#000000" fill-rule="nonzero" fill-opacity="1" /><path clip-path="url(#clip200)" d="M110.107 781.118 L117.746 781.118 L117.746 754.753 L109.436 756.419 L109.436 752.16 L117.7 750.493 L122.376 750.493 L122.376 781.118 L130.015 781.118 L130.015 785.053 L110.107 785.053 L110.107 781.118 Z" fill="#000000" fill-rule="nonzero" fill-opacity="1" /><path clip-path="url(#clip200)" d="M139.459 779.174 L144.343 779.174 L144.343 785.053 L139.459 785.053 L139.459 779.174 Z" fill="#000000" fill-rule="nonzero" fill-opacity="1" /><path clip-path="url(#clip200)" d="M154.667 784.336 L154.667 780.077 Q156.427 780.91 158.232 781.35 Q160.038 781.79 161.774 781.79 Q166.403 781.79 168.834 778.688 Q171.288 775.563 171.635 769.22 Q170.292 771.211 168.232 772.276 Q166.172 773.341 163.672 773.341 Q158.487 773.341 155.454 770.216 Q152.445 767.067 152.445 761.628 Q152.445 756.304 155.593 753.086 Q158.741 749.868 163.973 749.868 Q169.968 749.868 173.116 754.475 Q176.288 759.058 176.288 767.808 Q176.288 775.979 172.399 780.864 Q168.533 785.725 161.982 785.725 Q160.223 785.725 158.417 785.378 Q156.612 785.03 154.667 784.336 M163.973 769.683 Q167.121 769.683 168.95 767.53 Q170.802 765.378 170.802 761.628 Q170.802 757.901 168.95 755.748 Q167.121 753.572 163.973 753.572 Q160.825 753.572 158.973 755.748 Q157.144 757.901 157.144 761.628 Q157.144 765.378 158.973 767.53 Q160.825 769.683 163.973 769.683 Z" fill="#000000" fill-rule="nonzero" fill-opacity="1" /><path clip-path="url(#clip200)" d="M194.69 753.572 Q191.079 753.572 189.251 757.137 Q187.445 760.679 187.445 767.808 Q187.445 774.915 189.251 778.479 Q191.079 782.021 194.69 782.021 Q198.325 782.021 200.13 778.479 Q201.959 774.915 201.959 767.808 Q201.959 760.679 200.13 757.137 Q198.325 753.572 194.69 753.572 M194.69 749.868 Q200.5 749.868 203.556 754.475 Q206.635 759.058 206.635 767.808 Q206.635 776.535 203.556 781.141 Q200.5 785.725 194.69 785.725 Q188.88 785.725 185.801 781.141 Q182.746 776.535 182.746 767.808 Q182.746 759.058 185.801 754.475 Q188.88 749.868 194.69 749.868 Z" fill="#000000" fill-rule="nonzero" fill-opacity="1" /><path clip-path="url(#clip200)" d="M224.852 753.572 Q221.241 753.572 219.412 757.137 Q217.607 760.679 217.607 767.808 Q217.607 774.915 219.412 778.479 Q221.241 782.021 224.852 782.021 Q228.486 782.021 230.292 778.479 Q232.121 774.915 232.121 767.808 Q232.121 760.679 230.292 757.137 Q228.486 753.572 224.852 753.572 M224.852 749.868 Q230.662 749.868 233.718 754.475 Q236.797 759.058 236.797 767.808 Q236.797 776.535 233.718 781.141 Q230.662 785.725 224.852 785.725 Q219.042 785.725 215.963 781.141 Q212.908 776.535 212.908 767.808 Q212.908 759.058 215.963 754.475 Q219.042 749.868 224.852 749.868 Z" fill="#000000" fill-rule="nonzero" fill-opacity="1" /><path clip-path="url(#clip200)" d="M273.185 759.591 L262.607 770.216 L273.185 780.794 L270.431 783.595 L259.806 772.97 L249.181 783.595 L246.449 780.794 L257.005 770.216 L246.449 759.591 L249.181 756.79 L259.806 767.415 L270.431 756.79 L273.185 759.591 Z" fill="#000000" fill-rule="nonzero" fill-opacity="1" /><path clip-path="url(#clip200)" d="M285.546 781.118 L293.185 781.118 L293.185 754.753 L284.875 756.419 L284.875 752.16 L293.139 750.493 L297.815 750.493 L297.815 781.118 L305.454 781.118 L305.454 785.053 L285.546 785.053 L285.546 781.118 Z" fill="#000000" fill-rule="nonzero" fill-opacity="1" /><path clip-path="url(#clip200)" d="M324.898 753.572 Q321.287 753.572 319.458 757.137 Q317.653 760.679 317.653 767.808 Q317.653 774.915 319.458 778.479 Q321.287 782.021 324.898 782.021 Q328.532 782.021 330.338 778.479 Q332.166 774.915 332.166 767.808 Q332.166 760.679 330.338 757.137 Q328.532 753.572 324.898 753.572 M324.898 749.868 Q330.708 749.868 333.764 754.475 Q336.842 759.058 336.842 767.808 Q336.842 776.535 333.764 781.141 Q330.708 785.725 324.898 785.725 Q319.088 785.725 316.009 781.141 Q312.954 776.535 312.954 767.808 Q312.954 759.058 316.009 754.475 Q319.088 749.868 324.898 749.868 Z" fill="#000000" fill-rule="nonzero" fill-opacity="1" /><path clip-path="url(#clip200)" d="M336.842 743.97 L360.954 743.97 L360.954 747.167 L336.842 747.167 L336.842 743.97 Z" fill="#000000" fill-rule="nonzero" fill-opacity="1" /><path clip-path="url(#clip200)" d="M369.192 729.563 L384.106 729.563 L384.106 732.76 L372.671 732.76 L372.671 739.644 Q373.499 739.362 374.326 739.23 Q375.154 739.08 375.981 739.08 Q380.683 739.08 383.429 741.656 Q386.175 744.233 386.175 748.634 Q386.175 753.167 383.354 755.687 Q380.533 758.188 375.398 758.188 Q373.63 758.188 371.787 757.888 Q369.963 757.587 368.007 756.985 L368.007 753.167 Q369.7 754.088 371.505 754.54 Q373.311 754.991 375.323 754.991 Q378.577 754.991 380.476 753.28 Q382.376 751.568 382.376 748.634 Q382.376 745.7 380.476 743.989 Q378.577 742.277 375.323 742.277 Q373.8 742.277 372.276 742.616 Q370.772 742.954 369.192 743.669 L369.192 729.563 Z" fill="#000000" fill-rule="nonzero" fill-opacity="1" /><path clip-path="url(#clip200)" d="M110.107 426.267 L117.746 426.267 L117.746 399.901 L109.436 401.568 L109.436 397.308 L117.7 395.642 L122.376 395.642 L122.376 426.267 L130.015 426.267 L130.015 430.202 L110.107 430.202 L110.107 426.267 Z" fill="#000000" fill-rule="nonzero" fill-opacity="1" /><path clip-path="url(#clip200)" d="M139.459 424.322 L144.343 424.322 L144.343 430.202 L139.459 430.202 L139.459 424.322 Z" fill="#000000" fill-rule="nonzero" fill-opacity="1" /><path clip-path="url(#clip200)" d="M154.667 429.484 L154.667 425.225 Q156.427 426.058 158.232 426.498 Q160.038 426.938 161.774 426.938 Q166.403 426.938 168.834 423.836 Q171.288 420.711 171.635 414.368 Q170.292 416.359 168.232 417.424 Q166.172 418.489 163.672 418.489 Q158.487 418.489 155.454 415.364 Q152.445 412.216 152.445 406.776 Q152.445 401.452 155.593 398.234 Q158.741 395.017 163.973 395.017 Q169.968 395.017 173.116 399.623 Q176.288 404.206 176.288 412.956 Q176.288 421.128 172.399 426.012 Q168.533 430.873 161.982 430.873 Q160.223 430.873 158.417 430.526 Q156.612 430.179 154.667 429.484 M163.973 414.831 Q167.121 414.831 168.95 412.679 Q170.802 410.526 170.802 406.776 Q170.802 403.049 168.95 400.896 Q167.121 398.72 163.973 398.72 Q160.825 398.72 158.973 400.896 Q157.144 403.049 157.144 406.776 Q157.144 410.526 158.973 412.679 Q160.825 414.831 163.973 414.831 Z" fill="#000000" fill-rule="nonzero" fill-opacity="1" /><path clip-path="url(#clip200)" d="M184.737 395.642 L203.093 395.642 L203.093 399.577 L189.019 399.577 L189.019 408.049 Q190.038 407.702 191.056 407.54 Q192.075 407.355 193.093 407.355 Q198.88 407.355 202.26 410.526 Q205.639 413.697 205.639 419.114 Q205.639 424.692 202.167 427.794 Q198.695 430.873 192.376 430.873 Q190.2 430.873 187.931 430.503 Q185.686 430.132 183.278 429.392 L183.278 424.692 Q185.362 425.827 187.584 426.382 Q189.806 426.938 192.283 426.938 Q196.288 426.938 198.625 424.831 Q200.963 422.725 200.963 419.114 Q200.963 415.503 198.625 413.396 Q196.288 411.29 192.283 411.29 Q190.408 411.29 188.533 411.706 Q186.681 412.123 184.737 413.003 L184.737 395.642 Z" fill="#000000" fill-rule="nonzero" fill-opacity="1" /><path clip-path="url(#clip200)" d="M224.852 398.72 Q221.241 398.72 219.412 402.285 Q217.607 405.827 217.607 412.956 Q217.607 420.063 219.412 423.628 Q221.241 427.169 224.852 427.169 Q228.486 427.169 230.292 423.628 Q232.121 420.063 232.121 412.956 Q232.121 405.827 230.292 402.285 Q228.486 398.72 224.852 398.72 M224.852 395.017 Q230.662 395.017 233.718 399.623 Q236.797 404.206 236.797 412.956 Q236.797 421.683 233.718 426.29 Q230.662 430.873 224.852 430.873 Q219.042 430.873 215.963 426.29 Q212.908 421.683 212.908 412.956 Q212.908 404.206 215.963 399.623 Q219.042 395.017 224.852 395.017 Z" fill="#000000" fill-rule="nonzero" fill-opacity="1" /><path clip-path="url(#clip200)" d="M273.185 404.739 L262.607 415.364 L273.185 425.942 L270.431 428.743 L259.806 418.118 L249.181 428.743 L246.449 425.942 L257.005 415.364 L246.449 404.739 L249.181 401.938 L259.806 412.563 L270.431 401.938 L273.185 404.739 Z" fill="#000000" fill-rule="nonzero" fill-opacity="1" /><path clip-path="url(#clip200)" d="M285.546 426.267 L293.185 426.267 L293.185 399.901 L284.875 401.568 L284.875 397.308 L293.139 395.642 L297.815 395.642 L297.815 426.267 L305.454 426.267 L305.454 430.202 L285.546 430.202 L285.546 426.267 Z" fill="#000000" fill-rule="nonzero" fill-opacity="1" /><path clip-path="url(#clip200)" d="M324.898 398.72 Q321.287 398.72 319.458 402.285 Q317.653 405.827 317.653 412.956 Q317.653 420.063 319.458 423.628 Q321.287 427.169 324.898 427.169 Q328.532 427.169 330.338 423.628 Q332.166 420.063 332.166 412.956 Q332.166 405.827 330.338 402.285 Q328.532 398.72 324.898 398.72 M324.898 395.017 Q330.708 395.017 333.764 399.623 Q336.842 404.206 336.842 412.956 Q336.842 421.683 333.764 426.29 Q330.708 430.873 324.898 430.873 Q319.088 430.873 316.009 426.29 Q312.954 421.683 312.954 412.956 Q312.954 404.206 316.009 399.623 Q319.088 395.017 324.898 395.017 Z" fill="#000000" fill-rule="nonzero" fill-opacity="1" /><path clip-path="url(#clip200)" d="M336.842 389.118 L360.954 389.118 L360.954 392.315 L336.842 392.315 L336.842 389.118 Z" fill="#000000" fill-rule="nonzero" fill-opacity="1" /><path clip-path="url(#clip200)" d="M369.192 374.711 L384.106 374.711 L384.106 377.909 L372.671 377.909 L372.671 384.792 Q373.499 384.51 374.326 384.379 Q375.154 384.228 375.981 384.228 Q380.683 384.228 383.429 386.805 Q386.175 389.381 386.175 393.782 Q386.175 398.315 383.354 400.835 Q380.533 403.337 375.398 403.337 Q373.63 403.337 371.787 403.036 Q369.963 402.735 368.007 402.133 L368.007 398.315 Q369.7 399.237 371.505 399.688 Q373.311 400.139 375.323 400.139 Q378.577 400.139 380.476 398.428 Q382.376 396.716 382.376 393.782 Q382.376 390.848 380.476 389.137 Q378.577 387.425 375.323 387.425 Q373.8 387.425 372.276 387.764 Q370.772 388.102 369.192 388.817 L369.192 374.711 Z" fill="#000000" fill-rule="nonzero" fill-opacity="1" /><path clip-path="url(#clip200)" d="M14.8864 1702.95 L32.2966 1702.95 L32.2966 1692.64 Q32.2966 1687.45 30.1641 1684.97 Q27.9998 1682.45 23.5756 1682.45 Q19.1196 1682.45 17.0189 1684.97 Q14.8864 1687.45 14.8864 1692.64 L14.8864 1702.95 M-4.65631 1702.95 L9.66653 1702.95 L9.66653 1693.43 Q9.66653 1688.72 7.91596 1686.43 Q6.13357 1684.11 2.50511 1684.11 Q-1.09151 1684.11 -2.87391 1686.43 Q-4.65631 1688.72 -4.65631 1693.43 L-4.65631 1702.95 M-9.93984 1709.38 L-9.93984 1692.95 Q-9.93984 1685.6 -6.8843 1681.62 Q-3.82876 1677.64 1.80489 1677.64 Q6.1654 1677.64 8.74351 1679.68 Q11.3216 1681.72 11.9582 1685.67 Q12.9767 1680.92 16.2232 1678.31 Q19.4379 1675.67 24.2758 1675.67 Q30.6415 1675.67 34.1108 1680 Q37.5802 1684.33 37.5802 1692.32 L37.5802 1709.38 L-9.93984 1709.38 Z" fill="#000000" fill-rule="nonzero" fill-opacity="1" /><path clip-path="url(#clip200)" d="M32.233 1659.25 L51.1391 1659.25 L51.1391 1665.14 L1.9322 1665.14 L1.9322 1659.25 L7.34305 1659.25 Q4.1602 1657.4 2.63243 1654.6 Q1.07283 1651.77 1.07283 1647.85 Q1.07283 1641.36 6.22905 1637.32 Q11.3853 1633.24 19.788 1633.24 Q28.1907 1633.24 33.347 1637.32 Q38.5032 1641.36 38.5032 1647.85 Q38.5032 1651.77 36.9754 1654.6 Q35.4158 1657.4 32.233 1659.25 M19.788 1639.32 Q13.3268 1639.32 9.66653 1642 Q5.97442 1644.64 5.97442 1649.29 Q5.97442 1653.93 9.66653 1656.61 Q13.3268 1659.25 19.788 1659.25 Q26.2492 1659.25 29.9413 1656.61 Q33.6016 1653.93 33.6016 1649.29 Q33.6016 1644.64 29.9413 1642 Q26.2492 1639.32 19.788 1639.32 Z" fill="#000000" fill-rule="nonzero" fill-opacity="1" /><path clip-path="url(#clip200)" d="M18.2921 1593.04 L21.1566 1593.04 L21.1566 1619.97 Q27.2041 1619.59 30.3869 1616.34 Q33.5379 1613.06 33.5379 1607.24 Q33.5379 1603.87 32.7104 1600.72 Q31.8829 1597.53 30.2278 1594.41 L35.7659 1594.41 Q37.1027 1597.56 37.803 1600.87 Q38.5032 1604.18 38.5032 1607.59 Q38.5032 1616.12 33.5379 1621.12 Q28.5727 1626.08 20.1063 1626.08 Q11.3534 1626.08 6.22905 1621.37 Q1.07283 1616.63 1.07283 1608.61 Q1.07283 1601.42 5.7198 1597.25 Q10.3349 1593.04 18.2921 1593.04 M16.5733 1598.9 Q11.7672 1598.96 8.90265 1601.61 Q6.03808 1604.22 6.03808 1608.54 Q6.03808 1613.45 8.80716 1616.41 Q11.5762 1619.33 16.6052 1619.78 L16.5733 1598.9 Z" fill="#000000" fill-rule="nonzero" fill-opacity="1" /><path clip-path="url(#clip200)" d="M1.9322 1583.65 L1.9322 1575.09 L25.8036 1564.97 L1.9322 1554.82 L1.9322 1546.32 L37.5802 1546.32 L37.5802 1552.21 L7.53402 1552.21 L30.737 1562.04 L30.737 1567.9 L7.53402 1577.77 L37.5802 1577.77 L37.5802 1583.65 L1.9322 1583.65 Z" fill="#000000" fill-rule="nonzero" fill-opacity="1" /><path clip-path="url(#clip200)" d="M12.2128 1528.37 Q14.8546 1528.37 16.3505 1526.33 Q17.8465 1524.29 17.8465 1520.51 L17.8465 1512.61 L6.61099 1512.61 L6.61099 1520.51 Q6.61099 1524.29 8.07511 1526.33 Q9.53922 1528.37 12.2128 1528.37 M37.5802 1536.71 L21.9523 1525.82 Q21.1248 1529.51 18.9605 1531.97 Q16.7643 1534.42 12.2128 1534.42 Q7.05659 1534.42 4.51031 1531.01 Q1.9322 1527.57 1.9322 1520.67 L1.9322 1506.73 L37.5802 1506.73 L37.5802 1512.61 L22.5253 1512.61 L22.5253 1519.9 L37.5802 1530.41 L37.5802 1536.71 Z" fill="#000000" fill-rule="nonzero" fill-opacity="1" /><path clip-path="url(#clip200)" d="M21.1566 1468.69 L32.9014 1468.69 L32.9014 1460.35 Q32.9014 1456.34 31.4054 1454.24 Q29.8777 1452.14 27.0131 1452.14 Q24.1485 1452.14 22.6526 1454.24 Q21.1566 1456.34 21.1566 1460.35 L21.1566 1468.69 M6.61099 1468.69 L16.4778 1468.69 L16.4778 1460.99 Q16.4778 1457.68 15.1729 1455.58 Q13.8361 1453.48 11.4808 1453.48 Q9.12545 1453.48 7.88414 1455.58 Q6.61099 1457.68 6.61099 1460.99 L6.61099 1468.69 M1.9322 1474.55 L1.9322 1460.61 Q1.9322 1454.34 4.22385 1450.96 Q6.51551 1447.59 10.7487 1447.59 Q14.027 1447.59 15.9686 1449.31 Q17.8783 1451.03 18.3557 1454.4 Q19.1196 1450.36 21.5386 1448.13 Q23.9575 1445.9 27.586 1445.9 Q32.3603 1445.9 34.9702 1449.59 Q37.5802 1453.25 37.5802 1460.06 L37.5802 1474.55 L1.9322 1474.55 Z" fill="#000000" fill-rule="nonzero" fill-opacity="1" /><path clip-path="url(#clip200)" d="M1.9322 1402.23 L1.9322 1396.38 L37.5802 1396.38 L37.5802 1402.23 L1.9322 1402.23 M1.07283 1399.3 L1.07283 1399.3 M27.0131 1413.72 Q24.1485 1413.72 22.6526 1415.82 Q21.1566 1417.89 21.1566 1421.9 L21.1566 1430.24 L32.9014 1430.24 L32.9014 1421.9 Q32.9014 1417.89 31.4054 1415.82 Q29.8777 1413.72 27.0131 1413.72 M1.9322 1436.13 L1.9322 1430.24 L16.4778 1430.24 L16.4778 1421.65 Q16.4778 1414.84 19.0878 1411.18 Q21.6659 1407.48 27.0131 1407.48 Q32.3603 1407.48 34.9702 1411.18 Q37.5802 1414.84 37.5802 1421.65 L37.5802 1436.13 L1.9322 1436.13 Z" fill="#000000" fill-rule="nonzero" fill-opacity="1" /><path clip-path="url(#clip200)" d="M37.5802 1363.85 L22.5889 1363.85 L22.5889 1374.76 Q22.5889 1379.63 19.5652 1382.88 Q16.828 1385.81 10.9715 1385.81 L1.9322 1385.81 L1.9322 1379.95 L10.4304 1379.95 Q14.1544 1379.95 16.0322 1378.3 Q17.9101 1376.61 17.9101 1373.3 L17.9101 1363.85 L1.9322 1363.85 L1.9322 1357.99 L37.5802 1357.99 L37.5802 1363.85 Z" fill="#000000" fill-rule="nonzero" fill-opacity="1" /><path clip-path="url(#clip200)" d="M1.9322 1315.63 L37.5802 1315.63 L37.5802 1321.45 L8.96631 1321.45 L37.5802 1338.64 L37.5802 1346.15 L1.9322 1346.15 L1.9322 1340.33 L30.4824 1340.33 L1.9322 1323.17 L1.9322 1315.63 Z" fill="#000000" fill-rule="nonzero" fill-opacity="1" /><path clip-path="url(#clip200)" d="M3.30083 1277.91 L8.77533 1277.91 Q7.40671 1280.39 6.73831 1282.91 Q6.03808 1285.39 6.03808 1287.94 Q6.03808 1293.63 9.66653 1296.78 Q13.2632 1299.94 19.788 1299.94 Q26.3129 1299.94 29.9413 1296.78 Q33.5379 1293.63 33.5379 1287.94 Q33.5379 1285.39 32.8695 1282.91 Q32.1693 1280.39 30.8007 1277.91 L36.2115 1277.91 Q37.3574 1280.36 37.9303 1283 Q38.5032 1285.61 38.5032 1288.57 Q38.5032 1296.63 33.4424 1301.37 Q28.3817 1306.11 19.788 1306.11 Q11.067 1306.11 6.06991 1301.34 Q1.07283 1296.53 1.07283 1288.19 Q1.07283 1285.49 1.64574 1282.91 Q2.18683 1280.33 3.30083 1277.91 Z" fill="#000000" fill-rule="nonzero" fill-opacity="1" /><path clip-path="url(#clip200)" d="M37.5802 1271.45 L32.7104 1271.45 Q31.8192 1265.66 27.8088 1263.87 Q22.1751 1261.71 7.75682 1261.71 L1.9322 1261.71 L1.9322 1237.62 L37.5802 1237.62 L37.5802 1243.47 L6.61099 1243.47 L6.61099 1255.85 L10.144 1255.85 Q23.8939 1255.85 30.0686 1258.65 Q36.6571 1261.65 37.5802 1271.45 Z" fill="#000000" fill-rule="nonzero" fill-opacity="1" /><path clip-path="url(#clip200)" d="M18.2921 1195.57 L21.1566 1195.57 L21.1566 1222.5 Q27.2041 1222.11 30.3869 1218.87 Q33.5379 1215.59 33.5379 1209.77 Q33.5379 1206.39 32.7104 1203.24 Q31.8829 1200.06 30.2278 1196.94 L35.7659 1196.94 Q37.1027 1200.09 37.803 1203.4 Q38.5032 1206.71 38.5032 1210.12 Q38.5032 1218.65 33.5379 1223.64 Q28.5727 1228.61 20.1063 1228.61 Q11.3534 1228.61 6.22905 1223.9 Q1.07283 1219.15 1.07283 1211.13 Q1.07283 1203.94 5.7198 1199.77 Q10.3349 1195.57 18.2921 1195.57 M16.5733 1201.43 Q11.7672 1201.49 8.90265 1204.13 Q6.03808 1206.74 6.03808 1211.07 Q6.03808 1215.97 8.80716 1218.93 Q11.5762 1221.86 16.6052 1222.31 L16.5733 1201.43 Z" fill="#000000" fill-rule="nonzero" fill-opacity="1" /><path clip-path="url(#clip200)" d="M1.9322 1186.18 L1.9322 1180.29 L16.4778 1180.29 L16.4778 1161.29 L1.9322 1161.29 L1.9322 1155.4 L37.5802 1155.4 L37.5802 1161.29 L21.1566 1161.29 L21.1566 1180.29 L37.5802 1180.29 L37.5802 1186.18 L1.9322 1186.18 Z" fill="#000000" fill-rule="nonzero" fill-opacity="1" /><path clip-path="url(#clip200)" d="M1.9322 1113.04 L37.5802 1113.04 L37.5802 1118.86 L8.96631 1118.86 L37.5802 1136.05 L37.5802 1143.56 L1.9322 1143.56 L1.9322 1137.74 L30.4824 1137.74 L1.9322 1120.58 L1.9322 1113.04 Z" fill="#000000" fill-rule="nonzero" fill-opacity="1" /><path clip-path="url(#clip200)" d="M12.2128 1095.09 Q14.8546 1095.09 16.3505 1093.05 Q17.8465 1091.01 17.8465 1087.23 L17.8465 1079.33 L6.61099 1079.33 L6.61099 1087.23 Q6.61099 1091.01 8.07511 1093.05 Q9.53922 1095.09 12.2128 1095.09 M37.5802 1103.43 L21.9523 1092.54 Q21.1248 1096.23 18.9605 1098.68 Q16.7643 1101.13 12.2128 1101.13 Q7.05659 1101.13 4.51031 1097.73 Q1.9322 1094.29 1.9322 1087.38 L1.9322 1073.44 L37.5802 1073.44 L37.5802 1079.33 L22.5253 1079.33 L22.5253 1086.62 L37.5802 1097.12 L37.5802 1103.43 Z" fill="#000000" fill-rule="nonzero" fill-opacity="1" /><path clip-path="url(#clip200)" d="M29.4957 1060.27 L29.4957 1053.55 L34.9702 1053.55 L45.1553 1058.77 L45.1553 1062.88 L34.9702 1060.27 L29.4957 1060.27 Z" fill="#000000" fill-rule="nonzero" fill-opacity="1" /><path clip-path="url(#clip200)" d="M3.30083 994.668 L8.77533 994.668 Q7.40671 997.151 6.73831 999.665 Q6.03808 1002.15 6.03808 1004.69 Q6.03808 1010.39 9.66653 1013.54 Q13.2632 1016.69 19.788 1016.69 Q26.3129 1016.69 29.9413 1013.54 Q33.5379 1010.39 33.5379 1004.69 Q33.5379 1002.15 32.8695 999.665 Q32.1693 997.151 30.8007 994.668 L36.2115 994.668 Q37.3574 997.119 37.9303 999.761 Q38.5032 1002.37 38.5032 1005.33 Q38.5032 1013.38 33.4424 1018.13 Q28.3817 1022.87 19.788 1022.87 Q11.067 1022.87 6.06991 1018.09 Q1.07283 1013.29 1.07283 1004.95 Q1.07283 1002.24 1.64574 999.665 Q2.18683 997.087 3.30083 994.668 Z" fill="#000000" fill-rule="nonzero" fill-opacity="1" /><path clip-path="url(#clip200)" d="M18.2921 953.991 L21.1566 953.991 L21.1566 980.918 Q27.2041 980.536 30.3869 977.29 Q33.5379 974.011 33.5379 968.187 Q33.5379 964.813 32.7104 961.662 Q31.8829 958.479 30.2278 955.36 L35.7659 955.36 Q37.1027 958.511 37.803 961.821 Q38.5032 965.131 38.5032 968.537 Q38.5032 977.067 33.5379 982.064 Q28.5727 987.029 20.1063 987.029 Q11.3534 987.029 6.22905 982.319 Q1.07283 977.576 1.07283 969.555 Q1.07283 962.362 5.7198 958.192 Q10.3349 953.991 18.2921 953.991 M16.5733 959.848 Q11.7672 959.911 8.90265 962.553 Q6.03808 965.163 6.03808 969.492 Q6.03808 974.393 8.80716 977.353 Q11.5762 980.281 16.6052 980.727 L16.5733 959.848 Z" fill="#000000" fill-rule="nonzero" fill-opacity="1" /><path clip-path="url(#clip200)" d="M1.9322 944.602 L1.9322 938.777 L18.674 938.777 L1.9322 922.258 L1.9322 915.065 L15.714 928.687 L37.5802 913.314 L37.5802 919.871 L19.597 932.507 L25.9627 938.777 L37.5802 938.777 L37.5802 944.602 L1.9322 944.602 Z" fill="#000000" fill-rule="nonzero" fill-opacity="1" /><path clip-path="url(#clip200)" d="M1280.58 11.0023 Q1290.54 11.0023 1296.86 15.2557 Q1303.18 19.4686 1303.18 26.6793 Q1303.18 31.7024 1300.31 35.1862 Q1297.43 38.6294 1292.12 39.9662 Q1298 41.222 1301.28 45.1919 Q1304.6 49.1618 1304.6 54.9951 Q1304.6 64.3122 1297.39 69.0517 Q1290.22 73.7508 1280.58 73.7508 Q1275.64 73.7508 1269.88 72.414 Q1264.13 71.0772 1262.35 69.9429 L1262.35 61.517 Q1268.55 65.1223 1271.95 66.0135 Q1275.39 66.8642 1280.42 66.8642 Q1288.03 66.8642 1292.25 63.9476 Q1296.46 61.0309 1296.46 54.9951 Q1296.46 49.6479 1292.69 46.6502 Q1288.96 43.612 1281.07 43.612 L1272.8 43.612 L1272.8 36.8875 L1281.39 36.8875 Q1288.64 36.8875 1291.84 34.4975 Q1295.04 32.067 1295.04 27.5299 Q1295.04 22.8714 1291.72 20.4004 Q1288.44 17.8888 1280.42 17.8888 Q1274.99 17.8888 1273.13 18.3749 Q1271.26 18.861 1262.96 21.9802 L1262.96 13.9999 Q1267.54 12.3796 1272.32 11.6909 Q1277.1 11.0023 1280.58 11.0023 Z" fill="#000000" fill-rule="nonzero" fill-opacity="1" /><path clip-path="url(#clip200)" d="M1338.51 49.7694 Q1329.47 49.7694 1325.99 51.8354 Q1322.51 53.9013 1322.51 58.8839 Q1322.51 62.8538 1325.1 65.2034 Q1327.73 67.5124 1332.23 67.5124 Q1338.43 67.5124 1342.15 63.1374 Q1345.92 58.7219 1345.92 51.4303 L1345.92 49.7694 L1338.51 49.7694 M1353.37 46.6907 L1353.37 72.576 L1345.92 72.576 L1345.92 65.6895 Q1343.37 69.8214 1339.56 71.8063 Q1335.75 73.7508 1330.24 73.7508 Q1323.28 73.7508 1319.14 69.8619 Q1315.05 65.9325 1315.05 59.3701 Q1315.05 51.7138 1320.16 47.825 Q1325.3 43.9361 1335.47 43.9361 L1345.92 43.9361 L1345.92 43.2069 Q1345.92 38.0623 1342.52 35.2672 Q1339.16 32.4315 1333.04 32.4315 Q1329.15 32.4315 1325.46 33.3632 Q1321.78 34.295 1318.37 36.1584 L1318.37 29.2718 Q1322.47 27.692 1326.31 26.9223 Q1330.16 26.1121 1333.81 26.1121 Q1343.65 26.1121 1348.51 31.2163 Q1353.37 36.3204 1353.37 46.6907 Z" fill="#000000" fill-rule="nonzero" fill-opacity="1" /><path clip-path="url(#clip200)" d="M1375.9 51.6733 L1375.9 66.6212 L1386.51 66.6212 Q1391.61 66.6212 1394.29 64.7172 Q1396.96 62.7728 1396.96 59.127 Q1396.96 55.4812 1394.29 53.5773 Q1391.61 51.6733 1386.51 51.6733 L1375.9 51.6733 M1375.9 33.1607 L1375.9 45.7185 L1385.7 45.7185 Q1389.91 45.7185 1392.59 44.0576 Q1395.26 42.3563 1395.26 39.3586 Q1395.26 36.3609 1392.59 34.7811 Q1389.91 33.1607 1385.7 33.1607 L1375.9 33.1607 M1368.44 27.2059 L1386.19 27.2059 Q1394.17 27.2059 1398.46 30.1225 Q1402.75 33.0392 1402.75 38.4269 Q1402.75 42.5993 1400.57 45.0704 Q1398.38 47.5009 1394.09 48.1085 Q1399.23 49.0808 1402.07 52.1594 Q1404.9 55.2381 1404.9 59.8562 Q1404.9 65.9325 1400.2 69.2543 Q1395.54 72.576 1386.87 72.576 L1368.44 72.576 L1368.44 27.2059 Z" fill="#000000" fill-rule="nonzero" fill-opacity="1" /><path clip-path="url(#clip200)" d="M1456.19 27.2059 L1456.19 72.576 L1448.77 72.576 L1448.77 36.1584 L1426.9 72.576 L1417.34 72.576 L1417.34 27.2059 L1424.75 27.2059 L1424.75 63.5425 L1446.59 27.2059 L1456.19 27.2059 Z" fill="#000000" fill-rule="nonzero" fill-opacity="1" /><path clip-path="url(#clip200)" d="M1504.19 28.9478 L1504.19 35.9153 Q1501.03 34.1734 1497.83 33.3227 Q1494.67 32.4315 1491.43 32.4315 Q1484.18 32.4315 1480.17 37.0496 Q1476.16 41.6271 1476.16 49.9314 Q1476.16 58.2358 1480.17 62.8538 Q1484.18 67.4314 1491.43 67.4314 Q1494.67 67.4314 1497.83 66.5807 Q1501.03 65.6895 1504.19 63.9476 L1504.19 70.8341 Q1501.07 72.2924 1497.71 73.0216 Q1494.39 73.7508 1490.62 73.7508 Q1480.37 73.7508 1474.33 67.3098 Q1468.3 60.8689 1468.3 49.9314 Q1468.3 38.832 1474.37 32.472 Q1480.49 26.1121 1491.1 26.1121 Q1494.55 26.1121 1497.83 26.8413 Q1501.11 27.5299 1504.19 28.9478 Z" fill="#000000" fill-rule="nonzero" fill-opacity="1" /><path clip-path="url(#clip200)" d="M1555.72 27.2059 L1555.72 72.576 L1548.3 72.576 L1548.3 36.1584 L1526.43 72.576 L1516.87 72.576 L1516.87 27.2059 L1524.28 27.2059 L1524.28 63.5425 L1546.12 27.2059 L1555.72 27.2059 Z" fill="#000000" fill-rule="nonzero" fill-opacity="1" /><path clip-path="url(#clip200)" d="M1570.79 27.2059 L1581.68 27.2059 L1594.56 57.5877 L1607.49 27.2059 L1618.3 27.2059 L1618.3 72.576 L1610.81 72.576 L1610.81 34.3355 L1598.29 63.8666 L1590.84 63.8666 L1578.28 34.3355 L1578.28 72.576 L1570.79 72.576 L1570.79 27.2059 Z" fill="#000000" fill-rule="nonzero" fill-opacity="1" /><path clip-path="url(#clip200)" d="M1651.24 32.4315 Q1645.24 32.4315 1641.76 37.1306 Q1638.27 41.7891 1638.27 49.9314 Q1638.27 58.0738 1641.72 62.7728 Q1645.2 67.4314 1651.24 67.4314 Q1657.19 67.4314 1660.68 62.7323 Q1664.16 58.0333 1664.16 49.9314 Q1664.16 41.8701 1660.68 37.1711 Q1657.19 32.4315 1651.24 32.4315 M1651.24 26.1121 Q1660.96 26.1121 1666.51 32.4315 Q1672.06 38.7509 1672.06 49.9314 Q1672.06 61.0714 1666.51 67.4314 Q1660.96 73.7508 1651.24 73.7508 Q1641.47 73.7508 1635.92 67.4314 Q1630.42 61.0714 1630.42 49.9314 Q1630.42 38.7509 1635.92 32.4315 Q1641.47 26.1121 1651.24 26.1121 Z" fill="#000000" fill-rule="nonzero" fill-opacity="1" /><path clip-path="url(#clip200)" d="M1717.06 28.9478 L1717.06 35.9153 Q1713.9 34.1734 1710.7 33.3227 Q1707.54 32.4315 1704.3 32.4315 Q1697.05 32.4315 1693.04 37.0496 Q1689.03 41.6271 1689.03 49.9314 Q1689.03 58.2358 1693.04 62.8538 Q1697.05 67.4314 1704.3 67.4314 Q1707.54 67.4314 1710.7 66.5807 Q1713.9 65.6895 1717.06 63.9476 L1717.06 70.8341 Q1713.94 72.2924 1710.58 73.0216 Q1707.26 73.7508 1703.49 73.7508 Q1693.24 73.7508 1687.21 67.3098 Q1681.17 60.8689 1681.17 49.9314 Q1681.17 38.832 1687.25 32.472 Q1693.37 26.1121 1703.98 26.1121 Q1707.42 26.1121 1710.7 26.8413 Q1713.99 27.5299 1717.06 28.9478 Z" fill="#000000" fill-rule="nonzero" fill-opacity="1" /><path clip-path="url(#clip200)" d="M1724.64 27.2059 L1768.11 27.2059 L1768.11 33.1607 L1750.04 33.1607 L1750.04 72.576 L1742.71 72.576 L1742.71 33.1607 L1724.64 33.1607 L1724.64 27.2059 Z" fill="#000000" fill-rule="nonzero" fill-opacity="1" /><path clip-path="url(#clip200)" d="M1806.59 59.127 Q1806.59 55.4812 1803.92 53.5773 Q1801.28 51.6733 1796.18 51.6733 L1785.56 51.6733 L1785.56 66.6212 L1796.18 66.6212 Q1801.28 66.6212 1803.92 64.7172 Q1806.59 62.7728 1806.59 59.127 M1778.07 27.2059 L1785.56 27.2059 L1785.56 45.7185 L1796.5 45.7185 Q1805.17 45.7185 1809.83 49.0402 Q1814.53 52.3215 1814.53 59.127 Q1814.53 65.9325 1809.83 69.2543 Q1805.17 72.576 1796.5 72.576 L1778.07 72.576 L1778.07 27.2059 Z" fill="#000000" fill-rule="nonzero" fill-opacity="1" /><path clip-path="url(#clip200)" d="M1860.79 51.6733 L1860.79 66.6212 L1871.4 66.6212 Q1876.51 66.6212 1879.18 64.7172 Q1881.85 62.7728 1881.85 59.127 Q1881.85 55.4812 1879.18 53.5773 Q1876.51 51.6733 1871.4 51.6733 L1860.79 51.6733 M1860.79 33.1607 L1860.79 45.7185 L1870.59 45.7185 Q1874.81 45.7185 1877.48 44.0576 Q1880.15 42.3563 1880.15 39.3586 Q1880.15 36.3609 1877.48 34.7811 Q1874.81 33.1607 1870.59 33.1607 L1860.79 33.1607 M1853.34 27.2059 L1871.08 27.2059 Q1879.06 27.2059 1883.35 30.1225 Q1887.65 33.0392 1887.65 38.4269 Q1887.65 42.5993 1885.46 45.0704 Q1883.27 47.5009 1878.98 48.1085 Q1884.12 49.0808 1886.96 52.1594 Q1889.79 55.2381 1889.79 59.8562 Q1889.79 65.9325 1885.1 69.2543 Q1880.44 72.576 1871.77 72.576 L1853.34 72.576 L1853.34 27.2059 Z" fill="#000000" fill-rule="nonzero" fill-opacity="1" /><path clip-path="url(#clip200)" d="M1909.72 65.7705 L1909.72 89.8329 L1902.23 89.8329 L1902.23 27.2059 L1909.72 27.2059 L1909.72 34.0924 Q1912.07 30.0415 1915.64 28.0971 Q1919.24 26.1121 1924.23 26.1121 Q1932.49 26.1121 1937.64 32.6746 Q1942.82 39.2371 1942.82 49.9314 Q1942.82 60.6258 1937.64 67.1883 Q1932.49 73.7508 1924.23 73.7508 Q1919.24 73.7508 1915.64 71.8063 Q1912.07 69.8214 1909.72 65.7705 M1935.08 49.9314 Q1935.08 41.7081 1931.68 37.0496 Q1928.32 32.3505 1922.4 32.3505 Q1916.49 32.3505 1913.09 37.0496 Q1909.72 41.7081 1909.72 49.9314 Q1909.72 58.1548 1913.09 62.8538 Q1916.49 67.5124 1922.4 67.5124 Q1928.32 67.5124 1931.68 62.8538 Q1935.08 58.1548 1935.08 49.9314 Z" fill="#000000" fill-rule="nonzero" fill-opacity="1" /><path clip-path="url(#clip200)" d="M1993.98 48.0275 L1993.98 51.6733 L1959.71 51.6733 Q1960.2 59.3701 1964.33 63.421 Q1968.5 67.4314 1975.92 67.4314 Q1980.21 67.4314 1984.22 66.3781 Q1988.27 65.3249 1992.24 63.2184 L1992.24 70.267 Q1988.23 71.9684 1984.02 72.8596 Q1979.81 73.7508 1975.47 73.7508 Q1964.61 73.7508 1958.25 67.4314 Q1951.94 61.1119 1951.94 50.3365 Q1951.94 39.1965 1957.93 32.6746 Q1963.97 26.1121 1974.17 26.1121 Q1983.33 26.1121 1988.64 32.0264 Q1993.98 37.9003 1993.98 48.0275 M1986.53 45.84 Q1986.45 39.7232 1983.09 36.0774 Q1979.77 32.4315 1974.26 32.4315 Q1968.02 32.4315 1964.25 35.9558 Q1960.52 39.4801 1959.96 45.8805 L1986.53 45.84 Z" fill="#000000" fill-rule="nonzero" fill-opacity="1" /><path clip-path="url(#clip200)" d="M2005.93 27.2059 L2016.83 27.2059 L2029.71 57.5877 L2042.64 27.2059 L2053.45 27.2059 L2053.45 72.576 L2045.96 72.576 L2045.96 34.3355 L2033.44 63.8666 L2025.99 63.8666 L2013.43 34.3355 L2013.43 72.576 L2005.93 72.576 L2005.93 27.2059 Z" fill="#000000" fill-rule="nonzero" fill-opacity="1" /><path clip-path="url(#clip200)" d="M2107.61 48.0275 L2107.61 51.6733 L2073.34 51.6733 Q2073.83 59.3701 2077.96 63.421 Q2082.13 67.4314 2089.54 67.4314 Q2093.84 67.4314 2097.85 66.3781 Q2101.9 65.3249 2105.87 63.2184 L2105.87 70.267 Q2101.86 71.9684 2097.65 72.8596 Q2093.43 73.7508 2089.1 73.7508 Q2078.24 73.7508 2071.88 67.4314 Q2065.56 61.1119 2065.56 50.3365 Q2065.56 39.1965 2071.56 32.6746 Q2077.59 26.1121 2087.8 26.1121 Q2096.96 26.1121 2102.26 32.0264 Q2107.61 37.9003 2107.61 48.0275 M2100.16 45.84 Q2100.08 39.7232 2096.71 36.0774 Q2093.39 32.4315 2087.88 32.4315 Q2081.65 32.4315 2077.88 35.9558 Q2074.15 39.4801 2073.58 45.8805 L2100.16 45.84 Z" fill="#000000" fill-rule="nonzero" fill-opacity="1" /><path clip-path="url(#clip200)" d="M2119.56 27.2059 L2127.06 27.2059 L2127.06 45.7185 L2151.24 45.7185 L2151.24 27.2059 L2158.73 27.2059 L2158.73 72.576 L2151.24 72.576 L2151.24 51.6733 L2127.06 51.6733 L2127.06 72.576 L2119.56 72.576 L2119.56 27.2059 Z" fill="#000000" fill-rule="nonzero" fill-opacity="1" /><path clip-path="url(#clip200)" d="M2212.65 27.2059 L2212.65 72.576 L2205.24 72.576 L2205.24 36.1584 L2183.36 72.576 L2173.8 72.576 L2173.8 27.2059 L2181.22 27.2059 L2181.22 63.5425 L2203.05 27.2059 L2212.65 27.2059 Z" fill="#000000" fill-rule="nonzero" fill-opacity="1" /><path clip-path="url(#clip200)" d="M2261.55 51.6733 L2261.55 66.6212 L2272.16 66.6212 Q2277.26 66.6212 2279.94 64.7172 Q2282.61 62.7728 2282.61 59.127 Q2282.61 55.4812 2279.94 53.5773 Q2277.26 51.6733 2272.16 51.6733 L2261.55 51.6733 M2261.55 33.1607 L2261.55 45.7185 L2271.35 45.7185 Q2275.56 45.7185 2278.24 44.0576 Q2280.91 42.3563 2280.91 39.3586 Q2280.91 36.3609 2278.24 34.7811 Q2275.56 33.1607 2271.35 33.1607 L2261.55 33.1607 M2254.09 27.2059 L2271.84 27.2059 Q2279.82 27.2059 2284.11 30.1225 Q2288.4 33.0392 2288.4 38.4269 Q2288.4 42.5993 2286.22 45.0704 Q2284.03 47.5009 2279.73 48.1085 Q2284.88 49.0808 2287.71 52.1594 Q2290.55 55.2381 2290.55 59.8562 Q2290.55 65.9325 2285.85 69.2543 Q2281.19 72.576 2272.52 72.576 L2254.09 72.576 L2254.09 27.2059 Z" fill="#000000" fill-rule="nonzero" fill-opacity="1" /><path clip-path="url(#clip200)" d="M2346.13 27.2059 L2353.58 27.2059 L2353.58 72.576 L2346.13 72.576 L2346.13 27.2059 M2349.86 26.1121 L2349.86 26.1121 M2331.51 59.127 Q2331.51 55.4812 2328.83 53.5773 Q2326.2 51.6733 2321.09 51.6733 L2310.48 51.6733 L2310.48 66.6212 L2321.09 66.6212 Q2326.2 66.6212 2328.83 64.7172 Q2331.51 62.7728 2331.51 59.127 M2302.99 27.2059 L2310.48 27.2059 L2310.48 45.7185 L2321.42 45.7185 Q2330.09 45.7185 2334.75 49.0402 Q2339.44 52.3215 2339.44 59.127 Q2339.44 65.9325 2334.75 69.2543 Q2330.09 72.576 2321.42 72.576 L2302.99 72.576 L2302.99 27.2059 Z" fill="#000000" fill-rule="nonzero" fill-opacity="1" /><path clip-path="url(#clip200)" d="M2394.98 72.576 L2394.98 53.4962 L2381.09 53.4962 Q2374.89 53.4962 2370.76 49.6479 Q2367.03 46.1641 2367.03 38.7104 L2367.03 27.2059 L2374.49 27.2059 L2374.49 38.0218 Q2374.49 42.7613 2376.59 45.1514 Q2378.74 47.5414 2382.95 47.5414 L2394.98 47.5414 L2394.98 27.2059 L2402.44 27.2059 L2402.44 72.576 L2394.98 72.576 Z" fill="#000000" fill-rule="nonzero" fill-opacity="1" /><path clip-path="url(#clip200)" d="M2456.35 27.2059 L2456.35 72.576 L2448.94 72.576 L2448.94 36.1584 L2427.07 72.576 L2417.51 72.576 L2417.51 27.2059 L2424.92 27.2059 L2424.92 63.5425 L2446.75 27.2059 L2456.35 27.2059 Z" fill="#000000" fill-rule="nonzero" fill-opacity="1" /><path clip-path="url(#clip200)" d="M2504.36 28.9478 L2504.36 35.9153 Q2501.2 34.1734 2498 33.3227 Q2494.84 32.4315 2491.6 32.4315 Q2484.35 32.4315 2480.34 37.0496 Q2476.32 41.6271 2476.32 49.9314 Q2476.32 58.2358 2480.34 62.8538 Q2484.35 67.4314 2491.6 67.4314 Q2494.84 67.4314 2498 66.5807 Q2501.2 65.6895 2504.36 63.9476 L2504.36 70.8341 Q2501.24 72.2924 2497.88 73.0216 Q2494.55 73.7508 2490.79 73.7508 Q2480.54 73.7508 2474.5 67.3098 Q2468.47 60.8689 2468.47 49.9314 Q2468.47 38.832 2474.54 32.472 Q2480.66 26.1121 2491.27 26.1121 Q2494.72 26.1121 2498 26.8413 Q2501.28 27.5299 2504.36 28.9478 Z" fill="#000000" fill-rule="nonzero" fill-opacity="1" /><path clip-path="url(#clip200)" d="M2512.58 72.576 L2512.58 66.3781 Q2519.95 65.2439 2522.22 60.1397 Q2524.98 52.9696 2524.98 34.619 L2524.98 27.2059 L2555.64 27.2059 L2555.64 72.576 L2548.19 72.576 L2548.19 33.1607 L2532.43 33.1607 L2532.43 37.6572 Q2532.43 55.1571 2528.87 63.0159 Q2525.06 71.4012 2512.58 72.576 Z" fill="#000000" fill-rule="nonzero" fill-opacity="1" /><path clip-path="url(#clip200)" d="M2609.15 48.0275 L2609.15 51.6733 L2574.88 51.6733 Q2575.37 59.3701 2579.5 63.421 Q2583.67 67.4314 2591.09 67.4314 Q2595.38 67.4314 2599.39 66.3781 Q2603.44 65.3249 2607.41 63.2184 L2607.41 70.267 Q2603.4 71.9684 2599.19 72.8596 Q2594.98 73.7508 2590.64 73.7508 Q2579.79 73.7508 2573.43 67.4314 Q2567.11 61.1119 2567.11 50.3365 Q2567.11 39.1965 2573.1 32.6746 Q2579.14 26.1121 2589.35 26.1121 Q2598.5 26.1121 2603.81 32.0264 Q2609.15 37.9003 2609.15 48.0275 M2601.7 45.84 Q2601.62 39.7232 2598.26 36.0774 Q2594.94 32.4315 2589.43 32.4315 Q2583.19 32.4315 2579.42 35.9558 Q2575.69 39.4801 2575.13 45.8805 L2601.7 45.84 Z" fill="#000000" fill-rule="nonzero" fill-opacity="1" /><path clip-path="url(#clip200)" d="M2621.1 27.2059 L2628.6 27.2059 L2628.6 45.7185 L2652.78 45.7185 L2652.78 27.2059 L2660.28 27.2059 L2660.28 72.576 L2652.78 72.576 L2652.78 51.6733 L2628.6 51.6733 L2628.6 72.576 L2621.1 72.576 L2621.1 27.2059 Z" fill="#000000" fill-rule="nonzero" fill-opacity="1" /><path clip-path="url(#clip200)" d="M2714.19 27.2059 L2714.19 72.576 L2706.78 72.576 L2706.78 36.1584 L2684.91 72.576 L2675.35 72.576 L2675.35 27.2059 L2682.76 27.2059 L2682.76 63.5425 L2704.59 27.2059 L2714.19 27.2059 Z" fill="#000000" fill-rule="nonzero" fill-opacity="1" /><path clip-path="url(#clip200)" d="M2737.04 40.2903 Q2737.04 43.6525 2739.63 45.5565 Q2742.23 47.4604 2747.05 47.4604 L2757.09 47.4604 L2757.09 33.1607 L2747.05 33.1607 Q2742.23 33.1607 2739.63 35.0241 Q2737.04 36.8875 2737.04 40.2903 M2726.43 72.576 L2740.28 52.6861 Q2735.58 51.6328 2732.46 48.8782 Q2729.34 46.0831 2729.34 40.2903 Q2729.34 33.7278 2733.68 30.4871 Q2738.05 27.2059 2746.84 27.2059 L2764.59 27.2059 L2764.59 72.576 L2757.09 72.576 L2757.09 53.4152 L2747.82 53.4152 L2734.45 72.576 L2726.43 72.576 Z" fill="#000000" fill-rule="nonzero" fill-opacity="1" /><path clip-path="url(#clip200)" d="M2823.41 32.4315 Q2817.41 32.4315 2813.93 37.1306 Q2810.44 41.7891 2810.44 49.9314 Q2810.44 58.0738 2813.89 62.7728 Q2817.37 67.4314 2823.41 67.4314 Q2829.36 67.4314 2832.85 62.7323 Q2836.33 58.0333 2836.33 49.9314 Q2836.33 41.8701 2832.85 37.1711 Q2829.36 32.4315 2823.41 32.4315 M2823.41 26.1121 Q2833.13 26.1121 2838.68 32.4315 Q2844.23 38.7509 2844.23 49.9314 Q2844.23 61.0714 2838.68 67.4314 Q2833.13 73.7508 2823.41 73.7508 Q2813.64 73.7508 2808.09 67.4314 Q2802.58 61.0714 2802.58 49.9314 Q2802.58 38.7509 2808.09 32.4315 Q2813.64 26.1121 2823.41 26.1121 Z" fill="#000000" fill-rule="nonzero" fill-opacity="1" /><path clip-path="url(#clip200)" d="M2851.2 27.2059 L2894.66 27.2059 L2894.66 33.1607 L2876.59 33.1607 L2876.59 72.576 L2869.26 72.576 L2869.26 33.1607 L2851.2 33.1607 L2851.2 27.2059 Z" fill="#000000" fill-rule="nonzero" fill-opacity="1" /><path clip-path="url(#clip200)" d="M2957.73 51.4708 L2955.95 42.1132 Q2954.13 32.5126 2946.92 32.5126 Q2941.49 32.5126 2939.02 36.9686 Q2935.9 42.5588 2935.9 49.9314 Q2935.9 58.8434 2938.94 63.0969 Q2942.02 67.4314 2946.92 67.4314 Q2952.35 67.4314 2955.26 58.8029 L2957.73 51.4708 M2961.91 39.075 L2965.92 27.2059 L2972.56 27.2059 L2964.26 51.7949 L2965.88 60.6663 Q2966.24 62.6513 2967.66 64.3122 Q2969.32 66.2566 2970.62 66.2566 L2974.18 66.2566 L2974.18 72.576 L2969.73 72.576 Q2965.92 72.576 2962.51 69.1732 Q2960.85 67.4719 2960.16 63.9071 Q2958.3 68.4036 2954.49 71.9279 Q2952.71 73.5887 2946.92 73.5887 Q2937.4 73.5887 2932.78 67.4314 Q2928.04 61.0714 2928.04 49.9314 Q2928.04 38.0218 2933.19 32.4315 Q2938.9 26.1931 2946.92 26.1931 Q2959.52 26.1931 2961.91 39.075 Z" fill="#000000" fill-rule="nonzero" fill-opacity="1" /><circle clip-path="url(#clip202)" cx="538.558" cy="2429.13" r="28.8" fill="#008000" fill-rule="evenodd" fill-opacity="1" stroke="#000000" stroke-opacity="1" stroke-width="5.376"/>
<circle clip-path="url(#clip202)" cx="1240.65" cy="1116.18" r="28.8" fill="#008000" fill-rule="evenodd" fill-opacity="1" stroke="#000000" stroke-opacity="1" stroke-width="5.376"/>
<circle clip-path="url(#clip202)" cx="1942.74" cy="1187.15" r="28.8" fill="#008000" fill-rule="evenodd" fill-opacity="1" stroke="#000000" stroke-opacity="1" stroke-width="5.376"/>
<circle clip-path="url(#clip202)" cx="2995.88" cy="370.989" r="28.8" fill="#008000" fill-rule="evenodd" fill-opacity="1" stroke="#000000" stroke-opacity="1" stroke-width="5.376"/>
<circle clip-path="url(#clip202)" cx="3697.97" cy="193.563" r="28.8" fill="#008000" fill-rule="evenodd" fill-opacity="1" stroke="#000000" stroke-opacity="1" stroke-width="5.376"/>
<path clip-path="url(#clip200)" d="M555.408 309.166 L1352.8 309.166 L1352.8 205.486 L555.408 205.486  Z" fill="#ffffff" fill-rule="evenodd" fill-opacity="1"/>
<polyline clip-path="url(#clip200)" style="stroke:#000000; stroke-linecap:round; stroke-linejoin:round; stroke-width:4; stroke-opacity:1; fill:none" points="555.408,309.166 1352.8,309.166 1352.8,205.486 555.408,205.486 555.408,309.166 "/>
<circle clip-path="url(#clip200)" cx="704.251" cy="257.326" r="21.6847" fill="#008000" fill-rule="evenodd" fill-opacity="1" stroke="#000000" stroke-opacity="1" stroke-width="4.04781"/>
<path clip-path="url(#clip200)" d="M857.771 258.102 L857.771 270.764 L865.271 270.764 Q869.044 270.764 870.85 269.213 Q872.678 267.639 872.678 264.421 Q872.678 261.18 870.85 259.652 Q869.044 258.102 865.271 258.102 L857.771 258.102 M857.771 243.889 L857.771 254.305 L864.692 254.305 Q868.118 254.305 869.785 253.032 Q871.475 251.736 871.475 249.097 Q871.475 246.481 869.785 245.185 Q868.118 243.889 864.692 243.889 L857.771 243.889 M853.095 240.046 L865.039 240.046 Q870.387 240.046 873.28 242.268 Q876.174 244.491 876.174 248.588 Q876.174 251.759 874.692 253.634 Q873.211 255.509 870.34 255.972 Q873.789 256.713 875.687 259.074 Q877.609 261.412 877.609 264.93 Q877.609 269.56 874.461 272.083 Q871.312 274.606 865.502 274.606 L853.095 274.606 L853.095 240.046 Z" fill="#000000" fill-rule="nonzero" fill-opacity="1" /><path clip-path="url(#clip200)" d="M889.553 270.717 L889.553 284.467 L885.271 284.467 L885.271 248.68 L889.553 248.68 L889.553 252.615 Q890.896 250.301 892.933 249.19 Q894.993 248.055 897.84 248.055 Q902.562 248.055 905.502 251.805 Q908.465 255.555 908.465 261.666 Q908.465 267.777 905.502 271.527 Q902.562 275.277 897.84 275.277 Q894.993 275.277 892.933 274.166 Q890.896 273.032 889.553 270.717 M904.044 261.666 Q904.044 256.967 902.099 254.305 Q900.178 251.62 896.798 251.62 Q893.419 251.62 891.474 254.305 Q889.553 256.967 889.553 261.666 Q889.553 266.365 891.474 269.051 Q893.419 271.713 896.798 271.713 Q900.178 271.713 902.099 269.051 Q904.044 266.365 904.044 261.666 Z" fill="#000000" fill-rule="nonzero" fill-opacity="1" /><path clip-path="url(#clip200)" d="M937.701 260.578 L937.701 262.662 L918.118 262.662 Q918.396 267.06 920.757 269.375 Q923.141 271.666 927.377 271.666 Q929.831 271.666 932.122 271.064 Q934.437 270.463 936.706 269.259 L936.706 273.287 Q934.414 274.259 932.007 274.768 Q929.599 275.277 927.122 275.277 Q920.919 275.277 917.284 271.666 Q913.673 268.055 913.673 261.898 Q913.673 255.532 917.099 251.805 Q920.548 248.055 926.382 248.055 Q931.613 248.055 934.645 251.435 Q937.701 254.791 937.701 260.578 M933.442 259.328 Q933.395 255.833 931.474 253.75 Q929.576 251.666 926.428 251.666 Q922.863 251.666 920.71 253.68 Q918.581 255.694 918.257 259.352 L933.442 259.328 Z" fill="#000000" fill-rule="nonzero" fill-opacity="1" /><path clip-path="url(#clip200)" d="M944.53 248.68 L950.757 248.68 L958.118 266.041 L965.502 248.68 L971.682 248.68 L971.682 274.606 L967.4 274.606 L967.4 252.754 L960.247 269.629 L955.988 269.629 L948.812 252.754 L948.812 274.606 L944.53 274.606 L944.53 248.68 Z" fill="#000000" fill-rule="nonzero" fill-opacity="1" /><path clip-path="url(#clip200)" d="M984.738 256.157 Q984.738 258.078 986.219 259.166 Q987.701 260.254 990.455 260.254 L996.196 260.254 L996.196 252.083 L990.455 252.083 Q987.701 252.083 986.219 253.148 Q984.738 254.213 984.738 256.157 M978.673 274.606 L986.59 263.24 Q983.904 262.639 982.122 261.065 Q980.34 259.467 980.34 256.157 Q980.34 252.407 982.817 250.555 Q985.317 248.68 990.34 248.68 L1000.48 248.68 L1000.48 274.606 L996.196 274.606 L996.196 263.657 L990.895 263.657 L983.256 274.606 L978.673 274.606 Z" fill="#000000" fill-rule="nonzero" fill-opacity="1" /><path clip-path="url(#clip200)" d="M1028.14 262.662 L1028.14 271.203 L1034.21 271.203 Q1037.12 271.203 1038.65 270.115 Q1040.18 269.004 1040.18 266.921 Q1040.18 264.838 1038.65 263.75 Q1037.12 262.662 1034.21 262.662 L1028.14 262.662 M1028.14 252.083 L1028.14 259.259 L1033.74 259.259 Q1036.15 259.259 1037.68 258.31 Q1039.21 257.338 1039.21 255.625 Q1039.21 253.912 1037.68 253.009 Q1036.15 252.083 1033.74 252.083 L1028.14 252.083 M1023.88 248.68 L1034.02 248.68 Q1038.58 248.68 1041.03 250.347 Q1043.49 252.014 1043.49 255.092 Q1043.49 257.477 1042.24 258.889 Q1040.99 260.277 1038.53 260.625 Q1041.47 261.18 1043.09 262.94 Q1044.71 264.699 1044.71 267.338 Q1044.71 270.81 1042.03 272.708 Q1039.37 274.606 1034.41 274.606 L1023.88 274.606 L1023.88 248.68 Z" fill="#000000" fill-rule="nonzero" fill-opacity="1" /><path clip-path="url(#clip200)" d="M1076.47 248.68 L1080.73 248.68 L1080.73 274.606 L1076.47 274.606 L1076.47 248.68 M1078.6 248.055 L1078.6 248.055 M1068.12 266.921 Q1068.12 264.838 1066.59 263.75 Q1065.08 262.662 1062.17 262.662 L1056.1 262.662 L1056.1 271.203 L1062.17 271.203 Q1065.08 271.203 1066.59 270.115 Q1068.12 269.004 1068.12 266.921 M1051.82 248.68 L1056.1 248.68 L1056.1 259.259 L1062.35 259.259 Q1067.31 259.259 1069.97 261.157 Q1072.65 263.032 1072.65 266.921 Q1072.65 270.81 1069.97 272.708 Q1067.31 274.606 1062.35 274.606 L1051.82 274.606 L1051.82 248.68 Z" fill="#000000" fill-rule="nonzero" fill-opacity="1" /><path clip-path="url(#clip200)" d="M1104.39 274.606 L1104.39 263.703 L1096.45 263.703 Q1092.91 263.703 1090.55 261.504 Q1088.42 259.514 1088.42 255.254 L1088.42 248.68 L1092.68 248.68 L1092.68 254.861 Q1092.68 257.569 1093.88 258.935 Q1095.11 260.301 1097.51 260.301 L1104.39 260.301 L1104.39 248.68 L1108.65 248.68 L1108.65 274.606 L1104.39 274.606 Z" fill="#000000" fill-rule="nonzero" fill-opacity="1" /><path clip-path="url(#clip200)" d="M1139.46 248.68 L1139.46 274.606 L1135.22 274.606 L1135.22 253.796 L1122.72 274.606 L1117.26 274.606 L1117.26 248.68 L1121.5 248.68 L1121.5 269.444 L1133.97 248.68 L1139.46 248.68 Z" fill="#000000" fill-rule="nonzero" fill-opacity="1" /><path clip-path="url(#clip200)" d="M1166.89 249.676 L1166.89 253.657 Q1165.08 252.662 1163.26 252.176 Q1161.45 251.666 1159.6 251.666 Q1155.45 251.666 1153.16 254.305 Q1150.87 256.921 1150.87 261.666 Q1150.87 266.412 1153.16 269.051 Q1155.45 271.666 1159.6 271.666 Q1161.45 271.666 1163.26 271.18 Q1165.08 270.671 1166.89 269.676 L1166.89 273.611 Q1165.11 274.444 1163.19 274.861 Q1161.29 275.277 1159.14 275.277 Q1153.28 275.277 1149.83 271.597 Q1146.38 267.916 1146.38 261.666 Q1146.38 255.324 1149.85 251.69 Q1153.35 248.055 1159.41 248.055 Q1161.38 248.055 1163.26 248.472 Q1165.13 248.866 1166.89 249.676 Z" fill="#000000" fill-rule="nonzero" fill-opacity="1" /><path clip-path="url(#clip200)" d="M1171.59 274.606 L1171.59 271.064 Q1175.8 270.416 1177.1 267.5 Q1178.67 263.402 1178.67 252.916 L1178.67 248.68 L1196.2 248.68 L1196.2 274.606 L1191.94 274.606 L1191.94 252.083 L1182.93 252.083 L1182.93 254.653 Q1182.93 264.652 1180.89 269.143 Q1178.72 273.935 1171.59 274.606 Z" fill="#000000" fill-rule="nonzero" fill-opacity="1" /><path clip-path="url(#clip200)" d="M1226.77 260.578 L1226.77 262.662 L1207.19 262.662 Q1207.47 267.06 1209.83 269.375 Q1212.21 271.666 1216.45 271.666 Q1218.9 271.666 1221.19 271.064 Q1223.51 270.463 1225.78 269.259 L1225.78 273.287 Q1223.49 274.259 1221.08 274.768 Q1218.67 275.277 1216.19 275.277 Q1209.99 275.277 1206.36 271.666 Q1202.75 268.055 1202.75 261.898 Q1202.75 255.532 1206.17 251.805 Q1209.62 248.055 1215.45 248.055 Q1220.69 248.055 1223.72 251.435 Q1226.77 254.791 1226.77 260.578 M1222.51 259.328 Q1222.47 255.833 1220.55 253.75 Q1218.65 251.666 1215.5 251.666 Q1211.94 251.666 1209.78 253.68 Q1207.65 255.694 1207.33 259.352 L1222.51 259.328 Z" fill="#000000" fill-rule="nonzero" fill-opacity="1" /><path clip-path="url(#clip200)" d="M1233.6 248.68 L1237.88 248.68 L1237.88 259.259 L1251.7 259.259 L1251.7 248.68 L1255.99 248.68 L1255.99 274.606 L1251.7 274.606 L1251.7 262.662 L1237.88 262.662 L1237.88 274.606 L1233.6 274.606 L1233.6 248.68 Z" fill="#000000" fill-rule="nonzero" fill-opacity="1" /><path clip-path="url(#clip200)" d="M1286.8 248.68 L1286.8 274.606 L1282.56 274.606 L1282.56 253.796 L1270.06 274.606 L1264.6 274.606 L1264.6 248.68 L1268.83 248.68 L1268.83 269.444 L1281.31 248.68 L1286.8 248.68 Z" fill="#000000" fill-rule="nonzero" fill-opacity="1" /><path clip-path="url(#clip200)" d="M1299.85 256.157 Q1299.85 258.078 1301.33 259.166 Q1302.81 260.254 1305.57 260.254 L1311.31 260.254 L1311.31 252.083 L1305.57 252.083 Q1302.81 252.083 1301.33 253.148 Q1299.85 254.213 1299.85 256.157 M1293.79 274.606 L1301.7 263.24 Q1299.02 262.639 1297.24 261.065 Q1295.45 259.467 1295.45 256.157 Q1295.45 252.407 1297.93 250.555 Q1300.43 248.68 1305.45 248.68 L1315.59 248.68 L1315.59 274.606 L1311.31 274.606 L1311.31 263.657 L1306.01 263.657 L1298.37 274.606 L1293.79 274.606 Z" fill="#000000" fill-rule="nonzero" fill-opacity="1" /></svg>
