<?xml version="1.0" encoding="utf-8"?>
<svg xmlns="http://www.w3.org/2000/svg" xmlns:xlink="http://www.w3.org/1999/xlink" width="960" height="672" viewBox="0 0 3840 2688">
<defs>
  <clipPath id="clip700">
    <rect x="0" y="0" width="3840" height="2688"/>
  </clipPath>
</defs>
<path clip-path="url(#clip700)" d="M0 2688 L3840 2688 L3840 0 L0 0  Z" fill="#ffffff" fill-rule="evenodd" fill-opacity="1"/>
<defs>
  <clipPath id="clip701">
    <rect x="768" y="0" width="2689" height="2688"/>
  </clipPath>
</defs>
<path clip-path="url(#clip700)" d="M220.74 2496.2 L3792.76 2496.2 L3792.76 126.496 L220.74 126.496  Z" fill="#ffffff" fill-rule="evenodd" fill-opacity="1"/>
<defs>
  <clipPath id="clip702">
    <rect x="220" y="126" width="3573" height="2371"/>
  </clipPath>
</defs>
<polyline clip-path="url(#clip702)" style="stroke:#000000; stroke-linecap:round; stroke-linejoin:round; stroke-width:2; stroke-opacity:0.1; fill:none" points="321.834,2496.2 321.834,126.496 "/>
<polyline clip-path="url(#clip702)" style="stroke:#000000; stroke-linecap:round; stroke-linejoin:round; stroke-width:2; stroke-opacity:0.1; fill:none" points="1164.29,2496.2 1164.29,126.496 "/>
<polyline clip-path="url(#clip702)" style="stroke:#000000; stroke-linecap:round; stroke-linejoin:round; stroke-width:2; stroke-opacity:0.1; fill:none" points="2006.75,2496.2 2006.75,126.496 "/>
<polyline clip-path="url(#clip702)" style="stroke:#000000; stroke-linecap:round; stroke-linejoin:round; stroke-width:2; stroke-opacity:0.1; fill:none" points="2849.2,2496.2 2849.2,126.496 "/>
<polyline clip-path="url(#clip702)" style="stroke:#000000; stroke-linecap:round; stroke-linejoin:round; stroke-width:2; stroke-opacity:0.1; fill:none" points="3691.66,2496.2 3691.66,126.496 "/>
<polyline clip-path="url(#clip702)" style="stroke:#000000; stroke-linecap:round; stroke-linejoin:round; stroke-width:2; stroke-opacity:0.1; fill:none" points="220.74,1960.59 3792.76,1960.59 "/>
<polyline clip-path="url(#clip702)" style="stroke:#000000; stroke-linecap:round; stroke-linejoin:round; stroke-width:2; stroke-opacity:0.1; fill:none" points="220.74,1374.92 3792.76,1374.92 "/>
<polyline clip-path="url(#clip702)" style="stroke:#000000; stroke-linecap:round; stroke-linejoin:round; stroke-width:2; stroke-opacity:0.1; fill:none" points="220.74,789.245 3792.76,789.245 "/>
<polyline clip-path="url(#clip702)" style="stroke:#000000; stroke-linecap:round; stroke-linejoin:round; stroke-width:2; stroke-opacity:0.1; fill:none" points="220.74,203.572 3792.76,203.572 "/>
<polyline clip-path="url(#clip700)" style="stroke:#000000; stroke-linecap:round; stroke-linejoin:round; stroke-width:4; stroke-opacity:1; fill:none" points="220.74,2496.2 3792.76,2496.2 "/>
<polyline clip-path="url(#clip700)" style="stroke:#000000; stroke-linecap:round; stroke-linejoin:round; stroke-width:4; stroke-opacity:1; fill:none" points="321.834,2496.2 321.834,2477.3 "/>
<polyline clip-path="url(#clip700)" style="stroke:#000000; stroke-linecap:round; stroke-linejoin:round; stroke-width:4; stroke-opacity:1; fill:none" points="1164.29,2496.2 1164.29,2477.3 "/>
<polyline clip-path="url(#clip700)" style="stroke:#000000; stroke-linecap:round; stroke-linejoin:round; stroke-width:4; stroke-opacity:1; fill:none" points="2006.75,2496.2 2006.75,2477.3 "/>
<polyline clip-path="url(#clip700)" style="stroke:#000000; stroke-linecap:round; stroke-linejoin:round; stroke-width:4; stroke-opacity:1; fill:none" points="2849.2,2496.2 2849.2,2477.3 "/>
<polyline clip-path="url(#clip700)" style="stroke:#000000; stroke-linecap:round; stroke-linejoin:round; stroke-width:4; stroke-opacity:1; fill:none" points="3691.66,2496.2 3691.66,2477.3 "/>
<path clip-path="url(#clip700)" d="M299.219 2538.63 Q295.608 2538.63 293.779 2542.2 Q291.973 2545.74 291.973 2552.87 Q291.973 2559.98 293.779 2563.54 Q295.608 2567.08 299.219 2567.08 Q302.853 2567.08 304.659 2563.54 Q306.487 2559.98 306.487 2552.87 Q306.487 2545.74 304.659 2542.2 Q302.853 2538.63 299.219 2538.63 M299.219 2534.93 Q305.029 2534.93 308.084 2539.54 Q311.163 2544.12 311.163 2552.87 Q311.163 2561.6 308.084 2566.2 Q305.029 2570.79 299.219 2570.79 Q293.409 2570.79 290.33 2566.2 Q287.274 2561.6 287.274 2552.87 Q287.274 2544.12 290.33 2539.54 Q293.409 2534.93 299.219 2534.93 Z" fill="#000000" fill-rule="nonzero" fill-opacity="1" /><path clip-path="url(#clip700)" d="M319.381 2564.24 L324.265 2564.24 L324.265 2570.12 L319.381 2570.12 L319.381 2564.24 Z" fill="#000000" fill-rule="nonzero" fill-opacity="1" /><path clip-path="url(#clip700)" d="M344.45 2538.63 Q340.839 2538.63 339.01 2542.2 Q337.205 2545.74 337.205 2552.87 Q337.205 2559.98 339.01 2563.54 Q340.839 2567.08 344.45 2567.08 Q348.084 2567.08 349.89 2563.54 Q351.718 2559.98 351.718 2552.87 Q351.718 2545.74 349.89 2542.2 Q348.084 2538.63 344.45 2538.63 M344.45 2534.93 Q350.26 2534.93 353.316 2539.54 Q356.394 2544.12 356.394 2552.87 Q356.394 2561.6 353.316 2566.2 Q350.26 2570.79 344.45 2570.79 Q338.64 2570.79 335.561 2566.2 Q332.506 2561.6 332.506 2552.87 Q332.506 2544.12 335.561 2539.54 Q338.64 2534.93 344.45 2534.93 Z" fill="#000000" fill-rule="nonzero" fill-opacity="1" /><path clip-path="url(#clip700)" d="M1136.03 2566.18 L1152.35 2566.18 L1152.35 2570.12 L1130.4 2570.12 L1130.4 2566.18 Q1133.06 2563.43 1137.65 2558.8 Q1142.25 2554.14 1143.43 2552.8 Q1145.68 2550.28 1146.56 2548.54 Q1147.46 2546.78 1147.46 2545.09 Q1147.46 2542.34 1145.52 2540.6 Q1143.6 2538.87 1140.49 2538.87 Q1138.3 2538.87 1135.84 2539.63 Q1133.41 2540.39 1130.63 2541.94 L1130.63 2537.22 Q1133.46 2536.09 1135.91 2535.51 Q1138.37 2534.93 1140.4 2534.93 Q1145.77 2534.93 1148.97 2537.62 Q1152.16 2540.3 1152.16 2544.79 Q1152.16 2546.92 1151.35 2548.84 Q1150.56 2550.74 1148.46 2553.33 Q1147.88 2554 1144.78 2557.22 Q1141.68 2560.42 1136.03 2566.18 Z" fill="#000000" fill-rule="nonzero" fill-opacity="1" /><path clip-path="url(#clip700)" d="M1162.16 2564.24 L1167.05 2564.24 L1167.05 2570.12 L1162.16 2570.12 L1162.16 2564.24 Z" fill="#000000" fill-rule="nonzero" fill-opacity="1" /><path clip-path="url(#clip700)" d="M1177.28 2535.56 L1195.63 2535.56 L1195.63 2539.49 L1181.56 2539.49 L1181.56 2547.96 Q1182.58 2547.62 1183.6 2547.45 Q1184.62 2547.27 1185.63 2547.27 Q1191.42 2547.27 1194.8 2550.44 Q1198.18 2553.61 1198.18 2559.03 Q1198.18 2564.61 1194.71 2567.71 Q1191.24 2570.79 1184.92 2570.79 Q1182.74 2570.79 1180.47 2570.42 Q1178.23 2570.05 1175.82 2569.31 L1175.82 2564.61 Q1177.9 2565.74 1180.12 2566.3 Q1182.35 2566.85 1184.82 2566.85 Q1188.83 2566.85 1191.17 2564.75 Q1193.5 2562.64 1193.5 2559.03 Q1193.5 2555.42 1191.17 2553.31 Q1188.83 2551.2 1184.82 2551.2 Q1182.95 2551.2 1181.07 2551.62 Q1179.22 2552.04 1177.28 2552.92 L1177.28 2535.56 Z" fill="#000000" fill-rule="nonzero" fill-opacity="1" /><path clip-path="url(#clip700)" d="M1973.91 2535.56 L1992.27 2535.56 L1992.27 2539.49 L1978.19 2539.49 L1978.19 2547.96 Q1979.21 2547.62 1980.23 2547.45 Q1981.25 2547.27 1982.27 2547.27 Q1988.06 2547.27 1991.44 2550.44 Q1994.81 2553.61 1994.81 2559.03 Q1994.81 2564.61 1991.34 2567.71 Q1987.87 2570.79 1981.55 2570.79 Q1979.38 2570.79 1977.11 2570.42 Q1974.86 2570.05 1972.45 2569.31 L1972.45 2564.61 Q1974.54 2565.74 1976.76 2566.3 Q1978.98 2566.85 1981.46 2566.85 Q1985.46 2566.85 1987.8 2564.75 Q1990.14 2562.64 1990.14 2559.03 Q1990.14 2555.42 1987.8 2553.31 Q1985.46 2551.2 1981.46 2551.2 Q1979.58 2551.2 1977.71 2551.62 Q1975.86 2552.04 1973.91 2552.92 L1973.91 2535.56 Z" fill="#000000" fill-rule="nonzero" fill-opacity="1" /><path clip-path="url(#clip700)" d="M2004.03 2564.24 L2008.91 2564.24 L2008.91 2570.12 L2004.03 2570.12 L2004.03 2564.24 Z" fill="#000000" fill-rule="nonzero" fill-opacity="1" /><path clip-path="url(#clip700)" d="M2029.1 2538.63 Q2025.49 2538.63 2023.66 2542.2 Q2021.85 2545.74 2021.85 2552.87 Q2021.85 2559.98 2023.66 2563.54 Q2025.49 2567.08 2029.1 2567.08 Q2032.73 2567.08 2034.54 2563.54 Q2036.37 2559.98 2036.37 2552.87 Q2036.37 2545.74 2034.54 2542.2 Q2032.73 2538.63 2029.1 2538.63 M2029.1 2534.93 Q2034.91 2534.93 2037.96 2539.54 Q2041.04 2544.12 2041.04 2552.87 Q2041.04 2561.6 2037.96 2566.2 Q2034.91 2570.79 2029.1 2570.79 Q2023.29 2570.79 2020.21 2566.2 Q2017.15 2561.6 2017.15 2552.87 Q2017.15 2544.12 2020.21 2539.54 Q2023.29 2534.93 2029.1 2534.93 Z" fill="#000000" fill-rule="nonzero" fill-opacity="1" /><path clip-path="url(#clip700)" d="M2815.52 2535.56 L2837.75 2535.56 L2837.75 2537.55 L2825.2 2570.12 L2820.32 2570.12 L2832.12 2539.49 L2815.52 2539.49 L2815.52 2535.56 Z" fill="#000000" fill-rule="nonzero" fill-opacity="1" /><path clip-path="url(#clip700)" d="M2846.87 2564.24 L2851.75 2564.24 L2851.75 2570.12 L2846.87 2570.12 L2846.87 2564.24 Z" fill="#000000" fill-rule="nonzero" fill-opacity="1" /><path clip-path="url(#clip700)" d="M2861.98 2535.56 L2880.34 2535.56 L2880.34 2539.49 L2866.26 2539.49 L2866.26 2547.96 Q2867.28 2547.62 2868.3 2547.45 Q2869.32 2547.27 2870.34 2547.27 Q2876.13 2547.27 2879.51 2550.44 Q2882.88 2553.61 2882.88 2559.03 Q2882.88 2564.61 2879.41 2567.71 Q2875.94 2570.79 2869.62 2570.79 Q2867.45 2570.79 2865.18 2570.42 Q2862.93 2570.05 2860.52 2569.31 L2860.52 2564.61 Q2862.61 2565.74 2864.83 2566.3 Q2867.05 2566.85 2869.53 2566.85 Q2873.53 2566.85 2875.87 2564.75 Q2878.21 2562.64 2878.21 2559.03 Q2878.21 2555.42 2875.87 2553.31 Q2873.53 2551.2 2869.53 2551.2 Q2867.65 2551.2 2865.78 2551.62 Q2863.93 2552.04 2861.98 2552.92 L2861.98 2535.56 Z" fill="#000000" fill-rule="nonzero" fill-opacity="1" /><path clip-path="url(#clip700)" d="M3643.73 2566.18 L3651.37 2566.18 L3651.37 2539.82 L3643.06 2541.48 L3643.06 2537.22 L3651.33 2535.56 L3656 2535.56 L3656 2566.18 L3663.64 2566.18 L3663.64 2570.12 L3643.73 2570.12 L3643.73 2566.18 Z" fill="#000000" fill-rule="nonzero" fill-opacity="1" /><path clip-path="url(#clip700)" d="M3683.08 2538.63 Q3679.47 2538.63 3677.64 2542.2 Q3675.84 2545.74 3675.84 2552.87 Q3675.84 2559.98 3677.64 2563.54 Q3679.47 2567.08 3683.08 2567.08 Q3686.72 2567.08 3688.52 2563.54 Q3690.35 2559.98 3690.35 2552.87 Q3690.35 2545.74 3688.52 2542.2 Q3686.72 2538.63 3683.08 2538.63 M3683.08 2534.93 Q3688.89 2534.93 3691.95 2539.54 Q3695.03 2544.12 3695.03 2552.87 Q3695.03 2561.6 3691.95 2566.2 Q3688.89 2570.79 3683.08 2570.79 Q3677.27 2570.79 3674.2 2566.2 Q3671.14 2561.6 3671.14 2552.87 Q3671.14 2544.12 3674.2 2539.54 Q3677.27 2534.93 3683.08 2534.93 Z" fill="#000000" fill-rule="nonzero" fill-opacity="1" /><path clip-path="url(#clip700)" d="M3703.25 2564.24 L3708.13 2564.24 L3708.13 2570.12 L3703.25 2570.12 L3703.25 2564.24 Z" fill="#000000" fill-rule="nonzero" fill-opacity="1" /><path clip-path="url(#clip700)" d="M3728.32 2538.63 Q3724.7 2538.63 3722.88 2542.2 Q3721.07 2545.74 3721.07 2552.87 Q3721.07 2559.98 3722.88 2563.54 Q3724.7 2567.08 3728.32 2567.08 Q3731.95 2567.08 3733.76 2563.54 Q3735.58 2559.98 3735.58 2552.87 Q3735.58 2545.74 3733.76 2542.2 Q3731.95 2538.63 3728.32 2538.63 M3728.32 2534.93 Q3734.13 2534.93 3737.18 2539.54 Q3740.26 2544.12 3740.26 2552.87 Q3740.26 2561.6 3737.18 2566.2 Q3734.13 2570.79 3728.32 2570.79 Q3722.51 2570.79 3719.43 2566.2 Q3716.37 2561.6 3716.37 2552.87 Q3716.37 2544.12 3719.43 2539.54 Q3722.51 2534.93 3728.32 2534.93 Z" fill="#000000" fill-rule="nonzero" fill-opacity="1" /><path clip-path="url(#clip700)" d="M1876.36 2639.97 L1876.36 2657.38 L1886.67 2657.38 Q1891.86 2657.38 1894.35 2655.24 Q1896.86 2653.08 1896.86 2648.66 Q1896.86 2644.2 1894.35 2642.1 Q1891.86 2639.97 1886.67 2639.97 L1876.36 2639.97 M1876.36 2620.42 L1876.36 2634.75 L1885.88 2634.75 Q1890.59 2634.75 1892.88 2633 Q1895.2 2631.21 1895.2 2627.58 Q1895.2 2623.99 1892.88 2622.21 Q1890.59 2620.42 1885.88 2620.42 L1876.36 2620.42 M1869.93 2615.14 L1886.36 2615.14 Q1893.71 2615.14 1897.69 2618.2 Q1901.67 2621.25 1901.67 2626.88 Q1901.67 2631.25 1899.63 2633.82 Q1897.59 2636.4 1893.65 2637.04 Q1898.39 2638.06 1901 2641.3 Q1903.64 2644.52 1903.64 2649.36 Q1903.64 2655.72 1899.31 2659.19 Q1894.98 2662.66 1886.99 2662.66 L1869.93 2662.66 L1869.93 2615.14 Z" fill="#000000" fill-rule="nonzero" fill-opacity="1" /><path clip-path="url(#clip700)" d="M1920.06 2657.31 L1920.06 2676.22 L1914.17 2676.22 L1914.17 2627.01 L1920.06 2627.01 L1920.06 2632.42 Q1921.91 2629.24 1924.71 2627.71 Q1927.54 2626.15 1931.46 2626.15 Q1937.95 2626.15 1941.99 2631.31 Q1946.07 2636.46 1946.07 2644.87 Q1946.07 2653.27 1941.99 2658.43 Q1937.95 2663.58 1931.46 2663.58 Q1927.54 2663.58 1924.71 2662.06 Q1921.91 2660.5 1920.06 2657.31 M1939.99 2644.87 Q1939.99 2638.41 1937.31 2634.75 Q1934.67 2631.05 1930.03 2631.05 Q1925.38 2631.05 1922.7 2634.75 Q1920.06 2638.41 1920.06 2644.87 Q1920.06 2651.33 1922.7 2655.02 Q1925.38 2658.68 1930.03 2658.68 Q1934.67 2658.68 1937.31 2655.02 Q1939.99 2651.33 1939.99 2644.87 Z" fill="#000000" fill-rule="nonzero" fill-opacity="1" /><path clip-path="url(#clip700)" d="M1986.27 2643.37 L1986.27 2646.24 L1959.34 2646.24 Q1959.72 2652.28 1962.97 2655.47 Q1966.25 2658.62 1972.07 2658.62 Q1975.44 2658.62 1978.6 2657.79 Q1981.78 2656.96 1984.9 2655.31 L1984.9 2660.85 Q1981.75 2662.18 1978.44 2662.88 Q1975.13 2663.58 1971.72 2663.58 Q1963.19 2663.58 1958.19 2658.62 Q1953.23 2653.65 1953.23 2645.19 Q1953.23 2636.43 1957.94 2631.31 Q1962.68 2626.15 1970.7 2626.15 Q1977.9 2626.15 1982.06 2630.8 Q1986.27 2635.41 1986.27 2643.37 M1980.41 2641.65 Q1980.35 2636.85 1977.7 2633.98 Q1975.09 2631.12 1970.77 2631.12 Q1965.86 2631.12 1962.9 2633.89 Q1959.98 2636.66 1959.53 2641.68 L1980.41 2641.65 Z" fill="#000000" fill-rule="nonzero" fill-opacity="1" /><path clip-path="url(#clip700)" d="M1995.66 2627.01 L2004.22 2627.01 L2014.34 2650.88 L2024.49 2627.01 L2032.99 2627.01 L2032.99 2662.66 L2027.1 2662.66 L2027.1 2632.61 L2017.27 2655.82 L2011.41 2655.82 L2001.54 2632.61 L2001.54 2662.66 L1995.66 2662.66 L1995.66 2627.01 Z" fill="#000000" fill-rule="nonzero" fill-opacity="1" /><path clip-path="url(#clip700)" d="M2050.94 2637.29 Q2050.94 2639.93 2052.98 2641.43 Q2055.02 2642.93 2058.8 2642.93 L2066.7 2642.93 L2066.7 2631.69 L2058.8 2631.69 Q2055.02 2631.69 2052.98 2633.15 Q2050.94 2634.62 2050.94 2637.29 M2042.6 2662.66 L2053.49 2647.03 Q2049.8 2646.2 2047.35 2644.04 Q2044.89 2641.84 2044.89 2637.29 Q2044.89 2632.14 2048.3 2629.59 Q2051.74 2627.01 2058.64 2627.01 L2072.59 2627.01 L2072.59 2662.66 L2066.7 2662.66 L2066.7 2647.6 L2059.41 2647.6 L2048.9 2662.66 L2042.6 2662.66 Z" fill="#000000" fill-rule="nonzero" fill-opacity="1" /><path clip-path="url(#clip700)" d="M2085.76 2654.58 L2092.48 2654.58 L2092.48 2660.05 L2087.26 2670.24 L2083.15 2670.24 L2085.76 2660.05 L2085.76 2654.58 Z" fill="#000000" fill-rule="nonzero" fill-opacity="1" /><path clip-path="url(#clip700)" d="M2131.5 2616.89 L2131.5 2627.01 L2143.56 2627.01 L2143.56 2631.56 L2131.5 2631.56 L2131.5 2650.92 Q2131.5 2655.28 2132.68 2656.52 Q2133.89 2657.76 2137.55 2657.76 L2143.56 2657.76 L2143.56 2662.66 L2137.55 2662.66 Q2130.77 2662.66 2128.19 2660.15 Q2125.61 2657.6 2125.61 2650.92 L2125.61 2631.56 L2121.31 2631.56 L2121.31 2627.01 L2125.61 2627.01 L2125.61 2616.89 L2131.5 2616.89 Z" fill="#000000" fill-rule="nonzero" fill-opacity="1" /><polyline clip-path="url(#clip700)" style="stroke:#000000; stroke-linecap:round; stroke-linejoin:round; stroke-width:4; stroke-opacity:1; fill:none" points="220.74,2496.2 220.74,126.496 "/>
<polyline clip-path="url(#clip700)" style="stroke:#000000; stroke-linecap:round; stroke-linejoin:round; stroke-width:4; stroke-opacity:1; fill:none" points="220.74,1960.59 239.637,1960.59 "/>
<polyline clip-path="url(#clip700)" style="stroke:#000000; stroke-linecap:round; stroke-linejoin:round; stroke-width:4; stroke-opacity:1; fill:none" points="220.74,1374.92 239.637,1374.92 "/>
<polyline clip-path="url(#clip700)" style="stroke:#000000; stroke-linecap:round; stroke-linejoin:round; stroke-width:4; stroke-opacity:1; fill:none" points="220.74,789.245 239.637,789.245 "/>
<polyline clip-path="url(#clip700)" style="stroke:#000000; stroke-linecap:round; stroke-linejoin:round; stroke-width:4; stroke-opacity:1; fill:none" points="220.74,203.572 239.637,203.572 "/>
<path clip-path="url(#clip700)" d="M142.237 1943.31 L160.593 1943.31 L160.593 1947.25 L146.519 1947.25 L146.519 1955.72 Q147.538 1955.37 148.556 1955.21 Q149.575 1955.02 150.593 1955.02 Q156.38 1955.02 159.76 1958.19 Q163.14 1961.37 163.14 1966.78 Q163.14 1972.36 159.667 1975.46 Q156.195 1978.54 149.876 1978.54 Q147.7 1978.54 145.431 1978.17 Q143.186 1977.8 140.779 1977.06 L140.779 1972.36 Q142.862 1973.5 145.084 1974.05 Q147.306 1974.61 149.783 1974.61 Q153.788 1974.61 156.126 1972.5 Q158.464 1970.39 158.464 1966.78 Q158.464 1963.17 156.126 1961.07 Q153.788 1958.96 149.783 1958.96 Q147.908 1958.96 146.033 1959.38 Q144.181 1959.79 142.237 1960.67 L142.237 1943.31 Z" fill="#000000" fill-rule="nonzero" fill-opacity="1" /><path clip-path="url(#clip700)" d="M111.844 1388.26 L119.482 1388.26 L119.482 1361.9 L111.172 1363.56 L111.172 1359.3 L119.436 1357.64 L124.112 1357.64 L124.112 1388.26 L131.751 1388.26 L131.751 1392.2 L111.844 1392.2 L111.844 1388.26 Z" fill="#000000" fill-rule="nonzero" fill-opacity="1" /><path clip-path="url(#clip700)" d="M151.195 1360.72 Q147.584 1360.72 145.755 1364.28 Q143.95 1367.82 143.95 1374.95 Q143.95 1382.06 145.755 1385.62 Q147.584 1389.17 151.195 1389.17 Q154.829 1389.17 156.635 1385.62 Q158.464 1382.06 158.464 1374.95 Q158.464 1367.82 156.635 1364.28 Q154.829 1360.72 151.195 1360.72 M151.195 1357.01 Q157.005 1357.01 160.061 1361.62 Q163.14 1366.2 163.14 1374.95 Q163.14 1383.68 160.061 1388.29 Q157.005 1392.87 151.195 1392.87 Q145.385 1392.87 142.306 1388.29 Q139.251 1383.68 139.251 1374.95 Q139.251 1366.2 142.306 1361.62 Q145.385 1357.01 151.195 1357.01 Z" fill="#000000" fill-rule="nonzero" fill-opacity="1" /><path clip-path="url(#clip700)" d="M112.839 802.59 L120.478 802.59 L120.478 776.224 L112.168 777.891 L112.168 773.632 L120.431 771.965 L125.107 771.965 L125.107 802.59 L132.746 802.59 L132.746 806.525 L112.839 806.525 L112.839 802.59 Z" fill="#000000" fill-rule="nonzero" fill-opacity="1" /><path clip-path="url(#clip700)" d="M142.237 771.965 L160.593 771.965 L160.593 775.9 L146.519 775.9 L146.519 784.372 Q147.538 784.025 148.556 783.863 Q149.575 783.678 150.593 783.678 Q156.38 783.678 159.76 786.849 Q163.14 790.02 163.14 795.437 Q163.14 801.016 159.667 804.118 Q156.195 807.196 149.876 807.196 Q147.7 807.196 145.431 806.826 Q143.186 806.455 140.779 805.715 L140.779 801.016 Q142.862 802.15 145.084 802.705 Q147.306 803.261 149.783 803.261 Q153.788 803.261 156.126 801.155 Q158.464 799.048 158.464 795.437 Q158.464 791.826 156.126 789.719 Q153.788 787.613 149.783 787.613 Q147.908 787.613 146.033 788.03 Q144.181 788.446 142.237 789.326 L142.237 771.965 Z" fill="#000000" fill-rule="nonzero" fill-opacity="1" /><path clip-path="url(#clip700)" d="M115.061 216.917 L131.38 216.917 L131.38 220.852 L109.436 220.852 L109.436 216.917 Q112.098 214.162 116.681 209.533 Q121.288 204.88 122.468 203.537 Q124.714 201.014 125.593 199.278 Q126.496 197.519 126.496 195.829 Q126.496 193.074 124.552 191.338 Q122.631 189.602 119.529 189.602 Q117.33 189.602 114.876 190.366 Q112.445 191.13 109.668 192.681 L109.668 187.959 Q112.492 186.824 114.945 186.246 Q117.399 185.667 119.436 185.667 Q124.806 185.667 128.001 188.352 Q131.195 191.037 131.195 195.528 Q131.195 197.658 130.385 199.579 Q129.598 201.477 127.492 204.07 Q126.913 204.741 123.811 207.959 Q120.709 211.153 115.061 216.917 Z" fill="#000000" fill-rule="nonzero" fill-opacity="1" /><path clip-path="url(#clip700)" d="M151.195 189.371 Q147.584 189.371 145.755 192.936 Q143.95 196.477 143.95 203.607 Q143.95 210.713 145.755 214.278 Q147.584 217.82 151.195 217.82 Q154.829 217.82 156.635 214.278 Q158.464 210.713 158.464 203.607 Q158.464 196.477 156.635 192.936 Q154.829 189.371 151.195 189.371 M151.195 185.667 Q157.005 185.667 160.061 190.274 Q163.14 194.857 163.14 203.607 Q163.14 212.334 160.061 216.94 Q157.005 221.523 151.195 221.523 Q145.385 221.523 142.306 216.94 Q139.251 212.334 139.251 203.607 Q139.251 194.857 142.306 190.274 Q145.385 185.667 151.195 185.667 Z" fill="#000000" fill-rule="nonzero" fill-opacity="1" /><path clip-path="url(#clip700)" d="M-9.93984 1537.17 L37.5802 1537.17 L37.5802 1543.6 L-4.52899 1543.6 L-4.52899 1566.96 L37.5802 1566.96 L37.5802 1573.39 L-9.93984 1573.39 L-9.93984 1537.17 Z" fill="#000000" fill-rule="nonzero" fill-opacity="1" /><path clip-path="url(#clip700)" d="M6.03808 1510.82 Q6.03808 1515.53 9.73019 1518.26 Q13.3905 1521 19.788 1521 Q26.1855 1521 29.8777 1518.3 Q33.5379 1515.56 33.5379 1510.82 Q33.5379 1506.14 29.8458 1503.4 Q26.1537 1500.66 19.788 1500.66 Q13.4541 1500.66 9.76202 1503.4 Q6.03808 1506.14 6.03808 1510.82 M1.07283 1510.82 Q1.07283 1503.18 6.03808 1498.82 Q11.0033 1494.46 19.788 1494.46 Q28.5409 1494.46 33.5379 1498.82 Q38.5032 1503.18 38.5032 1510.82 Q38.5032 1518.49 33.5379 1522.85 Q28.5409 1527.18 19.788 1527.18 Q11.0033 1527.18 6.03808 1522.85 Q1.07283 1518.49 1.07283 1510.82 Z" fill="#000000" fill-rule="nonzero" fill-opacity="1" /><path clip-path="url(#clip700)" d="M1.9322 1454.19 L37.5802 1454.19 L37.5802 1460.08 L6.61099 1460.08 L6.61099 1479.08 L37.5802 1479.08 L37.5802 1484.97 L1.9322 1484.97 L1.9322 1454.19 Z" fill="#000000" fill-rule="nonzero" fill-opacity="1" /><path clip-path="url(#clip700)" d="M40.8903 1427.3 Q47.256 1429.78 49.1976 1432.14 Q51.1391 1434.49 51.1391 1438.44 L51.1391 1443.12 L46.2375 1443.12 L46.2375 1439.68 Q46.2375 1437.26 45.0917 1435.92 Q43.9459 1434.59 39.6808 1432.96 L37.0072 1431.91 L1.9322 1446.33 L1.9322 1440.12 L29.814 1428.98 L1.9322 1417.84 L1.9322 1411.64 L40.8903 1427.3 Z" fill="#000000" fill-rule="nonzero" fill-opacity="1" /><path clip-path="url(#clip700)" d="M37.5802 1407.28 L32.7104 1407.28 Q31.8192 1401.48 27.8088 1399.7 Q22.1751 1397.54 7.75682 1397.54 L1.9322 1397.54 L1.9322 1373.44 L37.5802 1373.44 L37.5802 1379.3 L6.61099 1379.3 L6.61099 1391.68 L10.144 1391.68 Q23.8939 1391.68 30.0686 1394.48 Q36.6571 1397.47 37.5802 1407.28 Z" fill="#000000" fill-rule="nonzero" fill-opacity="1" /><path clip-path="url(#clip700)" d="M12.2128 1356 Q14.8546 1356 16.3505 1353.96 Q17.8465 1351.93 17.8465 1348.14 L17.8465 1340.25 L6.61099 1340.25 L6.61099 1348.14 Q6.61099 1351.93 8.07511 1353.96 Q9.53922 1356 12.2128 1356 M37.5802 1364.34 L21.9523 1353.46 Q21.1248 1357.15 18.9605 1359.6 Q16.7643 1362.05 12.2128 1362.05 Q7.05659 1362.05 4.51031 1358.64 Q1.9322 1355.21 1.9322 1348.3 L1.9322 1334.36 L37.5802 1334.36 L37.5802 1340.25 L22.5253 1340.25 L22.5253 1347.54 L37.5802 1358.04 L37.5802 1364.34 Z" fill="#000000" fill-rule="nonzero" fill-opacity="1" /><path clip-path="url(#clip700)" d="M37.5802 1292.12 L37.5802 1322.9 L1.9322 1322.9 L1.9322 1317.01 L32.9014 1317.01 L32.9014 1298.01 L1.9322 1298.01 L1.9322 1292.12 L32.9014 1292.12 L32.9014 1287.44 L46.5876 1287.44 L46.5876 1292.12 L37.5802 1292.12 Z" fill="#000000" fill-rule="nonzero" fill-opacity="1" /><path clip-path="url(#clip700)" d="M1.9322 1248.01 L37.5802 1248.01 L37.5802 1253.83 L8.96631 1253.83 L37.5802 1271.02 L37.5802 1278.53 L1.9322 1278.53 L1.9322 1272.71 L30.4824 1272.71 L1.9322 1255.55 L1.9322 1248.01 Z" fill="#000000" fill-rule="nonzero" fill-opacity="1" /><path clip-path="url(#clip700)" d="M12.2128 1230.06 Q14.8546 1230.06 16.3505 1228.02 Q17.8465 1225.98 17.8465 1222.19 L17.8465 1214.3 L6.61099 1214.3 L6.61099 1222.19 Q6.61099 1225.98 8.07511 1228.02 Q9.53922 1230.06 12.2128 1230.06 M37.5802 1238.39 L21.9523 1227.51 Q21.1248 1231.2 18.9605 1233.65 Q16.7643 1236.1 12.2128 1236.1 Q7.05659 1236.1 4.51031 1232.7 Q1.9322 1229.26 1.9322 1222.35 L1.9322 1208.41 L37.5802 1208.41 L37.5802 1214.3 L22.5253 1214.3 L22.5253 1221.59 L37.5802 1232.09 L37.5802 1238.39 Z" fill="#000000" fill-rule="nonzero" fill-opacity="1" /><path clip-path="url(#clip700)" d="M29.4957 1195.24 L29.4957 1188.52 L34.9702 1188.52 L45.1553 1193.74 L45.1553 1197.85 L34.9702 1195.24 L29.4957 1195.24 Z" fill="#000000" fill-rule="nonzero" fill-opacity="1" /><path clip-path="url(#clip700)" d="M23.5119 1155.9 L1.9322 1155.9 L1.9322 1150.04 L23.2891 1150.04 Q28.3499 1150.04 30.8962 1148.07 Q33.4106 1146.09 33.4106 1142.15 Q33.4106 1137.4 30.3869 1134.67 Q27.3632 1131.9 22.1433 1131.9 L1.9322 1131.9 L1.9322 1126.04 L37.5802 1126.04 L37.5802 1131.9 L32.1056 1131.9 Q35.3522 1134.03 36.9436 1136.86 Q38.5032 1139.66 38.5032 1143.39 Q38.5032 1149.53 34.6838 1152.71 Q30.8643 1155.9 23.5119 1155.9 M1.07283 1141.16 L1.07283 1141.16 Z" fill="#000000" fill-rule="nonzero" fill-opacity="1" /><path clip-path="url(#clip700)" d="M-11.8814 1099.91 Q-4.56082 1104.17 2.6006 1106.24 Q9.76202 1108.31 17.1144 1108.31 Q24.4668 1108.31 31.6919 1106.24 Q38.8851 1104.14 46.1739 1099.91 L46.1739 1105 Q38.6942 1109.78 31.4691 1112.16 Q24.244 1114.52 17.1144 1114.52 Q10.0166 1114.52 2.8234 1112.16 Q-4.36985 1109.81 -11.8814 1105 L-11.8814 1099.91 Z" fill="#000000" fill-rule="nonzero" fill-opacity="1" /><path clip-path="url(#clip700)" d="M-8.18927 1082.75 L1.9322 1082.75 L1.9322 1070.69 L6.48368 1070.69 L6.48368 1082.75 L25.8354 1082.75 Q30.1959 1082.75 31.4373 1081.58 Q32.6786 1080.37 32.6786 1076.71 L32.6786 1070.69 L37.5802 1070.69 L37.5802 1076.71 Q37.5802 1083.49 35.0657 1086.06 Q32.5194 1088.64 25.8354 1088.64 L6.48368 1088.64 L6.48368 1092.94 L1.9322 1092.94 L1.9322 1088.64 L-8.18927 1088.64 L-8.18927 1082.75 Z" fill="#000000" fill-rule="nonzero" fill-opacity="1" /><path clip-path="url(#clip700)" d="M-11.8814 1063.91 L-11.8814 1058.82 Q-4.36985 1054.04 2.8234 1051.69 Q10.0166 1049.3 17.1144 1049.3 Q24.244 1049.3 31.4691 1051.69 Q38.6942 1054.04 46.1739 1058.82 L46.1739 1063.91 Q38.8851 1059.68 31.6919 1057.61 Q24.4668 1055.51 17.1144 1055.51 Q9.76202 1055.51 2.6006 1057.61 Q-4.56082 1059.68 -11.8814 1063.91 Z" fill="#000000" fill-rule="nonzero" fill-opacity="1" /><path clip-path="url(#clip700)" d="M947.213 59.3701 Q955.761 67.0263 966.131 67.0263 Q976.826 67.0263 981.646 61.274 Q986.467 55.5217 987.358 45.84 L955.032 45.84 L955.032 38.9535 L987.358 38.9535 Q986.467 29.2718 981.646 23.5195 Q976.826 17.7268 966.131 17.7268 Q955.761 17.7268 947.213 25.383 L947.213 16.7545 Q955.639 11.0023 966.617 11.0023 Q980.188 11.0023 988.087 19.4281 Q995.986 27.8135 995.986 42.3563 Q995.986 56.9395 988.087 65.3654 Q980.188 73.7508 966.617 73.7508 Q955.801 73.7508 947.213 67.9175 L947.213 59.3701 Z" fill="#000000" fill-rule="nonzero" fill-opacity="1" /><path clip-path="url(#clip700)" d="M1008.18 27.2059 L1015.59 27.2059 L1015.59 48.5136 L1036.62 27.2059 L1045.77 27.2059 L1028.43 44.7463 L1048 72.576 L1039.66 72.576 L1023.57 49.6884 L1015.59 57.7902 L1015.59 72.576 L1008.18 72.576 L1008.18 27.2059 Z" fill="#000000" fill-rule="nonzero" fill-opacity="1" /><path clip-path="url(#clip700)" d="M1091.22 28.9478 L1091.22 35.9153 Q1088.06 34.1734 1084.86 33.3227 Q1081.7 32.4315 1078.46 32.4315 Q1071.21 32.4315 1067.2 37.0496 Q1063.19 41.6271 1063.19 49.9314 Q1063.19 58.2358 1067.2 62.8538 Q1071.21 67.4314 1078.46 67.4314 Q1081.7 67.4314 1084.86 66.5807 Q1088.06 65.6895 1091.22 63.9476 L1091.22 70.8341 Q1088.1 72.2924 1084.74 73.0216 Q1081.42 73.7508 1077.65 73.7508 Q1067.4 73.7508 1061.37 67.3098 Q1055.33 60.8689 1055.33 49.9314 Q1055.33 38.832 1061.41 32.472 Q1067.53 26.1121 1078.14 26.1121 Q1081.58 26.1121 1084.86 26.8413 Q1088.14 27.5299 1091.22 28.9478 Z" fill="#000000" fill-rule="nonzero" fill-opacity="1" /><path clip-path="url(#clip700)" d="M1143.07 27.2059 L1143.07 72.576 L1135.58 72.576 L1135.58 33.1607 L1111.4 33.1607 L1111.4 72.576 L1103.9 72.576 L1103.9 27.2059 L1143.07 27.2059 Z" fill="#000000" fill-rule="nonzero" fill-opacity="1" /><path clip-path="url(#clip700)" d="M1176.01 32.4315 Q1170.01 32.4315 1166.53 37.1306 Q1163.05 41.7891 1163.05 49.9314 Q1163.05 58.0738 1166.49 62.7728 Q1169.97 67.4314 1176.01 67.4314 Q1181.96 67.4314 1185.45 62.7323 Q1188.93 58.0333 1188.93 49.9314 Q1188.93 41.8701 1185.45 37.1711 Q1181.96 32.4315 1176.01 32.4315 M1176.01 26.1121 Q1185.73 26.1121 1191.28 32.4315 Q1196.83 38.7509 1196.83 49.9314 Q1196.83 61.0714 1191.28 67.4314 Q1185.73 73.7508 1176.01 73.7508 Q1166.25 73.7508 1160.7 67.4314 Q1155.19 61.0714 1155.19 49.9314 Q1155.19 38.7509 1160.7 32.4315 Q1166.25 26.1121 1176.01 26.1121 Z" fill="#000000" fill-rule="nonzero" fill-opacity="1" /><path clip-path="url(#clip700)" d="M1208.9 27.2059 L1216.4 27.2059 L1216.4 45.7185 L1240.58 45.7185 L1240.58 27.2059 L1248.07 27.2059 L1248.07 72.576 L1240.58 72.576 L1240.58 51.6733 L1216.4 51.6733 L1216.4 72.576 L1208.9 72.576 L1208.9 27.2059 Z" fill="#000000" fill-rule="nonzero" fill-opacity="1" /><path clip-path="url(#clip700)" d="M1302.23 48.0275 L1302.23 51.6733 L1267.96 51.6733 Q1268.45 59.3701 1272.58 63.421 Q1276.75 67.4314 1284.17 67.4314 Q1288.46 67.4314 1292.47 66.3781 Q1296.52 65.3249 1300.49 63.2184 L1300.49 70.267 Q1296.48 71.9684 1292.27 72.8596 Q1288.06 73.7508 1283.72 73.7508 Q1272.87 73.7508 1266.51 67.4314 Q1260.19 61.1119 1260.19 50.3365 Q1260.19 39.1965 1266.18 32.6746 Q1272.22 26.1121 1282.43 26.1121 Q1291.58 26.1121 1296.89 32.0264 Q1302.23 37.9003 1302.23 48.0275 M1294.78 45.84 Q1294.7 39.7232 1291.34 36.0774 Q1288.02 32.4315 1282.51 32.4315 Q1276.27 32.4315 1272.5 35.9558 Q1268.77 39.4801 1268.21 45.8805 L1294.78 45.84 Z" fill="#000000" fill-rule="nonzero" fill-opacity="1" /><path clip-path="url(#clip700)" d="M1314.18 27.2059 L1321.68 27.2059 L1321.68 45.7185 L1345.86 45.7185 L1345.86 27.2059 L1353.36 27.2059 L1353.36 72.576 L1345.86 72.576 L1345.86 51.6733 L1321.68 51.6733 L1321.68 72.576 L1314.18 72.576 L1314.18 27.2059 Z" fill="#000000" fill-rule="nonzero" fill-opacity="1" /><path clip-path="url(#clip700)" d="M1407.6 72.576 L1368.43 72.576 L1368.43 27.2059 L1375.92 27.2059 L1375.92 66.6212 L1400.1 66.6212 L1400.1 27.2059 L1407.6 27.2059 L1407.6 66.6212 L1413.55 66.6212 L1413.55 84.0401 L1407.6 84.0401 L1407.6 72.576 Z" fill="#000000" fill-rule="nonzero" fill-opacity="1" /><path clip-path="url(#clip700)" d="M1463.74 27.2059 L1463.74 72.576 L1456.33 72.576 L1456.33 36.1584 L1434.46 72.576 L1424.9 72.576 L1424.9 27.2059 L1432.31 27.2059 L1432.31 63.5425 L1454.14 27.2059 L1463.74 27.2059 Z" fill="#000000" fill-rule="nonzero" fill-opacity="1" /><path clip-path="url(#clip700)" d="M1499.72 49.7694 Q1490.68 49.7694 1487.2 51.8354 Q1483.72 53.9013 1483.72 58.8839 Q1483.72 62.8538 1486.31 65.2034 Q1488.94 67.5124 1493.44 67.5124 Q1499.64 67.5124 1503.36 63.1374 Q1507.13 58.7219 1507.13 51.4303 L1507.13 49.7694 L1499.72 49.7694 M1514.58 46.6907 L1514.58 72.576 L1507.13 72.576 L1507.13 65.6895 Q1504.58 69.8214 1500.77 71.8063 Q1496.96 73.7508 1491.45 73.7508 Q1484.48 73.7508 1480.35 69.8619 Q1476.26 65.9325 1476.26 59.3701 Q1476.26 51.7138 1481.37 47.825 Q1486.51 43.9361 1496.68 43.9361 L1507.13 43.9361 L1507.13 43.2069 Q1507.13 38.0623 1503.73 35.2672 Q1500.36 32.4315 1494.25 32.4315 Q1490.36 32.4315 1486.67 33.3632 Q1482.99 34.295 1479.58 36.1584 L1479.58 29.2718 Q1483.67 27.692 1487.52 26.9223 Q1491.37 26.1121 1495.02 26.1121 Q1504.86 26.1121 1509.72 31.2163 Q1514.58 36.3204 1514.58 46.6907 Z" fill="#000000" fill-rule="nonzero" fill-opacity="1" /><path clip-path="url(#clip700)" d="M1525.2 72.576 L1525.2 66.3781 Q1532.57 65.2439 1534.84 60.1397 Q1537.59 52.9696 1537.59 34.619 L1537.59 27.2059 L1568.26 27.2059 L1568.26 72.576 L1560.8 72.576 L1560.8 33.1607 L1545.05 33.1607 L1545.05 37.6572 Q1545.05 55.1571 1541.48 63.0159 Q1537.67 71.4012 1525.2 72.576 Z" fill="#000000" fill-rule="nonzero" fill-opacity="1" /><path clip-path="url(#clip700)" d="M1611.2 59.127 Q1611.2 55.4812 1608.52 53.5773 Q1605.89 51.6733 1600.79 51.6733 L1590.17 51.6733 L1590.17 66.6212 L1600.79 66.6212 Q1605.89 66.6212 1608.52 64.7172 Q1611.2 62.7728 1611.2 59.127 M1582.68 27.2059 L1590.17 27.2059 L1590.17 45.7185 L1601.11 45.7185 Q1609.78 45.7185 1614.44 49.0402 Q1619.14 52.3215 1619.14 59.127 Q1619.14 65.9325 1614.44 69.2543 Q1609.78 72.576 1601.11 72.576 L1582.68 72.576 L1582.68 27.2059 Z" fill="#000000" fill-rule="nonzero" fill-opacity="1" /><path clip-path="url(#clip700)" d="M1631.57 27.2059 L1639.07 27.2059 L1639.07 45.7185 L1663.25 45.7185 L1663.25 27.2059 L1670.75 27.2059 L1670.75 72.576 L1663.25 72.576 L1663.25 51.6733 L1639.07 51.6733 L1639.07 72.576 L1631.57 72.576 L1631.57 27.2059 Z" fill="#000000" fill-rule="nonzero" fill-opacity="1" /><path clip-path="url(#clip700)" d="M1728.96 27.2059 L1736.41 27.2059 L1736.41 72.576 L1728.96 72.576 L1728.96 27.2059 M1732.68 26.1121 L1732.68 26.1121 M1714.33 59.127 Q1714.33 55.4812 1711.66 53.5773 Q1709.03 51.6733 1703.92 51.6733 L1693.31 51.6733 L1693.31 66.6212 L1703.92 66.6212 Q1709.03 66.6212 1711.66 64.7172 Q1714.33 62.7728 1714.33 59.127 M1685.81 27.2059 L1693.31 27.2059 L1693.31 45.7185 L1704.25 45.7185 Q1712.92 45.7185 1717.57 49.0402 Q1722.27 52.3215 1722.27 59.127 Q1722.27 65.9325 1717.57 69.2543 Q1712.92 72.576 1704.25 72.576 L1685.81 72.576 L1685.81 27.2059 Z" fill="#000000" fill-rule="nonzero" fill-opacity="1" /><path clip-path="url(#clip700)" d="M1790.17 27.2059 L1790.17 72.576 L1782.75 72.576 L1782.75 36.1584 L1760.88 72.576 L1751.32 72.576 L1751.32 27.2059 L1758.73 27.2059 L1758.73 63.5425 L1780.57 27.2059 L1790.17 27.2059 M1758.08 9.54393 L1762.86 9.54393 Q1763.31 12.5821 1765.25 14.1215 Q1767.24 15.6203 1770.76 15.6203 Q1774.25 15.6203 1776.19 14.1215 Q1778.13 12.6226 1778.66 9.54393 L1783.44 9.54393 Q1783.04 15.3367 1779.84 18.2534 Q1776.64 21.17 1770.76 21.17 Q1764.89 21.17 1761.69 18.2534 Q1758.49 15.3367 1758.08 9.54393 Z" fill="#000000" fill-rule="nonzero" fill-opacity="1" /><path clip-path="url(#clip700)" d="M1839.1 65.7705 L1839.1 89.8329 L1831.61 89.8329 L1831.61 27.2059 L1839.1 27.2059 L1839.1 34.0924 Q1841.45 30.0415 1845.02 28.0971 Q1848.62 26.1121 1853.6 26.1121 Q1861.87 26.1121 1867.01 32.6746 Q1872.2 39.2371 1872.2 49.9314 Q1872.2 60.6258 1867.01 67.1883 Q1861.87 73.7508 1853.6 73.7508 Q1848.62 73.7508 1845.02 71.8063 Q1841.45 69.8214 1839.1 65.7705 M1864.46 49.9314 Q1864.46 41.7081 1861.06 37.0496 Q1857.69 32.3505 1851.78 32.3505 Q1845.87 32.3505 1842.46 37.0496 Q1839.1 41.7081 1839.1 49.9314 Q1839.1 58.1548 1842.46 62.8538 Q1845.87 67.5124 1851.78 67.5124 Q1857.69 67.5124 1861.06 62.8538 Q1864.46 58.1548 1864.46 49.9314 Z" fill="#000000" fill-rule="nonzero" fill-opacity="1" /><path clip-path="url(#clip700)" d="M1902.13 32.4315 Q1896.14 32.4315 1892.65 37.1306 Q1889.17 41.7891 1889.17 49.9314 Q1889.17 58.0738 1892.61 62.7728 Q1896.1 67.4314 1902.13 67.4314 Q1908.09 67.4314 1911.57 62.7323 Q1915.06 58.0333 1915.06 49.9314 Q1915.06 41.8701 1911.57 37.1711 Q1908.09 32.4315 1902.13 32.4315 M1902.13 26.1121 Q1911.86 26.1121 1917.41 32.4315 Q1922.95 38.7509 1922.95 49.9314 Q1922.95 61.0714 1917.41 67.4314 Q1911.86 73.7508 1902.13 73.7508 Q1892.37 73.7508 1886.82 67.4314 Q1881.31 61.0714 1881.31 49.9314 Q1881.31 38.7509 1886.82 32.4315 Q1892.37 26.1121 1902.13 26.1121 Z" fill="#000000" fill-rule="nonzero" fill-opacity="1" /><path clip-path="url(#clip700)" d="M1967.96 28.9478 L1967.96 35.9153 Q1964.8 34.1734 1961.6 33.3227 Q1958.44 32.4315 1955.2 32.4315 Q1947.95 32.4315 1943.94 37.0496 Q1939.93 41.6271 1939.93 49.9314 Q1939.93 58.2358 1943.94 62.8538 Q1947.95 67.4314 1955.2 67.4314 Q1958.44 67.4314 1961.6 66.5807 Q1964.8 65.6895 1967.96 63.9476 L1967.96 70.8341 Q1964.84 72.2924 1961.48 73.0216 Q1958.16 73.7508 1954.39 73.7508 Q1944.14 73.7508 1938.11 67.3098 Q1932.07 60.8689 1932.07 49.9314 Q1932.07 38.832 1938.15 32.472 Q1944.26 26.1121 1954.88 26.1121 Q1958.32 26.1121 1961.6 26.8413 Q1964.88 27.5299 1967.96 28.9478 Z" fill="#000000" fill-rule="nonzero" fill-opacity="1" /><path clip-path="url(#clip700)" d="M1975.54 27.2059 L2019 27.2059 L2019 33.1607 L2000.93 33.1607 L2000.93 72.576 L1993.6 72.576 L1993.6 33.1607 L1975.54 33.1607 L1975.54 27.2059 Z" fill="#000000" fill-rule="nonzero" fill-opacity="1" /><path clip-path="url(#clip700)" d="M2073.53 9.62495 Q2068.1 18.942 2065.47 28.0566 Q2062.83 37.1711 2062.83 46.5287 Q2062.83 55.8863 2065.47 65.0818 Q2068.14 74.2369 2073.53 83.5134 L2067.05 83.5134 Q2060.97 73.9938 2057.93 64.7983 Q2054.93 55.6027 2054.93 46.5287 Q2054.93 37.4952 2057.93 28.3401 Q2060.93 19.1851 2067.05 9.62495 L2073.53 9.62495 Z" fill="#000000" fill-rule="nonzero" fill-opacity="1" /><path clip-path="url(#clip700)" d="M2105.97 26.1121 Q2115.7 26.1121 2121.25 32.4315 Q2126.8 38.7509 2126.8 49.9314 Q2126.8 61.0714 2121.25 67.4314 Q2115.7 73.7508 2105.97 73.7508 Q2096.21 73.7508 2090.82 67.5934 Q2085.44 61.436 2085.15 49.9314 L2084.91 40.6549 Q2084.71 35.8343 2084.71 34.1734 Q2084.71 27.692 2087.06 22.9119 Q2090.74 15.4177 2097.1 12.177 Q2103.5 8.93629 2114.2 8.85528 Q2119.14 8.81477 2121.33 8.12611 L2123.39 14.0404 Q2121.41 14.8506 2119.59 14.8911 L2109.46 15.5798 Q2104.35 15.9444 2101.28 17.7268 Q2093.21 22.4663 2092.44 28.6642 L2092.16 30.9327 Q2097.43 26.1121 2105.97 26.1121 M2105.97 32.4315 Q2099.98 32.4315 2096.5 37.1306 Q2093.01 41.7891 2093.01 49.9314 Q2093.01 58.0738 2096.46 62.7728 Q2099.94 67.4314 2105.97 67.4314 Q2111.93 67.4314 2115.41 62.7323 Q2118.9 58.0333 2118.9 49.9314 Q2118.9 41.8701 2115.41 37.1711 Q2111.93 32.4315 2105.97 32.4315 Z" fill="#000000" fill-rule="nonzero" fill-opacity="1" /><path clip-path="url(#clip700)" d="M2159.77 49.7694 Q2150.74 49.7694 2147.25 51.8354 Q2143.77 53.9013 2143.77 58.8839 Q2143.77 62.8538 2146.36 65.2034 Q2149 67.5124 2153.49 67.5124 Q2159.69 67.5124 2163.42 63.1374 Q2167.18 58.7219 2167.18 51.4303 L2167.18 49.7694 L2159.77 49.7694 M2174.64 46.6907 L2174.64 72.576 L2167.18 72.576 L2167.18 65.6895 Q2164.63 69.8214 2160.82 71.8063 Q2157.02 73.7508 2151.51 73.7508 Q2144.54 73.7508 2140.41 69.8619 Q2136.32 65.9325 2136.32 59.3701 Q2136.32 51.7138 2141.42 47.825 Q2146.56 43.9361 2156.73 43.9361 L2167.18 43.9361 L2167.18 43.2069 Q2167.18 38.0623 2163.78 35.2672 Q2160.42 32.4315 2154.3 32.4315 Q2150.41 32.4315 2146.73 33.3632 Q2143.04 34.295 2139.64 36.1584 L2139.64 29.2718 Q2143.73 27.692 2147.58 26.9223 Q2151.43 26.1121 2155.07 26.1121 Q2164.92 26.1121 2169.78 31.2163 Q2174.64 36.3204 2174.64 46.6907 Z" fill="#000000" fill-rule="nonzero" fill-opacity="1" /><path clip-path="url(#clip700)" d="M2210.77 48.1085 Q2215.79 49.0808 2218.59 52.0379 Q2221.38 54.9951 2221.38 59.3701 Q2221.38 66.3781 2216.16 70.0644 Q2210.93 73.7508 2201.29 73.7508 Q2198.05 73.7508 2194.61 73.1836 Q2191.21 72.6165 2187.56 71.4823 L2187.56 64.5552 Q2190.44 66.054 2193.88 66.8237 Q2197.32 67.5529 2201.09 67.5529 Q2207.21 67.5529 2210.61 65.2844 Q2214.05 63.0159 2214.05 59.3701 Q2214.05 55.8053 2211.01 53.6583 Q2207.98 51.4708 2202.43 51.4708 L2196.43 51.4708 L2196.43 45.3134 L2202.71 45.3134 Q2207.41 45.3134 2210.12 43.531 Q2212.88 41.7081 2212.88 38.8725 Q2212.88 36.2799 2210.04 34.4165 Q2207.25 32.5531 2202.43 32.5531 Q2199.55 32.5531 2196.27 33.0797 Q2193.03 33.6063 2189.1 34.7811 L2189.1 28.0161 Q2193.07 27.0438 2196.51 26.5577 Q2199.96 26.0716 2203.03 26.0716 Q2210.97 26.0716 2215.55 29.2718 Q2220.17 32.4315 2220.17 38.1433 Q2220.17 41.9107 2217.74 44.5437 Q2215.31 47.1363 2210.77 48.1085 Z" fill="#000000" fill-rule="nonzero" fill-opacity="1" /><path clip-path="url(#clip700)" d="M2251.69 32.4315 Q2245.69 32.4315 2242.21 37.1306 Q2238.72 41.7891 2238.72 49.9314 Q2238.72 58.0738 2242.17 62.7728 Q2245.65 67.4314 2251.69 67.4314 Q2257.64 67.4314 2261.12 62.7323 Q2264.61 58.0333 2264.61 49.9314 Q2264.61 41.8701 2261.12 37.1711 Q2257.64 32.4315 2251.69 32.4315 M2251.69 26.1121 Q2261.41 26.1121 2266.96 32.4315 Q2272.51 38.7509 2272.51 49.9314 Q2272.51 61.0714 2266.96 67.4314 Q2261.41 73.7508 2251.69 73.7508 Q2241.92 73.7508 2236.37 67.4314 Q2230.86 61.0714 2230.86 49.9314 Q2230.86 38.7509 2236.37 32.4315 Q2241.92 26.1121 2251.69 26.1121 Z" fill="#000000" fill-rule="nonzero" fill-opacity="1" /><path clip-path="url(#clip700)" d="M2292.03 51.6733 L2292.03 66.6212 L2302.65 66.6212 Q2307.75 66.6212 2310.42 64.7172 Q2313.1 62.7728 2313.1 59.127 Q2313.1 55.4812 2310.42 53.5773 Q2307.75 51.6733 2302.65 51.6733 L2292.03 51.6733 M2292.03 33.1607 L2292.03 45.7185 L2301.84 45.7185 Q2306.05 45.7185 2308.72 44.0576 Q2311.4 42.3563 2311.4 39.3586 Q2311.4 36.3609 2308.72 34.7811 Q2306.05 33.1607 2301.84 33.1607 L2292.03 33.1607 M2284.58 27.2059 L2302.32 27.2059 Q2310.3 27.2059 2314.6 30.1225 Q2318.89 33.0392 2318.89 38.4269 Q2318.89 42.5993 2316.7 45.0704 Q2314.52 47.5009 2310.22 48.1085 Q2315.37 49.0808 2318.2 52.1594 Q2321.04 55.2381 2321.04 59.8562 Q2321.04 65.9325 2316.34 69.2543 Q2311.68 72.576 2303.01 72.576 L2284.58 72.576 L2284.58 27.2059 Z" fill="#000000" fill-rule="nonzero" fill-opacity="1" /><path clip-path="url(#clip700)" d="M2376.62 27.2059 L2384.07 27.2059 L2384.07 72.576 L2376.62 72.576 L2376.62 27.2059 M2380.34 26.1121 L2380.34 26.1121 M2361.99 59.127 Q2361.99 55.4812 2359.32 53.5773 Q2356.69 51.6733 2351.58 51.6733 L2340.97 51.6733 L2340.97 66.6212 L2351.58 66.6212 Q2356.69 66.6212 2359.32 64.7172 Q2361.99 62.7728 2361.99 59.127 M2333.47 27.2059 L2340.97 27.2059 L2340.97 45.7185 L2351.91 45.7185 Q2360.57 45.7185 2365.23 49.0402 Q2369.93 52.3215 2369.93 59.127 Q2369.93 65.9325 2365.23 69.2543 Q2360.57 72.576 2351.91 72.576 L2333.47 72.576 L2333.47 27.2059 Z" fill="#000000" fill-rule="nonzero" fill-opacity="1" /><path clip-path="url(#clip700)" d="M2437.82 27.2059 L2437.82 72.576 L2430.41 72.576 L2430.41 36.1584 L2408.54 72.576 L2398.98 72.576 L2398.98 27.2059 L2406.39 27.2059 L2406.39 63.5425 L2428.22 27.2059 L2437.82 27.2059 M2405.74 9.54393 L2410.52 9.54393 Q2410.97 12.5821 2412.91 14.1215 Q2414.9 15.6203 2418.42 15.6203 Q2421.9 15.6203 2423.85 14.1215 Q2425.79 12.6226 2426.32 9.54393 L2431.1 9.54393 Q2430.7 15.3367 2427.49 18.2534 Q2424.29 21.17 2418.42 21.17 Q2412.55 21.17 2409.35 18.2534 Q2406.15 15.3367 2405.74 9.54393 Z" fill="#000000" fill-rule="nonzero" fill-opacity="1" /><path clip-path="url(#clip700)" d="M2476.31 63.9476 Q2482.71 67.4314 2489.07 67.4314 Q2495.02 67.4314 2499.28 63.9881 Q2503.53 60.5043 2504.3 51.6733 L2481.29 51.6733 L2481.29 45.7185 L2504.06 45.7185 Q2503.57 41.4651 2500.33 36.9686 Q2497.13 32.4315 2489.07 32.4315 Q2482.83 32.4315 2476.31 35.9153 L2476.31 28.9478 Q2482.67 26.1121 2489.39 26.1121 Q2500.01 26.1121 2506.08 32.5531 Q2512.2 38.9535 2512.2 49.9314 Q2512.2 60.8689 2506.24 67.3098 Q2500.33 73.7508 2489.92 73.7508 Q2482.26 73.7508 2476.31 70.8341 L2476.31 63.9476 Z" fill="#000000" fill-rule="nonzero" fill-opacity="1" /><path clip-path="url(#clip700)" d="M2524.8 27.2059 L2532.21 27.2059 L2532.21 48.5136 L2553.23 27.2059 L2562.39 27.2059 L2545.05 44.7463 L2564.62 72.576 L2556.27 72.576 L2540.19 49.6884 L2532.21 57.7902 L2532.21 72.576 L2524.8 72.576 L2524.8 27.2059 Z" fill="#000000" fill-rule="nonzero" fill-opacity="1" /><path clip-path="url(#clip700)" d="M2607.84 28.9478 L2607.84 35.9153 Q2604.68 34.1734 2601.48 33.3227 Q2598.32 32.4315 2595.08 32.4315 Q2587.83 32.4315 2583.82 37.0496 Q2579.81 41.6271 2579.81 49.9314 Q2579.81 58.2358 2583.82 62.8538 Q2587.83 67.4314 2595.08 67.4314 Q2598.32 67.4314 2601.48 66.5807 Q2604.68 65.6895 2607.84 63.9476 L2607.84 70.8341 Q2604.72 72.2924 2601.36 73.0216 Q2598.04 73.7508 2594.27 73.7508 Q2584.02 73.7508 2577.99 67.3098 Q2571.95 60.8689 2571.95 49.9314 Q2571.95 38.832 2578.03 32.472 Q2584.14 26.1121 2594.76 26.1121 Q2598.2 26.1121 2601.48 26.8413 Q2604.76 27.5299 2607.84 28.9478 Z" fill="#000000" fill-rule="nonzero" fill-opacity="1" /><path clip-path="url(#clip700)" d="M2659.69 27.2059 L2659.69 72.576 L2652.2 72.576 L2652.2 33.1607 L2628.01 33.1607 L2628.01 72.576 L2620.52 72.576 L2620.52 27.2059 L2659.69 27.2059 Z" fill="#000000" fill-rule="nonzero" fill-opacity="1" /><path clip-path="url(#clip700)" d="M2713.85 48.0275 L2713.85 51.6733 L2679.58 51.6733 Q2680.07 59.3701 2684.2 63.421 Q2688.37 67.4314 2695.79 67.4314 Q2700.08 67.4314 2704.09 66.3781 Q2708.14 65.3249 2712.11 63.2184 L2712.11 70.267 Q2708.1 71.9684 2703.89 72.8596 Q2699.68 73.7508 2695.34 73.7508 Q2684.48 73.7508 2678.12 67.4314 Q2671.8 61.1119 2671.8 50.3365 Q2671.8 39.1965 2677.8 32.6746 Q2683.84 26.1121 2694.04 26.1121 Q2703.2 26.1121 2708.51 32.0264 Q2713.85 37.9003 2713.85 48.0275 M2706.4 45.84 Q2706.32 39.7232 2702.96 36.0774 Q2699.63 32.4315 2694.13 32.4315 Q2687.89 32.4315 2684.12 35.9558 Q2680.39 39.4801 2679.83 45.8805 L2706.4 45.84 Z" fill="#000000" fill-rule="nonzero" fill-opacity="1" /><path clip-path="url(#clip700)" d="M2733.3 65.7705 L2733.3 89.8329 L2725.8 89.8329 L2725.8 27.2059 L2733.3 27.2059 L2733.3 34.0924 Q2735.65 30.0415 2739.21 28.0971 Q2742.82 26.1121 2747.8 26.1121 Q2756.06 26.1121 2761.21 32.6746 Q2766.39 39.2371 2766.39 49.9314 Q2766.39 60.6258 2761.21 67.1883 Q2756.06 73.7508 2747.8 73.7508 Q2742.82 73.7508 2739.21 71.8063 Q2735.65 69.8214 2733.3 65.7705 M2758.66 49.9314 Q2758.66 41.7081 2755.25 37.0496 Q2751.89 32.3505 2745.98 32.3505 Q2740.06 32.3505 2736.66 37.0496 Q2733.3 41.7081 2733.3 49.9314 Q2733.3 58.1548 2736.66 62.8538 Q2740.06 67.5124 2745.98 67.5124 Q2751.89 67.5124 2755.25 62.8538 Q2758.66 58.1548 2758.66 49.9314 Z" fill="#000000" fill-rule="nonzero" fill-opacity="1" /><path clip-path="url(#clip700)" d="M2817.31 27.2059 L2817.31 72.576 L2809.9 72.576 L2809.9 36.1584 L2788.03 72.576 L2778.47 72.576 L2778.47 27.2059 L2785.88 27.2059 L2785.88 63.5425 L2807.71 27.2059 L2817.31 27.2059 Z" fill="#000000" fill-rule="nonzero" fill-opacity="1" /><path clip-path="url(#clip700)" d="M2832.38 27.2059 L2843.28 27.2059 L2856.16 57.5877 L2869.08 27.2059 L2879.9 27.2059 L2879.9 72.576 L2872.41 72.576 L2872.41 34.3355 L2859.89 63.8666 L2852.43 63.8666 L2839.88 34.3355 L2839.88 72.576 L2832.38 72.576 L2832.38 27.2059 Z" fill="#000000" fill-rule="nonzero" fill-opacity="1" /><path clip-path="url(#clip700)" d="M2934.06 48.0275 L2934.06 51.6733 L2899.79 51.6733 Q2900.28 59.3701 2904.41 63.421 Q2908.58 67.4314 2915.99 67.4314 Q2920.29 67.4314 2924.3 66.3781 Q2928.35 65.3249 2932.32 63.2184 L2932.32 70.267 Q2928.31 71.9684 2924.1 72.8596 Q2919.88 73.7508 2915.55 73.7508 Q2904.69 73.7508 2898.33 67.4314 Q2892.01 61.1119 2892.01 50.3365 Q2892.01 39.1965 2898.01 32.6746 Q2904.04 26.1121 2914.25 26.1121 Q2923.41 26.1121 2928.71 32.0264 Q2934.06 37.9003 2934.06 48.0275 M2926.61 45.84 Q2926.53 39.7232 2923.16 36.0774 Q2919.84 32.4315 2914.33 32.4315 Q2908.09 32.4315 2904.33 35.9558 Q2900.6 39.4801 2900.03 45.8805 L2926.61 45.84 Z" fill="#000000" fill-rule="nonzero" fill-opacity="1" /><path clip-path="url(#clip700)" d="M2946.01 27.2059 L2953.5 27.2059 L2953.5 45.7185 L2977.69 45.7185 L2977.69 27.2059 L2985.18 27.2059 L2985.18 72.576 L2977.69 72.576 L2977.69 51.6733 L2953.5 51.6733 L2953.5 72.576 L2946.01 72.576 L2946.01 27.2059 Z" fill="#000000" fill-rule="nonzero" fill-opacity="1" /><path clip-path="url(#clip700)" d="M2995.15 27.2059 L3038.61 27.2059 L3038.61 33.1607 L3020.55 33.1607 L3020.55 72.576 L3013.22 72.576 L3013.22 33.1607 L2995.15 33.1607 L2995.15 27.2059 Z" fill="#000000" fill-rule="nonzero" fill-opacity="1" /><path clip-path="url(#clip700)" d="M3047.69 9.62495 L3054.17 9.62495 Q3060.25 19.1851 3063.24 28.3401 Q3066.28 37.4952 3066.28 46.5287 Q3066.28 55.6027 3063.24 64.7983 Q3060.25 73.9938 3054.17 83.5134 L3047.69 83.5134 Q3053.08 74.2369 3055.71 65.0818 Q3058.38 55.8863 3058.38 46.5287 Q3058.38 37.1711 3055.71 28.0566 Q3053.08 18.942 3047.69 9.62495 Z" fill="#000000" fill-rule="nonzero" fill-opacity="1" /><polyline clip-path="url(#clip702)" style="stroke:#009af9; stroke-linecap:round; stroke-linejoin:round; stroke-width:8; stroke-opacity:1; fill:none" points="321.834,2429.13 355.533,2425.56 389.231,2421.89 422.929,2418.1 456.627,2414.19 490.326,2410.17 524.024,2406.03 557.722,2401.76 591.421,2397.36 625.119,2392.82 658.817,2388.15 692.515,2383.33 726.214,2378.37 759.912,2373.26 793.61,2367.99 827.308,2362.56 861.007,2356.97 894.705,2351.2 928.403,2345.26 962.101,2339.14 995.8,2332.83 1029.5,2326.33 1063.2,2319.63 1096.89,2312.73 1130.59,2305.62 1164.29,2298.29 1197.99,2290.74 1231.69,2282.96 1265.39,2274.94 1299.08,2266.67 1332.78,2258.16 1366.48,2249.38 1400.18,2240.34 1433.88,2231.03 1467.58,2221.43 1501.27,2211.53 1534.97,2201.34 1568.67,2190.84 1602.37,2180.01 1636.07,2168.86 1669.77,2157.36 1703.46,2145.52 1737.16,2133.32 1770.86,2120.74 1804.56,2107.78 1838.26,2094.43 1871.95,2080.66 1905.65,2066.49 1939.35,2051.87 1973.05,2036.82 2006.75,2021.3 2040.45,2005.32 2074.14,1988.84 2107.84,1971.87 2141.54,1954.37 2175.24,1936.35 2208.94,1917.77 2242.64,1898.63 2276.33,1878.91 2310.03,1858.59 2343.73,1837.64 2377.43,1816.06 2411.13,1793.82 2444.83,1770.91 2478.52,1747.29 2512.22,1722.96 2545.92,1697.89 2579.62,1672.05 2613.32,1645.43 2647.01,1618 2680.71,1589.73 2714.41,1560.6 2748.11,1530.58 2781.81,1499.65 2815.51,1467.78 2849.2,1434.93 2882.9,1401.09 2916.6,1366.21 2950.3,1330.27 2984,1293.24 3017.7,1255.07 3051.39,1215.75 3085.09,1175.23 3118.79,1133.47 3152.49,1090.45 3186.19,1046.11 3219.89,1000.42 3253.58,953.348 3287.28,904.839 3320.98,854.853 3354.68,803.345 3388.38,750.268 3422.07,695.574 3455.77,639.213 3489.47,581.135 3523.17,521.287 3556.87,459.615 3590.57,396.064 3624.26,330.578 3657.96,263.097 3691.66,193.563 "/>
<path clip-path="url(#clip700)" d="M339.807 309.166 L867.1 309.166 L867.1 205.486 L339.807 205.486  Z" fill="#ffffff" fill-rule="evenodd" fill-opacity="1"/>
<polyline clip-path="url(#clip700)" style="stroke:#000000; stroke-linecap:round; stroke-linejoin:round; stroke-width:4; stroke-opacity:1; fill:none" points="339.807,309.166 867.1,309.166 867.1,205.486 339.807,205.486 339.807,309.166 "/>
<polyline clip-path="url(#clip700)" style="stroke:#009af9; stroke-linecap:round; stroke-linejoin:round; stroke-width:8; stroke-opacity:1; fill:none" points="379.496,257.326 617.63,257.326 "/>
<path clip-path="url(#clip700)" d="M674.287 262.546 L673.268 257.199 Q672.227 251.713 668.106 251.713 Q665.004 251.713 663.592 254.259 Q661.81 257.453 661.81 261.666 Q661.81 266.759 663.546 269.189 Q665.305 271.666 668.106 271.666 Q671.208 271.666 672.875 266.736 L674.287 262.546 M676.671 255.463 L678.963 248.68 L682.759 248.68 L678.014 262.731 L678.94 267.801 Q679.148 268.935 679.958 269.884 Q680.907 270.995 681.648 270.995 L683.685 270.995 L683.685 274.606 L681.139 274.606 Q678.963 274.606 677.018 272.662 Q676.069 271.689 675.676 269.652 Q674.611 272.222 672.435 274.236 Q671.416 275.185 668.106 275.185 Q662.667 275.185 660.028 271.666 Q657.319 268.032 657.319 261.666 Q657.319 254.861 660.259 251.666 Q663.523 248.102 668.106 248.102 Q675.305 248.102 676.671 255.463 Z" fill="#000000" fill-rule="nonzero" fill-opacity="1" /><path clip-path="url(#clip700)" d="M706.046 253.078 L735.722 253.078 L735.722 256.967 L706.046 256.967 L706.046 253.078 M706.046 262.523 L735.722 262.523 L735.722 266.458 L706.046 266.458 L706.046 262.523 Z" fill="#000000" fill-rule="nonzero" fill-opacity="1" /><path clip-path="url(#clip700)" d="M770.884 243.125 Q767.272 243.125 765.444 246.69 Q763.638 250.231 763.638 257.361 Q763.638 264.467 765.444 268.032 Q767.272 271.574 770.884 271.574 Q774.518 271.574 776.323 268.032 Q778.152 264.467 778.152 257.361 Q778.152 250.231 776.323 246.69 Q774.518 243.125 770.884 243.125 M770.884 239.421 Q776.694 239.421 779.749 244.028 Q782.828 248.611 782.828 257.361 Q782.828 266.088 779.749 270.694 Q776.694 275.277 770.884 275.277 Q765.073 275.277 761.995 270.694 Q758.939 266.088 758.939 257.361 Q758.939 248.611 761.995 244.028 Q765.073 239.421 770.884 239.421 Z" fill="#000000" fill-rule="nonzero" fill-opacity="1" /><path clip-path="url(#clip700)" d="M791.045 268.727 L795.93 268.727 L795.93 274.606 L791.045 274.606 L791.045 268.727 Z" fill="#000000" fill-rule="nonzero" fill-opacity="1" /><path clip-path="url(#clip700)" d="M820.281 255.972 Q823.638 256.69 825.513 258.958 Q827.411 261.227 827.411 264.56 Q827.411 269.676 823.893 272.476 Q820.374 275.277 813.893 275.277 Q811.717 275.277 809.402 274.838 Q807.11 274.421 804.657 273.564 L804.657 269.051 Q806.601 270.185 808.916 270.764 Q811.231 271.342 813.754 271.342 Q818.152 271.342 820.443 269.606 Q822.758 267.87 822.758 264.56 Q822.758 261.504 820.606 259.791 Q818.476 258.055 814.656 258.055 L810.629 258.055 L810.629 254.213 L814.842 254.213 Q818.291 254.213 820.119 252.847 Q821.948 251.458 821.948 248.866 Q821.948 246.203 820.05 244.791 Q818.175 243.356 814.656 243.356 Q812.735 243.356 810.536 243.773 Q808.337 244.19 805.698 245.069 L805.698 240.903 Q808.36 240.162 810.675 239.791 Q813.013 239.421 815.073 239.421 Q820.397 239.421 823.499 241.852 Q826.601 244.259 826.601 248.379 Q826.601 251.25 824.957 253.24 Q823.314 255.208 820.281 255.972 Z" fill="#000000" fill-rule="nonzero" fill-opacity="1" /></svg>
