<?xml version="1.0" encoding="utf-8"?>
<svg xmlns="http://www.w3.org/2000/svg" xmlns:xlink="http://www.w3.org/1999/xlink" width="960" height="672" viewBox="0 0 3840 2688">
<defs>
  <clipPath id="clip500">
    <rect x="0" y="0" width="3840" height="2688"/>
  </clipPath>
</defs>
<path clip-path="url(#clip500)" d="M0 2688 L3840 2688 L3840 0 L0 0  Z" fill="#ffffff" fill-rule="evenodd" fill-opacity="1"/>
<defs>
  <clipPath id="clip501">
    <rect x="252" y="126" width="3542" height="2371"/>
  </clipPath>
</defs>
<path clip-path="url(#clip500)" d="M252.059 2496.2 L3792.76 2496.2 L3792.76 126.496 L252.059 126.496  Z" fill="#ffffff" fill-rule="evenodd" fill-opacity="1"/>
<polyline clip-path="url(#clip501)" style="stroke:#000000; stroke-linecap:round; stroke-linejoin:round; stroke-width:2; stroke-opacity:0.1; fill:none" points="252.059,2496.2 252.059,126.496 "/>
<polyline clip-path="url(#clip501)" style="stroke:#000000; stroke-linecap:round; stroke-linejoin:round; stroke-width:2; stroke-opacity:0.1; fill:none" points="1137.23,2496.2 1137.23,126.496 "/>
<polyline clip-path="url(#clip501)" style="stroke:#000000; stroke-linecap:round; stroke-linejoin:round; stroke-width:2; stroke-opacity:0.1; fill:none" points="2022.41,2496.2 2022.41,126.496 "/>
<polyline clip-path="url(#clip501)" style="stroke:#000000; stroke-linecap:round; stroke-linejoin:round; stroke-width:2; stroke-opacity:0.1; fill:none" points="2907.58,2496.2 2907.58,126.496 "/>
<polyline clip-path="url(#clip501)" style="stroke:#000000; stroke-linecap:round; stroke-linejoin:round; stroke-width:2; stroke-opacity:0.1; fill:none" points="3792.76,2496.2 3792.76,126.496 "/>
<polyline clip-path="url(#clip501)" style="stroke:#000000; stroke-linecap:round; stroke-linejoin:round; stroke-width:2; stroke-opacity:0.1; fill:none" points="252.059,2051.4 3792.76,2051.4 "/>
<polyline clip-path="url(#clip501)" style="stroke:#000000; stroke-linecap:round; stroke-linejoin:round; stroke-width:2; stroke-opacity:0.1; fill:none" points="252.059,1586.94 3792.76,1586.94 "/>
<polyline clip-path="url(#clip501)" style="stroke:#000000; stroke-linecap:round; stroke-linejoin:round; stroke-width:2; stroke-opacity:0.1; fill:none" points="252.059,1122.48 3792.76,1122.48 "/>
<polyline clip-path="url(#clip501)" style="stroke:#000000; stroke-linecap:round; stroke-linejoin:round; stroke-width:2; stroke-opacity:0.1; fill:none" points="252.059,658.023 3792.76,658.023 "/>
<polyline clip-path="url(#clip501)" style="stroke:#000000; stroke-linecap:round; stroke-linejoin:round; stroke-width:2; stroke-opacity:0.1; fill:none" points="252.059,193.563 3792.76,193.563 "/>
<polyline clip-path="url(#clip500)" style="stroke:#000000; stroke-linecap:round; stroke-linejoin:round; stroke-width:4; stroke-opacity:1; fill:none" points="252.059,2496.2 3792.76,2496.2 "/>
<polyline clip-path="url(#clip500)" style="stroke:#000000; stroke-linecap:round; stroke-linejoin:round; stroke-width:4; stroke-opacity:1; fill:none" points="252.059,2496.2 252.059,2477.3 "/>
<polyline clip-path="url(#clip500)" style="stroke:#000000; stroke-linecap:round; stroke-linejoin:round; stroke-width:4; stroke-opacity:1; fill:none" points="1137.23,2496.2 1137.23,2477.3 "/>
<polyline clip-path="url(#clip500)" style="stroke:#000000; stroke-linecap:round; stroke-linejoin:round; stroke-width:4; stroke-opacity:1; fill:none" points="2022.41,2496.2 2022.41,2477.3 "/>
<polyline clip-path="url(#clip500)" style="stroke:#000000; stroke-linecap:round; stroke-linejoin:round; stroke-width:4; stroke-opacity:1; fill:none" points="2907.58,2496.2 2907.58,2477.3 "/>
<polyline clip-path="url(#clip500)" style="stroke:#000000; stroke-linecap:round; stroke-linejoin:round; stroke-width:4; stroke-opacity:1; fill:none" points="3792.76,2496.2 3792.76,2477.3 "/>
<path clip-path="url(#clip500)" d="M252.059 2538.63 Q248.448 2538.63 246.619 2542.2 Q244.814 2545.74 244.814 2552.87 Q244.814 2559.98 246.619 2563.54 Q248.448 2567.08 252.059 2567.08 Q255.693 2567.08 257.499 2563.54 Q259.327 2559.98 259.327 2552.87 Q259.327 2545.74 257.499 2542.2 Q255.693 2538.63 252.059 2538.63 M252.059 2534.93 Q257.869 2534.93 260.925 2539.54 Q264.003 2544.12 264.003 2552.87 Q264.003 2561.6 260.925 2566.2 Q257.869 2570.79 252.059 2570.79 Q246.249 2570.79 243.17 2566.2 Q240.114 2561.6 240.114 2552.87 Q240.114 2544.12 243.17 2539.54 Q246.249 2534.93 252.059 2534.93 Z" fill="#000000" fill-rule="nonzero" fill-opacity="1" /><path clip-path="url(#clip500)" d="M1127.51 2535.56 L1145.87 2535.56 L1145.87 2539.49 L1131.79 2539.49 L1131.79 2547.96 Q1132.81 2547.62 1133.83 2547.45 Q1134.85 2547.27 1135.87 2547.27 Q1141.65 2547.27 1145.03 2550.44 Q1148.41 2553.61 1148.41 2559.03 Q1148.41 2564.61 1144.94 2567.71 Q1141.47 2570.79 1135.15 2570.79 Q1132.97 2570.79 1130.71 2570.42 Q1128.46 2570.05 1126.05 2569.31 L1126.05 2564.61 Q1128.14 2565.74 1130.36 2566.3 Q1132.58 2566.85 1135.06 2566.85 Q1139.06 2566.85 1141.4 2564.75 Q1143.74 2562.64 1143.74 2559.03 Q1143.74 2555.42 1141.4 2553.31 Q1139.06 2551.2 1135.06 2551.2 Q1133.18 2551.2 1131.31 2551.62 Q1129.46 2552.04 1127.51 2552.92 L1127.51 2535.56 Z" fill="#000000" fill-rule="nonzero" fill-opacity="1" /><path clip-path="url(#clip500)" d="M1997.1 2566.18 L2004.73 2566.18 L2004.73 2539.82 L1996.42 2541.48 L1996.42 2537.22 L2004.69 2535.56 L2009.36 2535.56 L2009.36 2566.18 L2017 2566.18 L2017 2570.12 L1997.1 2570.12 L1997.1 2566.18 Z" fill="#000000" fill-rule="nonzero" fill-opacity="1" /><path clip-path="url(#clip500)" d="M2036.45 2538.63 Q2032.84 2538.63 2031.01 2542.2 Q2029.2 2545.74 2029.2 2552.87 Q2029.2 2559.98 2031.01 2563.54 Q2032.84 2567.08 2036.45 2567.08 Q2040.08 2567.08 2041.89 2563.54 Q2043.72 2559.98 2043.72 2552.87 Q2043.72 2545.74 2041.89 2542.2 Q2040.08 2538.63 2036.45 2538.63 M2036.45 2534.93 Q2042.26 2534.93 2045.31 2539.54 Q2048.39 2544.12 2048.39 2552.87 Q2048.39 2561.6 2045.31 2566.2 Q2042.26 2570.79 2036.45 2570.79 Q2030.64 2570.79 2027.56 2566.2 Q2024.5 2561.6 2024.5 2552.87 Q2024.5 2544.12 2027.56 2539.54 Q2030.64 2534.93 2036.45 2534.93 Z" fill="#000000" fill-rule="nonzero" fill-opacity="1" /><path clip-path="url(#clip500)" d="M2882.77 2566.18 L2890.41 2566.18 L2890.41 2539.82 L2882.1 2541.48 L2882.1 2537.22 L2890.36 2535.56 L2895.04 2535.56 L2895.04 2566.18 L2902.67 2566.18 L2902.67 2570.12 L2882.77 2570.12 L2882.77 2566.18 Z" fill="#000000" fill-rule="nonzero" fill-opacity="1" /><path clip-path="url(#clip500)" d="M2912.16 2535.56 L2930.52 2535.56 L2930.52 2539.49 L2916.45 2539.49 L2916.45 2547.96 Q2917.47 2547.62 2918.48 2547.45 Q2919.5 2547.27 2920.52 2547.27 Q2926.31 2547.27 2929.69 2550.44 Q2933.07 2553.61 2933.07 2559.03 Q2933.07 2564.61 2929.6 2567.71 Q2926.12 2570.79 2919.8 2570.79 Q2917.63 2570.79 2915.36 2570.42 Q2913.11 2570.05 2910.71 2569.31 L2910.71 2564.61 Q2912.79 2565.74 2915.01 2566.3 Q2917.23 2566.85 2919.71 2566.85 Q2923.72 2566.85 2926.05 2564.75 Q2928.39 2562.64 2928.39 2559.03 Q2928.39 2555.42 2926.05 2553.31 Q2923.72 2551.2 2919.71 2551.2 Q2917.84 2551.2 2915.96 2551.62 Q2914.11 2552.04 2912.16 2552.92 L2912.16 2535.56 Z" fill="#000000" fill-rule="nonzero" fill-opacity="1" /><path clip-path="url(#clip500)" d="M3771.53 2566.18 L3787.85 2566.18 L3787.85 2570.12 L3765.9 2570.12 L3765.9 2566.18 Q3768.57 2563.43 3773.15 2558.8 Q3777.76 2554.14 3778.94 2552.8 Q3781.18 2550.28 3782.06 2548.54 Q3782.96 2546.78 3782.96 2545.09 Q3782.96 2542.34 3781.02 2540.6 Q3779.1 2538.87 3776 2538.87 Q3773.8 2538.87 3771.34 2539.63 Q3768.91 2540.39 3766.14 2541.94 L3766.14 2537.22 Q3768.96 2536.09 3771.41 2535.51 Q3773.87 2534.93 3775.9 2534.93 Q3781.27 2534.93 3784.47 2537.62 Q3787.66 2540.3 3787.66 2544.79 Q3787.66 2546.92 3786.85 2548.84 Q3786.07 2550.74 3783.96 2553.33 Q3783.38 2554 3780.28 2557.22 Q3777.18 2560.42 3771.53 2566.18 Z" fill="#000000" fill-rule="nonzero" fill-opacity="1" /><path clip-path="url(#clip500)" d="M3807.66 2538.63 Q3804.05 2538.63 3802.22 2542.2 Q3800.42 2545.74 3800.42 2552.87 Q3800.42 2559.98 3802.22 2563.54 Q3804.05 2567.08 3807.66 2567.08 Q3811.3 2567.08 3813.1 2563.54 Q3814.93 2559.98 3814.93 2552.87 Q3814.93 2545.74 3813.1 2542.2 Q3811.3 2538.63 3807.66 2538.63 M3807.66 2534.93 Q3813.47 2534.93 3816.53 2539.54 Q3819.61 2544.12 3819.61 2552.87 Q3819.61 2561.6 3816.53 2566.2 Q3813.47 2570.79 3807.66 2570.79 Q3801.85 2570.79 3798.77 2566.2 Q3795.72 2561.6 3795.72 2552.87 Q3795.72 2544.12 3798.77 2539.54 Q3801.85 2534.93 3807.66 2534.93 Z" fill="#000000" fill-rule="nonzero" fill-opacity="1" /><path clip-path="url(#clip500)" d="M2021.47 2616.89 L2021.47 2627.01 L2033.53 2627.01 L2033.53 2631.56 L2021.47 2631.56 L2021.47 2650.92 Q2021.47 2655.28 2022.65 2656.52 Q2023.86 2657.76 2027.52 2657.76 L2033.53 2657.76 L2033.53 2662.66 L2027.52 2662.66 Q2020.74 2662.66 2018.16 2660.15 Q2015.58 2657.6 2015.58 2650.92 L2015.58 2631.56 L2011.28 2631.56 L2011.28 2627.01 L2015.58 2627.01 L2015.58 2616.89 L2021.47 2616.89 Z" fill="#000000" fill-rule="nonzero" fill-opacity="1" /><polyline clip-path="url(#clip500)" style="stroke:#000000; stroke-linecap:round; stroke-linejoin:round; stroke-width:4; stroke-opacity:1; fill:none" points="252.059,2496.2 252.059,126.496 "/>
<polyline clip-path="url(#clip500)" style="stroke:#000000; stroke-linecap:round; stroke-linejoin:round; stroke-width:4; stroke-opacity:1; fill:none" points="252.059,2051.4 270.956,2051.4 "/>
<polyline clip-path="url(#clip500)" style="stroke:#000000; stroke-linecap:round; stroke-linejoin:round; stroke-width:4; stroke-opacity:1; fill:none" points="252.059,1586.94 270.956,1586.94 "/>
<polyline clip-path="url(#clip500)" style="stroke:#000000; stroke-linecap:round; stroke-linejoin:round; stroke-width:4; stroke-opacity:1; fill:none" points="252.059,1122.48 270.956,1122.48 "/>
<polyline clip-path="url(#clip500)" style="stroke:#000000; stroke-linecap:round; stroke-linejoin:round; stroke-width:4; stroke-opacity:1; fill:none" points="252.059,658.023 270.956,658.023 "/>
<polyline clip-path="url(#clip500)" style="stroke:#000000; stroke-linecap:round; stroke-linejoin:round; stroke-width:4; stroke-opacity:1; fill:none" points="252.059,193.563 270.956,193.563 "/>
<path clip-path="url(#clip500)" d="M113.001 2064.75 L120.64 2064.75 L120.64 2038.38 L112.33 2040.05 L112.33 2035.79 L120.594 2034.12 L125.269 2034.12 L125.269 2064.75 L132.908 2064.75 L132.908 2068.68 L113.001 2068.68 L113.001 2064.75 Z" fill="#000000" fill-rule="nonzero" fill-opacity="1" /><path clip-path="url(#clip500)" d="M152.353 2037.2 Q148.742 2037.2 146.913 2040.76 Q145.107 2044.31 145.107 2051.44 Q145.107 2058.54 146.913 2062.11 Q148.742 2065.65 152.353 2065.65 Q155.987 2065.65 157.792 2062.11 Q159.621 2058.54 159.621 2051.44 Q159.621 2044.31 157.792 2040.76 Q155.987 2037.2 152.353 2037.2 M152.353 2033.5 Q158.163 2033.5 161.218 2038.1 Q164.297 2042.69 164.297 2051.44 Q164.297 2060.16 161.218 2064.77 Q158.163 2069.35 152.353 2069.35 Q146.542 2069.35 143.464 2064.77 Q140.408 2060.16 140.408 2051.44 Q140.408 2042.69 143.464 2038.1 Q146.542 2033.5 152.353 2033.5 Z" fill="#000000" fill-rule="nonzero" fill-opacity="1" /><path clip-path="url(#clip500)" d="M182.514 2037.2 Q178.903 2037.2 177.075 2040.76 Q175.269 2044.31 175.269 2051.44 Q175.269 2058.54 177.075 2062.11 Q178.903 2065.65 182.514 2065.65 Q186.149 2065.65 187.954 2062.11 Q189.783 2058.54 189.783 2051.44 Q189.783 2044.31 187.954 2040.76 Q186.149 2037.2 182.514 2037.2 M182.514 2033.5 Q188.325 2033.5 191.38 2038.1 Q194.459 2042.69 194.459 2051.44 Q194.459 2060.16 191.38 2064.77 Q188.325 2069.35 182.514 2069.35 Q176.704 2069.35 173.626 2064.77 Q170.57 2060.16 170.57 2051.44 Q170.57 2042.69 173.626 2038.1 Q176.704 2033.5 182.514 2033.5 Z" fill="#000000" fill-rule="nonzero" fill-opacity="1" /><path clip-path="url(#clip500)" d="M116.219 1600.29 L132.538 1600.29 L132.538 1604.22 L110.594 1604.22 L110.594 1600.29 Q113.256 1597.53 117.839 1592.9 Q122.445 1588.25 123.626 1586.91 Q125.871 1584.38 126.751 1582.65 Q127.654 1580.89 127.654 1579.2 Q127.654 1576.44 125.709 1574.71 Q123.788 1572.97 120.686 1572.97 Q118.487 1572.97 116.033 1573.74 Q113.603 1574.5 110.825 1576.05 L110.825 1571.33 Q113.649 1570.19 116.103 1569.62 Q118.556 1569.04 120.594 1569.04 Q125.964 1569.04 129.158 1571.72 Q132.353 1574.41 132.353 1578.9 Q132.353 1581.03 131.543 1582.95 Q130.755 1584.85 128.649 1587.44 Q128.07 1588.11 124.968 1591.33 Q121.867 1594.52 116.219 1600.29 Z" fill="#000000" fill-rule="nonzero" fill-opacity="1" /><path clip-path="url(#clip500)" d="M152.353 1572.74 Q148.742 1572.74 146.913 1576.3 Q145.107 1579.85 145.107 1586.98 Q145.107 1594.08 146.913 1597.65 Q148.742 1601.19 152.353 1601.19 Q155.987 1601.19 157.792 1597.65 Q159.621 1594.08 159.621 1586.98 Q159.621 1579.85 157.792 1576.3 Q155.987 1572.74 152.353 1572.74 M152.353 1569.04 Q158.163 1569.04 161.218 1573.64 Q164.297 1578.23 164.297 1586.98 Q164.297 1595.7 161.218 1600.31 Q158.163 1604.89 152.353 1604.89 Q146.542 1604.89 143.464 1600.31 Q140.408 1595.7 140.408 1586.98 Q140.408 1578.23 143.464 1573.64 Q146.542 1569.04 152.353 1569.04 Z" fill="#000000" fill-rule="nonzero" fill-opacity="1" /><path clip-path="url(#clip500)" d="M182.514 1572.74 Q178.903 1572.74 177.075 1576.3 Q175.269 1579.85 175.269 1586.98 Q175.269 1594.08 177.075 1597.65 Q178.903 1601.19 182.514 1601.19 Q186.149 1601.19 187.954 1597.65 Q189.783 1594.08 189.783 1586.98 Q189.783 1579.85 187.954 1576.3 Q186.149 1572.74 182.514 1572.74 M182.514 1569.04 Q188.325 1569.04 191.38 1573.64 Q194.459 1578.23 194.459 1586.98 Q194.459 1595.7 191.38 1600.31 Q188.325 1604.89 182.514 1604.89 Q176.704 1604.89 173.626 1600.31 Q170.57 1595.7 170.57 1586.98 Q170.57 1578.23 173.626 1573.64 Q176.704 1569.04 182.514 1569.04 Z" fill="#000000" fill-rule="nonzero" fill-opacity="1" /><path clip-path="url(#clip500)" d="M126.357 1121.13 Q129.714 1121.85 131.589 1124.11 Q133.487 1126.38 133.487 1129.72 Q133.487 1134.83 129.968 1137.63 Q126.45 1140.43 119.969 1140.43 Q117.793 1140.43 115.478 1139.99 Q113.186 1139.58 110.732 1138.72 L110.732 1134.21 Q112.677 1135.34 114.992 1135.92 Q117.306 1136.5 119.83 1136.5 Q124.228 1136.5 126.519 1134.76 Q128.834 1133.03 128.834 1129.72 Q128.834 1126.66 126.681 1124.95 Q124.552 1123.21 120.732 1123.21 L116.705 1123.21 L116.705 1119.37 L120.918 1119.37 Q124.367 1119.37 126.195 1118 Q128.024 1116.61 128.024 1114.02 Q128.024 1111.36 126.126 1109.95 Q124.251 1108.51 120.732 1108.51 Q118.811 1108.51 116.612 1108.93 Q114.413 1109.35 111.774 1110.23 L111.774 1106.06 Q114.436 1105.32 116.751 1104.95 Q119.089 1104.58 121.149 1104.58 Q126.473 1104.58 129.575 1107.01 Q132.677 1109.41 132.677 1113.54 Q132.677 1116.41 131.033 1118.4 Q129.39 1120.36 126.357 1121.13 Z" fill="#000000" fill-rule="nonzero" fill-opacity="1" /><path clip-path="url(#clip500)" d="M152.353 1108.28 Q148.742 1108.28 146.913 1111.85 Q145.107 1115.39 145.107 1122.52 Q145.107 1129.62 146.913 1133.19 Q148.742 1136.73 152.353 1136.73 Q155.987 1136.73 157.792 1133.19 Q159.621 1129.62 159.621 1122.52 Q159.621 1115.39 157.792 1111.85 Q155.987 1108.28 152.353 1108.28 M152.353 1104.58 Q158.163 1104.58 161.218 1109.18 Q164.297 1113.77 164.297 1122.52 Q164.297 1131.24 161.218 1135.85 Q158.163 1140.43 152.353 1140.43 Q146.542 1140.43 143.464 1135.85 Q140.408 1131.24 140.408 1122.52 Q140.408 1113.77 143.464 1109.18 Q146.542 1104.58 152.353 1104.58 Z" fill="#000000" fill-rule="nonzero" fill-opacity="1" /><path clip-path="url(#clip500)" d="M182.514 1108.28 Q178.903 1108.28 177.075 1111.85 Q175.269 1115.39 175.269 1122.52 Q175.269 1129.62 177.075 1133.19 Q178.903 1136.73 182.514 1136.73 Q186.149 1136.73 187.954 1133.19 Q189.783 1129.62 189.783 1122.52 Q189.783 1115.39 187.954 1111.85 Q186.149 1108.28 182.514 1108.28 M182.514 1104.58 Q188.325 1104.58 191.38 1109.18 Q194.459 1113.77 194.459 1122.52 Q194.459 1131.24 191.38 1135.85 Q188.325 1140.43 182.514 1140.43 Q176.704 1140.43 173.626 1135.85 Q170.57 1131.24 170.57 1122.52 Q170.57 1113.77 173.626 1109.18 Q176.704 1104.58 182.514 1104.58 Z" fill="#000000" fill-rule="nonzero" fill-opacity="1" /><path clip-path="url(#clip500)" d="M125.038 644.817 L113.232 663.266 L125.038 663.266 L125.038 644.817 M123.811 640.743 L129.691 640.743 L129.691 663.266 L134.621 663.266 L134.621 667.154 L129.691 667.154 L129.691 675.303 L125.038 675.303 L125.038 667.154 L109.436 667.154 L109.436 662.641 L123.811 640.743 Z" fill="#000000" fill-rule="nonzero" fill-opacity="1" /><path clip-path="url(#clip500)" d="M152.353 643.821 Q148.742 643.821 146.913 647.386 Q145.107 650.928 145.107 658.057 Q145.107 665.164 146.913 668.728 Q148.742 672.27 152.353 672.27 Q155.987 672.27 157.792 668.728 Q159.621 665.164 159.621 658.057 Q159.621 650.928 157.792 647.386 Q155.987 643.821 152.353 643.821 M152.353 640.118 Q158.163 640.118 161.218 644.724 Q164.297 649.307 164.297 658.057 Q164.297 666.784 161.218 671.391 Q158.163 675.974 152.353 675.974 Q146.542 675.974 143.464 671.391 Q140.408 666.784 140.408 658.057 Q140.408 649.307 143.464 644.724 Q146.542 640.118 152.353 640.118 Z" fill="#000000" fill-rule="nonzero" fill-opacity="1" /><path clip-path="url(#clip500)" d="M182.514 643.821 Q178.903 643.821 177.075 647.386 Q175.269 650.928 175.269 658.057 Q175.269 665.164 177.075 668.728 Q178.903 672.27 182.514 672.27 Q186.149 672.27 187.954 668.728 Q189.783 665.164 189.783 658.057 Q189.783 650.928 187.954 647.386 Q186.149 643.821 182.514 643.821 M182.514 640.118 Q188.325 640.118 191.38 644.724 Q194.459 649.307 194.459 658.057 Q194.459 666.784 191.38 671.391 Q188.325 675.974 182.514 675.974 Q176.704 675.974 173.626 671.391 Q170.57 666.784 170.57 658.057 Q170.57 649.307 173.626 644.724 Q176.704 640.118 182.514 640.118 Z" fill="#000000" fill-rule="nonzero" fill-opacity="1" /><path clip-path="url(#clip500)" d="M112.237 176.283 L130.593 176.283 L130.593 180.218 L116.519 180.218 L116.519 188.69 Q117.538 188.343 118.556 188.181 Q119.575 187.996 120.594 187.996 Q126.381 187.996 129.76 191.167 Q133.14 194.339 133.14 199.755 Q133.14 205.334 129.668 208.436 Q126.195 211.514 119.876 211.514 Q117.7 211.514 115.431 211.144 Q113.186 210.774 110.779 210.033 L110.779 205.334 Q112.862 206.468 115.084 207.024 Q117.306 207.579 119.783 207.579 Q123.788 207.579 126.126 205.473 Q128.464 203.366 128.464 199.755 Q128.464 196.144 126.126 194.038 Q123.788 191.931 119.783 191.931 Q117.908 191.931 116.033 192.348 Q114.182 192.764 112.237 193.644 L112.237 176.283 Z" fill="#000000" fill-rule="nonzero" fill-opacity="1" /><path clip-path="url(#clip500)" d="M152.353 179.362 Q148.742 179.362 146.913 182.927 Q145.107 186.468 145.107 193.598 Q145.107 200.704 146.913 204.269 Q148.742 207.811 152.353 207.811 Q155.987 207.811 157.792 204.269 Q159.621 200.704 159.621 193.598 Q159.621 186.468 157.792 182.927 Q155.987 179.362 152.353 179.362 M152.353 175.658 Q158.163 175.658 161.218 180.265 Q164.297 184.848 164.297 193.598 Q164.297 202.325 161.218 206.931 Q158.163 211.514 152.353 211.514 Q146.542 211.514 143.464 206.931 Q140.408 202.325 140.408 193.598 Q140.408 184.848 143.464 180.265 Q146.542 175.658 152.353 175.658 Z" fill="#000000" fill-rule="nonzero" fill-opacity="1" /><path clip-path="url(#clip500)" d="M182.514 179.362 Q178.903 179.362 177.075 182.927 Q175.269 186.468 175.269 193.598 Q175.269 200.704 177.075 204.269 Q178.903 207.811 182.514 207.811 Q186.149 207.811 187.954 204.269 Q189.783 200.704 189.783 193.598 Q189.783 186.468 187.954 182.927 Q186.149 179.362 182.514 179.362 M182.514 175.658 Q188.325 175.658 191.38 180.265 Q194.459 184.848 194.459 193.598 Q194.459 202.325 191.38 206.931 Q188.325 211.514 182.514 211.514 Q176.704 211.514 173.626 206.931 Q170.57 202.325 170.57 193.598 Q170.57 184.848 173.626 180.265 Q176.704 175.658 182.514 175.658 Z" fill="#000000" fill-rule="nonzero" fill-opacity="1" /><path clip-path="url(#clip500)" d="M37.5802 1501.38 L18.1011 1501.38 L18.1011 1514.65 Q18.1011 1520.57 14.409 1524.1 Q10.685 1527.64 3.10986 1527.64 L-9.93984 1527.64 L-9.93984 1521.24 L2.6006 1521.24 Q7.66134 1521.24 10.1758 1519.27 Q12.6902 1517.29 12.6902 1513.35 L12.6902 1501.38 L-9.93984 1501.38 L-9.93984 1494.92 L37.5802 1494.92 L37.5802 1501.38 Z" fill="#000000" fill-rule="nonzero" fill-opacity="1" /><path clip-path="url(#clip500)" d="M1.9322 1452.08 L37.5802 1452.08 L37.5802 1457.9 L8.96631 1457.9 L37.5802 1475.09 L37.5802 1482.6 L1.9322 1482.6 L1.9322 1476.77 L30.4824 1476.77 L1.9322 1459.62 L1.9322 1452.08 Z" fill="#000000" fill-rule="nonzero" fill-opacity="1" /><path clip-path="url(#clip500)" d="M3.30083 1414.36 L8.77533 1414.36 Q7.40671 1416.84 6.73831 1419.36 Q6.03808 1421.84 6.03808 1424.39 Q6.03808 1430.08 9.66653 1433.23 Q13.2632 1436.38 19.788 1436.38 Q26.3129 1436.38 29.9413 1433.23 Q33.5379 1430.08 33.5379 1424.39 Q33.5379 1421.84 32.8695 1419.36 Q32.1693 1416.84 30.8007 1414.36 L36.2115 1414.36 Q37.3574 1416.81 37.9303 1419.45 Q38.5032 1422.06 38.5032 1425.02 Q38.5032 1433.07 33.4424 1437.82 Q28.3817 1442.56 19.788 1442.56 Q11.067 1442.56 6.06991 1437.78 Q1.07283 1432.98 1.07283 1424.64 Q1.07283 1421.93 1.64574 1419.36 Q2.18683 1416.78 3.30083 1414.36 Z" fill="#000000" fill-rule="nonzero" fill-opacity="1" /><path clip-path="url(#clip500)" d="M37.5802 1407.9 L32.7104 1407.9 Q31.8192 1402.11 27.8088 1400.32 Q22.1751 1398.16 7.75682 1398.16 L1.9322 1398.16 L1.9322 1374.06 L37.5802 1374.06 L37.5802 1379.92 L6.61099 1379.92 L6.61099 1392.3 L10.144 1392.3 Q23.8939 1392.3 30.0686 1395.1 Q36.6571 1398.09 37.5802 1407.9 Z" fill="#000000" fill-rule="nonzero" fill-opacity="1" /><path clip-path="url(#clip500)" d="M18.2921 1332.02 L21.1566 1332.02 L21.1566 1358.95 Q27.2041 1358.56 30.3869 1355.32 Q33.5379 1352.04 33.5379 1346.21 Q33.5379 1342.84 32.7104 1339.69 Q31.8829 1336.51 30.2278 1333.39 L35.7659 1333.39 Q37.1027 1336.54 37.803 1339.85 Q38.5032 1343.16 38.5032 1346.56 Q38.5032 1355.09 33.5379 1360.09 Q28.5727 1365.06 20.1063 1365.06 Q11.3534 1365.06 6.22905 1360.35 Q1.07283 1355.6 1.07283 1347.58 Q1.07283 1340.39 5.7198 1336.22 Q10.3349 1332.02 18.2921 1332.02 M16.5733 1337.88 Q11.7672 1337.94 8.90265 1340.58 Q6.03808 1343.19 6.03808 1347.52 Q6.03808 1352.42 8.80716 1355.38 Q11.5762 1358.31 16.6052 1358.75 L16.5733 1337.88 Z" fill="#000000" fill-rule="nonzero" fill-opacity="1" /><path clip-path="url(#clip500)" d="M1.9322 1322.63 L1.9322 1316.74 L16.4778 1316.74 L16.4778 1297.74 L1.9322 1297.74 L1.9322 1291.85 L37.5802 1291.85 L37.5802 1297.74 L21.1566 1297.74 L21.1566 1316.74 L37.5802 1316.74 L37.5802 1322.63 L1.9322 1322.63 Z" fill="#000000" fill-rule="nonzero" fill-opacity="1" /><path clip-path="url(#clip500)" d="M1.9322 1280.01 L1.9322 1274.12 L16.4778 1274.12 L16.4778 1255.12 L1.9322 1255.12 L1.9322 1249.23 L37.5802 1249.23 L37.5802 1255.12 L21.1566 1255.12 L21.1566 1274.12 L37.5802 1274.12 L37.5802 1280.01 L1.9322 1280.01 Z" fill="#000000" fill-rule="nonzero" fill-opacity="1" /><path clip-path="url(#clip500)" d="M6.03808 1223.36 Q6.03808 1228.07 9.73019 1230.8 Q13.3905 1233.54 19.788 1233.54 Q26.1855 1233.54 29.8777 1230.84 Q33.5379 1228.1 33.5379 1223.36 Q33.5379 1218.68 29.8458 1215.94 Q26.1537 1213.2 19.788 1213.2 Q13.4541 1213.2 9.76202 1215.94 Q6.03808 1218.68 6.03808 1223.36 M1.07283 1223.36 Q1.07283 1215.72 6.03808 1211.36 Q11.0033 1207 19.788 1207 Q28.5409 1207 33.5379 1211.36 Q38.5032 1215.72 38.5032 1223.36 Q38.5032 1231.03 33.5379 1235.39 Q28.5409 1239.72 19.788 1239.72 Q11.0033 1239.72 6.03808 1235.39 Q1.07283 1231.03 1.07283 1223.36 Z" fill="#000000" fill-rule="nonzero" fill-opacity="1" /><path clip-path="url(#clip500)" d="M3.30083 1171.63 L8.77533 1171.63 Q7.40671 1174.12 6.73831 1176.63 Q6.03808 1179.11 6.03808 1181.66 Q6.03808 1187.36 9.66653 1190.51 Q13.2632 1193.66 19.788 1193.66 Q26.3129 1193.66 29.9413 1190.51 Q33.5379 1187.36 33.5379 1181.66 Q33.5379 1179.11 32.8695 1176.63 Q32.1693 1174.12 30.8007 1171.63 L36.2115 1171.63 Q37.3574 1174.09 37.9303 1176.73 Q38.5032 1179.34 38.5032 1182.3 Q38.5032 1190.35 33.4424 1195.09 Q28.3817 1199.83 19.788 1199.83 Q11.067 1199.83 6.06991 1195.06 Q1.07283 1190.25 1.07283 1181.92 Q1.07283 1179.21 1.64574 1176.63 Q2.18683 1174.05 3.30083 1171.63 Z" fill="#000000" fill-rule="nonzero" fill-opacity="1" /><path clip-path="url(#clip500)" d="M1.9322 1165.68 L1.9322 1131.53 L6.61099 1131.53 L6.61099 1145.73 L37.5802 1145.73 L37.5802 1151.49 L6.61099 1151.49 L6.61099 1165.68 L1.9322 1165.68 Z" fill="#000000" fill-rule="nonzero" fill-opacity="1" /><path clip-path="url(#clip500)" d="M27.0131 1101.29 Q24.1485 1101.29 22.6526 1103.39 Q21.1566 1105.46 21.1566 1109.47 L21.1566 1117.81 L32.9014 1117.81 L32.9014 1109.47 Q32.9014 1105.46 31.4054 1103.39 Q29.8777 1101.29 27.0131 1101.29 M1.9322 1123.7 L1.9322 1117.81 L16.4778 1117.81 L16.4778 1109.22 Q16.4778 1102.41 19.0878 1098.75 Q21.6659 1095.06 27.0131 1095.06 Q32.3603 1095.06 34.9702 1098.75 Q37.5802 1102.41 37.5802 1109.22 L37.5802 1123.7 L1.9322 1123.7 Z" fill="#000000" fill-rule="nonzero" fill-opacity="1" /><path clip-path="url(#clip500)" d="M894.717 12.096 L906.91 12.096 L922.344 53.2532 L937.859 12.096 L950.052 12.096 L950.052 72.576 L942.072 72.576 L942.072 19.4686 L926.476 60.9499 L918.252 60.9499 L902.656 19.4686 L902.656 72.576 L894.717 72.576 L894.717 12.096 Z" fill="#000000" fill-rule="nonzero" fill-opacity="1" /><path clip-path="url(#clip500)" d="M983.553 32.4315 Q977.558 32.4315 974.074 37.1306 Q970.59 41.7891 970.59 49.9314 Q970.59 58.0738 974.033 62.7728 Q977.517 67.4314 983.553 67.4314 Q989.508 67.4314 992.992 62.7323 Q996.475 58.0333 996.475 49.9314 Q996.475 41.8701 992.992 37.1711 Q989.508 32.4315 983.553 32.4315 M983.553 26.1121 Q993.275 26.1121 998.825 32.4315 Q1004.37 38.7509 1004.37 49.9314 Q1004.37 61.0714 998.825 67.4314 Q993.275 73.7508 983.553 73.7508 Q973.79 73.7508 968.241 67.4314 Q962.731 61.0714 962.731 49.9314 Q962.731 38.7509 968.241 32.4315 Q973.79 26.1121 983.553 26.1121 Z" fill="#000000" fill-rule="nonzero" fill-opacity="1" /><path clip-path="url(#clip500)" d="M1026.86 66.6212 L1048.49 66.6212 L1048.49 33.1607 L1032.81 33.1607 L1032.81 38.832 Q1032.81 55.5217 1028.03 64.4337 L1026.86 66.6212 M1016.04 66.6212 Q1019.73 65.0008 1021.35 61.5575 Q1025.32 53.0101 1025.32 35.7938 L1025.32 27.2059 L1055.98 27.2059 L1055.98 66.6212 L1061.94 66.6212 L1061.94 84.0401 L1055.98 84.0401 L1055.98 72.576 L1019.2 72.576 L1019.2 84.0401 L1013.25 84.0401 L1013.25 66.6212 L1016.04 66.6212 Z" fill="#000000" fill-rule="nonzero" fill-opacity="1" /><path clip-path="url(#clip500)" d="M1112.9 48.0275 L1112.9 51.6733 L1078.63 51.6733 Q1079.11 59.3701 1083.25 63.421 Q1087.42 67.4314 1094.83 67.4314 Q1099.13 67.4314 1103.14 66.3781 Q1107.19 65.3249 1111.16 63.2184 L1111.16 70.267 Q1107.15 71.9684 1102.93 72.8596 Q1098.72 73.7508 1094.39 73.7508 Q1083.53 73.7508 1077.17 67.4314 Q1070.85 61.1119 1070.85 50.3365 Q1070.85 39.1965 1076.85 32.6746 Q1082.88 26.1121 1093.09 26.1121 Q1102.24 26.1121 1107.55 32.0264 Q1112.9 37.9003 1112.9 48.0275 M1105.44 45.84 Q1105.36 39.7232 1102 36.0774 Q1098.68 32.4315 1093.17 32.4315 Q1086.93 32.4315 1083.16 35.9558 Q1079.44 39.4801 1078.87 45.8805 L1105.44 45.84 Z" fill="#000000" fill-rule="nonzero" fill-opacity="1" /><path clip-path="url(#clip500)" d="M1120.39 72.576 L1120.39 66.3781 Q1127.77 65.2439 1130.03 60.1397 Q1132.79 52.9696 1132.79 34.619 L1132.79 27.2059 L1163.45 27.2059 L1163.45 72.576 L1156 72.576 L1156 33.1607 L1140.24 33.1607 L1140.24 37.6572 Q1140.24 55.1571 1136.68 63.0159 Q1132.87 71.4012 1120.39 72.576 Z" fill="#000000" fill-rule="nonzero" fill-opacity="1" /><path clip-path="url(#clip500)" d="M1206.39 59.127 Q1206.39 55.4812 1203.72 53.5773 Q1201.09 51.6733 1195.98 51.6733 L1185.37 51.6733 L1185.37 66.6212 L1195.98 66.6212 Q1201.09 66.6212 1203.72 64.7172 Q1206.39 62.7728 1206.39 59.127 M1177.87 27.2059 L1185.37 27.2059 L1185.37 45.7185 L1196.31 45.7185 Q1204.98 45.7185 1209.63 49.0402 Q1214.33 52.3215 1214.33 59.127 Q1214.33 65.9325 1209.63 69.2543 Q1204.98 72.576 1196.31 72.576 L1177.87 72.576 L1177.87 27.2059 Z" fill="#000000" fill-rule="nonzero" fill-opacity="1" /><path clip-path="url(#clip500)" d="M1279.27 39.9662 Q1285.14 41.222 1288.42 45.1919 Q1291.75 49.1618 1291.75 54.9951 Q1291.75 63.9476 1285.59 68.8492 Q1279.43 73.7508 1268.09 73.7508 Q1264.28 73.7508 1260.23 72.9811 Q1256.22 72.2519 1251.93 70.7531 L1251.93 62.8538 Q1255.33 64.8388 1259.38 65.8515 Q1263.43 66.8642 1267.85 66.8642 Q1275.54 66.8642 1279.55 63.826 Q1283.6 60.7879 1283.6 54.9951 Q1283.6 49.6479 1279.84 46.6502 Q1276.11 43.612 1269.43 43.612 L1262.38 43.612 L1262.38 36.8875 L1269.75 36.8875 Q1275.79 36.8875 1278.99 34.4975 Q1282.19 32.067 1282.19 27.5299 Q1282.19 22.8714 1278.86 20.4004 Q1275.58 17.8888 1269.43 17.8888 Q1266.06 17.8888 1262.21 18.618 Q1258.37 19.3471 1253.75 20.8865 L1253.75 13.5948 Q1258.41 12.2985 1262.46 11.6504 Q1266.55 11.0023 1270.15 11.0023 Q1279.47 11.0023 1284.9 15.2557 Q1290.33 19.4686 1290.33 26.6793 Q1290.33 31.7024 1287.45 35.1862 Q1284.58 38.6294 1279.27 39.9662 Z" fill="#000000" fill-rule="nonzero" fill-opacity="1" /><path clip-path="url(#clip500)" d="M1308.11 62.2867 L1316.66 62.2867 L1316.66 72.576 L1308.11 72.576 L1308.11 62.2867 M1308.11 29.6769 L1316.66 29.6769 L1316.66 39.9662 L1308.11 39.9662 L1308.11 29.6769 Z" fill="#000000" fill-rule="nonzero" fill-opacity="1" /><path clip-path="url(#clip500)" d="M1399.42 27.2059 L1399.42 72.576 L1391.92 72.576 L1391.92 33.1607 L1367.74 33.1607 L1367.74 72.576 L1360.25 72.576 L1360.25 27.2059 L1399.42 27.2059 Z" fill="#000000" fill-rule="nonzero" fill-opacity="1" /><path clip-path="url(#clip500)" d="M1435.39 49.7694 Q1426.36 49.7694 1422.87 51.8354 Q1419.39 53.9013 1419.39 58.8839 Q1419.39 62.8538 1421.98 65.2034 Q1424.62 67.5124 1429.11 67.5124 Q1435.31 67.5124 1439.04 63.1374 Q1442.8 58.7219 1442.8 51.4303 L1442.8 49.7694 L1435.39 49.7694 M1450.26 46.6907 L1450.26 72.576 L1442.8 72.576 L1442.8 65.6895 Q1440.25 69.8214 1436.44 71.8063 Q1432.64 73.7508 1427.13 73.7508 Q1420.16 73.7508 1416.03 69.8619 Q1411.94 65.9325 1411.94 59.3701 Q1411.94 51.7138 1417.04 47.825 Q1422.18 43.9361 1432.35 43.9361 L1442.8 43.9361 L1442.8 43.2069 Q1442.8 38.0623 1439.4 35.2672 Q1436.04 32.4315 1429.92 32.4315 Q1426.03 32.4315 1422.35 33.3632 Q1418.66 34.295 1415.26 36.1584 L1415.26 29.2718 Q1419.35 27.692 1423.2 26.9223 Q1427.05 26.1121 1430.69 26.1121 Q1440.54 26.1121 1445.4 31.2163 Q1450.26 36.3204 1450.26 46.6907 Z" fill="#000000" fill-rule="nonzero" fill-opacity="1" /><path clip-path="url(#clip500)" d="M1472.82 65.7705 L1472.82 89.8329 L1465.33 89.8329 L1465.33 27.2059 L1472.82 27.2059 L1472.82 34.0924 Q1475.17 30.0415 1478.74 28.0971 Q1482.34 26.1121 1487.32 26.1121 Q1495.59 26.1121 1500.73 32.6746 Q1505.92 39.2371 1505.92 49.9314 Q1505.92 60.6258 1500.73 67.1883 Q1495.59 73.7508 1487.32 73.7508 Q1482.34 73.7508 1478.74 71.8063 Q1475.17 69.8214 1472.82 65.7705 M1498.18 49.9314 Q1498.18 41.7081 1494.78 37.0496 Q1491.41 32.3505 1485.5 32.3505 Q1479.59 32.3505 1476.18 37.0496 Q1472.82 41.7081 1472.82 49.9314 Q1472.82 58.1548 1476.18 62.8538 Q1479.59 67.5124 1485.5 67.5124 Q1491.41 67.5124 1494.78 62.8538 Q1498.18 58.1548 1498.18 49.9314 Z" fill="#000000" fill-rule="nonzero" fill-opacity="1" /><path clip-path="url(#clip500)" d="M1512.88 27.2059 L1556.35 27.2059 L1556.35 33.1607 L1538.28 33.1607 L1538.28 72.576 L1530.95 72.576 L1530.95 33.1607 L1512.88 33.1607 L1512.88 27.2059 Z" fill="#000000" fill-rule="nonzero" fill-opacity="1" /><path clip-path="url(#clip500)" d="M1605.16 27.2059 L1605.16 72.576 L1597.75 72.576 L1597.75 36.1584 L1575.88 72.576 L1566.32 72.576 L1566.32 27.2059 L1573.73 27.2059 L1573.73 63.5425 L1595.56 27.2059 L1605.16 27.2059 Z" fill="#000000" fill-rule="nonzero" fill-opacity="1" /><path clip-path="url(#clip500)" d="M1641.3 48.1085 Q1646.32 49.0808 1649.12 52.0379 Q1651.91 54.9951 1651.91 59.3701 Q1651.91 66.3781 1646.69 70.0644 Q1641.46 73.7508 1631.82 73.7508 Q1628.58 73.7508 1625.14 73.1836 Q1621.73 72.6165 1618.09 71.4823 L1618.09 64.5552 Q1620.96 66.054 1624.41 66.8237 Q1627.85 67.5529 1631.62 67.5529 Q1637.73 67.5529 1641.14 65.2844 Q1644.58 63.0159 1644.58 59.3701 Q1644.58 55.8053 1641.54 53.6583 Q1638.5 51.4708 1632.95 51.4708 L1626.96 51.4708 L1626.96 45.3134 L1633.24 45.3134 Q1637.94 45.3134 1640.65 43.531 Q1643.4 41.7081 1643.4 38.8725 Q1643.4 36.2799 1640.57 34.4165 Q1637.77 32.5531 1632.95 32.5531 Q1630.08 32.5531 1626.8 33.0797 Q1623.56 33.6063 1619.63 34.7811 L1619.63 28.0161 Q1623.6 27.0438 1627.04 26.5577 Q1630.48 26.0716 1633.56 26.0716 Q1641.5 26.0716 1646.08 29.2718 Q1650.7 32.4315 1650.7 38.1433 Q1650.7 41.9107 1648.27 44.5437 Q1645.84 47.1363 1641.3 48.1085 Z" fill="#000000" fill-rule="nonzero" fill-opacity="1" /><path clip-path="url(#clip500)" d="M1685.25 49.7694 Q1676.22 49.7694 1672.73 51.8354 Q1669.25 53.9013 1669.25 58.8839 Q1669.25 62.8538 1671.84 65.2034 Q1674.48 67.5124 1678.97 67.5124 Q1685.17 67.5124 1688.9 63.1374 Q1692.66 58.7219 1692.66 51.4303 L1692.66 49.7694 L1685.25 49.7694 M1700.12 46.6907 L1700.12 72.576 L1692.66 72.576 L1692.66 65.6895 Q1690.11 69.8214 1686.3 71.8063 Q1682.5 73.7508 1676.99 73.7508 Q1670.02 73.7508 1665.89 69.8619 Q1661.8 65.9325 1661.8 59.3701 Q1661.8 51.7138 1666.9 47.825 Q1672.04 43.9361 1682.21 43.9361 L1692.66 43.9361 L1692.66 43.2069 Q1692.66 38.0623 1689.26 35.2672 Q1685.9 32.4315 1679.78 32.4315 Q1675.89 32.4315 1672.21 33.3632 Q1668.52 34.295 1665.12 36.1584 L1665.12 29.2718 Q1669.21 27.692 1673.06 26.9223 Q1676.91 26.1121 1680.55 26.1121 Q1690.4 26.1121 1695.26 31.2163 Q1700.12 36.3204 1700.12 46.6907 Z" fill="#000000" fill-rule="nonzero" fill-opacity="1" /><path clip-path="url(#clip500)" d="M1715.19 27.2059 L1722.68 27.2059 L1722.68 45.7185 L1746.86 45.7185 L1746.86 27.2059 L1754.36 27.2059 L1754.36 72.576 L1746.86 72.576 L1746.86 51.6733 L1722.68 51.6733 L1722.68 72.576 L1715.19 72.576 L1715.19 27.2059 Z" fill="#000000" fill-rule="nonzero" fill-opacity="1" /><path clip-path="url(#clip500)" d="M1802.36 28.9478 L1802.36 35.9153 Q1799.2 34.1734 1796 33.3227 Q1792.84 32.4315 1789.6 32.4315 Q1782.35 32.4315 1778.34 37.0496 Q1774.33 41.6271 1774.33 49.9314 Q1774.33 58.2358 1778.34 62.8538 Q1782.35 67.4314 1789.6 67.4314 Q1792.84 67.4314 1796 66.5807 Q1799.2 65.6895 1802.36 63.9476 L1802.36 70.8341 Q1799.24 72.2924 1795.88 73.0216 Q1792.56 73.7508 1788.79 73.7508 Q1778.54 73.7508 1772.51 67.3098 Q1766.47 60.8689 1766.47 49.9314 Q1766.47 38.832 1772.55 32.472 Q1778.66 26.1121 1789.28 26.1121 Q1792.72 26.1121 1796 26.8413 Q1799.28 27.5299 1802.36 28.9478 Z" fill="#000000" fill-rule="nonzero" fill-opacity="1" /><path clip-path="url(#clip500)" d="M1815.04 27.2059 L1822.45 27.2059 L1822.45 48.5136 L1843.48 27.2059 L1852.63 27.2059 L1835.3 44.7463 L1854.86 72.576 L1846.52 72.576 L1830.44 49.6884 L1822.45 57.7902 L1822.45 72.576 L1815.04 72.576 L1815.04 27.2059 Z" fill="#000000" fill-rule="nonzero" fill-opacity="1" /><path clip-path="url(#clip500)" d="M1904 27.2059 L1904 72.576 L1896.59 72.576 L1896.59 36.1584 L1874.71 72.576 L1865.15 72.576 L1865.15 27.2059 L1872.56 27.2059 L1872.56 63.5425 L1894.4 27.2059 L1904 27.2059 Z" fill="#000000" fill-rule="nonzero" fill-opacity="1" /><path clip-path="url(#clip500)" d="M1958.16 48.0275 L1958.16 51.6733 L1923.89 51.6733 Q1924.38 59.3701 1928.51 63.421 Q1932.68 67.4314 1940.09 67.4314 Q1944.39 67.4314 1948.4 66.3781 Q1952.45 65.3249 1956.42 63.2184 L1956.42 70.267 Q1952.41 71.9684 1948.19 72.8596 Q1943.98 73.7508 1939.65 73.7508 Q1928.79 73.7508 1922.43 67.4314 Q1916.11 61.1119 1916.11 50.3365 Q1916.11 39.1965 1922.11 32.6746 Q1928.14 26.1121 1938.35 26.1121 Q1947.51 26.1121 1952.81 32.0264 Q1958.16 37.9003 1958.16 48.0275 M1950.71 45.84 Q1950.63 39.7232 1947.26 36.0774 Q1943.94 32.4315 1938.43 32.4315 Q1932.19 32.4315 1928.43 35.9558 Q1924.7 39.4801 1924.13 45.8805 L1950.71 45.84 Z" fill="#000000" fill-rule="nonzero" fill-opacity="1" /><path clip-path="url(#clip500)" d="M2014.35 32.4315 Q2008.35 32.4315 2004.87 37.1306 Q2001.38 41.7891 2001.38 49.9314 Q2001.38 58.0738 2004.83 62.7728 Q2008.31 67.4314 2014.35 67.4314 Q2020.3 67.4314 2023.78 62.7323 Q2027.27 58.0333 2027.27 49.9314 Q2027.27 41.8701 2023.78 37.1711 Q2020.3 32.4315 2014.35 32.4315 M2014.35 26.1121 Q2024.07 26.1121 2029.62 32.4315 Q2035.17 38.7509 2035.17 49.9314 Q2035.17 61.0714 2029.62 67.4314 Q2024.07 73.7508 2014.35 73.7508 Q2004.58 73.7508 1999.03 67.4314 Q1993.52 61.0714 1993.52 49.9314 Q1993.52 38.7509 1999.03 32.4315 Q2004.58 26.1121 2014.35 26.1121 Z" fill="#000000" fill-rule="nonzero" fill-opacity="1" /><path clip-path="url(#clip500)" d="M2042.14 27.2059 L2085.6 27.2059 L2085.6 33.1607 L2067.53 33.1607 L2067.53 72.576 L2060.2 72.576 L2060.2 33.1607 L2042.14 33.1607 L2042.14 27.2059 Z" fill="#000000" fill-rule="nonzero" fill-opacity="1" /><path clip-path="url(#clip500)" d="M2103.06 65.7705 L2103.06 89.8329 L2095.57 89.8329 L2095.57 27.2059 L2103.06 27.2059 L2103.06 34.0924 Q2105.41 30.0415 2108.98 28.0971 Q2112.58 26.1121 2117.56 26.1121 Q2125.83 26.1121 2130.97 32.6746 Q2136.16 39.2371 2136.16 49.9314 Q2136.16 60.6258 2130.97 67.1883 Q2125.83 73.7508 2117.56 73.7508 Q2112.58 73.7508 2108.98 71.8063 Q2105.41 69.8214 2103.06 65.7705 M2128.42 49.9314 Q2128.42 41.7081 2125.02 37.0496 Q2121.65 32.3505 2115.74 32.3505 Q2109.83 32.3505 2106.42 37.0496 Q2103.06 41.7081 2103.06 49.9314 Q2103.06 58.1548 2106.42 62.8538 Q2109.83 67.5124 2115.74 67.5124 Q2121.65 67.5124 2125.02 62.8538 Q2128.42 58.1548 2128.42 49.9314 Z" fill="#000000" fill-rule="nonzero" fill-opacity="1" /><path clip-path="url(#clip500)" d="M2156.01 40.2903 Q2156.01 43.6525 2158.6 45.5565 Q2161.19 47.4604 2166.01 47.4604 L2176.06 47.4604 L2176.06 33.1607 L2166.01 33.1607 Q2161.19 33.1607 2158.6 35.0241 Q2156.01 36.8875 2156.01 40.2903 M2145.39 72.576 L2159.25 52.6861 Q2154.55 51.6328 2151.43 48.8782 Q2148.31 46.0831 2148.31 40.2903 Q2148.31 33.7278 2152.64 30.4871 Q2157.02 27.2059 2165.81 27.2059 L2183.55 27.2059 L2183.55 72.576 L2176.06 72.576 L2176.06 53.4152 L2166.78 53.4152 L2153.41 72.576 L2145.39 72.576 Z" fill="#000000" fill-rule="nonzero" fill-opacity="1" /><path clip-path="url(#clip500)" d="M2208.55 66.6212 L2230.18 66.6212 L2230.18 33.1607 L2214.5 33.1607 L2214.5 38.832 Q2214.5 55.5217 2209.72 64.4337 L2208.55 66.6212 M2197.73 66.6212 Q2201.42 65.0008 2203.04 61.5575 Q2207.01 53.0101 2207.01 35.7938 L2207.01 27.2059 L2237.67 27.2059 L2237.67 66.6212 L2243.63 66.6212 L2243.63 84.0401 L2237.67 84.0401 L2237.67 72.576 L2200.89 72.576 L2200.89 84.0401 L2194.94 84.0401 L2194.94 66.6212 L2197.73 66.6212 Z" fill="#000000" fill-rule="nonzero" fill-opacity="1" /><path clip-path="url(#clip500)" d="M2298.64 27.2059 L2306.09 27.2059 L2306.09 72.576 L2298.64 72.576 L2298.64 27.2059 M2302.37 26.1121 L2302.37 26.1121 M2284.01 59.127 Q2284.01 55.4812 2281.34 53.5773 Q2278.71 51.6733 2273.6 51.6733 L2262.99 51.6733 L2262.99 66.6212 L2273.6 66.6212 Q2278.71 66.6212 2281.34 64.7172 Q2284.01 62.7728 2284.01 59.127 M2255.5 27.2059 L2262.99 27.2059 L2262.99 45.7185 L2273.93 45.7185 Q2282.6 45.7185 2287.26 49.0402 Q2291.95 52.3215 2291.95 59.127 Q2291.95 65.9325 2287.26 69.2543 Q2282.6 72.576 2273.93 72.576 L2255.5 72.576 L2255.5 27.2059 Z" fill="#000000" fill-rule="nonzero" fill-opacity="1" /><path clip-path="url(#clip500)" d="M2357.78 66.6212 L2379.41 66.6212 L2379.41 33.1607 L2363.74 33.1607 L2363.74 38.832 Q2363.74 55.5217 2358.96 64.4337 L2357.78 66.6212 M2346.97 66.6212 Q2350.65 65.0008 2352.27 61.5575 Q2356.24 53.0101 2356.24 35.7938 L2356.24 27.2059 L2386.91 27.2059 L2386.91 66.6212 L2392.86 66.6212 L2392.86 84.0401 L2386.91 84.0401 L2386.91 72.576 L2350.13 72.576 L2350.13 84.0401 L2344.17 84.0401 L2344.17 66.6212 L2346.97 66.6212 Z" fill="#000000" fill-rule="nonzero" fill-opacity="1" /><path clip-path="url(#clip500)" d="M2412.23 65.7705 L2412.23 89.8329 L2404.73 89.8329 L2404.73 27.2059 L2412.23 27.2059 L2412.23 34.0924 Q2414.58 30.0415 2418.14 28.0971 Q2421.75 26.1121 2426.73 26.1121 Q2434.99 26.1121 2440.14 32.6746 Q2445.32 39.2371 2445.32 49.9314 Q2445.32 60.6258 2440.14 67.1883 Q2434.99 73.7508 2426.73 73.7508 Q2421.75 73.7508 2418.14 71.8063 Q2414.58 69.8214 2412.23 65.7705 M2437.58 49.9314 Q2437.58 41.7081 2434.18 37.0496 Q2430.82 32.3505 2424.91 32.3505 Q2418.99 32.3505 2415.59 37.0496 Q2412.23 41.7081 2412.23 49.9314 Q2412.23 58.1548 2415.59 62.8538 Q2418.99 67.5124 2424.91 67.5124 Q2430.82 67.5124 2434.18 62.8538 Q2437.58 58.1548 2437.58 49.9314 Z" fill="#000000" fill-rule="nonzero" fill-opacity="1" /><path clip-path="url(#clip500)" d="M2476.55 76.7889 Q2473.39 84.8907 2470.4 87.3618 Q2467.4 89.8329 2462.38 89.8329 L2456.42 89.8329 L2456.42 83.5945 L2460.8 83.5945 Q2463.87 83.5945 2465.58 82.1361 Q2467.28 80.6778 2469.34 75.2496 L2470.68 71.8468 L2452.33 27.2059 L2460.23 27.2059 L2474.41 62.6918 L2488.59 27.2059 L2496.48 27.2059 L2476.55 76.7889 Z" fill="#000000" fill-rule="nonzero" fill-opacity="1" /><path clip-path="url(#clip500)" d="M2506.49 72.576 L2506.49 27.2059 L2538.49 27.2059 L2538.49 33.1607 L2513.98 33.1607 L2513.98 72.576 L2506.49 72.576 Z" fill="#000000" fill-rule="nonzero" fill-opacity="1" /><path clip-path="url(#clip500)" d="M2615.62 27.2059 L2615.62 72.576 L2608.13 72.576 L2608.13 33.1607 L2583.94 33.1607 L2583.94 72.576 L2576.45 72.576 L2576.45 27.2059 L2615.62 27.2059 Z" fill="#000000" fill-rule="nonzero" fill-opacity="1" /><path clip-path="url(#clip500)" d="M2638.19 65.7705 L2638.19 89.8329 L2630.69 89.8329 L2630.69 27.2059 L2638.19 27.2059 L2638.19 34.0924 Q2640.53 30.0415 2644.1 28.0971 Q2647.7 26.1121 2652.69 26.1121 Q2660.95 26.1121 2666.1 32.6746 Q2671.28 39.2371 2671.28 49.9314 Q2671.28 60.6258 2666.1 67.1883 Q2660.95 73.7508 2652.69 73.7508 Q2647.7 73.7508 2644.1 71.8063 Q2640.53 69.8214 2638.19 65.7705 M2663.54 49.9314 Q2663.54 41.7081 2660.14 37.0496 Q2656.78 32.3505 2650.86 32.3505 Q2644.95 32.3505 2641.55 37.0496 Q2638.19 41.7081 2638.19 49.9314 Q2638.19 58.1548 2641.55 62.8538 Q2644.95 67.5124 2650.86 67.5124 Q2656.78 67.5124 2660.14 62.8538 Q2663.54 58.1548 2663.54 49.9314 Z" fill="#000000" fill-rule="nonzero" fill-opacity="1" /><path clip-path="url(#clip500)" d="M2701.22 32.4315 Q2695.22 32.4315 2691.74 37.1306 Q2688.25 41.7891 2688.25 49.9314 Q2688.25 58.0738 2691.7 62.7728 Q2695.18 67.4314 2701.22 67.4314 Q2707.17 67.4314 2710.66 62.7323 Q2714.14 58.0333 2714.14 49.9314 Q2714.14 41.8701 2710.66 37.1711 Q2707.17 32.4315 2701.22 32.4315 M2701.22 26.1121 Q2710.94 26.1121 2716.49 32.4315 Q2722.04 38.7509 2722.04 49.9314 Q2722.04 61.0714 2716.49 67.4314 Q2710.94 73.7508 2701.22 73.7508 Q2691.45 73.7508 2685.9 67.4314 Q2680.4 61.0714 2680.4 49.9314 Q2680.4 38.7509 2685.9 32.4315 Q2691.45 26.1121 2701.22 26.1121 Z" fill="#000000" fill-rule="nonzero" fill-opacity="1" /><path clip-path="url(#clip500)" d="M2729.01 27.2059 L2772.47 27.2059 L2772.47 33.1607 L2754.41 33.1607 L2754.41 72.576 L2747.07 72.576 L2747.07 33.1607 L2729.01 33.1607 L2729.01 27.2059 Z" fill="#000000" fill-rule="nonzero" fill-opacity="1" /><path clip-path="url(#clip500)" d="M2821.29 27.2059 L2821.29 72.576 L2813.87 72.576 L2813.87 36.1584 L2792 72.576 L2782.44 72.576 L2782.44 27.2059 L2789.85 27.2059 L2789.85 63.5425 L2811.69 27.2059 L2821.29 27.2059 Z" fill="#000000" fill-rule="nonzero" fill-opacity="1" /><path clip-path="url(#clip500)" d="M2843.81 51.6733 L2843.81 66.6212 L2854.42 66.6212 Q2859.53 66.6212 2862.2 64.7172 Q2864.87 62.7728 2864.87 59.127 Q2864.87 55.4812 2862.2 53.5773 Q2859.53 51.6733 2854.42 51.6733 L2843.81 51.6733 M2843.81 33.1607 L2843.81 45.7185 L2853.61 45.7185 Q2857.83 45.7185 2860.5 44.0576 Q2863.17 42.3563 2863.17 39.3586 Q2863.17 36.3609 2860.5 34.7811 Q2857.83 33.1607 2853.61 33.1607 L2843.81 33.1607 M2836.36 27.2059 L2854.1 27.2059 Q2862.08 27.2059 2866.37 30.1225 Q2870.67 33.0392 2870.67 38.4269 Q2870.67 42.5993 2868.48 45.0704 Q2866.29 47.5009 2862 48.1085 Q2867.14 49.0808 2869.98 52.1594 Q2872.81 55.2381 2872.81 59.8562 Q2872.81 65.9325 2868.11 69.2543 Q2863.46 72.576 2854.79 72.576 L2836.36 72.576 L2836.36 27.2059 Z" fill="#000000" fill-rule="nonzero" fill-opacity="1" /><path clip-path="url(#clip500)" d="M2922.03 66.6212 L2943.66 66.6212 L2943.66 33.1607 L2927.99 33.1607 L2927.99 38.832 Q2927.99 55.5217 2923.21 64.4337 L2922.03 66.6212 M2911.22 66.6212 Q2914.9 65.0008 2916.52 61.5575 Q2920.49 53.0101 2920.49 35.7938 L2920.49 27.2059 L2951.16 27.2059 L2951.16 66.6212 L2957.11 66.6212 L2957.11 84.0401 L2951.16 84.0401 L2951.16 72.576 L2914.38 72.576 L2914.38 84.0401 L2908.42 84.0401 L2908.42 66.6212 L2911.22 66.6212 Z" fill="#000000" fill-rule="nonzero" fill-opacity="1" /><path clip-path="url(#clip500)" d="M2976.48 65.7705 L2976.48 89.8329 L2968.98 89.8329 L2968.98 27.2059 L2976.48 27.2059 L2976.48 34.0924 Q2978.83 30.0415 2982.39 28.0971 Q2986 26.1121 2990.98 26.1121 Q2999.24 26.1121 3004.39 32.6746 Q3009.57 39.2371 3009.57 49.9314 Q3009.57 60.6258 3004.39 67.1883 Q2999.24 73.7508 2990.98 73.7508 Q2986 73.7508 2982.39 71.8063 Q2978.83 69.8214 2976.48 65.7705 M3001.84 49.9314 Q3001.84 41.7081 2998.43 37.0496 Q2995.07 32.3505 2989.16 32.3505 Q2983.24 32.3505 2979.84 37.0496 Q2976.48 41.7081 2976.48 49.9314 Q2976.48 58.1548 2979.84 62.8538 Q2983.24 67.5124 2989.16 67.5124 Q2995.07 67.5124 2998.43 62.8538 Q3001.84 58.1548 3001.84 49.9314 Z" fill="#000000" fill-rule="nonzero" fill-opacity="1" /><path clip-path="url(#clip500)" d="M3040.8 76.7889 Q3037.64 84.8907 3034.65 87.3618 Q3031.65 89.8329 3026.63 89.8329 L3020.67 89.8329 L3020.67 83.5945 L3025.05 83.5945 Q3028.13 83.5945 3029.83 82.1361 Q3031.53 80.6778 3033.59 75.2496 L3034.93 71.8468 L3016.58 27.2059 L3024.48 27.2059 L3038.66 62.6918 L3052.84 27.2059 L3060.74 27.2059 L3040.8 76.7889 Z" fill="#000000" fill-rule="nonzero" fill-opacity="1" /><path clip-path="url(#clip500)" d="M3070.74 72.576 L3070.74 27.2059 L3102.74 27.2059 L3102.74 33.1607 L3078.24 33.1607 L3078.24 72.576 L3070.74 72.576 Z" fill="#000000" fill-rule="nonzero" fill-opacity="1" /><path clip-path="url(#clip500)" d="M3135.23 49.7694 Q3126.2 49.7694 3122.71 51.8354 Q3119.23 53.9013 3119.23 58.8839 Q3119.23 62.8538 3121.82 65.2034 Q3124.46 67.5124 3128.95 67.5124 Q3135.15 67.5124 3138.88 63.1374 Q3142.64 58.7219 3142.64 51.4303 L3142.64 49.7694 L3135.23 49.7694 M3150.1 46.6907 L3150.1 72.576 L3142.64 72.576 L3142.64 65.6895 Q3140.09 69.8214 3136.28 71.8063 Q3132.48 73.7508 3126.97 73.7508 Q3120 73.7508 3115.87 69.8619 Q3111.78 65.9325 3111.78 59.3701 Q3111.78 51.7138 3116.88 47.825 Q3122.03 43.9361 3132.19 43.9361 L3142.64 43.9361 L3142.64 43.2069 Q3142.64 38.0623 3139.24 35.2672 Q3135.88 32.4315 3129.76 32.4315 Q3125.87 32.4315 3122.19 33.3632 Q3118.5 34.295 3115.1 36.1584 L3115.1 29.2718 Q3119.19 27.692 3123.04 26.9223 Q3126.89 26.1121 3130.53 26.1121 Q3140.38 26.1121 3145.24 31.2163 Q3150.1 36.3204 3150.1 46.6907 Z" fill="#000000" fill-rule="nonzero" fill-opacity="1" /><polyline clip-path="url(#clip501)" style="stroke:#0000ff; stroke-linecap:round; stroke-linejoin:round; stroke-width:8; stroke-opacity:1; fill:none" points="252.059,193.563 287.466,371.429 322.873,521.769 358.28,650.524 393.687,762.012 429.094,859.483 464.501,945.454 499.908,1021.83 535.315,1090.12 570.722,1151.56 606.129,1207.13 641.536,1257.64 676.942,1303.73 712.349,1345.95 747.756,1384.78 783.163,1420.63 818.57,1453.84 853.977,1484.66 889.384,1513.35 924.791,1540.13 960.198,1565.17 995.605,1588.65 1031.01,1610.72 1066.42,1631.48 1101.83,1651.07 1137.23,1669.57 1172.64,1687.06 1208.05,1703.63 1243.45,1719.35 1278.86,1734.27 1314.27,1748.48 1349.67,1762.02 1385.08,1774.93 1420.49,1787.28 1455.9,1799.08 1491.3,1810.39 1526.71,1821.22 1562.12,1831.6 1597.52,1841.56 1632.93,1851.14 1668.34,1860.34 1703.74,1869.19 1739.15,1877.72 1774.56,1885.94 1809.97,1893.86 1845.37,1901.51 1880.78,1908.9 1916.19,1916.05 1951.59,1922.96 1987,1929.64 2022.41,1936.11 2057.81,1942.38 2093.22,1948.46 2128.63,1954.36 2164.04,1960.08 2199.44,1965.63 2234.85,1971.03 2270.26,1976.28 2305.66,1981.38 2341.07,1986.34 2376.48,1991.18 2411.88,1995.88 2447.29,2000.47 2482.7,2004.94 2518.1,2009.3 2553.51,2013.55 2588.92,2017.7 2624.33,2021.75 2659.73,2025.71 2695.14,2029.57 2730.55,2033.35 2765.95,2037.04 2801.36,2040.65 2836.77,2044.18 2872.17,2047.63 2907.58,2051.01 2942.99,2054.33 2978.4,2057.57 3013.8,2060.75 3049.21,2063.87 3084.62,2066.92 3120.02,2069.92 3155.43,2072.86 3190.84,2075.74 3226.24,2078.57 3261.65,2081.35 3297.06,2084.08 3332.47,2086.76 3367.87,2089.39 3403.28,2091.98 3438.69,2094.52 3474.09,2097.02 3509.5,2099.48 3544.91,2101.9 3580.31,2104.28 3615.72,2106.62 3651.13,2108.93 3686.53,2111.19 3721.94,2113.43 3757.35,2115.63 3792.76,2117.79 "/>
<polyline clip-path="url(#clip501)" style="stroke:#ffa500; stroke-linecap:round; stroke-linejoin:round; stroke-width:8; stroke-opacity:1; fill:none" points="252.059,658.023 287.466,834.035 322.873,982.528 358.28,1109.44 393.687,1219.1 429.094,1314.75 464.501,1398.9 499.908,1473.46 535.315,1539.95 570.722,1599.59 606.129,1653.38 641.536,1702.1 676.942,1746.42 712.349,1786.87 747.756,1823.95 783.163,1858.05 818.57,1889.5 853.977,1918.58 889.384,1945.55 924.791,1970.6 960.198,1993.92 995.605,2015.69 1031.01,2036.05 1066.42,2055.12 1101.83,2073.01 1137.23,2089.83 1172.64,2105.64 1208.05,2120.54 1243.45,2134.59 1278.86,2147.86 1314.27,2160.42 1349.67,2172.31 1385.08,2183.59 1420.49,2194.3 1455.9,2204.48 1491.3,2214.17 1526.71,2223.39 1562.12,2232.17 1597.52,2240.53 1632.93,2248.51 1668.34,2256.12 1703.74,2263.4 1739.15,2270.35 1774.56,2277 1809.97,2283.37 1845.37,2289.46 1880.78,2295.3 1916.19,2300.9 1951.59,2306.28 1987,2311.43 2022.41,2316.38 2057.81,2321.13 2093.22,2325.7 2128.63,2330.09 2164.04,2334.31 2199.44,2338.37 2234.85,2342.28 2270.26,2346.04 2305.66,2349.67 2341.07,2353.16 2376.48,2356.53 2411.88,2359.78 2447.29,2362.92 2482.7,2365.94 2518.1,2368.86 2553.51,2371.67 2588.92,2374.39 2624.33,2377.02 2659.73,2379.56 2695.14,2382.01 2730.55,2384.38 2765.95,2386.67 2801.36,2388.88 2836.77,2391.02 2872.17,2393.09 2907.58,2395.09 2942.99,2397.03 2978.4,2398.91 3013.8,2400.72 3049.21,2402.48 3084.62,2404.19 3120.02,2405.84 3155.43,2407.44 3190.84,2408.98 3226.24,2410.49 3261.65,2411.94 3297.06,2413.35 3332.47,2414.71 3367.87,2416.04 3403.28,2417.32 3438.69,2418.57 3474.09,2419.77 3509.5,2420.94 3544.91,2422.08 3580.31,2423.18 3615.72,2424.25 3651.13,2425.28 3686.53,2426.29 3721.94,2427.26 3757.35,2428.21 3792.76,2429.13 "/>
<path clip-path="url(#clip500)" d="M2843.54 361.006 L3674.73 361.006 L3674.73 205.486 L2843.54 205.486  Z" fill="#ffffff" fill-rule="evenodd" fill-opacity="1"/>
<polyline clip-path="url(#clip500)" style="stroke:#000000; stroke-linecap:round; stroke-linejoin:round; stroke-width:4; stroke-opacity:1; fill:none" points="2843.54,361.006 3674.73,361.006 3674.73,205.486 2843.54,205.486 2843.54,361.006 "/>
<polyline clip-path="url(#clip500)" style="stroke:#0000ff; stroke-linecap:round; stroke-linejoin:round; stroke-width:8; stroke-opacity:1; fill:none" points="2882.88,257.326 3118.92,257.326 "/>
<path clip-path="url(#clip500)" d="M3182.92 248.68 L3173.54 261.296 L3183.4 274.606 L3178.38 274.606 L3170.83 264.421 L3163.29 274.606 L3158.26 274.606 L3168.33 261.041 L3159.12 248.68 L3164.14 248.68 L3171.02 257.916 L3177.89 248.68 L3182.92 248.68 Z" fill="#000000" fill-rule="nonzero" fill-opacity="1" /><path clip-path="url(#clip500)" d="M3199.65 238.634 Q3196.55 243.958 3195.05 249.166 Q3193.54 254.375 3193.54 259.722 Q3193.54 265.069 3195.05 270.324 Q3196.57 275.555 3199.65 280.856 L3195.95 280.856 Q3192.48 275.416 3190.74 270.162 Q3189.03 264.907 3189.03 259.722 Q3189.03 254.56 3190.74 249.328 Q3192.45 244.097 3195.95 238.634 L3199.65 238.634 Z" fill="#000000" fill-rule="nonzero" fill-opacity="1" /><path clip-path="url(#clip500)" d="M3212.13 241.319 L3212.13 248.68 L3220.9 248.68 L3220.9 251.99 L3212.13 251.99 L3212.13 266.064 Q3212.13 269.236 3212.99 270.139 Q3213.87 271.041 3216.53 271.041 L3220.9 271.041 L3220.9 274.606 L3216.53 274.606 Q3211.6 274.606 3209.72 272.777 Q3207.85 270.926 3207.85 266.064 L3207.85 251.99 L3204.72 251.99 L3204.72 248.68 L3207.85 248.68 L3207.85 241.319 L3212.13 241.319 Z" fill="#000000" fill-rule="nonzero" fill-opacity="1" /><path clip-path="url(#clip500)" d="M3225.83 238.634 L3229.54 238.634 Q3233.01 244.097 3234.72 249.328 Q3236.46 254.56 3236.46 259.722 Q3236.46 264.907 3234.72 270.162 Q3233.01 275.416 3229.54 280.856 L3225.83 280.856 Q3228.91 275.555 3230.42 270.324 Q3231.94 265.069 3231.94 259.722 Q3231.94 254.375 3230.42 249.166 Q3228.91 243.958 3225.83 238.634 Z" fill="#000000" fill-rule="nonzero" fill-opacity="1" /><path clip-path="url(#clip500)" d="M3257.92 259.953 L3300.69 259.953 L3300.69 263.287 L3257.92 263.287 L3257.92 259.953 Z" fill="#000000" fill-rule="nonzero" fill-opacity="1" /><path clip-path="url(#clip500)" d="M3344.77 248.68 L3344.77 274.606 L3340.49 274.606 L3340.49 252.083 L3326.67 252.083 L3326.67 274.606 L3322.38 274.606 L3322.38 248.68 L3344.77 248.68 Z" fill="#000000" fill-rule="nonzero" fill-opacity="1" /><path clip-path="url(#clip500)" d="M3365.32 261.574 Q3360.16 261.574 3358.17 262.754 Q3356.18 263.935 3356.18 266.782 Q3356.18 269.051 3357.66 270.393 Q3359.17 271.713 3361.74 271.713 Q3365.28 271.713 3367.41 269.213 Q3369.56 266.689 3369.56 262.523 L3369.56 261.574 L3365.32 261.574 M3373.82 259.815 L3373.82 274.606 L3369.56 274.606 L3369.56 270.671 Q3368.1 273.032 3365.93 274.166 Q3363.75 275.277 3360.6 275.277 Q3356.62 275.277 3354.26 273.055 Q3351.92 270.81 3351.92 267.06 Q3351.92 262.685 3354.84 260.463 Q3357.78 258.24 3363.59 258.24 L3369.56 258.24 L3369.56 257.824 Q3369.56 254.884 3367.62 253.287 Q3365.69 251.666 3362.2 251.666 Q3359.98 251.666 3357.87 252.199 Q3355.76 252.731 3353.82 253.796 L3353.82 249.861 Q3356.16 248.958 3358.36 248.518 Q3360.56 248.055 3362.64 248.055 Q3368.26 248.055 3371.04 250.972 Q3373.82 253.889 3373.82 259.815 Z" fill="#000000" fill-rule="nonzero" fill-opacity="1" /><path clip-path="url(#clip500)" d="M3386.71 270.717 L3386.71 284.467 L3382.43 284.467 L3382.43 248.68 L3386.71 248.68 L3386.71 252.615 Q3388.05 250.301 3390.09 249.19 Q3392.15 248.055 3395 248.055 Q3399.72 248.055 3402.66 251.805 Q3405.62 255.555 3405.62 261.666 Q3405.62 267.777 3402.66 271.527 Q3399.72 275.277 3395 275.277 Q3392.15 275.277 3390.09 274.166 Q3388.05 273.032 3386.71 270.717 M3401.2 261.666 Q3401.2 256.967 3399.26 254.305 Q3397.34 251.62 3393.96 251.62 Q3390.58 251.62 3388.63 254.305 Q3386.71 256.967 3386.71 261.666 Q3386.71 266.365 3388.63 269.051 Q3390.58 271.713 3393.96 271.713 Q3397.34 271.713 3399.26 269.051 Q3401.2 266.365 3401.2 261.666 Z" fill="#000000" fill-rule="nonzero" fill-opacity="1" /><path clip-path="url(#clip500)" d="M3409.61 248.68 L3434.44 248.68 L3434.44 252.083 L3424.12 252.083 L3424.12 274.606 L3419.93 274.606 L3419.93 252.083 L3409.61 252.083 L3409.61 248.68 Z" fill="#000000" fill-rule="nonzero" fill-opacity="1" /><path clip-path="url(#clip500)" d="M3462.34 248.68 L3462.34 274.606 L3458.1 274.606 L3458.1 253.796 L3445.6 274.606 L3440.14 274.606 L3440.14 248.68 L3444.37 248.68 L3444.37 269.444 L3456.85 248.68 L3462.34 248.68 Z" fill="#000000" fill-rule="nonzero" fill-opacity="1" /><path clip-path="url(#clip500)" d="M3482.99 260.625 Q3485.86 261.18 3487.45 262.87 Q3489.05 264.56 3489.05 267.06 Q3489.05 271.064 3486.06 273.171 Q3483.08 275.277 3477.57 275.277 Q3475.72 275.277 3473.75 274.953 Q3471.8 274.629 3469.72 273.981 L3469.72 270.023 Q3471.36 270.879 3473.33 271.319 Q3475.3 271.736 3477.45 271.736 Q3480.95 271.736 3482.89 270.439 Q3484.86 269.143 3484.86 267.06 Q3484.86 265.023 3483.12 263.796 Q3481.39 262.546 3478.22 262.546 L3474.79 262.546 L3474.79 259.027 L3478.38 259.027 Q3481.06 259.027 3482.61 258.009 Q3484.19 256.967 3484.19 255.347 Q3484.19 253.865 3482.57 252.801 Q3480.97 251.736 3478.22 251.736 Q3476.57 251.736 3474.7 252.037 Q3472.85 252.338 3470.6 253.009 L3470.6 249.143 Q3472.87 248.588 3474.84 248.31 Q3476.8 248.032 3478.56 248.032 Q3483.1 248.032 3485.72 249.861 Q3488.36 251.666 3488.36 254.93 Q3488.36 257.083 3486.97 258.588 Q3485.58 260.069 3482.99 260.625 Z" fill="#000000" fill-rule="nonzero" fill-opacity="1" /><path clip-path="url(#clip500)" d="M3508.1 261.574 Q3502.94 261.574 3500.95 262.754 Q3498.96 263.935 3498.96 266.782 Q3498.96 269.051 3500.44 270.393 Q3501.94 271.713 3504.51 271.713 Q3508.05 271.713 3510.18 269.213 Q3512.34 266.689 3512.34 262.523 L3512.34 261.574 L3508.1 261.574 M3516.6 259.815 L3516.6 274.606 L3512.34 274.606 L3512.34 270.671 Q3510.88 273.032 3508.7 274.166 Q3506.53 275.277 3503.38 275.277 Q3499.4 275.277 3497.04 273.055 Q3494.7 270.81 3494.7 267.06 Q3494.7 262.685 3497.61 260.463 Q3500.55 258.24 3506.36 258.24 L3512.34 258.24 L3512.34 257.824 Q3512.34 254.884 3510.39 253.287 Q3508.47 251.666 3504.98 251.666 Q3502.75 251.666 3500.65 252.199 Q3498.54 252.731 3496.6 253.796 L3496.6 249.861 Q3498.93 248.958 3501.13 248.518 Q3503.33 248.055 3505.42 248.055 Q3511.04 248.055 3513.82 250.972 Q3516.6 253.889 3516.6 259.815 Z" fill="#000000" fill-rule="nonzero" fill-opacity="1" /><path clip-path="url(#clip500)" d="M3525.21 248.68 L3529.49 248.68 L3529.49 259.259 L3543.31 259.259 L3543.31 248.68 L3547.59 248.68 L3547.59 274.606 L3543.31 274.606 L3543.31 262.662 L3529.49 262.662 L3529.49 274.606 L3525.21 274.606 L3525.21 248.68 Z" fill="#000000" fill-rule="nonzero" fill-opacity="1" /><path clip-path="url(#clip500)" d="M3580.85 248.68 L3585.11 248.68 L3585.11 274.606 L3580.85 274.606 L3580.85 248.68 M3582.98 248.055 L3582.98 248.055 M3572.5 266.921 Q3572.5 264.838 3570.97 263.75 Q3569.47 262.662 3566.55 262.662 L3560.48 262.662 L3560.48 271.203 L3566.55 271.203 Q3569.47 271.203 3570.97 270.115 Q3572.5 269.004 3572.5 266.921 M3556.2 248.68 L3560.48 248.68 L3560.48 259.259 L3566.73 259.259 Q3571.69 259.259 3574.35 261.157 Q3577.04 263.032 3577.04 266.921 Q3577.04 270.81 3574.35 272.708 Q3571.69 274.606 3566.73 274.606 L3556.2 274.606 L3556.2 248.68 Z" fill="#000000" fill-rule="nonzero" fill-opacity="1" /><path clip-path="url(#clip500)" d="M3607.38 240.046 L3612.41 240.046 L3620.99 252.893 L3629.63 240.046 L3634.65 240.046 L3623.54 256.643 L3635.39 274.606 L3630.37 274.606 L3620.65 259.907 L3610.85 274.606 L3605.81 274.606 L3618.15 256.157 L3607.38 240.046 Z" fill="#000000" fill-rule="nonzero" fill-opacity="1" /><polyline clip-path="url(#clip500)" style="stroke:#ffa500; stroke-linecap:round; stroke-linejoin:round; stroke-width:8; stroke-opacity:1; fill:none" points="2882.88,309.166 3118.92,309.166 "/>
<path clip-path="url(#clip500)" d="M3172.11 328.854 Q3170.3 333.483 3168.59 334.895 Q3166.88 336.307 3164.01 336.307 L3160.6 336.307 L3160.6 332.742 L3163.1 332.742 Q3164.86 332.742 3165.83 331.909 Q3166.81 331.076 3167.99 327.974 L3168.75 326.029 L3158.26 300.52 L3162.78 300.52 L3170.88 320.798 L3178.98 300.52 L3183.5 300.52 L3172.11 328.854 Z" fill="#000000" fill-rule="nonzero" fill-opacity="1" /><path clip-path="url(#clip500)" d="M3199.61 290.474 Q3196.51 295.798 3195 301.006 Q3193.5 306.215 3193.5 311.562 Q3193.5 316.909 3195 322.164 Q3196.53 327.395 3199.61 332.696 L3195.9 332.696 Q3192.43 327.256 3190.69 322.002 Q3188.98 316.747 3188.98 311.562 Q3188.98 306.4 3190.69 301.168 Q3192.41 295.937 3195.9 290.474 L3199.61 290.474 Z" fill="#000000" fill-rule="nonzero" fill-opacity="1" /><path clip-path="url(#clip500)" d="M3212.08 293.159 L3212.08 300.52 L3220.86 300.52 L3220.86 303.83 L3212.08 303.83 L3212.08 317.904 Q3212.08 321.076 3212.94 321.979 Q3213.82 322.881 3216.48 322.881 L3220.86 322.881 L3220.86 326.446 L3216.48 326.446 Q3211.55 326.446 3209.68 324.617 Q3207.8 322.766 3207.8 317.904 L3207.8 303.83 L3204.68 303.83 L3204.68 300.52 L3207.8 300.52 L3207.8 293.159 L3212.08 293.159 Z" fill="#000000" fill-rule="nonzero" fill-opacity="1" /><path clip-path="url(#clip500)" d="M3225.79 290.474 L3229.49 290.474 Q3232.96 295.937 3234.68 301.168 Q3236.41 306.4 3236.41 311.562 Q3236.41 316.747 3234.68 322.002 Q3232.96 327.256 3229.49 332.696 L3225.79 332.696 Q3228.87 327.395 3230.37 322.164 Q3231.9 316.909 3231.9 311.562 Q3231.9 306.215 3230.37 301.006 Q3228.87 295.798 3225.79 290.474 Z" fill="#000000" fill-rule="nonzero" fill-opacity="1" /><path clip-path="url(#clip500)" d="M3257.87 311.793 L3300.65 311.793 L3300.65 315.127 L3257.87 315.127 L3257.87 311.793 Z" fill="#000000" fill-rule="nonzero" fill-opacity="1" /><path clip-path="url(#clip500)" d="M3344.72 300.52 L3344.72 326.446 L3340.44 326.446 L3340.44 303.923 L3326.62 303.923 L3326.62 326.446 L3322.34 326.446 L3322.34 300.52 L3344.72 300.52 Z" fill="#000000" fill-rule="nonzero" fill-opacity="1" /><path clip-path="url(#clip500)" d="M3365.28 313.414 Q3360.12 313.414 3358.12 314.594 Q3356.13 315.775 3356.13 318.622 Q3356.13 320.891 3357.62 322.233 Q3359.12 323.553 3361.69 323.553 Q3365.23 323.553 3367.36 321.053 Q3369.51 318.529 3369.51 314.363 L3369.51 313.414 L3365.28 313.414 M3373.77 311.655 L3373.77 326.446 L3369.51 326.446 L3369.51 322.511 Q3368.06 324.872 3365.88 326.006 Q3363.7 327.117 3360.56 327.117 Q3356.57 327.117 3354.21 324.895 Q3351.87 322.65 3351.87 318.9 Q3351.87 314.525 3354.79 312.303 Q3357.73 310.08 3363.54 310.08 L3369.51 310.08 L3369.51 309.664 Q3369.51 306.724 3367.57 305.127 Q3365.65 303.506 3362.15 303.506 Q3359.93 303.506 3357.82 304.039 Q3355.72 304.571 3353.77 305.636 L3353.77 301.701 Q3356.11 300.798 3358.31 300.358 Q3360.51 299.895 3362.59 299.895 Q3368.22 299.895 3370.99 302.812 Q3373.77 305.729 3373.77 311.655 Z" fill="#000000" fill-rule="nonzero" fill-opacity="1" /><path clip-path="url(#clip500)" d="M3386.67 322.557 L3386.67 336.307 L3382.38 336.307 L3382.38 300.52 L3386.67 300.52 L3386.67 304.455 Q3388.01 302.141 3390.05 301.03 Q3392.11 299.895 3394.95 299.895 Q3399.68 299.895 3402.62 303.645 Q3405.58 307.395 3405.58 313.506 Q3405.58 319.617 3402.62 323.367 Q3399.68 327.117 3394.95 327.117 Q3392.11 327.117 3390.05 326.006 Q3388.01 324.872 3386.67 322.557 M3401.16 313.506 Q3401.16 308.807 3399.21 306.145 Q3397.29 303.46 3393.91 303.46 Q3390.53 303.46 3388.59 306.145 Q3386.67 308.807 3386.67 313.506 Q3386.67 318.205 3388.59 320.891 Q3390.53 323.553 3393.91 323.553 Q3397.29 323.553 3399.21 320.891 Q3401.16 318.205 3401.16 313.506 Z" fill="#000000" fill-rule="nonzero" fill-opacity="1" /><path clip-path="url(#clip500)" d="M3409.56 300.52 L3434.4 300.52 L3434.4 303.923 L3424.07 303.923 L3424.07 326.446 L3419.88 326.446 L3419.88 303.923 L3409.56 303.923 L3409.56 300.52 Z" fill="#000000" fill-rule="nonzero" fill-opacity="1" /><path clip-path="url(#clip500)" d="M3462.29 300.52 L3462.29 326.446 L3458.05 326.446 L3458.05 305.636 L3445.55 326.446 L3440.09 326.446 L3440.09 300.52 L3444.33 300.52 L3444.33 321.284 L3456.8 300.52 L3462.29 300.52 Z" fill="#000000" fill-rule="nonzero" fill-opacity="1" /><path clip-path="url(#clip500)" d="M3482.94 312.465 Q3485.81 313.02 3487.41 314.71 Q3489 316.4 3489 318.9 Q3489 322.904 3486.02 325.011 Q3483.03 327.117 3477.52 327.117 Q3475.67 327.117 3473.7 326.793 Q3471.76 326.469 3469.67 325.821 L3469.67 321.863 Q3471.32 322.719 3473.29 323.159 Q3475.25 323.576 3477.41 323.576 Q3480.9 323.576 3482.85 322.279 Q3484.81 320.983 3484.81 318.9 Q3484.81 316.863 3483.08 315.636 Q3481.34 314.386 3478.17 314.386 L3474.74 314.386 L3474.74 310.867 L3478.33 310.867 Q3481.02 310.867 3482.57 309.849 Q3484.14 308.807 3484.14 307.187 Q3484.14 305.705 3482.52 304.641 Q3480.92 303.576 3478.17 303.576 Q3476.53 303.576 3474.65 303.877 Q3472.8 304.178 3470.55 304.849 L3470.55 300.983 Q3472.82 300.428 3474.79 300.15 Q3476.76 299.872 3478.52 299.872 Q3483.05 299.872 3485.67 301.701 Q3488.31 303.506 3488.31 306.77 Q3488.31 308.923 3486.92 310.428 Q3485.53 311.909 3482.94 312.465 Z" fill="#000000" fill-rule="nonzero" fill-opacity="1" /><path clip-path="url(#clip500)" d="M3508.05 313.414 Q3502.89 313.414 3500.9 314.594 Q3498.91 315.775 3498.91 318.622 Q3498.91 320.891 3500.39 322.233 Q3501.9 323.553 3504.47 323.553 Q3508.01 323.553 3510.14 321.053 Q3512.29 318.529 3512.29 314.363 L3512.29 313.414 L3508.05 313.414 M3516.55 311.655 L3516.55 326.446 L3512.29 326.446 L3512.29 322.511 Q3510.83 324.872 3508.66 326.006 Q3506.48 327.117 3503.33 327.117 Q3499.35 327.117 3496.99 324.895 Q3494.65 322.65 3494.65 318.9 Q3494.65 314.525 3497.57 312.303 Q3500.51 310.08 3506.32 310.08 L3512.29 310.08 L3512.29 309.664 Q3512.29 306.724 3510.35 305.127 Q3508.42 303.506 3504.93 303.506 Q3502.71 303.506 3500.6 304.039 Q3498.49 304.571 3496.55 305.636 L3496.55 301.701 Q3498.89 300.798 3501.09 300.358 Q3503.29 299.895 3505.37 299.895 Q3510.99 299.895 3513.77 302.812 Q3516.55 305.729 3516.55 311.655 Z" fill="#000000" fill-rule="nonzero" fill-opacity="1" /><path clip-path="url(#clip500)" d="M3525.16 300.52 L3529.44 300.52 L3529.44 311.099 L3543.26 311.099 L3543.26 300.52 L3547.54 300.52 L3547.54 326.446 L3543.26 326.446 L3543.26 314.502 L3529.44 314.502 L3529.44 326.446 L3525.16 326.446 L3525.16 300.52 Z" fill="#000000" fill-rule="nonzero" fill-opacity="1" /><path clip-path="url(#clip500)" d="M3580.81 300.52 L3585.07 300.52 L3585.07 326.446 L3580.81 326.446 L3580.81 300.52 M3582.94 299.895 L3582.94 299.895 M3572.45 318.761 Q3572.45 316.678 3570.92 315.59 Q3569.42 314.502 3566.5 314.502 L3560.44 314.502 L3560.44 323.043 L3566.5 323.043 Q3569.42 323.043 3570.92 321.955 Q3572.45 320.844 3572.45 318.761 M3556.16 300.52 L3560.44 300.52 L3560.44 311.099 L3566.69 311.099 Q3571.64 311.099 3574.3 312.997 Q3576.99 314.872 3576.99 318.761 Q3576.99 322.65 3574.3 324.548 Q3571.64 326.446 3566.69 326.446 L3556.16 326.446 L3556.16 300.52 Z" fill="#000000" fill-rule="nonzero" fill-opacity="1" /><path clip-path="url(#clip500)" d="M3604.26 291.886 L3609.28 291.886 L3618.86 306.099 L3628.38 291.886 L3633.4 291.886 L3621.18 309.988 L3621.18 326.446 L3616.48 326.446 L3616.48 309.988 L3604.26 291.886 Z" fill="#000000" fill-rule="nonzero" fill-opacity="1" /></svg>
