<?xml version="1.0" encoding="utf-8"?>
<svg xmlns="http://www.w3.org/2000/svg" xmlns:xlink="http://www.w3.org/1999/xlink" width="960" height="672" viewBox="0 0 3840 2688">
<defs>
  <clipPath id="clip980">
    <rect x="0" y="0" width="3840" height="2688"/>
  </clipPath>
</defs>
<path clip-path="url(#clip980)" d="M0 2688 L3840 2688 L3840 0 L0 0  Z" fill="#ffffff" fill-rule="evenodd" fill-opacity="1"/>
<defs>
  <clipPath id="clip981">
    <rect x="279" y="126" width="3514" height="2371"/>
  </clipPath>
</defs>
<path clip-path="url(#clip980)" d="M279.327 2496.2 L3792.76 2496.2 L3792.76 126.496 L279.327 126.496  Z" fill="#ffffff" fill-rule="evenodd" fill-opacity="1"/>
<polyline clip-path="url(#clip981)" style="stroke:#000000; stroke-linecap:round; stroke-linejoin:round; stroke-width:2; stroke-opacity:0.1; fill:none" points="279.327,2496.2 279.327,126.496 "/>
<polyline clip-path="url(#clip981)" style="stroke:#000000; stroke-linecap:round; stroke-linejoin:round; stroke-width:2; stroke-opacity:0.1; fill:none" points="982.013,2496.2 982.013,126.496 "/>
<polyline clip-path="url(#clip981)" style="stroke:#000000; stroke-linecap:round; stroke-linejoin:round; stroke-width:2; stroke-opacity:0.1; fill:none" points="1684.7,2496.2 1684.7,126.496 "/>
<polyline clip-path="url(#clip981)" style="stroke:#000000; stroke-linecap:round; stroke-linejoin:round; stroke-width:2; stroke-opacity:0.1; fill:none" points="2387.38,2496.2 2387.38,126.496 "/>
<polyline clip-path="url(#clip981)" style="stroke:#000000; stroke-linecap:round; stroke-linejoin:round; stroke-width:2; stroke-opacity:0.1; fill:none" points="3090.07,2496.2 3090.07,126.496 "/>
<polyline clip-path="url(#clip981)" style="stroke:#000000; stroke-linecap:round; stroke-linejoin:round; stroke-width:2; stroke-opacity:0.1; fill:none" points="3792.76,2496.2 3792.76,126.496 "/>
<polyline clip-path="url(#clip981)" style="stroke:#000000; stroke-linecap:round; stroke-linejoin:round; stroke-width:2; stroke-opacity:0.1; fill:none" points="279.327,2432.77 3792.76,2432.77 "/>
<polyline clip-path="url(#clip981)" style="stroke:#000000; stroke-linecap:round; stroke-linejoin:round; stroke-width:2; stroke-opacity:0.1; fill:none" points="279.327,1872.97 3792.76,1872.97 "/>
<polyline clip-path="url(#clip981)" style="stroke:#000000; stroke-linecap:round; stroke-linejoin:round; stroke-width:2; stroke-opacity:0.1; fill:none" points="279.327,1313.16 3792.76,1313.16 "/>
<polyline clip-path="url(#clip981)" style="stroke:#000000; stroke-linecap:round; stroke-linejoin:round; stroke-width:2; stroke-opacity:0.1; fill:none" points="279.327,753.364 3792.76,753.364 "/>
<polyline clip-path="url(#clip981)" style="stroke:#000000; stroke-linecap:round; stroke-linejoin:round; stroke-width:2; stroke-opacity:0.1; fill:none" points="279.327,193.563 3792.76,193.563 "/>
<polyline clip-path="url(#clip980)" style="stroke:#000000; stroke-linecap:round; stroke-linejoin:round; stroke-width:4; stroke-opacity:1; fill:none" points="279.327,2496.2 3792.76,2496.2 "/>
<polyline clip-path="url(#clip980)" style="stroke:#000000; stroke-linecap:round; stroke-linejoin:round; stroke-width:4; stroke-opacity:1; fill:none" points="279.327,2496.2 279.327,2477.3 "/>
<polyline clip-path="url(#clip980)" style="stroke:#000000; stroke-linecap:round; stroke-linejoin:round; stroke-width:4; stroke-opacity:1; fill:none" points="982.013,2496.2 982.013,2477.3 "/>
<polyline clip-path="url(#clip980)" style="stroke:#000000; stroke-linecap:round; stroke-linejoin:round; stroke-width:4; stroke-opacity:1; fill:none" points="1684.7,2496.2 1684.7,2477.3 "/>
<polyline clip-path="url(#clip980)" style="stroke:#000000; stroke-linecap:round; stroke-linejoin:round; stroke-width:4; stroke-opacity:1; fill:none" points="2387.38,2496.2 2387.38,2477.3 "/>
<polyline clip-path="url(#clip980)" style="stroke:#000000; stroke-linecap:round; stroke-linejoin:round; stroke-width:4; stroke-opacity:1; fill:none" points="3090.07,2496.2 3090.07,2477.3 "/>
<polyline clip-path="url(#clip980)" style="stroke:#000000; stroke-linecap:round; stroke-linejoin:round; stroke-width:4; stroke-opacity:1; fill:none" points="3792.76,2496.2 3792.76,2477.3 "/>
<path clip-path="url(#clip980)" d="M279.327 2538.63 Q275.716 2538.63 273.887 2542.2 Q272.082 2545.74 272.082 2552.87 Q272.082 2559.98 273.887 2563.54 Q275.716 2567.08 279.327 2567.08 Q282.961 2567.08 284.767 2563.54 Q286.596 2559.98 286.596 2552.87 Q286.596 2545.74 284.767 2542.2 Q282.961 2538.63 279.327 2538.63 M279.327 2534.93 Q285.137 2534.93 288.193 2539.54 Q291.272 2544.12 291.272 2552.87 Q291.272 2561.6 288.193 2566.2 Q285.137 2570.79 279.327 2570.79 Q273.517 2570.79 270.438 2566.2 Q267.383 2561.6 267.383 2552.87 Q267.383 2544.12 270.438 2539.54 Q273.517 2534.93 279.327 2534.93 Z" fill="#000000" fill-rule="nonzero" fill-opacity="1" /><path clip-path="url(#clip980)" d="M976.666 2566.18 L992.985 2566.18 L992.985 2570.12 L971.041 2570.12 L971.041 2566.18 Q973.703 2563.43 978.286 2558.8 Q982.893 2554.14 984.073 2552.8 Q986.318 2550.28 987.198 2548.54 Q988.101 2546.78 988.101 2545.09 Q988.101 2542.34 986.156 2540.6 Q984.235 2538.87 981.133 2538.87 Q978.934 2538.87 976.481 2539.63 Q974.05 2540.39 971.272 2541.94 L971.272 2537.22 Q974.096 2536.09 976.55 2535.51 Q979.004 2534.93 981.041 2534.93 Q986.411 2534.93 989.606 2537.62 Q992.8 2540.3 992.8 2544.79 Q992.8 2546.92 991.99 2548.84 Q991.203 2550.74 989.096 2553.33 Q988.518 2554 985.416 2557.22 Q982.314 2560.42 976.666 2566.18 Z" fill="#000000" fill-rule="nonzero" fill-opacity="1" /><path clip-path="url(#clip980)" d="M1687.71 2539.63 L1675.9 2558.08 L1687.71 2558.08 L1687.71 2539.63 M1686.48 2535.56 L1692.36 2535.56 L1692.36 2558.08 L1697.29 2558.08 L1697.29 2561.97 L1692.36 2561.97 L1692.36 2570.12 L1687.71 2570.12 L1687.71 2561.97 L1672.11 2561.97 L1672.11 2557.45 L1686.48 2535.56 Z" fill="#000000" fill-rule="nonzero" fill-opacity="1" /><path clip-path="url(#clip980)" d="M2387.79 2550.97 Q2384.64 2550.97 2382.79 2553.13 Q2380.96 2555.28 2380.96 2559.03 Q2380.96 2562.75 2382.79 2564.93 Q2384.64 2567.08 2387.79 2567.08 Q2390.94 2567.08 2392.77 2564.93 Q2394.62 2562.75 2394.62 2559.03 Q2394.62 2555.28 2392.77 2553.13 Q2390.94 2550.97 2387.79 2550.97 M2397.07 2536.32 L2397.07 2540.58 Q2395.31 2539.75 2393.51 2539.31 Q2391.72 2538.87 2389.97 2538.87 Q2385.34 2538.87 2382.88 2541.99 Q2380.45 2545.12 2380.1 2551.44 Q2381.47 2549.42 2383.53 2548.36 Q2385.59 2547.27 2388.07 2547.27 Q2393.28 2547.27 2396.28 2550.44 Q2399.32 2553.59 2399.32 2559.03 Q2399.32 2564.35 2396.17 2567.57 Q2393.02 2570.79 2387.79 2570.79 Q2381.79 2570.79 2378.62 2566.2 Q2375.45 2561.6 2375.45 2552.87 Q2375.45 2544.68 2379.34 2539.82 Q2383.23 2534.93 2389.78 2534.93 Q2391.54 2534.93 2393.32 2535.28 Q2395.13 2535.63 2397.07 2536.32 Z" fill="#000000" fill-rule="nonzero" fill-opacity="1" /><path clip-path="url(#clip980)" d="M3090.07 2553.7 Q3086.74 2553.7 3084.82 2555.49 Q3082.92 2557.27 3082.92 2560.39 Q3082.92 2563.52 3084.82 2565.3 Q3086.74 2567.08 3090.07 2567.08 Q3093.4 2567.08 3095.32 2565.3 Q3097.25 2563.5 3097.25 2560.39 Q3097.25 2557.27 3095.32 2555.49 Q3093.43 2553.7 3090.07 2553.7 M3085.39 2551.71 Q3082.39 2550.97 3080.7 2548.91 Q3079.03 2546.85 3079.03 2543.89 Q3079.03 2539.75 3081.97 2537.34 Q3084.93 2534.93 3090.07 2534.93 Q3095.23 2534.93 3098.17 2537.34 Q3101.11 2539.75 3101.11 2543.89 Q3101.11 2546.85 3099.42 2548.91 Q3097.76 2550.97 3094.77 2551.71 Q3098.15 2552.5 3100.02 2554.79 Q3101.92 2557.08 3101.92 2560.39 Q3101.92 2565.42 3098.84 2568.1 Q3095.79 2570.79 3090.07 2570.79 Q3084.35 2570.79 3081.27 2568.1 Q3078.22 2565.42 3078.22 2560.39 Q3078.22 2557.08 3080.12 2554.79 Q3082.01 2552.5 3085.39 2551.71 M3083.68 2544.33 Q3083.68 2547.01 3085.35 2548.52 Q3087.04 2550.02 3090.07 2550.02 Q3093.08 2550.02 3094.77 2548.52 Q3096.48 2547.01 3096.48 2544.33 Q3096.48 2541.64 3094.77 2540.14 Q3093.08 2538.63 3090.07 2538.63 Q3087.04 2538.63 3085.35 2540.14 Q3083.68 2541.64 3083.68 2544.33 Z" fill="#000000" fill-rule="nonzero" fill-opacity="1" /><path clip-path="url(#clip980)" d="M3767.44 2566.18 L3775.08 2566.18 L3775.08 2539.82 L3766.77 2541.48 L3766.77 2537.22 L3775.04 2535.56 L3779.71 2535.56 L3779.71 2566.18 L3787.35 2566.18 L3787.35 2570.12 L3767.44 2570.12 L3767.44 2566.18 Z" fill="#000000" fill-rule="nonzero" fill-opacity="1" /><path clip-path="url(#clip980)" d="M3806.8 2538.63 Q3803.18 2538.63 3801.36 2542.2 Q3799.55 2545.74 3799.55 2552.87 Q3799.55 2559.98 3801.36 2563.54 Q3803.18 2567.08 3806.8 2567.08 Q3810.43 2567.08 3812.23 2563.54 Q3814.06 2559.98 3814.06 2552.87 Q3814.06 2545.74 3812.23 2542.2 Q3810.43 2538.63 3806.8 2538.63 M3806.8 2534.93 Q3812.61 2534.93 3815.66 2539.54 Q3818.74 2544.12 3818.74 2552.87 Q3818.74 2561.6 3815.66 2566.2 Q3812.61 2570.79 3806.8 2570.79 Q3800.99 2570.79 3797.91 2566.2 Q3794.85 2561.6 3794.85 2552.87 Q3794.85 2544.12 3797.91 2539.54 Q3800.99 2534.93 3806.8 2534.93 Z" fill="#000000" fill-rule="nonzero" fill-opacity="1" /><path clip-path="url(#clip980)" d="M2035.1 2616.89 L2035.1 2627.01 L2047.17 2627.01 L2047.17 2631.56 L2035.1 2631.56 L2035.1 2650.92 Q2035.1 2655.28 2036.28 2656.52 Q2037.49 2657.76 2041.15 2657.76 L2047.17 2657.76 L2047.17 2662.66 L2041.15 2662.66 Q2034.37 2662.66 2031.79 2660.15 Q2029.21 2657.6 2029.21 2650.92 L2029.21 2631.56 L2024.92 2631.56 L2024.92 2627.01 L2029.21 2627.01 L2029.21 2616.89 L2035.1 2616.89 Z" fill="#000000" fill-rule="nonzero" fill-opacity="1" /><polyline clip-path="url(#clip980)" style="stroke:#000000; stroke-linecap:round; stroke-linejoin:round; stroke-width:4; stroke-opacity:1; fill:none" points="279.327,2496.2 279.327,126.496 "/>
<polyline clip-path="url(#clip980)" style="stroke:#000000; stroke-linecap:round; stroke-linejoin:round; stroke-width:4; stroke-opacity:1; fill:none" points="279.327,2432.77 298.225,2432.77 "/>
<polyline clip-path="url(#clip980)" style="stroke:#000000; stroke-linecap:round; stroke-linejoin:round; stroke-width:4; stroke-opacity:1; fill:none" points="279.327,1872.97 298.225,1872.97 "/>
<polyline clip-path="url(#clip980)" style="stroke:#000000; stroke-linecap:round; stroke-linejoin:round; stroke-width:4; stroke-opacity:1; fill:none" points="279.327,1313.16 298.225,1313.16 "/>
<polyline clip-path="url(#clip980)" style="stroke:#000000; stroke-linecap:round; stroke-linejoin:round; stroke-width:4; stroke-opacity:1; fill:none" points="279.327,753.364 298.225,753.364 "/>
<polyline clip-path="url(#clip980)" style="stroke:#000000; stroke-linecap:round; stroke-linejoin:round; stroke-width:4; stroke-opacity:1; fill:none" points="279.327,193.563 298.225,193.563 "/>
<path clip-path="url(#clip980)" d="M209.783 2418.56 Q206.172 2418.56 204.343 2422.13 Q202.538 2425.67 202.538 2432.8 Q202.538 2439.91 204.343 2443.47 Q206.172 2447.01 209.783 2447.01 Q213.417 2447.01 215.223 2443.47 Q217.051 2439.91 217.051 2432.8 Q217.051 2425.67 215.223 2422.13 Q213.417 2418.56 209.783 2418.56 M209.783 2414.86 Q215.593 2414.86 218.649 2419.47 Q221.727 2424.05 221.727 2432.8 Q221.727 2441.53 218.649 2446.13 Q215.593 2450.72 209.783 2450.72 Q203.973 2450.72 200.894 2446.13 Q197.838 2441.53 197.838 2432.8 Q197.838 2424.05 200.894 2419.47 Q203.973 2414.86 209.783 2414.86 Z" fill="#000000" fill-rule="nonzero" fill-opacity="1" /><path clip-path="url(#clip980)" d="M143.487 1886.31 L159.806 1886.31 L159.806 1890.25 L137.862 1890.25 L137.862 1886.31 Q140.524 1883.56 145.107 1878.93 Q149.714 1874.27 150.894 1872.93 Q153.14 1870.41 154.019 1868.67 Q154.922 1866.91 154.922 1865.22 Q154.922 1862.47 152.978 1860.73 Q151.056 1859 147.954 1859 Q145.755 1859 143.302 1859.76 Q140.871 1860.52 138.093 1862.07 L138.093 1857.35 Q140.917 1856.22 143.371 1855.64 Q145.825 1855.06 147.862 1855.06 Q153.232 1855.06 156.427 1857.75 Q159.621 1860.43 159.621 1864.92 Q159.621 1867.05 158.811 1868.97 Q158.024 1870.87 155.917 1873.46 Q155.339 1874.13 152.237 1877.35 Q149.135 1880.55 143.487 1886.31 Z" fill="#000000" fill-rule="nonzero" fill-opacity="1" /><path clip-path="url(#clip980)" d="M169.667 1855.69 L188.024 1855.69 L188.024 1859.62 L173.95 1859.62 L173.95 1868.09 Q174.968 1867.75 175.987 1867.58 Q177.005 1867.4 178.024 1867.4 Q183.811 1867.4 187.19 1870.57 Q190.57 1873.74 190.57 1879.16 Q190.57 1884.74 187.098 1887.84 Q183.626 1890.92 177.306 1890.92 Q175.13 1890.92 172.862 1890.55 Q170.616 1890.18 168.209 1889.43 L168.209 1884.74 Q170.292 1885.87 172.515 1886.43 Q174.737 1886.98 177.214 1886.98 Q181.218 1886.98 183.556 1884.87 Q185.894 1882.77 185.894 1879.16 Q185.894 1875.55 183.556 1873.44 Q181.218 1871.33 177.214 1871.33 Q175.339 1871.33 173.464 1871.75 Q171.612 1872.17 169.667 1873.05 L169.667 1855.69 Z" fill="#000000" fill-rule="nonzero" fill-opacity="1" /><path clip-path="url(#clip980)" d="M209.783 1858.76 Q206.172 1858.76 204.343 1862.33 Q202.538 1865.87 202.538 1873 Q202.538 1880.11 204.343 1883.67 Q206.172 1887.21 209.783 1887.21 Q213.417 1887.21 215.223 1883.67 Q217.051 1880.11 217.051 1873 Q217.051 1865.87 215.223 1862.33 Q213.417 1858.76 209.783 1858.76 M209.783 1855.06 Q215.593 1855.06 218.649 1859.67 Q221.727 1864.25 221.727 1873 Q221.727 1881.73 218.649 1886.33 Q215.593 1890.92 209.783 1890.92 Q203.973 1890.92 200.894 1886.33 Q197.838 1881.73 197.838 1873 Q197.838 1864.25 200.894 1859.67 Q203.973 1855.06 209.783 1855.06 Z" fill="#000000" fill-rule="nonzero" fill-opacity="1" /><path clip-path="url(#clip980)" d="M139.505 1295.88 L157.862 1295.88 L157.862 1299.82 L143.788 1299.82 L143.788 1308.29 Q144.806 1307.94 145.825 1307.78 Q146.843 1307.6 147.862 1307.6 Q153.649 1307.6 157.028 1310.77 Q160.408 1313.94 160.408 1319.36 Q160.408 1324.94 156.936 1328.04 Q153.464 1331.12 147.144 1331.12 Q144.968 1331.12 142.7 1330.75 Q140.455 1330.37 138.047 1329.63 L138.047 1324.94 Q140.13 1326.07 142.353 1326.62 Q144.575 1327.18 147.052 1327.18 Q151.056 1327.18 153.394 1325.07 Q155.732 1322.97 155.732 1319.36 Q155.732 1315.75 153.394 1313.64 Q151.056 1311.53 147.052 1311.53 Q145.177 1311.53 143.302 1311.95 Q141.45 1312.37 139.505 1313.25 L139.505 1295.88 Z" fill="#000000" fill-rule="nonzero" fill-opacity="1" /><path clip-path="url(#clip980)" d="M179.621 1298.96 Q176.01 1298.96 174.181 1302.53 Q172.376 1306.07 172.376 1313.2 Q172.376 1320.31 174.181 1323.87 Q176.01 1327.41 179.621 1327.41 Q183.255 1327.41 185.061 1323.87 Q186.889 1320.31 186.889 1313.2 Q186.889 1306.07 185.061 1302.53 Q183.255 1298.96 179.621 1298.96 M179.621 1295.26 Q185.431 1295.26 188.487 1299.87 Q191.565 1304.45 191.565 1313.2 Q191.565 1321.93 188.487 1326.53 Q185.431 1331.12 179.621 1331.12 Q173.811 1331.12 170.732 1326.53 Q167.677 1321.93 167.677 1313.2 Q167.677 1304.45 170.732 1299.87 Q173.811 1295.26 179.621 1295.26 Z" fill="#000000" fill-rule="nonzero" fill-opacity="1" /><path clip-path="url(#clip980)" d="M209.783 1298.96 Q206.172 1298.96 204.343 1302.53 Q202.538 1306.07 202.538 1313.2 Q202.538 1320.31 204.343 1323.87 Q206.172 1327.41 209.783 1327.41 Q213.417 1327.41 215.223 1323.87 Q217.051 1320.31 217.051 1313.2 Q217.051 1306.07 215.223 1302.53 Q213.417 1298.96 209.783 1298.96 M209.783 1295.26 Q215.593 1295.26 218.649 1299.87 Q221.727 1304.45 221.727 1313.2 Q221.727 1321.93 218.649 1326.53 Q215.593 1331.12 209.783 1331.12 Q203.973 1331.12 200.894 1326.53 Q197.838 1321.93 197.838 1313.2 Q197.838 1304.45 200.894 1299.87 Q203.973 1295.26 209.783 1295.26 Z" fill="#000000" fill-rule="nonzero" fill-opacity="1" /><path clip-path="url(#clip980)" d="M138.279 736.084 L160.501 736.084 L160.501 738.074 L147.954 770.644 L143.07 770.644 L154.876 740.019 L138.279 740.019 L138.279 736.084 Z" fill="#000000" fill-rule="nonzero" fill-opacity="1" /><path clip-path="url(#clip980)" d="M169.667 736.084 L188.024 736.084 L188.024 740.019 L173.95 740.019 L173.95 748.491 Q174.968 748.144 175.987 747.982 Q177.005 747.797 178.024 747.797 Q183.811 747.797 187.19 750.968 Q190.57 754.139 190.57 759.556 Q190.57 765.135 187.098 768.236 Q183.626 771.315 177.306 771.315 Q175.13 771.315 172.862 770.945 Q170.616 770.574 168.209 769.834 L168.209 765.135 Q170.292 766.269 172.515 766.824 Q174.737 767.38 177.214 767.38 Q181.218 767.38 183.556 765.273 Q185.894 763.167 185.894 759.556 Q185.894 755.945 183.556 753.838 Q181.218 751.732 177.214 751.732 Q175.339 751.732 173.464 752.148 Q171.612 752.565 169.667 753.445 L169.667 736.084 Z" fill="#000000" fill-rule="nonzero" fill-opacity="1" /><path clip-path="url(#clip980)" d="M209.783 739.162 Q206.172 739.162 204.343 742.727 Q202.538 746.269 202.538 753.398 Q202.538 760.505 204.343 764.07 Q206.172 767.611 209.783 767.611 Q213.417 767.611 215.223 764.07 Q217.051 760.505 217.051 753.398 Q217.051 746.269 215.223 742.727 Q213.417 739.162 209.783 739.162 M209.783 735.459 Q215.593 735.459 218.649 740.065 Q221.727 744.649 221.727 753.398 Q221.727 762.125 218.649 766.732 Q215.593 771.315 209.783 771.315 Q203.973 771.315 200.894 766.732 Q197.838 762.125 197.838 753.398 Q197.838 744.649 200.894 740.065 Q203.973 735.459 209.783 735.459 Z" fill="#000000" fill-rule="nonzero" fill-opacity="1" /><path clip-path="url(#clip980)" d="M110.107 206.908 L117.746 206.908 L117.746 180.542 L109.436 182.209 L109.436 177.95 L117.7 176.283 L122.376 176.283 L122.376 206.908 L130.015 206.908 L130.015 210.843 L110.107 210.843 L110.107 206.908 Z" fill="#000000" fill-rule="nonzero" fill-opacity="1" /><path clip-path="url(#clip980)" d="M149.459 179.362 Q145.848 179.362 144.019 182.927 Q142.214 186.468 142.214 193.598 Q142.214 200.704 144.019 204.269 Q145.848 207.811 149.459 207.811 Q153.093 207.811 154.899 204.269 Q156.728 200.704 156.728 193.598 Q156.728 186.468 154.899 182.927 Q153.093 179.362 149.459 179.362 M149.459 175.658 Q155.269 175.658 158.325 180.265 Q161.403 184.848 161.403 193.598 Q161.403 202.325 158.325 206.931 Q155.269 211.514 149.459 211.514 Q143.649 211.514 140.57 206.931 Q137.515 202.325 137.515 193.598 Q137.515 184.848 140.57 180.265 Q143.649 175.658 149.459 175.658 Z" fill="#000000" fill-rule="nonzero" fill-opacity="1" /><path clip-path="url(#clip980)" d="M179.621 179.362 Q176.01 179.362 174.181 182.927 Q172.376 186.468 172.376 193.598 Q172.376 200.704 174.181 204.269 Q176.01 207.811 179.621 207.811 Q183.255 207.811 185.061 204.269 Q186.889 200.704 186.889 193.598 Q186.889 186.468 185.061 182.927 Q183.255 179.362 179.621 179.362 M179.621 175.658 Q185.431 175.658 188.487 180.265 Q191.565 184.848 191.565 193.598 Q191.565 202.325 188.487 206.931 Q185.431 211.514 179.621 211.514 Q173.811 211.514 170.732 206.931 Q167.677 202.325 167.677 193.598 Q167.677 184.848 170.732 180.265 Q173.811 175.658 179.621 175.658 Z" fill="#000000" fill-rule="nonzero" fill-opacity="1" /><path clip-path="url(#clip980)" d="M209.783 179.362 Q206.172 179.362 204.343 182.927 Q202.538 186.468 202.538 193.598 Q202.538 200.704 204.343 204.269 Q206.172 207.811 209.783 207.811 Q213.417 207.811 215.223 204.269 Q217.051 200.704 217.051 193.598 Q217.051 186.468 215.223 182.927 Q213.417 179.362 209.783 179.362 M209.783 175.658 Q215.593 175.658 218.649 180.265 Q221.727 184.848 221.727 193.598 Q221.727 202.325 218.649 206.931 Q215.593 211.514 209.783 211.514 Q203.973 211.514 200.894 206.931 Q197.838 202.325 197.838 193.598 Q197.838 184.848 200.894 180.265 Q203.973 175.658 209.783 175.658 Z" fill="#000000" fill-rule="nonzero" fill-opacity="1" /><path clip-path="url(#clip980)" d="M37.5802 1501.38 L18.1011 1501.38 L18.1011 1514.65 Q18.1011 1520.57 14.409 1524.1 Q10.685 1527.64 3.10986 1527.64 L-9.93984 1527.64 L-9.93984 1521.24 L2.6006 1521.24 Q7.66134 1521.24 10.1758 1519.27 Q12.6902 1517.29 12.6902 1513.35 L12.6902 1501.38 L-9.93984 1501.38 L-9.93984 1494.92 L37.5802 1494.92 L37.5802 1501.38 Z" fill="#000000" fill-rule="nonzero" fill-opacity="1" /><path clip-path="url(#clip980)" d="M1.9322 1452.08 L37.5802 1452.08 L37.5802 1457.9 L8.96631 1457.9 L37.5802 1475.09 L37.5802 1482.6 L1.9322 1482.6 L1.9322 1476.77 L30.4824 1476.77 L1.9322 1459.62 L1.9322 1452.08 Z" fill="#000000" fill-rule="nonzero" fill-opacity="1" /><path clip-path="url(#clip980)" d="M3.30083 1414.36 L8.77533 1414.36 Q7.40671 1416.84 6.73831 1419.36 Q6.03808 1421.84 6.03808 1424.39 Q6.03808 1430.08 9.66653 1433.23 Q13.2632 1436.38 19.788 1436.38 Q26.3129 1436.38 29.9413 1433.23 Q33.5379 1430.08 33.5379 1424.39 Q33.5379 1421.84 32.8695 1419.36 Q32.1693 1416.84 30.8007 1414.36 L36.2115 1414.36 Q37.3574 1416.81 37.9303 1419.45 Q38.5032 1422.06 38.5032 1425.02 Q38.5032 1433.07 33.4424 1437.82 Q28.3817 1442.56 19.788 1442.56 Q11.067 1442.56 6.06991 1437.78 Q1.07283 1432.98 1.07283 1424.64 Q1.07283 1421.93 1.64574 1419.36 Q2.18683 1416.78 3.30083 1414.36 Z" fill="#000000" fill-rule="nonzero" fill-opacity="1" /><path clip-path="url(#clip980)" d="M37.5802 1407.9 L32.7104 1407.9 Q31.8192 1402.11 27.8088 1400.32 Q22.1751 1398.16 7.75682 1398.16 L1.9322 1398.16 L1.9322 1374.06 L37.5802 1374.06 L37.5802 1379.92 L6.61099 1379.92 L6.61099 1392.3 L10.144 1392.3 Q23.8939 1392.3 30.0686 1395.1 Q36.6571 1398.09 37.5802 1407.9 Z" fill="#000000" fill-rule="nonzero" fill-opacity="1" /><path clip-path="url(#clip980)" d="M18.2921 1332.02 L21.1566 1332.02 L21.1566 1358.95 Q27.2041 1358.56 30.3869 1355.32 Q33.5379 1352.04 33.5379 1346.21 Q33.5379 1342.84 32.7104 1339.69 Q31.8829 1336.51 30.2278 1333.39 L35.7659 1333.39 Q37.1027 1336.54 37.803 1339.85 Q38.5032 1343.16 38.5032 1346.56 Q38.5032 1355.09 33.5379 1360.09 Q28.5727 1365.06 20.1063 1365.06 Q11.3534 1365.06 6.22905 1360.35 Q1.07283 1355.6 1.07283 1347.58 Q1.07283 1340.39 5.7198 1336.22 Q10.3349 1332.02 18.2921 1332.02 M16.5733 1337.88 Q11.7672 1337.94 8.90265 1340.58 Q6.03808 1343.19 6.03808 1347.52 Q6.03808 1352.42 8.80716 1355.38 Q11.5762 1358.31 16.6052 1358.75 L16.5733 1337.88 Z" fill="#000000" fill-rule="nonzero" fill-opacity="1" /><path clip-path="url(#clip980)" d="M1.9322 1322.63 L1.9322 1316.74 L16.4778 1316.74 L16.4778 1297.74 L1.9322 1297.74 L1.9322 1291.85 L37.5802 1291.85 L37.5802 1297.74 L21.1566 1297.74 L21.1566 1316.74 L37.5802 1316.74 L37.5802 1322.63 L1.9322 1322.63 Z" fill="#000000" fill-rule="nonzero" fill-opacity="1" /><path clip-path="url(#clip980)" d="M1.9322 1280.01 L1.9322 1274.12 L16.4778 1274.12 L16.4778 1255.12 L1.9322 1255.12 L1.9322 1249.23 L37.5802 1249.23 L37.5802 1255.12 L21.1566 1255.12 L21.1566 1274.12 L37.5802 1274.12 L37.5802 1280.01 L1.9322 1280.01 Z" fill="#000000" fill-rule="nonzero" fill-opacity="1" /><path clip-path="url(#clip980)" d="M6.03808 1223.36 Q6.03808 1228.07 9.73019 1230.8 Q13.3905 1233.54 19.788 1233.54 Q26.1855 1233.54 29.8777 1230.84 Q33.5379 1228.1 33.5379 1223.36 Q33.5379 1218.68 29.8458 1215.94 Q26.1537 1213.2 19.788 1213.2 Q13.4541 1213.2 9.76202 1215.94 Q6.03808 1218.68 6.03808 1223.36 M1.07283 1223.36 Q1.07283 1215.72 6.03808 1211.36 Q11.0033 1207 19.788 1207 Q28.5409 1207 33.5379 1211.36 Q38.5032 1215.72 38.5032 1223.36 Q38.5032 1231.03 33.5379 1235.39 Q28.5409 1239.72 19.788 1239.72 Q11.0033 1239.72 6.03808 1235.39 Q1.07283 1231.03 1.07283 1223.36 Z" fill="#000000" fill-rule="nonzero" fill-opacity="1" /><path clip-path="url(#clip980)" d="M3.30083 1171.63 L8.77533 1171.63 Q7.40671 1174.12 6.73831 1176.63 Q6.03808 1179.11 6.03808 1181.66 Q6.03808 1187.36 9.66653 1190.51 Q13.2632 1193.66 19.788 1193.66 Q26.3129 1193.66 29.9413 1190.51 Q33.5379 1187.36 33.5379 1181.66 Q33.5379 1179.11 32.8695 1176.63 Q32.1693 1174.12 30.8007 1171.63 L36.2115 1171.63 Q37.3574 1174.09 37.9303 1176.73 Q38.5032 1179.34 38.5032 1182.3 Q38.5032 1190.35 33.4424 1195.09 Q28.3817 1199.83 19.788 1199.83 Q11.067 1199.83 6.06991 1195.06 Q1.07283 1190.25 1.07283 1181.92 Q1.07283 1179.21 1.64574 1176.63 Q2.18683 1174.05 3.30083 1171.63 Z" fill="#000000" fill-rule="nonzero" fill-opacity="1" /><path clip-path="url(#clip980)" d="M1.9322 1165.68 L1.9322 1131.53 L6.61099 1131.53 L6.61099 1145.73 L37.5802 1145.73 L37.5802 1151.49 L6.61099 1151.49 L6.61099 1165.68 L1.9322 1165.68 Z" fill="#000000" fill-rule="nonzero" fill-opacity="1" /><path clip-path="url(#clip980)" d="M27.0131 1101.29 Q24.1485 1101.29 22.6526 1103.39 Q21.1566 1105.46 21.1566 1109.47 L21.1566 1117.81 L32.9014 1117.81 L32.9014 1109.47 Q32.9014 1105.46 31.4054 1103.39 Q29.8777 1101.29 27.0131 1101.29 M1.9322 1123.7 L1.9322 1117.81 L16.4778 1117.81 L16.4778 1109.22 Q16.4778 1102.41 19.0878 1098.75 Q21.6659 1095.06 27.0131 1095.06 Q32.3603 1095.06 34.9702 1098.75 Q37.5802 1102.41 37.5802 1109.22 L37.5802 1123.7 L1.9322 1123.7 Z" fill="#000000" fill-rule="nonzero" fill-opacity="1" /><path clip-path="url(#clip980)" d="M1000.81 12.096 L1013.01 12.096 L1028.44 53.2532 L1043.95 12.096 L1056.15 12.096 L1056.15 72.576 L1048.17 72.576 L1048.17 19.4686 L1032.57 60.9499 L1024.35 60.9499 L1008.75 19.4686 L1008.75 72.576 L1000.81 72.576 L1000.81 12.096 Z" fill="#000000" fill-rule="nonzero" fill-opacity="1" /><path clip-path="url(#clip980)" d="M1089.65 32.4315 Q1083.65 32.4315 1080.17 37.1306 Q1076.69 41.7891 1076.69 49.9314 Q1076.69 58.0738 1080.13 62.7728 Q1083.61 67.4314 1089.65 67.4314 Q1095.6 67.4314 1099.09 62.7323 Q1102.57 58.0333 1102.57 49.9314 Q1102.57 41.8701 1099.09 37.1711 Q1095.6 32.4315 1089.65 32.4315 M1089.65 26.1121 Q1099.37 26.1121 1104.92 32.4315 Q1110.47 38.7509 1110.47 49.9314 Q1110.47 61.0714 1104.92 67.4314 Q1099.37 73.7508 1089.65 73.7508 Q1079.89 73.7508 1074.34 67.4314 Q1068.83 61.0714 1068.83 49.9314 Q1068.83 38.7509 1074.34 32.4315 Q1079.89 26.1121 1089.65 26.1121 Z" fill="#000000" fill-rule="nonzero" fill-opacity="1" /><path clip-path="url(#clip980)" d="M1132.95 66.6212 L1154.59 66.6212 L1154.59 33.1607 L1138.91 33.1607 L1138.91 38.832 Q1138.91 55.5217 1134.13 64.4337 L1132.95 66.6212 M1122.14 66.6212 Q1125.82 65.0008 1127.44 61.5575 Q1131.41 53.0101 1131.41 35.7938 L1131.41 27.2059 L1162.08 27.2059 L1162.08 66.6212 L1168.03 66.6212 L1168.03 84.0401 L1162.08 84.0401 L1162.08 72.576 L1125.3 72.576 L1125.3 84.0401 L1119.34 84.0401 L1119.34 66.6212 L1122.14 66.6212 Z" fill="#000000" fill-rule="nonzero" fill-opacity="1" /><path clip-path="url(#clip980)" d="M1218.99 48.0275 L1218.99 51.6733 L1184.72 51.6733 Q1185.21 59.3701 1189.34 63.421 Q1193.51 67.4314 1200.93 67.4314 Q1205.22 67.4314 1209.23 66.3781 Q1213.28 65.3249 1217.25 63.2184 L1217.25 70.267 Q1213.24 71.9684 1209.03 72.8596 Q1204.82 73.7508 1200.48 73.7508 Q1189.63 73.7508 1183.27 67.4314 Q1176.95 61.1119 1176.95 50.3365 Q1176.95 39.1965 1182.94 32.6746 Q1188.98 26.1121 1199.19 26.1121 Q1208.34 26.1121 1213.65 32.0264 Q1218.99 37.9003 1218.99 48.0275 M1211.54 45.84 Q1211.46 39.7232 1208.1 36.0774 Q1204.78 32.4315 1199.27 32.4315 Q1193.03 32.4315 1189.26 35.9558 Q1185.53 39.4801 1184.97 45.8805 L1211.54 45.84 Z" fill="#000000" fill-rule="nonzero" fill-opacity="1" /><path clip-path="url(#clip980)" d="M1226.49 72.576 L1226.49 66.3781 Q1233.86 65.2439 1236.13 60.1397 Q1238.88 52.9696 1238.88 34.619 L1238.88 27.2059 L1269.55 27.2059 L1269.55 72.576 L1262.1 72.576 L1262.1 33.1607 L1246.34 33.1607 L1246.34 37.6572 Q1246.34 55.1571 1242.77 63.0159 Q1238.97 71.4012 1226.49 72.576 Z" fill="#000000" fill-rule="nonzero" fill-opacity="1" /><path clip-path="url(#clip980)" d="M1312.49 59.127 Q1312.49 55.4812 1309.82 53.5773 Q1307.18 51.6733 1302.08 51.6733 L1291.47 51.6733 L1291.47 66.6212 L1302.08 66.6212 Q1307.18 66.6212 1309.82 64.7172 Q1312.49 62.7728 1312.49 59.127 M1283.97 27.2059 L1291.47 27.2059 L1291.47 45.7185 L1302.4 45.7185 Q1311.07 45.7185 1315.73 49.0402 Q1320.43 52.3215 1320.43 59.127 Q1320.43 65.9325 1315.73 69.2543 Q1311.07 72.576 1302.4 72.576 L1283.97 72.576 L1283.97 27.2059 Z" fill="#000000" fill-rule="nonzero" fill-opacity="1" /><path clip-path="url(#clip980)" d="M1367.62 65.6895 L1396.18 65.6895 L1396.18 72.576 L1357.78 72.576 L1357.78 65.6895 Q1362.44 60.8689 1370.46 52.7671 Q1378.52 44.6248 1380.59 42.2752 Q1384.51 37.8598 1386.05 34.8216 Q1387.63 31.7429 1387.63 28.7857 Q1387.63 23.9651 1384.23 20.927 Q1380.87 17.8888 1375.44 17.8888 Q1371.59 17.8888 1367.3 19.2256 Q1363.04 20.5624 1358.18 23.2765 L1358.18 15.0127 Q1363.13 13.0277 1367.42 12.015 Q1371.71 11.0023 1375.28 11.0023 Q1384.68 11.0023 1390.27 15.7013 Q1395.86 20.4004 1395.86 28.2591 Q1395.86 31.9859 1394.44 35.3482 Q1393.06 38.6699 1389.38 43.2069 Q1388.36 44.3817 1382.93 50.0125 Q1377.51 55.6027 1367.62 65.6895 Z" fill="#000000" fill-rule="nonzero" fill-opacity="1" /><path clip-path="url(#clip980)" d="M1414.21 62.2867 L1422.75 62.2867 L1422.75 72.576 L1414.21 72.576 L1414.21 62.2867 M1414.21 29.6769 L1422.75 29.6769 L1422.75 39.9662 L1414.21 39.9662 L1414.21 29.6769 Z" fill="#000000" fill-rule="nonzero" fill-opacity="1" /><path clip-path="url(#clip980)" d="M1473.84 65.7705 L1473.84 89.8329 L1466.34 89.8329 L1466.34 27.2059 L1473.84 27.2059 L1473.84 34.0924 Q1476.19 30.0415 1479.75 28.0971 Q1483.36 26.1121 1488.34 26.1121 Q1496.6 26.1121 1501.75 32.6746 Q1506.93 39.2371 1506.93 49.9314 Q1506.93 60.6258 1501.75 67.1883 Q1496.6 73.7508 1488.34 73.7508 Q1483.36 73.7508 1479.75 71.8063 Q1476.19 69.8214 1473.84 65.7705 M1499.2 49.9314 Q1499.2 41.7081 1495.79 37.0496 Q1492.43 32.3505 1486.52 32.3505 Q1480.6 32.3505 1477.2 37.0496 Q1473.84 41.7081 1473.84 49.9314 Q1473.84 58.1548 1477.2 62.8538 Q1480.6 67.5124 1486.52 67.5124 Q1492.43 67.5124 1495.79 62.8538 Q1499.2 58.1548 1499.2 49.9314 Z" fill="#000000" fill-rule="nonzero" fill-opacity="1" /><path clip-path="url(#clip980)" d="M1558.1 48.0275 L1558.1 51.6733 L1523.82 51.6733 Q1524.31 59.3701 1528.44 63.421 Q1532.62 67.4314 1540.03 67.4314 Q1544.32 67.4314 1548.33 66.3781 Q1552.38 65.3249 1556.35 63.2184 L1556.35 70.267 Q1552.34 71.9684 1548.13 72.8596 Q1543.92 73.7508 1539.58 73.7508 Q1528.73 73.7508 1522.37 67.4314 Q1516.05 61.1119 1516.05 50.3365 Q1516.05 39.1965 1522.04 32.6746 Q1528.08 26.1121 1538.29 26.1121 Q1547.44 26.1121 1552.75 32.0264 Q1558.1 37.9003 1558.1 48.0275 M1550.64 45.84 Q1550.56 39.7232 1547.2 36.0774 Q1543.88 32.4315 1538.37 32.4315 Q1532.13 32.4315 1528.36 35.9558 Q1524.64 39.4801 1524.07 45.8805 L1550.64 45.84 Z" fill="#000000" fill-rule="nonzero" fill-opacity="1" /><path clip-path="url(#clip980)" d="M1570.05 72.576 L1570.05 27.2059 L1602.05 27.2059 L1602.05 33.1607 L1577.54 33.1607 L1577.54 72.576 L1570.05 72.576 Z" fill="#000000" fill-rule="nonzero" fill-opacity="1" /><path clip-path="url(#clip980)" d="M1632.79 76.7889 Q1629.63 84.8907 1626.64 87.3618 Q1623.64 89.8329 1618.62 89.8329 L1612.66 89.8329 L1612.66 83.5945 L1617.04 83.5945 Q1620.11 83.5945 1621.82 82.1361 Q1623.52 80.6778 1625.58 75.2496 L1626.92 71.8468 L1608.57 27.2059 L1616.47 27.2059 L1630.65 62.6918 L1644.83 27.2059 L1652.72 27.2059 L1632.79 76.7889 Z" fill="#000000" fill-rule="nonzero" fill-opacity="1" /><path clip-path="url(#clip980)" d="M1658.27 72.576 L1658.27 66.3781 Q1665.65 65.2439 1667.92 60.1397 Q1670.67 52.9696 1670.67 34.619 L1670.67 27.2059 L1701.34 27.2059 L1701.34 72.576 L1693.88 72.576 L1693.88 33.1607 L1678.12 33.1607 L1678.12 37.6572 Q1678.12 55.1571 1674.56 63.0159 Q1670.75 71.4012 1658.27 72.576 Z" fill="#000000" fill-rule="nonzero" fill-opacity="1" /><path clip-path="url(#clip980)" d="M1723.53 40.2903 Q1723.53 43.6525 1726.13 45.5565 Q1728.72 47.4604 1733.54 47.4604 L1743.59 47.4604 L1743.59 33.1607 L1733.54 33.1607 Q1728.72 33.1607 1726.13 35.0241 Q1723.53 36.8875 1723.53 40.2903 M1712.92 72.576 L1726.78 52.6861 Q1722.08 51.6328 1718.96 48.8782 Q1715.84 46.0831 1715.84 40.2903 Q1715.84 33.7278 1720.17 30.4871 Q1724.55 27.2059 1733.34 27.2059 L1751.08 27.2059 L1751.08 72.576 L1743.59 72.576 L1743.59 53.4152 L1734.31 53.4152 L1720.94 72.576 L1712.92 72.576 Z" fill="#000000" fill-rule="nonzero" fill-opacity="1" /><path clip-path="url(#clip980)" d="M1773.16 65.7705 L1773.16 89.8329 L1765.66 89.8329 L1765.66 27.2059 L1773.16 27.2059 L1773.16 34.0924 Q1775.51 30.0415 1779.07 28.0971 Q1782.68 26.1121 1787.66 26.1121 Q1795.92 26.1121 1801.07 32.6746 Q1806.25 39.2371 1806.25 49.9314 Q1806.25 60.6258 1801.07 67.1883 Q1795.92 73.7508 1787.66 73.7508 Q1782.68 73.7508 1779.07 71.8063 Q1775.51 69.8214 1773.16 65.7705 M1798.52 49.9314 Q1798.52 41.7081 1795.11 37.0496 Q1791.75 32.3505 1785.84 32.3505 Q1779.92 32.3505 1776.52 37.0496 Q1773.16 41.7081 1773.16 49.9314 Q1773.16 58.1548 1776.52 62.8538 Q1779.92 67.5124 1785.84 67.5124 Q1791.75 67.5124 1795.11 62.8538 Q1798.52 58.1548 1798.52 49.9314 Z" fill="#000000" fill-rule="nonzero" fill-opacity="1" /><path clip-path="url(#clip980)" d="M1818.33 27.2059 L1825.82 27.2059 L1825.82 45.7185 L1850 45.7185 L1850 27.2059 L1857.5 27.2059 L1857.5 72.576 L1850 72.576 L1850 51.6733 L1825.82 51.6733 L1825.82 72.576 L1818.33 72.576 L1818.33 27.2059 Z" fill="#000000" fill-rule="nonzero" fill-opacity="1" /><path clip-path="url(#clip980)" d="M1915.71 27.2059 L1923.16 27.2059 L1923.16 72.576 L1915.71 72.576 L1915.71 27.2059 M1919.44 26.1121 L1919.44 26.1121 M1901.09 59.127 Q1901.09 55.4812 1898.41 53.5773 Q1895.78 51.6733 1890.67 51.6733 L1880.06 51.6733 L1880.06 66.6212 L1890.67 66.6212 Q1895.78 66.6212 1898.41 64.7172 Q1901.09 62.7728 1901.09 59.127 M1872.57 27.2059 L1880.06 27.2059 L1880.06 45.7185 L1891 45.7185 Q1899.67 45.7185 1904.33 49.0402 Q1909.03 52.3215 1909.03 59.127 Q1909.03 65.9325 1904.33 69.2543 Q1899.67 72.576 1891 72.576 L1872.57 72.576 L1872.57 27.2059 Z" fill="#000000" fill-rule="nonzero" fill-opacity="1" /><path clip-path="url(#clip980)" d="M1977.16 48.0275 L1977.16 51.6733 L1942.89 51.6733 Q1943.38 59.3701 1947.51 63.421 Q1951.68 67.4314 1959.09 67.4314 Q1963.39 67.4314 1967.4 66.3781 Q1971.45 65.3249 1975.42 63.2184 L1975.42 70.267 Q1971.41 71.9684 1967.2 72.8596 Q1962.98 73.7508 1958.65 73.7508 Q1947.79 73.7508 1941.43 67.4314 Q1935.11 61.1119 1935.11 50.3365 Q1935.11 39.1965 1941.11 32.6746 Q1947.14 26.1121 1957.35 26.1121 Q1966.51 26.1121 1971.81 32.0264 Q1977.16 37.9003 1977.16 48.0275 M1969.71 45.84 Q1969.63 39.7232 1966.26 36.0774 Q1962.94 32.4315 1957.43 32.4315 Q1951.2 32.4315 1947.43 35.9558 Q1943.7 39.4801 1943.13 45.8805 L1969.71 45.84 Z" fill="#000000" fill-rule="nonzero" fill-opacity="1" /><path clip-path="url(#clip980)" d="M2022.94 51.6733 L2022.94 66.6212 L2033.55 66.6212 Q2038.65 66.6212 2041.33 64.7172 Q2044 62.7728 2044 59.127 Q2044 55.4812 2041.33 53.5773 Q2038.65 51.6733 2033.55 51.6733 L2022.94 51.6733 M2022.94 33.1607 L2022.94 45.7185 L2032.74 45.7185 Q2036.95 45.7185 2039.63 44.0576 Q2042.3 42.3563 2042.3 39.3586 Q2042.3 36.3609 2039.63 34.7811 Q2036.95 33.1607 2032.74 33.1607 L2022.94 33.1607 M2015.48 27.2059 L2033.23 27.2059 Q2041.21 27.2059 2045.5 30.1225 Q2049.79 33.0392 2049.79 38.4269 Q2049.79 42.5993 2047.61 45.0704 Q2045.42 47.5009 2041.13 48.1085 Q2046.27 49.0808 2049.11 52.1594 Q2051.94 55.2381 2051.94 59.8562 Q2051.94 65.9325 2047.24 69.2543 Q2042.58 72.576 2033.91 72.576 L2015.48 72.576 L2015.48 27.2059 Z" fill="#000000" fill-rule="nonzero" fill-opacity="1" /><path clip-path="url(#clip980)" d="M2082.24 32.4315 Q2076.25 32.4315 2072.76 37.1306 Q2069.28 41.7891 2069.28 49.9314 Q2069.28 58.0738 2072.72 62.7728 Q2076.21 67.4314 2082.24 67.4314 Q2088.2 67.4314 2091.68 62.7323 Q2095.16 58.0333 2095.16 49.9314 Q2095.16 41.8701 2091.68 37.1711 Q2088.2 32.4315 2082.24 32.4315 M2082.24 26.1121 Q2091.96 26.1121 2097.51 32.4315 Q2103.06 38.7509 2103.06 49.9314 Q2103.06 61.0714 2097.51 67.4314 Q2091.96 73.7508 2082.24 73.7508 Q2072.48 73.7508 2066.93 67.4314 Q2061.42 61.0714 2061.42 49.9314 Q2061.42 38.7509 2066.93 32.4315 Q2072.48 26.1121 2082.24 26.1121 Z" fill="#000000" fill-rule="nonzero" fill-opacity="1" /><path clip-path="url(#clip980)" d="M2153.98 27.2059 L2153.98 72.576 L2146.57 72.576 L2146.57 36.1584 L2124.7 72.576 L2115.14 72.576 L2115.14 27.2059 L2122.55 27.2059 L2122.55 63.5425 L2144.38 27.2059 L2153.98 27.2059 M2121.9 9.54393 L2126.68 9.54393 Q2127.13 12.5821 2129.07 14.1215 Q2131.06 15.6203 2134.58 15.6203 Q2138.06 15.6203 2140.01 14.1215 Q2141.95 12.6226 2142.48 9.54393 L2147.26 9.54393 Q2146.85 15.3367 2143.65 18.2534 Q2140.45 21.17 2134.58 21.17 Q2128.71 21.17 2125.51 18.2534 Q2122.31 15.3367 2121.9 9.54393 Z" fill="#000000" fill-rule="nonzero" fill-opacity="1" /><path clip-path="url(#clip980)" d="M2201.99 28.9478 L2201.99 35.9153 Q2198.83 34.1734 2195.63 33.3227 Q2192.47 32.4315 2189.23 32.4315 Q2181.98 32.4315 2177.96 37.0496 Q2173.95 41.6271 2173.95 49.9314 Q2173.95 58.2358 2177.96 62.8538 Q2181.98 67.4314 2189.23 67.4314 Q2192.47 67.4314 2195.63 66.5807 Q2198.83 65.6895 2201.99 63.9476 L2201.99 70.8341 Q2198.87 72.2924 2195.51 73.0216 Q2192.18 73.7508 2188.42 73.7508 Q2178.17 73.7508 2172.13 67.3098 Q2166.1 60.8689 2166.1 49.9314 Q2166.1 38.832 2172.17 32.472 Q2178.29 26.1121 2188.9 26.1121 Q2192.35 26.1121 2195.63 26.8413 Q2198.91 27.5299 2201.99 28.9478 Z" fill="#000000" fill-rule="nonzero" fill-opacity="1" /><path clip-path="url(#clip980)" d="M2214.67 27.2059 L2222.08 27.2059 L2222.08 48.5136 L2243.1 27.2059 L2252.26 27.2059 L2234.92 44.7463 L2254.49 72.576 L2246.14 72.576 L2230.06 49.6884 L2222.08 57.7902 L2222.08 72.576 L2214.67 72.576 L2214.67 27.2059 Z" fill="#000000" fill-rule="nonzero" fill-opacity="1" /><path clip-path="url(#clip980)" d="M2285.68 49.7694 Q2276.65 49.7694 2273.16 51.8354 Q2269.68 53.9013 2269.68 58.8839 Q2269.68 62.8538 2272.27 65.2034 Q2274.9 67.5124 2279.4 67.5124 Q2285.6 67.5124 2289.32 63.1374 Q2293.09 58.7219 2293.09 51.4303 L2293.09 49.7694 L2285.68 49.7694 M2300.55 46.6907 L2300.55 72.576 L2293.09 72.576 L2293.09 65.6895 Q2290.54 69.8214 2286.73 71.8063 Q2282.92 73.7508 2277.41 73.7508 Q2270.45 73.7508 2266.32 69.8619 Q2262.22 65.9325 2262.22 59.3701 Q2262.22 51.7138 2267.33 47.825 Q2272.47 43.9361 2282.64 43.9361 L2293.09 43.9361 L2293.09 43.2069 Q2293.09 38.0623 2289.69 35.2672 Q2286.33 32.4315 2280.21 32.4315 Q2276.32 32.4315 2272.63 33.3632 Q2268.95 34.295 2265.55 36.1584 L2265.55 29.2718 Q2269.64 27.692 2273.49 26.9223 Q2277.33 26.1121 2280.98 26.1121 Q2290.82 26.1121 2295.68 31.2163 Q2300.55 36.3204 2300.55 46.6907 Z" fill="#000000" fill-rule="nonzero" fill-opacity="1" /><path clip-path="url(#clip980)" d="M2381.16 27.2059 L2381.16 72.576 L2373.66 72.576 L2373.66 33.1607 L2349.48 33.1607 L2349.48 72.576 L2341.99 72.576 L2341.99 27.2059 L2381.16 27.2059 Z" fill="#000000" fill-rule="nonzero" fill-opacity="1" /><path clip-path="url(#clip980)" d="M2403.72 65.7705 L2403.72 89.8329 L2396.23 89.8329 L2396.23 27.2059 L2403.72 27.2059 L2403.72 34.0924 Q2406.07 30.0415 2409.64 28.0971 Q2413.24 26.1121 2418.22 26.1121 Q2426.49 26.1121 2431.63 32.6746 Q2436.82 39.2371 2436.82 49.9314 Q2436.82 60.6258 2431.63 67.1883 Q2426.49 73.7508 2418.22 73.7508 Q2413.24 73.7508 2409.64 71.8063 Q2406.07 69.8214 2403.72 65.7705 M2429.08 49.9314 Q2429.08 41.7081 2425.68 37.0496 Q2422.32 32.3505 2416.4 32.3505 Q2410.49 32.3505 2407.08 37.0496 Q2403.72 41.7081 2403.72 49.9314 Q2403.72 58.1548 2407.08 62.8538 Q2410.49 67.5124 2416.4 67.5124 Q2422.32 67.5124 2425.68 62.8538 Q2429.08 58.1548 2429.08 49.9314 Z" fill="#000000" fill-rule="nonzero" fill-opacity="1" /><path clip-path="url(#clip980)" d="M2466.75 32.4315 Q2460.76 32.4315 2457.27 37.1306 Q2453.79 41.7891 2453.79 49.9314 Q2453.79 58.0738 2457.23 62.7728 Q2460.72 67.4314 2466.75 67.4314 Q2472.71 67.4314 2476.19 62.7323 Q2479.68 58.0333 2479.68 49.9314 Q2479.68 41.8701 2476.19 37.1711 Q2472.71 32.4315 2466.75 32.4315 M2466.75 26.1121 Q2476.48 26.1121 2482.03 32.4315 Q2487.58 38.7509 2487.58 49.9314 Q2487.58 61.0714 2482.03 67.4314 Q2476.48 73.7508 2466.75 73.7508 Q2456.99 73.7508 2451.44 67.4314 Q2445.93 61.0714 2445.93 49.9314 Q2445.93 38.7509 2451.44 32.4315 Q2456.99 26.1121 2466.75 26.1121 Z" fill="#000000" fill-rule="nonzero" fill-opacity="1" /><path clip-path="url(#clip980)" d="M2494.54 27.2059 L2538.01 27.2059 L2538.01 33.1607 L2519.94 33.1607 L2519.94 72.576 L2512.61 72.576 L2512.61 33.1607 L2494.54 33.1607 L2494.54 27.2059 Z" fill="#000000" fill-rule="nonzero" fill-opacity="1" /><path clip-path="url(#clip980)" d="M2586.82 27.2059 L2586.82 72.576 L2579.41 72.576 L2579.41 36.1584 L2557.53 72.576 L2547.97 72.576 L2547.97 27.2059 L2555.39 27.2059 L2555.39 63.5425 L2577.22 27.2059 L2586.82 27.2059 Z" fill="#000000" fill-rule="nonzero" fill-opacity="1" /><path clip-path="url(#clip980)" d="M2609.35 51.6733 L2609.35 66.6212 L2619.96 66.6212 Q2625.06 66.6212 2627.74 64.7172 Q2630.41 62.7728 2630.41 59.127 Q2630.41 55.4812 2627.74 53.5773 Q2625.06 51.6733 2619.96 51.6733 L2609.35 51.6733 M2609.35 33.1607 L2609.35 45.7185 L2619.15 45.7185 Q2623.36 45.7185 2626.04 44.0576 Q2628.71 42.3563 2628.71 39.3586 Q2628.71 36.3609 2626.04 34.7811 Q2623.36 33.1607 2619.15 33.1607 L2609.35 33.1607 M2601.89 27.2059 L2619.64 27.2059 Q2627.62 27.2059 2631.91 30.1225 Q2636.2 33.0392 2636.2 38.4269 Q2636.2 42.5993 2634.02 45.0704 Q2631.83 47.5009 2627.53 48.1085 Q2632.68 49.0808 2635.51 52.1594 Q2638.35 55.2381 2638.35 59.8562 Q2638.35 65.9325 2633.65 69.2543 Q2628.99 72.576 2620.32 72.576 L2601.89 72.576 L2601.89 27.2059 Z" fill="#000000" fill-rule="nonzero" fill-opacity="1" /><path clip-path="url(#clip980)" d="M2716.33 27.2059 L2716.33 72.576 L2708.84 72.576 L2708.84 33.1607 L2684.65 33.1607 L2684.65 72.576 L2677.16 72.576 L2677.16 27.2059 L2716.33 27.2059 Z" fill="#000000" fill-rule="nonzero" fill-opacity="1" /><path clip-path="url(#clip980)" d="M2752.3 49.7694 Q2743.27 49.7694 2739.78 51.8354 Q2736.3 53.9013 2736.3 58.8839 Q2736.3 62.8538 2738.89 65.2034 Q2741.53 67.5124 2746.02 67.5124 Q2752.22 67.5124 2755.95 63.1374 Q2759.72 58.7219 2759.72 51.4303 L2759.72 49.7694 L2752.3 49.7694 M2767.17 46.6907 L2767.17 72.576 L2759.72 72.576 L2759.72 65.6895 Q2757.16 69.8214 2753.36 71.8063 Q2749.55 73.7508 2744.04 73.7508 Q2737.07 73.7508 2732.94 69.8619 Q2728.85 65.9325 2728.85 59.3701 Q2728.85 51.7138 2733.95 47.825 Q2739.1 43.9361 2749.26 43.9361 L2759.72 43.9361 L2759.72 43.2069 Q2759.72 38.0623 2756.31 35.2672 Q2752.95 32.4315 2746.83 32.4315 Q2742.94 32.4315 2739.26 33.3632 Q2735.57 34.295 2732.17 36.1584 L2732.17 29.2718 Q2736.26 27.692 2740.11 26.9223 Q2743.96 26.1121 2747.6 26.1121 Q2757.45 26.1121 2762.31 31.2163 Q2767.17 36.3204 2767.17 46.6907 Z" fill="#000000" fill-rule="nonzero" fill-opacity="1" /><path clip-path="url(#clip980)" d="M2789.73 65.7705 L2789.73 89.8329 L2782.24 89.8329 L2782.24 27.2059 L2789.73 27.2059 L2789.73 34.0924 Q2792.08 30.0415 2795.65 28.0971 Q2799.25 26.1121 2804.23 26.1121 Q2812.5 26.1121 2817.64 32.6746 Q2822.83 39.2371 2822.83 49.9314 Q2822.83 60.6258 2817.64 67.1883 Q2812.5 73.7508 2804.23 73.7508 Q2799.25 73.7508 2795.65 71.8063 Q2792.08 69.8214 2789.73 65.7705 M2815.09 49.9314 Q2815.09 41.7081 2811.69 37.0496 Q2808.33 32.3505 2802.41 32.3505 Q2796.5 32.3505 2793.09 37.0496 Q2789.73 41.7081 2789.73 49.9314 Q2789.73 58.1548 2793.09 62.8538 Q2796.5 67.5124 2802.41 67.5124 Q2808.33 67.5124 2811.69 62.8538 Q2815.09 58.1548 2815.09 49.9314 Z" fill="#000000" fill-rule="nonzero" fill-opacity="1" /><path clip-path="url(#clip980)" d="M2829.8 27.2059 L2873.26 27.2059 L2873.26 33.1607 L2855.2 33.1607 L2855.2 72.576 L2847.86 72.576 L2847.86 33.1607 L2829.8 33.1607 L2829.8 27.2059 Z" fill="#000000" fill-rule="nonzero" fill-opacity="1" /><path clip-path="url(#clip980)" d="M2922.08 27.2059 L2922.08 72.576 L2914.66 72.576 L2914.66 36.1584 L2892.79 72.576 L2883.23 72.576 L2883.23 27.2059 L2890.64 27.2059 L2890.64 63.5425 L2912.47 27.2059 L2922.08 27.2059 Z" fill="#000000" fill-rule="nonzero" fill-opacity="1" /><path clip-path="url(#clip980)" d="M2958.21 48.1085 Q2963.23 49.0808 2966.03 52.0379 Q2968.82 54.9951 2968.82 59.3701 Q2968.82 66.3781 2963.6 70.0644 Q2958.37 73.7508 2948.73 73.7508 Q2945.49 73.7508 2942.05 73.1836 Q2938.64 72.6165 2935 71.4823 L2935 64.5552 Q2937.87 66.054 2941.32 66.8237 Q2944.76 67.5529 2948.53 67.5529 Q2954.64 67.5529 2958.05 65.2844 Q2961.49 63.0159 2961.49 59.3701 Q2961.49 55.8053 2958.45 53.6583 Q2955.41 51.4708 2949.86 51.4708 L2943.87 51.4708 L2943.87 45.3134 L2950.15 45.3134 Q2954.85 45.3134 2957.56 43.531 Q2960.32 41.7081 2960.32 38.8725 Q2960.32 36.2799 2957.48 34.4165 Q2954.69 32.5531 2949.86 32.5531 Q2946.99 32.5531 2943.71 33.0797 Q2940.47 33.6063 2936.54 34.7811 L2936.54 28.0161 Q2940.51 27.0438 2943.95 26.5577 Q2947.39 26.0716 2950.47 26.0716 Q2958.41 26.0716 2962.99 29.2718 Q2967.61 32.4315 2967.61 38.1433 Q2967.61 41.9107 2965.18 44.5437 Q2962.75 47.1363 2958.21 48.1085 Z" fill="#000000" fill-rule="nonzero" fill-opacity="1" /><path clip-path="url(#clip980)" d="M3002.16 49.7694 Q2993.13 49.7694 2989.64 51.8354 Q2986.16 53.9013 2986.16 58.8839 Q2986.16 62.8538 2988.75 65.2034 Q2991.39 67.5124 2995.88 67.5124 Q3002.08 67.5124 3005.81 63.1374 Q3009.58 58.7219 3009.58 51.4303 L3009.58 49.7694 L3002.16 49.7694 M3017.03 46.6907 L3017.03 72.576 L3009.58 72.576 L3009.58 65.6895 Q3007.02 69.8214 3003.22 71.8063 Q2999.41 73.7508 2993.9 73.7508 Q2986.93 73.7508 2982.8 69.8619 Q2978.71 65.9325 2978.71 59.3701 Q2978.71 51.7138 2983.81 47.825 Q2988.96 43.9361 2999.12 43.9361 L3009.58 43.9361 L3009.58 43.2069 Q3009.58 38.0623 3006.17 35.2672 Q3002.81 32.4315 2996.69 32.4315 Q2992.8 32.4315 2989.12 33.3632 Q2985.43 34.295 2982.03 36.1584 L2982.03 29.2718 Q2986.12 27.692 2989.97 26.9223 Q2993.82 26.1121 2997.46 26.1121 Q3007.31 26.1121 3012.17 31.2163 Q3017.03 36.3204 3017.03 46.6907 Z" fill="#000000" fill-rule="nonzero" fill-opacity="1" /><path clip-path="url(#clip980)" d="M3032.1 27.2059 L3039.59 27.2059 L3039.59 45.7185 L3063.78 45.7185 L3063.78 27.2059 L3071.27 27.2059 L3071.27 72.576 L3063.78 72.576 L3063.78 51.6733 L3039.59 51.6733 L3039.59 72.576 L3032.1 72.576 L3032.1 27.2059 Z" fill="#000000" fill-rule="nonzero" fill-opacity="1" /><polyline clip-path="url(#clip981)" style="stroke:#0000ff; stroke-linecap:round; stroke-linejoin:round; stroke-width:8; stroke-opacity:1; fill:none" points="279.327,193.563 314.462,232.874 349.596,268.493 384.73,301.099 419.864,331.229 454.999,359.313 490.133,385.693 525.267,410.648 560.402,434.401 595.536,457.134 630.67,478.995 665.804,500.105 700.939,520.565 736.073,540.456 771.207,559.844 806.342,578.788 841.476,597.332 876.61,615.516 911.744,633.371 946.879,650.926 982.013,668.203 1017.15,685.22 1052.28,701.996 1087.42,718.543 1122.55,734.873 1157.68,750.997 1192.82,766.924 1227.95,782.661 1263.09,798.214 1298.22,813.591 1333.36,828.795 1368.49,843.832 1403.62,858.706 1438.76,873.42 1473.89,887.978 1509.03,902.382 1544.16,916.636 1579.3,930.743 1614.43,944.704 1649.56,958.522 1684.7,972.199 1719.83,985.737 1754.97,999.137 1790.1,1012.4 1825.24,1025.53 1860.37,1038.53 1895.5,1051.4 1930.64,1064.14 1965.77,1076.76 2000.91,1089.24 2036.04,1101.61 2071.18,1113.85 2106.31,1125.97 2141.44,1137.96 2176.58,1149.84 2211.71,1161.6 2246.85,1173.25 2281.98,1184.77 2317.12,1196.19 2352.25,1207.49 2387.38,1218.68 2422.52,1229.76 2457.65,1240.73 2492.79,1251.59 2527.92,1262.34 2563.06,1272.99 2598.19,1283.53 2633.32,1293.97 2668.46,1304.3 2703.59,1314.54 2738.73,1324.67 2773.86,1334.7 2809,1344.64 2844.13,1354.47 2879.26,1364.21 2914.4,1373.85 2949.53,1383.4 2984.67,1392.85 3019.8,1402.21 3054.94,1411.48 3090.07,1420.66 3125.2,1429.74 3160.34,1438.74 3195.47,1447.65 3230.61,1456.47 3265.74,1465.21 3300.88,1473.85 3336.01,1482.42 3371.14,1490.9 3406.28,1499.29 3441.41,1507.61 3476.55,1515.84 3511.68,1523.99 3546.82,1532.06 3581.95,1540.05 3617.08,1547.97 3652.22,1555.8 3687.35,1563.56 3722.49,1571.25 3757.62,1578.85 3792.76,1586.39 "/>
<polyline clip-path="url(#clip981)" style="stroke:#008000; stroke-linecap:round; stroke-linejoin:round; stroke-width:8; stroke-opacity:1; fill:none" points="279.327,1761 314.462,1884.13 349.596,1983.12 384.73,2063.05 419.864,2127.85 454.999,2180.57 490.133,2223.59 525.267,2258.81 560.402,2287.72 595.536,2311.5 630.67,2331.11 665.804,2347.33 700.939,2360.75 736.073,2371.9 771.207,2381.16 806.342,2388.88 841.476,2395.32 876.61,2400.7 911.744,2405.21 946.879,2408.99 982.013,2412.16 1017.15,2414.82 1052.28,2417.07 1087.42,2418.96 1122.55,2420.56 1157.68,2421.9 1192.82,2423.04 1227.95,2424.01 1263.09,2424.83 1298.22,2425.52 1333.36,2426.1 1368.49,2426.6 1403.62,2427.02 1438.76,2427.38 1473.89,2427.68 1509.03,2427.94 1544.16,2428.16 1579.3,2428.34 1614.43,2428.5 1649.56,2428.62 1684.7,2428.73 1719.83,2428.82 1754.97,2428.9 1790.1,2428.96 1825.24,2429.01 1860.37,2429.04 1895.5,2429.07 1930.64,2429.1 1965.77,2429.11 2000.91,2429.12 2036.04,2429.13 2071.18,2429.13 2106.31,2429.13 2141.44,2429.12 2176.58,2429.11 2211.71,2429.1 2246.85,2429.08 2281.98,2429.07 2317.12,2429.05 2352.25,2429.03 2387.38,2429.01 2422.52,2428.99 2457.65,2428.96 2492.79,2428.94 2527.92,2428.91 2563.06,2428.89 2598.19,2428.86 2633.32,2428.83 2668.46,2428.8 2703.59,2428.77 2738.73,2428.75 2773.86,2428.72 2809,2428.68 2844.13,2428.65 2879.26,2428.62 2914.4,2428.59 2949.53,2428.56 2984.67,2428.53 3019.8,2428.49 3054.94,2428.46 3090.07,2428.43 3125.2,2428.39 3160.34,2428.36 3195.47,2428.32 3230.61,2428.29 3265.74,2428.25 3300.88,2428.22 3336.01,2428.18 3371.14,2428.15 3406.28,2428.11 3441.41,2428.07 3476.55,2428.04 3511.68,2428 3546.82,2427.96 3581.95,2427.92 3617.08,2427.89 3652.22,2427.85 3687.35,2427.81 3722.49,2427.77 3757.62,2427.73 3792.76,2427.69 "/>
<path clip-path="url(#clip980)" d="M2653.79 361.006 L3675.64 361.006 L3675.64 205.486 L2653.79 205.486  Z" fill="#ffffff" fill-rule="evenodd" fill-opacity="1"/>
<polyline clip-path="url(#clip980)" style="stroke:#000000; stroke-linecap:round; stroke-linejoin:round; stroke-width:4; stroke-opacity:1; fill:none" points="2653.79,361.006 3675.64,361.006 3675.64,205.486 2653.79,205.486 2653.79,361.006 "/>
<polyline clip-path="url(#clip980)" style="stroke:#0000ff; stroke-linecap:round; stroke-linejoin:round; stroke-width:8; stroke-opacity:1; fill:none" points="2692.83,257.326 2927.06,257.326 "/>
<path clip-path="url(#clip980)" d="M2990.75 248.68 L2981.38 261.296 L2991.24 274.606 L2986.21 274.606 L2978.67 264.421 L2971.12 274.606 L2966.1 274.606 L2976.17 261.041 L2966.95 248.68 L2971.98 248.68 L2978.85 257.916 L2985.73 248.68 L2990.75 248.68 Z" fill="#000000" fill-rule="nonzero" fill-opacity="1" /><path clip-path="url(#clip980)" d="M3007.49 238.634 Q3004.38 243.958 3002.88 249.166 Q3001.38 254.375 3001.38 259.722 Q3001.38 265.069 3002.88 270.324 Q3004.41 275.555 3007.49 280.856 L3003.78 280.856 Q3000.31 275.416 2998.57 270.162 Q2996.86 264.907 2996.86 259.722 Q2996.86 254.56 2998.57 249.328 Q3000.29 244.097 3003.78 238.634 L3007.49 238.634 Z" fill="#000000" fill-rule="nonzero" fill-opacity="1" /><path clip-path="url(#clip980)" d="M3019.96 241.319 L3019.96 248.68 L3028.74 248.68 L3028.74 251.99 L3019.96 251.99 L3019.96 266.064 Q3019.96 269.236 3020.82 270.139 Q3021.7 271.041 3024.36 271.041 L3028.74 271.041 L3028.74 274.606 L3024.36 274.606 Q3019.43 274.606 3017.56 272.777 Q3015.68 270.926 3015.68 266.064 L3015.68 251.99 L3012.56 251.99 L3012.56 248.68 L3015.68 248.68 L3015.68 241.319 L3019.96 241.319 Z" fill="#000000" fill-rule="nonzero" fill-opacity="1" /><path clip-path="url(#clip980)" d="M3033.67 238.634 L3037.37 238.634 Q3040.84 244.097 3042.56 249.328 Q3044.29 254.56 3044.29 259.722 Q3044.29 264.907 3042.56 270.162 Q3040.84 275.416 3037.37 280.856 L3033.67 280.856 Q3036.75 275.555 3038.25 270.324 Q3039.78 265.069 3039.78 259.722 Q3039.78 254.375 3038.25 249.166 Q3036.75 243.958 3033.67 238.634 Z" fill="#000000" fill-rule="nonzero" fill-opacity="1" /><path clip-path="url(#clip980)" d="M3065.75 259.953 L3108.53 259.953 L3108.53 263.287 L3065.75 263.287 L3065.75 259.953 Z" fill="#000000" fill-rule="nonzero" fill-opacity="1" /><path clip-path="url(#clip980)" d="M3134.5 270.717 L3134.5 284.467 L3130.22 284.467 L3130.22 248.68 L3134.5 248.68 L3134.5 252.615 Q3135.84 250.301 3137.88 249.19 Q3139.94 248.055 3142.79 248.055 Q3147.51 248.055 3150.45 251.805 Q3153.41 255.555 3153.41 261.666 Q3153.41 267.777 3150.45 271.527 Q3147.51 275.277 3142.79 275.277 Q3139.94 275.277 3137.88 274.166 Q3135.84 273.032 3134.5 270.717 M3148.99 261.666 Q3148.99 256.967 3147.05 254.305 Q3145.12 251.62 3141.75 251.62 Q3138.37 251.62 3136.42 254.305 Q3134.5 256.967 3134.5 261.666 Q3134.5 266.365 3136.42 269.051 Q3138.37 271.713 3141.75 271.713 Q3145.12 271.713 3147.05 269.051 Q3148.99 266.365 3148.99 261.666 Z" fill="#000000" fill-rule="nonzero" fill-opacity="1" /><path clip-path="url(#clip980)" d="M3182.65 260.578 L3182.65 262.662 L3163.06 262.662 Q3163.34 267.06 3165.7 269.375 Q3168.09 271.666 3172.32 271.666 Q3174.78 271.666 3177.07 271.064 Q3179.38 270.463 3181.65 269.259 L3181.65 273.287 Q3179.36 274.259 3176.95 274.768 Q3174.55 275.277 3172.07 275.277 Q3165.87 275.277 3162.23 271.666 Q3158.62 268.055 3158.62 261.898 Q3158.62 255.532 3162.05 251.805 Q3165.49 248.055 3171.33 248.055 Q3176.56 248.055 3179.59 251.435 Q3182.65 254.791 3182.65 260.578 M3178.39 259.328 Q3178.34 255.833 3176.42 253.75 Q3174.52 251.666 3171.37 251.666 Q3167.81 251.666 3165.66 253.68 Q3163.53 255.694 3163.2 259.352 L3178.39 259.328 Z" fill="#000000" fill-rule="nonzero" fill-opacity="1" /><path clip-path="url(#clip980)" d="M3189.48 274.606 L3189.48 248.68 L3207.76 248.68 L3207.76 252.083 L3193.76 252.083 L3193.76 274.606 L3189.48 274.606 Z" fill="#000000" fill-rule="nonzero" fill-opacity="1" /><path clip-path="url(#clip980)" d="M3225.33 277.014 Q3223.53 281.643 3221.81 283.055 Q3220.1 284.467 3217.23 284.467 L3213.83 284.467 L3213.83 280.902 L3216.33 280.902 Q3218.09 280.902 3219.06 280.069 Q3220.03 279.236 3221.21 276.134 L3221.98 274.189 L3211.49 248.68 L3216 248.68 L3224.11 268.958 L3232.21 248.68 L3236.72 248.68 L3225.33 277.014 Z" fill="#000000" fill-rule="nonzero" fill-opacity="1" /><path clip-path="url(#clip980)" d="M3239.89 274.606 L3239.89 271.064 Q3244.11 270.416 3245.4 267.5 Q3246.98 263.402 3246.98 252.916 L3246.98 248.68 L3264.5 248.68 L3264.5 274.606 L3260.24 274.606 L3260.24 252.083 L3251.24 252.083 L3251.24 254.653 Q3251.24 264.652 3249.2 269.143 Q3247.02 273.935 3239.89 274.606 Z" fill="#000000" fill-rule="nonzero" fill-opacity="1" /><path clip-path="url(#clip980)" d="M3277.18 256.157 Q3277.18 258.078 3278.67 259.166 Q3280.15 260.254 3282.9 260.254 L3288.64 260.254 L3288.64 252.083 L3282.9 252.083 Q3280.15 252.083 3278.67 253.148 Q3277.18 254.213 3277.18 256.157 M3271.12 274.606 L3279.04 263.24 Q3276.35 262.639 3274.57 261.065 Q3272.79 259.467 3272.79 256.157 Q3272.79 252.407 3275.26 250.555 Q3277.76 248.68 3282.79 248.68 L3292.92 248.68 L3292.92 274.606 L3288.64 274.606 L3288.64 263.657 L3283.34 263.657 L3275.7 274.606 L3271.12 274.606 Z" fill="#000000" fill-rule="nonzero" fill-opacity="1" /><path clip-path="url(#clip980)" d="M3305.54 270.717 L3305.54 284.467 L3301.26 284.467 L3301.26 248.68 L3305.54 248.68 L3305.54 252.615 Q3306.88 250.301 3308.92 249.19 Q3310.98 248.055 3313.83 248.055 Q3318.55 248.055 3321.49 251.805 Q3324.45 255.555 3324.45 261.666 Q3324.45 267.777 3321.49 271.527 Q3318.55 275.277 3313.83 275.277 Q3310.98 275.277 3308.92 274.166 Q3306.88 273.032 3305.54 270.717 M3320.03 261.666 Q3320.03 256.967 3318.09 254.305 Q3316.17 251.62 3312.79 251.62 Q3309.41 251.62 3307.46 254.305 Q3305.54 256.967 3305.54 261.666 Q3305.54 266.365 3307.46 269.051 Q3309.41 271.713 3312.79 271.713 Q3316.17 271.713 3318.09 269.051 Q3320.03 266.365 3320.03 261.666 Z" fill="#000000" fill-rule="nonzero" fill-opacity="1" /><path clip-path="url(#clip980)" d="M3331.35 248.68 L3335.63 248.68 L3335.63 259.259 L3349.45 259.259 L3349.45 248.68 L3353.73 248.68 L3353.73 274.606 L3349.45 274.606 L3349.45 262.662 L3335.63 262.662 L3335.63 274.606 L3331.35 274.606 L3331.35 248.68 Z" fill="#000000" fill-rule="nonzero" fill-opacity="1" /><path clip-path="url(#clip980)" d="M3374.29 261.574 Q3369.13 261.574 3367.14 262.754 Q3365.15 263.935 3365.15 266.782 Q3365.15 269.051 3366.63 270.393 Q3368.13 271.713 3370.7 271.713 Q3374.24 271.713 3376.37 269.213 Q3378.53 266.689 3378.53 262.523 L3378.53 261.574 L3374.29 261.574 M3382.79 259.815 L3382.79 274.606 L3378.53 274.606 L3378.53 270.671 Q3377.07 273.032 3374.89 274.166 Q3372.72 275.277 3369.57 275.277 Q3365.59 275.277 3363.23 273.055 Q3360.89 270.81 3360.89 267.06 Q3360.89 262.685 3363.8 260.463 Q3366.74 258.24 3372.55 258.24 L3378.53 258.24 L3378.53 257.824 Q3378.53 254.884 3376.58 253.287 Q3374.66 251.666 3371.17 251.666 Q3368.94 251.666 3366.84 252.199 Q3364.73 252.731 3362.79 253.796 L3362.79 249.861 Q3365.12 248.958 3367.32 248.518 Q3369.52 248.055 3371.6 248.055 Q3377.23 248.055 3380.01 250.972 Q3382.79 253.889 3382.79 259.815 Z" fill="#000000" fill-rule="nonzero" fill-opacity="1" /><path clip-path="url(#clip980)" d="M3395.84 256.157 Q3395.84 258.078 3397.32 259.166 Q3398.8 260.254 3401.56 260.254 L3407.3 260.254 L3407.3 252.083 L3401.56 252.083 Q3398.8 252.083 3397.32 253.148 Q3395.84 254.213 3395.84 256.157 M3389.78 274.606 L3397.69 263.24 Q3395.01 262.639 3393.23 261.065 Q3391.44 259.467 3391.44 256.157 Q3391.44 252.407 3393.92 250.555 Q3396.42 248.68 3401.44 248.68 L3411.58 248.68 L3411.58 274.606 L3407.3 274.606 L3407.3 263.657 L3402 263.657 L3394.36 274.606 L3389.78 274.606 Z" fill="#000000" fill-rule="nonzero" fill-opacity="1" /><path clip-path="url(#clip980)" d="M3446.93 261.574 Q3441.77 261.574 3439.78 262.754 Q3437.79 263.935 3437.79 266.782 Q3437.79 269.051 3439.27 270.393 Q3440.77 271.713 3443.34 271.713 Q3446.88 271.713 3449.01 269.213 Q3451.16 266.689 3451.16 262.523 L3451.16 261.574 L3446.93 261.574 M3455.42 259.815 L3455.42 274.606 L3451.16 274.606 L3451.16 270.671 Q3449.71 273.032 3447.53 274.166 Q3445.35 275.277 3442.21 275.277 Q3438.22 275.277 3435.86 273.055 Q3433.53 270.81 3433.53 267.06 Q3433.53 262.685 3436.44 260.463 Q3439.38 258.24 3445.19 258.24 L3451.16 258.24 L3451.16 257.824 Q3451.16 254.884 3449.22 253.287 Q3447.3 251.666 3443.8 251.666 Q3441.58 251.666 3439.47 252.199 Q3437.37 252.731 3435.42 253.796 L3435.42 249.861 Q3437.76 248.958 3439.96 248.518 Q3442.16 248.055 3444.24 248.055 Q3449.87 248.055 3452.65 250.972 Q3455.42 253.889 3455.42 259.815 Z" fill="#000000" fill-rule="nonzero" fill-opacity="1" /><path clip-path="url(#clip980)" d="M3468.32 270.717 L3468.32 284.467 L3464.03 284.467 L3464.03 248.68 L3468.32 248.68 L3468.32 252.615 Q3469.66 250.301 3471.7 249.19 Q3473.76 248.055 3476.6 248.055 Q3481.33 248.055 3484.27 251.805 Q3487.23 255.555 3487.23 261.666 Q3487.23 267.777 3484.27 271.527 Q3481.33 275.277 3476.6 275.277 Q3473.76 275.277 3471.7 274.166 Q3469.66 273.032 3468.32 270.717 M3482.81 261.666 Q3482.81 256.967 3480.86 254.305 Q3478.94 251.62 3475.56 251.62 Q3472.18 251.62 3470.24 254.305 Q3468.32 256.967 3468.32 261.666 Q3468.32 266.365 3470.24 269.051 Q3472.18 271.713 3475.56 271.713 Q3478.94 271.713 3480.86 269.051 Q3482.81 266.365 3482.81 261.666 Z" fill="#000000" fill-rule="nonzero" fill-opacity="1" /><path clip-path="url(#clip980)" d="M3494.13 248.68 L3500.35 248.68 L3507.72 266.041 L3515.1 248.68 L3521.28 248.68 L3521.28 274.606 L3517 274.606 L3517 252.754 L3509.84 269.629 L3505.59 269.629 L3498.41 252.754 L3498.41 274.606 L3494.13 274.606 L3494.13 248.68 Z" fill="#000000" fill-rule="nonzero" fill-opacity="1" /><path clip-path="url(#clip980)" d="M3552.09 248.68 L3552.09 274.606 L3547.85 274.606 L3547.85 253.796 L3535.35 274.606 L3529.89 274.606 L3529.89 248.68 L3534.13 248.68 L3534.13 269.444 L3546.6 248.68 L3552.09 248.68 Z" fill="#000000" fill-rule="nonzero" fill-opacity="1" /><path clip-path="url(#clip980)" d="M3565.15 256.157 Q3565.15 258.078 3566.63 259.166 Q3568.11 260.254 3570.86 260.254 L3576.6 260.254 L3576.6 252.083 L3570.86 252.083 Q3568.11 252.083 3566.63 253.148 Q3565.15 254.213 3565.15 256.157 M3559.08 274.606 L3567 263.24 Q3564.31 262.639 3562.53 261.065 Q3560.75 259.467 3560.75 256.157 Q3560.75 252.407 3563.22 250.555 Q3565.72 248.68 3570.75 248.68 L3580.89 248.68 L3580.89 274.606 L3576.6 274.606 L3576.6 263.657 L3571.3 263.657 L3563.66 274.606 L3559.08 274.606 Z" fill="#000000" fill-rule="nonzero" fill-opacity="1" /><polyline clip-path="url(#clip980)" style="stroke:#008000; stroke-linecap:round; stroke-linejoin:round; stroke-width:8; stroke-opacity:1; fill:none" points="2692.83,309.166 2927.06,309.166 "/>
<path clip-path="url(#clip980)" d="M2979.94 328.854 Q2978.13 333.483 2976.42 334.895 Q2974.71 336.307 2971.84 336.307 L2968.44 336.307 L2968.44 332.742 L2970.94 332.742 Q2972.7 332.742 2973.67 331.909 Q2974.64 331.076 2975.82 327.974 L2976.58 326.029 L2966.1 300.52 L2970.61 300.52 L2978.71 320.798 L2986.82 300.52 L2991.33 300.52 L2979.94 328.854 Z" fill="#000000" fill-rule="nonzero" fill-opacity="1" /><path clip-path="url(#clip980)" d="M3007.44 290.474 Q3004.34 295.798 3002.83 301.006 Q3001.33 306.215 3001.33 311.562 Q3001.33 316.909 3002.83 322.164 Q3004.36 327.395 3007.44 332.696 L3003.74 332.696 Q3000.26 327.256 2998.53 322.002 Q2996.82 316.747 2996.82 311.562 Q2996.82 306.4 2998.53 301.168 Q3000.24 295.937 3003.74 290.474 L3007.44 290.474 Z" fill="#000000" fill-rule="nonzero" fill-opacity="1" /><path clip-path="url(#clip980)" d="M3019.92 293.159 L3019.92 300.52 L3028.69 300.52 L3028.69 303.83 L3019.92 303.83 L3019.92 317.904 Q3019.92 321.076 3020.77 321.979 Q3021.65 322.881 3024.32 322.881 L3028.69 322.881 L3028.69 326.446 L3024.32 326.446 Q3019.38 326.446 3017.51 324.617 Q3015.63 322.766 3015.63 317.904 L3015.63 303.83 L3012.51 303.83 L3012.51 300.52 L3015.63 300.52 L3015.63 293.159 L3019.92 293.159 Z" fill="#000000" fill-rule="nonzero" fill-opacity="1" /><path clip-path="url(#clip980)" d="M3033.62 290.474 L3037.32 290.474 Q3040.8 295.937 3042.51 301.168 Q3044.25 306.4 3044.25 311.562 Q3044.25 316.747 3042.51 322.002 Q3040.8 327.256 3037.32 332.696 L3033.62 332.696 Q3036.7 327.395 3038.2 322.164 Q3039.73 316.909 3039.73 311.562 Q3039.73 306.215 3038.2 301.006 Q3036.7 295.798 3033.62 290.474 Z" fill="#000000" fill-rule="nonzero" fill-opacity="1" /><path clip-path="url(#clip980)" d="M3065.7 311.793 L3108.48 311.793 L3108.48 315.127 L3065.7 315.127 L3065.7 311.793 Z" fill="#000000" fill-rule="nonzero" fill-opacity="1" /><path clip-path="url(#clip980)" d="M3152.56 300.52 L3152.56 326.446 L3148.27 326.446 L3148.27 303.923 L3134.45 303.923 L3134.45 326.446 L3130.17 326.446 L3130.17 300.52 L3152.56 300.52 Z" fill="#000000" fill-rule="nonzero" fill-opacity="1" /><path clip-path="url(#clip980)" d="M3173.11 313.414 Q3167.95 313.414 3165.96 314.594 Q3163.97 315.775 3163.97 318.622 Q3163.97 320.891 3165.45 322.233 Q3166.95 323.553 3169.52 323.553 Q3173.06 323.553 3175.19 321.053 Q3177.35 318.529 3177.35 314.363 L3177.35 313.414 L3173.11 313.414 M3181.61 311.655 L3181.61 326.446 L3177.35 326.446 L3177.35 322.511 Q3175.89 324.872 3173.71 326.006 Q3171.54 327.117 3168.39 327.117 Q3164.41 327.117 3162.05 324.895 Q3159.71 322.65 3159.71 318.9 Q3159.71 314.525 3162.62 312.303 Q3165.56 310.08 3171.37 310.08 L3177.35 310.08 L3177.35 309.664 Q3177.35 306.724 3175.4 305.127 Q3173.48 303.506 3169.99 303.506 Q3167.76 303.506 3165.66 304.039 Q3163.55 304.571 3161.61 305.636 L3161.61 301.701 Q3163.94 300.798 3166.14 300.358 Q3168.34 299.895 3170.43 299.895 Q3176.05 299.895 3178.83 302.812 Q3181.61 305.729 3181.61 311.655 Z" fill="#000000" fill-rule="nonzero" fill-opacity="1" /><path clip-path="url(#clip980)" d="M3194.5 322.557 L3194.5 336.307 L3190.22 336.307 L3190.22 300.52 L3194.5 300.52 L3194.5 304.455 Q3195.84 302.141 3197.88 301.03 Q3199.94 299.895 3202.79 299.895 Q3207.51 299.895 3210.45 303.645 Q3213.41 307.395 3213.41 313.506 Q3213.41 319.617 3210.45 323.367 Q3207.51 327.117 3202.79 327.117 Q3199.94 327.117 3197.88 326.006 Q3195.84 324.872 3194.5 322.557 M3208.99 313.506 Q3208.99 308.807 3207.05 306.145 Q3205.12 303.46 3201.74 303.46 Q3198.37 303.46 3196.42 306.145 Q3194.5 308.807 3194.5 313.506 Q3194.5 318.205 3196.42 320.891 Q3198.37 323.553 3201.74 323.553 Q3205.12 323.553 3207.05 320.891 Q3208.99 318.205 3208.99 313.506 Z" fill="#000000" fill-rule="nonzero" fill-opacity="1" /><path clip-path="url(#clip980)" d="M3217.39 300.52 L3242.23 300.52 L3242.23 303.923 L3231.91 303.923 L3231.91 326.446 L3227.72 326.446 L3227.72 303.923 L3217.39 303.923 L3217.39 300.52 Z" fill="#000000" fill-rule="nonzero" fill-opacity="1" /><path clip-path="url(#clip980)" d="M3270.12 300.52 L3270.12 326.446 L3265.89 326.446 L3265.89 305.636 L3253.39 326.446 L3247.93 326.446 L3247.93 300.52 L3252.16 300.52 L3252.16 321.284 L3264.64 300.52 L3270.12 300.52 Z" fill="#000000" fill-rule="nonzero" fill-opacity="1" /><path clip-path="url(#clip980)" d="M3290.77 312.465 Q3293.64 313.02 3295.24 314.71 Q3296.84 316.4 3296.84 318.9 Q3296.84 322.904 3293.85 325.011 Q3290.86 327.117 3285.36 327.117 Q3283.5 327.117 3281.54 326.793 Q3279.59 326.469 3277.51 325.821 L3277.51 321.863 Q3279.15 322.719 3281.12 323.159 Q3283.09 323.576 3285.24 323.576 Q3288.74 323.576 3290.68 322.279 Q3292.65 320.983 3292.65 318.9 Q3292.65 316.863 3290.91 315.636 Q3289.17 314.386 3286 314.386 L3282.58 314.386 L3282.58 310.867 L3286.17 310.867 Q3288.85 310.867 3290.4 309.849 Q3291.98 308.807 3291.98 307.187 Q3291.98 305.705 3290.36 304.641 Q3288.76 303.576 3286 303.576 Q3284.36 303.576 3282.49 303.877 Q3280.63 304.178 3278.39 304.849 L3278.39 300.983 Q3280.66 300.428 3282.62 300.15 Q3284.59 299.872 3286.35 299.872 Q3290.89 299.872 3293.5 301.701 Q3296.14 303.506 3296.14 306.77 Q3296.14 308.923 3294.75 310.428 Q3293.36 311.909 3290.77 312.465 Z" fill="#000000" fill-rule="nonzero" fill-opacity="1" /><path clip-path="url(#clip980)" d="M3315.89 313.414 Q3310.73 313.414 3308.73 314.594 Q3306.74 315.775 3306.74 318.622 Q3306.74 320.891 3308.23 322.233 Q3309.73 323.553 3312.3 323.553 Q3315.84 323.553 3317.97 321.053 Q3320.12 318.529 3320.12 314.363 L3320.12 313.414 L3315.89 313.414 M3324.38 311.655 L3324.38 326.446 L3320.12 326.446 L3320.12 322.511 Q3318.67 324.872 3316.49 326.006 Q3314.31 327.117 3311.17 327.117 Q3307.18 327.117 3304.82 324.895 Q3302.48 322.65 3302.48 318.9 Q3302.48 314.525 3305.4 312.303 Q3308.34 310.08 3314.15 310.08 L3320.12 310.08 L3320.12 309.664 Q3320.12 306.724 3318.18 305.127 Q3316.26 303.506 3312.76 303.506 Q3310.54 303.506 3308.43 304.039 Q3306.33 304.571 3304.38 305.636 L3304.38 301.701 Q3306.72 300.798 3308.92 300.358 Q3311.12 299.895 3313.2 299.895 Q3318.83 299.895 3321.61 302.812 Q3324.38 305.729 3324.38 311.655 Z" fill="#000000" fill-rule="nonzero" fill-opacity="1" /><path clip-path="url(#clip980)" d="M3332.99 300.52 L3337.28 300.52 L3337.28 311.099 L3351.1 311.099 L3351.1 300.52 L3355.38 300.52 L3355.38 326.446 L3351.1 326.446 L3351.1 314.502 L3337.28 314.502 L3337.28 326.446 L3332.99 326.446 L3332.99 300.52 Z" fill="#000000" fill-rule="nonzero" fill-opacity="1" /><path clip-path="url(#clip980)" d="M3382.81 301.516 L3382.81 305.497 Q3381 304.502 3379.17 304.016 Q3377.37 303.506 3375.52 303.506 Q3371.37 303.506 3369.08 306.145 Q3366.79 308.761 3366.79 313.506 Q3366.79 318.252 3369.08 320.891 Q3371.37 323.506 3375.52 323.506 Q3377.37 323.506 3379.17 323.02 Q3381 322.511 3382.81 321.516 L3382.81 325.451 Q3381.03 326.284 3379.1 326.701 Q3377.21 327.117 3375.05 327.117 Q3369.2 327.117 3365.75 323.437 Q3362.3 319.756 3362.3 313.506 Q3362.3 307.164 3365.77 303.53 Q3369.27 299.895 3375.33 299.895 Q3377.3 299.895 3379.17 300.312 Q3381.05 300.706 3382.81 301.516 Z" fill="#000000" fill-rule="nonzero" fill-opacity="1" /><path clip-path="url(#clip980)" d="M3390.05 300.52 L3394.29 300.52 L3394.29 312.696 L3406.3 300.52 L3411.54 300.52 L3401.63 310.543 L3412.81 326.446 L3408.04 326.446 L3398.85 313.367 L3394.29 317.997 L3394.29 326.446 L3390.05 326.446 L3390.05 300.52 Z" fill="#000000" fill-rule="nonzero" fill-opacity="1" /><path clip-path="url(#clip980)" d="M3440.89 300.52 L3440.89 326.446 L3436.65 326.446 L3436.65 305.636 L3424.15 326.446 L3418.69 326.446 L3418.69 300.52 L3422.92 300.52 L3422.92 321.284 L3435.4 300.52 L3440.89 300.52 Z" fill="#000000" fill-rule="nonzero" fill-opacity="1" /><path clip-path="url(#clip980)" d="M3471.7 300.52 L3471.7 326.446 L3467.46 326.446 L3467.46 305.636 L3454.96 326.446 L3449.5 326.446 L3449.5 300.52 L3453.73 300.52 L3453.73 321.284 L3466.21 300.52 L3471.7 300.52 M3453.36 290.428 L3456.1 290.428 Q3456.35 292.164 3457.46 293.044 Q3458.6 293.9 3460.61 293.9 Q3462.6 293.9 3463.71 293.044 Q3464.82 292.187 3465.12 290.428 L3467.85 290.428 Q3467.62 293.738 3465.79 295.405 Q3463.97 297.071 3460.61 297.071 Q3457.25 297.071 3455.42 295.405 Q3453.6 293.738 3453.36 290.428 Z" fill="#000000" fill-rule="nonzero" fill-opacity="1" /><path clip-path="url(#clip980)" d="M3505.59 303.506 Q3502.16 303.506 3500.17 306.192 Q3498.18 308.854 3498.18 313.506 Q3498.18 318.159 3500.15 320.844 Q3502.14 323.506 3505.59 323.506 Q3508.99 323.506 3510.98 320.821 Q3512.97 318.136 3512.97 313.506 Q3512.97 308.9 3510.98 306.215 Q3508.99 303.506 3505.59 303.506 M3505.59 299.895 Q3511.14 299.895 3514.31 303.506 Q3517.48 307.118 3517.48 313.506 Q3517.48 319.872 3514.31 323.506 Q3511.14 327.117 3505.59 327.117 Q3500.01 327.117 3496.84 323.506 Q3493.69 319.872 3493.69 313.506 Q3493.69 307.118 3496.84 303.506 Q3500.01 299.895 3505.59 299.895 Z" fill="#000000" fill-rule="nonzero" fill-opacity="1" /><path clip-path="url(#clip980)" d="M3521.47 300.52 L3546.3 300.52 L3546.3 303.923 L3535.98 303.923 L3535.98 326.446 L3531.79 326.446 L3531.79 303.923 L3521.47 303.923 L3521.47 300.52 Z" fill="#000000" fill-rule="nonzero" fill-opacity="1" /><path clip-path="url(#clip980)" d="M3556.28 322.557 L3556.28 336.307 L3552 336.307 L3552 300.52 L3556.28 300.52 L3556.28 304.455 Q3557.62 302.141 3559.66 301.03 Q3561.72 299.895 3564.57 299.895 Q3569.29 299.895 3572.23 303.645 Q3575.19 307.395 3575.19 313.506 Q3575.19 319.617 3572.23 323.367 Q3569.29 327.117 3564.57 327.117 Q3561.72 327.117 3559.66 326.006 Q3557.62 324.872 3556.28 322.557 M3570.77 313.506 Q3570.77 308.807 3568.83 306.145 Q3566.9 303.46 3563.53 303.46 Q3560.15 303.46 3558.2 306.145 Q3556.28 308.807 3556.28 313.506 Q3556.28 318.205 3558.2 320.891 Q3560.15 323.553 3563.53 323.553 Q3566.9 323.553 3568.83 320.891 Q3570.77 318.205 3570.77 313.506 Z" fill="#000000" fill-rule="nonzero" fill-opacity="1" /><path clip-path="url(#clip980)" d="M3586.53 307.997 Q3586.53 309.918 3588.02 311.006 Q3589.5 312.094 3592.25 312.094 L3597.99 312.094 L3597.99 303.923 L3592.25 303.923 Q3589.5 303.923 3588.02 304.988 Q3586.53 306.053 3586.53 307.997 M3580.47 326.446 L3588.39 315.08 Q3585.7 314.479 3583.92 312.905 Q3582.14 311.307 3582.14 307.997 Q3582.14 304.247 3584.61 302.395 Q3587.11 300.52 3592.14 300.52 L3602.27 300.52 L3602.27 326.446 L3597.99 326.446 L3597.99 315.497 L3592.69 315.497 L3585.05 326.446 L3580.47 326.446 Z" fill="#000000" fill-rule="nonzero" fill-opacity="1" /><path clip-path="url(#clip980)" d="M3616.56 323.043 L3628.92 323.043 L3628.92 303.923 L3619.96 303.923 L3619.96 307.164 Q3619.96 316.701 3617.23 321.793 L3616.56 323.043 M3610.38 323.043 Q3612.48 322.117 3613.41 320.15 Q3615.68 315.266 3615.68 305.428 L3615.68 300.52 L3633.2 300.52 L3633.2 323.043 L3636.6 323.043 L3636.6 332.997 L3633.2 332.997 L3633.2 326.446 L3612.18 326.446 L3612.18 332.997 L3608.78 332.997 L3608.78 323.043 L3610.38 323.043 Z" fill="#000000" fill-rule="nonzero" fill-opacity="1" /></svg>
