<?xml version="1.0" encoding="utf-8"?>
<svg xmlns="http://www.w3.org/2000/svg" xmlns:xlink="http://www.w3.org/1999/xlink" width="960" height="672" viewBox="0 0 3840 2688">
<defs>
  <clipPath id="clip070">
    <rect x="0" y="0" width="3840" height="2688"/>
  </clipPath>
</defs>
<path clip-path="url(#clip070)" d="M0 2688 L3840 2688 L3840 0 L0 0  Z" fill="#ffffff" fill-rule="evenodd" fill-opacity="1"/>
<defs>
  <clipPath id="clip071">
    <rect x="237" y="876" width="3556" height="1653"/>
  </clipPath>
</defs>
<path clip-path="url(#clip070)" d="M311.225 2496.2 L3792.76 2496.2 L3792.76 126.496 L311.225 126.496  Z" fill="#ffffff" fill-rule="evenodd" fill-opacity="1"/>
<defs>
  <clipPath id="clip072">
    <rect x="311" y="126" width="3483" height="2371"/>
  </clipPath>
</defs>
<polyline clip-path="url(#clip072)" style="stroke:#000000; stroke-linecap:round; stroke-linejoin:round; stroke-width:2; stroke-opacity:0.1; fill:none" points="311.225,2496.2 311.225,126.496 "/>
<polyline clip-path="url(#clip072)" style="stroke:#000000; stroke-linecap:round; stroke-linejoin:round; stroke-width:2; stroke-opacity:0.1; fill:none" points="1007.53,2496.2 1007.53,126.496 "/>
<polyline clip-path="url(#clip072)" style="stroke:#000000; stroke-linecap:round; stroke-linejoin:round; stroke-width:2; stroke-opacity:0.1; fill:none" points="1703.84,2496.2 1703.84,126.496 "/>
<polyline clip-path="url(#clip072)" style="stroke:#000000; stroke-linecap:round; stroke-linejoin:round; stroke-width:2; stroke-opacity:0.1; fill:none" points="2400.14,2496.2 2400.14,126.496 "/>
<polyline clip-path="url(#clip072)" style="stroke:#000000; stroke-linecap:round; stroke-linejoin:round; stroke-width:2; stroke-opacity:0.1; fill:none" points="3096.45,2496.2 3096.45,126.496 "/>
<polyline clip-path="url(#clip072)" style="stroke:#000000; stroke-linecap:round; stroke-linejoin:round; stroke-width:2; stroke-opacity:0.1; fill:none" points="3792.76,2496.2 3792.76,126.496 "/>
<polyline clip-path="url(#clip072)" style="stroke:#000000; stroke-linecap:round; stroke-linejoin:round; stroke-width:2; stroke-opacity:0.1; fill:none" points="311.225,2289.47 3792.76,2289.47 "/>
<polyline clip-path="url(#clip072)" style="stroke:#000000; stroke-linecap:round; stroke-linejoin:round; stroke-width:2; stroke-opacity:0.1; fill:none" points="311.225,1765.49 3792.76,1765.49 "/>
<polyline clip-path="url(#clip072)" style="stroke:#000000; stroke-linecap:round; stroke-linejoin:round; stroke-width:2; stroke-opacity:0.1; fill:none" points="311.225,1241.52 3792.76,1241.52 "/>
<polyline clip-path="url(#clip072)" style="stroke:#000000; stroke-linecap:round; stroke-linejoin:round; stroke-width:2; stroke-opacity:0.1; fill:none" points="311.225,717.54 3792.76,717.54 "/>
<polyline clip-path="url(#clip072)" style="stroke:#000000; stroke-linecap:round; stroke-linejoin:round; stroke-width:2; stroke-opacity:0.1; fill:none" points="311.225,193.563 3792.76,193.563 "/>
<polyline clip-path="url(#clip070)" style="stroke:#000000; stroke-linecap:round; stroke-linejoin:round; stroke-width:4; stroke-opacity:1; fill:none" points="311.225,2496.2 3792.76,2496.2 "/>
<polyline clip-path="url(#clip070)" style="stroke:#000000; stroke-linecap:round; stroke-linejoin:round; stroke-width:4; stroke-opacity:1; fill:none" points="311.225,2496.2 311.225,2477.3 "/>
<polyline clip-path="url(#clip070)" style="stroke:#000000; stroke-linecap:round; stroke-linejoin:round; stroke-width:4; stroke-opacity:1; fill:none" points="1007.53,2496.2 1007.53,2477.3 "/>
<polyline clip-path="url(#clip070)" style="stroke:#000000; stroke-linecap:round; stroke-linejoin:round; stroke-width:4; stroke-opacity:1; fill:none" points="1703.84,2496.2 1703.84,2477.3 "/>
<polyline clip-path="url(#clip070)" style="stroke:#000000; stroke-linecap:round; stroke-linejoin:round; stroke-width:4; stroke-opacity:1; fill:none" points="2400.14,2496.2 2400.14,2477.3 "/>
<polyline clip-path="url(#clip070)" style="stroke:#000000; stroke-linecap:round; stroke-linejoin:round; stroke-width:4; stroke-opacity:1; fill:none" points="3096.45,2496.2 3096.45,2477.3 "/>
<polyline clip-path="url(#clip070)" style="stroke:#000000; stroke-linecap:round; stroke-linejoin:round; stroke-width:4; stroke-opacity:1; fill:none" points="3792.76,2496.2 3792.76,2477.3 "/>
<path clip-path="url(#clip070)" d="M288.61 2538.63 Q284.998 2538.63 283.17 2542.2 Q281.364 2545.74 281.364 2552.87 Q281.364 2559.98 283.17 2563.54 Q284.998 2567.08 288.61 2567.08 Q292.244 2567.08 294.049 2563.54 Q295.878 2559.98 295.878 2552.87 Q295.878 2545.74 294.049 2542.2 Q292.244 2538.63 288.61 2538.63 M288.61 2534.93 Q294.42 2534.93 297.475 2539.54 Q300.554 2544.12 300.554 2552.87 Q300.554 2561.6 297.475 2566.2 Q294.42 2570.79 288.61 2570.79 Q282.799 2570.79 279.721 2566.2 Q276.665 2561.6 276.665 2552.87 Q276.665 2544.12 279.721 2539.54 Q282.799 2534.93 288.61 2534.93 Z" fill="#000000" fill-rule="nonzero" fill-opacity="1" /><path clip-path="url(#clip070)" d="M308.772 2564.24 L313.656 2564.24 L313.656 2570.12 L308.772 2570.12 L308.772 2564.24 Z" fill="#000000" fill-rule="nonzero" fill-opacity="1" /><path clip-path="url(#clip070)" d="M333.841 2538.63 Q330.23 2538.63 328.401 2542.2 Q326.595 2545.74 326.595 2552.87 Q326.595 2559.98 328.401 2563.54 Q330.23 2567.08 333.841 2567.08 Q337.475 2567.08 339.281 2563.54 Q341.109 2559.98 341.109 2552.87 Q341.109 2545.74 339.281 2542.2 Q337.475 2538.63 333.841 2538.63 M333.841 2534.93 Q339.651 2534.93 342.707 2539.54 Q345.785 2544.12 345.785 2552.87 Q345.785 2561.6 342.707 2566.2 Q339.651 2570.79 333.841 2570.79 Q328.031 2570.79 324.952 2566.2 Q321.896 2561.6 321.896 2552.87 Q321.896 2544.12 324.952 2539.54 Q328.031 2534.93 333.841 2534.93 Z" fill="#000000" fill-rule="nonzero" fill-opacity="1" /><path clip-path="url(#clip070)" d="M985.714 2538.63 Q982.103 2538.63 980.275 2542.2 Q978.469 2545.74 978.469 2552.87 Q978.469 2559.98 980.275 2563.54 Q982.103 2567.08 985.714 2567.08 Q989.349 2567.08 991.154 2563.54 Q992.983 2559.98 992.983 2552.87 Q992.983 2545.74 991.154 2542.2 Q989.349 2538.63 985.714 2538.63 M985.714 2534.93 Q991.524 2534.93 994.58 2539.54 Q997.659 2544.12 997.659 2552.87 Q997.659 2561.6 994.58 2566.2 Q991.524 2570.79 985.714 2570.79 Q979.904 2570.79 976.825 2566.2 Q973.77 2561.6 973.77 2552.87 Q973.77 2544.12 976.825 2539.54 Q979.904 2534.93 985.714 2534.93 Z" fill="#000000" fill-rule="nonzero" fill-opacity="1" /><path clip-path="url(#clip070)" d="M1005.88 2564.24 L1010.76 2564.24 L1010.76 2570.12 L1005.88 2570.12 L1005.88 2564.24 Z" fill="#000000" fill-rule="nonzero" fill-opacity="1" /><path clip-path="url(#clip070)" d="M1024.97 2566.18 L1041.29 2566.18 L1041.29 2570.12 L1019.35 2570.12 L1019.35 2566.18 Q1022.01 2563.43 1026.59 2558.8 Q1031.2 2554.14 1032.38 2552.8 Q1034.63 2550.28 1035.51 2548.54 Q1036.41 2546.78 1036.41 2545.09 Q1036.41 2542.34 1034.46 2540.6 Q1032.54 2538.87 1029.44 2538.87 Q1027.24 2538.87 1024.79 2539.63 Q1022.36 2540.39 1019.58 2541.94 L1019.58 2537.22 Q1022.4 2536.09 1024.86 2535.51 Q1027.31 2534.93 1029.35 2534.93 Q1034.72 2534.93 1037.91 2537.62 Q1041.11 2540.3 1041.11 2544.79 Q1041.11 2546.92 1040.3 2548.84 Q1039.51 2550.74 1037.4 2553.33 Q1036.83 2554 1033.72 2557.22 Q1030.62 2560.42 1024.97 2566.18 Z" fill="#000000" fill-rule="nonzero" fill-opacity="1" /><path clip-path="url(#clip070)" d="M1680.98 2538.63 Q1677.37 2538.63 1675.54 2542.2 Q1673.73 2545.74 1673.73 2552.87 Q1673.73 2559.98 1675.54 2563.54 Q1677.37 2567.08 1680.98 2567.08 Q1684.61 2567.08 1686.42 2563.54 Q1688.25 2559.98 1688.25 2552.87 Q1688.25 2545.74 1686.42 2542.2 Q1684.61 2538.63 1680.98 2538.63 M1680.98 2534.93 Q1686.79 2534.93 1689.84 2539.54 Q1692.92 2544.12 1692.92 2552.87 Q1692.92 2561.6 1689.84 2566.2 Q1686.79 2570.79 1680.98 2570.79 Q1675.17 2570.79 1672.09 2566.2 Q1669.03 2561.6 1669.03 2552.87 Q1669.03 2544.12 1672.09 2539.54 Q1675.17 2534.93 1680.98 2534.93 Z" fill="#000000" fill-rule="nonzero" fill-opacity="1" /><path clip-path="url(#clip070)" d="M1701.14 2564.24 L1706.02 2564.24 L1706.02 2570.12 L1701.14 2570.12 L1701.14 2564.24 Z" fill="#000000" fill-rule="nonzero" fill-opacity="1" /><path clip-path="url(#clip070)" d="M1729.06 2539.63 L1717.25 2558.08 L1729.06 2558.08 L1729.06 2539.63 M1727.83 2535.56 L1733.71 2535.56 L1733.71 2558.08 L1738.64 2558.08 L1738.64 2561.97 L1733.71 2561.97 L1733.71 2570.12 L1729.06 2570.12 L1729.06 2561.97 L1713.46 2561.97 L1713.46 2557.45 L1727.83 2535.56 Z" fill="#000000" fill-rule="nonzero" fill-opacity="1" /><path clip-path="url(#clip070)" d="M2377.45 2538.63 Q2373.84 2538.63 2372.01 2542.2 Q2370.2 2545.74 2370.2 2552.87 Q2370.2 2559.98 2372.01 2563.54 Q2373.84 2567.08 2377.45 2567.08 Q2381.08 2567.08 2382.89 2563.54 Q2384.72 2559.98 2384.72 2552.87 Q2384.72 2545.74 2382.89 2542.2 Q2381.08 2538.63 2377.45 2538.63 M2377.45 2534.93 Q2383.26 2534.93 2386.31 2539.54 Q2389.39 2544.12 2389.39 2552.87 Q2389.39 2561.6 2386.31 2566.2 Q2383.26 2570.79 2377.45 2570.79 Q2371.64 2570.79 2368.56 2566.2 Q2365.5 2561.6 2365.5 2552.87 Q2365.5 2544.12 2368.56 2539.54 Q2371.64 2534.93 2377.45 2534.93 Z" fill="#000000" fill-rule="nonzero" fill-opacity="1" /><path clip-path="url(#clip070)" d="M2397.61 2564.24 L2402.49 2564.24 L2402.49 2570.12 L2397.61 2570.12 L2397.61 2564.24 Z" fill="#000000" fill-rule="nonzero" fill-opacity="1" /><path clip-path="url(#clip070)" d="M2423.26 2550.97 Q2420.11 2550.97 2418.26 2553.13 Q2416.43 2555.28 2416.43 2559.03 Q2416.43 2562.75 2418.26 2564.93 Q2420.11 2567.08 2423.26 2567.08 Q2426.41 2567.08 2428.23 2564.93 Q2430.09 2562.75 2430.09 2559.03 Q2430.09 2555.28 2428.23 2553.13 Q2426.41 2550.97 2423.26 2550.97 M2432.54 2536.32 L2432.54 2540.58 Q2430.78 2539.75 2428.97 2539.31 Q2427.19 2538.87 2425.43 2538.87 Q2420.8 2538.87 2418.35 2541.99 Q2415.92 2545.12 2415.57 2551.44 Q2416.94 2549.42 2419 2548.36 Q2421.06 2547.27 2423.53 2547.27 Q2428.74 2547.27 2431.75 2550.44 Q2434.78 2553.59 2434.78 2559.03 Q2434.78 2564.35 2431.64 2567.57 Q2428.49 2570.79 2423.26 2570.79 Q2417.26 2570.79 2414.09 2566.2 Q2410.92 2561.6 2410.92 2552.87 Q2410.92 2544.68 2414.81 2539.82 Q2418.7 2534.93 2425.25 2534.93 Q2427.01 2534.93 2428.79 2535.28 Q2430.59 2535.63 2432.54 2536.32 Z" fill="#000000" fill-rule="nonzero" fill-opacity="1" /><path clip-path="url(#clip070)" d="M3073.88 2538.63 Q3070.27 2538.63 3068.44 2542.2 Q3066.64 2545.74 3066.64 2552.87 Q3066.64 2559.98 3068.44 2563.54 Q3070.27 2567.08 3073.88 2567.08 Q3077.51 2567.08 3079.32 2563.54 Q3081.15 2559.98 3081.15 2552.87 Q3081.15 2545.74 3079.32 2542.2 Q3077.51 2538.63 3073.88 2538.63 M3073.88 2534.93 Q3079.69 2534.93 3082.75 2539.54 Q3085.82 2544.12 3085.82 2552.87 Q3085.82 2561.6 3082.75 2566.2 Q3079.69 2570.79 3073.88 2570.79 Q3068.07 2570.79 3064.99 2566.2 Q3061.94 2561.6 3061.94 2552.87 Q3061.94 2544.12 3064.99 2539.54 Q3068.07 2534.93 3073.88 2534.93 Z" fill="#000000" fill-rule="nonzero" fill-opacity="1" /><path clip-path="url(#clip070)" d="M3094.04 2564.24 L3098.93 2564.24 L3098.93 2570.12 L3094.04 2570.12 L3094.04 2564.24 Z" fill="#000000" fill-rule="nonzero" fill-opacity="1" /><path clip-path="url(#clip070)" d="M3119.11 2553.7 Q3115.78 2553.7 3113.86 2555.49 Q3111.96 2557.27 3111.96 2560.39 Q3111.96 2563.52 3113.86 2565.3 Q3115.78 2567.08 3119.11 2567.08 Q3122.44 2567.08 3124.37 2565.3 Q3126.29 2563.5 3126.29 2560.39 Q3126.29 2557.27 3124.37 2555.49 Q3122.47 2553.7 3119.11 2553.7 M3114.44 2551.71 Q3111.43 2550.97 3109.74 2548.91 Q3108.07 2546.85 3108.07 2543.89 Q3108.07 2539.75 3111.01 2537.34 Q3113.97 2534.93 3119.11 2534.93 Q3124.27 2534.93 3127.21 2537.34 Q3130.15 2539.75 3130.15 2543.89 Q3130.15 2546.85 3128.46 2548.91 Q3126.8 2550.97 3123.81 2551.71 Q3127.19 2552.5 3129.07 2554.79 Q3130.96 2557.08 3130.96 2560.39 Q3130.96 2565.42 3127.88 2568.1 Q3124.83 2570.79 3119.11 2570.79 Q3113.39 2570.79 3110.32 2568.1 Q3107.26 2565.42 3107.26 2560.39 Q3107.26 2557.08 3109.16 2554.79 Q3111.06 2552.5 3114.44 2551.71 M3112.72 2544.33 Q3112.72 2547.01 3114.39 2548.52 Q3116.08 2550.02 3119.11 2550.02 Q3122.12 2550.02 3123.81 2548.52 Q3125.52 2547.01 3125.52 2544.33 Q3125.52 2541.64 3123.81 2540.14 Q3122.12 2538.63 3119.11 2538.63 Q3116.08 2538.63 3114.39 2540.14 Q3112.72 2541.64 3112.72 2544.33 Z" fill="#000000" fill-rule="nonzero" fill-opacity="1" /><path clip-path="url(#clip070)" d="M3759.91 2566.18 L3767.55 2566.18 L3767.55 2539.82 L3759.24 2541.48 L3759.24 2537.22 L3767.5 2535.56 L3772.18 2535.56 L3772.18 2566.18 L3779.82 2566.18 L3779.82 2570.12 L3759.91 2570.12 L3759.91 2566.18 Z" fill="#000000" fill-rule="nonzero" fill-opacity="1" /><path clip-path="url(#clip070)" d="M3789.26 2564.24 L3794.14 2564.24 L3794.14 2570.12 L3789.26 2570.12 L3789.26 2564.24 Z" fill="#000000" fill-rule="nonzero" fill-opacity="1" /><path clip-path="url(#clip070)" d="M3814.33 2538.63 Q3810.72 2538.63 3808.89 2542.2 Q3807.08 2545.74 3807.08 2552.87 Q3807.08 2559.98 3808.89 2563.54 Q3810.72 2567.08 3814.33 2567.08 Q3817.96 2567.08 3819.77 2563.54 Q3821.6 2559.98 3821.6 2552.87 Q3821.6 2545.74 3819.77 2542.2 Q3817.96 2538.63 3814.33 2538.63 M3814.33 2534.93 Q3820.14 2534.93 3823.2 2539.54 Q3826.27 2544.12 3826.27 2552.87 Q3826.27 2561.6 3823.2 2566.2 Q3820.14 2570.79 3814.33 2570.79 Q3808.52 2570.79 3805.44 2566.2 Q3802.39 2561.6 3802.39 2552.87 Q3802.39 2544.12 3805.44 2539.54 Q3808.52 2534.93 3814.33 2534.93 Z" fill="#000000" fill-rule="nonzero" fill-opacity="1" /><path clip-path="url(#clip070)" d="M1931.97 2639.97 L1931.97 2657.38 L1942.28 2657.38 Q1947.47 2657.38 1949.95 2655.24 Q1952.46 2653.08 1952.46 2648.66 Q1952.46 2644.2 1949.95 2642.1 Q1947.47 2639.97 1942.28 2639.97 L1931.97 2639.97 M1931.97 2620.42 L1931.97 2634.75 L1941.48 2634.75 Q1946.19 2634.75 1948.48 2633 Q1950.81 2631.21 1950.81 2627.58 Q1950.81 2623.99 1948.48 2622.21 Q1946.19 2620.42 1941.48 2620.42 L1931.97 2620.42 M1925.54 2615.14 L1941.96 2615.14 Q1949.31 2615.14 1953.29 2618.2 Q1957.27 2621.25 1957.27 2626.88 Q1957.27 2631.25 1955.23 2633.82 Q1953.19 2636.4 1949.25 2637.04 Q1953.99 2638.06 1956.6 2641.3 Q1959.24 2644.52 1959.24 2649.36 Q1959.24 2655.72 1954.91 2659.19 Q1950.58 2662.66 1942.6 2662.66 L1925.54 2662.66 L1925.54 2615.14 Z" fill="#000000" fill-rule="nonzero" fill-opacity="1" /><path clip-path="url(#clip070)" d="M1975.67 2657.31 L1975.67 2676.22 L1969.78 2676.22 L1969.78 2627.01 L1975.67 2627.01 L1975.67 2632.42 Q1977.51 2629.24 1980.31 2627.71 Q1983.15 2626.15 1987.06 2626.15 Q1993.55 2626.15 1997.6 2631.31 Q2001.67 2636.46 2001.67 2644.87 Q2001.67 2653.27 1997.6 2658.43 Q1993.55 2663.58 1987.06 2663.58 Q1983.15 2663.58 1980.31 2662.06 Q1977.51 2660.5 1975.67 2657.31 M1995.59 2644.87 Q1995.59 2638.41 1992.92 2634.75 Q1990.28 2631.05 1985.63 2631.05 Q1980.98 2631.05 1978.31 2634.75 Q1975.67 2638.41 1975.67 2644.87 Q1975.67 2651.33 1978.31 2655.02 Q1980.98 2658.68 1985.63 2658.68 Q1990.28 2658.68 1992.92 2655.02 Q1995.59 2651.33 1995.59 2644.87 Z" fill="#000000" fill-rule="nonzero" fill-opacity="1" /><path clip-path="url(#clip070)" d="M2041.87 2643.37 L2041.87 2646.24 L2014.94 2646.24 Q2015.32 2652.28 2018.57 2655.47 Q2021.85 2658.62 2027.67 2658.62 Q2031.05 2658.62 2034.2 2657.79 Q2037.38 2656.96 2040.5 2655.31 L2040.5 2660.85 Q2037.35 2662.18 2034.04 2662.88 Q2030.73 2663.58 2027.32 2663.58 Q2018.79 2663.58 2013.8 2658.62 Q2008.83 2653.65 2008.83 2645.19 Q2008.83 2636.43 2013.54 2631.31 Q2018.28 2626.15 2026.3 2626.15 Q2033.5 2626.15 2037.67 2630.8 Q2041.87 2635.41 2041.87 2643.37 M2036.01 2641.65 Q2035.95 2636.85 2033.31 2633.98 Q2030.7 2631.12 2026.37 2631.12 Q2021.47 2631.12 2018.51 2633.89 Q2015.58 2636.66 2015.13 2641.68 L2036.01 2641.65 Z" fill="#000000" fill-rule="nonzero" fill-opacity="1" /><path clip-path="url(#clip070)" d="M2051.26 2627.01 L2059.82 2627.01 L2069.94 2650.88 L2080.1 2627.01 L2088.59 2627.01 L2088.59 2662.66 L2082.71 2662.66 L2082.71 2632.61 L2072.87 2655.82 L2067.01 2655.82 L2057.15 2632.61 L2057.15 2662.66 L2051.26 2662.66 L2051.26 2627.01 Z" fill="#000000" fill-rule="nonzero" fill-opacity="1" /><path clip-path="url(#clip070)" d="M2106.54 2637.29 Q2106.54 2639.93 2108.58 2641.43 Q2110.62 2642.93 2114.41 2642.93 L2122.3 2642.93 L2122.3 2631.69 L2114.41 2631.69 Q2110.62 2631.69 2108.58 2633.15 Q2106.54 2634.62 2106.54 2637.29 M2098.21 2662.66 L2109.09 2647.03 Q2105.4 2646.2 2102.95 2644.04 Q2100.5 2641.84 2100.5 2637.29 Q2100.5 2632.14 2103.9 2629.59 Q2107.34 2627.01 2114.25 2627.01 L2128.19 2627.01 L2128.19 2662.66 L2122.3 2662.66 L2122.3 2647.6 L2115.01 2647.6 L2104.51 2662.66 L2098.21 2662.66 Z" fill="#000000" fill-rule="nonzero" fill-opacity="1" /><path clip-path="url(#clip070)" d="M2166.38 2616.89 L2166.38 2627.01 L2178.45 2627.01 L2178.45 2631.56 L2166.38 2631.56 L2166.38 2650.92 Q2166.38 2655.28 2167.56 2656.52 Q2168.77 2657.76 2172.43 2657.76 L2178.45 2657.76 L2178.45 2662.66 L2172.43 2662.66 Q2165.65 2662.66 2163.07 2660.15 Q2160.49 2657.6 2160.49 2650.92 L2160.49 2631.56 L2156.2 2631.56 L2156.2 2627.01 L2160.49 2627.01 L2160.49 2616.89 L2166.38 2616.89 Z" fill="#000000" fill-rule="nonzero" fill-opacity="1" /><polyline clip-path="url(#clip070)" style="stroke:#000000; stroke-linecap:round; stroke-linejoin:round; stroke-width:4; stroke-opacity:1; fill:none" points="311.225,2496.2 311.225,126.496 "/>
<polyline clip-path="url(#clip070)" style="stroke:#000000; stroke-linecap:round; stroke-linejoin:round; stroke-width:4; stroke-opacity:1; fill:none" points="311.225,2289.47 330.123,2289.47 "/>
<polyline clip-path="url(#clip070)" style="stroke:#000000; stroke-linecap:round; stroke-linejoin:round; stroke-width:4; stroke-opacity:1; fill:none" points="311.225,1765.49 330.123,1765.49 "/>
<polyline clip-path="url(#clip070)" style="stroke:#000000; stroke-linecap:round; stroke-linejoin:round; stroke-width:4; stroke-opacity:1; fill:none" points="311.225,1241.52 330.123,1241.52 "/>
<polyline clip-path="url(#clip070)" style="stroke:#000000; stroke-linecap:round; stroke-linejoin:round; stroke-width:4; stroke-opacity:1; fill:none" points="311.225,717.54 330.123,717.54 "/>
<polyline clip-path="url(#clip070)" style="stroke:#000000; stroke-linecap:round; stroke-linejoin:round; stroke-width:4; stroke-opacity:1; fill:none" points="311.225,193.563 330.123,193.563 "/>
<path clip-path="url(#clip070)" d="M111.844 2302.81 L119.482 2302.81 L119.482 2276.45 L111.172 2278.12 L111.172 2273.86 L119.436 2272.19 L124.112 2272.19 L124.112 2302.81 L131.751 2302.81 L131.751 2306.75 L111.844 2306.75 L111.844 2302.81 Z" fill="#000000" fill-rule="nonzero" fill-opacity="1" /><path clip-path="url(#clip070)" d="M145.223 2302.81 L161.542 2302.81 L161.542 2306.75 L139.598 2306.75 L139.598 2302.81 Q142.26 2300.06 146.843 2295.43 Q151.45 2290.78 152.63 2289.43 Q154.876 2286.91 155.755 2285.18 Q156.658 2283.42 156.658 2281.73 Q156.658 2278.97 154.714 2277.24 Q152.792 2275.5 149.691 2275.5 Q147.492 2275.5 145.038 2276.26 Q142.607 2277.03 139.83 2278.58 L139.83 2273.86 Q142.654 2272.72 145.107 2272.14 Q147.561 2271.56 149.598 2271.56 Q154.968 2271.56 158.163 2274.25 Q161.357 2276.93 161.357 2281.43 Q161.357 2283.55 160.547 2285.48 Q159.76 2287.37 157.653 2289.97 Q157.075 2290.64 153.973 2293.86 Q150.871 2297.05 145.223 2302.81 Z" fill="#000000" fill-rule="nonzero" fill-opacity="1" /><path clip-path="url(#clip070)" d="M181.357 2275.27 Q177.746 2275.27 175.917 2278.83 Q174.112 2282.37 174.112 2289.5 Q174.112 2296.61 175.917 2300.18 Q177.746 2303.72 181.357 2303.72 Q184.991 2303.72 186.797 2300.18 Q188.626 2296.61 188.626 2289.5 Q188.626 2282.37 186.797 2278.83 Q184.991 2275.27 181.357 2275.27 M181.357 2271.56 Q187.167 2271.56 190.223 2276.17 Q193.301 2280.75 193.301 2289.5 Q193.301 2298.23 190.223 2302.84 Q187.167 2307.42 181.357 2307.42 Q175.547 2307.42 172.468 2302.84 Q169.413 2298.23 169.413 2289.5 Q169.413 2280.75 172.468 2276.17 Q175.547 2271.56 181.357 2271.56 Z" fill="#000000" fill-rule="nonzero" fill-opacity="1" /><path clip-path="url(#clip070)" d="M211.519 2275.27 Q207.908 2275.27 206.079 2278.83 Q204.274 2282.37 204.274 2289.5 Q204.274 2296.61 206.079 2300.18 Q207.908 2303.72 211.519 2303.72 Q215.153 2303.72 216.959 2300.18 Q218.787 2296.61 218.787 2289.5 Q218.787 2282.37 216.959 2278.83 Q215.153 2275.27 211.519 2275.27 M211.519 2271.56 Q217.329 2271.56 220.385 2276.17 Q223.463 2280.75 223.463 2289.5 Q223.463 2298.23 220.385 2302.84 Q217.329 2307.42 211.519 2307.42 Q205.709 2307.42 202.63 2302.84 Q199.575 2298.23 199.575 2289.5 Q199.575 2280.75 202.63 2276.17 Q205.709 2271.56 211.519 2271.56 Z" fill="#000000" fill-rule="nonzero" fill-opacity="1" /><path clip-path="url(#clip070)" d="M241.681 2275.27 Q238.07 2275.27 236.241 2278.83 Q234.435 2282.37 234.435 2289.5 Q234.435 2296.61 236.241 2300.18 Q238.07 2303.72 241.681 2303.72 Q245.315 2303.72 247.121 2300.18 Q248.949 2296.61 248.949 2289.5 Q248.949 2282.37 247.121 2278.83 Q245.315 2275.27 241.681 2275.27 M241.681 2271.56 Q247.491 2271.56 250.547 2276.17 Q253.625 2280.75 253.625 2289.5 Q253.625 2298.23 250.547 2302.84 Q247.491 2307.42 241.681 2307.42 Q235.871 2307.42 232.792 2302.84 Q229.736 2298.23 229.736 2289.5 Q229.736 2280.75 232.792 2276.17 Q235.871 2271.56 241.681 2271.56 Z" fill="#000000" fill-rule="nonzero" fill-opacity="1" /><path clip-path="url(#clip070)" d="M111.844 1778.84 L119.482 1778.84 L119.482 1752.47 L111.172 1754.14 L111.172 1749.88 L119.436 1748.21 L124.112 1748.21 L124.112 1778.84 L131.751 1778.84 L131.751 1782.77 L111.844 1782.77 L111.844 1778.84 Z" fill="#000000" fill-rule="nonzero" fill-opacity="1" /><path clip-path="url(#clip070)" d="M154.042 1752.29 L142.237 1770.74 L154.042 1770.74 L154.042 1752.29 M152.816 1748.21 L158.695 1748.21 L158.695 1770.74 L163.626 1770.74 L163.626 1774.62 L158.695 1774.62 L158.695 1782.77 L154.042 1782.77 L154.042 1774.62 L138.441 1774.62 L138.441 1770.11 L152.816 1748.21 Z" fill="#000000" fill-rule="nonzero" fill-opacity="1" /><path clip-path="url(#clip070)" d="M181.357 1751.29 Q177.746 1751.29 175.917 1754.86 Q174.112 1758.4 174.112 1765.53 Q174.112 1772.63 175.917 1776.2 Q177.746 1779.74 181.357 1779.74 Q184.991 1779.74 186.797 1776.2 Q188.626 1772.63 188.626 1765.53 Q188.626 1758.4 186.797 1754.86 Q184.991 1751.29 181.357 1751.29 M181.357 1747.59 Q187.167 1747.59 190.223 1752.19 Q193.301 1756.78 193.301 1765.53 Q193.301 1774.25 190.223 1778.86 Q187.167 1783.44 181.357 1783.44 Q175.547 1783.44 172.468 1778.86 Q169.413 1774.25 169.413 1765.53 Q169.413 1756.78 172.468 1752.19 Q175.547 1747.59 181.357 1747.59 Z" fill="#000000" fill-rule="nonzero" fill-opacity="1" /><path clip-path="url(#clip070)" d="M211.519 1751.29 Q207.908 1751.29 206.079 1754.86 Q204.274 1758.4 204.274 1765.53 Q204.274 1772.63 206.079 1776.2 Q207.908 1779.74 211.519 1779.74 Q215.153 1779.74 216.959 1776.2 Q218.787 1772.63 218.787 1765.53 Q218.787 1758.4 216.959 1754.86 Q215.153 1751.29 211.519 1751.29 M211.519 1747.59 Q217.329 1747.59 220.385 1752.19 Q223.463 1756.78 223.463 1765.53 Q223.463 1774.25 220.385 1778.86 Q217.329 1783.44 211.519 1783.44 Q205.709 1783.44 202.63 1778.86 Q199.575 1774.25 199.575 1765.53 Q199.575 1756.78 202.63 1752.19 Q205.709 1747.59 211.519 1747.59 Z" fill="#000000" fill-rule="nonzero" fill-opacity="1" /><path clip-path="url(#clip070)" d="M241.681 1751.29 Q238.07 1751.29 236.241 1754.86 Q234.435 1758.4 234.435 1765.53 Q234.435 1772.63 236.241 1776.2 Q238.07 1779.74 241.681 1779.74 Q245.315 1779.74 247.121 1776.2 Q248.949 1772.63 248.949 1765.53 Q248.949 1758.4 247.121 1754.86 Q245.315 1751.29 241.681 1751.29 M241.681 1747.59 Q247.491 1747.59 250.547 1752.19 Q253.625 1756.78 253.625 1765.53 Q253.625 1774.25 250.547 1778.86 Q247.491 1783.44 241.681 1783.44 Q235.871 1783.44 232.792 1778.86 Q229.736 1774.25 229.736 1765.53 Q229.736 1756.78 232.792 1752.19 Q235.871 1747.59 241.681 1747.59 Z" fill="#000000" fill-rule="nonzero" fill-opacity="1" /><path clip-path="url(#clip070)" d="M111.844 1254.86 L119.482 1254.86 L119.482 1228.5 L111.172 1230.16 L111.172 1225.9 L119.436 1224.24 L124.112 1224.24 L124.112 1254.86 L131.751 1254.86 L131.751 1258.8 L111.844 1258.8 L111.844 1254.86 Z" fill="#000000" fill-rule="nonzero" fill-opacity="1" /><path clip-path="url(#clip070)" d="M151.774 1239.65 Q148.626 1239.65 146.774 1241.81 Q144.945 1243.96 144.945 1247.71 Q144.945 1251.44 146.774 1253.61 Q148.626 1255.76 151.774 1255.76 Q154.922 1255.76 156.751 1253.61 Q158.603 1251.44 158.603 1247.71 Q158.603 1243.96 156.751 1241.81 Q154.922 1239.65 151.774 1239.65 M161.056 1225 L161.056 1229.26 Q159.297 1228.43 157.491 1227.99 Q155.709 1227.55 153.95 1227.55 Q149.32 1227.55 146.867 1230.67 Q144.436 1233.8 144.089 1240.12 Q145.454 1238.1 147.515 1237.04 Q149.575 1235.95 152.052 1235.95 Q157.26 1235.95 160.269 1239.12 Q163.302 1242.27 163.302 1247.71 Q163.302 1253.03 160.153 1256.25 Q157.005 1259.47 151.774 1259.47 Q145.779 1259.47 142.607 1254.88 Q139.436 1250.28 139.436 1241.55 Q139.436 1233.36 143.325 1228.5 Q147.214 1223.61 153.765 1223.61 Q155.524 1223.61 157.306 1223.96 Q159.112 1224.31 161.056 1225 Z" fill="#000000" fill-rule="nonzero" fill-opacity="1" /><path clip-path="url(#clip070)" d="M181.357 1227.31 Q177.746 1227.31 175.917 1230.88 Q174.112 1234.42 174.112 1241.55 Q174.112 1248.66 175.917 1252.22 Q177.746 1255.76 181.357 1255.76 Q184.991 1255.76 186.797 1252.22 Q188.626 1248.66 188.626 1241.55 Q188.626 1234.42 186.797 1230.88 Q184.991 1227.31 181.357 1227.31 M181.357 1223.61 Q187.167 1223.61 190.223 1228.22 Q193.301 1232.8 193.301 1241.55 Q193.301 1250.28 190.223 1254.88 Q187.167 1259.47 181.357 1259.47 Q175.547 1259.47 172.468 1254.88 Q169.413 1250.28 169.413 1241.55 Q169.413 1232.8 172.468 1228.22 Q175.547 1223.61 181.357 1223.61 Z" fill="#000000" fill-rule="nonzero" fill-opacity="1" /><path clip-path="url(#clip070)" d="M211.519 1227.31 Q207.908 1227.31 206.079 1230.88 Q204.274 1234.42 204.274 1241.55 Q204.274 1248.66 206.079 1252.22 Q207.908 1255.76 211.519 1255.76 Q215.153 1255.76 216.959 1252.22 Q218.787 1248.66 218.787 1241.55 Q218.787 1234.42 216.959 1230.88 Q215.153 1227.31 211.519 1227.31 M211.519 1223.61 Q217.329 1223.61 220.385 1228.22 Q223.463 1232.8 223.463 1241.55 Q223.463 1250.28 220.385 1254.88 Q217.329 1259.47 211.519 1259.47 Q205.709 1259.47 202.63 1254.88 Q199.575 1250.28 199.575 1241.55 Q199.575 1232.8 202.63 1228.22 Q205.709 1223.61 211.519 1223.61 Z" fill="#000000" fill-rule="nonzero" fill-opacity="1" /><path clip-path="url(#clip070)" d="M241.681 1227.31 Q238.07 1227.31 236.241 1230.88 Q234.435 1234.42 234.435 1241.55 Q234.435 1248.66 236.241 1252.22 Q238.07 1255.76 241.681 1255.76 Q245.315 1255.76 247.121 1252.22 Q248.949 1248.66 248.949 1241.55 Q248.949 1234.42 247.121 1230.88 Q245.315 1227.31 241.681 1227.31 M241.681 1223.61 Q247.491 1223.61 250.547 1228.22 Q253.625 1232.8 253.625 1241.55 Q253.625 1250.28 250.547 1254.88 Q247.491 1259.47 241.681 1259.47 Q235.871 1259.47 232.792 1254.88 Q229.736 1250.28 229.736 1241.55 Q229.736 1232.8 232.792 1228.22 Q235.871 1223.61 241.681 1223.61 Z" fill="#000000" fill-rule="nonzero" fill-opacity="1" /><path clip-path="url(#clip070)" d="M111.844 730.884 L119.482 730.884 L119.482 704.519 L111.172 706.186 L111.172 701.926 L119.436 700.26 L124.112 700.26 L124.112 730.884 L131.751 730.884 L131.751 734.82 L111.844 734.82 L111.844 730.884 Z" fill="#000000" fill-rule="nonzero" fill-opacity="1" /><path clip-path="url(#clip070)" d="M151.195 718.408 Q147.862 718.408 145.941 720.19 Q144.042 721.972 144.042 725.097 Q144.042 728.222 145.941 730.005 Q147.862 731.787 151.195 731.787 Q154.529 731.787 156.45 730.005 Q158.371 728.199 158.371 725.097 Q158.371 721.972 156.45 720.19 Q154.552 718.408 151.195 718.408 M146.519 716.417 Q143.51 715.676 141.82 713.616 Q140.154 711.556 140.154 708.593 Q140.154 704.449 143.093 702.042 Q146.056 699.635 151.195 699.635 Q156.357 699.635 159.297 702.042 Q162.237 704.449 162.237 708.593 Q162.237 711.556 160.547 713.616 Q158.88 715.676 155.894 716.417 Q159.274 717.204 161.149 719.496 Q163.047 721.787 163.047 725.097 Q163.047 730.121 159.968 732.806 Q156.913 735.491 151.195 735.491 Q145.478 735.491 142.399 732.806 Q139.343 730.121 139.343 725.097 Q139.343 721.787 141.242 719.496 Q143.14 717.204 146.519 716.417 M144.806 709.033 Q144.806 711.718 146.473 713.223 Q148.163 714.727 151.195 714.727 Q154.204 714.727 155.894 713.223 Q157.607 711.718 157.607 709.033 Q157.607 706.348 155.894 704.843 Q154.204 703.338 151.195 703.338 Q148.163 703.338 146.473 704.843 Q144.806 706.348 144.806 709.033 Z" fill="#000000" fill-rule="nonzero" fill-opacity="1" /><path clip-path="url(#clip070)" d="M181.357 703.338 Q177.746 703.338 175.917 706.903 Q174.112 710.445 174.112 717.574 Q174.112 724.681 175.917 728.246 Q177.746 731.787 181.357 731.787 Q184.991 731.787 186.797 728.246 Q188.626 724.681 188.626 717.574 Q188.626 710.445 186.797 706.903 Q184.991 703.338 181.357 703.338 M181.357 699.635 Q187.167 699.635 190.223 704.241 Q193.301 708.824 193.301 717.574 Q193.301 726.301 190.223 730.908 Q187.167 735.491 181.357 735.491 Q175.547 735.491 172.468 730.908 Q169.413 726.301 169.413 717.574 Q169.413 708.824 172.468 704.241 Q175.547 699.635 181.357 699.635 Z" fill="#000000" fill-rule="nonzero" fill-opacity="1" /><path clip-path="url(#clip070)" d="M211.519 703.338 Q207.908 703.338 206.079 706.903 Q204.274 710.445 204.274 717.574 Q204.274 724.681 206.079 728.246 Q207.908 731.787 211.519 731.787 Q215.153 731.787 216.959 728.246 Q218.787 724.681 218.787 717.574 Q218.787 710.445 216.959 706.903 Q215.153 703.338 211.519 703.338 M211.519 699.635 Q217.329 699.635 220.385 704.241 Q223.463 708.824 223.463 717.574 Q223.463 726.301 220.385 730.908 Q217.329 735.491 211.519 735.491 Q205.709 735.491 202.63 730.908 Q199.575 726.301 199.575 717.574 Q199.575 708.824 202.63 704.241 Q205.709 699.635 211.519 699.635 Z" fill="#000000" fill-rule="nonzero" fill-opacity="1" /><path clip-path="url(#clip070)" d="M241.681 703.338 Q238.07 703.338 236.241 706.903 Q234.435 710.445 234.435 717.574 Q234.435 724.681 236.241 728.246 Q238.07 731.787 241.681 731.787 Q245.315 731.787 247.121 728.246 Q248.949 724.681 248.949 717.574 Q248.949 710.445 247.121 706.903 Q245.315 703.338 241.681 703.338 M241.681 699.635 Q247.491 699.635 250.547 704.241 Q253.625 708.824 253.625 717.574 Q253.625 726.301 250.547 730.908 Q247.491 735.491 241.681 735.491 Q235.871 735.491 232.792 730.908 Q229.736 726.301 229.736 717.574 Q229.736 708.824 232.792 704.241 Q235.871 699.635 241.681 699.635 Z" fill="#000000" fill-rule="nonzero" fill-opacity="1" /><path clip-path="url(#clip070)" d="M115.061 206.908 L131.38 206.908 L131.38 210.843 L109.436 210.843 L109.436 206.908 Q112.098 204.153 116.681 199.524 Q121.288 194.871 122.468 193.528 Q124.714 191.005 125.593 189.269 Q126.496 187.51 126.496 185.82 Q126.496 183.065 124.552 181.329 Q122.631 179.593 119.529 179.593 Q117.33 179.593 114.876 180.357 Q112.445 181.121 109.668 182.672 L109.668 177.95 Q112.492 176.816 114.945 176.237 Q117.399 175.658 119.436 175.658 Q124.806 175.658 128.001 178.343 Q131.195 181.028 131.195 185.519 Q131.195 187.649 130.385 189.57 Q129.598 191.468 127.492 194.061 Q126.913 194.732 123.811 197.95 Q120.709 201.144 115.061 206.908 Z" fill="#000000" fill-rule="nonzero" fill-opacity="1" /><path clip-path="url(#clip070)" d="M151.195 179.362 Q147.584 179.362 145.755 182.927 Q143.95 186.468 143.95 193.598 Q143.95 200.704 145.755 204.269 Q147.584 207.811 151.195 207.811 Q154.829 207.811 156.635 204.269 Q158.464 200.704 158.464 193.598 Q158.464 186.468 156.635 182.927 Q154.829 179.362 151.195 179.362 M151.195 175.658 Q157.005 175.658 160.061 180.265 Q163.14 184.848 163.14 193.598 Q163.14 202.325 160.061 206.931 Q157.005 211.514 151.195 211.514 Q145.385 211.514 142.306 206.931 Q139.251 202.325 139.251 193.598 Q139.251 184.848 142.306 180.265 Q145.385 175.658 151.195 175.658 Z" fill="#000000" fill-rule="nonzero" fill-opacity="1" /><path clip-path="url(#clip070)" d="M181.357 179.362 Q177.746 179.362 175.917 182.927 Q174.112 186.468 174.112 193.598 Q174.112 200.704 175.917 204.269 Q177.746 207.811 181.357 207.811 Q184.991 207.811 186.797 204.269 Q188.626 200.704 188.626 193.598 Q188.626 186.468 186.797 182.927 Q184.991 179.362 181.357 179.362 M181.357 175.658 Q187.167 175.658 190.223 180.265 Q193.301 184.848 193.301 193.598 Q193.301 202.325 190.223 206.931 Q187.167 211.514 181.357 211.514 Q175.547 211.514 172.468 206.931 Q169.413 202.325 169.413 193.598 Q169.413 184.848 172.468 180.265 Q175.547 175.658 181.357 175.658 Z" fill="#000000" fill-rule="nonzero" fill-opacity="1" /><path clip-path="url(#clip070)" d="M211.519 179.362 Q207.908 179.362 206.079 182.927 Q204.274 186.468 204.274 193.598 Q204.274 200.704 206.079 204.269 Q207.908 207.811 211.519 207.811 Q215.153 207.811 216.959 204.269 Q218.787 200.704 218.787 193.598 Q218.787 186.468 216.959 182.927 Q215.153 179.362 211.519 179.362 M211.519 175.658 Q217.329 175.658 220.385 180.265 Q223.463 184.848 223.463 193.598 Q223.463 202.325 220.385 206.931 Q217.329 211.514 211.519 211.514 Q205.709 211.514 202.63 206.931 Q199.575 202.325 199.575 193.598 Q199.575 184.848 202.63 180.265 Q205.709 175.658 211.519 175.658 Z" fill="#000000" fill-rule="nonzero" fill-opacity="1" /><path clip-path="url(#clip070)" d="M241.681 179.362 Q238.07 179.362 236.241 182.927 Q234.435 186.468 234.435 193.598 Q234.435 200.704 236.241 204.269 Q238.07 207.811 241.681 207.811 Q245.315 207.811 247.121 204.269 Q248.949 200.704 248.949 193.598 Q248.949 186.468 247.121 182.927 Q245.315 179.362 241.681 179.362 M241.681 175.658 Q247.491 175.658 250.547 180.265 Q253.625 184.848 253.625 193.598 Q253.625 202.325 250.547 206.931 Q247.491 211.514 241.681 211.514 Q235.871 211.514 232.792 206.931 Q229.736 202.325 229.736 193.598 Q229.736 184.848 232.792 180.265 Q235.871 175.658 241.681 175.658 Z" fill="#000000" fill-rule="nonzero" fill-opacity="1" /><path clip-path="url(#clip070)" d="M37.5802 1618.32 L18.1011 1618.32 L18.1011 1631.59 Q18.1011 1637.51 14.409 1641.04 Q10.685 1644.57 3.10986 1644.57 L-9.93984 1644.57 L-9.93984 1638.18 L2.6006 1638.18 Q7.66134 1638.18 10.1758 1636.2 Q12.6902 1634.23 12.6902 1630.28 L12.6902 1618.32 L-9.93984 1618.32 L-9.93984 1611.86 L37.5802 1611.86 L37.5802 1618.32 Z" fill="#000000" fill-rule="nonzero" fill-opacity="1" /><path clip-path="url(#clip070)" d="M1.9322 1569.01 L37.5802 1569.01 L37.5802 1574.84 L8.96631 1574.84 L37.5802 1592.03 L37.5802 1599.54 L1.9322 1599.54 L1.9322 1593.71 L30.4824 1593.71 L1.9322 1576.56 L1.9322 1569.01 Z" fill="#000000" fill-rule="nonzero" fill-opacity="1" /><path clip-path="url(#clip070)" d="M3.30083 1531.3 L8.77533 1531.3 Q7.40671 1533.78 6.73831 1536.29 Q6.03808 1538.78 6.03808 1541.32 Q6.03808 1547.02 9.66653 1550.17 Q13.2632 1553.32 19.788 1553.32 Q26.3129 1553.32 29.9413 1550.17 Q33.5379 1547.02 33.5379 1541.32 Q33.5379 1538.78 32.8695 1536.29 Q32.1693 1533.78 30.8007 1531.3 L36.2115 1531.3 Q37.3574 1533.75 37.9303 1536.39 Q38.5032 1539 38.5032 1541.96 Q38.5032 1550.01 33.4424 1554.75 Q28.3817 1559.5 19.788 1559.5 Q11.067 1559.5 6.06991 1554.72 Q1.07283 1549.92 1.07283 1541.58 Q1.07283 1538.87 1.64574 1536.29 Q2.18683 1533.72 3.30083 1531.3 Z" fill="#000000" fill-rule="nonzero" fill-opacity="1" /><path clip-path="url(#clip070)" d="M37.5802 1524.84 L32.7104 1524.84 Q31.8192 1519.04 27.8088 1517.26 Q22.1751 1515.1 7.75682 1515.1 L1.9322 1515.1 L1.9322 1491 L37.5802 1491 L37.5802 1496.86 L6.61099 1496.86 L6.61099 1509.24 L10.144 1509.24 Q23.8939 1509.24 30.0686 1512.04 Q36.6571 1515.03 37.5802 1524.84 Z" fill="#000000" fill-rule="nonzero" fill-opacity="1" /><path clip-path="url(#clip070)" d="M18.2921 1448.96 L21.1566 1448.96 L21.1566 1475.88 Q27.2041 1475.5 30.3869 1472.26 Q33.5379 1468.98 33.5379 1463.15 Q33.5379 1459.78 32.7104 1456.63 Q31.8829 1453.44 30.2278 1450.33 L35.7659 1450.33 Q37.1027 1453.48 37.803 1456.79 Q38.5032 1460.1 38.5032 1463.5 Q38.5032 1472.03 33.5379 1477.03 Q28.5727 1481.99 20.1063 1481.99 Q11.3534 1481.99 6.22905 1477.28 Q1.07283 1472.54 1.07283 1464.52 Q1.07283 1457.33 5.7198 1453.16 Q10.3349 1448.96 18.2921 1448.96 M16.5733 1454.81 Q11.7672 1454.88 8.90265 1457.52 Q6.03808 1460.13 6.03808 1464.46 Q6.03808 1469.36 8.80716 1472.32 Q11.5762 1475.25 16.6052 1475.69 L16.5733 1454.81 Z" fill="#000000" fill-rule="nonzero" fill-opacity="1" /><path clip-path="url(#clip070)" d="M1.9322 1439.57 L1.9322 1433.68 L16.4778 1433.68 L16.4778 1414.68 L1.9322 1414.68 L1.9322 1408.79 L37.5802 1408.79 L37.5802 1414.68 L21.1566 1414.68 L21.1566 1433.68 L37.5802 1433.68 L37.5802 1439.57 L1.9322 1439.57 Z" fill="#000000" fill-rule="nonzero" fill-opacity="1" /><path clip-path="url(#clip070)" d="M1.9322 1396.95 L1.9322 1391.06 L16.4778 1391.06 L16.4778 1372.06 L1.9322 1372.06 L1.9322 1366.17 L37.5802 1366.17 L37.5802 1372.06 L21.1566 1372.06 L21.1566 1391.06 L37.5802 1391.06 L37.5802 1396.95 L1.9322 1396.95 Z" fill="#000000" fill-rule="nonzero" fill-opacity="1" /><path clip-path="url(#clip070)" d="M6.03808 1340.29 Q6.03808 1345 9.73019 1347.74 Q13.3905 1350.48 19.788 1350.48 Q26.1855 1350.48 29.8777 1347.77 Q33.5379 1345.04 33.5379 1340.29 Q33.5379 1335.62 29.8458 1332.88 Q26.1537 1330.14 19.788 1330.14 Q13.4541 1330.14 9.76202 1332.88 Q6.03808 1335.62 6.03808 1340.29 M1.07283 1340.29 Q1.07283 1332.66 6.03808 1328.29 Q11.0033 1323.93 19.788 1323.93 Q28.5409 1323.93 33.5379 1328.29 Q38.5032 1332.66 38.5032 1340.29 Q38.5032 1347.96 33.5379 1352.33 Q28.5409 1356.65 19.788 1356.65 Q11.0033 1356.65 6.03808 1352.33 Q1.07283 1347.96 1.07283 1340.29 Z" fill="#000000" fill-rule="nonzero" fill-opacity="1" /><path clip-path="url(#clip070)" d="M3.30083 1288.57 L8.77533 1288.57 Q7.40671 1291.06 6.73831 1293.57 Q6.03808 1296.05 6.03808 1298.6 Q6.03808 1304.3 9.66653 1307.45 Q13.2632 1310.6 19.788 1310.6 Q26.3129 1310.6 29.9413 1307.45 Q33.5379 1304.3 33.5379 1298.6 Q33.5379 1296.05 32.8695 1293.57 Q32.1693 1291.06 30.8007 1288.57 L36.2115 1288.57 Q37.3574 1291.02 37.9303 1293.67 Q38.5032 1296.28 38.5032 1299.24 Q38.5032 1307.29 33.4424 1312.03 Q28.3817 1316.77 19.788 1316.77 Q11.067 1316.77 6.06991 1312 Q1.07283 1307.19 1.07283 1298.85 Q1.07283 1296.15 1.64574 1293.57 Q2.18683 1290.99 3.30083 1288.57 Z" fill="#000000" fill-rule="nonzero" fill-opacity="1" /><path clip-path="url(#clip070)" d="M1.9322 1282.62 L1.9322 1248.47 L6.61099 1248.47 L6.61099 1262.66 L37.5802 1262.66 L37.5802 1268.43 L6.61099 1268.43 L6.61099 1282.62 L1.9322 1282.62 Z" fill="#000000" fill-rule="nonzero" fill-opacity="1" /><path clip-path="url(#clip070)" d="M27.0131 1218.23 Q24.1485 1218.23 22.6526 1220.33 Q21.1566 1222.4 21.1566 1226.41 L21.1566 1234.75 L32.9014 1234.75 L32.9014 1226.41 Q32.9014 1222.4 31.4054 1220.33 Q29.8777 1218.23 27.0131 1218.23 M1.9322 1240.64 L1.9322 1234.75 L16.4778 1234.75 L16.4778 1226.16 Q16.4778 1219.35 19.0878 1215.69 Q21.6659 1211.99 27.0131 1211.99 Q32.3603 1211.99 34.9702 1215.69 Q37.5802 1219.35 37.5802 1226.16 L37.5802 1240.64 L1.9322 1240.64 Z" fill="#000000" fill-rule="nonzero" fill-opacity="1" /><path clip-path="url(#clip070)" d="M19.6607 1165.08 Q19.6607 1172.18 21.2839 1174.91 Q22.9072 1177.65 26.8221 1177.65 Q29.9413 1177.65 31.7874 1175.61 Q33.6016 1173.54 33.6016 1170.01 Q33.6016 1165.14 30.1641 1162.21 Q26.6948 1159.25 20.9657 1159.25 L19.6607 1159.25 L19.6607 1165.08 M17.2417 1153.4 L37.5802 1153.4 L37.5802 1159.25 L32.1693 1159.25 Q35.4158 1161.26 36.9754 1164.25 Q38.5032 1167.24 38.5032 1171.57 Q38.5032 1177.05 35.4476 1180.29 Q32.3603 1183.51 27.2041 1183.51 Q21.1885 1183.51 18.1329 1179.5 Q15.0774 1175.45 15.0774 1167.47 L15.0774 1159.25 L14.5045 1159.25 Q10.4622 1159.25 8.26608 1161.93 Q6.03808 1164.57 6.03808 1169.37 Q6.03808 1172.43 6.77014 1175.33 Q7.50219 1178.22 8.96631 1180.9 L3.55546 1180.9 Q2.31414 1177.68 1.7094 1174.66 Q1.07283 1171.63 1.07283 1168.77 Q1.07283 1161.04 5.08323 1157.22 Q9.09362 1153.4 17.2417 1153.4 Z" fill="#000000" fill-rule="nonzero" fill-opacity="1" /><path clip-path="url(#clip070)" d="M32.233 1135.67 L51.1391 1135.67 L51.1391 1141.56 L1.9322 1141.56 L1.9322 1135.67 L7.34305 1135.67 Q4.1602 1133.82 2.63243 1131.02 Q1.07283 1128.19 1.07283 1124.27 Q1.07283 1117.78 6.22905 1113.74 Q11.3853 1109.66 19.788 1109.66 Q28.1907 1109.66 33.347 1113.74 Q38.5032 1117.78 38.5032 1124.27 Q38.5032 1128.19 36.9754 1131.02 Q35.4158 1133.82 32.233 1135.67 M19.788 1115.74 Q13.3268 1115.74 9.66653 1118.42 Q5.97442 1121.06 5.97442 1125.71 Q5.97442 1130.35 9.66653 1133.03 Q13.3268 1135.67 19.788 1135.67 Q26.2492 1135.67 29.9413 1133.03 Q33.6016 1130.35 33.6016 1125.71 Q33.6016 1121.06 29.9413 1118.42 Q26.2492 1115.74 19.788 1115.74 Z" fill="#000000" fill-rule="nonzero" fill-opacity="1" /><path clip-path="url(#clip070)" d="M1.9322 1100.18 L1.9322 1091.62 L25.8036 1081.5 L1.9322 1071.34 L1.9322 1062.84 L37.5802 1062.84 L37.5802 1068.73 L7.53402 1068.73 L30.737 1078.57 L30.737 1084.42 L7.53402 1094.29 L37.5802 1094.29 L37.5802 1100.18 L1.9322 1100.18 Z" fill="#000000" fill-rule="nonzero" fill-opacity="1" /><path clip-path="url(#clip070)" d="M1.9322 1020.48 L37.5802 1020.48 L37.5802 1026.31 L8.96631 1026.31 L37.5802 1043.49 L37.5802 1051 L1.9322 1051 L1.9322 1045.18 L30.4824 1045.18 L1.9322 1028.02 L1.9322 1020.48 Z" fill="#000000" fill-rule="nonzero" fill-opacity="1" /><path clip-path="url(#clip070)" d="M1.9322 978.117 L37.5802 978.117 L37.5802 983.942 L8.96631 983.942 L37.5802 1001.13 L37.5802 1008.64 L1.9322 1008.64 L1.9322 1002.82 L30.4824 1002.82 L1.9322 985.661 L1.9322 978.117 Z" fill="#000000" fill-rule="nonzero" fill-opacity="1" /><path clip-path="url(#clip070)" d="M760.481 12.096 L772.674 12.096 L788.108 53.2532 L803.623 12.096 L815.817 12.096 L815.817 72.576 L807.836 72.576 L807.836 19.4686 L792.24 60.9499 L784.017 60.9499 L768.421 19.4686 L768.421 72.576 L760.481 72.576 L760.481 12.096 Z" fill="#000000" fill-rule="nonzero" fill-opacity="1" /><path clip-path="url(#clip070)" d="M849.318 32.4315 Q843.322 32.4315 839.838 37.1306 Q836.355 41.7891 836.355 49.9314 Q836.355 58.0738 839.798 62.7728 Q843.282 67.4314 849.318 67.4314 Q855.272 67.4314 858.756 62.7323 Q862.24 58.0333 862.24 49.9314 Q862.24 41.8701 858.756 37.1711 Q855.272 32.4315 849.318 32.4315 M849.318 26.1121 Q859.04 26.1121 864.59 32.4315 Q870.139 38.7509 870.139 49.9314 Q870.139 61.0714 864.59 67.4314 Q859.04 73.7508 849.318 73.7508 Q839.555 73.7508 834.005 67.4314 Q828.496 61.0714 828.496 49.9314 Q828.496 38.7509 834.005 32.4315 Q839.555 26.1121 849.318 26.1121 Z" fill="#000000" fill-rule="nonzero" fill-opacity="1" /><path clip-path="url(#clip070)" d="M892.622 66.6212 L914.254 66.6212 L914.254 33.1607 L898.577 33.1607 L898.577 38.832 Q898.577 55.5217 893.797 64.4337 L892.622 66.6212 M881.806 66.6212 Q885.492 65.0008 887.113 61.5575 Q891.082 53.0101 891.082 35.7938 L891.082 27.2059 L921.748 27.2059 L921.748 66.6212 L927.703 66.6212 L927.703 84.0401 L921.748 84.0401 L921.748 72.576 L884.966 72.576 L884.966 84.0401 L879.011 84.0401 L879.011 66.6212 L881.806 66.6212 Z" fill="#000000" fill-rule="nonzero" fill-opacity="1" /><path clip-path="url(#clip070)" d="M978.663 48.0275 L978.663 51.6733 L944.392 51.6733 Q944.878 59.3701 949.01 63.421 Q953.183 67.4314 960.596 67.4314 Q964.89 67.4314 968.9 66.3781 Q972.951 65.3249 976.921 63.2184 L976.921 70.267 Q972.911 71.9684 968.698 72.8596 Q964.485 73.7508 960.15 73.7508 Q949.294 73.7508 942.934 67.4314 Q936.615 61.1119 936.615 50.3365 Q936.615 39.1965 942.61 32.6746 Q948.646 26.1121 958.854 26.1121 Q968.009 26.1121 973.316 32.0264 Q978.663 37.9003 978.663 48.0275 M971.209 45.84 Q971.128 39.7232 967.766 36.0774 Q964.444 32.4315 958.935 32.4315 Q952.697 32.4315 948.929 35.9558 Q945.203 39.4801 944.635 45.8805 L971.209 45.84 Z" fill="#000000" fill-rule="nonzero" fill-opacity="1" /><path clip-path="url(#clip070)" d="M986.157 72.576 L986.157 66.3781 Q993.53 65.2439 995.798 60.1397 Q998.553 52.9696 998.553 34.619 L998.553 27.2059 L1029.22 27.2059 L1029.22 72.576 L1021.76 72.576 L1021.76 33.1607 L1006.01 33.1607 L1006.01 37.6572 Q1006.01 55.1571 1002.44 63.0159 Q998.634 71.4012 986.157 72.576 Z" fill="#000000" fill-rule="nonzero" fill-opacity="1" /><path clip-path="url(#clip070)" d="M1072.16 59.127 Q1072.16 55.4812 1069.48 53.5773 Q1066.85 51.6733 1061.75 51.6733 L1051.13 51.6733 L1051.13 66.6212 L1061.75 66.6212 Q1066.85 66.6212 1069.48 64.7172 Q1072.16 62.7728 1072.16 59.127 M1043.64 27.2059 L1051.13 27.2059 L1051.13 45.7185 L1062.07 45.7185 Q1070.74 45.7185 1075.4 49.0402 Q1080.1 52.3215 1080.1 59.127 Q1080.1 65.9325 1075.4 69.2543 Q1070.74 72.576 1062.07 72.576 L1043.64 72.576 L1043.64 27.2059 Z" fill="#000000" fill-rule="nonzero" fill-opacity="1" /><path clip-path="url(#clip070)" d="M1121.66 65.6895 L1135.03 65.6895 L1135.03 19.5497 L1120.49 22.4663 L1120.49 15.0127 L1134.95 12.096 L1143.13 12.096 L1143.13 65.6895 L1156.5 65.6895 L1156.5 72.576 L1121.66 72.576 L1121.66 65.6895 Z" fill="#000000" fill-rule="nonzero" fill-opacity="1" /><path clip-path="url(#clip070)" d="M1173.88 62.2867 L1182.42 62.2867 L1182.42 72.576 L1173.88 72.576 L1173.88 62.2867 M1173.88 29.6769 L1182.42 29.6769 L1182.42 39.9662 L1173.88 39.9662 L1173.88 29.6769 Z" fill="#000000" fill-rule="nonzero" fill-opacity="1" /><path clip-path="url(#clip070)" d="M1244.28 26.1121 Q1254 26.1121 1259.55 32.4315 Q1265.1 38.7509 1265.1 49.9314 Q1265.1 61.0714 1259.55 67.4314 Q1254 73.7508 1244.28 73.7508 Q1234.52 73.7508 1229.13 67.5934 Q1223.74 61.436 1223.46 49.9314 L1223.22 40.6549 Q1223.01 35.8343 1223.01 34.1734 Q1223.01 27.692 1225.36 22.9119 Q1229.05 15.4177 1235.41 12.177 Q1241.81 8.93629 1252.5 8.85528 Q1257.45 8.81477 1259.63 8.12611 L1261.7 14.0404 Q1259.71 14.8506 1257.89 14.8911 L1247.76 15.5798 Q1242.66 15.9444 1239.58 17.7268 Q1231.52 22.4663 1230.75 28.6642 L1230.47 30.9327 Q1235.73 26.1121 1244.28 26.1121 M1244.28 32.4315 Q1238.29 32.4315 1234.8 37.1306 Q1231.32 41.7891 1231.32 49.9314 Q1231.32 58.0738 1234.76 62.7728 Q1238.24 67.4314 1244.28 67.4314 Q1250.24 67.4314 1253.72 62.7323 Q1257.2 58.0333 1257.2 49.9314 Q1257.2 41.8701 1253.72 37.1711 Q1250.24 32.4315 1244.28 32.4315 Z" fill="#000000" fill-rule="nonzero" fill-opacity="1" /><path clip-path="url(#clip070)" d="M1295.04 32.4315 Q1289.04 32.4315 1285.56 37.1306 Q1282.08 41.7891 1282.08 49.9314 Q1282.08 58.0738 1285.52 62.7728 Q1289 67.4314 1295.04 67.4314 Q1300.99 67.4314 1304.48 62.7323 Q1307.96 58.0333 1307.96 49.9314 Q1307.96 41.8701 1304.48 37.1711 Q1300.99 32.4315 1295.04 32.4315 M1295.04 26.1121 Q1304.76 26.1121 1310.31 32.4315 Q1315.86 38.7509 1315.86 49.9314 Q1315.86 61.0714 1310.31 67.4314 Q1304.76 73.7508 1295.04 73.7508 Q1285.28 73.7508 1279.73 67.4314 Q1274.22 61.0714 1274.22 49.9314 Q1274.22 38.7509 1279.73 32.4315 Q1285.28 26.1121 1295.04 26.1121 Z" fill="#000000" fill-rule="nonzero" fill-opacity="1" /><path clip-path="url(#clip070)" d="M1367.02 48.0275 L1367.02 51.6733 L1332.75 51.6733 Q1333.24 59.3701 1337.37 63.421 Q1341.54 67.4314 1348.96 67.4314 Q1353.25 67.4314 1357.26 66.3781 Q1361.31 65.3249 1365.28 63.2184 L1365.28 70.267 Q1361.27 71.9684 1357.06 72.8596 Q1352.84 73.7508 1348.51 73.7508 Q1337.65 73.7508 1331.29 67.4314 Q1324.97 61.1119 1324.97 50.3365 Q1324.97 39.1965 1330.97 32.6746 Q1337.01 26.1121 1347.21 26.1121 Q1356.37 26.1121 1361.68 32.0264 Q1367.02 37.9003 1367.02 48.0275 M1359.57 45.84 Q1359.49 39.7232 1356.13 36.0774 Q1352.8 32.4315 1347.3 32.4315 Q1341.06 32.4315 1337.29 35.9558 Q1333.56 39.4801 1333 45.8805 L1359.57 45.84 Z" fill="#000000" fill-rule="nonzero" fill-opacity="1" /><path clip-path="url(#clip070)" d="M1386.43 51.6733 L1386.43 66.6212 L1397.04 66.6212 Q1402.14 66.6212 1404.82 64.7172 Q1407.49 62.7728 1407.49 59.127 Q1407.49 55.4812 1404.82 53.5773 Q1402.14 51.6733 1397.04 51.6733 L1386.43 51.6733 M1386.43 33.1607 L1386.43 45.7185 L1396.23 45.7185 Q1400.44 45.7185 1403.12 44.0576 Q1405.79 42.3563 1405.79 39.3586 Q1405.79 36.3609 1403.12 34.7811 Q1400.44 33.1607 1396.23 33.1607 L1386.43 33.1607 M1378.97 27.2059 L1396.72 27.2059 Q1404.7 27.2059 1408.99 30.1225 Q1413.28 33.0392 1413.28 38.4269 Q1413.28 42.5993 1411.1 45.0704 Q1408.91 47.5009 1404.62 48.1085 Q1409.76 49.0808 1412.6 52.1594 Q1415.43 55.2381 1415.43 59.8562 Q1415.43 65.9325 1410.73 69.2543 Q1406.07 72.576 1397.4 72.576 L1378.97 72.576 L1378.97 27.2059 Z" fill="#000000" fill-rule="nonzero" fill-opacity="1" /><path clip-path="url(#clip070)" d="M1471.01 27.2059 L1478.46 27.2059 L1478.46 72.576 L1471.01 72.576 L1471.01 27.2059 M1474.74 26.1121 L1474.74 26.1121 M1456.39 59.127 Q1456.39 55.4812 1453.71 53.5773 Q1451.08 51.6733 1445.98 51.6733 L1435.36 51.6733 L1435.36 66.6212 L1445.98 66.6212 Q1451.08 66.6212 1453.71 64.7172 Q1456.39 62.7728 1456.39 59.127 M1427.87 27.2059 L1435.36 27.2059 L1435.36 45.7185 L1446.3 45.7185 Q1454.97 45.7185 1459.63 49.0402 Q1464.33 52.3215 1464.33 59.127 Q1464.33 65.9325 1459.63 69.2543 Q1454.97 72.576 1446.3 72.576 L1427.87 72.576 L1427.87 27.2059 Z" fill="#000000" fill-rule="nonzero" fill-opacity="1" /><path clip-path="url(#clip070)" d="M1532.46 48.0275 L1532.46 51.6733 L1498.19 51.6733 Q1498.68 59.3701 1502.81 63.421 Q1506.98 67.4314 1514.4 67.4314 Q1518.69 67.4314 1522.7 66.3781 Q1526.75 65.3249 1530.72 63.2184 L1530.72 70.267 Q1526.71 71.9684 1522.5 72.8596 Q1518.28 73.7508 1513.95 73.7508 Q1503.09 73.7508 1496.73 67.4314 Q1490.41 61.1119 1490.41 50.3365 Q1490.41 39.1965 1496.41 32.6746 Q1502.44 26.1121 1512.65 26.1121 Q1521.81 26.1121 1527.11 32.0264 Q1532.46 37.9003 1532.46 48.0275 M1525.01 45.84 Q1524.93 39.7232 1521.57 36.0774 Q1518.24 32.4315 1512.73 32.4315 Q1506.5 32.4315 1502.73 35.9558 Q1499 39.4801 1498.43 45.8805 L1525.01 45.84 Z" fill="#000000" fill-rule="nonzero" fill-opacity="1" /><path clip-path="url(#clip070)" d="M1581.19 66.6212 L1602.83 66.6212 L1602.83 33.1607 L1587.15 33.1607 L1587.15 38.832 Q1587.15 55.5217 1582.37 64.4337 L1581.19 66.6212 M1570.38 66.6212 Q1574.06 65.0008 1575.69 61.5575 Q1579.66 53.0101 1579.66 35.7938 L1579.66 27.2059 L1610.32 27.2059 L1610.32 66.6212 L1616.28 66.6212 L1616.28 84.0401 L1610.32 84.0401 L1610.32 72.576 L1573.54 72.576 L1573.54 84.0401 L1567.58 84.0401 L1567.58 66.6212 L1570.38 66.6212 Z" fill="#000000" fill-rule="nonzero" fill-opacity="1" /><path clip-path="url(#clip070)" d="M1667.24 48.0275 L1667.24 51.6733 L1632.97 51.6733 Q1633.45 59.3701 1637.58 63.421 Q1641.76 67.4314 1649.17 67.4314 Q1653.46 67.4314 1657.47 66.3781 Q1661.52 65.3249 1665.49 63.2184 L1665.49 70.267 Q1661.48 71.9684 1657.27 72.8596 Q1653.06 73.7508 1648.72 73.7508 Q1637.87 73.7508 1631.51 67.4314 Q1625.19 61.1119 1625.19 50.3365 Q1625.19 39.1965 1631.18 32.6746 Q1637.22 26.1121 1647.43 26.1121 Q1656.58 26.1121 1661.89 32.0264 Q1667.24 37.9003 1667.24 48.0275 M1659.78 45.84 Q1659.7 39.7232 1656.34 36.0774 Q1653.02 32.4315 1647.51 32.4315 Q1641.27 32.4315 1637.5 35.9558 Q1633.78 39.4801 1633.21 45.8805 L1659.78 45.84 Z" fill="#000000" fill-rule="nonzero" fill-opacity="1" /><path clip-path="url(#clip070)" d="M1718.03 27.2059 L1718.03 72.576 L1710.62 72.576 L1710.62 36.1584 L1688.75 72.576 L1679.19 72.576 L1679.19 27.2059 L1686.6 27.2059 L1686.6 63.5425 L1708.43 27.2059 L1718.03 27.2059 M1685.95 9.54393 L1690.73 9.54393 Q1691.18 12.5821 1693.12 14.1215 Q1695.11 15.6203 1698.63 15.6203 Q1702.11 15.6203 1704.06 14.1215 Q1706 12.6226 1706.53 9.54393 L1711.31 9.54393 Q1710.9 15.3367 1707.7 18.2534 Q1704.5 21.17 1698.63 21.17 Q1692.76 21.17 1689.56 18.2534 Q1686.36 15.3367 1685.95 9.54393 Z" fill="#000000" fill-rule="nonzero" fill-opacity="1" /><path clip-path="url(#clip070)" d="M1766.04 28.9478 L1766.04 35.9153 Q1762.88 34.1734 1759.68 33.3227 Q1756.52 32.4315 1753.28 32.4315 Q1746.03 32.4315 1742.02 37.0496 Q1738 41.6271 1738 49.9314 Q1738 58.2358 1742.02 62.8538 Q1746.03 67.4314 1753.28 67.4314 Q1756.52 67.4314 1759.68 66.5807 Q1762.88 65.6895 1766.04 63.9476 L1766.04 70.8341 Q1762.92 72.2924 1759.56 73.0216 Q1756.23 73.7508 1752.47 73.7508 Q1742.22 73.7508 1736.18 67.3098 Q1730.15 60.8689 1730.15 49.9314 Q1730.15 38.832 1736.22 32.472 Q1742.34 26.1121 1752.95 26.1121 Q1756.4 26.1121 1759.68 26.8413 Q1762.96 27.5299 1766.04 28.9478 Z" fill="#000000" fill-rule="nonzero" fill-opacity="1" /><path clip-path="url(#clip070)" d="M1773.61 27.2059 L1817.08 27.2059 L1817.08 33.1607 L1799.01 33.1607 L1799.01 72.576 L1791.68 72.576 L1791.68 33.1607 L1773.61 33.1607 L1773.61 27.2059 Z" fill="#000000" fill-rule="nonzero" fill-opacity="1" /><path clip-path="url(#clip070)" d="M1834.5 51.6733 L1834.5 66.6212 L1845.11 66.6212 Q1850.22 66.6212 1852.89 64.7172 Q1855.56 62.7728 1855.56 59.127 Q1855.56 55.4812 1852.89 53.5773 Q1850.22 51.6733 1845.11 51.6733 L1834.5 51.6733 M1834.5 33.1607 L1834.5 45.7185 L1844.3 45.7185 Q1848.51 45.7185 1851.19 44.0576 Q1853.86 42.3563 1853.86 39.3586 Q1853.86 36.3609 1851.19 34.7811 Q1848.51 33.1607 1844.3 33.1607 L1834.5 33.1607 M1827.04 27.2059 L1844.79 27.2059 Q1852.77 27.2059 1857.06 30.1225 Q1861.36 33.0392 1861.36 38.4269 Q1861.36 42.5993 1859.17 45.0704 Q1856.98 47.5009 1852.69 48.1085 Q1857.83 49.0808 1860.67 52.1594 Q1863.5 55.2381 1863.5 59.8562 Q1863.5 65.9325 1858.8 69.2543 Q1854.14 72.576 1845.48 72.576 L1827.04 72.576 L1827.04 27.2059 Z" fill="#000000" fill-rule="nonzero" fill-opacity="1" /><path clip-path="url(#clip070)" d="M1914.79 27.2059 L1914.79 72.576 L1907.37 72.576 L1907.37 36.1584 L1885.5 72.576 L1875.94 72.576 L1875.94 27.2059 L1883.35 27.2059 L1883.35 63.5425 L1905.19 27.2059 L1914.79 27.2059 Z" fill="#000000" fill-rule="nonzero" fill-opacity="1" /><path clip-path="url(#clip070)" d="M1937.63 40.2903 Q1937.63 43.6525 1940.23 45.5565 Q1942.82 47.4604 1947.64 47.4604 L1957.69 47.4604 L1957.69 33.1607 L1947.64 33.1607 Q1942.82 33.1607 1940.23 35.0241 Q1937.63 36.8875 1937.63 40.2903 M1927.02 72.576 L1940.87 52.6861 Q1936.18 51.6328 1933.06 48.8782 Q1929.94 46.0831 1929.94 40.2903 Q1929.94 33.7278 1934.27 30.4871 Q1938.65 27.2059 1947.44 27.2059 L1965.18 27.2059 L1965.18 72.576 L1957.69 72.576 L1957.69 53.4152 L1948.41 53.4152 L1935.04 72.576 L1927.02 72.576 Z" fill="#000000" fill-rule="nonzero" fill-opacity="1" /><path clip-path="url(#clip070)" d="M2006.13 27.2059 L2017.03 27.2059 L2029.91 57.5877 L2042.84 27.2059 L2053.65 27.2059 L2053.65 72.576 L2046.16 72.576 L2046.16 34.3355 L2033.64 63.8666 L2026.19 63.8666 L2013.63 34.3355 L2013.63 72.576 L2006.13 72.576 L2006.13 27.2059 Z" fill="#000000" fill-rule="nonzero" fill-opacity="1" /><path clip-path="url(#clip070)" d="M2107.81 48.0275 L2107.81 51.6733 L2073.54 51.6733 Q2074.03 59.3701 2078.16 63.421 Q2082.33 67.4314 2089.74 67.4314 Q2094.04 67.4314 2098.05 66.3781 Q2102.1 65.3249 2106.07 63.2184 L2106.07 70.267 Q2102.06 71.9684 2097.85 72.8596 Q2093.63 73.7508 2089.3 73.7508 Q2078.44 73.7508 2072.08 67.4314 Q2065.76 61.1119 2065.76 50.3365 Q2065.76 39.1965 2071.76 32.6746 Q2077.79 26.1121 2088 26.1121 Q2097.16 26.1121 2102.46 32.0264 Q2107.81 37.9003 2107.81 48.0275 M2100.36 45.84 Q2100.28 39.7232 2096.92 36.0774 Q2093.59 32.4315 2088.08 32.4315 Q2081.85 32.4315 2078.08 35.9558 Q2074.35 39.4801 2073.78 45.8805 L2100.36 45.84 Z" fill="#000000" fill-rule="nonzero" fill-opacity="1" /><path clip-path="url(#clip070)" d="M2145.89 27.2059 L2153.3 27.2059 L2153.3 48.5136 L2173.11 27.2059 L2181.78 27.2059 L2165.5 44.6653 L2184.13 72.576 L2176.15 72.576 L2160.88 49.6479 L2153.3 57.7902 L2153.3 72.576 L2145.89 72.576 L2145.89 57.7902 L2138.32 49.6479 L2123.04 72.576 L2115.06 72.576 L2133.7 44.6653 L2117.41 27.2059 L2126.08 27.2059 L2145.89 48.5136 L2145.89 27.2059 Z" fill="#000000" fill-rule="nonzero" fill-opacity="1" /><path clip-path="url(#clip070)" d="M2204.91 66.6212 L2226.54 66.6212 L2226.54 33.1607 L2210.87 33.1607 L2210.87 38.832 Q2210.87 55.5217 2206.09 64.4337 L2204.91 66.6212 M2194.1 66.6212 Q2197.78 65.0008 2199.4 61.5575 Q2203.37 53.0101 2203.37 35.7938 L2203.37 27.2059 L2234.04 27.2059 L2234.04 66.6212 L2239.99 66.6212 L2239.99 84.0401 L2234.04 84.0401 L2234.04 72.576 L2197.26 72.576 L2197.26 84.0401 L2191.3 84.0401 L2191.3 66.6212 L2194.1 66.6212 Z" fill="#000000" fill-rule="nonzero" fill-opacity="1" /><path clip-path="url(#clip070)" d="M2271.02 76.7889 Q2267.86 84.8907 2264.87 87.3618 Q2261.87 89.8329 2256.84 89.8329 L2250.89 89.8329 L2250.89 83.5945 L2255.26 83.5945 Q2258.34 83.5945 2260.04 82.1361 Q2261.75 80.6778 2263.81 75.2496 L2265.15 71.8468 L2246.8 27.2059 L2254.7 27.2059 L2268.88 62.6918 L2283.05 27.2059 L2290.95 27.2059 L2271.02 76.7889 Z" fill="#000000" fill-rule="nonzero" fill-opacity="1" /><path clip-path="url(#clip070)" d="M2334.82 65.7705 L2334.82 89.8329 L2327.33 89.8329 L2327.33 27.2059 L2334.82 27.2059 L2334.82 34.0924 Q2337.17 30.0415 2340.74 28.0971 Q2344.34 26.1121 2349.33 26.1121 Q2357.59 26.1121 2362.74 32.6746 Q2367.92 39.2371 2367.92 49.9314 Q2367.92 60.6258 2362.74 67.1883 Q2357.59 73.7508 2349.33 73.7508 Q2344.34 73.7508 2340.74 71.8063 Q2337.17 69.8214 2334.82 65.7705 M2360.18 49.9314 Q2360.18 41.7081 2356.78 37.0496 Q2353.42 32.3505 2347.5 32.3505 Q2341.59 32.3505 2338.19 37.0496 Q2334.82 41.7081 2334.82 49.9314 Q2334.82 58.1548 2338.19 62.8538 Q2341.59 67.5124 2347.5 67.5124 Q2353.42 67.5124 2356.78 62.8538 Q2360.18 58.1548 2360.18 49.9314 Z" fill="#000000" fill-rule="nonzero" fill-opacity="1" /><path clip-path="url(#clip070)" d="M2419.08 48.0275 L2419.08 51.6733 L2384.81 51.6733 Q2385.3 59.3701 2389.43 63.421 Q2393.6 67.4314 2401.02 67.4314 Q2405.31 67.4314 2409.32 66.3781 Q2413.37 65.3249 2417.34 63.2184 L2417.34 70.267 Q2413.33 71.9684 2409.12 72.8596 Q2404.91 73.7508 2400.57 73.7508 Q2389.71 73.7508 2383.35 67.4314 Q2377.04 61.1119 2377.04 50.3365 Q2377.04 39.1965 2383.03 32.6746 Q2389.07 26.1121 2399.27 26.1121 Q2408.43 26.1121 2413.74 32.0264 Q2419.08 37.9003 2419.08 48.0275 M2411.63 45.84 Q2411.55 39.7232 2408.19 36.0774 Q2404.86 32.4315 2399.36 32.4315 Q2393.12 32.4315 2389.35 35.9558 Q2385.62 39.4801 2385.06 45.8805 L2411.63 45.84 Z" fill="#000000" fill-rule="nonzero" fill-opacity="1" /><path clip-path="url(#clip070)" d="M2431.03 72.576 L2431.03 27.2059 L2463.04 27.2059 L2463.04 33.1607 L2438.53 33.1607 L2438.53 72.576 L2431.03 72.576 Z" fill="#000000" fill-rule="nonzero" fill-opacity="1" /><path clip-path="url(#clip070)" d="M2493.78 76.7889 Q2490.62 84.8907 2487.62 87.3618 Q2484.63 89.8329 2479.6 89.8329 L2473.65 89.8329 L2473.65 83.5945 L2478.02 83.5945 Q2481.1 83.5945 2482.8 82.1361 Q2484.51 80.6778 2486.57 75.2496 L2487.91 71.8468 L2469.56 27.2059 L2477.46 27.2059 L2491.64 62.6918 L2505.81 27.2059 L2513.71 27.2059 L2493.78 76.7889 Z" fill="#000000" fill-rule="nonzero" fill-opacity="1" /><path clip-path="url(#clip070)" d="M2519.26 72.576 L2519.26 66.3781 Q2526.64 65.2439 2528.9 60.1397 Q2531.66 52.9696 2531.66 34.619 L2531.66 27.2059 L2562.32 27.2059 L2562.32 72.576 L2554.87 72.576 L2554.87 33.1607 L2539.11 33.1607 L2539.11 37.6572 Q2539.11 55.1571 2535.55 63.0159 Q2531.74 71.4012 2519.26 72.576 Z" fill="#000000" fill-rule="nonzero" fill-opacity="1" /><path clip-path="url(#clip070)" d="M2584.52 40.2903 Q2584.52 43.6525 2587.12 45.5565 Q2589.71 47.4604 2594.53 47.4604 L2604.57 47.4604 L2604.57 33.1607 L2594.53 33.1607 Q2589.71 33.1607 2587.12 35.0241 Q2584.52 36.8875 2584.52 40.2903 M2573.91 72.576 L2587.76 52.6861 Q2583.06 51.6328 2579.94 48.8782 Q2576.83 46.0831 2576.83 40.2903 Q2576.83 33.7278 2581.16 30.4871 Q2585.54 27.2059 2594.33 27.2059 L2612.07 27.2059 L2612.07 72.576 L2604.57 72.576 L2604.57 53.4152 L2595.3 53.4152 L2581.93 72.576 L2573.91 72.576 Z" fill="#000000" fill-rule="nonzero" fill-opacity="1" /><path clip-path="url(#clip070)" d="M2634.15 65.7705 L2634.15 89.8329 L2626.65 89.8329 L2626.65 27.2059 L2634.15 27.2059 L2634.15 34.0924 Q2636.5 30.0415 2640.06 28.0971 Q2643.67 26.1121 2648.65 26.1121 Q2656.91 26.1121 2662.06 32.6746 Q2667.24 39.2371 2667.24 49.9314 Q2667.24 60.6258 2662.06 67.1883 Q2656.91 73.7508 2648.65 73.7508 Q2643.67 73.7508 2640.06 71.8063 Q2636.5 69.8214 2634.15 65.7705 M2659.5 49.9314 Q2659.5 41.7081 2656.1 37.0496 Q2652.74 32.3505 2646.83 32.3505 Q2640.91 32.3505 2637.51 37.0496 Q2634.15 41.7081 2634.15 49.9314 Q2634.15 58.1548 2637.51 62.8538 Q2640.91 67.5124 2646.83 67.5124 Q2652.74 67.5124 2656.1 62.8538 Q2659.5 58.1548 2659.5 49.9314 Z" fill="#000000" fill-rule="nonzero" fill-opacity="1" /><path clip-path="url(#clip070)" d="M2679.31 27.2059 L2686.81 27.2059 L2686.81 45.7185 L2710.99 45.7185 L2710.99 27.2059 L2718.49 27.2059 L2718.49 72.576 L2710.99 72.576 L2710.99 51.6733 L2686.81 51.6733 L2686.81 72.576 L2679.31 72.576 L2679.31 27.2059 Z" fill="#000000" fill-rule="nonzero" fill-opacity="1" /><path clip-path="url(#clip070)" d="M2776.7 27.2059 L2784.15 27.2059 L2784.15 72.576 L2776.7 72.576 L2776.7 27.2059 M2780.42 26.1121 L2780.42 26.1121 M2762.07 59.127 Q2762.07 55.4812 2759.4 53.5773 Q2756.77 51.6733 2751.66 51.6733 L2741.05 51.6733 L2741.05 66.6212 L2751.66 66.6212 Q2756.77 66.6212 2759.4 64.7172 Q2762.07 62.7728 2762.07 59.127 M2733.56 27.2059 L2741.05 27.2059 L2741.05 45.7185 L2751.99 45.7185 Q2760.66 45.7185 2765.31 49.0402 Q2770.01 52.3215 2770.01 59.127 Q2770.01 65.9325 2765.31 69.2543 Q2760.66 72.576 2751.99 72.576 L2733.56 72.576 L2733.56 27.2059 Z" fill="#000000" fill-rule="nonzero" fill-opacity="1" /><path clip-path="url(#clip070)" d="M2799.06 27.2059 L2809.96 27.2059 L2822.84 57.5877 L2835.76 27.2059 L2846.58 27.2059 L2846.58 72.576 L2839.08 72.576 L2839.08 34.3355 L2826.56 63.8666 L2819.11 63.8666 L2806.55 34.3355 L2806.55 72.576 L2799.06 72.576 L2799.06 27.2059 Z" fill="#000000" fill-rule="nonzero" fill-opacity="1" /><path clip-path="url(#clip070)" d="M2900.49 27.2059 L2900.49 72.576 L2893.08 72.576 L2893.08 36.1584 L2871.2 72.576 L2861.64 72.576 L2861.64 27.2059 L2869.06 27.2059 L2869.06 63.5425 L2890.89 27.2059 L2900.49 27.2059 Z" fill="#000000" fill-rule="nonzero" fill-opacity="1" /><path clip-path="url(#clip070)" d="M2949.39 51.6733 L2949.39 66.6212 L2960 66.6212 Q2965.1 66.6212 2967.78 64.7172 Q2970.45 62.7728 2970.45 59.127 Q2970.45 55.4812 2967.78 53.5773 Q2965.1 51.6733 2960 51.6733 L2949.39 51.6733 M2949.39 33.1607 L2949.39 45.7185 L2959.19 45.7185 Q2963.4 45.7185 2966.08 44.0576 Q2968.75 42.3563 2968.75 39.3586 Q2968.75 36.3609 2966.08 34.7811 Q2963.4 33.1607 2959.19 33.1607 L2949.39 33.1607 M2941.93 27.2059 L2959.68 27.2059 Q2967.66 27.2059 2971.95 30.1225 Q2976.24 33.0392 2976.24 38.4269 Q2976.24 42.5993 2974.06 45.0704 Q2971.87 47.5009 2967.58 48.1085 Q2972.72 49.0808 2975.56 52.1594 Q2978.39 55.2381 2978.39 59.8562 Q2978.39 65.9325 2973.69 69.2543 Q2969.03 72.576 2960.37 72.576 L2941.93 72.576 L2941.93 27.2059 Z" fill="#000000" fill-rule="nonzero" fill-opacity="1" /><path clip-path="url(#clip070)" d="M3008.69 32.4315 Q3002.7 32.4315 2999.21 37.1306 Q2995.73 41.7891 2995.73 49.9314 Q2995.73 58.0738 2999.17 62.7728 Q3002.66 67.4314 3008.69 67.4314 Q3014.65 67.4314 3018.13 62.7323 Q3021.61 58.0333 3021.61 49.9314 Q3021.61 41.8701 3018.13 37.1711 Q3014.65 32.4315 3008.69 32.4315 M3008.69 26.1121 Q3018.41 26.1121 3023.96 32.4315 Q3029.51 38.7509 3029.51 49.9314 Q3029.51 61.0714 3023.96 67.4314 Q3018.41 73.7508 3008.69 73.7508 Q2998.93 73.7508 2993.38 67.4314 Q2987.87 61.0714 2987.87 49.9314 Q2987.87 38.7509 2993.38 32.4315 Q2998.93 26.1121 3008.69 26.1121 Z" fill="#000000" fill-rule="nonzero" fill-opacity="1" /><path clip-path="url(#clip070)" d="M3080.43 27.2059 L3080.43 72.576 L3073.02 72.576 L3073.02 36.1584 L3051.15 72.576 L3041.59 72.576 L3041.59 27.2059 L3049 27.2059 L3049 63.5425 L3070.83 27.2059 L3080.43 27.2059 M3048.35 9.54393 L3053.13 9.54393 Q3053.58 12.5821 3055.52 14.1215 Q3057.51 15.6203 3061.03 15.6203 Q3064.51 15.6203 3066.46 14.1215 Q3068.4 12.6226 3068.93 9.54393 L3073.71 9.54393 Q3073.3 15.3367 3070.1 18.2534 Q3066.9 21.17 3061.03 21.17 Q3055.16 21.17 3051.96 18.2534 Q3048.76 15.3367 3048.35 9.54393 Z" fill="#000000" fill-rule="nonzero" fill-opacity="1" /><path clip-path="url(#clip070)" d="M3128.44 28.9478 L3128.44 35.9153 Q3125.28 34.1734 3122.08 33.3227 Q3118.92 32.4315 3115.68 32.4315 Q3108.43 32.4315 3104.42 37.0496 Q3100.41 41.6271 3100.41 49.9314 Q3100.41 58.2358 3104.42 62.8538 Q3108.43 67.4314 3115.68 67.4314 Q3118.92 67.4314 3122.08 66.5807 Q3125.28 65.6895 3128.44 63.9476 L3128.44 70.8341 Q3125.32 72.2924 3121.96 73.0216 Q3118.63 73.7508 3114.87 73.7508 Q3104.62 73.7508 3098.58 67.3098 Q3092.55 60.8689 3092.55 49.9314 Q3092.55 38.832 3098.62 32.472 Q3104.74 26.1121 3115.35 26.1121 Q3118.8 26.1121 3122.08 26.8413 Q3125.36 27.5299 3128.44 28.9478 Z" fill="#000000" fill-rule="nonzero" fill-opacity="1" /><path clip-path="url(#clip070)" d="M3141.12 27.2059 L3148.53 27.2059 L3148.53 48.5136 L3169.55 27.2059 L3178.71 27.2059 L3161.37 44.7463 L3180.94 72.576 L3172.59 72.576 L3156.51 49.6884 L3148.53 57.7902 L3148.53 72.576 L3141.12 72.576 L3141.12 27.2059 Z" fill="#000000" fill-rule="nonzero" fill-opacity="1" /><path clip-path="url(#clip070)" d="M3212.13 49.7694 Q3203.1 49.7694 3199.61 51.8354 Q3196.13 53.9013 3196.13 58.8839 Q3196.13 62.8538 3198.72 65.2034 Q3201.35 67.5124 3205.85 67.5124 Q3212.05 67.5124 3215.77 63.1374 Q3219.54 58.7219 3219.54 51.4303 L3219.54 49.7694 L3212.13 49.7694 M3227 46.6907 L3227 72.576 L3219.54 72.576 L3219.54 65.6895 Q3216.99 69.8214 3213.18 71.8063 Q3209.37 73.7508 3203.87 73.7508 Q3196.9 73.7508 3192.77 69.8619 Q3188.67 65.9325 3188.67 59.3701 Q3188.67 51.7138 3193.78 47.825 Q3198.92 43.9361 3209.09 43.9361 L3219.54 43.9361 L3219.54 43.2069 Q3219.54 38.0623 3216.14 35.2672 Q3212.78 32.4315 3206.66 32.4315 Q3202.77 32.4315 3199.09 33.3632 Q3195.4 34.295 3192 36.1584 L3192 29.2718 Q3196.09 27.692 3199.94 26.9223 Q3203.78 26.1121 3207.43 26.1121 Q3217.27 26.1121 3222.13 31.2163 Q3227 36.3204 3227 46.6907 Z" fill="#000000" fill-rule="nonzero" fill-opacity="1" /><path clip-path="url(#clip070)" d="M3242.07 27.2059 L3252.96 27.2059 L3265.84 57.5877 L3278.77 27.2059 L3289.58 27.2059 L3289.58 72.576 L3282.09 72.576 L3282.09 34.3355 L3269.57 63.8666 L3262.12 63.8666 L3249.56 34.3355 L3249.56 72.576 L3242.07 72.576 L3242.07 27.2059 Z" fill="#000000" fill-rule="nonzero" fill-opacity="1" /><path clip-path="url(#clip070)" d="M3343.5 27.2059 L3343.5 72.576 L3336.09 72.576 L3336.09 36.1584 L3314.21 72.576 L3304.65 72.576 L3304.65 27.2059 L3312.06 27.2059 L3312.06 63.5425 L3333.9 27.2059 L3343.5 27.2059 Z" fill="#000000" fill-rule="nonzero" fill-opacity="1" /><polyline clip-path="url(#clip072)" style="stroke:#0000ff; stroke-linecap:round; stroke-linejoin:round; stroke-width:8; stroke-opacity:1; fill:none" points="311.225,193.563 485.302,386.523 659.378,567.683 833.455,737.729 1007.53,897.303 1181.61,1047.01 1355.68,1187.43 1529.76,1319.1 1703.84,1442.51 1877.91,1558.16 2051.99,1666.49 2226.07,1767.92 2400.14,1862.85 2574.22,1951.66 2748.3,2034.7 2922.37,2112.3 3096.45,2184.78 3270.53,2252.43 3444.6,2315.54 3618.68,2374.35 3792.76,2429.13 "/>
<path clip-path="url(#clip070)" d="M2968.44 309.166 L3676.7 309.166 L3676.7 205.486 L2968.44 205.486  Z" fill="#ffffff" fill-rule="evenodd" fill-opacity="1"/>
<polyline clip-path="url(#clip070)" style="stroke:#000000; stroke-linecap:round; stroke-linejoin:round; stroke-width:4; stroke-opacity:1; fill:none" points="2968.44,309.166 3676.7,309.166 3676.7,205.486 2968.44,205.486 2968.44,309.166 "/>
<polyline clip-path="url(#clip070)" style="stroke:#0000ff; stroke-linecap:round; stroke-linejoin:round; stroke-width:8; stroke-opacity:1; fill:none" points="3007.12,257.326 3239.22,257.326 "/>
<path clip-path="url(#clip070)" d="M3302.56 248.68 L3293.19 261.296 L3303.05 274.606 L3298.02 274.606 L3290.48 264.421 L3282.93 274.606 L3277.91 274.606 L3287.98 261.041 L3278.76 248.68 L3283.79 248.68 L3290.66 257.916 L3297.54 248.68 L3302.56 248.68 Z" fill="#000000" fill-rule="nonzero" fill-opacity="1" /><path clip-path="url(#clip070)" d="M3319.3 238.634 Q3316.19 243.958 3314.69 249.166 Q3313.18 254.375 3313.18 259.722 Q3313.18 265.069 3314.69 270.324 Q3316.22 275.555 3319.3 280.856 L3315.59 280.856 Q3312.12 275.416 3310.38 270.162 Q3308.67 264.907 3308.67 259.722 Q3308.67 254.56 3310.38 249.328 Q3312.1 244.097 3315.59 238.634 L3319.3 238.634 Z" fill="#000000" fill-rule="nonzero" fill-opacity="1" /><path clip-path="url(#clip070)" d="M3331.77 241.319 L3331.77 248.68 L3340.55 248.68 L3340.55 251.99 L3331.77 251.99 L3331.77 266.064 Q3331.77 269.236 3332.63 270.139 Q3333.51 271.041 3336.17 271.041 L3340.55 271.041 L3340.55 274.606 L3336.17 274.606 Q3331.24 274.606 3329.37 272.777 Q3327.49 270.926 3327.49 266.064 L3327.49 251.99 L3324.37 251.99 L3324.37 248.68 L3327.49 248.68 L3327.49 241.319 L3331.77 241.319 Z" fill="#000000" fill-rule="nonzero" fill-opacity="1" /><path clip-path="url(#clip070)" d="M3345.48 238.634 L3349.18 238.634 Q3352.65 244.097 3354.37 249.328 Q3356.1 254.56 3356.1 259.722 Q3356.1 264.907 3354.37 270.162 Q3352.65 275.416 3349.18 280.856 L3345.48 280.856 Q3348.56 275.555 3350.06 270.324 Q3351.59 265.069 3351.59 259.722 Q3351.59 254.375 3350.06 249.166 Q3348.56 243.958 3345.48 238.634 Z" fill="#000000" fill-rule="nonzero" fill-opacity="1" /><path clip-path="url(#clip070)" d="M3377.56 259.953 L3420.34 259.953 L3420.34 263.287 L3377.56 263.287 L3377.56 259.953 Z" fill="#000000" fill-rule="nonzero" fill-opacity="1" /><path clip-path="url(#clip070)" d="M3453.97 261.574 Q3448.81 261.574 3446.82 262.754 Q3444.83 263.935 3444.83 266.782 Q3444.83 269.051 3446.31 270.393 Q3447.81 271.713 3450.38 271.713 Q3453.92 271.713 3456.05 269.213 Q3458.21 266.689 3458.21 262.523 L3458.21 261.574 L3453.97 261.574 M3462.47 259.815 L3462.47 274.606 L3458.21 274.606 L3458.21 270.671 Q3456.75 273.032 3454.57 274.166 Q3452.4 275.277 3449.25 275.277 Q3445.27 275.277 3442.91 273.055 Q3440.57 270.81 3440.57 267.06 Q3440.57 262.685 3443.49 260.463 Q3446.43 258.24 3452.24 258.24 L3458.21 258.24 L3458.21 257.824 Q3458.21 254.884 3456.26 253.287 Q3454.34 251.666 3450.85 251.666 Q3448.62 251.666 3446.52 252.199 Q3444.41 252.731 3442.47 253.796 L3442.47 249.861 Q3444.8 248.958 3447 248.518 Q3449.2 248.055 3451.29 248.055 Q3456.91 248.055 3459.69 250.972 Q3462.47 253.889 3462.47 259.815 Z" fill="#000000" fill-rule="nonzero" fill-opacity="1" /><path clip-path="url(#clip070)" d="M3475.36 270.717 L3475.36 284.467 L3471.08 284.467 L3471.08 248.68 L3475.36 248.68 L3475.36 252.615 Q3476.7 250.301 3478.74 249.19 Q3480.8 248.055 3483.65 248.055 Q3488.37 248.055 3491.31 251.805 Q3494.27 255.555 3494.27 261.666 Q3494.27 267.777 3491.31 271.527 Q3488.37 275.277 3483.65 275.277 Q3480.8 275.277 3478.74 274.166 Q3476.7 273.032 3475.36 270.717 M3489.85 261.666 Q3489.85 256.967 3487.91 254.305 Q3485.98 251.62 3482.61 251.62 Q3479.23 251.62 3477.28 254.305 Q3475.36 256.967 3475.36 261.666 Q3475.36 266.365 3477.28 269.051 Q3479.23 271.713 3482.61 271.713 Q3485.98 271.713 3487.91 269.051 Q3489.85 266.365 3489.85 261.666 Z" fill="#000000" fill-rule="nonzero" fill-opacity="1" /><path clip-path="url(#clip070)" d="M3501.17 248.68 L3507.4 248.68 L3514.76 266.041 L3522.14 248.68 L3528.32 248.68 L3528.32 274.606 L3524.04 274.606 L3524.04 252.754 L3516.89 269.629 L3512.63 269.629 L3505.45 252.754 L3505.45 274.606 L3501.17 274.606 L3501.17 248.68 Z" fill="#000000" fill-rule="nonzero" fill-opacity="1" /><path clip-path="url(#clip070)" d="M3559.13 248.68 L3559.13 274.606 L3554.9 274.606 L3554.9 253.796 L3542.4 274.606 L3536.93 274.606 L3536.93 248.68 L3541.17 248.68 L3541.17 269.444 L3553.65 248.68 L3559.13 248.68 Z" fill="#000000" fill-rule="nonzero" fill-opacity="1" /><path clip-path="url(#clip070)" d="M3572.19 256.157 Q3572.19 258.078 3573.67 259.166 Q3575.15 260.254 3577.91 260.254 L3583.65 260.254 L3583.65 252.083 L3577.91 252.083 Q3575.15 252.083 3573.67 253.148 Q3572.19 254.213 3572.19 256.157 M3566.12 274.606 L3574.04 263.24 Q3571.35 262.639 3569.57 261.065 Q3567.79 259.467 3567.79 256.157 Q3567.79 252.407 3570.27 250.555 Q3572.77 248.68 3577.79 248.68 L3587.93 248.68 L3587.93 274.606 L3583.65 274.606 L3583.65 263.657 L3578.35 263.657 L3570.71 274.606 L3566.12 274.606 Z" fill="#000000" fill-rule="nonzero" fill-opacity="1" /><path clip-path="url(#clip070)" d="M3610.01 240.046 L3615.04 240.046 L3623.62 252.893 L3632.26 240.046 L3637.28 240.046 L3626.17 256.643 L3638.02 274.606 L3633 274.606 L3623.28 259.907 L3613.48 274.606 L3608.44 274.606 L3620.78 256.157 L3610.01 240.046 Z" fill="#000000" fill-rule="nonzero" fill-opacity="1" /></svg>
