<?xml version="1.0" encoding="utf-8"?>
<svg xmlns="http://www.w3.org/2000/svg" xmlns:xlink="http://www.w3.org/1999/xlink" width="960" height="672" viewBox="0 0 3840 2688">
<defs>
  <clipPath id="clip590">
    <rect x="0" y="0" width="3840" height="2688"/>
  </clipPath>
</defs>
<path clip-path="url(#clip590)" d="M0 2688 L3840 2688 L3840 0 L0 0  Z" fill="#ffffff" fill-rule="evenodd" fill-opacity="1"/>
<defs>
  <clipPath id="clip591">
    <rect x="386" y="126" width="3407" height="2371"/>
  </clipPath>
</defs>
<path clip-path="url(#clip590)" d="M279.327 2496.2 L3792.76 2496.2 L3792.76 126.496 L279.327 126.496  Z" fill="#ffffff" fill-rule="evenodd" fill-opacity="1"/>
<defs>
  <clipPath id="clip592">
    <rect x="279" y="126" width="3514" height="2371"/>
  </clipPath>
</defs>
<polyline clip-path="url(#clip592)" style="stroke:#000000; stroke-linecap:round; stroke-linejoin:round; stroke-width:2; stroke-opacity:0.1; fill:none" points="279.327,2496.2 279.327,126.496 "/>
<polyline clip-path="url(#clip592)" style="stroke:#000000; stroke-linecap:round; stroke-linejoin:round; stroke-width:2; stroke-opacity:0.1; fill:none" points="982.013,2496.2 982.013,126.496 "/>
<polyline clip-path="url(#clip592)" style="stroke:#000000; stroke-linecap:round; stroke-linejoin:round; stroke-width:2; stroke-opacity:0.1; fill:none" points="1684.7,2496.2 1684.7,126.496 "/>
<polyline clip-path="url(#clip592)" style="stroke:#000000; stroke-linecap:round; stroke-linejoin:round; stroke-width:2; stroke-opacity:0.1; fill:none" points="2387.38,2496.2 2387.38,126.496 "/>
<polyline clip-path="url(#clip592)" style="stroke:#000000; stroke-linecap:round; stroke-linejoin:round; stroke-width:2; stroke-opacity:0.1; fill:none" points="3090.07,2496.2 3090.07,126.496 "/>
<polyline clip-path="url(#clip592)" style="stroke:#000000; stroke-linecap:round; stroke-linejoin:round; stroke-width:2; stroke-opacity:0.1; fill:none" points="3792.76,2496.2 3792.76,126.496 "/>
<polyline clip-path="url(#clip592)" style="stroke:#000000; stroke-linecap:round; stroke-linejoin:round; stroke-width:2; stroke-opacity:0.1; fill:none" points="279.327,2349.99 3792.76,2349.99 "/>
<polyline clip-path="url(#clip592)" style="stroke:#000000; stroke-linecap:round; stroke-linejoin:round; stroke-width:2; stroke-opacity:0.1; fill:none" points="279.327,1990.59 3792.76,1990.59 "/>
<polyline clip-path="url(#clip592)" style="stroke:#000000; stroke-linecap:round; stroke-linejoin:round; stroke-width:2; stroke-opacity:0.1; fill:none" points="279.327,1631.18 3792.76,1631.18 "/>
<polyline clip-path="url(#clip592)" style="stroke:#000000; stroke-linecap:round; stroke-linejoin:round; stroke-width:2; stroke-opacity:0.1; fill:none" points="279.327,1271.78 3792.76,1271.78 "/>
<polyline clip-path="url(#clip592)" style="stroke:#000000; stroke-linecap:round; stroke-linejoin:round; stroke-width:2; stroke-opacity:0.1; fill:none" points="279.327,912.373 3792.76,912.373 "/>
<polyline clip-path="url(#clip592)" style="stroke:#000000; stroke-linecap:round; stroke-linejoin:round; stroke-width:2; stroke-opacity:0.1; fill:none" points="279.327,552.968 3792.76,552.968 "/>
<polyline clip-path="url(#clip592)" style="stroke:#000000; stroke-linecap:round; stroke-linejoin:round; stroke-width:2; stroke-opacity:0.1; fill:none" points="279.327,193.563 3792.76,193.563 "/>
<polyline clip-path="url(#clip590)" style="stroke:#000000; stroke-linecap:round; stroke-linejoin:round; stroke-width:4; stroke-opacity:1; fill:none" points="279.327,2496.2 3792.76,2496.2 "/>
<polyline clip-path="url(#clip590)" style="stroke:#000000; stroke-linecap:round; stroke-linejoin:round; stroke-width:4; stroke-opacity:1; fill:none" points="279.327,2496.2 279.327,2477.3 "/>
<polyline clip-path="url(#clip590)" style="stroke:#000000; stroke-linecap:round; stroke-linejoin:round; stroke-width:4; stroke-opacity:1; fill:none" points="982.013,2496.2 982.013,2477.3 "/>
<polyline clip-path="url(#clip590)" style="stroke:#000000; stroke-linecap:round; stroke-linejoin:round; stroke-width:4; stroke-opacity:1; fill:none" points="1684.7,2496.2 1684.7,2477.3 "/>
<polyline clip-path="url(#clip590)" style="stroke:#000000; stroke-linecap:round; stroke-linejoin:round; stroke-width:4; stroke-opacity:1; fill:none" points="2387.38,2496.2 2387.38,2477.3 "/>
<polyline clip-path="url(#clip590)" style="stroke:#000000; stroke-linecap:round; stroke-linejoin:round; stroke-width:4; stroke-opacity:1; fill:none" points="3090.07,2496.2 3090.07,2477.3 "/>
<polyline clip-path="url(#clip590)" style="stroke:#000000; stroke-linecap:round; stroke-linejoin:round; stroke-width:4; stroke-opacity:1; fill:none" points="3792.76,2496.2 3792.76,2477.3 "/>
<path clip-path="url(#clip590)" d="M279.327 2538.63 Q275.716 2538.63 273.887 2542.2 Q272.082 2545.74 272.082 2552.87 Q272.082 2559.98 273.887 2563.54 Q275.716 2567.08 279.327 2567.08 Q282.961 2567.08 284.767 2563.54 Q286.596 2559.98 286.596 2552.87 Q286.596 2545.74 284.767 2542.2 Q282.961 2538.63 279.327 2538.63 M279.327 2534.93 Q285.137 2534.93 288.193 2539.54 Q291.272 2544.12 291.272 2552.87 Q291.272 2561.6 288.193 2566.2 Q285.137 2570.79 279.327 2570.79 Q273.517 2570.79 270.438 2566.2 Q267.383 2561.6 267.383 2552.87 Q267.383 2544.12 270.438 2539.54 Q273.517 2534.93 279.327 2534.93 Z" fill="#000000" fill-rule="nonzero" fill-opacity="1" /><path clip-path="url(#clip590)" d="M976.666 2566.18 L992.985 2566.18 L992.985 2570.12 L971.041 2570.12 L971.041 2566.18 Q973.703 2563.43 978.286 2558.8 Q982.893 2554.14 984.073 2552.8 Q986.318 2550.28 987.198 2548.54 Q988.101 2546.78 988.101 2545.09 Q988.101 2542.34 986.156 2540.6 Q984.235 2538.87 981.133 2538.87 Q978.934 2538.87 976.481 2539.63 Q974.05 2540.39 971.272 2541.94 L971.272 2537.22 Q974.096 2536.09 976.55 2535.51 Q979.004 2534.93 981.041 2534.93 Q986.411 2534.93 989.606 2537.62 Q992.8 2540.3 992.8 2544.79 Q992.8 2546.92 991.99 2548.84 Q991.203 2550.74 989.096 2553.33 Q988.518 2554 985.416 2557.22 Q982.314 2560.42 976.666 2566.18 Z" fill="#000000" fill-rule="nonzero" fill-opacity="1" /><path clip-path="url(#clip590)" d="M1687.71 2539.63 L1675.9 2558.08 L1687.71 2558.08 L1687.71 2539.63 M1686.48 2535.56 L1692.36 2535.56 L1692.36 2558.08 L1697.29 2558.08 L1697.29 2561.97 L1692.36 2561.97 L1692.36 2570.12 L1687.71 2570.12 L1687.71 2561.97 L1672.11 2561.97 L1672.11 2557.45 L1686.48 2535.56 Z" fill="#000000" fill-rule="nonzero" fill-opacity="1" /><path clip-path="url(#clip590)" d="M2387.79 2550.97 Q2384.64 2550.97 2382.79 2553.13 Q2380.96 2555.28 2380.96 2559.03 Q2380.96 2562.75 2382.79 2564.93 Q2384.64 2567.08 2387.79 2567.08 Q2390.94 2567.08 2392.77 2564.93 Q2394.62 2562.75 2394.62 2559.03 Q2394.62 2555.28 2392.77 2553.13 Q2390.94 2550.97 2387.79 2550.97 M2397.07 2536.32 L2397.07 2540.58 Q2395.31 2539.75 2393.51 2539.31 Q2391.72 2538.87 2389.97 2538.87 Q2385.34 2538.87 2382.88 2541.99 Q2380.45 2545.12 2380.1 2551.44 Q2381.47 2549.42 2383.53 2548.36 Q2385.59 2547.27 2388.07 2547.27 Q2393.28 2547.27 2396.28 2550.44 Q2399.32 2553.59 2399.32 2559.03 Q2399.32 2564.35 2396.17 2567.57 Q2393.02 2570.79 2387.79 2570.79 Q2381.79 2570.79 2378.62 2566.2 Q2375.45 2561.6 2375.45 2552.87 Q2375.45 2544.68 2379.34 2539.82 Q2383.23 2534.93 2389.78 2534.93 Q2391.54 2534.93 2393.32 2535.28 Q2395.13 2535.63 2397.07 2536.32 Z" fill="#000000" fill-rule="nonzero" fill-opacity="1" /><path clip-path="url(#clip590)" d="M3090.07 2553.7 Q3086.74 2553.7 3084.82 2555.49 Q3082.92 2557.27 3082.92 2560.39 Q3082.92 2563.52 3084.82 2565.3 Q3086.74 2567.08 3090.07 2567.08 Q3093.4 2567.08 3095.32 2565.3 Q3097.25 2563.5 3097.25 2560.39 Q3097.25 2557.27 3095.32 2555.49 Q3093.43 2553.7 3090.07 2553.7 M3085.39 2551.71 Q3082.39 2550.97 3080.7 2548.91 Q3079.03 2546.85 3079.03 2543.89 Q3079.03 2539.75 3081.97 2537.34 Q3084.93 2534.93 3090.07 2534.93 Q3095.23 2534.93 3098.17 2537.34 Q3101.11 2539.75 3101.11 2543.89 Q3101.11 2546.85 3099.42 2548.91 Q3097.76 2550.97 3094.77 2551.71 Q3098.15 2552.5 3100.02 2554.79 Q3101.92 2557.08 3101.92 2560.39 Q3101.92 2565.42 3098.84 2568.1 Q3095.79 2570.79 3090.07 2570.79 Q3084.35 2570.79 3081.27 2568.1 Q3078.22 2565.42 3078.22 2560.39 Q3078.22 2557.08 3080.12 2554.79 Q3082.01 2552.5 3085.39 2551.71 M3083.68 2544.33 Q3083.68 2547.01 3085.35 2548.52 Q3087.04 2550.02 3090.07 2550.02 Q3093.08 2550.02 3094.77 2548.52 Q3096.48 2547.01 3096.48 2544.33 Q3096.48 2541.64 3094.77 2540.14 Q3093.08 2538.63 3090.07 2538.63 Q3087.04 2538.63 3085.35 2540.14 Q3083.68 2541.64 3083.68 2544.33 Z" fill="#000000" fill-rule="nonzero" fill-opacity="1" /><path clip-path="url(#clip590)" d="M3767.44 2566.18 L3775.08 2566.18 L3775.08 2539.82 L3766.77 2541.48 L3766.77 2537.22 L3775.04 2535.56 L3779.71 2535.56 L3779.71 2566.18 L3787.35 2566.18 L3787.35 2570.12 L3767.44 2570.12 L3767.44 2566.18 Z" fill="#000000" fill-rule="nonzero" fill-opacity="1" /><path clip-path="url(#clip590)" d="M3806.8 2538.63 Q3803.18 2538.63 3801.36 2542.2 Q3799.55 2545.74 3799.55 2552.87 Q3799.55 2559.98 3801.36 2563.54 Q3803.18 2567.08 3806.8 2567.08 Q3810.43 2567.08 3812.23 2563.54 Q3814.06 2559.98 3814.06 2552.87 Q3814.06 2545.74 3812.23 2542.2 Q3810.43 2538.63 3806.8 2538.63 M3806.8 2534.93 Q3812.61 2534.93 3815.66 2539.54 Q3818.74 2544.12 3818.74 2552.87 Q3818.74 2561.6 3815.66 2566.2 Q3812.61 2570.79 3806.8 2570.79 Q3800.99 2570.79 3797.91 2566.2 Q3794.85 2561.6 3794.85 2552.87 Q3794.85 2544.12 3797.91 2539.54 Q3800.99 2534.93 3806.8 2534.93 Z" fill="#000000" fill-rule="nonzero" fill-opacity="1" /><path clip-path="url(#clip590)" d="M1916.02 2639.97 L1916.02 2657.38 L1926.33 2657.38 Q1931.52 2657.38 1934 2655.24 Q1936.51 2653.08 1936.51 2648.66 Q1936.51 2644.2 1934 2642.1 Q1931.52 2639.97 1926.33 2639.97 L1916.02 2639.97 M1916.02 2620.42 L1916.02 2634.75 L1925.53 2634.75 Q1930.24 2634.75 1932.54 2633 Q1934.86 2631.21 1934.86 2627.58 Q1934.86 2623.99 1932.54 2622.21 Q1930.24 2620.42 1925.53 2620.42 L1916.02 2620.42 M1909.59 2615.14 L1926.01 2615.14 Q1933.36 2615.14 1937.34 2618.2 Q1941.32 2621.25 1941.32 2626.88 Q1941.32 2631.25 1939.28 2633.82 Q1937.25 2636.4 1933.3 2637.04 Q1938.04 2638.06 1940.65 2641.3 Q1943.29 2644.52 1943.29 2649.36 Q1943.29 2655.72 1938.96 2659.19 Q1934.64 2662.66 1926.65 2662.66 L1909.59 2662.66 L1909.59 2615.14 Z" fill="#000000" fill-rule="nonzero" fill-opacity="1" /><path clip-path="url(#clip590)" d="M1959.72 2657.31 L1959.72 2676.22 L1953.83 2676.22 L1953.83 2627.01 L1959.72 2627.01 L1959.72 2632.42 Q1961.56 2629.24 1964.36 2627.71 Q1967.2 2626.15 1971.11 2626.15 Q1977.6 2626.15 1981.65 2631.31 Q1985.72 2636.46 1985.72 2644.87 Q1985.72 2653.27 1981.65 2658.43 Q1977.6 2663.58 1971.11 2663.58 Q1967.2 2663.58 1964.36 2662.06 Q1961.56 2660.5 1959.72 2657.31 M1979.64 2644.87 Q1979.64 2638.41 1976.97 2634.75 Q1974.33 2631.05 1969.68 2631.05 Q1965.03 2631.05 1962.36 2634.75 Q1959.72 2638.41 1959.72 2644.87 Q1959.72 2651.33 1962.36 2655.02 Q1965.03 2658.68 1969.68 2658.68 Q1974.33 2658.68 1976.97 2655.02 Q1979.64 2651.33 1979.64 2644.87 Z" fill="#000000" fill-rule="nonzero" fill-opacity="1" /><path clip-path="url(#clip590)" d="M2025.92 2643.37 L2025.92 2646.24 L1998.99 2646.24 Q1999.38 2652.28 2002.62 2655.47 Q2005.9 2658.62 2011.72 2658.62 Q2015.1 2658.62 2018.25 2657.79 Q2021.43 2656.96 2024.55 2655.31 L2024.55 2660.85 Q2021.4 2662.18 2018.09 2662.88 Q2014.78 2663.58 2011.37 2663.58 Q2002.84 2663.58 1997.85 2658.62 Q1992.88 2653.65 1992.88 2645.19 Q1992.88 2636.43 1997.59 2631.31 Q2002.34 2626.15 2010.36 2626.15 Q2017.55 2626.15 2021.72 2630.8 Q2025.92 2635.41 2025.92 2643.37 M2020.06 2641.65 Q2020 2636.85 2017.36 2633.98 Q2014.75 2631.12 2010.42 2631.12 Q2005.52 2631.12 2002.56 2633.89 Q1999.63 2636.66 1999.18 2641.68 L2020.06 2641.65 Z" fill="#000000" fill-rule="nonzero" fill-opacity="1" /><path clip-path="url(#clip590)" d="M2035.31 2627.01 L2043.87 2627.01 L2053.99 2650.88 L2064.15 2627.01 L2072.64 2627.01 L2072.64 2662.66 L2066.76 2662.66 L2066.76 2632.61 L2056.92 2655.82 L2051.06 2655.82 L2041.2 2632.61 L2041.2 2662.66 L2035.31 2662.66 L2035.31 2627.01 Z" fill="#000000" fill-rule="nonzero" fill-opacity="1" /><path clip-path="url(#clip590)" d="M2090.6 2637.29 Q2090.6 2639.93 2092.63 2641.43 Q2094.67 2642.93 2098.46 2642.93 L2106.35 2642.93 L2106.35 2631.69 L2098.46 2631.69 Q2094.67 2631.69 2092.63 2633.15 Q2090.6 2634.62 2090.6 2637.29 M2082.26 2662.66 L2093.14 2647.03 Q2089.45 2646.2 2087 2644.04 Q2084.55 2641.84 2084.55 2637.29 Q2084.55 2632.14 2087.95 2629.59 Q2091.39 2627.01 2098.3 2627.01 L2112.24 2627.01 L2112.24 2662.66 L2106.35 2662.66 L2106.35 2647.6 L2099.06 2647.6 L2088.56 2662.66 L2082.26 2662.66 Z" fill="#000000" fill-rule="nonzero" fill-opacity="1" /><path clip-path="url(#clip590)" d="M2150.43 2616.89 L2150.43 2627.01 L2162.5 2627.01 L2162.5 2631.56 L2150.43 2631.56 L2150.43 2650.92 Q2150.43 2655.28 2151.61 2656.52 Q2152.82 2657.76 2156.48 2657.76 L2162.5 2657.76 L2162.5 2662.66 L2156.48 2662.66 Q2149.7 2662.66 2147.12 2660.15 Q2144.55 2657.6 2144.55 2650.92 L2144.55 2631.56 L2140.25 2631.56 L2140.25 2627.01 L2144.55 2627.01 L2144.55 2616.89 L2150.43 2616.89 Z" fill="#000000" fill-rule="nonzero" fill-opacity="1" /><polyline clip-path="url(#clip590)" style="stroke:#000000; stroke-linecap:round; stroke-linejoin:round; stroke-width:4; stroke-opacity:1; fill:none" points="279.327,2496.2 279.327,126.496 "/>
<polyline clip-path="url(#clip590)" style="stroke:#000000; stroke-linecap:round; stroke-linejoin:round; stroke-width:4; stroke-opacity:1; fill:none" points="279.327,2349.99 298.225,2349.99 "/>
<polyline clip-path="url(#clip590)" style="stroke:#000000; stroke-linecap:round; stroke-linejoin:round; stroke-width:4; stroke-opacity:1; fill:none" points="279.327,1990.59 298.225,1990.59 "/>
<polyline clip-path="url(#clip590)" style="stroke:#000000; stroke-linecap:round; stroke-linejoin:round; stroke-width:4; stroke-opacity:1; fill:none" points="279.327,1631.18 298.225,1631.18 "/>
<polyline clip-path="url(#clip590)" style="stroke:#000000; stroke-linecap:round; stroke-linejoin:round; stroke-width:4; stroke-opacity:1; fill:none" points="279.327,1271.78 298.225,1271.78 "/>
<polyline clip-path="url(#clip590)" style="stroke:#000000; stroke-linecap:round; stroke-linejoin:round; stroke-width:4; stroke-opacity:1; fill:none" points="279.327,912.373 298.225,912.373 "/>
<polyline clip-path="url(#clip590)" style="stroke:#000000; stroke-linecap:round; stroke-linejoin:round; stroke-width:4; stroke-opacity:1; fill:none" points="279.327,552.968 298.225,552.968 "/>
<polyline clip-path="url(#clip590)" style="stroke:#000000; stroke-linecap:round; stroke-linejoin:round; stroke-width:4; stroke-opacity:1; fill:none" points="279.327,193.563 298.225,193.563 "/>
<path clip-path="url(#clip590)" d="M152.306 2336.79 L140.501 2355.24 L152.306 2355.24 L152.306 2336.79 M151.079 2332.71 L156.959 2332.71 L156.959 2355.24 L161.89 2355.24 L161.89 2359.13 L156.959 2359.13 L156.959 2367.27 L152.306 2367.27 L152.306 2359.13 L136.705 2359.13 L136.705 2354.61 L151.079 2332.71 Z" fill="#000000" fill-rule="nonzero" fill-opacity="1" /><path clip-path="url(#clip590)" d="M179.621 2335.79 Q176.01 2335.79 174.181 2339.36 Q172.376 2342.9 172.376 2350.03 Q172.376 2357.14 174.181 2360.7 Q176.01 2364.24 179.621 2364.24 Q183.255 2364.24 185.061 2360.7 Q186.889 2357.14 186.889 2350.03 Q186.889 2342.9 185.061 2339.36 Q183.255 2335.79 179.621 2335.79 M179.621 2332.09 Q185.431 2332.09 188.487 2336.7 Q191.565 2341.28 191.565 2350.03 Q191.565 2358.76 188.487 2363.36 Q185.431 2367.95 179.621 2367.95 Q173.811 2367.95 170.732 2363.36 Q167.677 2358.76 167.677 2350.03 Q167.677 2341.28 170.732 2336.7 Q173.811 2332.09 179.621 2332.09 Z" fill="#000000" fill-rule="nonzero" fill-opacity="1" /><path clip-path="url(#clip590)" d="M209.783 2335.79 Q206.172 2335.79 204.343 2339.36 Q202.538 2342.9 202.538 2350.03 Q202.538 2357.14 204.343 2360.7 Q206.172 2364.24 209.783 2364.24 Q213.417 2364.24 215.223 2360.7 Q217.051 2357.14 217.051 2350.03 Q217.051 2342.9 215.223 2339.36 Q213.417 2335.79 209.783 2335.79 M209.783 2332.09 Q215.593 2332.09 218.649 2336.7 Q221.727 2341.28 221.727 2350.03 Q221.727 2358.76 218.649 2363.36 Q215.593 2367.95 209.783 2367.95 Q203.973 2367.95 200.894 2363.36 Q197.838 2358.76 197.838 2350.03 Q197.838 2341.28 200.894 2336.7 Q203.973 2332.09 209.783 2332.09 Z" fill="#000000" fill-rule="nonzero" fill-opacity="1" /><path clip-path="url(#clip590)" d="M139.505 1973.31 L157.862 1973.31 L157.862 1977.24 L143.788 1977.24 L143.788 1985.72 Q144.806 1985.37 145.825 1985.21 Q146.843 1985.02 147.862 1985.02 Q153.649 1985.02 157.028 1988.19 Q160.408 1991.36 160.408 1996.78 Q160.408 2002.36 156.936 2005.46 Q153.464 2008.54 147.144 2008.54 Q144.968 2008.54 142.7 2008.17 Q140.455 2007.8 138.047 2007.06 L138.047 2002.36 Q140.13 2003.49 142.353 2004.05 Q144.575 2004.61 147.052 2004.61 Q151.056 2004.61 153.394 2002.5 Q155.732 2000.39 155.732 1996.78 Q155.732 1993.17 153.394 1991.06 Q151.056 1988.96 147.052 1988.96 Q145.177 1988.96 143.302 1989.37 Q141.45 1989.79 139.505 1990.67 L139.505 1973.31 Z" fill="#000000" fill-rule="nonzero" fill-opacity="1" /><path clip-path="url(#clip590)" d="M179.621 1976.39 Q176.01 1976.39 174.181 1979.95 Q172.376 1983.49 172.376 1990.62 Q172.376 1997.73 174.181 2001.3 Q176.01 2004.84 179.621 2004.84 Q183.255 2004.84 185.061 2001.3 Q186.889 1997.73 186.889 1990.62 Q186.889 1983.49 185.061 1979.95 Q183.255 1976.39 179.621 1976.39 M179.621 1972.68 Q185.431 1972.68 188.487 1977.29 Q191.565 1981.87 191.565 1990.62 Q191.565 1999.35 188.487 2003.96 Q185.431 2008.54 179.621 2008.54 Q173.811 2008.54 170.732 2003.96 Q167.677 1999.35 167.677 1990.62 Q167.677 1981.87 170.732 1977.29 Q173.811 1972.68 179.621 1972.68 Z" fill="#000000" fill-rule="nonzero" fill-opacity="1" /><path clip-path="url(#clip590)" d="M209.783 1976.39 Q206.172 1976.39 204.343 1979.95 Q202.538 1983.49 202.538 1990.62 Q202.538 1997.73 204.343 2001.3 Q206.172 2004.84 209.783 2004.84 Q213.417 2004.84 215.223 2001.3 Q217.051 1997.73 217.051 1990.62 Q217.051 1983.49 215.223 1979.95 Q213.417 1976.39 209.783 1976.39 M209.783 1972.68 Q215.593 1972.68 218.649 1977.29 Q221.727 1981.87 221.727 1990.62 Q221.727 1999.35 218.649 2003.96 Q215.593 2008.54 209.783 2008.54 Q203.973 2008.54 200.894 2003.96 Q197.838 1999.35 197.838 1990.62 Q197.838 1981.87 200.894 1977.29 Q203.973 1972.68 209.783 1972.68 Z" fill="#000000" fill-rule="nonzero" fill-opacity="1" /><path clip-path="url(#clip590)" d="M150.038 1629.32 Q146.89 1629.32 145.038 1631.47 Q143.209 1633.63 143.209 1637.38 Q143.209 1641.1 145.038 1643.28 Q146.89 1645.43 150.038 1645.43 Q153.186 1645.43 155.015 1643.28 Q156.866 1641.1 156.866 1637.38 Q156.866 1633.63 155.015 1631.47 Q153.186 1629.32 150.038 1629.32 M159.32 1614.67 L159.32 1618.93 Q157.561 1618.09 155.755 1617.65 Q153.973 1617.21 152.214 1617.21 Q147.584 1617.21 145.13 1620.34 Q142.7 1623.46 142.353 1629.78 Q143.718 1627.77 145.779 1626.7 Q147.839 1625.62 150.316 1625.62 Q155.524 1625.62 158.533 1628.79 Q161.566 1631.94 161.566 1637.38 Q161.566 1642.7 158.417 1645.92 Q155.269 1649.14 150.038 1649.14 Q144.042 1649.14 140.871 1644.55 Q137.7 1639.95 137.7 1631.22 Q137.7 1623.02 141.589 1618.16 Q145.478 1613.28 152.029 1613.28 Q153.788 1613.28 155.57 1613.63 Q157.376 1613.97 159.32 1614.67 Z" fill="#000000" fill-rule="nonzero" fill-opacity="1" /><path clip-path="url(#clip590)" d="M179.621 1616.98 Q176.01 1616.98 174.181 1620.55 Q172.376 1624.09 172.376 1631.22 Q172.376 1638.33 174.181 1641.89 Q176.01 1645.43 179.621 1645.43 Q183.255 1645.43 185.061 1641.89 Q186.889 1638.33 186.889 1631.22 Q186.889 1624.09 185.061 1620.55 Q183.255 1616.98 179.621 1616.98 M179.621 1613.28 Q185.431 1613.28 188.487 1617.89 Q191.565 1622.47 191.565 1631.22 Q191.565 1639.95 188.487 1644.55 Q185.431 1649.14 179.621 1649.14 Q173.811 1649.14 170.732 1644.55 Q167.677 1639.95 167.677 1631.22 Q167.677 1622.47 170.732 1617.89 Q173.811 1613.28 179.621 1613.28 Z" fill="#000000" fill-rule="nonzero" fill-opacity="1" /><path clip-path="url(#clip590)" d="M209.783 1616.98 Q206.172 1616.98 204.343 1620.55 Q202.538 1624.09 202.538 1631.22 Q202.538 1638.33 204.343 1641.89 Q206.172 1645.43 209.783 1645.43 Q213.417 1645.43 215.223 1641.89 Q217.051 1638.33 217.051 1631.22 Q217.051 1624.09 215.223 1620.55 Q213.417 1616.98 209.783 1616.98 M209.783 1613.28 Q215.593 1613.28 218.649 1617.89 Q221.727 1622.47 221.727 1631.22 Q221.727 1639.95 218.649 1644.55 Q215.593 1649.14 209.783 1649.14 Q203.973 1649.14 200.894 1644.55 Q197.838 1639.95 197.838 1631.22 Q197.838 1622.47 200.894 1617.89 Q203.973 1613.28 209.783 1613.28 Z" fill="#000000" fill-rule="nonzero" fill-opacity="1" /><path clip-path="url(#clip590)" d="M138.279 1254.5 L160.501 1254.5 L160.501 1256.49 L147.954 1289.06 L143.07 1289.06 L154.876 1258.43 L138.279 1258.43 L138.279 1254.5 Z" fill="#000000" fill-rule="nonzero" fill-opacity="1" /><path clip-path="url(#clip590)" d="M179.621 1257.58 Q176.01 1257.58 174.181 1261.14 Q172.376 1264.68 172.376 1271.81 Q172.376 1278.92 174.181 1282.48 Q176.01 1286.03 179.621 1286.03 Q183.255 1286.03 185.061 1282.48 Q186.889 1278.92 186.889 1271.81 Q186.889 1264.68 185.061 1261.14 Q183.255 1257.58 179.621 1257.58 M179.621 1253.87 Q185.431 1253.87 188.487 1258.48 Q191.565 1263.06 191.565 1271.81 Q191.565 1280.54 188.487 1285.15 Q185.431 1289.73 179.621 1289.73 Q173.811 1289.73 170.732 1285.15 Q167.677 1280.54 167.677 1271.81 Q167.677 1263.06 170.732 1258.48 Q173.811 1253.87 179.621 1253.87 Z" fill="#000000" fill-rule="nonzero" fill-opacity="1" /><path clip-path="url(#clip590)" d="M209.783 1257.58 Q206.172 1257.58 204.343 1261.14 Q202.538 1264.68 202.538 1271.81 Q202.538 1278.92 204.343 1282.48 Q206.172 1286.03 209.783 1286.03 Q213.417 1286.03 215.223 1282.48 Q217.051 1278.92 217.051 1271.81 Q217.051 1264.68 215.223 1261.14 Q213.417 1257.58 209.783 1257.58 M209.783 1253.87 Q215.593 1253.87 218.649 1258.48 Q221.727 1263.06 221.727 1271.81 Q221.727 1280.54 218.649 1285.15 Q215.593 1289.73 209.783 1289.73 Q203.973 1289.73 200.894 1285.15 Q197.838 1280.54 197.838 1271.81 Q197.838 1263.06 200.894 1258.48 Q203.973 1253.87 209.783 1253.87 Z" fill="#000000" fill-rule="nonzero" fill-opacity="1" /><path clip-path="url(#clip590)" d="M149.459 913.242 Q146.126 913.242 144.204 915.024 Q142.306 916.806 142.306 919.931 Q142.306 923.056 144.204 924.839 Q146.126 926.621 149.459 926.621 Q152.792 926.621 154.714 924.839 Q156.635 923.033 156.635 919.931 Q156.635 916.806 154.714 915.024 Q152.816 913.242 149.459 913.242 M144.783 911.251 Q141.774 910.51 140.084 908.45 Q138.417 906.39 138.417 903.427 Q138.417 899.283 141.357 896.876 Q144.32 894.468 149.459 894.468 Q154.621 894.468 157.561 896.876 Q160.501 899.283 160.501 903.427 Q160.501 906.39 158.811 908.45 Q157.144 910.51 154.158 911.251 Q157.538 912.038 159.413 914.33 Q161.311 916.621 161.311 919.931 Q161.311 924.954 158.232 927.64 Q155.177 930.325 149.459 930.325 Q143.742 930.325 140.663 927.64 Q137.607 924.954 137.607 919.931 Q137.607 916.621 139.505 914.33 Q141.404 912.038 144.783 911.251 M143.07 903.867 Q143.07 906.552 144.737 908.056 Q146.427 909.561 149.459 909.561 Q152.468 909.561 154.158 908.056 Q155.871 906.552 155.871 903.867 Q155.871 901.181 154.158 899.677 Q152.468 898.172 149.459 898.172 Q146.427 898.172 144.737 899.677 Q143.07 901.181 143.07 903.867 Z" fill="#000000" fill-rule="nonzero" fill-opacity="1" /><path clip-path="url(#clip590)" d="M179.621 898.172 Q176.01 898.172 174.181 901.737 Q172.376 905.279 172.376 912.408 Q172.376 919.515 174.181 923.079 Q176.01 926.621 179.621 926.621 Q183.255 926.621 185.061 923.079 Q186.889 919.515 186.889 912.408 Q186.889 905.279 185.061 901.737 Q183.255 898.172 179.621 898.172 M179.621 894.468 Q185.431 894.468 188.487 899.075 Q191.565 903.658 191.565 912.408 Q191.565 921.135 188.487 925.741 Q185.431 930.325 179.621 930.325 Q173.811 930.325 170.732 925.741 Q167.677 921.135 167.677 912.408 Q167.677 903.658 170.732 899.075 Q173.811 894.468 179.621 894.468 Z" fill="#000000" fill-rule="nonzero" fill-opacity="1" /><path clip-path="url(#clip590)" d="M209.783 898.172 Q206.172 898.172 204.343 901.737 Q202.538 905.279 202.538 912.408 Q202.538 919.515 204.343 923.079 Q206.172 926.621 209.783 926.621 Q213.417 926.621 215.223 923.079 Q217.051 919.515 217.051 912.408 Q217.051 905.279 215.223 901.737 Q213.417 898.172 209.783 898.172 M209.783 894.468 Q215.593 894.468 218.649 899.075 Q221.727 903.658 221.727 912.408 Q221.727 921.135 218.649 925.741 Q215.593 930.325 209.783 930.325 Q203.973 930.325 200.894 925.741 Q197.838 921.135 197.838 912.408 Q197.838 903.658 200.894 899.075 Q203.973 894.468 209.783 894.468 Z" fill="#000000" fill-rule="nonzero" fill-opacity="1" /><path clip-path="url(#clip590)" d="M139.598 569.531 L139.598 565.271 Q141.357 566.105 143.163 566.545 Q144.968 566.984 146.704 566.984 Q151.334 566.984 153.765 563.883 Q156.218 560.758 156.566 554.415 Q155.223 556.406 153.163 557.471 Q151.103 558.535 148.603 558.535 Q143.417 558.535 140.385 555.41 Q137.376 552.262 137.376 546.822 Q137.376 541.498 140.524 538.281 Q143.672 535.063 148.904 535.063 Q154.899 535.063 158.047 539.67 Q161.218 544.253 161.218 553.003 Q161.218 561.174 157.329 566.059 Q153.464 570.92 146.913 570.92 Q145.154 570.92 143.348 570.572 Q141.542 570.225 139.598 569.531 M148.904 554.878 Q152.052 554.878 153.88 552.725 Q155.732 550.572 155.732 546.822 Q155.732 543.096 153.88 540.943 Q152.052 538.767 148.904 538.767 Q145.755 538.767 143.904 540.943 Q142.075 543.096 142.075 546.822 Q142.075 550.572 143.904 552.725 Q145.755 554.878 148.904 554.878 Z" fill="#000000" fill-rule="nonzero" fill-opacity="1" /><path clip-path="url(#clip590)" d="M179.621 538.767 Q176.01 538.767 174.181 542.332 Q172.376 545.873 172.376 553.003 Q172.376 560.109 174.181 563.674 Q176.01 567.216 179.621 567.216 Q183.255 567.216 185.061 563.674 Q186.889 560.109 186.889 553.003 Q186.889 545.873 185.061 542.332 Q183.255 538.767 179.621 538.767 M179.621 535.063 Q185.431 535.063 188.487 539.67 Q191.565 544.253 191.565 553.003 Q191.565 561.73 188.487 566.336 Q185.431 570.92 179.621 570.92 Q173.811 570.92 170.732 566.336 Q167.677 561.73 167.677 553.003 Q167.677 544.253 170.732 539.67 Q173.811 535.063 179.621 535.063 Z" fill="#000000" fill-rule="nonzero" fill-opacity="1" /><path clip-path="url(#clip590)" d="M209.783 538.767 Q206.172 538.767 204.343 542.332 Q202.538 545.873 202.538 553.003 Q202.538 560.109 204.343 563.674 Q206.172 567.216 209.783 567.216 Q213.417 567.216 215.223 563.674 Q217.051 560.109 217.051 553.003 Q217.051 545.873 215.223 542.332 Q213.417 538.767 209.783 538.767 M209.783 535.063 Q215.593 535.063 218.649 539.67 Q221.727 544.253 221.727 553.003 Q221.727 561.73 218.649 566.336 Q215.593 570.92 209.783 570.92 Q203.973 570.92 200.894 566.336 Q197.838 561.73 197.838 553.003 Q197.838 544.253 200.894 539.67 Q203.973 535.063 209.783 535.063 Z" fill="#000000" fill-rule="nonzero" fill-opacity="1" /><path clip-path="url(#clip590)" d="M110.107 206.908 L117.746 206.908 L117.746 180.542 L109.436 182.209 L109.436 177.95 L117.7 176.283 L122.376 176.283 L122.376 206.908 L130.015 206.908 L130.015 210.843 L110.107 210.843 L110.107 206.908 Z" fill="#000000" fill-rule="nonzero" fill-opacity="1" /><path clip-path="url(#clip590)" d="M149.459 179.362 Q145.848 179.362 144.019 182.927 Q142.214 186.468 142.214 193.598 Q142.214 200.704 144.019 204.269 Q145.848 207.811 149.459 207.811 Q153.093 207.811 154.899 204.269 Q156.728 200.704 156.728 193.598 Q156.728 186.468 154.899 182.927 Q153.093 179.362 149.459 179.362 M149.459 175.658 Q155.269 175.658 158.325 180.265 Q161.403 184.848 161.403 193.598 Q161.403 202.325 158.325 206.931 Q155.269 211.514 149.459 211.514 Q143.649 211.514 140.57 206.931 Q137.515 202.325 137.515 193.598 Q137.515 184.848 140.57 180.265 Q143.649 175.658 149.459 175.658 Z" fill="#000000" fill-rule="nonzero" fill-opacity="1" /><path clip-path="url(#clip590)" d="M179.621 179.362 Q176.01 179.362 174.181 182.927 Q172.376 186.468 172.376 193.598 Q172.376 200.704 174.181 204.269 Q176.01 207.811 179.621 207.811 Q183.255 207.811 185.061 204.269 Q186.889 200.704 186.889 193.598 Q186.889 186.468 185.061 182.927 Q183.255 179.362 179.621 179.362 M179.621 175.658 Q185.431 175.658 188.487 180.265 Q191.565 184.848 191.565 193.598 Q191.565 202.325 188.487 206.931 Q185.431 211.514 179.621 211.514 Q173.811 211.514 170.732 206.931 Q167.677 202.325 167.677 193.598 Q167.677 184.848 170.732 180.265 Q173.811 175.658 179.621 175.658 Z" fill="#000000" fill-rule="nonzero" fill-opacity="1" /><path clip-path="url(#clip590)" d="M209.783 179.362 Q206.172 179.362 204.343 182.927 Q202.538 186.468 202.538 193.598 Q202.538 200.704 204.343 204.269 Q206.172 207.811 209.783 207.811 Q213.417 207.811 215.223 204.269 Q217.051 200.704 217.051 193.598 Q217.051 186.468 215.223 182.927 Q213.417 179.362 209.783 179.362 M209.783 175.658 Q215.593 175.658 218.649 180.265 Q221.727 184.848 221.727 193.598 Q221.727 202.325 218.649 206.931 Q215.593 211.514 209.783 211.514 Q203.973 211.514 200.894 206.931 Q197.838 202.325 197.838 193.598 Q197.838 184.848 200.894 180.265 Q203.973 175.658 209.783 175.658 Z" fill="#000000" fill-rule="nonzero" fill-opacity="1" /><path clip-path="url(#clip590)" d="M37.5802 1501.38 L18.1011 1501.38 L18.1011 1514.65 Q18.1011 1520.57 14.409 1524.1 Q10.685 1527.64 3.10986 1527.64 L-9.93984 1527.64 L-9.93984 1521.24 L2.6006 1521.24 Q7.66134 1521.24 10.1758 1519.27 Q12.6902 1517.29 12.6902 1513.35 L12.6902 1501.38 L-9.93984 1501.38 L-9.93984 1494.92 L37.5802 1494.92 L37.5802 1501.38 Z" fill="#000000" fill-rule="nonzero" fill-opacity="1" /><path clip-path="url(#clip590)" d="M1.9322 1452.08 L37.5802 1452.08 L37.5802 1457.9 L8.96631 1457.9 L37.5802 1475.09 L37.5802 1482.6 L1.9322 1482.6 L1.9322 1476.77 L30.4824 1476.77 L1.9322 1459.62 L1.9322 1452.08 Z" fill="#000000" fill-rule="nonzero" fill-opacity="1" /><path clip-path="url(#clip590)" d="M3.30083 1414.36 L8.77533 1414.36 Q7.40671 1416.84 6.73831 1419.36 Q6.03808 1421.84 6.03808 1424.39 Q6.03808 1430.08 9.66653 1433.23 Q13.2632 1436.38 19.788 1436.38 Q26.3129 1436.38 29.9413 1433.23 Q33.5379 1430.08 33.5379 1424.39 Q33.5379 1421.84 32.8695 1419.36 Q32.1693 1416.84 30.8007 1414.36 L36.2115 1414.36 Q37.3574 1416.81 37.9303 1419.45 Q38.5032 1422.06 38.5032 1425.02 Q38.5032 1433.07 33.4424 1437.82 Q28.3817 1442.56 19.788 1442.56 Q11.067 1442.56 6.06991 1437.78 Q1.07283 1432.98 1.07283 1424.64 Q1.07283 1421.93 1.64574 1419.36 Q2.18683 1416.78 3.30083 1414.36 Z" fill="#000000" fill-rule="nonzero" fill-opacity="1" /><path clip-path="url(#clip590)" d="M37.5802 1407.9 L32.7104 1407.9 Q31.8192 1402.11 27.8088 1400.32 Q22.1751 1398.16 7.75682 1398.16 L1.9322 1398.16 L1.9322 1374.06 L37.5802 1374.06 L37.5802 1379.92 L6.61099 1379.92 L6.61099 1392.3 L10.144 1392.3 Q23.8939 1392.3 30.0686 1395.1 Q36.6571 1398.09 37.5802 1407.9 Z" fill="#000000" fill-rule="nonzero" fill-opacity="1" /><path clip-path="url(#clip590)" d="M18.2921 1332.02 L21.1566 1332.02 L21.1566 1358.95 Q27.2041 1358.56 30.3869 1355.32 Q33.5379 1352.04 33.5379 1346.21 Q33.5379 1342.84 32.7104 1339.69 Q31.8829 1336.51 30.2278 1333.39 L35.7659 1333.39 Q37.1027 1336.54 37.803 1339.85 Q38.5032 1343.16 38.5032 1346.56 Q38.5032 1355.09 33.5379 1360.09 Q28.5727 1365.06 20.1063 1365.06 Q11.3534 1365.06 6.22905 1360.35 Q1.07283 1355.6 1.07283 1347.58 Q1.07283 1340.39 5.7198 1336.22 Q10.3349 1332.02 18.2921 1332.02 M16.5733 1337.88 Q11.7672 1337.94 8.90265 1340.58 Q6.03808 1343.19 6.03808 1347.52 Q6.03808 1352.42 8.80716 1355.38 Q11.5762 1358.31 16.6052 1358.75 L16.5733 1337.88 Z" fill="#000000" fill-rule="nonzero" fill-opacity="1" /><path clip-path="url(#clip590)" d="M1.9322 1322.63 L1.9322 1316.74 L16.4778 1316.74 L16.4778 1297.74 L1.9322 1297.74 L1.9322 1291.85 L37.5802 1291.85 L37.5802 1297.74 L21.1566 1297.74 L21.1566 1316.74 L37.5802 1316.74 L37.5802 1322.63 L1.9322 1322.63 Z" fill="#000000" fill-rule="nonzero" fill-opacity="1" /><path clip-path="url(#clip590)" d="M1.9322 1280.01 L1.9322 1274.12 L16.4778 1274.12 L16.4778 1255.12 L1.9322 1255.12 L1.9322 1249.23 L37.5802 1249.23 L37.5802 1255.12 L21.1566 1255.12 L21.1566 1274.12 L37.5802 1274.12 L37.5802 1280.01 L1.9322 1280.01 Z" fill="#000000" fill-rule="nonzero" fill-opacity="1" /><path clip-path="url(#clip590)" d="M6.03808 1223.36 Q6.03808 1228.07 9.73019 1230.8 Q13.3905 1233.54 19.788 1233.54 Q26.1855 1233.54 29.8777 1230.84 Q33.5379 1228.1 33.5379 1223.36 Q33.5379 1218.68 29.8458 1215.94 Q26.1537 1213.2 19.788 1213.2 Q13.4541 1213.2 9.76202 1215.94 Q6.03808 1218.68 6.03808 1223.36 M1.07283 1223.36 Q1.07283 1215.72 6.03808 1211.36 Q11.0033 1207 19.788 1207 Q28.5409 1207 33.5379 1211.36 Q38.5032 1215.72 38.5032 1223.36 Q38.5032 1231.03 33.5379 1235.39 Q28.5409 1239.72 19.788 1239.72 Q11.0033 1239.72 6.03808 1235.39 Q1.07283 1231.03 1.07283 1223.36 Z" fill="#000000" fill-rule="nonzero" fill-opacity="1" /><path clip-path="url(#clip590)" d="M3.30083 1171.63 L8.77533 1171.63 Q7.40671 1174.12 6.73831 1176.63 Q6.03808 1179.11 6.03808 1181.66 Q6.03808 1187.36 9.66653 1190.51 Q13.2632 1193.66 19.788 1193.66 Q26.3129 1193.66 29.9413 1190.51 Q33.5379 1187.36 33.5379 1181.66 Q33.5379 1179.11 32.8695 1176.63 Q32.1693 1174.12 30.8007 1171.63 L36.2115 1171.63 Q37.3574 1174.09 37.9303 1176.73 Q38.5032 1179.34 38.5032 1182.3 Q38.5032 1190.35 33.4424 1195.09 Q28.3817 1199.83 19.788 1199.83 Q11.067 1199.83 6.06991 1195.06 Q1.07283 1190.25 1.07283 1181.92 Q1.07283 1179.21 1.64574 1176.63 Q2.18683 1174.05 3.30083 1171.63 Z" fill="#000000" fill-rule="nonzero" fill-opacity="1" /><path clip-path="url(#clip590)" d="M1.9322 1165.68 L1.9322 1131.53 L6.61099 1131.53 L6.61099 1145.73 L37.5802 1145.73 L37.5802 1151.49 L6.61099 1151.49 L6.61099 1165.68 L1.9322 1165.68 Z" fill="#000000" fill-rule="nonzero" fill-opacity="1" /><path clip-path="url(#clip590)" d="M27.0131 1101.29 Q24.1485 1101.29 22.6526 1103.39 Q21.1566 1105.46 21.1566 1109.47 L21.1566 1117.81 L32.9014 1117.81 L32.9014 1109.47 Q32.9014 1105.46 31.4054 1103.39 Q29.8777 1101.29 27.0131 1101.29 M1.9322 1123.7 L1.9322 1117.81 L16.4778 1117.81 L16.4778 1109.22 Q16.4778 1102.41 19.0878 1098.75 Q21.6659 1095.06 27.0131 1095.06 Q32.3603 1095.06 34.9702 1098.75 Q37.5802 1102.41 37.5802 1109.22 L37.5802 1123.7 L1.9322 1123.7 Z" fill="#000000" fill-rule="nonzero" fill-opacity="1" /><path clip-path="url(#clip590)" d="M1000.81 12.096 L1013.01 12.096 L1028.44 53.2532 L1043.95 12.096 L1056.15 12.096 L1056.15 72.576 L1048.17 72.576 L1048.17 19.4686 L1032.57 60.9499 L1024.35 60.9499 L1008.75 19.4686 L1008.75 72.576 L1000.81 72.576 L1000.81 12.096 Z" fill="#000000" fill-rule="nonzero" fill-opacity="1" /><path clip-path="url(#clip590)" d="M1089.65 32.4315 Q1083.65 32.4315 1080.17 37.1306 Q1076.69 41.7891 1076.69 49.9314 Q1076.69 58.0738 1080.13 62.7728 Q1083.61 67.4314 1089.65 67.4314 Q1095.6 67.4314 1099.09 62.7323 Q1102.57 58.0333 1102.57 49.9314 Q1102.57 41.8701 1099.09 37.1711 Q1095.6 32.4315 1089.65 32.4315 M1089.65 26.1121 Q1099.37 26.1121 1104.92 32.4315 Q1110.47 38.7509 1110.47 49.9314 Q1110.47 61.0714 1104.92 67.4314 Q1099.37 73.7508 1089.65 73.7508 Q1079.89 73.7508 1074.34 67.4314 Q1068.83 61.0714 1068.83 49.9314 Q1068.83 38.7509 1074.34 32.4315 Q1079.89 26.1121 1089.65 26.1121 Z" fill="#000000" fill-rule="nonzero" fill-opacity="1" /><path clip-path="url(#clip590)" d="M1132.95 66.6212 L1154.59 66.6212 L1154.59 33.1607 L1138.91 33.1607 L1138.91 38.832 Q1138.91 55.5217 1134.13 64.4337 L1132.95 66.6212 M1122.14 66.6212 Q1125.82 65.0008 1127.44 61.5575 Q1131.41 53.0101 1131.41 35.7938 L1131.41 27.2059 L1162.08 27.2059 L1162.08 66.6212 L1168.03 66.6212 L1168.03 84.0401 L1162.08 84.0401 L1162.08 72.576 L1125.3 72.576 L1125.3 84.0401 L1119.34 84.0401 L1119.34 66.6212 L1122.14 66.6212 Z" fill="#000000" fill-rule="nonzero" fill-opacity="1" /><path clip-path="url(#clip590)" d="M1218.99 48.0275 L1218.99 51.6733 L1184.72 51.6733 Q1185.21 59.3701 1189.34 63.421 Q1193.51 67.4314 1200.93 67.4314 Q1205.22 67.4314 1209.23 66.3781 Q1213.28 65.3249 1217.25 63.2184 L1217.25 70.267 Q1213.24 71.9684 1209.03 72.8596 Q1204.82 73.7508 1200.48 73.7508 Q1189.63 73.7508 1183.27 67.4314 Q1176.95 61.1119 1176.95 50.3365 Q1176.95 39.1965 1182.94 32.6746 Q1188.98 26.1121 1199.19 26.1121 Q1208.34 26.1121 1213.65 32.0264 Q1218.99 37.9003 1218.99 48.0275 M1211.54 45.84 Q1211.46 39.7232 1208.1 36.0774 Q1204.78 32.4315 1199.27 32.4315 Q1193.03 32.4315 1189.26 35.9558 Q1185.53 39.4801 1184.97 45.8805 L1211.54 45.84 Z" fill="#000000" fill-rule="nonzero" fill-opacity="1" /><path clip-path="url(#clip590)" d="M1226.49 72.576 L1226.49 66.3781 Q1233.86 65.2439 1236.13 60.1397 Q1238.88 52.9696 1238.88 34.619 L1238.88 27.2059 L1269.55 27.2059 L1269.55 72.576 L1262.1 72.576 L1262.1 33.1607 L1246.34 33.1607 L1246.34 37.6572 Q1246.34 55.1571 1242.77 63.0159 Q1238.97 71.4012 1226.49 72.576 Z" fill="#000000" fill-rule="nonzero" fill-opacity="1" /><path clip-path="url(#clip590)" d="M1312.49 59.127 Q1312.49 55.4812 1309.82 53.5773 Q1307.18 51.6733 1302.08 51.6733 L1291.47 51.6733 L1291.47 66.6212 L1302.08 66.6212 Q1307.18 66.6212 1309.82 64.7172 Q1312.49 62.7728 1312.49 59.127 M1283.97 27.2059 L1291.47 27.2059 L1291.47 45.7185 L1302.4 45.7185 Q1311.07 45.7185 1315.73 49.0402 Q1320.43 52.3215 1320.43 59.127 Q1320.43 65.9325 1315.73 69.2543 Q1311.07 72.576 1302.4 72.576 L1283.97 72.576 L1283.97 27.2059 Z" fill="#000000" fill-rule="nonzero" fill-opacity="1" /><path clip-path="url(#clip590)" d="M1367.62 65.6895 L1396.18 65.6895 L1396.18 72.576 L1357.78 72.576 L1357.78 65.6895 Q1362.44 60.8689 1370.46 52.7671 Q1378.52 44.6248 1380.59 42.2752 Q1384.51 37.8598 1386.05 34.8216 Q1387.63 31.7429 1387.63 28.7857 Q1387.63 23.9651 1384.23 20.927 Q1380.87 17.8888 1375.44 17.8888 Q1371.59 17.8888 1367.3 19.2256 Q1363.04 20.5624 1358.18 23.2765 L1358.18 15.0127 Q1363.13 13.0277 1367.42 12.015 Q1371.71 11.0023 1375.28 11.0023 Q1384.68 11.0023 1390.27 15.7013 Q1395.86 20.4004 1395.86 28.2591 Q1395.86 31.9859 1394.44 35.3482 Q1393.06 38.6699 1389.38 43.2069 Q1388.36 44.3817 1382.93 50.0125 Q1377.51 55.6027 1367.62 65.6895 Z" fill="#000000" fill-rule="nonzero" fill-opacity="1" /><path clip-path="url(#clip590)" d="M1414.21 62.2867 L1422.75 62.2867 L1422.75 72.576 L1414.21 72.576 L1414.21 62.2867 M1414.21 29.6769 L1422.75 29.6769 L1422.75 39.9662 L1414.21 39.9662 L1414.21 29.6769 Z" fill="#000000" fill-rule="nonzero" fill-opacity="1" /><path clip-path="url(#clip590)" d="M1473.84 65.7705 L1473.84 89.8329 L1466.34 89.8329 L1466.34 27.2059 L1473.84 27.2059 L1473.84 34.0924 Q1476.19 30.0415 1479.75 28.0971 Q1483.36 26.1121 1488.34 26.1121 Q1496.6 26.1121 1501.75 32.6746 Q1506.93 39.2371 1506.93 49.9314 Q1506.93 60.6258 1501.75 67.1883 Q1496.6 73.7508 1488.34 73.7508 Q1483.36 73.7508 1479.75 71.8063 Q1476.19 69.8214 1473.84 65.7705 M1499.2 49.9314 Q1499.2 41.7081 1495.79 37.0496 Q1492.43 32.3505 1486.52 32.3505 Q1480.6 32.3505 1477.2 37.0496 Q1473.84 41.7081 1473.84 49.9314 Q1473.84 58.1548 1477.2 62.8538 Q1480.6 67.5124 1486.52 67.5124 Q1492.43 67.5124 1495.79 62.8538 Q1499.2 58.1548 1499.2 49.9314 Z" fill="#000000" fill-rule="nonzero" fill-opacity="1" /><path clip-path="url(#clip590)" d="M1558.1 48.0275 L1558.1 51.6733 L1523.82 51.6733 Q1524.31 59.3701 1528.44 63.421 Q1532.62 67.4314 1540.03 67.4314 Q1544.32 67.4314 1548.33 66.3781 Q1552.38 65.3249 1556.35 63.2184 L1556.35 70.267 Q1552.34 71.9684 1548.13 72.8596 Q1543.92 73.7508 1539.58 73.7508 Q1528.73 73.7508 1522.37 67.4314 Q1516.05 61.1119 1516.05 50.3365 Q1516.05 39.1965 1522.04 32.6746 Q1528.08 26.1121 1538.29 26.1121 Q1547.44 26.1121 1552.75 32.0264 Q1558.1 37.9003 1558.1 48.0275 M1550.64 45.84 Q1550.56 39.7232 1547.2 36.0774 Q1543.88 32.4315 1538.37 32.4315 Q1532.13 32.4315 1528.36 35.9558 Q1524.64 39.4801 1524.07 45.8805 L1550.64 45.84 Z" fill="#000000" fill-rule="nonzero" fill-opacity="1" /><path clip-path="url(#clip590)" d="M1570.05 72.576 L1570.05 27.2059 L1602.05 27.2059 L1602.05 33.1607 L1577.54 33.1607 L1577.54 72.576 L1570.05 72.576 Z" fill="#000000" fill-rule="nonzero" fill-opacity="1" /><path clip-path="url(#clip590)" d="M1632.79 76.7889 Q1629.63 84.8907 1626.64 87.3618 Q1623.64 89.8329 1618.62 89.8329 L1612.66 89.8329 L1612.66 83.5945 L1617.04 83.5945 Q1620.11 83.5945 1621.82 82.1361 Q1623.52 80.6778 1625.58 75.2496 L1626.92 71.8468 L1608.57 27.2059 L1616.47 27.2059 L1630.65 62.6918 L1644.83 27.2059 L1652.72 27.2059 L1632.79 76.7889 Z" fill="#000000" fill-rule="nonzero" fill-opacity="1" /><path clip-path="url(#clip590)" d="M1658.27 72.576 L1658.27 66.3781 Q1665.65 65.2439 1667.92 60.1397 Q1670.67 52.9696 1670.67 34.619 L1670.67 27.2059 L1701.34 27.2059 L1701.34 72.576 L1693.88 72.576 L1693.88 33.1607 L1678.12 33.1607 L1678.12 37.6572 Q1678.12 55.1571 1674.56 63.0159 Q1670.75 71.4012 1658.27 72.576 Z" fill="#000000" fill-rule="nonzero" fill-opacity="1" /><path clip-path="url(#clip590)" d="M1723.53 40.2903 Q1723.53 43.6525 1726.13 45.5565 Q1728.72 47.4604 1733.54 47.4604 L1743.59 47.4604 L1743.59 33.1607 L1733.54 33.1607 Q1728.72 33.1607 1726.13 35.0241 Q1723.53 36.8875 1723.53 40.2903 M1712.92 72.576 L1726.78 52.6861 Q1722.08 51.6328 1718.96 48.8782 Q1715.84 46.0831 1715.84 40.2903 Q1715.84 33.7278 1720.17 30.4871 Q1724.55 27.2059 1733.34 27.2059 L1751.08 27.2059 L1751.08 72.576 L1743.59 72.576 L1743.59 53.4152 L1734.31 53.4152 L1720.94 72.576 L1712.92 72.576 Z" fill="#000000" fill-rule="nonzero" fill-opacity="1" /><path clip-path="url(#clip590)" d="M1773.16 65.7705 L1773.16 89.8329 L1765.66 89.8329 L1765.66 27.2059 L1773.16 27.2059 L1773.16 34.0924 Q1775.51 30.0415 1779.07 28.0971 Q1782.68 26.1121 1787.66 26.1121 Q1795.92 26.1121 1801.07 32.6746 Q1806.25 39.2371 1806.25 49.9314 Q1806.25 60.6258 1801.07 67.1883 Q1795.92 73.7508 1787.66 73.7508 Q1782.68 73.7508 1779.07 71.8063 Q1775.51 69.8214 1773.16 65.7705 M1798.52 49.9314 Q1798.52 41.7081 1795.11 37.0496 Q1791.75 32.3505 1785.84 32.3505 Q1779.92 32.3505 1776.52 37.0496 Q1773.16 41.7081 1773.16 49.9314 Q1773.16 58.1548 1776.52 62.8538 Q1779.92 67.5124 1785.84 67.5124 Q1791.75 67.5124 1795.11 62.8538 Q1798.52 58.1548 1798.52 49.9314 Z" fill="#000000" fill-rule="nonzero" fill-opacity="1" /><path clip-path="url(#clip590)" d="M1818.33 27.2059 L1825.82 27.2059 L1825.82 45.7185 L1850 45.7185 L1850 27.2059 L1857.5 27.2059 L1857.5 72.576 L1850 72.576 L1850 51.6733 L1825.82 51.6733 L1825.82 72.576 L1818.33 72.576 L1818.33 27.2059 Z" fill="#000000" fill-rule="nonzero" fill-opacity="1" /><path clip-path="url(#clip590)" d="M1915.71 27.2059 L1923.16 27.2059 L1923.16 72.576 L1915.71 72.576 L1915.71 27.2059 M1919.44 26.1121 L1919.44 26.1121 M1901.09 59.127 Q1901.09 55.4812 1898.41 53.5773 Q1895.78 51.6733 1890.67 51.6733 L1880.06 51.6733 L1880.06 66.6212 L1890.67 66.6212 Q1895.78 66.6212 1898.41 64.7172 Q1901.09 62.7728 1901.09 59.127 M1872.57 27.2059 L1880.06 27.2059 L1880.06 45.7185 L1891 45.7185 Q1899.67 45.7185 1904.33 49.0402 Q1909.03 52.3215 1909.03 59.127 Q1909.03 65.9325 1904.33 69.2543 Q1899.67 72.576 1891 72.576 L1872.57 72.576 L1872.57 27.2059 Z" fill="#000000" fill-rule="nonzero" fill-opacity="1" /><path clip-path="url(#clip590)" d="M1977.16 48.0275 L1977.16 51.6733 L1942.89 51.6733 Q1943.38 59.3701 1947.51 63.421 Q1951.68 67.4314 1959.09 67.4314 Q1963.39 67.4314 1967.4 66.3781 Q1971.45 65.3249 1975.42 63.2184 L1975.42 70.267 Q1971.41 71.9684 1967.2 72.8596 Q1962.98 73.7508 1958.65 73.7508 Q1947.79 73.7508 1941.43 67.4314 Q1935.11 61.1119 1935.11 50.3365 Q1935.11 39.1965 1941.11 32.6746 Q1947.14 26.1121 1957.35 26.1121 Q1966.51 26.1121 1971.81 32.0264 Q1977.16 37.9003 1977.16 48.0275 M1969.71 45.84 Q1969.63 39.7232 1966.26 36.0774 Q1962.94 32.4315 1957.43 32.4315 Q1951.2 32.4315 1947.43 35.9558 Q1943.7 39.4801 1943.13 45.8805 L1969.71 45.84 Z" fill="#000000" fill-rule="nonzero" fill-opacity="1" /><path clip-path="url(#clip590)" d="M2022.94 51.6733 L2022.94 66.6212 L2033.55 66.6212 Q2038.65 66.6212 2041.33 64.7172 Q2044 62.7728 2044 59.127 Q2044 55.4812 2041.33 53.5773 Q2038.65 51.6733 2033.55 51.6733 L2022.94 51.6733 M2022.94 33.1607 L2022.94 45.7185 L2032.74 45.7185 Q2036.95 45.7185 2039.63 44.0576 Q2042.3 42.3563 2042.3 39.3586 Q2042.3 36.3609 2039.63 34.7811 Q2036.95 33.1607 2032.74 33.1607 L2022.94 33.1607 M2015.48 27.2059 L2033.23 27.2059 Q2041.21 27.2059 2045.5 30.1225 Q2049.79 33.0392 2049.79 38.4269 Q2049.79 42.5993 2047.61 45.0704 Q2045.42 47.5009 2041.13 48.1085 Q2046.27 49.0808 2049.11 52.1594 Q2051.94 55.2381 2051.94 59.8562 Q2051.94 65.9325 2047.24 69.2543 Q2042.58 72.576 2033.91 72.576 L2015.48 72.576 L2015.48 27.2059 Z" fill="#000000" fill-rule="nonzero" fill-opacity="1" /><path clip-path="url(#clip590)" d="M2082.24 32.4315 Q2076.25 32.4315 2072.76 37.1306 Q2069.28 41.7891 2069.28 49.9314 Q2069.28 58.0738 2072.72 62.7728 Q2076.21 67.4314 2082.24 67.4314 Q2088.2 67.4314 2091.68 62.7323 Q2095.16 58.0333 2095.16 49.9314 Q2095.16 41.8701 2091.68 37.1711 Q2088.2 32.4315 2082.24 32.4315 M2082.24 26.1121 Q2091.96 26.1121 2097.51 32.4315 Q2103.06 38.7509 2103.06 49.9314 Q2103.06 61.0714 2097.51 67.4314 Q2091.96 73.7508 2082.24 73.7508 Q2072.48 73.7508 2066.93 67.4314 Q2061.42 61.0714 2061.42 49.9314 Q2061.42 38.7509 2066.93 32.4315 Q2072.48 26.1121 2082.24 26.1121 Z" fill="#000000" fill-rule="nonzero" fill-opacity="1" /><path clip-path="url(#clip590)" d="M2153.98 27.2059 L2153.98 72.576 L2146.57 72.576 L2146.57 36.1584 L2124.7 72.576 L2115.14 72.576 L2115.14 27.2059 L2122.55 27.2059 L2122.55 63.5425 L2144.38 27.2059 L2153.98 27.2059 M2121.9 9.54393 L2126.68 9.54393 Q2127.13 12.5821 2129.07 14.1215 Q2131.06 15.6203 2134.58 15.6203 Q2138.06 15.6203 2140.01 14.1215 Q2141.95 12.6226 2142.48 9.54393 L2147.26 9.54393 Q2146.85 15.3367 2143.65 18.2534 Q2140.45 21.17 2134.58 21.17 Q2128.71 21.17 2125.51 18.2534 Q2122.31 15.3367 2121.9 9.54393 Z" fill="#000000" fill-rule="nonzero" fill-opacity="1" /><path clip-path="url(#clip590)" d="M2201.99 28.9478 L2201.99 35.9153 Q2198.83 34.1734 2195.63 33.3227 Q2192.47 32.4315 2189.23 32.4315 Q2181.98 32.4315 2177.96 37.0496 Q2173.95 41.6271 2173.95 49.9314 Q2173.95 58.2358 2177.96 62.8538 Q2181.98 67.4314 2189.23 67.4314 Q2192.47 67.4314 2195.63 66.5807 Q2198.83 65.6895 2201.99 63.9476 L2201.99 70.8341 Q2198.87 72.2924 2195.51 73.0216 Q2192.18 73.7508 2188.42 73.7508 Q2178.17 73.7508 2172.13 67.3098 Q2166.1 60.8689 2166.1 49.9314 Q2166.1 38.832 2172.17 32.472 Q2178.29 26.1121 2188.9 26.1121 Q2192.35 26.1121 2195.63 26.8413 Q2198.91 27.5299 2201.99 28.9478 Z" fill="#000000" fill-rule="nonzero" fill-opacity="1" /><path clip-path="url(#clip590)" d="M2214.67 27.2059 L2222.08 27.2059 L2222.08 48.5136 L2243.1 27.2059 L2252.26 27.2059 L2234.92 44.7463 L2254.49 72.576 L2246.14 72.576 L2230.06 49.6884 L2222.08 57.7902 L2222.08 72.576 L2214.67 72.576 L2214.67 27.2059 Z" fill="#000000" fill-rule="nonzero" fill-opacity="1" /><path clip-path="url(#clip590)" d="M2285.68 49.7694 Q2276.65 49.7694 2273.16 51.8354 Q2269.68 53.9013 2269.68 58.8839 Q2269.68 62.8538 2272.27 65.2034 Q2274.9 67.5124 2279.4 67.5124 Q2285.6 67.5124 2289.32 63.1374 Q2293.09 58.7219 2293.09 51.4303 L2293.09 49.7694 L2285.68 49.7694 M2300.55 46.6907 L2300.55 72.576 L2293.09 72.576 L2293.09 65.6895 Q2290.54 69.8214 2286.73 71.8063 Q2282.92 73.7508 2277.41 73.7508 Q2270.45 73.7508 2266.32 69.8619 Q2262.22 65.9325 2262.22 59.3701 Q2262.22 51.7138 2267.33 47.825 Q2272.47 43.9361 2282.64 43.9361 L2293.09 43.9361 L2293.09 43.2069 Q2293.09 38.0623 2289.69 35.2672 Q2286.33 32.4315 2280.21 32.4315 Q2276.32 32.4315 2272.63 33.3632 Q2268.95 34.295 2265.55 36.1584 L2265.55 29.2718 Q2269.64 27.692 2273.49 26.9223 Q2277.33 26.1121 2280.98 26.1121 Q2290.82 26.1121 2295.68 31.2163 Q2300.55 36.3204 2300.55 46.6907 Z" fill="#000000" fill-rule="nonzero" fill-opacity="1" /><path clip-path="url(#clip590)" d="M2381.16 27.2059 L2381.16 72.576 L2373.66 72.576 L2373.66 33.1607 L2349.48 33.1607 L2349.48 72.576 L2341.99 72.576 L2341.99 27.2059 L2381.16 27.2059 Z" fill="#000000" fill-rule="nonzero" fill-opacity="1" /><path clip-path="url(#clip590)" d="M2403.72 65.7705 L2403.72 89.8329 L2396.23 89.8329 L2396.23 27.2059 L2403.72 27.2059 L2403.72 34.0924 Q2406.07 30.0415 2409.64 28.0971 Q2413.24 26.1121 2418.22 26.1121 Q2426.49 26.1121 2431.63 32.6746 Q2436.82 39.2371 2436.82 49.9314 Q2436.82 60.6258 2431.63 67.1883 Q2426.49 73.7508 2418.22 73.7508 Q2413.24 73.7508 2409.64 71.8063 Q2406.07 69.8214 2403.72 65.7705 M2429.08 49.9314 Q2429.08 41.7081 2425.68 37.0496 Q2422.32 32.3505 2416.4 32.3505 Q2410.49 32.3505 2407.08 37.0496 Q2403.72 41.7081 2403.72 49.9314 Q2403.72 58.1548 2407.08 62.8538 Q2410.49 67.5124 2416.4 67.5124 Q2422.32 67.5124 2425.68 62.8538 Q2429.08 58.1548 2429.08 49.9314 Z" fill="#000000" fill-rule="nonzero" fill-opacity="1" /><path clip-path="url(#clip590)" d="M2466.75 32.4315 Q2460.76 32.4315 2457.27 37.1306 Q2453.79 41.7891 2453.79 49.9314 Q2453.79 58.0738 2457.23 62.7728 Q2460.72 67.4314 2466.75 67.4314 Q2472.71 67.4314 2476.19 62.7323 Q2479.68 58.0333 2479.68 49.9314 Q2479.68 41.8701 2476.19 37.1711 Q2472.71 32.4315 2466.75 32.4315 M2466.75 26.1121 Q2476.48 26.1121 2482.03 32.4315 Q2487.58 38.7509 2487.58 49.9314 Q2487.58 61.0714 2482.03 67.4314 Q2476.48 73.7508 2466.75 73.7508 Q2456.99 73.7508 2451.44 67.4314 Q2445.93 61.0714 2445.93 49.9314 Q2445.93 38.7509 2451.44 32.4315 Q2456.99 26.1121 2466.75 26.1121 Z" fill="#000000" fill-rule="nonzero" fill-opacity="1" /><path clip-path="url(#clip590)" d="M2494.54 27.2059 L2538.01 27.2059 L2538.01 33.1607 L2519.94 33.1607 L2519.94 72.576 L2512.61 72.576 L2512.61 33.1607 L2494.54 33.1607 L2494.54 27.2059 Z" fill="#000000" fill-rule="nonzero" fill-opacity="1" /><path clip-path="url(#clip590)" d="M2586.82 27.2059 L2586.82 72.576 L2579.41 72.576 L2579.41 36.1584 L2557.53 72.576 L2547.97 72.576 L2547.97 27.2059 L2555.39 27.2059 L2555.39 63.5425 L2577.22 27.2059 L2586.82 27.2059 Z" fill="#000000" fill-rule="nonzero" fill-opacity="1" /><path clip-path="url(#clip590)" d="M2609.35 51.6733 L2609.35 66.6212 L2619.96 66.6212 Q2625.06 66.6212 2627.74 64.7172 Q2630.41 62.7728 2630.41 59.127 Q2630.41 55.4812 2627.74 53.5773 Q2625.06 51.6733 2619.96 51.6733 L2609.35 51.6733 M2609.35 33.1607 L2609.35 45.7185 L2619.15 45.7185 Q2623.36 45.7185 2626.04 44.0576 Q2628.71 42.3563 2628.71 39.3586 Q2628.71 36.3609 2626.04 34.7811 Q2623.36 33.1607 2619.15 33.1607 L2609.35 33.1607 M2601.89 27.2059 L2619.64 27.2059 Q2627.62 27.2059 2631.91 30.1225 Q2636.2 33.0392 2636.2 38.4269 Q2636.2 42.5993 2634.02 45.0704 Q2631.83 47.5009 2627.53 48.1085 Q2632.68 49.0808 2635.51 52.1594 Q2638.35 55.2381 2638.35 59.8562 Q2638.35 65.9325 2633.65 69.2543 Q2628.99 72.576 2620.32 72.576 L2601.89 72.576 L2601.89 27.2059 Z" fill="#000000" fill-rule="nonzero" fill-opacity="1" /><path clip-path="url(#clip590)" d="M2716.33 27.2059 L2716.33 72.576 L2708.84 72.576 L2708.84 33.1607 L2684.65 33.1607 L2684.65 72.576 L2677.16 72.576 L2677.16 27.2059 L2716.33 27.2059 Z" fill="#000000" fill-rule="nonzero" fill-opacity="1" /><path clip-path="url(#clip590)" d="M2752.3 49.7694 Q2743.27 49.7694 2739.78 51.8354 Q2736.3 53.9013 2736.3 58.8839 Q2736.3 62.8538 2738.89 65.2034 Q2741.53 67.5124 2746.02 67.5124 Q2752.22 67.5124 2755.95 63.1374 Q2759.72 58.7219 2759.72 51.4303 L2759.72 49.7694 L2752.3 49.7694 M2767.17 46.6907 L2767.17 72.576 L2759.72 72.576 L2759.72 65.6895 Q2757.16 69.8214 2753.36 71.8063 Q2749.55 73.7508 2744.04 73.7508 Q2737.07 73.7508 2732.94 69.8619 Q2728.85 65.9325 2728.85 59.3701 Q2728.85 51.7138 2733.95 47.825 Q2739.1 43.9361 2749.26 43.9361 L2759.72 43.9361 L2759.72 43.2069 Q2759.72 38.0623 2756.31 35.2672 Q2752.95 32.4315 2746.83 32.4315 Q2742.94 32.4315 2739.26 33.3632 Q2735.57 34.295 2732.17 36.1584 L2732.17 29.2718 Q2736.26 27.692 2740.11 26.9223 Q2743.96 26.1121 2747.6 26.1121 Q2757.45 26.1121 2762.31 31.2163 Q2767.17 36.3204 2767.17 46.6907 Z" fill="#000000" fill-rule="nonzero" fill-opacity="1" /><path clip-path="url(#clip590)" d="M2789.73 65.7705 L2789.73 89.8329 L2782.24 89.8329 L2782.24 27.2059 L2789.73 27.2059 L2789.73 34.0924 Q2792.08 30.0415 2795.65 28.0971 Q2799.25 26.1121 2804.23 26.1121 Q2812.5 26.1121 2817.64 32.6746 Q2822.83 39.2371 2822.83 49.9314 Q2822.83 60.6258 2817.64 67.1883 Q2812.5 73.7508 2804.23 73.7508 Q2799.25 73.7508 2795.65 71.8063 Q2792.08 69.8214 2789.73 65.7705 M2815.09 49.9314 Q2815.09 41.7081 2811.69 37.0496 Q2808.33 32.3505 2802.41 32.3505 Q2796.5 32.3505 2793.09 37.0496 Q2789.73 41.7081 2789.73 49.9314 Q2789.73 58.1548 2793.09 62.8538 Q2796.5 67.5124 2802.41 67.5124 Q2808.33 67.5124 2811.69 62.8538 Q2815.09 58.1548 2815.09 49.9314 Z" fill="#000000" fill-rule="nonzero" fill-opacity="1" /><path clip-path="url(#clip590)" d="M2829.8 27.2059 L2873.26 27.2059 L2873.26 33.1607 L2855.2 33.1607 L2855.2 72.576 L2847.86 72.576 L2847.86 33.1607 L2829.8 33.1607 L2829.8 27.2059 Z" fill="#000000" fill-rule="nonzero" fill-opacity="1" /><path clip-path="url(#clip590)" d="M2922.08 27.2059 L2922.08 72.576 L2914.66 72.576 L2914.66 36.1584 L2892.79 72.576 L2883.23 72.576 L2883.23 27.2059 L2890.64 27.2059 L2890.64 63.5425 L2912.47 27.2059 L2922.08 27.2059 Z" fill="#000000" fill-rule="nonzero" fill-opacity="1" /><path clip-path="url(#clip590)" d="M2958.21 48.1085 Q2963.23 49.0808 2966.03 52.0379 Q2968.82 54.9951 2968.82 59.3701 Q2968.82 66.3781 2963.6 70.0644 Q2958.37 73.7508 2948.73 73.7508 Q2945.49 73.7508 2942.05 73.1836 Q2938.64 72.6165 2935 71.4823 L2935 64.5552 Q2937.87 66.054 2941.32 66.8237 Q2944.76 67.5529 2948.53 67.5529 Q2954.64 67.5529 2958.05 65.2844 Q2961.49 63.0159 2961.49 59.3701 Q2961.49 55.8053 2958.45 53.6583 Q2955.41 51.4708 2949.86 51.4708 L2943.87 51.4708 L2943.87 45.3134 L2950.15 45.3134 Q2954.85 45.3134 2957.56 43.531 Q2960.32 41.7081 2960.32 38.8725 Q2960.32 36.2799 2957.48 34.4165 Q2954.69 32.5531 2949.86 32.5531 Q2946.99 32.5531 2943.71 33.0797 Q2940.47 33.6063 2936.54 34.7811 L2936.54 28.0161 Q2940.51 27.0438 2943.95 26.5577 Q2947.39 26.0716 2950.47 26.0716 Q2958.41 26.0716 2962.99 29.2718 Q2967.61 32.4315 2967.61 38.1433 Q2967.61 41.9107 2965.18 44.5437 Q2962.75 47.1363 2958.21 48.1085 Z" fill="#000000" fill-rule="nonzero" fill-opacity="1" /><path clip-path="url(#clip590)" d="M3002.16 49.7694 Q2993.13 49.7694 2989.64 51.8354 Q2986.16 53.9013 2986.16 58.8839 Q2986.16 62.8538 2988.75 65.2034 Q2991.39 67.5124 2995.88 67.5124 Q3002.08 67.5124 3005.81 63.1374 Q3009.58 58.7219 3009.58 51.4303 L3009.58 49.7694 L3002.16 49.7694 M3017.03 46.6907 L3017.03 72.576 L3009.58 72.576 L3009.58 65.6895 Q3007.02 69.8214 3003.22 71.8063 Q2999.41 73.7508 2993.9 73.7508 Q2986.93 73.7508 2982.8 69.8619 Q2978.71 65.9325 2978.71 59.3701 Q2978.71 51.7138 2983.81 47.825 Q2988.96 43.9361 2999.12 43.9361 L3009.58 43.9361 L3009.58 43.2069 Q3009.58 38.0623 3006.17 35.2672 Q3002.81 32.4315 2996.69 32.4315 Q2992.8 32.4315 2989.12 33.3632 Q2985.43 34.295 2982.03 36.1584 L2982.03 29.2718 Q2986.12 27.692 2989.97 26.9223 Q2993.82 26.1121 2997.46 26.1121 Q3007.31 26.1121 3012.17 31.2163 Q3017.03 36.3204 3017.03 46.6907 Z" fill="#000000" fill-rule="nonzero" fill-opacity="1" /><path clip-path="url(#clip590)" d="M3032.1 27.2059 L3039.59 27.2059 L3039.59 45.7185 L3063.78 45.7185 L3063.78 27.2059 L3071.27 27.2059 L3071.27 72.576 L3063.78 72.576 L3063.78 51.6733 L3039.59 51.6733 L3039.59 72.576 L3032.1 72.576 L3032.1 27.2059 Z" fill="#000000" fill-rule="nonzero" fill-opacity="1" /><polyline clip-path="url(#clip592)" style="stroke:#0000ff; stroke-linecap:round; stroke-linejoin:round; stroke-width:8; stroke-opacity:1; fill:none" points="279.327,193.563 314.462,256.659 349.596,313.83 384.73,366.164 419.864,414.525 454.999,459.601 490.133,501.943 525.267,541.997 560.402,580.121 595.536,616.609 630.67,651.698 665.804,685.581 700.939,718.42 736.073,750.346 771.207,781.466 806.342,811.871 841.476,841.636 876.61,870.822 911.744,899.481 946.879,927.658 982.013,955.388 1017.15,982.702 1052.28,1009.63 1087.42,1036.19 1122.55,1062.4 1157.68,1088.28 1192.82,1113.84 1227.95,1139.1 1263.09,1164.06 1298.22,1188.74 1333.36,1213.15 1368.49,1237.28 1403.62,1261.16 1438.76,1284.77 1473.89,1308.14 1509.03,1331.26 1544.16,1354.14 1579.3,1376.78 1614.43,1399.19 1649.56,1421.37 1684.7,1443.32 1719.83,1465.05 1754.97,1486.56 1790.1,1507.85 1825.24,1528.93 1860.37,1549.79 1895.5,1570.45 1930.64,1590.9 1965.77,1611.14 2000.91,1631.19 2036.04,1651.03 2071.18,1670.67 2106.31,1690.12 2141.44,1709.38 2176.58,1728.45 2211.71,1747.32 2246.85,1766.01 2281.98,1784.52 2317.12,1802.84 2352.25,1820.98 2387.38,1838.94 2422.52,1856.72 2457.65,1874.32 2492.79,1891.76 2527.92,1909.02 2563.06,1926.11 2598.19,1943.03 2633.32,1959.78 2668.46,1976.37 2703.59,1992.79 2738.73,2009.06 2773.86,2025.16 2809,2041.1 2844.13,2056.89 2879.26,2072.52 2914.4,2088 2949.53,2103.32 2984.67,2118.49 3019.8,2133.52 3054.94,2148.39 3090.07,2163.12 3125.2,2177.71 3160.34,2192.15 3195.47,2206.45 3230.61,2220.61 3265.74,2234.63 3300.88,2248.51 3336.01,2262.25 3371.14,2275.86 3406.28,2289.34 3441.41,2302.68 3476.55,2315.9 3511.68,2328.98 3546.82,2341.93 3581.95,2354.76 3617.08,2367.46 3652.22,2380.04 3687.35,2392.49 3722.49,2404.83 3757.62,2417.04 3792.76,2429.13 "/>
<path clip-path="url(#clip590)" d="M2709.51 309.166 L3675.64 309.166 L3675.64 205.486 L2709.51 205.486  Z" fill="#ffffff" fill-rule="evenodd" fill-opacity="1"/>
<polyline clip-path="url(#clip590)" style="stroke:#000000; stroke-linecap:round; stroke-linejoin:round; stroke-width:4; stroke-opacity:1; fill:none" points="2709.51,309.166 3675.64,309.166 3675.64,205.486 2709.51,205.486 2709.51,309.166 "/>
<polyline clip-path="url(#clip590)" style="stroke:#0000ff; stroke-linecap:round; stroke-linejoin:round; stroke-width:8; stroke-opacity:1; fill:none" points="2748.55,257.326 2982.78,257.326 "/>
<path clip-path="url(#clip590)" d="M3046.47 248.68 L3037.09 261.296 L3046.95 274.606 L3041.93 274.606 L3034.38 264.421 L3026.84 274.606 L3021.82 274.606 L3031.88 261.041 L3022.67 248.68 L3027.69 248.68 L3034.57 257.916 L3041.44 248.68 L3046.47 248.68 Z" fill="#000000" fill-rule="nonzero" fill-opacity="1" /><path clip-path="url(#clip590)" d="M3063.2 238.634 Q3060.1 243.958 3058.6 249.166 Q3057.09 254.375 3057.09 259.722 Q3057.09 265.069 3058.6 270.324 Q3060.13 275.555 3063.2 280.856 L3059.5 280.856 Q3056.03 275.416 3054.29 270.162 Q3052.58 264.907 3052.58 259.722 Q3052.58 254.56 3054.29 249.328 Q3056 244.097 3059.5 238.634 L3063.2 238.634 Z" fill="#000000" fill-rule="nonzero" fill-opacity="1" /><path clip-path="url(#clip590)" d="M3075.68 241.319 L3075.68 248.68 L3084.45 248.68 L3084.45 251.99 L3075.68 251.99 L3075.68 266.064 Q3075.68 269.236 3076.54 270.139 Q3077.42 271.041 3080.08 271.041 L3084.45 271.041 L3084.45 274.606 L3080.08 274.606 Q3075.15 274.606 3073.27 272.777 Q3071.4 270.926 3071.4 266.064 L3071.4 251.99 L3068.27 251.99 L3068.27 248.68 L3071.4 248.68 L3071.4 241.319 L3075.68 241.319 Z" fill="#000000" fill-rule="nonzero" fill-opacity="1" /><path clip-path="url(#clip590)" d="M3089.38 238.634 L3093.09 238.634 Q3096.56 244.097 3098.27 249.328 Q3100.01 254.56 3100.01 259.722 Q3100.01 264.907 3098.27 270.162 Q3096.56 275.416 3093.09 280.856 L3089.38 280.856 Q3092.46 275.555 3093.97 270.324 Q3095.5 265.069 3095.5 259.722 Q3095.5 254.375 3093.97 249.166 Q3092.46 243.958 3089.38 238.634 Z" fill="#000000" fill-rule="nonzero" fill-opacity="1" /><path clip-path="url(#clip590)" d="M3121.47 259.953 L3164.24 259.953 L3164.24 263.287 L3121.47 263.287 L3121.47 259.953 Z" fill="#000000" fill-rule="nonzero" fill-opacity="1" /><path clip-path="url(#clip590)" d="M3190.22 270.717 L3190.22 284.467 L3185.93 284.467 L3185.93 248.68 L3190.22 248.68 L3190.22 252.615 Q3191.56 250.301 3193.6 249.19 Q3195.66 248.055 3198.5 248.055 Q3203.23 248.055 3206.17 251.805 Q3209.13 255.555 3209.13 261.666 Q3209.13 267.777 3206.17 271.527 Q3203.23 275.277 3198.5 275.277 Q3195.66 275.277 3193.6 274.166 Q3191.56 273.032 3190.22 270.717 M3204.71 261.666 Q3204.71 256.967 3202.76 254.305 Q3200.84 251.62 3197.46 251.62 Q3194.08 251.62 3192.14 254.305 Q3190.22 256.967 3190.22 261.666 Q3190.22 266.365 3192.14 269.051 Q3194.08 271.713 3197.46 271.713 Q3200.84 271.713 3202.76 269.051 Q3204.71 266.365 3204.71 261.666 Z" fill="#000000" fill-rule="nonzero" fill-opacity="1" /><path clip-path="url(#clip590)" d="M3238.36 260.578 L3238.36 262.662 L3218.78 262.662 Q3219.06 267.06 3221.42 269.375 Q3223.8 271.666 3228.04 271.666 Q3230.49 271.666 3232.79 271.064 Q3235.1 270.463 3237.37 269.259 L3237.37 273.287 Q3235.08 274.259 3232.67 274.768 Q3230.26 275.277 3227.79 275.277 Q3221.58 275.277 3217.95 271.666 Q3214.34 268.055 3214.34 261.898 Q3214.34 255.532 3217.76 251.805 Q3221.21 248.055 3227.05 248.055 Q3232.28 248.055 3235.31 251.435 Q3238.36 254.791 3238.36 260.578 M3234.11 259.328 Q3234.06 255.833 3232.14 253.75 Q3230.24 251.666 3227.09 251.666 Q3223.53 251.666 3221.37 253.68 Q3219.24 255.694 3218.92 259.352 L3234.11 259.328 Z" fill="#000000" fill-rule="nonzero" fill-opacity="1" /><path clip-path="url(#clip590)" d="M3245.19 274.606 L3245.19 248.68 L3263.48 248.68 L3263.48 252.083 L3249.48 252.083 L3249.48 274.606 L3245.19 274.606 Z" fill="#000000" fill-rule="nonzero" fill-opacity="1" /><path clip-path="url(#clip590)" d="M3281.05 277.014 Q3279.24 281.643 3277.53 283.055 Q3275.82 284.467 3272.95 284.467 L3269.55 284.467 L3269.55 280.902 L3272.05 280.902 Q3273.8 280.902 3274.78 280.069 Q3275.75 279.236 3276.93 276.134 L3277.69 274.189 L3267.21 248.68 L3271.72 248.68 L3279.82 268.958 L3287.92 248.68 L3292.44 248.68 L3281.05 277.014 Z" fill="#000000" fill-rule="nonzero" fill-opacity="1" /><path clip-path="url(#clip590)" d="M3295.61 274.606 L3295.61 271.064 Q3299.82 270.416 3301.12 267.5 Q3302.69 263.402 3302.69 252.916 L3302.69 248.68 L3320.22 248.68 L3320.22 274.606 L3315.96 274.606 L3315.96 252.083 L3306.95 252.083 L3306.95 254.653 Q3306.95 264.652 3304.92 269.143 Q3302.74 273.935 3295.61 274.606 Z" fill="#000000" fill-rule="nonzero" fill-opacity="1" /><path clip-path="url(#clip590)" d="M3332.9 256.157 Q3332.9 258.078 3334.38 259.166 Q3335.86 260.254 3338.62 260.254 L3344.36 260.254 L3344.36 252.083 L3338.62 252.083 Q3335.86 252.083 3334.38 253.148 Q3332.9 254.213 3332.9 256.157 M3326.84 274.606 L3334.75 263.24 Q3332.07 262.639 3330.29 261.065 Q3328.5 259.467 3328.5 256.157 Q3328.5 252.407 3330.98 250.555 Q3333.48 248.68 3338.5 248.68 L3348.64 248.68 L3348.64 274.606 L3344.36 274.606 L3344.36 263.657 L3339.06 263.657 L3331.42 274.606 L3326.84 274.606 Z" fill="#000000" fill-rule="nonzero" fill-opacity="1" /><path clip-path="url(#clip590)" d="M3361.26 270.717 L3361.26 284.467 L3356.98 284.467 L3356.98 248.68 L3361.26 248.68 L3361.26 252.615 Q3362.6 250.301 3364.64 249.19 Q3366.7 248.055 3369.54 248.055 Q3374.27 248.055 3377.21 251.805 Q3380.17 255.555 3380.17 261.666 Q3380.17 267.777 3377.21 271.527 Q3374.27 275.277 3369.54 275.277 Q3366.7 275.277 3364.64 274.166 Q3362.6 273.032 3361.26 270.717 M3375.75 261.666 Q3375.75 256.967 3373.8 254.305 Q3371.88 251.62 3368.5 251.62 Q3365.12 251.62 3363.18 254.305 Q3361.26 256.967 3361.26 261.666 Q3361.26 266.365 3363.18 269.051 Q3365.12 271.713 3368.5 271.713 Q3371.88 271.713 3373.8 269.051 Q3375.75 266.365 3375.75 261.666 Z" fill="#000000" fill-rule="nonzero" fill-opacity="1" /><path clip-path="url(#clip590)" d="M3387.07 248.68 L3391.35 248.68 L3391.35 259.259 L3405.17 259.259 L3405.17 248.68 L3409.45 248.68 L3409.45 274.606 L3405.17 274.606 L3405.17 262.662 L3391.35 262.662 L3391.35 274.606 L3387.07 274.606 L3387.07 248.68 Z" fill="#000000" fill-rule="nonzero" fill-opacity="1" /><path clip-path="url(#clip590)" d="M3430.01 261.574 Q3424.85 261.574 3422.85 262.754 Q3420.86 263.935 3420.86 266.782 Q3420.86 269.051 3422.35 270.393 Q3423.85 271.713 3426.42 271.713 Q3429.96 271.713 3432.09 269.213 Q3434.24 266.689 3434.24 262.523 L3434.24 261.574 L3430.01 261.574 M3438.5 259.815 L3438.5 274.606 L3434.24 274.606 L3434.24 270.671 Q3432.79 273.032 3430.61 274.166 Q3428.43 275.277 3425.29 275.277 Q3421.3 275.277 3418.94 273.055 Q3416.6 270.81 3416.6 267.06 Q3416.6 262.685 3419.52 260.463 Q3422.46 258.24 3428.27 258.24 L3434.24 258.24 L3434.24 257.824 Q3434.24 254.884 3432.3 253.287 Q3430.38 251.666 3426.88 251.666 Q3424.66 251.666 3422.55 252.199 Q3420.45 252.731 3418.5 253.796 L3418.5 249.861 Q3420.84 248.958 3423.04 248.518 Q3425.24 248.055 3427.32 248.055 Q3432.95 248.055 3435.72 250.972 Q3438.5 253.889 3438.5 259.815 Z" fill="#000000" fill-rule="nonzero" fill-opacity="1" /><path clip-path="url(#clip590)" d="M3451.56 256.157 Q3451.56 258.078 3453.04 259.166 Q3454.52 260.254 3457.28 260.254 L3463.02 260.254 L3463.02 252.083 L3457.28 252.083 Q3454.52 252.083 3453.04 253.148 Q3451.56 254.213 3451.56 256.157 M3445.49 274.606 L3453.41 263.24 Q3450.72 262.639 3448.94 261.065 Q3447.16 259.467 3447.16 256.157 Q3447.16 252.407 3449.64 250.555 Q3452.14 248.68 3457.16 248.68 L3467.3 248.68 L3467.3 274.606 L3463.02 274.606 L3463.02 263.657 L3457.72 263.657 L3450.08 274.606 L3445.49 274.606 Z" fill="#000000" fill-rule="nonzero" fill-opacity="1" /><path clip-path="url(#clip590)" d="M3502.65 261.574 Q3497.48 261.574 3495.49 262.754 Q3493.5 263.935 3493.5 266.782 Q3493.5 269.051 3494.98 270.393 Q3496.49 271.713 3499.06 271.713 Q3502.6 271.713 3504.73 269.213 Q3506.88 266.689 3506.88 262.523 L3506.88 261.574 L3502.65 261.574 M3511.14 259.815 L3511.14 274.606 L3506.88 274.606 L3506.88 270.671 Q3505.42 273.032 3503.25 274.166 Q3501.07 275.277 3497.92 275.277 Q3493.94 275.277 3491.58 273.055 Q3489.24 270.81 3489.24 267.06 Q3489.24 262.685 3492.16 260.463 Q3495.1 258.24 3500.91 258.24 L3506.88 258.24 L3506.88 257.824 Q3506.88 254.884 3504.94 253.287 Q3503.02 251.666 3499.52 251.666 Q3497.3 251.666 3495.19 252.199 Q3493.09 252.731 3491.14 253.796 L3491.14 249.861 Q3493.48 248.958 3495.68 248.518 Q3497.88 248.055 3499.96 248.055 Q3505.59 248.055 3508.36 250.972 Q3511.14 253.889 3511.14 259.815 Z" fill="#000000" fill-rule="nonzero" fill-opacity="1" /><path clip-path="url(#clip590)" d="M3524.03 270.717 L3524.03 284.467 L3519.75 284.467 L3519.75 248.68 L3524.03 248.68 L3524.03 252.615 Q3525.38 250.301 3527.41 249.19 Q3529.47 248.055 3532.32 248.055 Q3537.04 248.055 3539.98 251.805 Q3542.95 255.555 3542.95 261.666 Q3542.95 267.777 3539.98 271.527 Q3537.04 275.277 3532.32 275.277 Q3529.47 275.277 3527.41 274.166 Q3525.38 273.032 3524.03 270.717 M3538.53 261.666 Q3538.53 256.967 3536.58 254.305 Q3534.66 251.62 3531.28 251.62 Q3527.9 251.62 3525.96 254.305 Q3524.03 256.967 3524.03 261.666 Q3524.03 266.365 3525.96 269.051 Q3527.9 271.713 3531.28 271.713 Q3534.66 271.713 3536.58 269.051 Q3538.53 266.365 3538.53 261.666 Z" fill="#000000" fill-rule="nonzero" fill-opacity="1" /><path clip-path="url(#clip590)" d="M3549.84 248.68 L3556.07 248.68 L3563.43 266.041 L3570.82 248.68 L3577 248.68 L3577 274.606 L3572.71 274.606 L3572.71 252.754 L3565.56 269.629 L3561.3 269.629 L3554.13 252.754 L3554.13 274.606 L3549.84 274.606 L3549.84 248.68 Z" fill="#000000" fill-rule="nonzero" fill-opacity="1" /><path clip-path="url(#clip590)" d="M3607.81 248.68 L3607.81 274.606 L3603.57 274.606 L3603.57 253.796 L3591.07 274.606 L3585.61 274.606 L3585.61 248.68 L3589.84 248.68 L3589.84 269.444 L3602.32 248.68 L3607.81 248.68 Z" fill="#000000" fill-rule="nonzero" fill-opacity="1" /><path clip-path="url(#clip590)" d="M3620.86 256.157 Q3620.86 258.078 3622.34 259.166 Q3623.83 260.254 3626.58 260.254 L3632.32 260.254 L3632.32 252.083 L3626.58 252.083 Q3623.83 252.083 3622.34 253.148 Q3620.86 254.213 3620.86 256.157 M3614.8 274.606 L3622.71 263.24 Q3620.03 262.639 3618.25 261.065 Q3616.46 259.467 3616.46 256.157 Q3616.46 252.407 3618.94 250.555 Q3621.44 248.68 3626.46 248.68 L3636.6 248.68 L3636.6 274.606 L3632.32 274.606 L3632.32 263.657 L3627.02 263.657 L3619.38 274.606 L3614.8 274.606 Z" fill="#000000" fill-rule="nonzero" fill-opacity="1" /></svg>
