<?xml version="1.0" encoding="utf-8"?>
<svg xmlns="http://www.w3.org/2000/svg" xmlns:xlink="http://www.w3.org/1999/xlink" width="960" height="672" viewBox="0 0 3840 2688">
<defs>
  <clipPath id="clip330">
    <rect x="0" y="0" width="3840" height="2688"/>
  </clipPath>
</defs>
<path clip-path="url(#clip330)" d="M0 2688 L3840 2688 L3840 0 L0 0  Z" fill="#ffffff" fill-rule="evenodd" fill-opacity="1"/>
<defs>
  <clipPath id="clip331">
    <rect x="386" y="126" width="3407" height="2371"/>
  </clipPath>
</defs>
<path clip-path="url(#clip330)" d="M386.479 2496.2 L3792.76 2496.2 L3792.76 126.496 L386.479 126.496  Z" fill="#ffffff" fill-rule="evenodd" fill-opacity="1"/>
<polyline clip-path="url(#clip331)" style="stroke:#000000; stroke-linecap:round; stroke-linejoin:round; stroke-width:2; stroke-opacity:0.1; fill:none" points="386.479,2496.2 386.479,126.496 "/>
<polyline clip-path="url(#clip331)" style="stroke:#000000; stroke-linecap:round; stroke-linejoin:round; stroke-width:2; stroke-opacity:0.1; fill:none" points="1067.73,2496.2 1067.73,126.496 "/>
<polyline clip-path="url(#clip331)" style="stroke:#000000; stroke-linecap:round; stroke-linejoin:round; stroke-width:2; stroke-opacity:0.1; fill:none" points="1748.99,2496.2 1748.99,126.496 "/>
<polyline clip-path="url(#clip331)" style="stroke:#000000; stroke-linecap:round; stroke-linejoin:round; stroke-width:2; stroke-opacity:0.1; fill:none" points="2430.25,2496.2 2430.25,126.496 "/>
<polyline clip-path="url(#clip331)" style="stroke:#000000; stroke-linecap:round; stroke-linejoin:round; stroke-width:2; stroke-opacity:0.1; fill:none" points="3111.5,2496.2 3111.5,126.496 "/>
<polyline clip-path="url(#clip331)" style="stroke:#000000; stroke-linecap:round; stroke-linejoin:round; stroke-width:2; stroke-opacity:0.1; fill:none" points="3792.76,2496.2 3792.76,126.496 "/>
<polyline clip-path="url(#clip331)" style="stroke:#000000; stroke-linecap:round; stroke-linejoin:round; stroke-width:2; stroke-opacity:0.1; fill:none" points="386.479,2354.62 3792.76,2354.62 "/>
<polyline clip-path="url(#clip331)" style="stroke:#000000; stroke-linecap:round; stroke-linejoin:round; stroke-width:2; stroke-opacity:0.1; fill:none" points="386.479,1814.36 3792.76,1814.36 "/>
<polyline clip-path="url(#clip331)" style="stroke:#000000; stroke-linecap:round; stroke-linejoin:round; stroke-width:2; stroke-opacity:0.1; fill:none" points="386.479,1274.09 3792.76,1274.09 "/>
<polyline clip-path="url(#clip331)" style="stroke:#000000; stroke-linecap:round; stroke-linejoin:round; stroke-width:2; stroke-opacity:0.1; fill:none" points="386.479,733.828 3792.76,733.828 "/>
<polyline clip-path="url(#clip331)" style="stroke:#000000; stroke-linecap:round; stroke-linejoin:round; stroke-width:2; stroke-opacity:0.1; fill:none" points="386.479,193.563 3792.76,193.563 "/>
<polyline clip-path="url(#clip330)" style="stroke:#000000; stroke-linecap:round; stroke-linejoin:round; stroke-width:4; stroke-opacity:1; fill:none" points="386.479,2496.2 3792.76,2496.2 "/>
<polyline clip-path="url(#clip330)" style="stroke:#000000; stroke-linecap:round; stroke-linejoin:round; stroke-width:4; stroke-opacity:1; fill:none" points="386.479,2496.2 386.479,2477.3 "/>
<polyline clip-path="url(#clip330)" style="stroke:#000000; stroke-linecap:round; stroke-linejoin:round; stroke-width:4; stroke-opacity:1; fill:none" points="1067.73,2496.2 1067.73,2477.3 "/>
<polyline clip-path="url(#clip330)" style="stroke:#000000; stroke-linecap:round; stroke-linejoin:round; stroke-width:4; stroke-opacity:1; fill:none" points="1748.99,2496.2 1748.99,2477.3 "/>
<polyline clip-path="url(#clip330)" style="stroke:#000000; stroke-linecap:round; stroke-linejoin:round; stroke-width:4; stroke-opacity:1; fill:none" points="2430.25,2496.2 2430.25,2477.3 "/>
<polyline clip-path="url(#clip330)" style="stroke:#000000; stroke-linecap:round; stroke-linejoin:round; stroke-width:4; stroke-opacity:1; fill:none" points="3111.5,2496.2 3111.5,2477.3 "/>
<polyline clip-path="url(#clip330)" style="stroke:#000000; stroke-linecap:round; stroke-linejoin:round; stroke-width:4; stroke-opacity:1; fill:none" points="3792.76,2496.2 3792.76,2477.3 "/>
<path clip-path="url(#clip330)" d="M363.864 2538.63 Q360.253 2538.63 358.424 2542.2 Q356.618 2545.74 356.618 2552.87 Q356.618 2559.98 358.424 2563.54 Q360.253 2567.08 363.864 2567.08 Q367.498 2567.08 369.304 2563.54 Q371.132 2559.98 371.132 2552.87 Q371.132 2545.74 369.304 2542.2 Q367.498 2538.63 363.864 2538.63 M363.864 2534.93 Q369.674 2534.93 372.729 2539.54 Q375.808 2544.12 375.808 2552.87 Q375.808 2561.6 372.729 2566.2 Q369.674 2570.79 363.864 2570.79 Q358.054 2570.79 354.975 2566.2 Q351.919 2561.6 351.919 2552.87 Q351.919 2544.12 354.975 2539.54 Q358.054 2534.93 363.864 2534.93 Z" fill="#000000" fill-rule="nonzero" fill-opacity="1" /><path clip-path="url(#clip330)" d="M384.026 2564.24 L388.91 2564.24 L388.91 2570.12 L384.026 2570.12 L384.026 2564.24 Z" fill="#000000" fill-rule="nonzero" fill-opacity="1" /><path clip-path="url(#clip330)" d="M409.095 2538.63 Q405.484 2538.63 403.655 2542.2 Q401.85 2545.74 401.85 2552.87 Q401.85 2559.98 403.655 2563.54 Q405.484 2567.08 409.095 2567.08 Q412.729 2567.08 414.535 2563.54 Q416.364 2559.98 416.364 2552.87 Q416.364 2545.74 414.535 2542.2 Q412.729 2538.63 409.095 2538.63 M409.095 2534.93 Q414.905 2534.93 417.961 2539.54 Q421.039 2544.12 421.039 2552.87 Q421.039 2561.6 417.961 2566.2 Q414.905 2570.79 409.095 2570.79 Q403.285 2570.79 400.206 2566.2 Q397.151 2561.6 397.151 2552.87 Q397.151 2544.12 400.206 2539.54 Q403.285 2534.93 409.095 2534.93 Z" fill="#000000" fill-rule="nonzero" fill-opacity="1" /><path clip-path="url(#clip330)" d="M1045.92 2538.63 Q1042.31 2538.63 1040.48 2542.2 Q1038.67 2545.74 1038.67 2552.87 Q1038.67 2559.98 1040.48 2563.54 Q1042.31 2567.08 1045.92 2567.08 Q1049.55 2567.08 1051.36 2563.54 Q1053.19 2559.98 1053.19 2552.87 Q1053.19 2545.74 1051.36 2542.2 Q1049.55 2538.63 1045.92 2538.63 M1045.92 2534.93 Q1051.73 2534.93 1054.78 2539.54 Q1057.86 2544.12 1057.86 2552.87 Q1057.86 2561.6 1054.78 2566.2 Q1051.73 2570.79 1045.92 2570.79 Q1040.11 2570.79 1037.03 2566.2 Q1033.97 2561.6 1033.97 2552.87 Q1033.97 2544.12 1037.03 2539.54 Q1040.11 2534.93 1045.92 2534.93 Z" fill="#000000" fill-rule="nonzero" fill-opacity="1" /><path clip-path="url(#clip330)" d="M1066.08 2564.24 L1070.96 2564.24 L1070.96 2570.12 L1066.08 2570.12 L1066.08 2564.24 Z" fill="#000000" fill-rule="nonzero" fill-opacity="1" /><path clip-path="url(#clip330)" d="M1085.18 2566.18 L1101.5 2566.18 L1101.5 2570.12 L1079.55 2570.12 L1079.55 2566.18 Q1082.21 2563.43 1086.8 2558.8 Q1091.4 2554.14 1092.58 2552.8 Q1094.83 2550.28 1095.71 2548.54 Q1096.61 2546.78 1096.61 2545.09 Q1096.61 2542.34 1094.67 2540.6 Q1092.75 2538.87 1089.64 2538.87 Q1087.45 2538.87 1084.99 2539.63 Q1082.56 2540.39 1079.78 2541.94 L1079.78 2537.22 Q1082.61 2536.09 1085.06 2535.51 Q1087.51 2534.93 1089.55 2534.93 Q1094.92 2534.93 1098.12 2537.62 Q1101.31 2540.3 1101.31 2544.79 Q1101.31 2546.92 1100.5 2548.84 Q1099.71 2550.74 1097.61 2553.33 Q1097.03 2554 1093.93 2557.22 Q1090.82 2560.42 1085.18 2566.18 Z" fill="#000000" fill-rule="nonzero" fill-opacity="1" /><path clip-path="url(#clip330)" d="M1726.13 2538.63 Q1722.52 2538.63 1720.69 2542.2 Q1718.89 2545.74 1718.89 2552.87 Q1718.89 2559.98 1720.69 2563.54 Q1722.52 2567.08 1726.13 2567.08 Q1729.77 2567.08 1731.57 2563.54 Q1733.4 2559.98 1733.4 2552.87 Q1733.4 2545.74 1731.57 2542.2 Q1729.77 2538.63 1726.13 2538.63 M1726.13 2534.93 Q1731.94 2534.93 1735 2539.54 Q1738.08 2544.12 1738.08 2552.87 Q1738.08 2561.6 1735 2566.2 Q1731.94 2570.79 1726.13 2570.79 Q1720.32 2570.79 1717.24 2566.2 Q1714.19 2561.6 1714.19 2552.87 Q1714.19 2544.12 1717.24 2539.54 Q1720.32 2534.93 1726.13 2534.93 Z" fill="#000000" fill-rule="nonzero" fill-opacity="1" /><path clip-path="url(#clip330)" d="M1746.29 2564.24 L1751.18 2564.24 L1751.18 2570.12 L1746.29 2570.12 L1746.29 2564.24 Z" fill="#000000" fill-rule="nonzero" fill-opacity="1" /><path clip-path="url(#clip330)" d="M1774.21 2539.63 L1762.4 2558.08 L1774.21 2558.08 L1774.21 2539.63 M1772.98 2535.56 L1778.86 2535.56 L1778.86 2558.08 L1783.79 2558.08 L1783.79 2561.97 L1778.86 2561.97 L1778.86 2570.12 L1774.21 2570.12 L1774.21 2561.97 L1758.61 2561.97 L1758.61 2557.45 L1772.98 2535.56 Z" fill="#000000" fill-rule="nonzero" fill-opacity="1" /><path clip-path="url(#clip330)" d="M2407.55 2538.63 Q2403.94 2538.63 2402.11 2542.2 Q2400.3 2545.74 2400.3 2552.87 Q2400.3 2559.98 2402.11 2563.54 Q2403.94 2567.08 2407.55 2567.08 Q2411.18 2567.08 2412.99 2563.54 Q2414.82 2559.98 2414.82 2552.87 Q2414.82 2545.74 2412.99 2542.2 Q2411.18 2538.63 2407.55 2538.63 M2407.55 2534.93 Q2413.36 2534.93 2416.41 2539.54 Q2419.49 2544.12 2419.49 2552.87 Q2419.49 2561.6 2416.41 2566.2 Q2413.36 2570.79 2407.55 2570.79 Q2401.74 2570.79 2398.66 2566.2 Q2395.6 2561.6 2395.6 2552.87 Q2395.6 2544.12 2398.66 2539.54 Q2401.74 2534.93 2407.55 2534.93 Z" fill="#000000" fill-rule="nonzero" fill-opacity="1" /><path clip-path="url(#clip330)" d="M2427.71 2564.24 L2432.59 2564.24 L2432.59 2570.12 L2427.71 2570.12 L2427.71 2564.24 Z" fill="#000000" fill-rule="nonzero" fill-opacity="1" /><path clip-path="url(#clip330)" d="M2453.36 2550.97 Q2450.21 2550.97 2448.36 2553.13 Q2446.53 2555.28 2446.53 2559.03 Q2446.53 2562.75 2448.36 2564.93 Q2450.21 2567.08 2453.36 2567.08 Q2456.51 2567.08 2458.34 2564.93 Q2460.19 2562.75 2460.19 2559.03 Q2460.19 2555.28 2458.34 2553.13 Q2456.51 2550.97 2453.36 2550.97 M2462.64 2536.32 L2462.64 2540.58 Q2460.88 2539.75 2459.08 2539.31 Q2457.29 2538.87 2455.53 2538.87 Q2450.9 2538.87 2448.45 2541.99 Q2446.02 2545.12 2445.67 2551.44 Q2447.04 2549.42 2449.1 2548.36 Q2451.16 2547.27 2453.64 2547.27 Q2458.84 2547.27 2461.85 2550.44 Q2464.89 2553.59 2464.89 2559.03 Q2464.89 2564.35 2461.74 2567.57 Q2458.59 2570.79 2453.36 2570.79 Q2447.36 2570.79 2444.19 2566.2 Q2441.02 2561.6 2441.02 2552.87 Q2441.02 2544.68 2444.91 2539.82 Q2448.8 2534.93 2455.35 2534.93 Q2457.11 2534.93 2458.89 2535.28 Q2460.7 2535.63 2462.64 2536.32 Z" fill="#000000" fill-rule="nonzero" fill-opacity="1" /><path clip-path="url(#clip330)" d="M3088.93 2538.63 Q3085.32 2538.63 3083.49 2542.2 Q3081.69 2545.74 3081.69 2552.87 Q3081.69 2559.98 3083.49 2563.54 Q3085.32 2567.08 3088.93 2567.08 Q3092.57 2567.08 3094.37 2563.54 Q3096.2 2559.98 3096.2 2552.87 Q3096.2 2545.74 3094.37 2542.2 Q3092.57 2538.63 3088.93 2538.63 M3088.93 2534.93 Q3094.74 2534.93 3097.8 2539.54 Q3100.88 2544.12 3100.88 2552.87 Q3100.88 2561.6 3097.8 2566.2 Q3094.74 2570.79 3088.93 2570.79 Q3083.12 2570.79 3080.04 2566.2 Q3076.99 2561.6 3076.99 2552.87 Q3076.99 2544.12 3080.04 2539.54 Q3083.12 2534.93 3088.93 2534.93 Z" fill="#000000" fill-rule="nonzero" fill-opacity="1" /><path clip-path="url(#clip330)" d="M3109.09 2564.24 L3113.98 2564.24 L3113.98 2570.12 L3109.09 2570.12 L3109.09 2564.24 Z" fill="#000000" fill-rule="nonzero" fill-opacity="1" /><path clip-path="url(#clip330)" d="M3134.16 2553.7 Q3130.83 2553.7 3128.91 2555.49 Q3127.01 2557.27 3127.01 2560.39 Q3127.01 2563.52 3128.91 2565.3 Q3130.83 2567.08 3134.16 2567.08 Q3137.5 2567.08 3139.42 2565.3 Q3141.34 2563.5 3141.34 2560.39 Q3141.34 2557.27 3139.42 2555.49 Q3137.52 2553.7 3134.16 2553.7 M3129.49 2551.71 Q3126.48 2550.97 3124.79 2548.91 Q3123.12 2546.85 3123.12 2543.89 Q3123.12 2539.75 3126.06 2537.34 Q3129.02 2534.93 3134.16 2534.93 Q3139.32 2534.93 3142.26 2537.34 Q3145.2 2539.75 3145.2 2543.89 Q3145.2 2546.85 3143.51 2548.91 Q3141.85 2550.97 3138.86 2551.71 Q3142.24 2552.5 3144.12 2554.79 Q3146.01 2557.08 3146.01 2560.39 Q3146.01 2565.42 3142.94 2568.1 Q3139.88 2570.79 3134.16 2570.79 Q3128.44 2570.79 3125.37 2568.1 Q3122.31 2565.42 3122.31 2560.39 Q3122.31 2557.08 3124.21 2554.79 Q3126.11 2552.5 3129.49 2551.71 M3127.77 2544.33 Q3127.77 2547.01 3129.44 2548.52 Q3131.13 2550.02 3134.16 2550.02 Q3137.17 2550.02 3138.86 2548.52 Q3140.57 2547.01 3140.57 2544.33 Q3140.57 2541.64 3138.86 2540.14 Q3137.17 2538.63 3134.16 2538.63 Q3131.13 2538.63 3129.44 2540.14 Q3127.77 2541.64 3127.77 2544.33 Z" fill="#000000" fill-rule="nonzero" fill-opacity="1" /><path clip-path="url(#clip330)" d="M3759.91 2566.18 L3767.55 2566.18 L3767.55 2539.82 L3759.24 2541.48 L3759.24 2537.22 L3767.5 2535.56 L3772.18 2535.56 L3772.18 2566.18 L3779.82 2566.18 L3779.82 2570.12 L3759.91 2570.12 L3759.91 2566.18 Z" fill="#000000" fill-rule="nonzero" fill-opacity="1" /><path clip-path="url(#clip330)" d="M3789.26 2564.24 L3794.14 2564.24 L3794.14 2570.12 L3789.26 2570.12 L3789.26 2564.24 Z" fill="#000000" fill-rule="nonzero" fill-opacity="1" /><path clip-path="url(#clip330)" d="M3814.33 2538.63 Q3810.72 2538.63 3808.89 2542.2 Q3807.08 2545.74 3807.08 2552.87 Q3807.08 2559.98 3808.89 2563.54 Q3810.72 2567.08 3814.33 2567.08 Q3817.96 2567.08 3819.77 2563.54 Q3821.6 2559.98 3821.6 2552.87 Q3821.6 2545.74 3819.77 2542.2 Q3817.96 2538.63 3814.33 2538.63 M3814.33 2534.93 Q3820.14 2534.93 3823.2 2539.54 Q3826.27 2544.12 3826.27 2552.87 Q3826.27 2561.6 3823.2 2566.2 Q3820.14 2570.79 3814.33 2570.79 Q3808.52 2570.79 3805.44 2566.2 Q3802.39 2561.6 3802.39 2552.87 Q3802.39 2544.12 3805.44 2539.54 Q3808.52 2534.93 3814.33 2534.93 Z" fill="#000000" fill-rule="nonzero" fill-opacity="1" /><path clip-path="url(#clip330)" d="M2088.68 2616.89 L2088.68 2627.01 L2100.74 2627.01 L2100.74 2631.56 L2088.68 2631.56 L2088.68 2650.92 Q2088.68 2655.28 2089.86 2656.52 Q2091.07 2657.76 2094.73 2657.76 L2100.74 2657.76 L2100.74 2662.66 L2094.73 2662.66 Q2087.95 2662.66 2085.37 2660.15 Q2082.79 2657.6 2082.79 2650.92 L2082.79 2631.56 L2078.49 2631.56 L2078.49 2627.01 L2082.79 2627.01 L2082.79 2616.89 L2088.68 2616.89 Z" fill="#000000" fill-rule="nonzero" fill-opacity="1" /><polyline clip-path="url(#clip330)" style="stroke:#000000; stroke-linecap:round; stroke-linejoin:round; stroke-width:4; stroke-opacity:1; fill:none" points="386.479,2496.2 386.479,126.496 "/>
<polyline clip-path="url(#clip330)" style="stroke:#000000; stroke-linecap:round; stroke-linejoin:round; stroke-width:4; stroke-opacity:1; fill:none" points="386.479,2354.62 405.377,2354.62 "/>
<polyline clip-path="url(#clip330)" style="stroke:#000000; stroke-linecap:round; stroke-linejoin:round; stroke-width:4; stroke-opacity:1; fill:none" points="386.479,1814.36 405.377,1814.36 "/>
<polyline clip-path="url(#clip330)" style="stroke:#000000; stroke-linecap:round; stroke-linejoin:round; stroke-width:4; stroke-opacity:1; fill:none" points="386.479,1274.09 405.377,1274.09 "/>
<polyline clip-path="url(#clip330)" style="stroke:#000000; stroke-linecap:round; stroke-linejoin:round; stroke-width:4; stroke-opacity:1; fill:none" points="386.479,733.828 405.377,733.828 "/>
<polyline clip-path="url(#clip330)" style="stroke:#000000; stroke-linecap:round; stroke-linejoin:round; stroke-width:4; stroke-opacity:1; fill:none" points="386.479,193.563 405.377,193.563 "/>
<path clip-path="url(#clip330)" d="M316.935 2340.42 Q313.324 2340.42 311.495 2343.99 Q309.69 2347.53 309.69 2354.66 Q309.69 2361.76 311.495 2365.33 Q313.324 2368.87 316.935 2368.87 Q320.569 2368.87 322.375 2365.33 Q324.204 2361.76 324.204 2354.66 Q324.204 2347.53 322.375 2343.99 Q320.569 2340.42 316.935 2340.42 M316.935 2336.72 Q322.745 2336.72 325.801 2341.32 Q328.879 2345.91 328.879 2354.66 Q328.879 2363.38 325.801 2367.99 Q322.745 2372.57 316.935 2372.57 Q311.125 2372.57 308.046 2367.99 Q304.991 2363.38 304.991 2354.66 Q304.991 2345.91 308.046 2341.32 Q311.125 2336.72 316.935 2336.72 Z" fill="#000000" fill-rule="nonzero" fill-opacity="1" /><path clip-path="url(#clip330)" d="M113.054 1803.52 L131.411 1803.52 L131.411 1807.46 L117.337 1807.46 L117.337 1815.93 Q118.355 1815.58 119.374 1815.42 Q120.392 1815.24 121.411 1815.24 Q127.198 1815.24 130.578 1818.41 Q133.957 1821.58 133.957 1827 Q133.957 1832.58 130.485 1835.68 Q127.013 1838.76 120.693 1838.76 Q118.517 1838.76 116.249 1838.39 Q114.004 1838.02 111.596 1837.27 L111.596 1832.58 Q113.679 1833.71 115.902 1834.27 Q118.124 1834.82 120.601 1834.82 Q124.605 1834.82 126.943 1832.71 Q129.281 1830.61 129.281 1827 Q129.281 1823.39 126.943 1821.28 Q124.605 1819.17 120.601 1819.17 Q118.726 1819.17 116.851 1819.59 Q114.999 1820.01 113.054 1820.89 L113.054 1803.52 Z" fill="#000000" fill-rule="nonzero" fill-opacity="1" /><path clip-path="url(#clip330)" d="M143.17 1832.21 L148.054 1832.21 L148.054 1838.08 L143.17 1838.08 L143.17 1832.21 Z" fill="#000000" fill-rule="nonzero" fill-opacity="1" /><path clip-path="url(#clip330)" d="M168.239 1806.6 Q164.628 1806.6 162.8 1810.17 Q160.994 1813.71 160.994 1820.84 Q160.994 1827.95 162.8 1831.51 Q164.628 1835.05 168.239 1835.05 Q171.874 1835.05 173.679 1831.51 Q175.508 1827.95 175.508 1820.84 Q175.508 1813.71 173.679 1810.17 Q171.874 1806.6 168.239 1806.6 M168.239 1802.9 Q174.05 1802.9 177.105 1807.51 Q180.184 1812.09 180.184 1820.84 Q180.184 1829.57 177.105 1834.17 Q174.05 1838.76 168.239 1838.76 Q162.429 1838.76 159.351 1834.17 Q156.295 1829.57 156.295 1820.84 Q156.295 1812.09 159.351 1807.51 Q162.429 1802.9 168.239 1802.9 Z" fill="#000000" fill-rule="nonzero" fill-opacity="1" /><path clip-path="url(#clip330)" d="M198.401 1806.6 Q194.79 1806.6 192.961 1810.17 Q191.156 1813.71 191.156 1820.84 Q191.156 1827.95 192.961 1831.51 Q194.79 1835.05 198.401 1835.05 Q202.035 1835.05 203.841 1831.51 Q205.67 1827.95 205.67 1820.84 Q205.67 1813.71 203.841 1810.17 Q202.035 1806.6 198.401 1806.6 M198.401 1802.9 Q204.211 1802.9 207.267 1807.51 Q210.346 1812.09 210.346 1820.84 Q210.346 1829.57 207.267 1834.17 Q204.211 1838.76 198.401 1838.76 Q192.591 1838.76 189.512 1834.17 Q186.457 1829.57 186.457 1820.84 Q186.457 1812.09 189.512 1807.51 Q192.591 1802.9 198.401 1802.9 Z" fill="#000000" fill-rule="nonzero" fill-opacity="1" /><path clip-path="url(#clip330)" d="M246.734 1812.62 L236.156 1823.25 L246.734 1833.83 L243.98 1836.63 L233.355 1826 L222.73 1836.63 L219.998 1833.83 L230.554 1823.25 L219.998 1812.62 L222.73 1809.82 L233.355 1820.45 L243.98 1809.82 L246.734 1812.62 Z" fill="#000000" fill-rule="nonzero" fill-opacity="1" /><path clip-path="url(#clip330)" d="M259.095 1834.15 L266.734 1834.15 L266.734 1807.78 L258.424 1809.45 L258.424 1805.19 L266.688 1803.52 L271.364 1803.52 L271.364 1834.15 L279.003 1834.15 L279.003 1838.08 L259.095 1838.08 L259.095 1834.15 Z" fill="#000000" fill-rule="nonzero" fill-opacity="1" /><path clip-path="url(#clip330)" d="M298.447 1806.6 Q294.836 1806.6 293.007 1810.17 Q291.202 1813.71 291.202 1820.84 Q291.202 1827.95 293.007 1831.51 Q294.836 1835.05 298.447 1835.05 Q302.081 1835.05 303.887 1831.51 Q305.715 1827.95 305.715 1820.84 Q305.715 1813.71 303.887 1810.17 Q302.081 1806.6 298.447 1806.6 M298.447 1802.9 Q304.257 1802.9 307.313 1807.51 Q310.391 1812.09 310.391 1820.84 Q310.391 1829.57 307.313 1834.17 Q304.257 1838.76 298.447 1838.76 Q292.637 1838.76 289.558 1834.17 Q286.503 1829.57 286.503 1820.84 Q286.503 1812.09 289.558 1807.51 Q292.637 1802.9 298.447 1802.9 Z" fill="#000000" fill-rule="nonzero" fill-opacity="1" /><path clip-path="url(#clip330)" d="M323.087 1795.53 Q325.814 1796.12 327.337 1797.96 Q328.879 1799.8 328.879 1802.51 Q328.879 1806.67 326.021 1808.94 Q323.162 1811.22 317.896 1811.22 Q316.128 1811.22 314.247 1810.86 Q312.385 1810.52 310.391 1809.83 L310.391 1806.16 Q311.971 1807.08 313.852 1807.55 Q315.733 1808.02 317.783 1808.02 Q321.356 1808.02 323.218 1806.61 Q325.099 1805.2 325.099 1802.51 Q325.099 1800.03 323.35 1798.64 Q321.62 1797.23 318.516 1797.23 L315.244 1797.23 L315.244 1794.1 L318.667 1794.1 Q321.469 1794.1 322.955 1792.99 Q324.441 1791.87 324.441 1789.76 Q324.441 1787.6 322.899 1786.45 Q321.375 1785.28 318.516 1785.28 Q316.955 1785.28 315.169 1785.62 Q313.382 1785.96 311.238 1786.68 L311.238 1783.29 Q313.401 1782.69 315.281 1782.39 Q317.181 1782.09 318.855 1782.09 Q323.181 1782.09 325.701 1784.06 Q328.221 1786.02 328.221 1789.37 Q328.221 1791.7 326.886 1793.31 Q325.55 1794.91 323.087 1795.53 Z" fill="#000000" fill-rule="nonzero" fill-opacity="1" /><path clip-path="url(#clip330)" d="M111.844 1293.88 L119.482 1293.88 L119.482 1267.52 L111.172 1269.19 L111.172 1264.93 L119.436 1263.26 L124.112 1263.26 L124.112 1293.88 L131.751 1293.88 L131.751 1297.82 L111.844 1297.82 L111.844 1293.88 Z" fill="#000000" fill-rule="nonzero" fill-opacity="1" /><path clip-path="url(#clip330)" d="M141.195 1291.94 L146.079 1291.94 L146.079 1297.82 L141.195 1297.82 L141.195 1291.94 Z" fill="#000000" fill-rule="nonzero" fill-opacity="1" /><path clip-path="url(#clip330)" d="M166.265 1266.34 Q162.653 1266.34 160.825 1269.9 Q159.019 1273.45 159.019 1280.57 Q159.019 1287.68 160.825 1291.25 Q162.653 1294.79 166.265 1294.79 Q169.899 1294.79 171.704 1291.25 Q173.533 1287.68 173.533 1280.57 Q173.533 1273.45 171.704 1269.9 Q169.899 1266.34 166.265 1266.34 M166.265 1262.64 Q172.075 1262.64 175.13 1267.24 Q178.209 1271.82 178.209 1280.57 Q178.209 1289.3 175.13 1293.91 Q172.075 1298.49 166.265 1298.49 Q160.454 1298.49 157.376 1293.91 Q154.32 1289.3 154.32 1280.57 Q154.32 1271.82 157.376 1267.24 Q160.454 1262.64 166.265 1262.64 Z" fill="#000000" fill-rule="nonzero" fill-opacity="1" /><path clip-path="url(#clip330)" d="M196.426 1266.34 Q192.815 1266.34 190.987 1269.9 Q189.181 1273.45 189.181 1280.57 Q189.181 1287.68 190.987 1291.25 Q192.815 1294.79 196.426 1294.79 Q200.061 1294.79 201.866 1291.25 Q203.695 1287.68 203.695 1280.57 Q203.695 1273.45 201.866 1269.9 Q200.061 1266.34 196.426 1266.34 M196.426 1262.64 Q202.237 1262.64 205.292 1267.24 Q208.371 1271.82 208.371 1280.57 Q208.371 1289.3 205.292 1293.91 Q202.237 1298.49 196.426 1298.49 Q190.616 1298.49 187.538 1293.91 Q184.482 1289.3 184.482 1280.57 Q184.482 1271.82 187.538 1267.24 Q190.616 1262.64 196.426 1262.64 Z" fill="#000000" fill-rule="nonzero" fill-opacity="1" /><path clip-path="url(#clip330)" d="M244.76 1272.36 L234.181 1282.98 L244.76 1293.56 L242.005 1296.36 L231.38 1285.74 L220.755 1296.36 L218.024 1293.56 L228.579 1282.98 L218.024 1272.36 L220.755 1269.56 L231.38 1280.18 L242.005 1269.56 L244.76 1272.36 Z" fill="#000000" fill-rule="nonzero" fill-opacity="1" /><path clip-path="url(#clip330)" d="M257.121 1293.88 L264.759 1293.88 L264.759 1267.52 L256.449 1269.19 L256.449 1264.93 L264.713 1263.26 L269.389 1263.26 L269.389 1293.88 L277.028 1293.88 L277.028 1297.82 L257.121 1297.82 L257.121 1293.88 Z" fill="#000000" fill-rule="nonzero" fill-opacity="1" /><path clip-path="url(#clip330)" d="M296.472 1266.34 Q292.861 1266.34 291.032 1269.9 Q289.227 1273.45 289.227 1280.57 Q289.227 1287.68 291.032 1291.25 Q292.861 1294.79 296.472 1294.79 Q300.106 1294.79 301.912 1291.25 Q303.741 1287.68 303.741 1280.57 Q303.741 1273.45 301.912 1269.9 Q300.106 1266.34 296.472 1266.34 M296.472 1262.64 Q302.282 1262.64 305.338 1267.24 Q308.417 1271.82 308.417 1280.57 Q308.417 1289.3 305.338 1293.91 Q302.282 1298.49 296.472 1298.49 Q290.662 1298.49 287.583 1293.91 Q284.528 1289.3 284.528 1280.57 Q284.528 1271.82 287.583 1267.24 Q290.662 1262.64 296.472 1262.64 Z" fill="#000000" fill-rule="nonzero" fill-opacity="1" /><path clip-path="url(#clip330)" d="M321.093 1245.64 L311.501 1260.63 L321.093 1260.63 L321.093 1245.64 M320.096 1242.33 L324.873 1242.33 L324.873 1260.63 L328.879 1260.63 L328.879 1263.79 L324.873 1263.79 L324.873 1270.41 L321.093 1270.41 L321.093 1263.79 L308.417 1263.79 L308.417 1260.12 L320.096 1242.33 Z" fill="#000000" fill-rule="nonzero" fill-opacity="1" /><path clip-path="url(#clip330)" d="M111.844 753.62 L119.482 753.62 L119.482 727.255 L111.172 728.921 L111.172 724.662 L119.436 722.995 L124.112 722.995 L124.112 753.62 L131.751 753.62 L131.751 757.555 L111.844 757.555 L111.844 753.62 Z" fill="#000000" fill-rule="nonzero" fill-opacity="1" /><path clip-path="url(#clip330)" d="M141.195 751.676 L146.079 751.676 L146.079 757.555 L141.195 757.555 L141.195 751.676 Z" fill="#000000" fill-rule="nonzero" fill-opacity="1" /><path clip-path="url(#clip330)" d="M156.311 722.995 L174.667 722.995 L174.667 726.931 L160.593 726.931 L160.593 735.403 Q161.612 735.055 162.63 734.893 Q163.649 734.708 164.667 734.708 Q170.454 734.708 173.834 737.88 Q177.214 741.051 177.214 746.467 Q177.214 752.046 173.741 755.148 Q170.269 758.227 163.95 758.227 Q161.774 758.227 159.505 757.856 Q157.26 757.486 154.853 756.745 L154.853 752.046 Q156.936 753.18 159.158 753.736 Q161.38 754.291 163.857 754.291 Q167.862 754.291 170.2 752.185 Q172.538 750.079 172.538 746.467 Q172.538 742.856 170.2 740.75 Q167.862 738.643 163.857 738.643 Q161.982 738.643 160.107 739.06 Q158.255 739.477 156.311 740.356 L156.311 722.995 Z" fill="#000000" fill-rule="nonzero" fill-opacity="1" /><path clip-path="url(#clip330)" d="M196.426 726.074 Q192.815 726.074 190.987 729.639 Q189.181 733.18 189.181 740.31 Q189.181 747.417 190.987 750.981 Q192.815 754.523 196.426 754.523 Q200.061 754.523 201.866 750.981 Q203.695 747.417 203.695 740.31 Q203.695 733.18 201.866 729.639 Q200.061 726.074 196.426 726.074 M196.426 722.37 Q202.237 722.37 205.292 726.977 Q208.371 731.56 208.371 740.31 Q208.371 749.037 205.292 753.643 Q202.237 758.227 196.426 758.227 Q190.616 758.227 187.538 753.643 Q184.482 749.037 184.482 740.31 Q184.482 731.56 187.538 726.977 Q190.616 722.37 196.426 722.37 Z" fill="#000000" fill-rule="nonzero" fill-opacity="1" /><path clip-path="url(#clip330)" d="M244.76 732.093 L234.181 742.717 L244.76 753.296 L242.005 756.097 L231.38 745.472 L220.755 756.097 L218.024 753.296 L228.579 742.717 L218.024 732.093 L220.755 729.292 L231.38 739.917 L242.005 729.292 L244.76 732.093 Z" fill="#000000" fill-rule="nonzero" fill-opacity="1" /><path clip-path="url(#clip330)" d="M257.121 753.62 L264.759 753.62 L264.759 727.255 L256.449 728.921 L256.449 724.662 L264.713 722.995 L269.389 722.995 L269.389 753.62 L277.028 753.62 L277.028 757.555 L257.121 757.555 L257.121 753.62 Z" fill="#000000" fill-rule="nonzero" fill-opacity="1" /><path clip-path="url(#clip330)" d="M296.472 726.074 Q292.861 726.074 291.032 729.639 Q289.227 733.18 289.227 740.31 Q289.227 747.417 291.032 750.981 Q292.861 754.523 296.472 754.523 Q300.106 754.523 301.912 750.981 Q303.741 747.417 303.741 740.31 Q303.741 733.18 301.912 729.639 Q300.106 726.074 296.472 726.074 M296.472 722.37 Q302.282 722.37 305.338 726.977 Q308.417 731.56 308.417 740.31 Q308.417 749.037 305.338 753.643 Q302.282 758.227 296.472 758.227 Q290.662 758.227 287.583 753.643 Q284.528 749.037 284.528 740.31 Q284.528 731.56 287.583 726.977 Q290.662 722.37 296.472 722.37 Z" fill="#000000" fill-rule="nonzero" fill-opacity="1" /><path clip-path="url(#clip330)" d="M321.093 705.375 L311.501 720.365 L321.093 720.365 L321.093 705.375 M320.096 702.065 L324.873 702.065 L324.873 720.365 L328.879 720.365 L328.879 723.525 L324.873 723.525 L324.873 730.145 L321.093 730.145 L321.093 723.525 L308.417 723.525 L308.417 719.857 L320.096 702.065 Z" fill="#000000" fill-rule="nonzero" fill-opacity="1" /><path clip-path="url(#clip330)" d="M115.061 213.356 L131.38 213.356 L131.38 217.291 L109.436 217.291 L109.436 213.356 Q112.098 210.601 116.681 205.971 Q121.288 201.319 122.468 199.976 Q124.714 197.453 125.593 195.717 Q126.496 193.957 126.496 192.268 Q126.496 189.513 124.552 187.777 Q122.631 186.041 119.529 186.041 Q117.33 186.041 114.876 186.805 Q112.445 187.569 109.668 189.12 L109.668 184.397 Q112.492 183.263 114.945 182.684 Q117.399 182.106 119.436 182.106 Q124.806 182.106 128.001 184.791 Q131.195 187.476 131.195 191.967 Q131.195 194.096 130.385 196.018 Q129.598 197.916 127.492 200.508 Q126.913 201.18 123.811 204.397 Q120.709 207.592 115.061 213.356 Z" fill="#000000" fill-rule="nonzero" fill-opacity="1" /><path clip-path="url(#clip330)" d="M141.195 211.411 L146.079 211.411 L146.079 217.291 L141.195 217.291 L141.195 211.411 Z" fill="#000000" fill-rule="nonzero" fill-opacity="1" /><path clip-path="url(#clip330)" d="M166.265 185.809 Q162.653 185.809 160.825 189.374 Q159.019 192.916 159.019 200.045 Q159.019 207.152 160.825 210.717 Q162.653 214.258 166.265 214.258 Q169.899 214.258 171.704 210.717 Q173.533 207.152 173.533 200.045 Q173.533 192.916 171.704 189.374 Q169.899 185.809 166.265 185.809 M166.265 182.106 Q172.075 182.106 175.13 186.712 Q178.209 191.295 178.209 200.045 Q178.209 208.772 175.13 213.379 Q172.075 217.962 166.265 217.962 Q160.454 217.962 157.376 213.379 Q154.32 208.772 154.32 200.045 Q154.32 191.295 157.376 186.712 Q160.454 182.106 166.265 182.106 Z" fill="#000000" fill-rule="nonzero" fill-opacity="1" /><path clip-path="url(#clip330)" d="M196.426 185.809 Q192.815 185.809 190.987 189.374 Q189.181 192.916 189.181 200.045 Q189.181 207.152 190.987 210.717 Q192.815 214.258 196.426 214.258 Q200.061 214.258 201.866 210.717 Q203.695 207.152 203.695 200.045 Q203.695 192.916 201.866 189.374 Q200.061 185.809 196.426 185.809 M196.426 182.106 Q202.237 182.106 205.292 186.712 Q208.371 191.295 208.371 200.045 Q208.371 208.772 205.292 213.379 Q202.237 217.962 196.426 217.962 Q190.616 217.962 187.538 213.379 Q184.482 208.772 184.482 200.045 Q184.482 191.295 187.538 186.712 Q190.616 182.106 196.426 182.106 Z" fill="#000000" fill-rule="nonzero" fill-opacity="1" /><path clip-path="url(#clip330)" d="M244.76 191.828 L234.181 202.453 L244.76 213.031 L242.005 215.832 L231.38 205.207 L220.755 215.832 L218.024 213.031 L228.579 202.453 L218.024 191.828 L220.755 189.027 L231.38 199.652 L242.005 189.027 L244.76 191.828 Z" fill="#000000" fill-rule="nonzero" fill-opacity="1" /><path clip-path="url(#clip330)" d="M257.121 213.356 L264.759 213.356 L264.759 186.99 L256.449 188.657 L256.449 184.397 L264.713 182.731 L269.389 182.731 L269.389 213.356 L277.028 213.356 L277.028 217.291 L257.121 217.291 L257.121 213.356 Z" fill="#000000" fill-rule="nonzero" fill-opacity="1" /><path clip-path="url(#clip330)" d="M296.472 185.809 Q292.861 185.809 291.032 189.374 Q289.227 192.916 289.227 200.045 Q289.227 207.152 291.032 210.717 Q292.861 214.258 296.472 214.258 Q300.106 214.258 301.912 210.717 Q303.741 207.152 303.741 200.045 Q303.741 192.916 301.912 189.374 Q300.106 185.809 296.472 185.809 M296.472 182.106 Q302.282 182.106 305.338 186.712 Q308.417 191.295 308.417 200.045 Q308.417 208.772 305.338 213.379 Q302.282 217.962 296.472 217.962 Q290.662 217.962 287.583 213.379 Q284.528 208.772 284.528 200.045 Q284.528 191.295 287.583 186.712 Q290.662 182.106 296.472 182.106 Z" fill="#000000" fill-rule="nonzero" fill-opacity="1" /><path clip-path="url(#clip330)" d="M321.093 165.11 L311.501 180.1 L321.093 180.1 L321.093 165.11 M320.096 161.8 L324.873 161.8 L324.873 180.1 L328.879 180.1 L328.879 183.26 L324.873 183.26 L324.873 189.88 L321.093 189.88 L321.093 183.26 L308.417 183.26 L308.417 179.592 L320.096 161.8 Z" fill="#000000" fill-rule="nonzero" fill-opacity="1" /><path clip-path="url(#clip330)" d="M37.5802 1618.32 L18.1011 1618.32 L18.1011 1631.59 Q18.1011 1637.51 14.409 1641.04 Q10.685 1644.57 3.10986 1644.57 L-9.93984 1644.57 L-9.93984 1638.18 L2.6006 1638.18 Q7.66134 1638.18 10.1758 1636.2 Q12.6902 1634.23 12.6902 1630.28 L12.6902 1618.32 L-9.93984 1618.32 L-9.93984 1611.86 L37.5802 1611.86 L37.5802 1618.32 Z" fill="#000000" fill-rule="nonzero" fill-opacity="1" /><path clip-path="url(#clip330)" d="M1.9322 1569.01 L37.5802 1569.01 L37.5802 1574.84 L8.96631 1574.84 L37.5802 1592.03 L37.5802 1599.54 L1.9322 1599.54 L1.9322 1593.71 L30.4824 1593.71 L1.9322 1576.56 L1.9322 1569.01 Z" fill="#000000" fill-rule="nonzero" fill-opacity="1" /><path clip-path="url(#clip330)" d="M3.30083 1531.3 L8.77533 1531.3 Q7.40671 1533.78 6.73831 1536.29 Q6.03808 1538.78 6.03808 1541.32 Q6.03808 1547.02 9.66653 1550.17 Q13.2632 1553.32 19.788 1553.32 Q26.3129 1553.32 29.9413 1550.17 Q33.5379 1547.02 33.5379 1541.32 Q33.5379 1538.78 32.8695 1536.29 Q32.1693 1533.78 30.8007 1531.3 L36.2115 1531.3 Q37.3574 1533.75 37.9303 1536.39 Q38.5032 1539 38.5032 1541.96 Q38.5032 1550.01 33.4424 1554.75 Q28.3817 1559.5 19.788 1559.5 Q11.067 1559.5 6.06991 1554.72 Q1.07283 1549.92 1.07283 1541.58 Q1.07283 1538.87 1.64574 1536.29 Q2.18683 1533.72 3.30083 1531.3 Z" fill="#000000" fill-rule="nonzero" fill-opacity="1" /><path clip-path="url(#clip330)" d="M37.5802 1524.84 L32.7104 1524.84 Q31.8192 1519.04 27.8088 1517.26 Q22.1751 1515.1 7.75682 1515.1 L1.9322 1515.1 L1.9322 1491 L37.5802 1491 L37.5802 1496.86 L6.61099 1496.86 L6.61099 1509.24 L10.144 1509.24 Q23.8939 1509.24 30.0686 1512.04 Q36.6571 1515.03 37.5802 1524.84 Z" fill="#000000" fill-rule="nonzero" fill-opacity="1" /><path clip-path="url(#clip330)" d="M18.2921 1448.96 L21.1566 1448.96 L21.1566 1475.88 Q27.2041 1475.5 30.3869 1472.26 Q33.5379 1468.98 33.5379 1463.15 Q33.5379 1459.78 32.7104 1456.63 Q31.8829 1453.44 30.2278 1450.33 L35.7659 1450.33 Q37.1027 1453.48 37.803 1456.79 Q38.5032 1460.1 38.5032 1463.5 Q38.5032 1472.03 33.5379 1477.03 Q28.5727 1481.99 20.1063 1481.99 Q11.3534 1481.99 6.22905 1477.28 Q1.07283 1472.54 1.07283 1464.52 Q1.07283 1457.33 5.7198 1453.16 Q10.3349 1448.96 18.2921 1448.96 M16.5733 1454.81 Q11.7672 1454.88 8.90265 1457.52 Q6.03808 1460.13 6.03808 1464.46 Q6.03808 1469.36 8.80716 1472.32 Q11.5762 1475.25 16.6052 1475.69 L16.5733 1454.81 Z" fill="#000000" fill-rule="nonzero" fill-opacity="1" /><path clip-path="url(#clip330)" d="M1.9322 1439.57 L1.9322 1433.68 L16.4778 1433.68 L16.4778 1414.68 L1.9322 1414.68 L1.9322 1408.79 L37.5802 1408.79 L37.5802 1414.68 L21.1566 1414.68 L21.1566 1433.68 L37.5802 1433.68 L37.5802 1439.57 L1.9322 1439.57 Z" fill="#000000" fill-rule="nonzero" fill-opacity="1" /><path clip-path="url(#clip330)" d="M1.9322 1396.95 L1.9322 1391.06 L16.4778 1391.06 L16.4778 1372.06 L1.9322 1372.06 L1.9322 1366.17 L37.5802 1366.17 L37.5802 1372.06 L21.1566 1372.06 L21.1566 1391.06 L37.5802 1391.06 L37.5802 1396.95 L1.9322 1396.95 Z" fill="#000000" fill-rule="nonzero" fill-opacity="1" /><path clip-path="url(#clip330)" d="M6.03808 1340.29 Q6.03808 1345 9.73019 1347.74 Q13.3905 1350.48 19.788 1350.48 Q26.1855 1350.48 29.8777 1347.77 Q33.5379 1345.04 33.5379 1340.29 Q33.5379 1335.62 29.8458 1332.88 Q26.1537 1330.14 19.788 1330.14 Q13.4541 1330.14 9.76202 1332.88 Q6.03808 1335.62 6.03808 1340.29 M1.07283 1340.29 Q1.07283 1332.66 6.03808 1328.29 Q11.0033 1323.93 19.788 1323.93 Q28.5409 1323.93 33.5379 1328.29 Q38.5032 1332.66 38.5032 1340.29 Q38.5032 1347.96 33.5379 1352.33 Q28.5409 1356.65 19.788 1356.65 Q11.0033 1356.65 6.03808 1352.33 Q1.07283 1347.96 1.07283 1340.29 Z" fill="#000000" fill-rule="nonzero" fill-opacity="1" /><path clip-path="url(#clip330)" d="M3.30083 1288.57 L8.77533 1288.57 Q7.40671 1291.06 6.73831 1293.57 Q6.03808 1296.05 6.03808 1298.6 Q6.03808 1304.3 9.66653 1307.45 Q13.2632 1310.6 19.788 1310.6 Q26.3129 1310.6 29.9413 1307.45 Q33.5379 1304.3 33.5379 1298.6 Q33.5379 1296.05 32.8695 1293.57 Q32.1693 1291.06 30.8007 1288.57 L36.2115 1288.57 Q37.3574 1291.02 37.9303 1293.67 Q38.5032 1296.28 38.5032 1299.24 Q38.5032 1307.29 33.4424 1312.03 Q28.3817 1316.77 19.788 1316.77 Q11.067 1316.77 6.06991 1312 Q1.07283 1307.19 1.07283 1298.85 Q1.07283 1296.15 1.64574 1293.57 Q2.18683 1290.99 3.30083 1288.57 Z" fill="#000000" fill-rule="nonzero" fill-opacity="1" /><path clip-path="url(#clip330)" d="M1.9322 1282.62 L1.9322 1248.47 L6.61099 1248.47 L6.61099 1262.66 L37.5802 1262.66 L37.5802 1268.43 L6.61099 1268.43 L6.61099 1282.62 L1.9322 1282.62 Z" fill="#000000" fill-rule="nonzero" fill-opacity="1" /><path clip-path="url(#clip330)" d="M27.0131 1218.23 Q24.1485 1218.23 22.6526 1220.33 Q21.1566 1222.4 21.1566 1226.41 L21.1566 1234.75 L32.9014 1234.75 L32.9014 1226.41 Q32.9014 1222.4 31.4054 1220.33 Q29.8777 1218.23 27.0131 1218.23 M1.9322 1240.64 L1.9322 1234.75 L16.4778 1234.75 L16.4778 1226.16 Q16.4778 1219.35 19.0878 1215.69 Q21.6659 1211.99 27.0131 1211.99 Q32.3603 1211.99 34.9702 1215.69 Q37.5802 1219.35 37.5802 1226.16 L37.5802 1240.64 L1.9322 1240.64 Z" fill="#000000" fill-rule="nonzero" fill-opacity="1" /><path clip-path="url(#clip330)" d="M19.6607 1165.08 Q19.6607 1172.18 21.2839 1174.91 Q22.9072 1177.65 26.8221 1177.65 Q29.9413 1177.65 31.7874 1175.61 Q33.6016 1173.54 33.6016 1170.01 Q33.6016 1165.14 30.1641 1162.21 Q26.6948 1159.25 20.9657 1159.25 L19.6607 1159.25 L19.6607 1165.08 M17.2417 1153.4 L37.5802 1153.4 L37.5802 1159.25 L32.1693 1159.25 Q35.4158 1161.26 36.9754 1164.25 Q38.5032 1167.24 38.5032 1171.57 Q38.5032 1177.05 35.4476 1180.29 Q32.3603 1183.51 27.2041 1183.51 Q21.1885 1183.51 18.1329 1179.5 Q15.0774 1175.45 15.0774 1167.47 L15.0774 1159.25 L14.5045 1159.25 Q10.4622 1159.25 8.26608 1161.93 Q6.03808 1164.57 6.03808 1169.37 Q6.03808 1172.43 6.77014 1175.33 Q7.50219 1178.22 8.96631 1180.9 L3.55546 1180.9 Q2.31414 1177.68 1.7094 1174.66 Q1.07283 1171.63 1.07283 1168.77 Q1.07283 1161.04 5.08323 1157.22 Q9.09362 1153.4 17.2417 1153.4 Z" fill="#000000" fill-rule="nonzero" fill-opacity="1" /><path clip-path="url(#clip330)" d="M32.233 1135.67 L51.1391 1135.67 L51.1391 1141.56 L1.9322 1141.56 L1.9322 1135.67 L7.34305 1135.67 Q4.1602 1133.82 2.63243 1131.02 Q1.07283 1128.19 1.07283 1124.27 Q1.07283 1117.78 6.22905 1113.74 Q11.3853 1109.66 19.788 1109.66 Q28.1907 1109.66 33.347 1113.74 Q38.5032 1117.78 38.5032 1124.27 Q38.5032 1128.19 36.9754 1131.02 Q35.4158 1133.82 32.233 1135.67 M19.788 1115.74 Q13.3268 1115.74 9.66653 1118.42 Q5.97442 1121.06 5.97442 1125.71 Q5.97442 1130.35 9.66653 1133.03 Q13.3268 1135.67 19.788 1135.67 Q26.2492 1135.67 29.9413 1133.03 Q33.6016 1130.35 33.6016 1125.71 Q33.6016 1121.06 29.9413 1118.42 Q26.2492 1115.74 19.788 1115.74 Z" fill="#000000" fill-rule="nonzero" fill-opacity="1" /><path clip-path="url(#clip330)" d="M1.9322 1100.18 L1.9322 1091.62 L25.8036 1081.5 L1.9322 1071.34 L1.9322 1062.84 L37.5802 1062.84 L37.5802 1068.73 L7.53402 1068.73 L30.737 1078.57 L30.737 1084.42 L7.53402 1094.29 L37.5802 1094.29 L37.5802 1100.18 L1.9322 1100.18 Z" fill="#000000" fill-rule="nonzero" fill-opacity="1" /><path clip-path="url(#clip330)" d="M1.9322 1020.48 L37.5802 1020.48 L37.5802 1026.31 L8.96631 1026.31 L37.5802 1043.49 L37.5802 1051 L1.9322 1051 L1.9322 1045.18 L30.4824 1045.18 L1.9322 1028.02 L1.9322 1020.48 Z" fill="#000000" fill-rule="nonzero" fill-opacity="1" /><path clip-path="url(#clip330)" d="M1.9322 978.117 L37.5802 978.117 L37.5802 983.942 L8.96631 983.942 L37.5802 1001.13 L37.5802 1008.64 L1.9322 1008.64 L1.9322 1002.82 L30.4824 1002.82 L1.9322 985.661 L1.9322 978.117 Z" fill="#000000" fill-rule="nonzero" fill-opacity="1" /><path clip-path="url(#clip330)" d="M798.108 12.096 L810.302 12.096 L825.736 53.2532 L841.251 12.096 L853.444 12.096 L853.444 72.576 L845.463 72.576 L845.463 19.4686 L829.867 60.9499 L821.644 60.9499 L806.048 19.4686 L806.048 72.576 L798.108 72.576 L798.108 12.096 Z" fill="#000000" fill-rule="nonzero" fill-opacity="1" /><path clip-path="url(#clip330)" d="M886.945 32.4315 Q880.949 32.4315 877.466 37.1306 Q873.982 41.7891 873.982 49.9314 Q873.982 58.0738 877.425 62.7728 Q880.909 67.4314 886.945 67.4314 Q892.9 67.4314 896.383 62.7323 Q899.867 58.0333 899.867 49.9314 Q899.867 41.8701 896.383 37.1711 Q892.9 32.4315 886.945 32.4315 M886.945 26.1121 Q896.667 26.1121 902.217 32.4315 Q907.766 38.7509 907.766 49.9314 Q907.766 61.0714 902.217 67.4314 Q896.667 73.7508 886.945 73.7508 Q877.182 73.7508 871.632 67.4314 Q866.123 61.0714 866.123 49.9314 Q866.123 38.7509 871.632 32.4315 Q877.182 26.1121 886.945 26.1121 Z" fill="#000000" fill-rule="nonzero" fill-opacity="1" /><path clip-path="url(#clip330)" d="M930.249 66.6212 L951.881 66.6212 L951.881 33.1607 L936.204 33.1607 L936.204 38.832 Q936.204 55.5217 931.424 64.4337 L930.249 66.6212 M919.433 66.6212 Q923.119 65.0008 924.74 61.5575 Q928.71 53.0101 928.71 35.7938 L928.71 27.2059 L959.375 27.2059 L959.375 66.6212 L965.33 66.6212 L965.33 84.0401 L959.375 84.0401 L959.375 72.576 L922.593 72.576 L922.593 84.0401 L916.638 84.0401 L916.638 66.6212 L919.433 66.6212 Z" fill="#000000" fill-rule="nonzero" fill-opacity="1" /><path clip-path="url(#clip330)" d="M1016.29 48.0275 L1016.29 51.6733 L982.019 51.6733 Q982.506 59.3701 986.637 63.421 Q990.81 67.4314 998.223 67.4314 Q1002.52 67.4314 1006.53 66.3781 Q1010.58 65.3249 1014.55 63.2184 L1014.55 70.267 Q1010.54 71.9684 1006.32 72.8596 Q1002.11 73.7508 997.777 73.7508 Q986.921 73.7508 980.561 67.4314 Q974.242 61.1119 974.242 50.3365 Q974.242 39.1965 980.237 32.6746 Q986.273 26.1121 996.481 26.1121 Q1005.64 26.1121 1010.94 32.0264 Q1016.29 37.9003 1016.29 48.0275 M1008.84 45.84 Q1008.76 39.7232 1005.39 36.0774 Q1002.07 32.4315 996.562 32.4315 Q990.324 32.4315 986.556 35.9558 Q982.83 39.4801 982.262 45.8805 L1008.84 45.84 Z" fill="#000000" fill-rule="nonzero" fill-opacity="1" /><path clip-path="url(#clip330)" d="M1023.78 72.576 L1023.78 66.3781 Q1031.16 65.2439 1033.43 60.1397 Q1036.18 52.9696 1036.18 34.619 L1036.18 27.2059 L1066.85 27.2059 L1066.85 72.576 L1059.39 72.576 L1059.39 33.1607 L1043.63 33.1607 L1043.63 37.6572 Q1043.63 55.1571 1040.07 63.0159 Q1036.26 71.4012 1023.78 72.576 Z" fill="#000000" fill-rule="nonzero" fill-opacity="1" /><path clip-path="url(#clip330)" d="M1109.78 59.127 Q1109.78 55.4812 1107.11 53.5773 Q1104.48 51.6733 1099.37 51.6733 L1088.76 51.6733 L1088.76 66.6212 L1099.37 66.6212 Q1104.48 66.6212 1107.11 64.7172 Q1109.78 62.7728 1109.78 59.127 M1081.27 27.2059 L1088.76 27.2059 L1088.76 45.7185 L1099.7 45.7185 Q1108.37 45.7185 1113.03 49.0402 Q1117.72 52.3215 1117.72 59.127 Q1117.72 65.9325 1113.03 69.2543 Q1108.37 72.576 1099.7 72.576 L1081.27 72.576 L1081.27 27.2059 Z" fill="#000000" fill-rule="nonzero" fill-opacity="1" /><path clip-path="url(#clip330)" d="M1159.29 65.6895 L1172.65 65.6895 L1172.65 19.5497 L1158.11 22.4663 L1158.11 15.0127 L1172.57 12.096 L1180.76 12.096 L1180.76 65.6895 L1194.12 65.6895 L1194.12 72.576 L1159.29 72.576 L1159.29 65.6895 Z" fill="#000000" fill-rule="nonzero" fill-opacity="1" /><path clip-path="url(#clip330)" d="M1211.5 62.2867 L1220.05 62.2867 L1220.05 72.576 L1211.5 72.576 L1211.5 62.2867 M1211.5 29.6769 L1220.05 29.6769 L1220.05 39.9662 L1211.5 39.9662 L1211.5 29.6769 Z" fill="#000000" fill-rule="nonzero" fill-opacity="1" /><path clip-path="url(#clip330)" d="M1281.91 26.1121 Q1291.63 26.1121 1297.18 32.4315 Q1302.73 38.7509 1302.73 49.9314 Q1302.73 61.0714 1297.18 67.4314 Q1291.63 73.7508 1281.91 73.7508 Q1272.15 73.7508 1266.76 67.5934 Q1261.37 61.436 1261.09 49.9314 L1260.84 40.6549 Q1260.64 35.8343 1260.64 34.1734 Q1260.64 27.692 1262.99 22.9119 Q1266.68 15.4177 1273.04 12.177 Q1279.44 8.93629 1290.13 8.85528 Q1295.07 8.81477 1297.26 8.12611 L1299.33 14.0404 Q1297.34 14.8506 1295.52 14.8911 L1285.39 15.5798 Q1280.29 15.9444 1277.21 17.7268 Q1269.15 22.4663 1268.38 28.6642 L1268.09 30.9327 Q1273.36 26.1121 1281.91 26.1121 M1281.91 32.4315 Q1275.91 32.4315 1272.43 37.1306 Q1268.94 41.7891 1268.94 49.9314 Q1268.94 58.0738 1272.39 62.7728 Q1275.87 67.4314 1281.91 67.4314 Q1287.86 67.4314 1291.35 62.7323 Q1294.83 58.0333 1294.83 49.9314 Q1294.83 41.8701 1291.35 37.1711 Q1287.86 32.4315 1281.91 32.4315 Z" fill="#000000" fill-rule="nonzero" fill-opacity="1" /><path clip-path="url(#clip330)" d="M1332.67 32.4315 Q1326.67 32.4315 1323.19 37.1306 Q1319.7 41.7891 1319.7 49.9314 Q1319.7 58.0738 1323.15 62.7728 Q1326.63 67.4314 1332.67 67.4314 Q1338.62 67.4314 1342.1 62.7323 Q1345.59 58.0333 1345.59 49.9314 Q1345.59 41.8701 1342.1 37.1711 Q1338.62 32.4315 1332.67 32.4315 M1332.67 26.1121 Q1342.39 26.1121 1347.94 32.4315 Q1353.49 38.7509 1353.49 49.9314 Q1353.49 61.0714 1347.94 67.4314 Q1342.39 73.7508 1332.67 73.7508 Q1322.9 73.7508 1317.35 67.4314 Q1311.84 61.0714 1311.84 49.9314 Q1311.84 38.7509 1317.35 32.4315 Q1322.9 26.1121 1332.67 26.1121 Z" fill="#000000" fill-rule="nonzero" fill-opacity="1" /><path clip-path="url(#clip330)" d="M1404.65 48.0275 L1404.65 51.6733 L1370.38 51.6733 Q1370.87 59.3701 1375 63.421 Q1379.17 67.4314 1386.58 67.4314 Q1390.88 67.4314 1394.89 66.3781 Q1398.94 65.3249 1402.91 63.2184 L1402.91 70.267 Q1398.9 71.9684 1394.69 72.8596 Q1390.47 73.7508 1386.14 73.7508 Q1375.28 73.7508 1368.92 67.4314 Q1362.6 61.1119 1362.6 50.3365 Q1362.6 39.1965 1368.6 32.6746 Q1374.63 26.1121 1384.84 26.1121 Q1394 26.1121 1399.3 32.0264 Q1404.65 37.9003 1404.65 48.0275 M1397.2 45.84 Q1397.12 39.7232 1393.75 36.0774 Q1390.43 32.4315 1384.92 32.4315 Q1378.68 32.4315 1374.92 35.9558 Q1371.19 39.4801 1370.62 45.8805 L1397.2 45.84 Z" fill="#000000" fill-rule="nonzero" fill-opacity="1" /><path clip-path="url(#clip330)" d="M1424.05 51.6733 L1424.05 66.6212 L1434.67 66.6212 Q1439.77 66.6212 1442.45 64.7172 Q1445.12 62.7728 1445.12 59.127 Q1445.12 55.4812 1442.45 53.5773 Q1439.77 51.6733 1434.67 51.6733 L1424.05 51.6733 M1424.05 33.1607 L1424.05 45.7185 L1433.86 45.7185 Q1438.07 45.7185 1440.74 44.0576 Q1443.42 42.3563 1443.42 39.3586 Q1443.42 36.3609 1440.74 34.7811 Q1438.07 33.1607 1433.86 33.1607 L1424.05 33.1607 M1416.6 27.2059 L1434.34 27.2059 Q1442.32 27.2059 1446.62 30.1225 Q1450.91 33.0392 1450.91 38.4269 Q1450.91 42.5993 1448.72 45.0704 Q1446.54 47.5009 1442.24 48.1085 Q1447.39 49.0808 1450.22 52.1594 Q1453.06 55.2381 1453.06 59.8562 Q1453.06 65.9325 1448.36 69.2543 Q1443.7 72.576 1435.03 72.576 L1416.6 72.576 L1416.6 27.2059 Z" fill="#000000" fill-rule="nonzero" fill-opacity="1" /><path clip-path="url(#clip330)" d="M1508.64 27.2059 L1516.09 27.2059 L1516.09 72.576 L1508.64 72.576 L1508.64 27.2059 M1512.36 26.1121 L1512.36 26.1121 M1494.01 59.127 Q1494.01 55.4812 1491.34 53.5773 Q1488.71 51.6733 1483.6 51.6733 L1472.99 51.6733 L1472.99 66.6212 L1483.6 66.6212 Q1488.71 66.6212 1491.34 64.7172 Q1494.01 62.7728 1494.01 59.127 M1465.49 27.2059 L1472.99 27.2059 L1472.99 45.7185 L1483.93 45.7185 Q1492.6 45.7185 1497.25 49.0402 Q1501.95 52.3215 1501.95 59.127 Q1501.95 65.9325 1497.25 69.2543 Q1492.6 72.576 1483.93 72.576 L1465.49 72.576 L1465.49 27.2059 Z" fill="#000000" fill-rule="nonzero" fill-opacity="1" /><path clip-path="url(#clip330)" d="M1570.09 48.0275 L1570.09 51.6733 L1535.82 51.6733 Q1536.3 59.3701 1540.44 63.421 Q1544.61 67.4314 1552.02 67.4314 Q1556.32 67.4314 1560.33 66.3781 Q1564.38 65.3249 1568.35 63.2184 L1568.35 70.267 Q1564.34 71.9684 1560.12 72.8596 Q1555.91 73.7508 1551.58 73.7508 Q1540.72 73.7508 1534.36 67.4314 Q1528.04 61.1119 1528.04 50.3365 Q1528.04 39.1965 1534.04 32.6746 Q1540.07 26.1121 1550.28 26.1121 Q1559.44 26.1121 1564.74 32.0264 Q1570.09 37.9003 1570.09 48.0275 M1562.64 45.84 Q1562.55 39.7232 1559.19 36.0774 Q1555.87 32.4315 1550.36 32.4315 Q1544.12 32.4315 1540.36 35.9558 Q1536.63 39.4801 1536.06 45.8805 L1562.64 45.84 Z" fill="#000000" fill-rule="nonzero" fill-opacity="1" /><path clip-path="url(#clip330)" d="M1618.82 66.6212 L1640.45 66.6212 L1640.45 33.1607 L1624.78 33.1607 L1624.78 38.832 Q1624.78 55.5217 1620 64.4337 L1618.82 66.6212 M1608.01 66.6212 Q1611.69 65.0008 1613.31 61.5575 Q1617.28 53.0101 1617.28 35.7938 L1617.28 27.2059 L1647.95 27.2059 L1647.95 66.6212 L1653.9 66.6212 L1653.9 84.0401 L1647.95 84.0401 L1647.95 72.576 L1611.17 72.576 L1611.17 84.0401 L1605.21 84.0401 L1605.21 66.6212 L1608.01 66.6212 Z" fill="#000000" fill-rule="nonzero" fill-opacity="1" /><path clip-path="url(#clip330)" d="M1704.86 48.0275 L1704.86 51.6733 L1670.59 51.6733 Q1671.08 59.3701 1675.21 63.421 Q1679.38 67.4314 1686.8 67.4314 Q1691.09 67.4314 1695.1 66.3781 Q1699.15 65.3249 1703.12 63.2184 L1703.12 70.267 Q1699.11 71.9684 1694.9 72.8596 Q1690.68 73.7508 1686.35 73.7508 Q1675.49 73.7508 1669.13 67.4314 Q1662.81 61.1119 1662.81 50.3365 Q1662.81 39.1965 1668.81 32.6746 Q1674.85 26.1121 1685.05 26.1121 Q1694.21 26.1121 1699.52 32.0264 Q1704.86 37.9003 1704.86 48.0275 M1697.41 45.84 Q1697.33 39.7232 1693.97 36.0774 Q1690.64 32.4315 1685.13 32.4315 Q1678.9 32.4315 1675.13 35.9558 Q1671.4 39.4801 1670.84 45.8805 L1697.41 45.84 Z" fill="#000000" fill-rule="nonzero" fill-opacity="1" /><path clip-path="url(#clip330)" d="M1755.66 27.2059 L1755.66 72.576 L1748.25 72.576 L1748.25 36.1584 L1726.37 72.576 L1716.81 72.576 L1716.81 27.2059 L1724.23 27.2059 L1724.23 63.5425 L1746.06 27.2059 L1755.66 27.2059 M1723.58 9.54393 L1728.36 9.54393 Q1728.8 12.5821 1730.75 14.1215 Q1732.73 15.6203 1736.26 15.6203 Q1739.74 15.6203 1741.69 14.1215 Q1743.63 12.6226 1744.16 9.54393 L1748.94 9.54393 Q1748.53 15.3367 1745.33 18.2534 Q1742.13 21.17 1736.26 21.17 Q1730.38 21.17 1727.18 18.2534 Q1723.98 15.3367 1723.58 9.54393 Z" fill="#000000" fill-rule="nonzero" fill-opacity="1" /><path clip-path="url(#clip330)" d="M1803.66 28.9478 L1803.66 35.9153 Q1800.5 34.1734 1797.3 33.3227 Q1794.14 32.4315 1790.9 32.4315 Q1783.65 32.4315 1779.64 37.0496 Q1775.63 41.6271 1775.63 49.9314 Q1775.63 58.2358 1779.64 62.8538 Q1783.65 67.4314 1790.9 67.4314 Q1794.14 67.4314 1797.3 66.5807 Q1800.5 65.6895 1803.66 63.9476 L1803.66 70.8341 Q1800.55 72.2924 1797.18 73.0216 Q1793.86 73.7508 1790.09 73.7508 Q1779.85 73.7508 1773.81 67.3098 Q1767.77 60.8689 1767.77 49.9314 Q1767.77 38.832 1773.85 32.472 Q1779.97 26.1121 1790.58 26.1121 Q1794.02 26.1121 1797.3 26.8413 Q1800.59 27.5299 1803.66 28.9478 Z" fill="#000000" fill-rule="nonzero" fill-opacity="1" /><path clip-path="url(#clip330)" d="M1811.24 27.2059 L1854.71 27.2059 L1854.71 33.1607 L1836.64 33.1607 L1836.64 72.576 L1829.31 72.576 L1829.31 33.1607 L1811.24 33.1607 L1811.24 27.2059 Z" fill="#000000" fill-rule="nonzero" fill-opacity="1" /><path clip-path="url(#clip330)" d="M1872.12 51.6733 L1872.12 66.6212 L1882.74 66.6212 Q1887.84 66.6212 1890.52 64.7172 Q1893.19 62.7728 1893.19 59.127 Q1893.19 55.4812 1890.52 53.5773 Q1887.84 51.6733 1882.74 51.6733 L1872.12 51.6733 M1872.12 33.1607 L1872.12 45.7185 L1881.93 45.7185 Q1886.14 45.7185 1888.81 44.0576 Q1891.49 42.3563 1891.49 39.3586 Q1891.49 36.3609 1888.81 34.7811 Q1886.14 33.1607 1881.93 33.1607 L1872.12 33.1607 M1864.67 27.2059 L1882.41 27.2059 Q1890.39 27.2059 1894.69 30.1225 Q1898.98 33.0392 1898.98 38.4269 Q1898.98 42.5993 1896.79 45.0704 Q1894.61 47.5009 1890.31 48.1085 Q1895.46 49.0808 1898.29 52.1594 Q1901.13 55.2381 1901.13 59.8562 Q1901.13 65.9325 1896.43 69.2543 Q1891.77 72.576 1883.1 72.576 L1864.67 72.576 L1864.67 27.2059 Z" fill="#000000" fill-rule="nonzero" fill-opacity="1" /><path clip-path="url(#clip330)" d="M1952.41 27.2059 L1952.41 72.576 L1945 72.576 L1945 36.1584 L1923.13 72.576 L1913.57 72.576 L1913.57 27.2059 L1920.98 27.2059 L1920.98 63.5425 L1942.81 27.2059 L1952.41 27.2059 Z" fill="#000000" fill-rule="nonzero" fill-opacity="1" /><path clip-path="url(#clip330)" d="M1975.26 40.2903 Q1975.26 43.6525 1977.85 45.5565 Q1980.45 47.4604 1985.27 47.4604 L1995.31 47.4604 L1995.31 33.1607 L1985.27 33.1607 Q1980.45 33.1607 1977.85 35.0241 Q1975.26 36.8875 1975.26 40.2903 M1964.65 72.576 L1978.5 52.6861 Q1973.8 51.6328 1970.68 48.8782 Q1967.56 46.0831 1967.56 40.2903 Q1967.56 33.7278 1971.9 30.4871 Q1976.27 27.2059 1985.06 27.2059 L2002.81 27.2059 L2002.81 72.576 L1995.31 72.576 L1995.31 53.4152 L1986.04 53.4152 L1972.67 72.576 L1964.65 72.576 Z" fill="#000000" fill-rule="nonzero" fill-opacity="1" /><path clip-path="url(#clip330)" d="M2043.76 27.2059 L2054.66 27.2059 L2067.54 57.5877 L2080.46 27.2059 L2091.28 27.2059 L2091.28 72.576 L2083.78 72.576 L2083.78 34.3355 L2071.27 63.8666 L2063.81 63.8666 L2051.26 34.3355 L2051.26 72.576 L2043.76 72.576 L2043.76 27.2059 Z" fill="#000000" fill-rule="nonzero" fill-opacity="1" /><path clip-path="url(#clip330)" d="M2145.44 48.0275 L2145.44 51.6733 L2111.17 51.6733 Q2111.65 59.3701 2115.79 63.421 Q2119.96 67.4314 2127.37 67.4314 Q2131.67 67.4314 2135.68 66.3781 Q2139.73 65.3249 2143.7 63.2184 L2143.7 70.267 Q2139.69 71.9684 2135.47 72.8596 Q2131.26 73.7508 2126.93 73.7508 Q2116.07 73.7508 2109.71 67.4314 Q2103.39 61.1119 2103.39 50.3365 Q2103.39 39.1965 2109.39 32.6746 Q2115.42 26.1121 2125.63 26.1121 Q2134.79 26.1121 2140.09 32.0264 Q2145.44 37.9003 2145.44 48.0275 M2137.99 45.84 Q2137.9 39.7232 2134.54 36.0774 Q2131.22 32.4315 2125.71 32.4315 Q2119.47 32.4315 2115.71 35.9558 Q2111.98 39.4801 2111.41 45.8805 L2137.99 45.84 Z" fill="#000000" fill-rule="nonzero" fill-opacity="1" /><path clip-path="url(#clip330)" d="M2183.52 27.2059 L2190.93 27.2059 L2190.93 48.5136 L2210.74 27.2059 L2219.41 27.2059 L2203.12 44.6653 L2221.76 72.576 L2213.78 72.576 L2198.51 49.6479 L2190.93 57.7902 L2190.93 72.576 L2183.52 72.576 L2183.52 57.7902 L2175.94 49.6479 L2160.67 72.576 L2152.69 72.576 L2171.32 44.6653 L2155.04 27.2059 L2163.71 27.2059 L2183.52 48.5136 L2183.52 27.2059 Z" fill="#000000" fill-rule="nonzero" fill-opacity="1" /><path clip-path="url(#clip330)" d="M2242.54 66.6212 L2264.17 66.6212 L2264.17 33.1607 L2248.49 33.1607 L2248.49 38.832 Q2248.49 55.5217 2243.71 64.4337 L2242.54 66.6212 M2231.72 66.6212 Q2235.41 65.0008 2237.03 61.5575 Q2241 53.0101 2241 35.7938 L2241 27.2059 L2271.67 27.2059 L2271.67 66.6212 L2277.62 66.6212 L2277.62 84.0401 L2271.67 84.0401 L2271.67 72.576 L2234.88 72.576 L2234.88 84.0401 L2228.93 84.0401 L2228.93 66.6212 L2231.72 66.6212 Z" fill="#000000" fill-rule="nonzero" fill-opacity="1" /><path clip-path="url(#clip330)" d="M2308.65 76.7889 Q2305.49 84.8907 2302.49 87.3618 Q2299.5 89.8329 2294.47 89.8329 L2288.52 89.8329 L2288.52 83.5945 L2292.89 83.5945 Q2295.97 83.5945 2297.67 82.1361 Q2299.37 80.6778 2301.44 75.2496 L2302.78 71.8468 L2284.43 27.2059 L2292.32 27.2059 L2306.5 62.6918 L2320.68 27.2059 L2328.58 27.2059 L2308.65 76.7889 Z" fill="#000000" fill-rule="nonzero" fill-opacity="1" /><path clip-path="url(#clip330)" d="M2372.45 65.7705 L2372.45 89.8329 L2364.96 89.8329 L2364.96 27.2059 L2372.45 27.2059 L2372.45 34.0924 Q2374.8 30.0415 2378.37 28.0971 Q2381.97 26.1121 2386.95 26.1121 Q2395.22 26.1121 2400.36 32.6746 Q2405.55 39.2371 2405.55 49.9314 Q2405.55 60.6258 2400.36 67.1883 Q2395.22 73.7508 2386.95 73.7508 Q2381.97 73.7508 2378.37 71.8063 Q2374.8 69.8214 2372.45 65.7705 M2397.81 49.9314 Q2397.81 41.7081 2394.41 37.0496 Q2391.05 32.3505 2385.13 32.3505 Q2379.22 32.3505 2375.81 37.0496 Q2372.45 41.7081 2372.45 49.9314 Q2372.45 58.1548 2375.81 62.8538 Q2379.22 67.5124 2385.13 67.5124 Q2391.05 67.5124 2394.41 62.8538 Q2397.81 58.1548 2397.81 49.9314 Z" fill="#000000" fill-rule="nonzero" fill-opacity="1" /><path clip-path="url(#clip330)" d="M2456.71 48.0275 L2456.71 51.6733 L2422.44 51.6733 Q2422.93 59.3701 2427.06 63.421 Q2431.23 67.4314 2438.64 67.4314 Q2442.94 67.4314 2446.95 66.3781 Q2451 65.3249 2454.97 63.2184 L2454.97 70.267 Q2450.96 71.9684 2446.75 72.8596 Q2442.53 73.7508 2438.2 73.7508 Q2427.34 73.7508 2420.98 67.4314 Q2414.66 61.1119 2414.66 50.3365 Q2414.66 39.1965 2420.66 32.6746 Q2426.69 26.1121 2436.9 26.1121 Q2446.06 26.1121 2451.36 32.0264 Q2456.71 37.9003 2456.71 48.0275 M2449.26 45.84 Q2449.18 39.7232 2445.81 36.0774 Q2442.49 32.4315 2436.98 32.4315 Q2430.74 32.4315 2426.98 35.9558 Q2423.25 39.4801 2422.68 45.8805 L2449.26 45.84 Z" fill="#000000" fill-rule="nonzero" fill-opacity="1" /><path clip-path="url(#clip330)" d="M2468.66 72.576 L2468.66 27.2059 L2500.66 27.2059 L2500.66 33.1607 L2476.15 33.1607 L2476.15 72.576 L2468.66 72.576 Z" fill="#000000" fill-rule="nonzero" fill-opacity="1" /><path clip-path="url(#clip330)" d="M2531.41 76.7889 Q2528.25 84.8907 2525.25 87.3618 Q2522.25 89.8329 2517.23 89.8329 L2511.28 89.8329 L2511.28 83.5945 L2515.65 83.5945 Q2518.73 83.5945 2520.43 82.1361 Q2522.13 80.6778 2524.2 75.2496 L2525.54 71.8468 L2507.18 27.2059 L2515.08 27.2059 L2529.26 62.6918 L2543.44 27.2059 L2551.34 27.2059 L2531.41 76.7889 Z" fill="#000000" fill-rule="nonzero" fill-opacity="1" /><path clip-path="url(#clip330)" d="M2556.89 72.576 L2556.89 66.3781 Q2564.26 65.2439 2566.53 60.1397 Q2569.29 52.9696 2569.29 34.619 L2569.29 27.2059 L2599.95 27.2059 L2599.95 72.576 L2592.5 72.576 L2592.5 33.1607 L2576.74 33.1607 L2576.74 37.6572 Q2576.74 55.1571 2573.17 63.0159 Q2569.37 71.4012 2556.89 72.576 Z" fill="#000000" fill-rule="nonzero" fill-opacity="1" /><path clip-path="url(#clip330)" d="M2622.15 40.2903 Q2622.15 43.6525 2624.74 45.5565 Q2627.33 47.4604 2632.16 47.4604 L2642.2 47.4604 L2642.2 33.1607 L2632.16 33.1607 Q2627.33 33.1607 2624.74 35.0241 Q2622.15 36.8875 2622.15 40.2903 M2611.54 72.576 L2625.39 52.6861 Q2620.69 51.6328 2617.57 48.8782 Q2614.45 46.0831 2614.45 40.2903 Q2614.45 33.7278 2618.79 30.4871 Q2623.16 27.2059 2631.95 27.2059 L2649.7 27.2059 L2649.7 72.576 L2642.2 72.576 L2642.2 53.4152 L2632.92 53.4152 L2619.56 72.576 L2611.54 72.576 Z" fill="#000000" fill-rule="nonzero" fill-opacity="1" /><path clip-path="url(#clip330)" d="M2671.77 65.7705 L2671.77 89.8329 L2664.28 89.8329 L2664.28 27.2059 L2671.77 27.2059 L2671.77 34.0924 Q2674.12 30.0415 2677.69 28.0971 Q2681.29 26.1121 2686.28 26.1121 Q2694.54 26.1121 2699.68 32.6746 Q2704.87 39.2371 2704.87 49.9314 Q2704.87 60.6258 2699.68 67.1883 Q2694.54 73.7508 2686.28 73.7508 Q2681.29 73.7508 2677.69 71.8063 Q2674.12 69.8214 2671.77 65.7705 M2697.13 49.9314 Q2697.13 41.7081 2693.73 37.0496 Q2690.37 32.3505 2684.45 32.3505 Q2678.54 32.3505 2675.14 37.0496 Q2671.77 41.7081 2671.77 49.9314 Q2671.77 58.1548 2675.14 62.8538 Q2678.54 67.5124 2684.45 67.5124 Q2690.37 67.5124 2693.73 62.8538 Q2697.13 58.1548 2697.13 49.9314 Z" fill="#000000" fill-rule="nonzero" fill-opacity="1" /><path clip-path="url(#clip330)" d="M2716.94 27.2059 L2724.43 27.2059 L2724.43 45.7185 L2748.62 45.7185 L2748.62 27.2059 L2756.11 27.2059 L2756.11 72.576 L2748.62 72.576 L2748.62 51.6733 L2724.43 51.6733 L2724.43 72.576 L2716.94 72.576 L2716.94 27.2059 Z" fill="#000000" fill-rule="nonzero" fill-opacity="1" /><path clip-path="url(#clip330)" d="M2814.32 27.2059 L2821.78 27.2059 L2821.78 72.576 L2814.32 72.576 L2814.32 27.2059 M2818.05 26.1121 L2818.05 26.1121 M2799.7 59.127 Q2799.7 55.4812 2797.03 53.5773 Q2794.39 51.6733 2789.29 51.6733 L2778.68 51.6733 L2778.68 66.6212 L2789.29 66.6212 Q2794.39 66.6212 2797.03 64.7172 Q2799.7 62.7728 2799.7 59.127 M2771.18 27.2059 L2778.68 27.2059 L2778.68 45.7185 L2789.61 45.7185 Q2798.28 45.7185 2802.94 49.0402 Q2807.64 52.3215 2807.64 59.127 Q2807.64 65.9325 2802.94 69.2543 Q2798.28 72.576 2789.61 72.576 L2771.18 72.576 L2771.18 27.2059 Z" fill="#000000" fill-rule="nonzero" fill-opacity="1" /><path clip-path="url(#clip330)" d="M2836.69 27.2059 L2847.58 27.2059 L2860.46 57.5877 L2873.39 27.2059 L2884.2 27.2059 L2884.2 72.576 L2876.71 72.576 L2876.71 34.3355 L2864.19 63.8666 L2856.74 63.8666 L2844.18 34.3355 L2844.18 72.576 L2836.69 72.576 L2836.69 27.2059 Z" fill="#000000" fill-rule="nonzero" fill-opacity="1" /><path clip-path="url(#clip330)" d="M2938.12 27.2059 L2938.12 72.576 L2930.71 72.576 L2930.71 36.1584 L2908.83 72.576 L2899.27 72.576 L2899.27 27.2059 L2906.69 27.2059 L2906.69 63.5425 L2928.52 27.2059 L2938.12 27.2059 Z" fill="#000000" fill-rule="nonzero" fill-opacity="1" /><path clip-path="url(#clip330)" d="M2987.01 51.6733 L2987.01 66.6212 L2997.63 66.6212 Q3002.73 66.6212 3005.41 64.7172 Q3008.08 62.7728 3008.08 59.127 Q3008.08 55.4812 3005.41 53.5773 Q3002.73 51.6733 2997.63 51.6733 L2987.01 51.6733 M2987.01 33.1607 L2987.01 45.7185 L2996.82 45.7185 Q3001.03 45.7185 3003.7 44.0576 Q3006.38 42.3563 3006.38 39.3586 Q3006.38 36.3609 3003.7 34.7811 Q3001.03 33.1607 2996.82 33.1607 L2987.01 33.1607 M2979.56 27.2059 L2997.3 27.2059 Q3005.28 27.2059 3009.58 30.1225 Q3013.87 33.0392 3013.87 38.4269 Q3013.87 42.5993 3011.68 45.0704 Q3009.5 47.5009 3005.2 48.1085 Q3010.35 49.0808 3013.18 52.1594 Q3016.02 55.2381 3016.02 59.8562 Q3016.02 65.9325 3011.32 69.2543 Q3006.66 72.576 2997.99 72.576 L2979.56 72.576 L2979.56 27.2059 Z" fill="#000000" fill-rule="nonzero" fill-opacity="1" /><path clip-path="url(#clip330)" d="M3046.32 32.4315 Q3040.32 32.4315 3036.84 37.1306 Q3033.36 41.7891 3033.36 49.9314 Q3033.36 58.0738 3036.8 62.7728 Q3040.28 67.4314 3046.32 67.4314 Q3052.27 67.4314 3055.76 62.7323 Q3059.24 58.0333 3059.24 49.9314 Q3059.24 41.8701 3055.76 37.1711 Q3052.27 32.4315 3046.32 32.4315 M3046.32 26.1121 Q3056.04 26.1121 3061.59 32.4315 Q3067.14 38.7509 3067.14 49.9314 Q3067.14 61.0714 3061.59 67.4314 Q3056.04 73.7508 3046.32 73.7508 Q3036.56 73.7508 3031.01 67.4314 Q3025.5 61.0714 3025.5 49.9314 Q3025.5 38.7509 3031.01 32.4315 Q3036.56 26.1121 3046.32 26.1121 Z" fill="#000000" fill-rule="nonzero" fill-opacity="1" /><path clip-path="url(#clip330)" d="M3118.06 27.2059 L3118.06 72.576 L3110.65 72.576 L3110.65 36.1584 L3088.77 72.576 L3079.21 72.576 L3079.21 27.2059 L3086.63 27.2059 L3086.63 63.5425 L3108.46 27.2059 L3118.06 27.2059 M3085.98 9.54393 L3090.76 9.54393 Q3091.2 12.5821 3093.15 14.1215 Q3095.13 15.6203 3098.66 15.6203 Q3102.14 15.6203 3104.09 14.1215 Q3106.03 12.6226 3106.56 9.54393 L3111.34 9.54393 Q3110.93 15.3367 3107.73 18.2534 Q3104.53 21.17 3098.66 21.17 Q3092.78 21.17 3089.58 18.2534 Q3086.38 15.3367 3085.98 9.54393 Z" fill="#000000" fill-rule="nonzero" fill-opacity="1" /><path clip-path="url(#clip330)" d="M3166.06 28.9478 L3166.06 35.9153 Q3162.9 34.1734 3159.7 33.3227 Q3156.54 32.4315 3153.3 32.4315 Q3146.05 32.4315 3142.04 37.0496 Q3138.03 41.6271 3138.03 49.9314 Q3138.03 58.2358 3142.04 62.8538 Q3146.05 67.4314 3153.3 67.4314 Q3156.54 67.4314 3159.7 66.5807 Q3162.9 65.6895 3166.06 63.9476 L3166.06 70.8341 Q3162.95 72.2924 3159.58 73.0216 Q3156.26 73.7508 3152.49 73.7508 Q3142.25 73.7508 3136.21 67.3098 Q3130.17 60.8689 3130.17 49.9314 Q3130.17 38.832 3136.25 32.472 Q3142.37 26.1121 3152.98 26.1121 Q3156.42 26.1121 3159.7 26.8413 Q3162.99 27.5299 3166.06 28.9478 Z" fill="#000000" fill-rule="nonzero" fill-opacity="1" /><path clip-path="url(#clip330)" d="M3178.74 27.2059 L3186.16 27.2059 L3186.16 48.5136 L3207.18 27.2059 L3216.34 27.2059 L3199 44.7463 L3218.56 72.576 L3210.22 72.576 L3194.14 49.6884 L3186.16 57.7902 L3186.16 72.576 L3178.74 72.576 L3178.74 27.2059 Z" fill="#000000" fill-rule="nonzero" fill-opacity="1" /><path clip-path="url(#clip330)" d="M3249.76 49.7694 Q3240.72 49.7694 3237.24 51.8354 Q3233.76 53.9013 3233.76 58.8839 Q3233.76 62.8538 3236.35 65.2034 Q3238.98 67.5124 3243.48 67.5124 Q3249.68 67.5124 3253.4 63.1374 Q3257.17 58.7219 3257.17 51.4303 L3257.17 49.7694 L3249.76 49.7694 M3264.62 46.6907 L3264.62 72.576 L3257.17 72.576 L3257.17 65.6895 Q3254.62 69.8214 3250.81 71.8063 Q3247 73.7508 3241.49 73.7508 Q3234.52 73.7508 3230.39 69.8619 Q3226.3 65.9325 3226.3 59.3701 Q3226.3 51.7138 3231.41 47.825 Q3236.55 43.9361 3246.72 43.9361 L3257.17 43.9361 L3257.17 43.2069 Q3257.17 38.0623 3253.77 35.2672 Q3250.4 32.4315 3244.29 32.4315 Q3240.4 32.4315 3236.71 33.3632 Q3233.03 34.295 3229.62 36.1584 L3229.62 29.2718 Q3233.71 27.692 3237.56 26.9223 Q3241.41 26.1121 3245.06 26.1121 Q3254.9 26.1121 3259.76 31.2163 Q3264.62 36.3204 3264.62 46.6907 Z" fill="#000000" fill-rule="nonzero" fill-opacity="1" /><path clip-path="url(#clip330)" d="M3279.69 27.2059 L3290.59 27.2059 L3303.47 57.5877 L3316.39 27.2059 L3327.21 27.2059 L3327.21 72.576 L3319.72 72.576 L3319.72 34.3355 L3307.2 63.8666 L3299.74 63.8666 L3287.19 34.3355 L3287.19 72.576 L3279.69 72.576 L3279.69 27.2059 Z" fill="#000000" fill-rule="nonzero" fill-opacity="1" /><path clip-path="url(#clip330)" d="M3381.13 27.2059 L3381.13 72.576 L3373.71 72.576 L3373.71 36.1584 L3351.84 72.576 L3342.28 72.576 L3342.28 27.2059 L3349.69 27.2059 L3349.69 63.5425 L3371.53 27.2059 L3381.13 27.2059 Z" fill="#000000" fill-rule="nonzero" fill-opacity="1" /><polyline clip-path="url(#clip331)" style="stroke:#0000ff; stroke-linecap:round; stroke-linejoin:round; stroke-width:8; stroke-opacity:1; fill:none" points="386.479,193.563 556.793,273.146 727.107,347.863 897.421,417.996 1067.73,483.809 1238.05,545.555 1408.36,603.468 1578.68,657.771 1748.99,708.673 1919.3,756.369 2089.62,801.047 2259.93,842.88 2430.25,882.034 2600.56,918.662 2770.87,952.91 2941.19,984.916 3111.5,1014.81 3281.81,1042.71 3452.13,1068.74 3622.44,1093 3792.76,1115.59 "/>
<polyline clip-path="url(#clip331)" style="stroke:#ff0000; stroke-linecap:round; stroke-linejoin:round; stroke-width:8; stroke-opacity:1; fill:none" points="386.479,1382.15 556.793,1467.68 727.107,1548.38 897.421,1624.53 1067.73,1696.38 1238.05,1764.2 1408.36,1828.22 1578.68,1888.66 1748.99,1945.73 1919.3,1999.62 2089.62,2050.53 2259.93,2098.62 2430.25,2144.07 2600.56,2187.02 2770.87,2227.63 2941.19,2266.02 3111.5,2302.34 3281.81,2336.69 3452.13,2369.21 3622.44,2399.98 3792.76,2429.13 "/>
<path clip-path="url(#clip330)" d="M2978.47 361.006 L3679.21 361.006 L3679.21 205.486 L2978.47 205.486  Z" fill="#ffffff" fill-rule="evenodd" fill-opacity="1"/>
<polyline clip-path="url(#clip330)" style="stroke:#000000; stroke-linecap:round; stroke-linejoin:round; stroke-width:4; stroke-opacity:1; fill:none" points="2978.47,361.006 3679.21,361.006 3679.21,205.486 2978.47,205.486 2978.47,361.006 "/>
<polyline clip-path="url(#clip330)" style="stroke:#0000ff; stroke-linecap:round; stroke-linejoin:round; stroke-width:8; stroke-opacity:1; fill:none" points="3016.32,257.326 3243.4,257.326 "/>
<path clip-path="url(#clip330)" d="M3305.9 248.68 L3296.53 261.296 L3306.39 274.606 L3301.37 274.606 L3293.82 264.421 L3286.28 274.606 L3281.25 274.606 L3291.32 261.041 L3282.11 248.68 L3287.13 248.68 L3294.01 257.916 L3300.88 248.68 L3305.9 248.68 Z" fill="#000000" fill-rule="nonzero" fill-opacity="1" /><path clip-path="url(#clip330)" d="M3322.64 238.634 Q3319.54 243.958 3318.03 249.166 Q3316.53 254.375 3316.53 259.722 Q3316.53 265.069 3318.03 270.324 Q3319.56 275.555 3322.64 280.856 L3318.94 280.856 Q3315.46 275.416 3313.73 270.162 Q3312.02 264.907 3312.02 259.722 Q3312.02 254.56 3313.73 249.328 Q3315.44 244.097 3318.94 238.634 L3322.64 238.634 Z" fill="#000000" fill-rule="nonzero" fill-opacity="1" /><path clip-path="url(#clip330)" d="M3335.12 241.319 L3335.12 248.68 L3343.89 248.68 L3343.89 251.99 L3335.12 251.99 L3335.12 266.064 Q3335.12 269.236 3335.97 270.139 Q3336.85 271.041 3339.52 271.041 L3343.89 271.041 L3343.89 274.606 L3339.52 274.606 Q3334.59 274.606 3332.71 272.777 Q3330.84 270.926 3330.84 266.064 L3330.84 251.99 L3327.71 251.99 L3327.71 248.68 L3330.84 248.68 L3330.84 241.319 L3335.12 241.319 Z" fill="#000000" fill-rule="nonzero" fill-opacity="1" /><path clip-path="url(#clip330)" d="M3348.82 238.634 L3352.52 238.634 Q3356 244.097 3357.71 249.328 Q3359.45 254.56 3359.45 259.722 Q3359.45 264.907 3357.71 270.162 Q3356 275.416 3352.52 280.856 L3348.82 280.856 Q3351.9 275.555 3353.4 270.324 Q3354.93 265.069 3354.93 259.722 Q3354.93 254.375 3353.4 249.166 Q3351.9 243.958 3348.82 238.634 Z" fill="#000000" fill-rule="nonzero" fill-opacity="1" /><path clip-path="url(#clip330)" d="M3380.9 259.953 L3423.68 259.953 L3423.68 263.287 L3380.9 263.287 L3380.9 259.953 Z" fill="#000000" fill-rule="nonzero" fill-opacity="1" /><path clip-path="url(#clip330)" d="M3457.32 261.574 Q3452.15 261.574 3450.16 262.754 Q3448.17 263.935 3448.17 266.782 Q3448.17 269.051 3449.65 270.393 Q3451.16 271.713 3453.73 271.713 Q3457.27 271.713 3459.4 269.213 Q3461.55 266.689 3461.55 262.523 L3461.55 261.574 L3457.32 261.574 M3465.81 259.815 L3465.81 274.606 L3461.55 274.606 L3461.55 270.671 Q3460.09 273.032 3457.92 274.166 Q3455.74 275.277 3452.59 275.277 Q3448.61 275.277 3446.25 273.055 Q3443.91 270.81 3443.91 267.06 Q3443.91 262.685 3446.83 260.463 Q3449.77 258.24 3455.58 258.24 L3461.55 258.24 L3461.55 257.824 Q3461.55 254.884 3459.61 253.287 Q3457.69 251.666 3454.19 251.666 Q3451.97 251.666 3449.86 252.199 Q3447.76 252.731 3445.81 253.796 L3445.81 249.861 Q3448.15 248.958 3450.35 248.518 Q3452.55 248.055 3454.63 248.055 Q3460.26 248.055 3463.03 250.972 Q3465.81 253.889 3465.81 259.815 Z" fill="#000000" fill-rule="nonzero" fill-opacity="1" /><path clip-path="url(#clip330)" d="M3478.7 270.717 L3478.7 284.467 L3474.42 284.467 L3474.42 248.68 L3478.7 248.68 L3478.7 252.615 Q3480.05 250.301 3482.08 249.19 Q3484.14 248.055 3486.99 248.055 Q3491.71 248.055 3494.65 251.805 Q3497.62 255.555 3497.62 261.666 Q3497.62 267.777 3494.65 271.527 Q3491.71 275.277 3486.99 275.277 Q3484.14 275.277 3482.08 274.166 Q3480.05 273.032 3478.7 270.717 M3493.2 261.666 Q3493.2 256.967 3491.25 254.305 Q3489.33 251.62 3485.95 251.62 Q3482.57 251.62 3480.63 254.305 Q3478.7 256.967 3478.7 261.666 Q3478.7 266.365 3480.63 269.051 Q3482.57 271.713 3485.95 271.713 Q3489.33 271.713 3491.25 269.051 Q3493.2 266.365 3493.2 261.666 Z" fill="#000000" fill-rule="nonzero" fill-opacity="1" /><path clip-path="url(#clip330)" d="M3504.51 248.68 L3510.74 248.68 L3518.1 266.041 L3525.49 248.68 L3531.67 248.68 L3531.67 274.606 L3527.38 274.606 L3527.38 252.754 L3520.23 269.629 L3515.97 269.629 L3508.8 252.754 L3508.8 274.606 L3504.51 274.606 L3504.51 248.68 Z" fill="#000000" fill-rule="nonzero" fill-opacity="1" /><path clip-path="url(#clip330)" d="M3562.48 248.68 L3562.48 274.606 L3558.24 274.606 L3558.24 253.796 L3545.74 274.606 L3540.28 274.606 L3540.28 248.68 L3544.51 248.68 L3544.51 269.444 L3556.99 248.68 L3562.48 248.68 Z" fill="#000000" fill-rule="nonzero" fill-opacity="1" /><path clip-path="url(#clip330)" d="M3575.53 256.157 Q3575.53 258.078 3577.01 259.166 Q3578.5 260.254 3581.25 260.254 L3586.99 260.254 L3586.99 252.083 L3581.25 252.083 Q3578.5 252.083 3577.01 253.148 Q3575.53 254.213 3575.53 256.157 M3569.47 274.606 L3577.38 263.24 Q3574.7 262.639 3572.92 261.065 Q3571.13 259.467 3571.13 256.157 Q3571.13 252.407 3573.61 250.555 Q3576.11 248.68 3581.13 248.68 L3591.27 248.68 L3591.27 274.606 L3586.99 274.606 L3586.99 263.657 L3581.69 263.657 L3574.05 274.606 L3569.47 274.606 Z" fill="#000000" fill-rule="nonzero" fill-opacity="1" /><path clip-path="url(#clip330)" d="M3613.36 240.046 L3618.38 240.046 L3626.97 252.893 L3635.6 240.046 L3640.63 240.046 L3629.51 256.643 L3641.37 274.606 L3636.34 274.606 L3626.62 259.907 L3616.83 274.606 L3611.78 274.606 L3624.12 256.157 L3613.36 240.046 Z" fill="#000000" fill-rule="nonzero" fill-opacity="1" /><polyline clip-path="url(#clip330)" style="stroke:#ff0000; stroke-linecap:round; stroke-linejoin:round; stroke-width:8; stroke-opacity:1; fill:none" points="3016.32,309.166 3243.4,309.166 "/>
<path clip-path="url(#clip330)" d="M3295.09 328.854 Q3293.29 333.483 3291.58 334.895 Q3289.86 336.307 3286.99 336.307 L3283.59 336.307 L3283.59 332.742 L3286.09 332.742 Q3287.85 332.742 3288.82 331.909 Q3289.79 331.076 3290.97 327.974 L3291.74 326.029 L3281.25 300.52 L3285.77 300.52 L3293.87 320.798 L3301.97 300.52 L3306.48 300.52 L3295.09 328.854 Z" fill="#000000" fill-rule="nonzero" fill-opacity="1" /><path clip-path="url(#clip330)" d="M3322.59 290.474 Q3319.49 295.798 3317.99 301.006 Q3316.48 306.215 3316.48 311.562 Q3316.48 316.909 3317.99 322.164 Q3319.52 327.395 3322.59 332.696 L3318.89 332.696 Q3315.42 327.256 3313.68 322.002 Q3311.97 316.747 3311.97 311.562 Q3311.97 306.4 3313.68 301.168 Q3315.4 295.937 3318.89 290.474 L3322.59 290.474 Z" fill="#000000" fill-rule="nonzero" fill-opacity="1" /><path clip-path="url(#clip330)" d="M3335.07 293.159 L3335.07 300.52 L3343.84 300.52 L3343.84 303.83 L3335.07 303.83 L3335.07 317.904 Q3335.07 321.076 3335.93 321.979 Q3336.81 322.881 3339.47 322.881 L3343.84 322.881 L3343.84 326.446 L3339.47 326.446 Q3334.54 326.446 3332.66 324.617 Q3330.79 322.766 3330.79 317.904 L3330.79 303.83 L3327.66 303.83 L3327.66 300.52 L3330.79 300.52 L3330.79 293.159 L3335.07 293.159 Z" fill="#000000" fill-rule="nonzero" fill-opacity="1" /><path clip-path="url(#clip330)" d="M3348.77 290.474 L3352.48 290.474 Q3355.95 295.937 3357.66 301.168 Q3359.4 306.4 3359.4 311.562 Q3359.4 316.747 3357.66 322.002 Q3355.95 327.256 3352.48 332.696 L3348.77 332.696 Q3351.85 327.395 3353.36 322.164 Q3354.89 316.909 3354.89 311.562 Q3354.89 306.215 3353.36 301.006 Q3351.85 295.798 3348.77 290.474 Z" fill="#000000" fill-rule="nonzero" fill-opacity="1" /><path clip-path="url(#clip330)" d="M3380.86 311.793 L3423.64 311.793 L3423.64 315.127 L3380.86 315.127 L3380.86 311.793 Z" fill="#000000" fill-rule="nonzero" fill-opacity="1" /><path clip-path="url(#clip330)" d="M3457.27 313.414 Q3452.11 313.414 3450.12 314.594 Q3448.13 315.775 3448.13 318.622 Q3448.13 320.891 3449.61 322.233 Q3451.11 323.553 3453.68 323.553 Q3457.22 323.553 3459.35 321.053 Q3461.51 318.529 3461.51 314.363 L3461.51 313.414 L3457.27 313.414 M3465.76 311.655 L3465.76 326.446 L3461.51 326.446 L3461.51 322.511 Q3460.05 324.872 3457.87 326.006 Q3455.7 327.117 3452.55 327.117 Q3448.57 327.117 3446.2 324.895 Q3443.87 322.65 3443.87 318.9 Q3443.87 314.525 3446.78 312.303 Q3449.72 310.08 3455.53 310.08 L3461.51 310.08 L3461.51 309.664 Q3461.51 306.724 3459.56 305.127 Q3457.64 303.506 3454.14 303.506 Q3451.92 303.506 3449.82 304.039 Q3447.71 304.571 3445.77 305.636 L3445.77 301.701 Q3448.1 300.798 3450.3 300.358 Q3452.5 299.895 3454.58 299.895 Q3460.21 299.895 3462.99 302.812 Q3465.76 305.729 3465.76 311.655 Z" fill="#000000" fill-rule="nonzero" fill-opacity="1" /><path clip-path="url(#clip330)" d="M3478.66 322.557 L3478.66 336.307 L3474.38 336.307 L3474.38 300.52 L3478.66 300.52 L3478.66 304.455 Q3480 302.141 3482.04 301.03 Q3484.1 299.895 3486.95 299.895 Q3491.67 299.895 3494.61 303.645 Q3497.57 307.395 3497.57 313.506 Q3497.57 319.617 3494.61 323.367 Q3491.67 327.117 3486.95 327.117 Q3484.1 327.117 3482.04 326.006 Q3480 324.872 3478.66 322.557 M3493.15 313.506 Q3493.15 308.807 3491.2 306.145 Q3489.28 303.46 3485.9 303.46 Q3482.52 303.46 3480.58 306.145 Q3478.66 308.807 3478.66 313.506 Q3478.66 318.205 3480.58 320.891 Q3482.52 323.553 3485.9 323.553 Q3489.28 323.553 3491.2 320.891 Q3493.15 318.205 3493.15 313.506 Z" fill="#000000" fill-rule="nonzero" fill-opacity="1" /><path clip-path="url(#clip330)" d="M3504.47 300.52 L3510.7 300.52 L3518.06 317.881 L3525.44 300.52 L3531.62 300.52 L3531.62 326.446 L3527.34 326.446 L3527.34 304.594 L3520.19 321.469 L3515.93 321.469 L3508.75 304.594 L3508.75 326.446 L3504.47 326.446 L3504.47 300.52 Z" fill="#000000" fill-rule="nonzero" fill-opacity="1" /><path clip-path="url(#clip330)" d="M3562.43 300.52 L3562.43 326.446 L3558.19 326.446 L3558.19 305.636 L3545.7 326.446 L3540.23 326.446 L3540.23 300.52 L3544.47 300.52 L3544.47 321.284 L3556.94 300.52 L3562.43 300.52 Z" fill="#000000" fill-rule="nonzero" fill-opacity="1" /><path clip-path="url(#clip330)" d="M3575.49 307.997 Q3575.49 309.918 3576.97 311.006 Q3578.45 312.094 3581.2 312.094 L3586.94 312.094 L3586.94 303.923 L3581.2 303.923 Q3578.45 303.923 3576.97 304.988 Q3575.49 306.053 3575.49 307.997 M3569.42 326.446 L3577.34 315.08 Q3574.65 314.479 3572.87 312.905 Q3571.09 311.307 3571.09 307.997 Q3571.09 304.247 3573.57 302.395 Q3576.07 300.52 3581.09 300.52 L3591.23 300.52 L3591.23 326.446 L3586.94 326.446 L3586.94 315.497 L3581.64 315.497 L3574.01 326.446 L3569.42 326.446 Z" fill="#000000" fill-rule="nonzero" fill-opacity="1" /><path clip-path="url(#clip330)" d="M3610.23 291.886 L3615.25 291.886 L3624.84 306.099 L3634.35 291.886 L3639.38 291.886 L3627.15 309.988 L3627.15 326.446 L3622.45 326.446 L3622.45 309.988 L3610.23 291.886 Z" fill="#000000" fill-rule="nonzero" fill-opacity="1" /></svg>
