<?xml version="1.0" encoding="utf-8"?>
<svg xmlns="http://www.w3.org/2000/svg" xmlns:xlink="http://www.w3.org/1999/xlink" width="960" height="672" viewBox="0 0 3840 2688">
<defs>
  <clipPath id="clip110">
    <rect x="0" y="0" width="3840" height="2688"/>
  </clipPath>
</defs>
<path clip-path="url(#clip110)" d="M0 2688 L3840 2688 L3840 0 L0 0  Z" fill="#ffffff" fill-rule="evenodd" fill-opacity="1"/>
<defs>
  <clipPath id="clip111">
    <rect x="279" y="126" width="3514" height="2371"/>
  </clipPath>
</defs>
<path clip-path="url(#clip110)" d="M252.059 2496.2 L3792.76 2496.2 L3792.76 126.496 L252.059 126.496  Z" fill="#ffffff" fill-rule="evenodd" fill-opacity="1"/>
<defs>
  <clipPath id="clip112">
    <rect x="252" y="126" width="3542" height="2371"/>
  </clipPath>
</defs>
<polyline clip-path="url(#clip112)" style="stroke:#000000; stroke-linecap:round; stroke-linejoin:round; stroke-width:2; stroke-opacity:0.1; fill:none" points="252.059,2496.2 252.059,126.496 "/>
<polyline clip-path="url(#clip112)" style="stroke:#000000; stroke-linecap:round; stroke-linejoin:round; stroke-width:2; stroke-opacity:0.1; fill:none" points="1137.23,2496.2 1137.23,126.496 "/>
<polyline clip-path="url(#clip112)" style="stroke:#000000; stroke-linecap:round; stroke-linejoin:round; stroke-width:2; stroke-opacity:0.1; fill:none" points="2022.41,2496.2 2022.41,126.496 "/>
<polyline clip-path="url(#clip112)" style="stroke:#000000; stroke-linecap:round; stroke-linejoin:round; stroke-width:2; stroke-opacity:0.1; fill:none" points="2907.58,2496.2 2907.58,126.496 "/>
<polyline clip-path="url(#clip112)" style="stroke:#000000; stroke-linecap:round; stroke-linejoin:round; stroke-width:2; stroke-opacity:0.1; fill:none" points="3792.76,2496.2 3792.76,126.496 "/>
<polyline clip-path="url(#clip112)" style="stroke:#000000; stroke-linecap:round; stroke-linejoin:round; stroke-width:2; stroke-opacity:0.1; fill:none" points="252.059,2352 3792.76,2352 "/>
<polyline clip-path="url(#clip112)" style="stroke:#000000; stroke-linecap:round; stroke-linejoin:round; stroke-width:2; stroke-opacity:0.1; fill:none" points="252.059,1812.39 3792.76,1812.39 "/>
<polyline clip-path="url(#clip112)" style="stroke:#000000; stroke-linecap:round; stroke-linejoin:round; stroke-width:2; stroke-opacity:0.1; fill:none" points="252.059,1272.78 3792.76,1272.78 "/>
<polyline clip-path="url(#clip112)" style="stroke:#000000; stroke-linecap:round; stroke-linejoin:round; stroke-width:2; stroke-opacity:0.1; fill:none" points="252.059,733.171 3792.76,733.171 "/>
<polyline clip-path="url(#clip112)" style="stroke:#000000; stroke-linecap:round; stroke-linejoin:round; stroke-width:2; stroke-opacity:0.1; fill:none" points="252.059,193.563 3792.76,193.563 "/>
<polyline clip-path="url(#clip110)" style="stroke:#000000; stroke-linecap:round; stroke-linejoin:round; stroke-width:4; stroke-opacity:1; fill:none" points="252.059,2496.2 3792.76,2496.2 "/>
<polyline clip-path="url(#clip110)" style="stroke:#000000; stroke-linecap:round; stroke-linejoin:round; stroke-width:4; stroke-opacity:1; fill:none" points="252.059,2496.2 252.059,2477.3 "/>
<polyline clip-path="url(#clip110)" style="stroke:#000000; stroke-linecap:round; stroke-linejoin:round; stroke-width:4; stroke-opacity:1; fill:none" points="1137.23,2496.2 1137.23,2477.3 "/>
<polyline clip-path="url(#clip110)" style="stroke:#000000; stroke-linecap:round; stroke-linejoin:round; stroke-width:4; stroke-opacity:1; fill:none" points="2022.41,2496.2 2022.41,2477.3 "/>
<polyline clip-path="url(#clip110)" style="stroke:#000000; stroke-linecap:round; stroke-linejoin:round; stroke-width:4; stroke-opacity:1; fill:none" points="2907.58,2496.2 2907.58,2477.3 "/>
<polyline clip-path="url(#clip110)" style="stroke:#000000; stroke-linecap:round; stroke-linejoin:round; stroke-width:4; stroke-opacity:1; fill:none" points="3792.76,2496.2 3792.76,2477.3 "/>
<path clip-path="url(#clip110)" d="M252.059 2538.63 Q248.448 2538.63 246.619 2542.2 Q244.814 2545.74 244.814 2552.87 Q244.814 2559.98 246.619 2563.54 Q248.448 2567.08 252.059 2567.08 Q255.693 2567.08 257.499 2563.54 Q259.327 2559.98 259.327 2552.87 Q259.327 2545.74 257.499 2542.2 Q255.693 2538.63 252.059 2538.63 M252.059 2534.93 Q257.869 2534.93 260.925 2539.54 Q264.003 2544.12 264.003 2552.87 Q264.003 2561.6 260.925 2566.2 Q257.869 2570.79 252.059 2570.79 Q246.249 2570.79 243.17 2566.2 Q240.114 2561.6 240.114 2552.87 Q240.114 2544.12 243.17 2539.54 Q246.249 2534.93 252.059 2534.93 Z" fill="#000000" fill-rule="nonzero" fill-opacity="1" /><path clip-path="url(#clip110)" d="M1127.51 2535.56 L1145.87 2535.56 L1145.87 2539.49 L1131.79 2539.49 L1131.79 2547.96 Q1132.81 2547.62 1133.83 2547.45 Q1134.85 2547.27 1135.87 2547.27 Q1141.65 2547.27 1145.03 2550.44 Q1148.41 2553.61 1148.41 2559.03 Q1148.41 2564.61 1144.94 2567.71 Q1141.47 2570.79 1135.15 2570.79 Q1132.97 2570.79 1130.71 2570.42 Q1128.46 2570.05 1126.05 2569.31 L1126.05 2564.61 Q1128.14 2565.74 1130.36 2566.3 Q1132.58 2566.85 1135.06 2566.85 Q1139.06 2566.85 1141.4 2564.75 Q1143.74 2562.64 1143.74 2559.03 Q1143.74 2555.42 1141.4 2553.31 Q1139.06 2551.2 1135.06 2551.2 Q1133.18 2551.2 1131.31 2551.62 Q1129.46 2552.04 1127.51 2552.92 L1127.51 2535.56 Z" fill="#000000" fill-rule="nonzero" fill-opacity="1" /><path clip-path="url(#clip110)" d="M1997.1 2566.18 L2004.73 2566.18 L2004.73 2539.82 L1996.42 2541.48 L1996.42 2537.22 L2004.69 2535.56 L2009.36 2535.56 L2009.36 2566.18 L2017 2566.18 L2017 2570.12 L1997.1 2570.12 L1997.1 2566.18 Z" fill="#000000" fill-rule="nonzero" fill-opacity="1" /><path clip-path="url(#clip110)" d="M2036.45 2538.63 Q2032.84 2538.63 2031.01 2542.2 Q2029.2 2545.74 2029.2 2552.87 Q2029.2 2559.98 2031.01 2563.54 Q2032.84 2567.08 2036.45 2567.08 Q2040.08 2567.08 2041.89 2563.54 Q2043.72 2559.98 2043.72 2552.87 Q2043.72 2545.74 2041.89 2542.2 Q2040.08 2538.63 2036.45 2538.63 M2036.45 2534.93 Q2042.26 2534.93 2045.31 2539.54 Q2048.39 2544.12 2048.39 2552.87 Q2048.39 2561.6 2045.31 2566.2 Q2042.26 2570.79 2036.45 2570.79 Q2030.64 2570.79 2027.56 2566.2 Q2024.5 2561.6 2024.5 2552.87 Q2024.5 2544.12 2027.56 2539.54 Q2030.64 2534.93 2036.45 2534.93 Z" fill="#000000" fill-rule="nonzero" fill-opacity="1" /><path clip-path="url(#clip110)" d="M2882.77 2566.18 L2890.41 2566.18 L2890.41 2539.82 L2882.1 2541.48 L2882.1 2537.22 L2890.36 2535.56 L2895.04 2535.56 L2895.04 2566.18 L2902.67 2566.18 L2902.67 2570.12 L2882.77 2570.12 L2882.77 2566.18 Z" fill="#000000" fill-rule="nonzero" fill-opacity="1" /><path clip-path="url(#clip110)" d="M2912.16 2535.56 L2930.52 2535.56 L2930.52 2539.49 L2916.45 2539.49 L2916.45 2547.96 Q2917.47 2547.62 2918.48 2547.45 Q2919.5 2547.27 2920.52 2547.27 Q2926.31 2547.27 2929.69 2550.44 Q2933.07 2553.61 2933.07 2559.03 Q2933.07 2564.61 2929.6 2567.71 Q2926.12 2570.79 2919.8 2570.79 Q2917.63 2570.79 2915.36 2570.42 Q2913.11 2570.05 2910.71 2569.31 L2910.71 2564.61 Q2912.79 2565.74 2915.01 2566.3 Q2917.23 2566.85 2919.71 2566.85 Q2923.72 2566.85 2926.05 2564.75 Q2928.39 2562.64 2928.39 2559.03 Q2928.39 2555.42 2926.05 2553.31 Q2923.72 2551.2 2919.71 2551.2 Q2917.84 2551.2 2915.96 2551.62 Q2914.11 2552.04 2912.16 2552.92 L2912.16 2535.56 Z" fill="#000000" fill-rule="nonzero" fill-opacity="1" /><path clip-path="url(#clip110)" d="M3771.53 2566.18 L3787.85 2566.18 L3787.85 2570.12 L3765.9 2570.12 L3765.9 2566.18 Q3768.57 2563.43 3773.15 2558.8 Q3777.76 2554.14 3778.94 2552.8 Q3781.18 2550.28 3782.06 2548.54 Q3782.96 2546.78 3782.96 2545.09 Q3782.96 2542.34 3781.02 2540.6 Q3779.1 2538.87 3776 2538.87 Q3773.8 2538.87 3771.34 2539.63 Q3768.91 2540.39 3766.14 2541.94 L3766.14 2537.22 Q3768.96 2536.09 3771.41 2535.51 Q3773.87 2534.93 3775.9 2534.93 Q3781.27 2534.93 3784.47 2537.62 Q3787.66 2540.3 3787.66 2544.79 Q3787.66 2546.92 3786.85 2548.84 Q3786.07 2550.74 3783.96 2553.33 Q3783.38 2554 3780.28 2557.22 Q3777.18 2560.42 3771.53 2566.18 Z" fill="#000000" fill-rule="nonzero" fill-opacity="1" /><path clip-path="url(#clip110)" d="M3807.66 2538.63 Q3804.05 2538.63 3802.22 2542.2 Q3800.42 2545.74 3800.42 2552.87 Q3800.42 2559.98 3802.22 2563.54 Q3804.05 2567.08 3807.66 2567.08 Q3811.3 2567.08 3813.1 2563.54 Q3814.93 2559.98 3814.93 2552.87 Q3814.93 2545.74 3813.1 2542.2 Q3811.3 2538.63 3807.66 2538.63 M3807.66 2534.93 Q3813.47 2534.93 3816.53 2539.54 Q3819.61 2544.12 3819.61 2552.87 Q3819.61 2561.6 3816.53 2566.2 Q3813.47 2570.79 3807.66 2570.79 Q3801.85 2570.79 3798.77 2566.2 Q3795.72 2561.6 3795.72 2552.87 Q3795.72 2544.12 3798.77 2539.54 Q3801.85 2534.93 3807.66 2534.93 Z" fill="#000000" fill-rule="nonzero" fill-opacity="1" /><path clip-path="url(#clip110)" d="M1902.38 2639.97 L1902.38 2657.38 L1912.69 2657.38 Q1917.88 2657.38 1920.37 2655.24 Q1922.88 2653.08 1922.88 2648.66 Q1922.88 2644.2 1920.37 2642.1 Q1917.88 2639.97 1912.69 2639.97 L1902.38 2639.97 M1902.38 2620.42 L1902.38 2634.75 L1911.9 2634.75 Q1916.61 2634.75 1918.9 2633 Q1921.22 2631.21 1921.22 2627.58 Q1921.22 2623.99 1918.9 2622.21 Q1916.61 2620.42 1911.9 2620.42 L1902.38 2620.42 M1895.95 2615.14 L1912.38 2615.14 Q1919.73 2615.14 1923.71 2618.2 Q1927.69 2621.25 1927.69 2626.88 Q1927.69 2631.25 1925.65 2633.82 Q1923.61 2636.4 1919.66 2637.04 Q1924.41 2638.06 1927.02 2641.3 Q1929.66 2644.52 1929.66 2649.36 Q1929.66 2655.72 1925.33 2659.19 Q1921 2662.66 1913.01 2662.66 L1895.95 2662.66 L1895.95 2615.14 Z" fill="#000000" fill-rule="nonzero" fill-opacity="1" /><path clip-path="url(#clip110)" d="M1946.08 2657.31 L1946.08 2676.22 L1940.19 2676.22 L1940.19 2627.01 L1946.08 2627.01 L1946.08 2632.42 Q1947.93 2629.24 1950.73 2627.71 Q1953.56 2626.15 1957.48 2626.15 Q1963.97 2626.15 1968.01 2631.31 Q1972.09 2636.46 1972.09 2644.87 Q1972.09 2653.27 1968.01 2658.43 Q1963.97 2663.58 1957.48 2663.58 Q1953.56 2663.58 1950.73 2662.06 Q1947.93 2660.5 1946.08 2657.31 M1966.01 2644.87 Q1966.01 2638.41 1963.33 2634.75 Q1960.69 2631.05 1956.04 2631.05 Q1951.4 2631.05 1948.72 2634.75 Q1946.08 2638.41 1946.08 2644.87 Q1946.08 2651.33 1948.72 2655.02 Q1951.4 2658.68 1956.04 2658.68 Q1960.69 2658.68 1963.33 2655.02 Q1966.01 2651.33 1966.01 2644.87 Z" fill="#000000" fill-rule="nonzero" fill-opacity="1" /><path clip-path="url(#clip110)" d="M2012.29 2643.37 L2012.29 2646.24 L1985.36 2646.24 Q1985.74 2652.28 1988.99 2655.47 Q1992.27 2658.62 1998.09 2658.62 Q2001.46 2658.62 2004.62 2657.79 Q2007.8 2656.96 2010.92 2655.31 L2010.92 2660.85 Q2007.77 2662.18 2004.46 2662.88 Q2001.15 2663.58 1997.74 2663.58 Q1989.21 2663.58 1984.21 2658.62 Q1979.25 2653.65 1979.25 2645.19 Q1979.25 2636.43 1983.96 2631.31 Q1988.7 2626.15 1996.72 2626.15 Q2003.92 2626.15 2008.08 2630.8 Q2012.29 2635.41 2012.29 2643.37 M2006.43 2641.65 Q2006.37 2636.85 2003.72 2633.98 Q2001.11 2631.12 1996.79 2631.12 Q1991.88 2631.12 1988.92 2633.89 Q1986 2636.66 1985.55 2641.68 L2006.43 2641.65 Z" fill="#000000" fill-rule="nonzero" fill-opacity="1" /><path clip-path="url(#clip110)" d="M2021.68 2627.01 L2030.24 2627.01 L2040.36 2650.88 L2050.51 2627.01 L2059.01 2627.01 L2059.01 2662.66 L2053.12 2662.66 L2053.12 2632.61 L2043.29 2655.82 L2037.43 2655.82 L2027.56 2632.61 L2027.56 2662.66 L2021.68 2662.66 L2021.68 2627.01 Z" fill="#000000" fill-rule="nonzero" fill-opacity="1" /><path clip-path="url(#clip110)" d="M2076.96 2637.29 Q2076.96 2639.93 2079 2641.43 Q2081.04 2642.93 2084.82 2642.93 L2092.72 2642.93 L2092.72 2631.69 L2084.82 2631.69 Q2081.04 2631.69 2079 2633.15 Q2076.96 2634.62 2076.96 2637.29 M2068.62 2662.66 L2079.51 2647.03 Q2075.82 2646.2 2073.36 2644.04 Q2070.91 2641.84 2070.91 2637.29 Q2070.91 2632.14 2074.32 2629.59 Q2077.76 2627.01 2084.66 2627.01 L2098.6 2627.01 L2098.6 2662.66 L2092.72 2662.66 L2092.72 2647.6 L2085.43 2647.6 L2074.92 2662.66 L2068.62 2662.66 Z" fill="#000000" fill-rule="nonzero" fill-opacity="1" /><path clip-path="url(#clip110)" d="M2136.8 2616.89 L2136.8 2627.01 L2148.86 2627.01 L2148.86 2631.56 L2136.8 2631.56 L2136.8 2650.92 Q2136.8 2655.28 2137.98 2656.52 Q2139.19 2657.76 2142.85 2657.76 L2148.86 2657.76 L2148.86 2662.66 L2142.85 2662.66 Q2136.07 2662.66 2133.49 2660.15 Q2130.91 2657.6 2130.91 2650.92 L2130.91 2631.56 L2126.61 2631.56 L2126.61 2627.01 L2130.91 2627.01 L2130.91 2616.89 L2136.8 2616.89 Z" fill="#000000" fill-rule="nonzero" fill-opacity="1" /><polyline clip-path="url(#clip110)" style="stroke:#000000; stroke-linecap:round; stroke-linejoin:round; stroke-width:4; stroke-opacity:1; fill:none" points="252.059,2496.2 252.059,126.496 "/>
<polyline clip-path="url(#clip110)" style="stroke:#000000; stroke-linecap:round; stroke-linejoin:round; stroke-width:4; stroke-opacity:1; fill:none" points="252.059,2352 270.956,2352 "/>
<polyline clip-path="url(#clip110)" style="stroke:#000000; stroke-linecap:round; stroke-linejoin:round; stroke-width:4; stroke-opacity:1; fill:none" points="252.059,1812.39 270.956,1812.39 "/>
<polyline clip-path="url(#clip110)" style="stroke:#000000; stroke-linecap:round; stroke-linejoin:round; stroke-width:4; stroke-opacity:1; fill:none" points="252.059,1272.78 270.956,1272.78 "/>
<polyline clip-path="url(#clip110)" style="stroke:#000000; stroke-linecap:round; stroke-linejoin:round; stroke-width:4; stroke-opacity:1; fill:none" points="252.059,733.171 270.956,733.171 "/>
<polyline clip-path="url(#clip110)" style="stroke:#000000; stroke-linecap:round; stroke-linejoin:round; stroke-width:4; stroke-opacity:1; fill:none" points="252.059,193.563 270.956,193.563 "/>
<path clip-path="url(#clip110)" d="M113.001 2365.34 L120.64 2365.34 L120.64 2338.97 L112.33 2340.64 L112.33 2336.38 L120.594 2334.72 L125.269 2334.72 L125.269 2365.34 L132.908 2365.34 L132.908 2369.28 L113.001 2369.28 L113.001 2365.34 Z" fill="#000000" fill-rule="nonzero" fill-opacity="1" /><path clip-path="url(#clip110)" d="M152.353 2337.79 Q148.742 2337.79 146.913 2341.36 Q145.107 2344.9 145.107 2352.03 Q145.107 2359.14 146.913 2362.7 Q148.742 2366.24 152.353 2366.24 Q155.987 2366.24 157.792 2362.7 Q159.621 2359.14 159.621 2352.03 Q159.621 2344.9 157.792 2341.36 Q155.987 2337.79 152.353 2337.79 M152.353 2334.09 Q158.163 2334.09 161.218 2338.7 Q164.297 2343.28 164.297 2352.03 Q164.297 2360.76 161.218 2365.36 Q158.163 2369.95 152.353 2369.95 Q146.542 2369.95 143.464 2365.36 Q140.408 2360.76 140.408 2352.03 Q140.408 2343.28 143.464 2338.7 Q146.542 2334.09 152.353 2334.09 Z" fill="#000000" fill-rule="nonzero" fill-opacity="1" /><path clip-path="url(#clip110)" d="M182.514 2337.79 Q178.903 2337.79 177.075 2341.36 Q175.269 2344.9 175.269 2352.03 Q175.269 2359.14 177.075 2362.7 Q178.903 2366.24 182.514 2366.24 Q186.149 2366.24 187.954 2362.7 Q189.783 2359.14 189.783 2352.03 Q189.783 2344.9 187.954 2341.36 Q186.149 2337.79 182.514 2337.79 M182.514 2334.09 Q188.325 2334.09 191.38 2338.7 Q194.459 2343.28 194.459 2352.03 Q194.459 2360.76 191.38 2365.36 Q188.325 2369.95 182.514 2369.95 Q176.704 2369.95 173.626 2365.36 Q170.57 2360.76 170.57 2352.03 Q170.57 2343.28 173.626 2338.7 Q176.704 2334.09 182.514 2334.09 Z" fill="#000000" fill-rule="nonzero" fill-opacity="1" /><path clip-path="url(#clip110)" d="M116.219 1825.73 L132.538 1825.73 L132.538 1829.67 L110.594 1829.67 L110.594 1825.73 Q113.256 1822.98 117.839 1818.35 Q122.445 1813.7 123.626 1812.35 Q125.871 1809.83 126.751 1808.09 Q127.654 1806.33 127.654 1804.64 Q127.654 1801.89 125.709 1800.15 Q123.788 1798.42 120.686 1798.42 Q118.487 1798.42 116.033 1799.18 Q113.603 1799.95 110.825 1801.5 L110.825 1796.77 Q113.649 1795.64 116.103 1795.06 Q118.556 1794.48 120.594 1794.48 Q125.964 1794.48 129.158 1797.17 Q132.353 1799.85 132.353 1804.34 Q132.353 1806.47 131.543 1808.39 Q130.755 1810.29 128.649 1812.88 Q128.07 1813.56 124.968 1816.77 Q121.867 1819.97 116.219 1825.73 Z" fill="#000000" fill-rule="nonzero" fill-opacity="1" /><path clip-path="url(#clip110)" d="M152.353 1798.19 Q148.742 1798.19 146.913 1801.75 Q145.107 1805.29 145.107 1812.42 Q145.107 1819.53 146.913 1823.09 Q148.742 1826.63 152.353 1826.63 Q155.987 1826.63 157.792 1823.09 Q159.621 1819.53 159.621 1812.42 Q159.621 1805.29 157.792 1801.75 Q155.987 1798.19 152.353 1798.19 M152.353 1794.48 Q158.163 1794.48 161.218 1799.09 Q164.297 1803.67 164.297 1812.42 Q164.297 1821.15 161.218 1825.76 Q158.163 1830.34 152.353 1830.34 Q146.542 1830.34 143.464 1825.76 Q140.408 1821.15 140.408 1812.42 Q140.408 1803.67 143.464 1799.09 Q146.542 1794.48 152.353 1794.48 Z" fill="#000000" fill-rule="nonzero" fill-opacity="1" /><path clip-path="url(#clip110)" d="M182.514 1798.19 Q178.903 1798.19 177.075 1801.75 Q175.269 1805.29 175.269 1812.42 Q175.269 1819.53 177.075 1823.09 Q178.903 1826.63 182.514 1826.63 Q186.149 1826.63 187.954 1823.09 Q189.783 1819.53 189.783 1812.42 Q189.783 1805.29 187.954 1801.75 Q186.149 1798.19 182.514 1798.19 M182.514 1794.48 Q188.325 1794.48 191.38 1799.09 Q194.459 1803.67 194.459 1812.42 Q194.459 1821.15 191.38 1825.76 Q188.325 1830.34 182.514 1830.34 Q176.704 1830.34 173.626 1825.76 Q170.57 1821.15 170.57 1812.42 Q170.57 1803.67 173.626 1799.09 Q176.704 1794.48 182.514 1794.48 Z" fill="#000000" fill-rule="nonzero" fill-opacity="1" /><path clip-path="url(#clip110)" d="M126.357 1271.43 Q129.714 1272.14 131.589 1274.41 Q133.487 1276.68 133.487 1280.01 Q133.487 1285.13 129.968 1287.93 Q126.45 1290.73 119.969 1290.73 Q117.793 1290.73 115.478 1290.29 Q113.186 1289.87 110.732 1289.02 L110.732 1284.5 Q112.677 1285.64 114.992 1286.22 Q117.306 1286.8 119.83 1286.8 Q124.228 1286.8 126.519 1285.06 Q128.834 1283.32 128.834 1280.01 Q128.834 1276.96 126.681 1275.24 Q124.552 1273.51 120.732 1273.51 L116.705 1273.51 L116.705 1269.67 L120.918 1269.67 Q124.367 1269.67 126.195 1268.3 Q128.024 1266.91 128.024 1264.32 Q128.024 1261.66 126.126 1260.24 Q124.251 1258.81 120.732 1258.81 Q118.811 1258.81 116.612 1259.23 Q114.413 1259.64 111.774 1260.52 L111.774 1256.36 Q114.436 1255.61 116.751 1255.24 Q119.089 1254.87 121.149 1254.87 Q126.473 1254.87 129.575 1257.3 Q132.677 1259.71 132.677 1263.83 Q132.677 1266.7 131.033 1268.69 Q129.39 1270.66 126.357 1271.43 Z" fill="#000000" fill-rule="nonzero" fill-opacity="1" /><path clip-path="url(#clip110)" d="M152.353 1258.58 Q148.742 1258.58 146.913 1262.14 Q145.107 1265.68 145.107 1272.81 Q145.107 1279.92 146.913 1283.49 Q148.742 1287.03 152.353 1287.03 Q155.987 1287.03 157.792 1283.49 Q159.621 1279.92 159.621 1272.81 Q159.621 1265.68 157.792 1262.14 Q155.987 1258.58 152.353 1258.58 M152.353 1254.87 Q158.163 1254.87 161.218 1259.48 Q164.297 1264.06 164.297 1272.81 Q164.297 1281.54 161.218 1286.15 Q158.163 1290.73 152.353 1290.73 Q146.542 1290.73 143.464 1286.15 Q140.408 1281.54 140.408 1272.81 Q140.408 1264.06 143.464 1259.48 Q146.542 1254.87 152.353 1254.87 Z" fill="#000000" fill-rule="nonzero" fill-opacity="1" /><path clip-path="url(#clip110)" d="M182.514 1258.58 Q178.903 1258.58 177.075 1262.14 Q175.269 1265.68 175.269 1272.81 Q175.269 1279.92 177.075 1283.49 Q178.903 1287.03 182.514 1287.03 Q186.149 1287.03 187.954 1283.49 Q189.783 1279.92 189.783 1272.81 Q189.783 1265.68 187.954 1262.14 Q186.149 1258.58 182.514 1258.58 M182.514 1254.87 Q188.325 1254.87 191.38 1259.48 Q194.459 1264.06 194.459 1272.81 Q194.459 1281.54 191.38 1286.15 Q188.325 1290.73 182.514 1290.73 Q176.704 1290.73 173.626 1286.15 Q170.57 1281.54 170.57 1272.81 Q170.57 1264.06 173.626 1259.48 Q176.704 1254.87 182.514 1254.87 Z" fill="#000000" fill-rule="nonzero" fill-opacity="1" /><path clip-path="url(#clip110)" d="M125.038 719.965 L113.232 738.414 L125.038 738.414 L125.038 719.965 M123.811 715.891 L129.691 715.891 L129.691 738.414 L134.621 738.414 L134.621 742.303 L129.691 742.303 L129.691 750.451 L125.038 750.451 L125.038 742.303 L109.436 742.303 L109.436 737.789 L123.811 715.891 Z" fill="#000000" fill-rule="nonzero" fill-opacity="1" /><path clip-path="url(#clip110)" d="M152.353 718.97 Q148.742 718.97 146.913 722.535 Q145.107 726.076 145.107 733.206 Q145.107 740.312 146.913 743.877 Q148.742 747.419 152.353 747.419 Q155.987 747.419 157.792 743.877 Q159.621 740.312 159.621 733.206 Q159.621 726.076 157.792 722.535 Q155.987 718.97 152.353 718.97 M152.353 715.266 Q158.163 715.266 161.218 719.873 Q164.297 724.456 164.297 733.206 Q164.297 741.933 161.218 746.539 Q158.163 751.122 152.353 751.122 Q146.542 751.122 143.464 746.539 Q140.408 741.933 140.408 733.206 Q140.408 724.456 143.464 719.873 Q146.542 715.266 152.353 715.266 Z" fill="#000000" fill-rule="nonzero" fill-opacity="1" /><path clip-path="url(#clip110)" d="M182.514 718.97 Q178.903 718.97 177.075 722.535 Q175.269 726.076 175.269 733.206 Q175.269 740.312 177.075 743.877 Q178.903 747.419 182.514 747.419 Q186.149 747.419 187.954 743.877 Q189.783 740.312 189.783 733.206 Q189.783 726.076 187.954 722.535 Q186.149 718.97 182.514 718.97 M182.514 715.266 Q188.325 715.266 191.38 719.873 Q194.459 724.456 194.459 733.206 Q194.459 741.933 191.38 746.539 Q188.325 751.122 182.514 751.122 Q176.704 751.122 173.626 746.539 Q170.57 741.933 170.57 733.206 Q170.57 724.456 173.626 719.873 Q176.704 715.266 182.514 715.266 Z" fill="#000000" fill-rule="nonzero" fill-opacity="1" /><path clip-path="url(#clip110)" d="M112.237 176.283 L130.593 176.283 L130.593 180.218 L116.519 180.218 L116.519 188.69 Q117.538 188.343 118.556 188.181 Q119.575 187.996 120.594 187.996 Q126.381 187.996 129.76 191.167 Q133.14 194.339 133.14 199.755 Q133.14 205.334 129.668 208.436 Q126.195 211.514 119.876 211.514 Q117.7 211.514 115.431 211.144 Q113.186 210.774 110.779 210.033 L110.779 205.334 Q112.862 206.468 115.084 207.024 Q117.306 207.579 119.783 207.579 Q123.788 207.579 126.126 205.473 Q128.464 203.366 128.464 199.755 Q128.464 196.144 126.126 194.038 Q123.788 191.931 119.783 191.931 Q117.908 191.931 116.033 192.348 Q114.182 192.764 112.237 193.644 L112.237 176.283 Z" fill="#000000" fill-rule="nonzero" fill-opacity="1" /><path clip-path="url(#clip110)" d="M152.353 179.362 Q148.742 179.362 146.913 182.927 Q145.107 186.468 145.107 193.598 Q145.107 200.704 146.913 204.269 Q148.742 207.811 152.353 207.811 Q155.987 207.811 157.792 204.269 Q159.621 200.704 159.621 193.598 Q159.621 186.468 157.792 182.927 Q155.987 179.362 152.353 179.362 M152.353 175.658 Q158.163 175.658 161.218 180.265 Q164.297 184.848 164.297 193.598 Q164.297 202.325 161.218 206.931 Q158.163 211.514 152.353 211.514 Q146.542 211.514 143.464 206.931 Q140.408 202.325 140.408 193.598 Q140.408 184.848 143.464 180.265 Q146.542 175.658 152.353 175.658 Z" fill="#000000" fill-rule="nonzero" fill-opacity="1" /><path clip-path="url(#clip110)" d="M182.514 179.362 Q178.903 179.362 177.075 182.927 Q175.269 186.468 175.269 193.598 Q175.269 200.704 177.075 204.269 Q178.903 207.811 182.514 207.811 Q186.149 207.811 187.954 204.269 Q189.783 200.704 189.783 193.598 Q189.783 186.468 187.954 182.927 Q186.149 179.362 182.514 179.362 M182.514 175.658 Q188.325 175.658 191.38 180.265 Q194.459 184.848 194.459 193.598 Q194.459 202.325 191.38 206.931 Q188.325 211.514 182.514 211.514 Q176.704 211.514 173.626 206.931 Q170.57 202.325 170.57 193.598 Q170.57 184.848 173.626 180.265 Q176.704 175.658 182.514 175.658 Z" fill="#000000" fill-rule="nonzero" fill-opacity="1" /><path clip-path="url(#clip110)" d="M37.5802 1501.38 L18.1011 1501.38 L18.1011 1514.65 Q18.1011 1520.57 14.409 1524.1 Q10.685 1527.64 3.10986 1527.64 L-9.93984 1527.64 L-9.93984 1521.24 L2.6006 1521.24 Q7.66134 1521.24 10.1758 1519.27 Q12.6902 1517.29 12.6902 1513.35 L12.6902 1501.38 L-9.93984 1501.38 L-9.93984 1494.92 L37.5802 1494.92 L37.5802 1501.38 Z" fill="#000000" fill-rule="nonzero" fill-opacity="1" /><path clip-path="url(#clip110)" d="M1.9322 1452.08 L37.5802 1452.08 L37.5802 1457.9 L8.96631 1457.9 L37.5802 1475.09 L37.5802 1482.6 L1.9322 1482.6 L1.9322 1476.77 L30.4824 1476.77 L1.9322 1459.62 L1.9322 1452.08 Z" fill="#000000" fill-rule="nonzero" fill-opacity="1" /><path clip-path="url(#clip110)" d="M3.30083 1414.36 L8.77533 1414.36 Q7.40671 1416.84 6.73831 1419.36 Q6.03808 1421.84 6.03808 1424.39 Q6.03808 1430.08 9.66653 1433.23 Q13.2632 1436.38 19.788 1436.38 Q26.3129 1436.38 29.9413 1433.23 Q33.5379 1430.08 33.5379 1424.39 Q33.5379 1421.84 32.8695 1419.36 Q32.1693 1416.84 30.8007 1414.36 L36.2115 1414.36 Q37.3574 1416.81 37.9303 1419.45 Q38.5032 1422.06 38.5032 1425.02 Q38.5032 1433.07 33.4424 1437.82 Q28.3817 1442.56 19.788 1442.56 Q11.067 1442.56 6.06991 1437.78 Q1.07283 1432.98 1.07283 1424.64 Q1.07283 1421.93 1.64574 1419.36 Q2.18683 1416.78 3.30083 1414.36 Z" fill="#000000" fill-rule="nonzero" fill-opacity="1" /><path clip-path="url(#clip110)" d="M37.5802 1407.9 L32.7104 1407.9 Q31.8192 1402.11 27.8088 1400.32 Q22.1751 1398.16 7.75682 1398.16 L1.9322 1398.16 L1.9322 1374.06 L37.5802 1374.06 L37.5802 1379.92 L6.61099 1379.92 L6.61099 1392.3 L10.144 1392.3 Q23.8939 1392.3 30.0686 1395.1 Q36.6571 1398.09 37.5802 1407.9 Z" fill="#000000" fill-rule="nonzero" fill-opacity="1" /><path clip-path="url(#clip110)" d="M18.2921 1332.02 L21.1566 1332.02 L21.1566 1358.95 Q27.2041 1358.56 30.3869 1355.32 Q33.5379 1352.04 33.5379 1346.21 Q33.5379 1342.84 32.7104 1339.69 Q31.8829 1336.51 30.2278 1333.39 L35.7659 1333.39 Q37.1027 1336.54 37.803 1339.85 Q38.5032 1343.16 38.5032 1346.56 Q38.5032 1355.09 33.5379 1360.09 Q28.5727 1365.06 20.1063 1365.06 Q11.3534 1365.06 6.22905 1360.35 Q1.07283 1355.6 1.07283 1347.58 Q1.07283 1340.39 5.7198 1336.22 Q10.3349 1332.02 18.2921 1332.02 M16.5733 1337.88 Q11.7672 1337.94 8.90265 1340.58 Q6.03808 1343.19 6.03808 1347.52 Q6.03808 1352.42 8.80716 1355.38 Q11.5762 1358.31 16.6052 1358.75 L16.5733 1337.88 Z" fill="#000000" fill-rule="nonzero" fill-opacity="1" /><path clip-path="url(#clip110)" d="M1.9322 1322.63 L1.9322 1316.74 L16.4778 1316.74 L16.4778 1297.74 L1.9322 1297.74 L1.9322 1291.85 L37.5802 1291.85 L37.5802 1297.74 L21.1566 1297.74 L21.1566 1316.74 L37.5802 1316.74 L37.5802 1322.63 L1.9322 1322.63 Z" fill="#000000" fill-rule="nonzero" fill-opacity="1" /><path clip-path="url(#clip110)" d="M1.9322 1280.01 L1.9322 1274.12 L16.4778 1274.12 L16.4778 1255.12 L1.9322 1255.12 L1.9322 1249.23 L37.5802 1249.23 L37.5802 1255.12 L21.1566 1255.12 L21.1566 1274.12 L37.5802 1274.12 L37.5802 1280.01 L1.9322 1280.01 Z" fill="#000000" fill-rule="nonzero" fill-opacity="1" /><path clip-path="url(#clip110)" d="M6.03808 1223.36 Q6.03808 1228.07 9.73019 1230.8 Q13.3905 1233.54 19.788 1233.54 Q26.1855 1233.54 29.8777 1230.84 Q33.5379 1228.1 33.5379 1223.36 Q33.5379 1218.68 29.8458 1215.94 Q26.1537 1213.2 19.788 1213.2 Q13.4541 1213.2 9.76202 1215.94 Q6.03808 1218.68 6.03808 1223.36 M1.07283 1223.36 Q1.07283 1215.72 6.03808 1211.36 Q11.0033 1207 19.788 1207 Q28.5409 1207 33.5379 1211.36 Q38.5032 1215.72 38.5032 1223.36 Q38.5032 1231.03 33.5379 1235.39 Q28.5409 1239.72 19.788 1239.72 Q11.0033 1239.72 6.03808 1235.39 Q1.07283 1231.03 1.07283 1223.36 Z" fill="#000000" fill-rule="nonzero" fill-opacity="1" /><path clip-path="url(#clip110)" d="M3.30083 1171.63 L8.77533 1171.63 Q7.40671 1174.12 6.73831 1176.63 Q6.03808 1179.11 6.03808 1181.66 Q6.03808 1187.36 9.66653 1190.51 Q13.2632 1193.66 19.788 1193.66 Q26.3129 1193.66 29.9413 1190.51 Q33.5379 1187.36 33.5379 1181.66 Q33.5379 1179.11 32.8695 1176.63 Q32.1693 1174.12 30.8007 1171.63 L36.2115 1171.63 Q37.3574 1174.09 37.9303 1176.73 Q38.5032 1179.34 38.5032 1182.3 Q38.5032 1190.35 33.4424 1195.09 Q28.3817 1199.83 19.788 1199.83 Q11.067 1199.83 6.06991 1195.06 Q1.07283 1190.25 1.07283 1181.92 Q1.07283 1179.21 1.64574 1176.63 Q2.18683 1174.05 3.30083 1171.63 Z" fill="#000000" fill-rule="nonzero" fill-opacity="1" /><path clip-path="url(#clip110)" d="M1.9322 1165.68 L1.9322 1131.53 L6.61099 1131.53 L6.61099 1145.73 L37.5802 1145.73 L37.5802 1151.49 L6.61099 1151.49 L6.61099 1165.68 L1.9322 1165.68 Z" fill="#000000" fill-rule="nonzero" fill-opacity="1" /><path clip-path="url(#clip110)" d="M27.0131 1101.29 Q24.1485 1101.29 22.6526 1103.39 Q21.1566 1105.46 21.1566 1109.47 L21.1566 1117.81 L32.9014 1117.81 L32.9014 1109.47 Q32.9014 1105.46 31.4054 1103.39 Q29.8777 1101.29 27.0131 1101.29 M1.9322 1123.7 L1.9322 1117.81 L16.4778 1117.81 L16.4778 1109.22 Q16.4778 1102.41 19.0878 1098.75 Q21.6659 1095.06 27.0131 1095.06 Q32.3603 1095.06 34.9702 1098.75 Q37.5802 1102.41 37.5802 1109.22 L37.5802 1123.7 L1.9322 1123.7 Z" fill="#000000" fill-rule="nonzero" fill-opacity="1" /><path clip-path="url(#clip110)" d="M894.717 12.096 L906.91 12.096 L922.344 53.2532 L937.859 12.096 L950.052 12.096 L950.052 72.576 L942.072 72.576 L942.072 19.4686 L926.476 60.9499 L918.252 60.9499 L902.656 19.4686 L902.656 72.576 L894.717 72.576 L894.717 12.096 Z" fill="#000000" fill-rule="nonzero" fill-opacity="1" /><path clip-path="url(#clip110)" d="M983.553 32.4315 Q977.558 32.4315 974.074 37.1306 Q970.59 41.7891 970.59 49.9314 Q970.59 58.0738 974.033 62.7728 Q977.517 67.4314 983.553 67.4314 Q989.508 67.4314 992.992 62.7323 Q996.475 58.0333 996.475 49.9314 Q996.475 41.8701 992.992 37.1711 Q989.508 32.4315 983.553 32.4315 M983.553 26.1121 Q993.275 26.1121 998.825 32.4315 Q1004.37 38.7509 1004.37 49.9314 Q1004.37 61.0714 998.825 67.4314 Q993.275 73.7508 983.553 73.7508 Q973.79 73.7508 968.241 67.4314 Q962.731 61.0714 962.731 49.9314 Q962.731 38.7509 968.241 32.4315 Q973.79 26.1121 983.553 26.1121 Z" fill="#000000" fill-rule="nonzero" fill-opacity="1" /><path clip-path="url(#clip110)" d="M1026.86 66.6212 L1048.49 66.6212 L1048.49 33.1607 L1032.81 33.1607 L1032.81 38.832 Q1032.81 55.5217 1028.03 64.4337 L1026.86 66.6212 M1016.04 66.6212 Q1019.73 65.0008 1021.35 61.5575 Q1025.32 53.0101 1025.32 35.7938 L1025.32 27.2059 L1055.98 27.2059 L1055.98 66.6212 L1061.94 66.6212 L1061.94 84.0401 L1055.98 84.0401 L1055.98 72.576 L1019.2 72.576 L1019.2 84.0401 L1013.25 84.0401 L1013.25 66.6212 L1016.04 66.6212 Z" fill="#000000" fill-rule="nonzero" fill-opacity="1" /><path clip-path="url(#clip110)" d="M1112.9 48.0275 L1112.9 51.6733 L1078.63 51.6733 Q1079.11 59.3701 1083.25 63.421 Q1087.42 67.4314 1094.83 67.4314 Q1099.13 67.4314 1103.14 66.3781 Q1107.19 65.3249 1111.16 63.2184 L1111.16 70.267 Q1107.15 71.9684 1102.93 72.8596 Q1098.72 73.7508 1094.39 73.7508 Q1083.53 73.7508 1077.17 67.4314 Q1070.85 61.1119 1070.85 50.3365 Q1070.85 39.1965 1076.85 32.6746 Q1082.88 26.1121 1093.09 26.1121 Q1102.24 26.1121 1107.55 32.0264 Q1112.9 37.9003 1112.9 48.0275 M1105.44 45.84 Q1105.36 39.7232 1102 36.0774 Q1098.68 32.4315 1093.17 32.4315 Q1086.93 32.4315 1083.16 35.9558 Q1079.44 39.4801 1078.87 45.8805 L1105.44 45.84 Z" fill="#000000" fill-rule="nonzero" fill-opacity="1" /><path clip-path="url(#clip110)" d="M1120.39 72.576 L1120.39 66.3781 Q1127.77 65.2439 1130.03 60.1397 Q1132.79 52.9696 1132.79 34.619 L1132.79 27.2059 L1163.45 27.2059 L1163.45 72.576 L1156 72.576 L1156 33.1607 L1140.24 33.1607 L1140.24 37.6572 Q1140.24 55.1571 1136.68 63.0159 Q1132.87 71.4012 1120.39 72.576 Z" fill="#000000" fill-rule="nonzero" fill-opacity="1" /><path clip-path="url(#clip110)" d="M1206.39 59.127 Q1206.39 55.4812 1203.72 53.5773 Q1201.09 51.6733 1195.98 51.6733 L1185.37 51.6733 L1185.37 66.6212 L1195.98 66.6212 Q1201.09 66.6212 1203.72 64.7172 Q1206.39 62.7728 1206.39 59.127 M1177.87 27.2059 L1185.37 27.2059 L1185.37 45.7185 L1196.31 45.7185 Q1204.98 45.7185 1209.63 49.0402 Q1214.33 52.3215 1214.33 59.127 Q1214.33 65.9325 1209.63 69.2543 Q1204.98 72.576 1196.31 72.576 L1177.87 72.576 L1177.87 27.2059 Z" fill="#000000" fill-rule="nonzero" fill-opacity="1" /><path clip-path="url(#clip110)" d="M1279.27 39.9662 Q1285.14 41.222 1288.42 45.1919 Q1291.75 49.1618 1291.75 54.9951 Q1291.75 63.9476 1285.59 68.8492 Q1279.43 73.7508 1268.09 73.7508 Q1264.28 73.7508 1260.23 72.9811 Q1256.22 72.2519 1251.93 70.7531 L1251.93 62.8538 Q1255.33 64.8388 1259.38 65.8515 Q1263.43 66.8642 1267.85 66.8642 Q1275.54 66.8642 1279.55 63.826 Q1283.6 60.7879 1283.6 54.9951 Q1283.6 49.6479 1279.84 46.6502 Q1276.11 43.612 1269.43 43.612 L1262.38 43.612 L1262.38 36.8875 L1269.75 36.8875 Q1275.79 36.8875 1278.99 34.4975 Q1282.19 32.067 1282.19 27.5299 Q1282.19 22.8714 1278.86 20.4004 Q1275.58 17.8888 1269.43 17.8888 Q1266.06 17.8888 1262.21 18.618 Q1258.37 19.3471 1253.75 20.8865 L1253.75 13.5948 Q1258.41 12.2985 1262.46 11.6504 Q1266.55 11.0023 1270.15 11.0023 Q1279.47 11.0023 1284.9 15.2557 Q1290.33 19.4686 1290.33 26.6793 Q1290.33 31.7024 1287.45 35.1862 Q1284.58 38.6294 1279.27 39.9662 Z" fill="#000000" fill-rule="nonzero" fill-opacity="1" /><path clip-path="url(#clip110)" d="M1308.11 62.2867 L1316.66 62.2867 L1316.66 72.576 L1308.11 72.576 L1308.11 62.2867 M1308.11 29.6769 L1316.66 29.6769 L1316.66 39.9662 L1308.11 39.9662 L1308.11 29.6769 Z" fill="#000000" fill-rule="nonzero" fill-opacity="1" /><path clip-path="url(#clip110)" d="M1399.42 27.2059 L1399.42 72.576 L1391.92 72.576 L1391.92 33.1607 L1367.74 33.1607 L1367.74 72.576 L1360.25 72.576 L1360.25 27.2059 L1399.42 27.2059 Z" fill="#000000" fill-rule="nonzero" fill-opacity="1" /><path clip-path="url(#clip110)" d="M1435.39 49.7694 Q1426.36 49.7694 1422.87 51.8354 Q1419.39 53.9013 1419.39 58.8839 Q1419.39 62.8538 1421.98 65.2034 Q1424.62 67.5124 1429.11 67.5124 Q1435.31 67.5124 1439.04 63.1374 Q1442.8 58.7219 1442.8 51.4303 L1442.8 49.7694 L1435.39 49.7694 M1450.26 46.6907 L1450.26 72.576 L1442.8 72.576 L1442.8 65.6895 Q1440.25 69.8214 1436.44 71.8063 Q1432.64 73.7508 1427.13 73.7508 Q1420.16 73.7508 1416.03 69.8619 Q1411.94 65.9325 1411.94 59.3701 Q1411.94 51.7138 1417.04 47.825 Q1422.18 43.9361 1432.35 43.9361 L1442.8 43.9361 L1442.8 43.2069 Q1442.8 38.0623 1439.4 35.2672 Q1436.04 32.4315 1429.92 32.4315 Q1426.03 32.4315 1422.35 33.3632 Q1418.66 34.295 1415.26 36.1584 L1415.26 29.2718 Q1419.35 27.692 1423.2 26.9223 Q1427.05 26.1121 1430.69 26.1121 Q1440.54 26.1121 1445.4 31.2163 Q1450.26 36.3204 1450.26 46.6907 Z" fill="#000000" fill-rule="nonzero" fill-opacity="1" /><path clip-path="url(#clip110)" d="M1472.82 65.7705 L1472.82 89.8329 L1465.33 89.8329 L1465.33 27.2059 L1472.82 27.2059 L1472.82 34.0924 Q1475.17 30.0415 1478.74 28.0971 Q1482.34 26.1121 1487.32 26.1121 Q1495.59 26.1121 1500.73 32.6746 Q1505.92 39.2371 1505.92 49.9314 Q1505.92 60.6258 1500.73 67.1883 Q1495.59 73.7508 1487.32 73.7508 Q1482.34 73.7508 1478.74 71.8063 Q1475.17 69.8214 1472.82 65.7705 M1498.18 49.9314 Q1498.18 41.7081 1494.78 37.0496 Q1491.41 32.3505 1485.5 32.3505 Q1479.59 32.3505 1476.18 37.0496 Q1472.82 41.7081 1472.82 49.9314 Q1472.82 58.1548 1476.18 62.8538 Q1479.59 67.5124 1485.5 67.5124 Q1491.41 67.5124 1494.78 62.8538 Q1498.18 58.1548 1498.18 49.9314 Z" fill="#000000" fill-rule="nonzero" fill-opacity="1" /><path clip-path="url(#clip110)" d="M1512.88 27.2059 L1556.35 27.2059 L1556.35 33.1607 L1538.28 33.1607 L1538.28 72.576 L1530.95 72.576 L1530.95 33.1607 L1512.88 33.1607 L1512.88 27.2059 Z" fill="#000000" fill-rule="nonzero" fill-opacity="1" /><path clip-path="url(#clip110)" d="M1605.16 27.2059 L1605.16 72.576 L1597.75 72.576 L1597.75 36.1584 L1575.88 72.576 L1566.32 72.576 L1566.32 27.2059 L1573.73 27.2059 L1573.73 63.5425 L1595.56 27.2059 L1605.16 27.2059 Z" fill="#000000" fill-rule="nonzero" fill-opacity="1" /><path clip-path="url(#clip110)" d="M1641.3 48.1085 Q1646.32 49.0808 1649.12 52.0379 Q1651.91 54.9951 1651.91 59.3701 Q1651.91 66.3781 1646.69 70.0644 Q1641.46 73.7508 1631.82 73.7508 Q1628.58 73.7508 1625.14 73.1836 Q1621.73 72.6165 1618.09 71.4823 L1618.09 64.5552 Q1620.96 66.054 1624.41 66.8237 Q1627.85 67.5529 1631.62 67.5529 Q1637.73 67.5529 1641.14 65.2844 Q1644.58 63.0159 1644.58 59.3701 Q1644.58 55.8053 1641.54 53.6583 Q1638.5 51.4708 1632.95 51.4708 L1626.96 51.4708 L1626.96 45.3134 L1633.24 45.3134 Q1637.94 45.3134 1640.65 43.531 Q1643.4 41.7081 1643.4 38.8725 Q1643.4 36.2799 1640.57 34.4165 Q1637.77 32.5531 1632.95 32.5531 Q1630.08 32.5531 1626.8 33.0797 Q1623.56 33.6063 1619.63 34.7811 L1619.63 28.0161 Q1623.6 27.0438 1627.04 26.5577 Q1630.48 26.0716 1633.56 26.0716 Q1641.5 26.0716 1646.08 29.2718 Q1650.7 32.4315 1650.7 38.1433 Q1650.7 41.9107 1648.27 44.5437 Q1645.84 47.1363 1641.3 48.1085 Z" fill="#000000" fill-rule="nonzero" fill-opacity="1" /><path clip-path="url(#clip110)" d="M1685.25 49.7694 Q1676.22 49.7694 1672.73 51.8354 Q1669.25 53.9013 1669.25 58.8839 Q1669.25 62.8538 1671.84 65.2034 Q1674.48 67.5124 1678.97 67.5124 Q1685.17 67.5124 1688.9 63.1374 Q1692.66 58.7219 1692.66 51.4303 L1692.66 49.7694 L1685.25 49.7694 M1700.12 46.6907 L1700.12 72.576 L1692.66 72.576 L1692.66 65.6895 Q1690.11 69.8214 1686.3 71.8063 Q1682.5 73.7508 1676.99 73.7508 Q1670.02 73.7508 1665.89 69.8619 Q1661.8 65.9325 1661.8 59.3701 Q1661.8 51.7138 1666.9 47.825 Q1672.04 43.9361 1682.21 43.9361 L1692.66 43.9361 L1692.66 43.2069 Q1692.66 38.0623 1689.26 35.2672 Q1685.9 32.4315 1679.78 32.4315 Q1675.89 32.4315 1672.21 33.3632 Q1668.52 34.295 1665.12 36.1584 L1665.12 29.2718 Q1669.21 27.692 1673.06 26.9223 Q1676.91 26.1121 1680.55 26.1121 Q1690.4 26.1121 1695.26 31.2163 Q1700.12 36.3204 1700.12 46.6907 Z" fill="#000000" fill-rule="nonzero" fill-opacity="1" /><path clip-path="url(#clip110)" d="M1715.19 27.2059 L1722.68 27.2059 L1722.68 45.7185 L1746.86 45.7185 L1746.86 27.2059 L1754.36 27.2059 L1754.36 72.576 L1746.86 72.576 L1746.86 51.6733 L1722.68 51.6733 L1722.68 72.576 L1715.19 72.576 L1715.19 27.2059 Z" fill="#000000" fill-rule="nonzero" fill-opacity="1" /><path clip-path="url(#clip110)" d="M1802.36 28.9478 L1802.36 35.9153 Q1799.2 34.1734 1796 33.3227 Q1792.84 32.4315 1789.6 32.4315 Q1782.35 32.4315 1778.34 37.0496 Q1774.33 41.6271 1774.33 49.9314 Q1774.33 58.2358 1778.34 62.8538 Q1782.35 67.4314 1789.6 67.4314 Q1792.84 67.4314 1796 66.5807 Q1799.2 65.6895 1802.36 63.9476 L1802.36 70.8341 Q1799.24 72.2924 1795.88 73.0216 Q1792.56 73.7508 1788.79 73.7508 Q1778.54 73.7508 1772.51 67.3098 Q1766.47 60.8689 1766.47 49.9314 Q1766.47 38.832 1772.55 32.472 Q1778.66 26.1121 1789.28 26.1121 Q1792.72 26.1121 1796 26.8413 Q1799.28 27.5299 1802.36 28.9478 Z" fill="#000000" fill-rule="nonzero" fill-opacity="1" /><path clip-path="url(#clip110)" d="M1815.04 27.2059 L1822.45 27.2059 L1822.45 48.5136 L1843.48 27.2059 L1852.63 27.2059 L1835.3 44.7463 L1854.86 72.576 L1846.52 72.576 L1830.44 49.6884 L1822.45 57.7902 L1822.45 72.576 L1815.04 72.576 L1815.04 27.2059 Z" fill="#000000" fill-rule="nonzero" fill-opacity="1" /><path clip-path="url(#clip110)" d="M1904 27.2059 L1904 72.576 L1896.59 72.576 L1896.59 36.1584 L1874.71 72.576 L1865.15 72.576 L1865.15 27.2059 L1872.56 27.2059 L1872.56 63.5425 L1894.4 27.2059 L1904 27.2059 Z" fill="#000000" fill-rule="nonzero" fill-opacity="1" /><path clip-path="url(#clip110)" d="M1958.16 48.0275 L1958.16 51.6733 L1923.89 51.6733 Q1924.38 59.3701 1928.51 63.421 Q1932.68 67.4314 1940.09 67.4314 Q1944.39 67.4314 1948.4 66.3781 Q1952.45 65.3249 1956.42 63.2184 L1956.42 70.267 Q1952.41 71.9684 1948.19 72.8596 Q1943.98 73.7508 1939.65 73.7508 Q1928.79 73.7508 1922.43 67.4314 Q1916.11 61.1119 1916.11 50.3365 Q1916.11 39.1965 1922.11 32.6746 Q1928.14 26.1121 1938.35 26.1121 Q1947.51 26.1121 1952.81 32.0264 Q1958.16 37.9003 1958.16 48.0275 M1950.71 45.84 Q1950.63 39.7232 1947.26 36.0774 Q1943.94 32.4315 1938.43 32.4315 Q1932.19 32.4315 1928.43 35.9558 Q1924.7 39.4801 1924.13 45.8805 L1950.71 45.84 Z" fill="#000000" fill-rule="nonzero" fill-opacity="1" /><path clip-path="url(#clip110)" d="M2014.35 32.4315 Q2008.35 32.4315 2004.87 37.1306 Q2001.38 41.7891 2001.38 49.9314 Q2001.38 58.0738 2004.83 62.7728 Q2008.31 67.4314 2014.35 67.4314 Q2020.3 67.4314 2023.78 62.7323 Q2027.27 58.0333 2027.27 49.9314 Q2027.27 41.8701 2023.78 37.1711 Q2020.3 32.4315 2014.35 32.4315 M2014.35 26.1121 Q2024.07 26.1121 2029.62 32.4315 Q2035.17 38.7509 2035.17 49.9314 Q2035.17 61.0714 2029.62 67.4314 Q2024.07 73.7508 2014.35 73.7508 Q2004.58 73.7508 1999.03 67.4314 Q1993.52 61.0714 1993.52 49.9314 Q1993.52 38.7509 1999.03 32.4315 Q2004.58 26.1121 2014.35 26.1121 Z" fill="#000000" fill-rule="nonzero" fill-opacity="1" /><path clip-path="url(#clip110)" d="M2042.14 27.2059 L2085.6 27.2059 L2085.6 33.1607 L2067.53 33.1607 L2067.53 72.576 L2060.2 72.576 L2060.2 33.1607 L2042.14 33.1607 L2042.14 27.2059 Z" fill="#000000" fill-rule="nonzero" fill-opacity="1" /><path clip-path="url(#clip110)" d="M2103.06 65.7705 L2103.06 89.8329 L2095.57 89.8329 L2095.57 27.2059 L2103.06 27.2059 L2103.06 34.0924 Q2105.41 30.0415 2108.98 28.0971 Q2112.58 26.1121 2117.56 26.1121 Q2125.83 26.1121 2130.97 32.6746 Q2136.16 39.2371 2136.16 49.9314 Q2136.16 60.6258 2130.97 67.1883 Q2125.83 73.7508 2117.56 73.7508 Q2112.58 73.7508 2108.98 71.8063 Q2105.41 69.8214 2103.06 65.7705 M2128.42 49.9314 Q2128.42 41.7081 2125.02 37.0496 Q2121.65 32.3505 2115.74 32.3505 Q2109.83 32.3505 2106.42 37.0496 Q2103.06 41.7081 2103.06 49.9314 Q2103.06 58.1548 2106.42 62.8538 Q2109.83 67.5124 2115.74 67.5124 Q2121.65 67.5124 2125.02 62.8538 Q2128.42 58.1548 2128.42 49.9314 Z" fill="#000000" fill-rule="nonzero" fill-opacity="1" /><path clip-path="url(#clip110)" d="M2156.01 40.2903 Q2156.01 43.6525 2158.6 45.5565 Q2161.19 47.4604 2166.01 47.4604 L2176.06 47.4604 L2176.06 33.1607 L2166.01 33.1607 Q2161.19 33.1607 2158.6 35.0241 Q2156.01 36.8875 2156.01 40.2903 M2145.39 72.576 L2159.25 52.6861 Q2154.55 51.6328 2151.43 48.8782 Q2148.31 46.0831 2148.31 40.2903 Q2148.31 33.7278 2152.64 30.4871 Q2157.02 27.2059 2165.81 27.2059 L2183.55 27.2059 L2183.55 72.576 L2176.06 72.576 L2176.06 53.4152 L2166.78 53.4152 L2153.41 72.576 L2145.39 72.576 Z" fill="#000000" fill-rule="nonzero" fill-opacity="1" /><path clip-path="url(#clip110)" d="M2208.55 66.6212 L2230.18 66.6212 L2230.18 33.1607 L2214.5 33.1607 L2214.5 38.832 Q2214.5 55.5217 2209.72 64.4337 L2208.55 66.6212 M2197.73 66.6212 Q2201.42 65.0008 2203.04 61.5575 Q2207.01 53.0101 2207.01 35.7938 L2207.01 27.2059 L2237.67 27.2059 L2237.67 66.6212 L2243.63 66.6212 L2243.63 84.0401 L2237.67 84.0401 L2237.67 72.576 L2200.89 72.576 L2200.89 84.0401 L2194.94 84.0401 L2194.94 66.6212 L2197.73 66.6212 Z" fill="#000000" fill-rule="nonzero" fill-opacity="1" /><path clip-path="url(#clip110)" d="M2298.64 27.2059 L2306.09 27.2059 L2306.09 72.576 L2298.64 72.576 L2298.64 27.2059 M2302.37 26.1121 L2302.37 26.1121 M2284.01 59.127 Q2284.01 55.4812 2281.34 53.5773 Q2278.71 51.6733 2273.6 51.6733 L2262.99 51.6733 L2262.99 66.6212 L2273.6 66.6212 Q2278.71 66.6212 2281.34 64.7172 Q2284.01 62.7728 2284.01 59.127 M2255.5 27.2059 L2262.99 27.2059 L2262.99 45.7185 L2273.93 45.7185 Q2282.6 45.7185 2287.26 49.0402 Q2291.95 52.3215 2291.95 59.127 Q2291.95 65.9325 2287.26 69.2543 Q2282.6 72.576 2273.93 72.576 L2255.5 72.576 L2255.5 27.2059 Z" fill="#000000" fill-rule="nonzero" fill-opacity="1" /><path clip-path="url(#clip110)" d="M2357.78 66.6212 L2379.41 66.6212 L2379.41 33.1607 L2363.74 33.1607 L2363.74 38.832 Q2363.74 55.5217 2358.96 64.4337 L2357.78 66.6212 M2346.97 66.6212 Q2350.65 65.0008 2352.27 61.5575 Q2356.24 53.0101 2356.24 35.7938 L2356.24 27.2059 L2386.91 27.2059 L2386.91 66.6212 L2392.86 66.6212 L2392.86 84.0401 L2386.91 84.0401 L2386.91 72.576 L2350.13 72.576 L2350.13 84.0401 L2344.17 84.0401 L2344.17 66.6212 L2346.97 66.6212 Z" fill="#000000" fill-rule="nonzero" fill-opacity="1" /><path clip-path="url(#clip110)" d="M2412.23 65.7705 L2412.23 89.8329 L2404.73 89.8329 L2404.73 27.2059 L2412.23 27.2059 L2412.23 34.0924 Q2414.58 30.0415 2418.14 28.0971 Q2421.75 26.1121 2426.73 26.1121 Q2434.99 26.1121 2440.14 32.6746 Q2445.32 39.2371 2445.32 49.9314 Q2445.32 60.6258 2440.14 67.1883 Q2434.99 73.7508 2426.73 73.7508 Q2421.75 73.7508 2418.14 71.8063 Q2414.58 69.8214 2412.23 65.7705 M2437.58 49.9314 Q2437.58 41.7081 2434.18 37.0496 Q2430.82 32.3505 2424.91 32.3505 Q2418.99 32.3505 2415.59 37.0496 Q2412.23 41.7081 2412.23 49.9314 Q2412.23 58.1548 2415.59 62.8538 Q2418.99 67.5124 2424.91 67.5124 Q2430.82 67.5124 2434.18 62.8538 Q2437.58 58.1548 2437.58 49.9314 Z" fill="#000000" fill-rule="nonzero" fill-opacity="1" /><path clip-path="url(#clip110)" d="M2476.55 76.7889 Q2473.39 84.8907 2470.4 87.3618 Q2467.4 89.8329 2462.38 89.8329 L2456.42 89.8329 L2456.42 83.5945 L2460.8 83.5945 Q2463.87 83.5945 2465.58 82.1361 Q2467.28 80.6778 2469.34 75.2496 L2470.68 71.8468 L2452.33 27.2059 L2460.23 27.2059 L2474.41 62.6918 L2488.59 27.2059 L2496.48 27.2059 L2476.55 76.7889 Z" fill="#000000" fill-rule="nonzero" fill-opacity="1" /><path clip-path="url(#clip110)" d="M2506.49 72.576 L2506.49 27.2059 L2538.49 27.2059 L2538.49 33.1607 L2513.98 33.1607 L2513.98 72.576 L2506.49 72.576 Z" fill="#000000" fill-rule="nonzero" fill-opacity="1" /><path clip-path="url(#clip110)" d="M2615.62 27.2059 L2615.62 72.576 L2608.13 72.576 L2608.13 33.1607 L2583.94 33.1607 L2583.94 72.576 L2576.45 72.576 L2576.45 27.2059 L2615.62 27.2059 Z" fill="#000000" fill-rule="nonzero" fill-opacity="1" /><path clip-path="url(#clip110)" d="M2638.19 65.7705 L2638.19 89.8329 L2630.69 89.8329 L2630.69 27.2059 L2638.19 27.2059 L2638.19 34.0924 Q2640.53 30.0415 2644.1 28.0971 Q2647.7 26.1121 2652.69 26.1121 Q2660.95 26.1121 2666.1 32.6746 Q2671.28 39.2371 2671.28 49.9314 Q2671.28 60.6258 2666.1 67.1883 Q2660.95 73.7508 2652.69 73.7508 Q2647.7 73.7508 2644.1 71.8063 Q2640.53 69.8214 2638.19 65.7705 M2663.54 49.9314 Q2663.54 41.7081 2660.14 37.0496 Q2656.78 32.3505 2650.86 32.3505 Q2644.95 32.3505 2641.55 37.0496 Q2638.19 41.7081 2638.19 49.9314 Q2638.19 58.1548 2641.55 62.8538 Q2644.95 67.5124 2650.86 67.5124 Q2656.78 67.5124 2660.14 62.8538 Q2663.54 58.1548 2663.54 49.9314 Z" fill="#000000" fill-rule="nonzero" fill-opacity="1" /><path clip-path="url(#clip110)" d="M2701.22 32.4315 Q2695.22 32.4315 2691.74 37.1306 Q2688.25 41.7891 2688.25 49.9314 Q2688.25 58.0738 2691.7 62.7728 Q2695.18 67.4314 2701.22 67.4314 Q2707.17 67.4314 2710.66 62.7323 Q2714.14 58.0333 2714.14 49.9314 Q2714.14 41.8701 2710.66 37.1711 Q2707.17 32.4315 2701.22 32.4315 M2701.22 26.1121 Q2710.94 26.1121 2716.49 32.4315 Q2722.04 38.7509 2722.04 49.9314 Q2722.04 61.0714 2716.49 67.4314 Q2710.94 73.7508 2701.22 73.7508 Q2691.45 73.7508 2685.9 67.4314 Q2680.4 61.0714 2680.4 49.9314 Q2680.4 38.7509 2685.9 32.4315 Q2691.45 26.1121 2701.22 26.1121 Z" fill="#000000" fill-rule="nonzero" fill-opacity="1" /><path clip-path="url(#clip110)" d="M2729.01 27.2059 L2772.47 27.2059 L2772.47 33.1607 L2754.41 33.1607 L2754.41 72.576 L2747.07 72.576 L2747.07 33.1607 L2729.01 33.1607 L2729.01 27.2059 Z" fill="#000000" fill-rule="nonzero" fill-opacity="1" /><path clip-path="url(#clip110)" d="M2821.29 27.2059 L2821.29 72.576 L2813.87 72.576 L2813.87 36.1584 L2792 72.576 L2782.44 72.576 L2782.44 27.2059 L2789.85 27.2059 L2789.85 63.5425 L2811.69 27.2059 L2821.29 27.2059 Z" fill="#000000" fill-rule="nonzero" fill-opacity="1" /><path clip-path="url(#clip110)" d="M2843.81 51.6733 L2843.81 66.6212 L2854.42 66.6212 Q2859.53 66.6212 2862.2 64.7172 Q2864.87 62.7728 2864.87 59.127 Q2864.87 55.4812 2862.2 53.5773 Q2859.53 51.6733 2854.42 51.6733 L2843.81 51.6733 M2843.81 33.1607 L2843.81 45.7185 L2853.61 45.7185 Q2857.83 45.7185 2860.5 44.0576 Q2863.17 42.3563 2863.17 39.3586 Q2863.17 36.3609 2860.5 34.7811 Q2857.83 33.1607 2853.61 33.1607 L2843.81 33.1607 M2836.36 27.2059 L2854.1 27.2059 Q2862.08 27.2059 2866.37 30.1225 Q2870.67 33.0392 2870.67 38.4269 Q2870.67 42.5993 2868.48 45.0704 Q2866.29 47.5009 2862 48.1085 Q2867.14 49.0808 2869.98 52.1594 Q2872.81 55.2381 2872.81 59.8562 Q2872.81 65.9325 2868.11 69.2543 Q2863.46 72.576 2854.79 72.576 L2836.36 72.576 L2836.36 27.2059 Z" fill="#000000" fill-rule="nonzero" fill-opacity="1" /><path clip-path="url(#clip110)" d="M2922.03 66.6212 L2943.66 66.6212 L2943.66 33.1607 L2927.99 33.1607 L2927.99 38.832 Q2927.99 55.5217 2923.21 64.4337 L2922.03 66.6212 M2911.22 66.6212 Q2914.9 65.0008 2916.52 61.5575 Q2920.49 53.0101 2920.49 35.7938 L2920.49 27.2059 L2951.16 27.2059 L2951.16 66.6212 L2957.11 66.6212 L2957.11 84.0401 L2951.16 84.0401 L2951.16 72.576 L2914.38 72.576 L2914.38 84.0401 L2908.42 84.0401 L2908.42 66.6212 L2911.22 66.6212 Z" fill="#000000" fill-rule="nonzero" fill-opacity="1" /><path clip-path="url(#clip110)" d="M2976.48 65.7705 L2976.48 89.8329 L2968.98 89.8329 L2968.98 27.2059 L2976.48 27.2059 L2976.48 34.0924 Q2978.83 30.0415 2982.39 28.0971 Q2986 26.1121 2990.98 26.1121 Q2999.24 26.1121 3004.39 32.6746 Q3009.57 39.2371 3009.57 49.9314 Q3009.57 60.6258 3004.39 67.1883 Q2999.24 73.7508 2990.98 73.7508 Q2986 73.7508 2982.39 71.8063 Q2978.83 69.8214 2976.48 65.7705 M3001.84 49.9314 Q3001.84 41.7081 2998.43 37.0496 Q2995.07 32.3505 2989.16 32.3505 Q2983.24 32.3505 2979.84 37.0496 Q2976.48 41.7081 2976.48 49.9314 Q2976.48 58.1548 2979.84 62.8538 Q2983.24 67.5124 2989.16 67.5124 Q2995.07 67.5124 2998.43 62.8538 Q3001.84 58.1548 3001.84 49.9314 Z" fill="#000000" fill-rule="nonzero" fill-opacity="1" /><path clip-path="url(#clip110)" d="M3040.8 76.7889 Q3037.64 84.8907 3034.65 87.3618 Q3031.65 89.8329 3026.63 89.8329 L3020.67 89.8329 L3020.67 83.5945 L3025.05 83.5945 Q3028.13 83.5945 3029.83 82.1361 Q3031.53 80.6778 3033.59 75.2496 L3034.93 71.8468 L3016.58 27.2059 L3024.48 27.2059 L3038.66 62.6918 L3052.84 27.2059 L3060.74 27.2059 L3040.8 76.7889 Z" fill="#000000" fill-rule="nonzero" fill-opacity="1" /><path clip-path="url(#clip110)" d="M3070.74 72.576 L3070.74 27.2059 L3102.74 27.2059 L3102.74 33.1607 L3078.24 33.1607 L3078.24 72.576 L3070.74 72.576 Z" fill="#000000" fill-rule="nonzero" fill-opacity="1" /><path clip-path="url(#clip110)" d="M3135.23 49.7694 Q3126.2 49.7694 3122.71 51.8354 Q3119.23 53.9013 3119.23 58.8839 Q3119.23 62.8538 3121.82 65.2034 Q3124.46 67.5124 3128.95 67.5124 Q3135.15 67.5124 3138.88 63.1374 Q3142.64 58.7219 3142.64 51.4303 L3142.64 49.7694 L3135.23 49.7694 M3150.1 46.6907 L3150.1 72.576 L3142.64 72.576 L3142.64 65.6895 Q3140.09 69.8214 3136.28 71.8063 Q3132.48 73.7508 3126.97 73.7508 Q3120 73.7508 3115.87 69.8619 Q3111.78 65.9325 3111.78 59.3701 Q3111.78 51.7138 3116.88 47.825 Q3122.03 43.9361 3132.19 43.9361 L3142.64 43.9361 L3142.64 43.2069 Q3142.64 38.0623 3139.24 35.2672 Q3135.88 32.4315 3129.76 32.4315 Q3125.87 32.4315 3122.19 33.3632 Q3118.5 34.295 3115.1 36.1584 L3115.1 29.2718 Q3119.19 27.692 3123.04 26.9223 Q3126.89 26.1121 3130.53 26.1121 Q3140.38 26.1121 3145.24 31.2163 Q3150.1 36.3204 3150.1 46.6907 Z" fill="#000000" fill-rule="nonzero" fill-opacity="1" /><polyline clip-path="url(#clip112)" style="stroke:#0000ff; stroke-linecap:round; stroke-linejoin:round; stroke-width:8; stroke-opacity:1; fill:none" points="252.059,193.563 287.466,400.208 322.873,574.872 358.28,724.46 393.687,853.986 429.094,967.227 464.501,1067.11 499.908,1155.84 535.315,1235.18 570.722,1306.56 606.129,1371.12 641.536,1429.8 676.942,1483.35 712.349,1532.4 747.756,1577.52 783.163,1619.17 818.57,1657.75 853.977,1693.55 889.384,1726.89 924.791,1758 960.198,1787.1 995.605,1814.38 1031.01,1840.01 1066.42,1864.13 1101.83,1886.89 1137.23,1908.38 1172.64,1928.71 1208.05,1947.96 1243.45,1966.21 1278.86,1983.56 1314.27,2000.06 1349.67,2015.79 1385.08,2030.8 1420.49,2045.14 1455.9,2058.86 1491.3,2071.99 1526.71,2084.57 1562.12,2096.63 1597.52,2108.21 1632.93,2119.33 1668.34,2130.02 1703.74,2140.3 1739.15,2150.21 1774.56,2159.76 1809.97,2168.97 1845.37,2177.86 1880.78,2186.44 1916.19,2194.74 1951.59,2202.77 1987,2210.53 2022.41,2218.05 2057.81,2225.34 2093.22,2232.4 2128.63,2239.25 2164.04,2245.9 2199.44,2252.35 2234.85,2258.62 2270.26,2264.71 2305.66,2270.64 2341.07,2276.41 2376.48,2282.03 2411.88,2287.5 2447.29,2292.82 2482.7,2298.02 2518.1,2303.08 2553.51,2308.02 2588.92,2312.84 2624.33,2317.55 2659.73,2322.14 2695.14,2326.63 2730.55,2331.02 2765.95,2335.31 2801.36,2339.5 2836.77,2343.6 2872.17,2347.62 2907.58,2351.55 2942.99,2355.39 2978.4,2359.16 3013.8,2362.86 3049.21,2366.48 3084.62,2370.03 3120.02,2373.51 3155.43,2376.92 3190.84,2380.27 3226.24,2383.56 3261.65,2386.79 3297.06,2389.96 3332.47,2393.07 3367.87,2396.13 3403.28,2399.14 3438.69,2402.1 3474.09,2405 3509.5,2407.86 3544.91,2410.67 3580.31,2413.43 3615.72,2416.15 3651.13,2418.83 3686.53,2421.46 3721.94,2424.06 3757.35,2426.61 3792.76,2429.13 "/>
<path clip-path="url(#clip110)" d="M2843.54 309.166 L3674.73 309.166 L3674.73 205.486 L2843.54 205.486  Z" fill="#ffffff" fill-rule="evenodd" fill-opacity="1"/>
<polyline clip-path="url(#clip110)" style="stroke:#000000; stroke-linecap:round; stroke-linejoin:round; stroke-width:4; stroke-opacity:1; fill:none" points="2843.54,309.166 3674.73,309.166 3674.73,205.486 2843.54,205.486 2843.54,309.166 "/>
<polyline clip-path="url(#clip110)" style="stroke:#0000ff; stroke-linecap:round; stroke-linejoin:round; stroke-width:8; stroke-opacity:1; fill:none" points="2882.88,257.326 3118.92,257.326 "/>
<path clip-path="url(#clip110)" d="M3182.92 248.68 L3173.54 261.296 L3183.4 274.606 L3178.38 274.606 L3170.83 264.421 L3163.29 274.606 L3158.26 274.606 L3168.33 261.041 L3159.12 248.68 L3164.14 248.68 L3171.02 257.916 L3177.89 248.68 L3182.92 248.68 Z" fill="#000000" fill-rule="nonzero" fill-opacity="1" /><path clip-path="url(#clip110)" d="M3199.65 238.634 Q3196.55 243.958 3195.05 249.166 Q3193.54 254.375 3193.54 259.722 Q3193.54 265.069 3195.05 270.324 Q3196.57 275.555 3199.65 280.856 L3195.95 280.856 Q3192.48 275.416 3190.74 270.162 Q3189.03 264.907 3189.03 259.722 Q3189.03 254.56 3190.74 249.328 Q3192.45 244.097 3195.95 238.634 L3199.65 238.634 Z" fill="#000000" fill-rule="nonzero" fill-opacity="1" /><path clip-path="url(#clip110)" d="M3212.13 241.319 L3212.13 248.68 L3220.9 248.68 L3220.9 251.99 L3212.13 251.99 L3212.13 266.064 Q3212.13 269.236 3212.99 270.139 Q3213.87 271.041 3216.53 271.041 L3220.9 271.041 L3220.9 274.606 L3216.53 274.606 Q3211.6 274.606 3209.72 272.777 Q3207.85 270.926 3207.85 266.064 L3207.85 251.99 L3204.72 251.99 L3204.72 248.68 L3207.85 248.68 L3207.85 241.319 L3212.13 241.319 Z" fill="#000000" fill-rule="nonzero" fill-opacity="1" /><path clip-path="url(#clip110)" d="M3225.83 238.634 L3229.54 238.634 Q3233.01 244.097 3234.72 249.328 Q3236.46 254.56 3236.46 259.722 Q3236.46 264.907 3234.72 270.162 Q3233.01 275.416 3229.54 280.856 L3225.83 280.856 Q3228.91 275.555 3230.42 270.324 Q3231.94 265.069 3231.94 259.722 Q3231.94 254.375 3230.42 249.166 Q3228.91 243.958 3225.83 238.634 Z" fill="#000000" fill-rule="nonzero" fill-opacity="1" /><path clip-path="url(#clip110)" d="M3257.92 259.953 L3300.69 259.953 L3300.69 263.287 L3257.92 263.287 L3257.92 259.953 Z" fill="#000000" fill-rule="nonzero" fill-opacity="1" /><path clip-path="url(#clip110)" d="M3344.77 248.68 L3344.77 274.606 L3340.49 274.606 L3340.49 252.083 L3326.67 252.083 L3326.67 274.606 L3322.38 274.606 L3322.38 248.68 L3344.77 248.68 Z" fill="#000000" fill-rule="nonzero" fill-opacity="1" /><path clip-path="url(#clip110)" d="M3365.32 261.574 Q3360.16 261.574 3358.17 262.754 Q3356.18 263.935 3356.18 266.782 Q3356.18 269.051 3357.66 270.393 Q3359.17 271.713 3361.74 271.713 Q3365.28 271.713 3367.41 269.213 Q3369.56 266.689 3369.56 262.523 L3369.56 261.574 L3365.32 261.574 M3373.82 259.815 L3373.82 274.606 L3369.56 274.606 L3369.56 270.671 Q3368.1 273.032 3365.93 274.166 Q3363.75 275.277 3360.6 275.277 Q3356.62 275.277 3354.26 273.055 Q3351.92 270.81 3351.92 267.06 Q3351.92 262.685 3354.84 260.463 Q3357.78 258.24 3363.59 258.24 L3369.56 258.24 L3369.56 257.824 Q3369.56 254.884 3367.62 253.287 Q3365.69 251.666 3362.2 251.666 Q3359.98 251.666 3357.87 252.199 Q3355.76 252.731 3353.82 253.796 L3353.82 249.861 Q3356.16 248.958 3358.36 248.518 Q3360.56 248.055 3362.64 248.055 Q3368.26 248.055 3371.04 250.972 Q3373.82 253.889 3373.82 259.815 Z" fill="#000000" fill-rule="nonzero" fill-opacity="1" /><path clip-path="url(#clip110)" d="M3386.71 270.717 L3386.71 284.467 L3382.43 284.467 L3382.43 248.68 L3386.71 248.68 L3386.71 252.615 Q3388.05 250.301 3390.09 249.19 Q3392.15 248.055 3395 248.055 Q3399.72 248.055 3402.66 251.805 Q3405.62 255.555 3405.62 261.666 Q3405.62 267.777 3402.66 271.527 Q3399.72 275.277 3395 275.277 Q3392.15 275.277 3390.09 274.166 Q3388.05 273.032 3386.71 270.717 M3401.2 261.666 Q3401.2 256.967 3399.26 254.305 Q3397.34 251.62 3393.96 251.62 Q3390.58 251.62 3388.63 254.305 Q3386.71 256.967 3386.71 261.666 Q3386.71 266.365 3388.63 269.051 Q3390.58 271.713 3393.96 271.713 Q3397.34 271.713 3399.26 269.051 Q3401.2 266.365 3401.2 261.666 Z" fill="#000000" fill-rule="nonzero" fill-opacity="1" /><path clip-path="url(#clip110)" d="M3409.61 248.68 L3434.44 248.68 L3434.44 252.083 L3424.12 252.083 L3424.12 274.606 L3419.93 274.606 L3419.93 252.083 L3409.61 252.083 L3409.61 248.68 Z" fill="#000000" fill-rule="nonzero" fill-opacity="1" /><path clip-path="url(#clip110)" d="M3462.34 248.68 L3462.34 274.606 L3458.1 274.606 L3458.1 253.796 L3445.6 274.606 L3440.14 274.606 L3440.14 248.68 L3444.37 248.68 L3444.37 269.444 L3456.85 248.68 L3462.34 248.68 Z" fill="#000000" fill-rule="nonzero" fill-opacity="1" /><path clip-path="url(#clip110)" d="M3482.99 260.625 Q3485.86 261.18 3487.45 262.87 Q3489.05 264.56 3489.05 267.06 Q3489.05 271.064 3486.06 273.171 Q3483.08 275.277 3477.57 275.277 Q3475.72 275.277 3473.75 274.953 Q3471.8 274.629 3469.72 273.981 L3469.72 270.023 Q3471.36 270.879 3473.33 271.319 Q3475.3 271.736 3477.45 271.736 Q3480.95 271.736 3482.89 270.439 Q3484.86 269.143 3484.86 267.06 Q3484.86 265.023 3483.12 263.796 Q3481.39 262.546 3478.22 262.546 L3474.79 262.546 L3474.79 259.027 L3478.38 259.027 Q3481.06 259.027 3482.61 258.009 Q3484.19 256.967 3484.19 255.347 Q3484.19 253.865 3482.57 252.801 Q3480.97 251.736 3478.22 251.736 Q3476.57 251.736 3474.7 252.037 Q3472.85 252.338 3470.6 253.009 L3470.6 249.143 Q3472.87 248.588 3474.84 248.31 Q3476.8 248.032 3478.56 248.032 Q3483.1 248.032 3485.72 249.861 Q3488.36 251.666 3488.36 254.93 Q3488.36 257.083 3486.97 258.588 Q3485.58 260.069 3482.99 260.625 Z" fill="#000000" fill-rule="nonzero" fill-opacity="1" /><path clip-path="url(#clip110)" d="M3508.1 261.574 Q3502.94 261.574 3500.95 262.754 Q3498.96 263.935 3498.96 266.782 Q3498.96 269.051 3500.44 270.393 Q3501.94 271.713 3504.51 271.713 Q3508.05 271.713 3510.18 269.213 Q3512.34 266.689 3512.34 262.523 L3512.34 261.574 L3508.1 261.574 M3516.6 259.815 L3516.6 274.606 L3512.34 274.606 L3512.34 270.671 Q3510.88 273.032 3508.7 274.166 Q3506.53 275.277 3503.38 275.277 Q3499.4 275.277 3497.04 273.055 Q3494.7 270.81 3494.7 267.06 Q3494.7 262.685 3497.61 260.463 Q3500.55 258.24 3506.36 258.24 L3512.34 258.24 L3512.34 257.824 Q3512.34 254.884 3510.39 253.287 Q3508.47 251.666 3504.98 251.666 Q3502.75 251.666 3500.65 252.199 Q3498.54 252.731 3496.6 253.796 L3496.6 249.861 Q3498.93 248.958 3501.13 248.518 Q3503.33 248.055 3505.42 248.055 Q3511.04 248.055 3513.82 250.972 Q3516.6 253.889 3516.6 259.815 Z" fill="#000000" fill-rule="nonzero" fill-opacity="1" /><path clip-path="url(#clip110)" d="M3525.21 248.68 L3529.49 248.68 L3529.49 259.259 L3543.31 259.259 L3543.31 248.68 L3547.59 248.68 L3547.59 274.606 L3543.31 274.606 L3543.31 262.662 L3529.49 262.662 L3529.49 274.606 L3525.21 274.606 L3525.21 248.68 Z" fill="#000000" fill-rule="nonzero" fill-opacity="1" /><path clip-path="url(#clip110)" d="M3580.85 248.68 L3585.11 248.68 L3585.11 274.606 L3580.85 274.606 L3580.85 248.68 M3582.98 248.055 L3582.98 248.055 M3572.5 266.921 Q3572.5 264.838 3570.97 263.75 Q3569.47 262.662 3566.55 262.662 L3560.48 262.662 L3560.48 271.203 L3566.55 271.203 Q3569.47 271.203 3570.97 270.115 Q3572.5 269.004 3572.5 266.921 M3556.2 248.68 L3560.48 248.68 L3560.48 259.259 L3566.73 259.259 Q3571.69 259.259 3574.35 261.157 Q3577.04 263.032 3577.04 266.921 Q3577.04 270.81 3574.35 272.708 Q3571.69 274.606 3566.73 274.606 L3556.2 274.606 L3556.2 248.68 Z" fill="#000000" fill-rule="nonzero" fill-opacity="1" /><path clip-path="url(#clip110)" d="M3607.38 240.046 L3612.41 240.046 L3620.99 252.893 L3629.63 240.046 L3634.65 240.046 L3623.54 256.643 L3635.39 274.606 L3630.37 274.606 L3620.65 259.907 L3610.85 274.606 L3605.81 274.606 L3618.15 256.157 L3607.38 240.046 Z" fill="#000000" fill-rule="nonzero" fill-opacity="1" /></svg>
