<?xml version="1.0" encoding="utf-8"?>
<svg xmlns="http://www.w3.org/2000/svg" xmlns:xlink="http://www.w3.org/1999/xlink" width="480" height="384" viewBox="0 0 1920 1536">
<defs>
  <clipPath id="clip530">
    <rect x="0" y="0" width="1920" height="1536"/>
  </clipPath>
</defs>
<path clip-path="url(#clip530)" d="M0 1536 L1920 1536 L1920 0 L0 0  Z" fill="#ffffff" fill-rule="evenodd" fill-opacity="1"/>
<defs>
  <clipPath id="clip531">
    <rect x="180" y="135" width="1694" height="1209"/>
  </clipPath>
</defs>
<path clip-path="url(#clip530)" d="M403.138 1343.4 L1872.76 1343.4 L1872.76 135.568 L403.138 135.568  Z" fill="#ffffff" fill-rule="evenodd" fill-opacity="1"/>
<defs>
  <clipPath id="clip532">
    <rect x="403" y="135" width="1471" height="1209"/>
  </clipPath>
</defs>
<polyline clip-path="url(#clip532)" style="stroke:#000000; stroke-linecap:round; stroke-linejoin:round; stroke-width:2; stroke-opacity:0.1; fill:none" points="598.779,1343.4 598.779,135.568 "/>
<polyline clip-path="url(#clip532)" style="stroke:#000000; stroke-linecap:round; stroke-linejoin:round; stroke-width:2; stroke-opacity:0.1; fill:none" points="906.875,1343.4 906.875,135.568 "/>
<polyline clip-path="url(#clip532)" style="stroke:#000000; stroke-linecap:round; stroke-linejoin:round; stroke-width:2; stroke-opacity:0.1; fill:none" points="1214.97,1343.4 1214.97,135.568 "/>
<polyline clip-path="url(#clip532)" style="stroke:#000000; stroke-linecap:round; stroke-linejoin:round; stroke-width:2; stroke-opacity:0.1; fill:none" points="1523.07,1343.4 1523.07,135.568 "/>
<polyline clip-path="url(#clip532)" style="stroke:#000000; stroke-linecap:round; stroke-linejoin:round; stroke-width:2; stroke-opacity:0.1; fill:none" points="1831.16,1343.4 1831.16,135.568 "/>
<polyline clip-path="url(#clip532)" style="stroke:#000000; stroke-linecap:round; stroke-linejoin:round; stroke-width:2; stroke-opacity:0.1; fill:none" points="403.138,1221.57 1872.76,1221.57 "/>
<polyline clip-path="url(#clip532)" style="stroke:#000000; stroke-linecap:round; stroke-linejoin:round; stroke-width:2; stroke-opacity:0.1; fill:none" points="403.138,1002.44 1872.76,1002.44 "/>
<polyline clip-path="url(#clip532)" style="stroke:#000000; stroke-linecap:round; stroke-linejoin:round; stroke-width:2; stroke-opacity:0.1; fill:none" points="403.138,783.312 1872.76,783.312 "/>
<polyline clip-path="url(#clip532)" style="stroke:#000000; stroke-linecap:round; stroke-linejoin:round; stroke-width:2; stroke-opacity:0.1; fill:none" points="403.138,564.183 1872.76,564.183 "/>
<polyline clip-path="url(#clip532)" style="stroke:#000000; stroke-linecap:round; stroke-linejoin:round; stroke-width:2; stroke-opacity:0.1; fill:none" points="403.138,345.055 1872.76,345.055 "/>
<polyline clip-path="url(#clip530)" style="stroke:#000000; stroke-linecap:round; stroke-linejoin:round; stroke-width:4; stroke-opacity:1; fill:none" points="403.138,1343.4 1872.76,1343.4 "/>
<polyline clip-path="url(#clip530)" style="stroke:#000000; stroke-linecap:round; stroke-linejoin:round; stroke-width:4; stroke-opacity:1; fill:none" points="598.779,1343.4 598.779,1324.51 "/>
<polyline clip-path="url(#clip530)" style="stroke:#000000; stroke-linecap:round; stroke-linejoin:round; stroke-width:4; stroke-opacity:1; fill:none" points="906.875,1343.4 906.875,1324.51 "/>
<polyline clip-path="url(#clip530)" style="stroke:#000000; stroke-linecap:round; stroke-linejoin:round; stroke-width:4; stroke-opacity:1; fill:none" points="1214.97,1343.4 1214.97,1324.51 "/>
<polyline clip-path="url(#clip530)" style="stroke:#000000; stroke-linecap:round; stroke-linejoin:round; stroke-width:4; stroke-opacity:1; fill:none" points="1523.07,1343.4 1523.07,1324.51 "/>
<polyline clip-path="url(#clip530)" style="stroke:#000000; stroke-linecap:round; stroke-linejoin:round; stroke-width:4; stroke-opacity:1; fill:none" points="1831.16,1343.4 1831.16,1324.51 "/>
<path clip-path="url(#clip530)" d="M576.962 1370.48 Q573.351 1370.48 571.523 1374.05 Q569.717 1377.59 569.717 1384.72 Q569.717 1391.83 571.523 1395.39 Q573.351 1398.93 576.962 1398.93 Q580.597 1398.93 582.402 1395.39 Q584.231 1391.83 584.231 1384.72 Q584.231 1377.59 582.402 1374.05 Q580.597 1370.48 576.962 1370.48 M576.962 1366.78 Q582.773 1366.78 585.828 1371.39 Q588.907 1375.97 588.907 1384.72 Q588.907 1393.45 585.828 1398.05 Q582.773 1402.64 576.962 1402.64 Q571.152 1402.64 568.074 1398.05 Q565.018 1393.45 565.018 1384.72 Q565.018 1375.97 568.074 1371.39 Q571.152 1366.78 576.962 1366.78 Z" fill="#000000" fill-rule="nonzero" fill-opacity="1" /><path clip-path="url(#clip530)" d="M597.124 1396.08 L602.009 1396.08 L602.009 1401.96 L597.124 1401.96 L597.124 1396.08 Z" fill="#000000" fill-rule="nonzero" fill-opacity="1" /><path clip-path="url(#clip530)" d="M616.221 1398.03 L632.541 1398.03 L632.541 1401.96 L610.596 1401.96 L610.596 1398.03 Q613.258 1395.27 617.842 1390.64 Q622.448 1385.99 623.629 1384.65 Q625.874 1382.13 626.754 1380.39 Q627.657 1378.63 627.657 1376.94 Q627.657 1374.19 625.712 1372.45 Q623.791 1370.71 620.689 1370.71 Q618.49 1370.71 616.036 1371.48 Q613.606 1372.24 610.828 1373.79 L610.828 1369.07 Q613.652 1367.94 616.106 1367.36 Q618.559 1366.78 620.596 1366.78 Q625.967 1366.78 629.161 1369.46 Q632.356 1372.15 632.356 1376.64 Q632.356 1378.77 631.545 1380.69 Q630.758 1382.59 628.652 1385.18 Q628.073 1385.85 624.971 1389.07 Q621.87 1392.26 616.221 1398.03 Z" fill="#000000" fill-rule="nonzero" fill-opacity="1" /><path clip-path="url(#clip530)" d="M884.017 1370.48 Q880.405 1370.48 878.577 1374.05 Q876.771 1377.59 876.771 1384.72 Q876.771 1391.83 878.577 1395.39 Q880.405 1398.93 884.017 1398.93 Q887.651 1398.93 889.456 1395.39 Q891.285 1391.83 891.285 1384.72 Q891.285 1377.59 889.456 1374.05 Q887.651 1370.48 884.017 1370.48 M884.017 1366.78 Q889.827 1366.78 892.882 1371.39 Q895.961 1375.97 895.961 1384.72 Q895.961 1393.45 892.882 1398.05 Q889.827 1402.64 884.017 1402.64 Q878.206 1402.64 875.128 1398.05 Q872.072 1393.45 872.072 1384.72 Q872.072 1375.97 875.128 1371.39 Q878.206 1366.78 884.017 1366.78 Z" fill="#000000" fill-rule="nonzero" fill-opacity="1" /><path clip-path="url(#clip530)" d="M904.179 1396.08 L909.063 1396.08 L909.063 1401.96 L904.179 1401.96 L904.179 1396.08 Z" fill="#000000" fill-rule="nonzero" fill-opacity="1" /><path clip-path="url(#clip530)" d="M932.095 1371.48 L920.29 1389.93 L932.095 1389.93 L932.095 1371.48 M930.868 1367.4 L936.748 1367.4 L936.748 1389.93 L941.678 1389.93 L941.678 1393.82 L936.748 1393.82 L936.748 1401.96 L932.095 1401.96 L932.095 1393.82 L916.493 1393.82 L916.493 1389.3 L930.868 1367.4 Z" fill="#000000" fill-rule="nonzero" fill-opacity="1" /><path clip-path="url(#clip530)" d="M1192.27 1370.48 Q1188.66 1370.48 1186.83 1374.05 Q1185.03 1377.59 1185.03 1384.72 Q1185.03 1391.83 1186.83 1395.39 Q1188.66 1398.93 1192.27 1398.93 Q1195.91 1398.93 1197.71 1395.39 Q1199.54 1391.83 1199.54 1384.72 Q1199.54 1377.59 1197.71 1374.05 Q1195.91 1370.48 1192.27 1370.48 M1192.27 1366.78 Q1198.08 1366.78 1201.14 1371.39 Q1204.22 1375.97 1204.22 1384.72 Q1204.22 1393.45 1201.14 1398.05 Q1198.08 1402.64 1192.27 1402.64 Q1186.46 1402.64 1183.39 1398.05 Q1180.33 1393.45 1180.33 1384.72 Q1180.33 1375.97 1183.39 1371.39 Q1186.46 1366.78 1192.27 1366.78 Z" fill="#000000" fill-rule="nonzero" fill-opacity="1" /><path clip-path="url(#clip530)" d="M1212.44 1396.08 L1217.32 1396.08 L1217.32 1401.96 L1212.44 1401.96 L1212.44 1396.08 Z" fill="#000000" fill-rule="nonzero" fill-opacity="1" /><path clip-path="url(#clip530)" d="M1238.08 1382.82 Q1234.94 1382.82 1233.08 1384.97 Q1231.26 1387.13 1231.26 1390.88 Q1231.26 1394.6 1233.08 1396.78 Q1234.94 1398.93 1238.08 1398.93 Q1241.23 1398.93 1243.06 1396.78 Q1244.91 1394.6 1244.91 1390.88 Q1244.91 1387.13 1243.06 1384.97 Q1241.23 1382.82 1238.08 1382.82 M1247.37 1368.17 L1247.37 1372.43 Q1245.61 1371.59 1243.8 1371.15 Q1242.02 1370.71 1240.26 1370.71 Q1235.63 1370.71 1233.18 1373.84 Q1230.75 1376.96 1230.4 1383.28 Q1231.77 1381.27 1233.83 1380.2 Q1235.89 1379.12 1238.36 1379.12 Q1243.57 1379.12 1246.58 1382.29 Q1249.61 1385.44 1249.61 1390.88 Q1249.61 1396.2 1246.46 1399.42 Q1243.32 1402.64 1238.08 1402.64 Q1232.09 1402.64 1228.92 1398.05 Q1225.75 1393.45 1225.75 1384.72 Q1225.75 1376.52 1229.64 1371.66 Q1233.52 1366.78 1240.08 1366.78 Q1241.83 1366.78 1243.62 1367.13 Q1245.42 1367.47 1247.37 1368.17 Z" fill="#000000" fill-rule="nonzero" fill-opacity="1" /><path clip-path="url(#clip530)" d="M1500.5 1370.48 Q1496.89 1370.48 1495.06 1374.05 Q1493.25 1377.59 1493.25 1384.72 Q1493.25 1391.83 1495.06 1395.39 Q1496.89 1398.93 1500.5 1398.93 Q1504.13 1398.93 1505.94 1395.39 Q1507.77 1391.83 1507.77 1384.72 Q1507.77 1377.59 1505.94 1374.05 Q1504.13 1370.48 1500.5 1370.48 M1500.5 1366.78 Q1506.31 1366.78 1509.36 1371.39 Q1512.44 1375.97 1512.44 1384.72 Q1512.44 1393.45 1509.36 1398.05 Q1506.31 1402.64 1500.5 1402.64 Q1494.69 1402.64 1491.61 1398.05 Q1488.55 1393.45 1488.55 1384.72 Q1488.55 1375.97 1491.61 1371.39 Q1494.69 1366.78 1500.5 1366.78 Z" fill="#000000" fill-rule="nonzero" fill-opacity="1" /><path clip-path="url(#clip530)" d="M1520.66 1396.08 L1525.54 1396.08 L1525.54 1401.96 L1520.66 1401.96 L1520.66 1396.08 Z" fill="#000000" fill-rule="nonzero" fill-opacity="1" /><path clip-path="url(#clip530)" d="M1545.73 1385.55 Q1542.4 1385.55 1540.47 1387.33 Q1538.58 1389.12 1538.58 1392.24 Q1538.58 1395.37 1540.47 1397.15 Q1542.4 1398.93 1545.73 1398.93 Q1549.06 1398.93 1550.98 1397.15 Q1552.9 1395.34 1552.9 1392.24 Q1552.9 1389.12 1550.98 1387.33 Q1549.09 1385.55 1545.73 1385.55 M1541.05 1383.56 Q1538.04 1382.82 1536.35 1380.76 Q1534.69 1378.7 1534.69 1375.74 Q1534.69 1371.59 1537.63 1369.19 Q1540.59 1366.78 1545.73 1366.78 Q1550.89 1366.78 1553.83 1369.19 Q1556.77 1371.59 1556.77 1375.74 Q1556.77 1378.7 1555.08 1380.76 Q1553.41 1382.82 1550.43 1383.56 Q1553.81 1384.35 1555.68 1386.64 Q1557.58 1388.93 1557.58 1392.24 Q1557.58 1397.26 1554.5 1399.95 Q1551.45 1402.64 1545.73 1402.64 Q1540.01 1402.64 1536.93 1399.95 Q1533.88 1397.26 1533.88 1392.24 Q1533.88 1388.93 1535.78 1386.64 Q1537.67 1384.35 1541.05 1383.56 M1539.34 1376.18 Q1539.34 1378.86 1541.01 1380.37 Q1542.7 1381.87 1545.73 1381.87 Q1548.74 1381.87 1550.43 1380.37 Q1552.14 1378.86 1552.14 1376.18 Q1552.14 1373.49 1550.43 1371.99 Q1548.74 1370.48 1545.73 1370.48 Q1542.7 1370.48 1541.01 1371.99 Q1539.34 1373.49 1539.34 1376.18 Z" fill="#000000" fill-rule="nonzero" fill-opacity="1" /><path clip-path="url(#clip530)" d="M1798.32 1398.03 L1805.95 1398.03 L1805.95 1371.66 L1797.64 1373.33 L1797.64 1369.07 L1805.91 1367.4 L1810.58 1367.4 L1810.58 1398.03 L1818.22 1398.03 L1818.22 1401.96 L1798.32 1401.96 L1798.32 1398.03 Z" fill="#000000" fill-rule="nonzero" fill-opacity="1" /><path clip-path="url(#clip530)" d="M1827.67 1396.08 L1832.55 1396.08 L1832.55 1401.96 L1827.67 1401.96 L1827.67 1396.08 Z" fill="#000000" fill-rule="nonzero" fill-opacity="1" /><path clip-path="url(#clip530)" d="M1852.74 1370.48 Q1849.13 1370.48 1847.3 1374.05 Q1845.49 1377.59 1845.49 1384.72 Q1845.49 1391.83 1847.3 1395.39 Q1849.13 1398.93 1852.74 1398.93 Q1856.37 1398.93 1858.18 1395.39 Q1860.01 1391.83 1860.01 1384.72 Q1860.01 1377.59 1858.18 1374.05 Q1856.37 1370.48 1852.74 1370.48 M1852.74 1366.78 Q1858.55 1366.78 1861.6 1371.39 Q1864.68 1375.97 1864.68 1384.72 Q1864.68 1393.45 1861.6 1398.05 Q1858.55 1402.64 1852.74 1402.64 Q1846.93 1402.64 1843.85 1398.05 Q1840.79 1393.45 1840.79 1384.72 Q1840.79 1375.97 1843.85 1371.39 Q1846.93 1366.78 1852.74 1366.78 Z" fill="#000000" fill-rule="nonzero" fill-opacity="1" /><path clip-path="url(#clip530)" d="M870.46 1437.21 L870.46 1443.99 Q867.214 1440.96 863.522 1439.47 Q859.861 1437.97 855.724 1437.97 Q847.575 1437.97 843.247 1442.97 Q838.918 1447.93 838.918 1457.36 Q838.918 1466.75 843.247 1471.74 Q847.575 1476.71 855.724 1476.71 Q859.861 1476.71 863.522 1475.21 Q867.214 1473.72 870.46 1470.69 L870.46 1477.41 Q867.086 1479.7 863.299 1480.85 Q859.543 1481.99 855.342 1481.99 Q844.552 1481.99 838.345 1475.4 Q832.139 1468.78 832.139 1457.36 Q832.139 1445.9 838.345 1439.31 Q844.552 1432.69 855.342 1432.69 Q859.607 1432.69 863.362 1433.83 Q867.15 1434.95 870.46 1437.21 Z" fill="#000000" fill-rule="nonzero" fill-opacity="1" /><path clip-path="url(#clip530)" d="M879.913 1445.42 L885.738 1445.42 L885.738 1462.16 L902.257 1445.42 L909.45 1445.42 L895.828 1459.2 L911.201 1481.07 L904.644 1481.07 L892.008 1463.08 L885.738 1469.45 L885.738 1481.07 L879.913 1481.07 L879.913 1445.42 Z" fill="#000000" fill-rule="nonzero" fill-opacity="1" /><path clip-path="url(#clip530)" d="M933.322 1449.53 Q928.611 1449.53 925.874 1453.22 Q923.136 1456.88 923.136 1463.28 Q923.136 1469.67 925.842 1473.37 Q928.579 1477.03 933.322 1477.03 Q938 1477.03 940.738 1473.33 Q943.475 1469.64 943.475 1463.28 Q943.475 1456.94 940.738 1453.25 Q938 1449.53 933.322 1449.53 M933.322 1444.56 Q940.96 1444.56 945.321 1449.53 Q949.681 1454.49 949.681 1463.28 Q949.681 1472.03 945.321 1477.03 Q940.96 1481.99 933.322 1481.99 Q925.651 1481.99 921.29 1477.03 Q916.962 1472.03 916.962 1463.28 Q916.962 1454.49 921.29 1449.53 Q925.651 1444.56 933.322 1444.56 Z" fill="#000000" fill-rule="nonzero" fill-opacity="1" /><path clip-path="url(#clip530)" d="M965.055 1475.72 L965.055 1494.63 L959.166 1494.63 L959.166 1445.42 L965.055 1445.42 L965.055 1450.83 Q966.901 1447.65 969.702 1446.12 Q972.534 1444.56 976.449 1444.56 Q982.942 1444.56 986.984 1449.72 Q991.059 1454.87 991.059 1463.28 Q991.059 1471.68 986.984 1476.83 Q982.942 1481.99 976.449 1481.99 Q972.534 1481.99 969.702 1480.46 Q966.901 1478.9 965.055 1475.72 M984.979 1463.28 Q984.979 1456.81 982.306 1453.15 Q979.664 1449.46 975.017 1449.46 Q970.37 1449.46 967.696 1453.15 Q965.055 1456.81 965.055 1463.28 Q965.055 1469.74 967.696 1473.43 Q970.37 1477.09 975.017 1477.09 Q979.664 1477.09 982.306 1473.43 Q984.979 1469.74 984.979 1463.28 Z" fill="#000000" fill-rule="nonzero" fill-opacity="1" /><path clip-path="url(#clip530)" d="M1014.58 1449.53 Q1009.87 1449.53 1007.13 1453.22 Q1004.39 1456.88 1004.39 1463.28 Q1004.39 1469.67 1007.1 1473.37 Q1009.84 1477.03 1014.58 1477.03 Q1019.26 1477.03 1022 1473.33 Q1024.73 1469.64 1024.73 1463.28 Q1024.73 1456.94 1022 1453.25 Q1019.26 1449.53 1014.58 1449.53 M1014.58 1444.56 Q1022.22 1444.56 1026.58 1449.53 Q1030.94 1454.49 1030.94 1463.28 Q1030.94 1472.03 1026.58 1477.03 Q1022.22 1481.99 1014.58 1481.99 Q1006.91 1481.99 1002.55 1477.03 Q998.22 1472.03 998.22 1463.28 Q998.22 1454.49 1002.55 1449.53 Q1006.91 1444.56 1014.58 1444.56 Z" fill="#000000" fill-rule="nonzero" fill-opacity="1" /><path clip-path="url(#clip530)" d="M1066.3 1446.79 L1066.3 1452.26 Q1063.82 1450.89 1061.3 1450.23 Q1058.82 1449.53 1056.28 1449.53 Q1050.58 1449.53 1047.43 1453.15 Q1044.28 1456.75 1044.28 1463.28 Q1044.28 1469.8 1047.43 1473.43 Q1050.58 1477.03 1056.28 1477.03 Q1058.82 1477.03 1061.3 1476.36 Q1063.82 1475.66 1066.3 1474.29 L1066.3 1479.7 Q1063.85 1480.85 1061.21 1481.42 Q1058.6 1481.99 1055.64 1481.99 Q1047.59 1481.99 1042.84 1476.93 Q1038.1 1471.87 1038.1 1463.28 Q1038.1 1454.55 1042.88 1449.56 Q1047.68 1444.56 1056.02 1444.56 Q1058.73 1444.56 1061.3 1445.13 Q1063.88 1445.67 1066.3 1446.79 Z" fill="#000000" fill-rule="nonzero" fill-opacity="1" /><path clip-path="url(#clip530)" d="M1072.25 1445.42 L1106.41 1445.42 L1106.41 1450.1 L1092.21 1450.1 L1092.21 1481.07 L1086.45 1481.07 L1086.45 1450.1 L1072.25 1450.1 L1072.25 1445.42 Z" fill="#000000" fill-rule="nonzero" fill-opacity="1" /><path clip-path="url(#clip530)" d="M1136.64 1470.5 Q1136.64 1467.64 1134.54 1466.14 Q1132.47 1464.64 1128.46 1464.64 L1120.12 1464.64 L1120.12 1476.39 L1128.46 1476.39 Q1132.47 1476.39 1134.54 1474.89 Q1136.64 1473.37 1136.64 1470.5 M1114.23 1445.42 L1120.12 1445.42 L1120.12 1459.97 L1128.72 1459.97 Q1135.53 1459.97 1139.19 1462.58 Q1142.88 1465.15 1142.88 1470.5 Q1142.88 1475.85 1139.19 1478.46 Q1135.53 1481.07 1128.72 1481.07 L1114.23 1481.07 L1114.23 1445.42 Z" fill="#000000" fill-rule="nonzero" fill-opacity="1" /><path clip-path="url(#clip530)" d="M1179.26 1475.72 L1179.26 1494.63 L1173.37 1494.63 L1173.37 1445.42 L1179.26 1445.42 L1179.26 1450.83 Q1181.11 1447.65 1183.91 1446.12 Q1186.74 1444.56 1190.66 1444.56 Q1197.15 1444.56 1201.19 1449.72 Q1205.26 1454.87 1205.26 1463.28 Q1205.26 1471.68 1201.19 1476.83 Q1197.15 1481.99 1190.66 1481.99 Q1186.74 1481.99 1183.91 1480.46 Q1181.11 1478.9 1179.26 1475.72 M1199.19 1463.28 Q1199.19 1456.81 1196.51 1453.15 Q1193.87 1449.46 1189.22 1449.46 Q1184.58 1449.46 1181.9 1453.15 Q1179.26 1456.81 1179.26 1463.28 Q1179.26 1469.74 1181.9 1473.43 Q1184.58 1477.09 1189.22 1477.09 Q1193.87 1477.09 1196.51 1473.43 Q1199.19 1469.74 1199.19 1463.28 Z" fill="#000000" fill-rule="nonzero" fill-opacity="1" /><path clip-path="url(#clip530)" d="M1228.79 1449.53 Q1224.08 1449.53 1221.34 1453.22 Q1218.6 1456.88 1218.6 1463.28 Q1218.6 1469.67 1221.31 1473.37 Q1224.04 1477.03 1228.79 1477.03 Q1233.46 1477.03 1236.2 1473.33 Q1238.94 1469.64 1238.94 1463.28 Q1238.94 1456.94 1236.2 1453.25 Q1233.46 1449.53 1228.79 1449.53 M1228.79 1444.56 Q1236.42 1444.56 1240.79 1449.53 Q1245.15 1454.49 1245.15 1463.28 Q1245.15 1472.03 1240.79 1477.03 Q1236.42 1481.99 1228.79 1481.99 Q1221.12 1481.99 1216.75 1477.03 Q1212.43 1472.03 1212.43 1463.28 Q1212.43 1454.49 1216.75 1449.53 Q1221.12 1444.56 1228.79 1444.56 Z" fill="#000000" fill-rule="nonzero" fill-opacity="1" /><path clip-path="url(#clip530)" d="M1280.51 1446.79 L1280.51 1452.26 Q1278.02 1450.89 1275.51 1450.23 Q1273.03 1449.53 1270.48 1449.53 Q1264.78 1449.53 1261.63 1453.15 Q1258.48 1456.75 1258.48 1463.28 Q1258.48 1469.8 1261.63 1473.43 Q1264.78 1477.03 1270.48 1477.03 Q1273.03 1477.03 1275.51 1476.36 Q1278.02 1475.66 1280.51 1474.29 L1280.51 1479.7 Q1278.06 1480.85 1275.41 1481.42 Q1272.8 1481.99 1269.84 1481.99 Q1261.79 1481.99 1257.05 1476.93 Q1252.31 1471.87 1252.31 1463.28 Q1252.31 1454.55 1257.08 1449.56 Q1261.89 1444.56 1270.23 1444.56 Q1272.93 1444.56 1275.51 1445.13 Q1278.09 1445.67 1280.51 1446.79 Z" fill="#000000" fill-rule="nonzero" fill-opacity="1" /><path clip-path="url(#clip530)" d="M1286.46 1445.42 L1320.61 1445.42 L1320.61 1450.1 L1306.42 1450.1 L1306.42 1481.07 L1300.65 1481.07 L1300.65 1450.1 L1286.46 1450.1 L1286.46 1445.42 Z" fill="#000000" fill-rule="nonzero" fill-opacity="1" /><path clip-path="url(#clip530)" d="M1344.86 1463.15 Q1337.77 1463.15 1335.03 1464.77 Q1332.29 1466.39 1332.29 1470.31 Q1332.29 1473.43 1334.33 1475.28 Q1336.4 1477.09 1339.93 1477.09 Q1344.8 1477.09 1347.73 1473.65 Q1350.69 1470.18 1350.69 1464.45 L1350.69 1463.15 L1344.86 1463.15 M1356.55 1460.73 L1356.55 1481.07 L1350.69 1481.07 L1350.69 1475.66 Q1348.68 1478.9 1345.69 1480.46 Q1342.7 1481.99 1338.37 1481.99 Q1332.9 1481.99 1329.65 1478.94 Q1326.44 1475.85 1326.44 1470.69 Q1326.44 1464.68 1330.45 1461.62 Q1334.49 1458.57 1342.48 1458.57 L1350.69 1458.57 L1350.69 1457.99 Q1350.69 1453.95 1348.02 1451.75 Q1345.37 1449.53 1340.57 1449.53 Q1337.51 1449.53 1334.62 1450.26 Q1331.72 1450.99 1329.05 1452.45 L1329.05 1447.04 Q1332.26 1445.8 1335.28 1445.2 Q1338.31 1444.56 1341.17 1444.56 Q1348.91 1444.56 1352.73 1448.57 Q1356.55 1452.58 1356.55 1460.73 Z" fill="#000000" fill-rule="nonzero" fill-opacity="1" /><path clip-path="url(#clip530)" d="M1370.1 1472.98 L1376.82 1472.98 L1376.82 1478.46 L1371.6 1488.64 L1367.49 1488.64 L1370.1 1478.46 L1370.1 1472.98 Z" fill="#000000" fill-rule="nonzero" fill-opacity="1" /><path clip-path="url(#clip530)" d="M1430.83 1464.49 L1429.43 1457.13 Q1428 1449.59 1422.34 1449.59 Q1418.07 1449.59 1416.13 1453.09 Q1413.68 1457.48 1413.68 1463.28 Q1413.68 1470.28 1416.06 1473.62 Q1418.48 1477.03 1422.34 1477.03 Q1426.6 1477.03 1428.89 1470.25 L1430.83 1464.49 M1434.11 1454.75 L1437.26 1445.42 L1442.48 1445.42 L1435.96 1464.74 L1437.23 1471.71 Q1437.52 1473.27 1438.63 1474.57 Q1439.94 1476.1 1440.95 1476.1 L1443.76 1476.1 L1443.76 1481.07 L1440.25 1481.07 Q1437.26 1481.07 1434.59 1478.39 Q1433.28 1477.06 1432.74 1474.26 Q1431.28 1477.79 1428.29 1480.56 Q1426.89 1481.86 1422.34 1481.86 Q1414.86 1481.86 1411.23 1477.03 Q1407.5 1472.03 1407.5 1463.28 Q1407.5 1453.92 1411.55 1449.53 Q1416.03 1444.62 1422.34 1444.62 Q1432.23 1444.62 1434.11 1454.75 Z" fill="#000000" fill-rule="nonzero" fill-opacity="1" /><polyline clip-path="url(#clip530)" style="stroke:#000000; stroke-linecap:round; stroke-linejoin:round; stroke-width:4; stroke-opacity:1; fill:none" points="403.138,1343.4 403.138,135.568 "/>
<polyline clip-path="url(#clip530)" style="stroke:#000000; stroke-linecap:round; stroke-linejoin:round; stroke-width:4; stroke-opacity:1; fill:none" points="403.138,1221.57 422.036,1221.57 "/>
<polyline clip-path="url(#clip530)" style="stroke:#000000; stroke-linecap:round; stroke-linejoin:round; stroke-width:4; stroke-opacity:1; fill:none" points="403.138,1002.44 422.036,1002.44 "/>
<polyline clip-path="url(#clip530)" style="stroke:#000000; stroke-linecap:round; stroke-linejoin:round; stroke-width:4; stroke-opacity:1; fill:none" points="403.138,783.312 422.036,783.312 "/>
<polyline clip-path="url(#clip530)" style="stroke:#000000; stroke-linecap:round; stroke-linejoin:round; stroke-width:4; stroke-opacity:1; fill:none" points="403.138,564.183 422.036,564.183 "/>
<polyline clip-path="url(#clip530)" style="stroke:#000000; stroke-linecap:round; stroke-linejoin:round; stroke-width:4; stroke-opacity:1; fill:none" points="403.138,345.055 422.036,345.055 "/>
<path clip-path="url(#clip530)" d="M141.789 1226.66 Q145.146 1227.38 147.021 1229.65 Q148.919 1231.92 148.919 1235.25 Q148.919 1240.37 145.4 1243.17 Q141.882 1245.97 135.4 1245.97 Q133.224 1245.97 130.91 1245.53 Q128.618 1245.11 126.164 1244.25 L126.164 1239.74 Q128.109 1240.87 130.423 1241.45 Q132.738 1242.03 135.261 1242.03 Q139.659 1242.03 141.951 1240.3 Q144.266 1238.56 144.266 1235.25 Q144.266 1232.19 142.113 1230.48 Q139.984 1228.75 136.164 1228.75 L132.136 1228.75 L132.136 1224.9 L136.349 1224.9 Q139.798 1224.9 141.627 1223.54 Q143.456 1222.15 143.456 1219.56 Q143.456 1216.89 141.558 1215.48 Q139.683 1214.05 136.164 1214.05 Q134.243 1214.05 132.044 1214.46 Q129.845 1214.88 127.206 1215.76 L127.206 1211.59 Q129.868 1210.85 132.183 1210.48 Q134.521 1210.11 136.581 1210.11 Q141.905 1210.11 145.007 1212.54 Q148.108 1214.95 148.108 1219.07 Q148.108 1221.94 146.465 1223.93 Q144.821 1225.9 141.789 1226.66 Z" fill="#000000" fill-rule="nonzero" fill-opacity="1" /><path clip-path="url(#clip530)" d="M157.784 1239.42 L162.669 1239.42 L162.669 1245.3 L157.784 1245.3 L157.784 1239.42 Z" fill="#000000" fill-rule="nonzero" fill-opacity="1" /><path clip-path="url(#clip530)" d="M182.854 1213.81 Q179.243 1213.81 177.414 1217.38 Q175.608 1220.92 175.608 1228.05 Q175.608 1235.16 177.414 1238.72 Q179.243 1242.26 182.854 1242.26 Q186.488 1242.26 188.293 1238.72 Q190.122 1235.16 190.122 1228.05 Q190.122 1220.92 188.293 1217.38 Q186.488 1213.81 182.854 1213.81 M182.854 1210.11 Q188.664 1210.11 191.719 1214.72 Q194.798 1219.3 194.798 1228.05 Q194.798 1236.78 191.719 1241.38 Q188.664 1245.97 182.854 1245.97 Q177.044 1245.97 173.965 1241.38 Q170.909 1236.78 170.909 1228.05 Q170.909 1219.3 173.965 1214.72 Q177.044 1210.11 182.854 1210.11 Z" fill="#000000" fill-rule="nonzero" fill-opacity="1" /><path clip-path="url(#clip530)" d="M213.016 1213.81 Q209.404 1213.81 207.576 1217.38 Q205.77 1220.92 205.77 1228.05 Q205.77 1235.16 207.576 1238.72 Q209.404 1242.26 213.016 1242.26 Q216.65 1242.26 218.455 1238.72 Q220.284 1235.16 220.284 1228.05 Q220.284 1220.92 218.455 1217.38 Q216.65 1213.81 213.016 1213.81 M213.016 1210.11 Q218.826 1210.11 221.881 1214.72 Q224.96 1219.3 224.96 1228.05 Q224.96 1236.78 221.881 1241.38 Q218.826 1245.97 213.016 1245.97 Q207.205 1245.97 204.127 1241.38 Q201.071 1236.78 201.071 1228.05 Q201.071 1219.3 204.127 1214.72 Q207.205 1210.11 213.016 1210.11 Z" fill="#000000" fill-rule="nonzero" fill-opacity="1" /><path clip-path="url(#clip530)" d="M261.349 1219.83 L250.77 1230.46 L261.349 1241.04 L258.594 1243.84 L247.969 1233.21 L237.344 1243.84 L234.613 1241.04 L245.168 1230.46 L234.613 1219.83 L237.344 1217.03 L247.969 1227.66 L258.594 1217.03 L261.349 1219.83 Z" fill="#000000" fill-rule="nonzero" fill-opacity="1" /><path clip-path="url(#clip530)" d="M273.71 1241.36 L281.349 1241.36 L281.349 1215 L273.038 1216.66 L273.038 1212.4 L281.302 1210.74 L285.978 1210.74 L285.978 1241.36 L293.617 1241.36 L293.617 1245.3 L273.71 1245.3 L273.71 1241.36 Z" fill="#000000" fill-rule="nonzero" fill-opacity="1" /><path clip-path="url(#clip530)" d="M313.061 1213.81 Q309.45 1213.81 307.622 1217.38 Q305.816 1220.92 305.816 1228.05 Q305.816 1235.16 307.622 1238.72 Q309.45 1242.26 313.061 1242.26 Q316.696 1242.26 318.501 1238.72 Q320.33 1235.16 320.33 1228.05 Q320.33 1220.92 318.501 1217.38 Q316.696 1213.81 313.061 1213.81 M313.061 1210.11 Q318.871 1210.11 321.927 1214.72 Q325.006 1219.3 325.006 1228.05 Q325.006 1236.78 321.927 1241.38 Q318.871 1245.97 313.061 1245.97 Q307.251 1245.97 304.172 1241.38 Q301.117 1236.78 301.117 1228.05 Q301.117 1219.3 304.172 1214.72 Q307.251 1210.11 313.061 1210.11 Z" fill="#000000" fill-rule="nonzero" fill-opacity="1" /><path clip-path="url(#clip530)" d="M325.006 1204.21 L349.117 1204.21 L349.117 1207.41 L325.006 1207.41 L325.006 1204.21 Z" fill="#000000" fill-rule="nonzero" fill-opacity="1" /><path clip-path="url(#clip530)" d="M357.355 1189.81 L372.27 1189.81 L372.27 1193 L360.834 1193 L360.834 1199.89 Q361.662 1199.6 362.49 1199.47 Q363.317 1199.32 364.145 1199.32 Q368.847 1199.32 371.593 1201.9 Q374.338 1204.48 374.338 1208.88 Q374.338 1213.41 371.517 1215.93 Q368.696 1218.43 363.562 1218.43 Q361.794 1218.43 359.951 1218.13 Q358.126 1217.83 356.17 1217.23 L356.17 1213.41 Q357.863 1214.33 359.668 1214.78 Q361.474 1215.23 363.486 1215.23 Q366.74 1215.23 368.64 1213.52 Q370.539 1211.81 370.539 1208.88 Q370.539 1205.94 368.64 1204.23 Q366.74 1202.52 363.486 1202.52 Q361.963 1202.52 360.44 1202.86 Q358.935 1203.2 357.355 1203.91 L357.355 1189.81 Z" fill="#000000" fill-rule="nonzero" fill-opacity="1" /><path clip-path="url(#clip530)" d="M141.789 1007.53 Q145.146 1008.25 147.021 1010.52 Q148.919 1012.79 148.919 1016.12 Q148.919 1021.24 145.4 1024.04 Q141.882 1026.84 135.4 1026.84 Q133.224 1026.84 130.91 1026.4 Q128.618 1025.98 126.164 1025.13 L126.164 1020.61 Q128.109 1021.75 130.423 1022.33 Q132.738 1022.9 135.261 1022.9 Q139.659 1022.9 141.951 1021.17 Q144.266 1019.43 144.266 1016.12 Q144.266 1013.07 142.113 1011.35 Q139.984 1009.62 136.164 1009.62 L132.136 1009.62 L132.136 1005.77 L136.349 1005.77 Q139.798 1005.77 141.627 1004.41 Q143.456 1003.02 143.456 1000.43 Q143.456 997.765 141.558 996.353 Q139.683 994.918 136.164 994.918 Q134.243 994.918 132.044 995.334 Q129.845 995.751 127.206 996.631 L127.206 992.464 Q129.868 991.723 132.183 991.353 Q134.521 990.983 136.581 990.983 Q141.905 990.983 145.007 993.413 Q148.108 995.821 148.108 999.941 Q148.108 1002.81 146.465 1004.8 Q144.821 1006.77 141.789 1007.53 Z" fill="#000000" fill-rule="nonzero" fill-opacity="1" /><path clip-path="url(#clip530)" d="M157.784 1020.29 L162.669 1020.29 L162.669 1026.17 L157.784 1026.17 L157.784 1020.29 Z" fill="#000000" fill-rule="nonzero" fill-opacity="1" /><path clip-path="url(#clip530)" d="M176.881 1022.23 L193.201 1022.23 L193.201 1026.17 L171.257 1026.17 L171.257 1022.23 Q173.919 1019.48 178.502 1014.85 Q183.108 1010.2 184.289 1008.85 Q186.534 1006.33 187.414 1004.59 Q188.317 1002.83 188.317 1001.14 Q188.317 998.39 186.372 996.654 Q184.451 994.918 181.349 994.918 Q179.15 994.918 176.696 995.682 Q174.266 996.446 171.488 997.997 L171.488 993.274 Q174.312 992.14 176.766 991.561 Q179.219 990.983 181.256 990.983 Q186.627 990.983 189.821 993.668 Q193.016 996.353 193.016 1000.84 Q193.016 1002.97 192.205 1004.89 Q191.418 1006.79 189.312 1009.39 Q188.733 1010.06 185.631 1013.27 Q182.53 1016.47 176.881 1022.23 Z" fill="#000000" fill-rule="nonzero" fill-opacity="1" /><path clip-path="url(#clip530)" d="M213.016 994.686 Q209.404 994.686 207.576 998.251 Q205.77 1001.79 205.77 1008.92 Q205.77 1016.03 207.576 1019.59 Q209.404 1023.14 213.016 1023.14 Q216.65 1023.14 218.455 1019.59 Q220.284 1016.03 220.284 1008.92 Q220.284 1001.79 218.455 998.251 Q216.65 994.686 213.016 994.686 M213.016 990.983 Q218.826 990.983 221.881 995.589 Q224.96 1000.17 224.96 1008.92 Q224.96 1017.65 221.881 1022.26 Q218.826 1026.84 213.016 1026.84 Q207.205 1026.84 204.127 1022.26 Q201.071 1017.65 201.071 1008.92 Q201.071 1000.17 204.127 995.589 Q207.205 990.983 213.016 990.983 Z" fill="#000000" fill-rule="nonzero" fill-opacity="1" /><path clip-path="url(#clip530)" d="M261.349 1000.7 L250.77 1011.33 L261.349 1021.91 L258.594 1024.71 L247.969 1014.08 L237.344 1024.71 L234.613 1021.91 L245.168 1011.33 L234.613 1000.7 L237.344 997.904 L247.969 1008.53 L258.594 997.904 L261.349 1000.7 Z" fill="#000000" fill-rule="nonzero" fill-opacity="1" /><path clip-path="url(#clip530)" d="M273.71 1022.23 L281.349 1022.23 L281.349 995.867 L273.038 997.534 L273.038 993.274 L281.302 991.608 L285.978 991.608 L285.978 1022.23 L293.617 1022.23 L293.617 1026.17 L273.71 1026.17 L273.71 1022.23 Z" fill="#000000" fill-rule="nonzero" fill-opacity="1" /><path clip-path="url(#clip530)" d="M313.061 994.686 Q309.45 994.686 307.622 998.251 Q305.816 1001.79 305.816 1008.92 Q305.816 1016.03 307.622 1019.59 Q309.45 1023.14 313.061 1023.14 Q316.696 1023.14 318.501 1019.59 Q320.33 1016.03 320.33 1008.92 Q320.33 1001.79 318.501 998.251 Q316.696 994.686 313.061 994.686 M313.061 990.983 Q318.871 990.983 321.927 995.589 Q325.006 1000.17 325.006 1008.92 Q325.006 1017.65 321.927 1022.26 Q318.871 1026.84 313.061 1026.84 Q307.251 1026.84 304.172 1022.26 Q301.117 1017.65 301.117 1008.92 Q301.117 1000.17 304.172 995.589 Q307.251 990.983 313.061 990.983 Z" fill="#000000" fill-rule="nonzero" fill-opacity="1" /><path clip-path="url(#clip530)" d="M325.006 985.084 L349.117 985.084 L349.117 988.281 L325.006 988.281 L325.006 985.084 Z" fill="#000000" fill-rule="nonzero" fill-opacity="1" /><path clip-path="url(#clip530)" d="M357.355 970.677 L372.27 970.677 L372.27 973.875 L360.834 973.875 L360.834 980.758 Q361.662 980.476 362.49 980.344 Q363.317 980.194 364.145 980.194 Q368.847 980.194 371.593 982.771 Q374.338 985.347 374.338 989.748 Q374.338 994.281 371.517 996.801 Q368.696 999.303 363.562 999.303 Q361.794 999.303 359.951 999.002 Q358.126 998.701 356.17 998.099 L356.17 994.281 Q357.863 995.203 359.668 995.654 Q361.474 996.105 363.486 996.105 Q366.74 996.105 368.64 994.394 Q370.539 992.682 370.539 989.748 Q370.539 986.814 368.64 985.103 Q366.74 983.391 363.486 983.391 Q361.963 983.391 360.44 983.73 Q358.935 984.068 357.355 984.783 L357.355 970.677 Z" fill="#000000" fill-rule="nonzero" fill-opacity="1" /><path clip-path="url(#clip530)" d="M141.789 788.405 Q145.146 789.123 147.021 791.391 Q148.919 793.66 148.919 796.993 Q148.919 802.109 145.4 804.91 Q141.882 807.711 135.4 807.711 Q133.224 807.711 130.91 807.271 Q128.618 806.854 126.164 805.998 L126.164 801.484 Q128.109 802.618 130.423 803.197 Q132.738 803.775 135.261 803.775 Q139.659 803.775 141.951 802.039 Q144.266 800.303 144.266 796.993 Q144.266 793.937 142.113 792.225 Q139.984 790.488 136.164 790.488 L132.136 790.488 L132.136 786.646 L136.349 786.646 Q139.798 786.646 141.627 785.28 Q143.456 783.891 143.456 781.299 Q143.456 778.637 141.558 777.225 Q139.683 775.789 136.164 775.789 Q134.243 775.789 132.044 776.206 Q129.845 776.623 127.206 777.502 L127.206 773.336 Q129.868 772.595 132.183 772.225 Q134.521 771.854 136.581 771.854 Q141.905 771.854 145.007 774.285 Q148.108 776.692 148.108 780.813 Q148.108 783.683 146.465 785.674 Q144.821 787.641 141.789 788.405 Z" fill="#000000" fill-rule="nonzero" fill-opacity="1" /><path clip-path="url(#clip530)" d="M157.784 801.16 L162.669 801.16 L162.669 807.039 L157.784 807.039 L157.784 801.16 Z" fill="#000000" fill-rule="nonzero" fill-opacity="1" /><path clip-path="url(#clip530)" d="M185.701 776.553 L173.895 795.002 L185.701 795.002 L185.701 776.553 M184.474 772.479 L190.354 772.479 L190.354 795.002 L195.284 795.002 L195.284 798.891 L190.354 798.891 L190.354 807.039 L185.701 807.039 L185.701 798.891 L170.099 798.891 L170.099 794.377 L184.474 772.479 Z" fill="#000000" fill-rule="nonzero" fill-opacity="1" /><path clip-path="url(#clip530)" d="M213.016 775.558 Q209.404 775.558 207.576 779.123 Q205.77 782.664 205.77 789.794 Q205.77 796.9 207.576 800.465 Q209.404 804.007 213.016 804.007 Q216.65 804.007 218.455 800.465 Q220.284 796.9 220.284 789.794 Q220.284 782.664 218.455 779.123 Q216.65 775.558 213.016 775.558 M213.016 771.854 Q218.826 771.854 221.881 776.461 Q224.96 781.044 224.96 789.794 Q224.96 798.521 221.881 803.127 Q218.826 807.711 213.016 807.711 Q207.205 807.711 204.127 803.127 Q201.071 798.521 201.071 789.794 Q201.071 781.044 204.127 776.461 Q207.205 771.854 213.016 771.854 Z" fill="#000000" fill-rule="nonzero" fill-opacity="1" /><path clip-path="url(#clip530)" d="M261.349 781.576 L250.77 792.201 L261.349 802.78 L258.594 805.581 L247.969 794.956 L237.344 805.581 L234.613 802.78 L245.168 792.201 L234.613 781.576 L237.344 778.776 L247.969 789.4 L258.594 778.776 L261.349 781.576 Z" fill="#000000" fill-rule="nonzero" fill-opacity="1" /><path clip-path="url(#clip530)" d="M273.71 803.104 L281.349 803.104 L281.349 776.738 L273.038 778.405 L273.038 774.146 L281.302 772.479 L285.978 772.479 L285.978 803.104 L293.617 803.104 L293.617 807.039 L273.71 807.039 L273.71 803.104 Z" fill="#000000" fill-rule="nonzero" fill-opacity="1" /><path clip-path="url(#clip530)" d="M313.061 775.558 Q309.45 775.558 307.622 779.123 Q305.816 782.664 305.816 789.794 Q305.816 796.9 307.622 800.465 Q309.45 804.007 313.061 804.007 Q316.696 804.007 318.501 800.465 Q320.33 796.9 320.33 789.794 Q320.33 782.664 318.501 779.123 Q316.696 775.558 313.061 775.558 M313.061 771.854 Q318.871 771.854 321.927 776.461 Q325.006 781.044 325.006 789.794 Q325.006 798.521 321.927 803.127 Q318.871 807.711 313.061 807.711 Q307.251 807.711 304.172 803.127 Q301.117 798.521 301.117 789.794 Q301.117 781.044 304.172 776.461 Q307.251 771.854 313.061 771.854 Z" fill="#000000" fill-rule="nonzero" fill-opacity="1" /><path clip-path="url(#clip530)" d="M325.006 765.956 L349.117 765.956 L349.117 769.153 L325.006 769.153 L325.006 765.956 Z" fill="#000000" fill-rule="nonzero" fill-opacity="1" /><path clip-path="url(#clip530)" d="M357.355 751.549 L372.27 751.549 L372.27 754.746 L360.834 754.746 L360.834 761.63 Q361.662 761.348 362.49 761.216 Q363.317 761.066 364.145 761.066 Q368.847 761.066 371.593 763.642 Q374.338 766.219 374.338 770.62 Q374.338 775.153 371.517 777.673 Q368.696 780.174 363.562 780.174 Q361.794 780.174 359.951 779.873 Q358.126 779.572 356.17 778.971 L356.17 775.153 Q357.863 776.074 359.668 776.526 Q361.474 776.977 363.486 776.977 Q366.74 776.977 368.64 775.265 Q370.539 773.554 370.539 770.62 Q370.539 767.686 368.64 765.974 Q366.74 764.263 363.486 764.263 Q361.963 764.263 360.44 764.601 Q358.935 764.94 357.355 765.655 L357.355 751.549 Z" fill="#000000" fill-rule="nonzero" fill-opacity="1" /><path clip-path="url(#clip530)" d="M141.789 569.277 Q145.146 569.994 147.021 572.263 Q148.919 574.531 148.919 577.865 Q148.919 582.98 145.4 585.781 Q141.882 588.582 135.4 588.582 Q133.224 588.582 130.91 588.142 Q128.618 587.726 126.164 586.869 L126.164 582.355 Q128.109 583.49 130.423 584.068 Q132.738 584.647 135.261 584.647 Q139.659 584.647 141.951 582.911 Q144.266 581.175 144.266 577.865 Q144.266 574.809 142.113 573.096 Q139.984 571.36 136.164 571.36 L132.136 571.36 L132.136 567.517 L136.349 567.517 Q139.798 567.517 141.627 566.152 Q143.456 564.763 143.456 562.17 Q143.456 559.508 141.558 558.096 Q139.683 556.661 136.164 556.661 Q134.243 556.661 132.044 557.078 Q129.845 557.494 127.206 558.374 L127.206 554.207 Q129.868 553.467 132.183 553.096 Q134.521 552.726 136.581 552.726 Q141.905 552.726 145.007 555.156 Q148.108 557.564 148.108 561.684 Q148.108 564.555 146.465 566.545 Q144.821 568.513 141.789 569.277 Z" fill="#000000" fill-rule="nonzero" fill-opacity="1" /><path clip-path="url(#clip530)" d="M157.784 582.031 L162.669 582.031 L162.669 587.911 L157.784 587.911 L157.784 582.031 Z" fill="#000000" fill-rule="nonzero" fill-opacity="1" /><path clip-path="url(#clip530)" d="M183.432 568.767 Q180.284 568.767 178.432 570.92 Q176.604 573.073 176.604 576.823 Q176.604 580.55 178.432 582.726 Q180.284 584.878 183.432 584.878 Q186.581 584.878 188.409 582.726 Q190.261 580.55 190.261 576.823 Q190.261 573.073 188.409 570.92 Q186.581 568.767 183.432 568.767 M192.715 554.115 L192.715 558.374 Q190.955 557.541 189.15 557.101 Q187.368 556.661 185.608 556.661 Q180.979 556.661 178.525 559.786 Q176.094 562.911 175.747 569.23 Q177.113 567.217 179.173 566.152 Q181.233 565.064 183.71 565.064 Q188.918 565.064 191.928 568.235 Q194.96 571.383 194.96 576.823 Q194.96 582.147 191.812 585.365 Q188.664 588.582 183.432 588.582 Q177.437 588.582 174.266 583.999 Q171.094 579.392 171.094 570.666 Q171.094 562.471 174.983 557.61 Q178.872 552.726 185.423 552.726 Q187.182 552.726 188.965 553.073 Q190.77 553.42 192.715 554.115 Z" fill="#000000" fill-rule="nonzero" fill-opacity="1" /><path clip-path="url(#clip530)" d="M213.016 556.43 Q209.404 556.43 207.576 559.994 Q205.77 563.536 205.77 570.666 Q205.77 577.772 207.576 581.337 Q209.404 584.878 213.016 584.878 Q216.65 584.878 218.455 581.337 Q220.284 577.772 220.284 570.666 Q220.284 563.536 218.455 559.994 Q216.65 556.43 213.016 556.43 M213.016 552.726 Q218.826 552.726 221.881 557.332 Q224.96 561.916 224.96 570.666 Q224.96 579.392 221.881 583.999 Q218.826 588.582 213.016 588.582 Q207.205 588.582 204.127 583.999 Q201.071 579.392 201.071 570.666 Q201.071 561.916 204.127 557.332 Q207.205 552.726 213.016 552.726 Z" fill="#000000" fill-rule="nonzero" fill-opacity="1" /><path clip-path="url(#clip530)" d="M261.349 562.448 L250.77 573.073 L261.349 583.652 L258.594 586.453 L247.969 575.828 L237.344 586.453 L234.613 583.652 L245.168 573.073 L234.613 562.448 L237.344 559.647 L247.969 570.272 L258.594 559.647 L261.349 562.448 Z" fill="#000000" fill-rule="nonzero" fill-opacity="1" /><path clip-path="url(#clip530)" d="M273.71 583.976 L281.349 583.976 L281.349 557.61 L273.038 559.277 L273.038 555.018 L281.302 553.351 L285.978 553.351 L285.978 583.976 L293.617 583.976 L293.617 587.911 L273.71 587.911 L273.71 583.976 Z" fill="#000000" fill-rule="nonzero" fill-opacity="1" /><path clip-path="url(#clip530)" d="M313.061 556.43 Q309.45 556.43 307.622 559.994 Q305.816 563.536 305.816 570.666 Q305.816 577.772 307.622 581.337 Q309.45 584.878 313.061 584.878 Q316.696 584.878 318.501 581.337 Q320.33 577.772 320.33 570.666 Q320.33 563.536 318.501 559.994 Q316.696 556.43 313.061 556.43 M313.061 552.726 Q318.871 552.726 321.927 557.332 Q325.006 561.916 325.006 570.666 Q325.006 579.392 321.927 583.999 Q318.871 588.582 313.061 588.582 Q307.251 588.582 304.172 583.999 Q301.117 579.392 301.117 570.666 Q301.117 561.916 304.172 557.332 Q307.251 552.726 313.061 552.726 Z" fill="#000000" fill-rule="nonzero" fill-opacity="1" /><path clip-path="url(#clip530)" d="M325.006 546.827 L349.117 546.827 L349.117 550.025 L325.006 550.025 L325.006 546.827 Z" fill="#000000" fill-rule="nonzero" fill-opacity="1" /><path clip-path="url(#clip530)" d="M357.355 532.42 L372.27 532.42 L372.27 535.618 L360.834 535.618 L360.834 542.501 Q361.662 542.219 362.49 542.088 Q363.317 541.937 364.145 541.937 Q368.847 541.937 371.593 544.514 Q374.338 547.091 374.338 551.492 Q374.338 556.024 371.517 558.544 Q368.696 561.046 363.562 561.046 Q361.794 561.046 359.951 560.745 Q358.126 560.444 356.17 559.842 L356.17 556.024 Q357.863 556.946 359.668 557.397 Q361.474 557.849 363.486 557.849 Q366.74 557.849 368.64 556.137 Q370.539 554.426 370.539 551.492 Q370.539 548.558 368.64 546.846 Q366.74 545.135 363.486 545.135 Q361.963 545.135 360.44 545.473 Q358.935 545.812 357.355 546.526 L357.355 532.42 Z" fill="#000000" fill-rule="nonzero" fill-opacity="1" /><path clip-path="url(#clip530)" d="M141.789 350.148 Q145.146 350.866 147.021 353.134 Q148.919 355.403 148.919 358.736 Q148.919 363.852 145.4 366.653 Q141.882 369.454 135.4 369.454 Q133.224 369.454 130.91 369.014 Q128.618 368.597 126.164 367.741 L126.164 363.227 Q128.109 364.361 130.423 364.94 Q132.738 365.519 135.261 365.519 Q139.659 365.519 141.951 363.782 Q144.266 362.046 144.266 358.736 Q144.266 355.681 142.113 353.968 Q139.984 352.232 136.164 352.232 L132.136 352.232 L132.136 348.389 L136.349 348.389 Q139.798 348.389 141.627 347.023 Q143.456 345.634 143.456 343.042 Q143.456 340.38 141.558 338.968 Q139.683 337.533 136.164 337.533 Q134.243 337.533 132.044 337.949 Q129.845 338.366 127.206 339.246 L127.206 335.079 Q129.868 334.338 132.183 333.968 Q134.521 333.597 136.581 333.597 Q141.905 333.597 145.007 336.028 Q148.108 338.435 148.108 342.556 Q148.108 345.426 146.465 347.417 Q144.821 349.384 141.789 350.148 Z" fill="#000000" fill-rule="nonzero" fill-opacity="1" /><path clip-path="url(#clip530)" d="M157.784 362.903 L162.669 362.903 L162.669 368.782 L157.784 368.782 L157.784 362.903 Z" fill="#000000" fill-rule="nonzero" fill-opacity="1" /><path clip-path="url(#clip530)" d="M182.854 352.371 Q179.52 352.371 177.599 354.153 Q175.701 355.935 175.701 359.06 Q175.701 362.185 177.599 363.968 Q179.52 365.75 182.854 365.75 Q186.187 365.75 188.108 363.968 Q190.03 362.162 190.03 359.06 Q190.03 355.935 188.108 354.153 Q186.21 352.371 182.854 352.371 M178.178 350.38 Q175.169 349.639 173.479 347.579 Q171.812 345.519 171.812 342.556 Q171.812 338.412 174.752 336.005 Q177.715 333.597 182.854 333.597 Q188.016 333.597 190.955 336.005 Q193.895 338.412 193.895 342.556 Q193.895 345.519 192.205 347.579 Q190.539 349.639 187.553 350.38 Q190.932 351.167 192.807 353.458 Q194.705 355.75 194.705 359.06 Q194.705 364.083 191.627 366.769 Q188.571 369.454 182.854 369.454 Q177.136 369.454 174.057 366.769 Q171.002 364.083 171.002 359.06 Q171.002 355.75 172.9 353.458 Q174.798 351.167 178.178 350.38 M176.465 342.996 Q176.465 345.681 178.131 347.185 Q179.821 348.69 182.854 348.69 Q185.863 348.69 187.553 347.185 Q189.266 345.681 189.266 342.996 Q189.266 340.31 187.553 338.806 Q185.863 337.301 182.854 337.301 Q179.821 337.301 178.131 338.806 Q176.465 340.31 176.465 342.996 Z" fill="#000000" fill-rule="nonzero" fill-opacity="1" /><path clip-path="url(#clip530)" d="M213.016 337.301 Q209.404 337.301 207.576 340.866 Q205.77 344.408 205.77 351.537 Q205.77 358.644 207.576 362.208 Q209.404 365.75 213.016 365.75 Q216.65 365.75 218.455 362.208 Q220.284 358.644 220.284 351.537 Q220.284 344.408 218.455 340.866 Q216.65 337.301 213.016 337.301 M213.016 333.597 Q218.826 333.597 221.881 338.204 Q224.96 342.787 224.96 351.537 Q224.96 360.264 221.881 364.87 Q218.826 369.454 213.016 369.454 Q207.205 369.454 204.127 364.87 Q201.071 360.264 201.071 351.537 Q201.071 342.787 204.127 338.204 Q207.205 333.597 213.016 333.597 Z" fill="#000000" fill-rule="nonzero" fill-opacity="1" /><path clip-path="url(#clip530)" d="M261.349 343.32 L250.77 353.945 L261.349 364.523 L258.594 367.324 L247.969 356.699 L237.344 367.324 L234.613 364.523 L245.168 353.945 L234.613 343.32 L237.344 340.519 L247.969 351.144 L258.594 340.519 L261.349 343.32 Z" fill="#000000" fill-rule="nonzero" fill-opacity="1" /><path clip-path="url(#clip530)" d="M273.71 364.847 L281.349 364.847 L281.349 338.482 L273.038 340.148 L273.038 335.889 L281.302 334.222 L285.978 334.222 L285.978 364.847 L293.617 364.847 L293.617 368.782 L273.71 368.782 L273.71 364.847 Z" fill="#000000" fill-rule="nonzero" fill-opacity="1" /><path clip-path="url(#clip530)" d="M313.061 337.301 Q309.45 337.301 307.622 340.866 Q305.816 344.408 305.816 351.537 Q305.816 358.644 307.622 362.208 Q309.45 365.75 313.061 365.75 Q316.696 365.75 318.501 362.208 Q320.33 358.644 320.33 351.537 Q320.33 344.408 318.501 340.866 Q316.696 337.301 313.061 337.301 M313.061 333.597 Q318.871 333.597 321.927 338.204 Q325.006 342.787 325.006 351.537 Q325.006 360.264 321.927 364.87 Q318.871 369.454 313.061 369.454 Q307.251 369.454 304.172 364.87 Q301.117 360.264 301.117 351.537 Q301.117 342.787 304.172 338.204 Q307.251 333.597 313.061 333.597 Z" fill="#000000" fill-rule="nonzero" fill-opacity="1" /><path clip-path="url(#clip530)" d="M325.006 327.699 L349.117 327.699 L349.117 330.896 L325.006 330.896 L325.006 327.699 Z" fill="#000000" fill-rule="nonzero" fill-opacity="1" /><path clip-path="url(#clip530)" d="M357.355 313.292 L372.27 313.292 L372.27 316.489 L360.834 316.489 L360.834 323.373 Q361.662 323.091 362.49 322.959 Q363.317 322.809 364.145 322.809 Q368.847 322.809 371.593 325.385 Q374.338 327.962 374.338 332.363 Q374.338 336.896 371.517 339.416 Q368.696 341.917 363.562 341.917 Q361.794 341.917 359.951 341.617 Q358.126 341.316 356.17 340.714 L356.17 336.896 Q357.863 337.817 359.668 338.269 Q361.474 338.72 363.486 338.72 Q366.74 338.72 368.64 337.009 Q370.539 335.297 370.539 332.363 Q370.539 329.429 368.64 327.718 Q366.74 326.006 363.486 326.006 Q361.963 326.006 360.44 326.345 Q358.935 326.683 357.355 327.398 L357.355 313.292 Z" fill="#000000" fill-rule="nonzero" fill-opacity="1" /><path clip-path="url(#clip530)" d="M60.4144 1131.09 L77.8246 1131.09 L77.8246 1120.78 Q77.8246 1115.59 75.6921 1113.11 Q73.5278 1110.59 69.1036 1110.59 Q64.6476 1110.59 62.5469 1113.11 Q60.4144 1115.59 60.4144 1120.78 L60.4144 1131.09 M40.8717 1131.09 L55.1945 1131.09 L55.1945 1121.57 Q55.1945 1116.86 53.444 1114.57 Q51.6616 1112.25 48.0331 1112.25 Q44.4365 1112.25 42.6541 1114.57 Q40.8717 1116.86 40.8717 1121.57 L40.8717 1131.09 M35.5882 1137.52 L35.5882 1121.09 Q35.5882 1113.74 38.6437 1109.76 Q41.6992 1105.78 47.3329 1105.78 Q51.6934 1105.78 54.2715 1107.82 Q56.8496 1109.86 57.4862 1113.81 Q58.5047 1109.06 61.7512 1106.45 Q64.9659 1103.81 69.8038 1103.81 Q76.1695 1103.81 79.6388 1108.14 Q83.1082 1112.47 83.1082 1120.46 L83.1082 1137.52 L35.5882 1137.52 Z" fill="#000000" fill-rule="nonzero" fill-opacity="1" /><path clip-path="url(#clip530)" d="M77.761 1087.39 L96.6671 1087.39 L96.6671 1093.28 L47.4602 1093.28 L47.4602 1087.39 L52.8711 1087.39 Q49.6882 1085.54 48.1604 1082.74 Q46.6008 1079.91 46.6008 1075.99 Q46.6008 1069.5 51.7571 1065.46 Q56.9133 1061.38 65.316 1061.38 Q73.7187 1061.38 78.875 1065.46 Q84.0312 1069.5 84.0312 1075.99 Q84.0312 1079.91 82.5034 1082.74 Q80.9438 1085.54 77.761 1087.39 M65.316 1067.46 Q58.8548 1067.46 55.1945 1070.14 Q51.5024 1072.78 51.5024 1077.43 Q51.5024 1082.07 55.1945 1084.75 Q58.8548 1087.39 65.316 1087.39 Q71.7772 1087.39 75.4693 1084.75 Q79.1296 1082.07 79.1296 1077.43 Q79.1296 1072.78 75.4693 1070.14 Q71.7772 1067.46 65.316 1067.46 Z" fill="#000000" fill-rule="nonzero" fill-opacity="1" /><path clip-path="url(#clip530)" d="M63.8201 1021.18 L66.6846 1021.18 L66.6846 1048.11 Q72.7321 1047.73 75.9149 1044.48 Q79.0659 1041.2 79.0659 1035.38 Q79.0659 1032.01 78.2384 1028.86 Q77.4109 1025.67 75.7558 1022.55 L81.2939 1022.55 Q82.6307 1025.7 83.331 1029.01 Q84.0312 1032.32 84.0312 1035.73 Q84.0312 1044.26 79.0659 1049.26 Q74.1007 1054.22 65.6343 1054.22 Q56.8814 1054.22 51.7571 1049.51 Q46.6008 1044.77 46.6008 1036.75 Q46.6008 1029.56 51.2478 1025.39 Q55.8629 1021.18 63.8201 1021.18 M62.1013 1027.04 Q57.2952 1027.1 54.4306 1029.75 Q51.5661 1032.36 51.5661 1036.68 Q51.5661 1041.59 54.3352 1044.55 Q57.1042 1047.47 62.1332 1047.92 L62.1013 1027.04 Z" fill="#000000" fill-rule="nonzero" fill-opacity="1" /><path clip-path="url(#clip530)" d="M47.4602 1011.79 L47.4602 1003.23 L71.3316 993.112 L47.4602 982.958 L47.4602 974.46 L83.1082 974.46 L83.1082 980.348 L53.062 980.348 L76.265 990.183 L76.265 996.04 L53.062 1005.91 L83.1082 1005.91 L83.1082 1011.79 L47.4602 1011.79 Z" fill="#000000" fill-rule="nonzero" fill-opacity="1" /><path clip-path="url(#clip530)" d="M57.7408 956.509 Q60.3826 956.509 61.8785 954.472 Q63.3745 952.435 63.3745 948.647 L63.3745 940.754 L52.139 940.754 L52.139 948.647 Q52.139 952.435 53.6031 954.472 Q55.0672 956.509 57.7408 956.509 M83.1082 964.848 L67.4803 953.963 Q66.6528 957.655 64.4885 960.105 Q62.2923 962.556 57.7408 962.556 Q52.5846 962.556 50.0383 959.151 Q47.4602 955.713 47.4602 948.806 L47.4602 934.865 L83.1082 934.865 L83.1082 940.754 L68.0533 940.754 L68.0533 948.042 L83.1082 958.546 L83.1082 964.848 Z" fill="#000000" fill-rule="nonzero" fill-opacity="1" /><path clip-path="url(#clip530)" d="M66.6846 896.83 L78.4294 896.83 L78.4294 888.491 Q78.4294 884.481 76.9334 882.38 Q75.4057 880.28 72.5411 880.28 Q69.6765 880.28 68.1806 882.38 Q66.6846 884.481 66.6846 888.491 L66.6846 896.83 M52.139 896.83 L62.0058 896.83 L62.0058 889.128 Q62.0058 885.818 60.7009 883.717 Q59.3641 881.616 57.0088 881.616 Q54.6534 881.616 53.4121 883.717 Q52.139 885.818 52.139 889.128 L52.139 896.83 M47.4602 902.687 L47.4602 888.746 Q47.4602 882.476 49.7519 879.102 Q52.0435 875.728 56.2767 875.728 Q59.555 875.728 61.4966 877.447 Q63.4063 879.166 63.8837 882.539 Q64.6476 878.497 67.0666 876.269 Q69.4855 874.041 73.114 874.041 Q77.8883 874.041 80.4982 877.733 Q83.1082 881.393 83.1082 888.205 L83.1082 902.687 L47.4602 902.687 Z" fill="#000000" fill-rule="nonzero" fill-opacity="1" /><path clip-path="url(#clip530)" d="M47.4602 830.372 L47.4602 824.516 L83.1082 824.516 L83.1082 830.372 L47.4602 830.372 M46.6008 827.444 L46.6008 827.444 M72.5411 841.862 Q69.6765 841.862 68.1806 843.963 Q66.6846 846.032 66.6846 850.042 L66.6846 858.381 L78.4294 858.381 L78.4294 850.042 Q78.4294 846.032 76.9334 843.963 Q75.4057 841.862 72.5411 841.862 M47.4602 864.27 L47.4602 858.381 L62.0058 858.381 L62.0058 849.788 Q62.0058 842.976 64.6158 839.316 Q67.1939 835.624 72.5411 835.624 Q77.8883 835.624 80.4982 839.316 Q83.1082 842.976 83.1082 849.788 L83.1082 864.27 L47.4602 864.27 Z" fill="#000000" fill-rule="nonzero" fill-opacity="1" /><path clip-path="url(#clip530)" d="M83.1082 791.987 L68.1169 791.987 L68.1169 802.904 Q68.1169 807.774 65.0932 811.021 Q62.356 813.949 56.4995 813.949 L47.4602 813.949 L47.4602 808.092 L55.9584 808.092 Q59.6824 808.092 61.5602 806.437 Q63.4381 804.75 63.4381 801.44 L63.4381 791.987 L47.4602 791.987 L47.4602 786.131 L83.1082 786.131 L83.1082 791.987 Z" fill="#000000" fill-rule="nonzero" fill-opacity="1" /><path clip-path="url(#clip530)" d="M47.4602 743.767 L83.1082 743.767 L83.1082 749.592 L54.4943 749.592 L83.1082 766.779 L83.1082 774.29 L47.4602 774.29 L47.4602 768.466 L76.0104 768.466 L47.4602 751.31 L47.4602 743.767 Z" fill="#000000" fill-rule="nonzero" fill-opacity="1" /><path clip-path="url(#clip530)" d="M48.8288 706.05 L54.3033 706.05 Q52.9347 708.533 52.2663 711.047 Q51.5661 713.53 51.5661 716.076 Q51.5661 721.773 55.1945 724.924 Q58.7912 728.075 65.316 728.075 Q71.8409 728.075 75.4693 724.924 Q79.0659 721.773 79.0659 716.076 Q79.0659 713.53 78.3975 711.047 Q77.6973 708.533 76.3287 706.05 L81.7395 706.05 Q82.8854 708.501 83.4583 711.143 Q84.0312 713.753 84.0312 716.713 Q84.0312 724.765 78.9704 729.508 Q73.9097 734.25 65.316 734.25 Q56.595 734.25 51.5979 729.476 Q46.6008 724.67 46.6008 716.331 Q46.6008 713.625 47.1737 711.047 Q47.7148 708.469 48.8288 706.05 Z" fill="#000000" fill-rule="nonzero" fill-opacity="1" /><path clip-path="url(#clip530)" d="M83.1082 699.589 L78.2384 699.589 Q77.3472 693.796 73.3368 692.014 Q67.7031 689.849 53.2848 689.849 L47.4602 689.849 L47.4602 665.755 L83.1082 665.755 L83.1082 671.612 L52.139 671.612 L52.139 683.993 L55.672 683.993 Q69.4219 683.993 75.5966 686.794 Q82.1851 689.786 83.1082 699.589 Z" fill="#000000" fill-rule="nonzero" fill-opacity="1" /><path clip-path="url(#clip530)" d="M63.8201 623.71 L66.6846 623.71 L66.6846 650.637 Q72.7321 650.255 75.9149 647.008 Q79.0659 643.73 79.0659 637.905 Q79.0659 634.531 78.2384 631.38 Q77.4109 628.198 75.7558 625.078 L81.2939 625.078 Q82.6307 628.229 83.331 631.54 Q84.0312 634.85 84.0312 638.255 Q84.0312 646.785 79.0659 651.782 Q74.1007 656.748 65.6343 656.748 Q56.8814 656.748 51.7571 652.037 Q46.6008 647.295 46.6008 639.274 Q46.6008 632.081 51.2478 627.911 Q55.8629 623.71 63.8201 623.71 M62.1013 629.566 Q57.2952 629.63 54.4306 632.272 Q51.5661 634.882 51.5661 639.21 Q51.5661 644.112 54.3352 647.072 Q57.1042 650 62.1332 650.446 L62.1013 629.566 Z" fill="#000000" fill-rule="nonzero" fill-opacity="1" /><path clip-path="url(#clip530)" d="M47.4602 614.32 L47.4602 608.432 L62.0058 608.432 L62.0058 589.43 L47.4602 589.43 L47.4602 583.542 L83.1082 583.542 L83.1082 589.43 L66.6846 589.43 L66.6846 608.432 L83.1082 608.432 L83.1082 614.32 L47.4602 614.32 Z" fill="#000000" fill-rule="nonzero" fill-opacity="1" /><path clip-path="url(#clip530)" d="M47.4602 541.178 L83.1082 541.178 L83.1082 547.003 L54.4943 547.003 L83.1082 564.19 L83.1082 571.702 L47.4602 571.702 L47.4602 565.877 L76.0104 565.877 L47.4602 548.722 L47.4602 541.178 Z" fill="#000000" fill-rule="nonzero" fill-opacity="1" /><path clip-path="url(#clip530)" d="M57.7408 523.227 Q60.3826 523.227 61.8785 521.19 Q63.3745 519.153 63.3745 515.365 L63.3745 507.472 L52.139 507.472 L52.139 515.365 Q52.139 519.153 53.6031 521.19 Q55.0672 523.227 57.7408 523.227 M83.1082 531.566 L67.4803 520.681 Q66.6528 524.373 64.4885 526.824 Q62.2923 529.274 57.7408 529.274 Q52.5846 529.274 50.0383 525.869 Q47.4602 522.431 47.4602 515.525 L47.4602 501.584 L83.1082 501.584 L83.1082 507.472 L68.0533 507.472 L68.0533 514.761 L83.1082 525.264 L83.1082 531.566 Z" fill="#000000" fill-rule="nonzero" fill-opacity="1" /><path clip-path="url(#clip530)" d="M75.0237 488.407 L75.0237 481.691 L80.4982 481.691 L90.6833 486.911 L90.6833 491.017 L80.4982 488.407 L75.0237 488.407 Z" fill="#000000" fill-rule="nonzero" fill-opacity="1" /><path clip-path="url(#clip530)" d="M48.8288 422.808 L54.3033 422.808 Q52.9347 425.291 52.2663 427.805 Q51.5661 430.288 51.5661 432.834 Q51.5661 438.531 55.1945 441.682 Q58.7912 444.833 65.316 444.833 Q71.8409 444.833 75.4693 441.682 Q79.0659 438.531 79.0659 432.834 Q79.0659 430.288 78.3975 427.805 Q77.6973 425.291 76.3287 422.808 L81.7395 422.808 Q82.8854 425.259 83.4583 427.901 Q84.0312 430.51 84.0312 433.471 Q84.0312 441.523 78.9704 446.266 Q73.9097 451.008 65.316 451.008 Q56.595 451.008 51.5979 446.234 Q46.6008 441.428 46.6008 433.089 Q46.6008 430.383 47.1737 427.805 Q47.7148 425.227 48.8288 422.808 Z" fill="#000000" fill-rule="nonzero" fill-opacity="1" /><path clip-path="url(#clip530)" d="M63.8201 382.131 L66.6846 382.131 L66.6846 409.058 Q72.7321 408.676 75.9149 405.43 Q79.0659 402.151 79.0659 396.327 Q79.0659 392.953 78.2384 389.802 Q77.4109 386.619 75.7558 383.5 L81.2939 383.5 Q82.6307 386.651 83.331 389.961 Q84.0312 393.271 84.0312 396.677 Q84.0312 405.207 79.0659 410.204 Q74.1007 415.169 65.6343 415.169 Q56.8814 415.169 51.7571 410.459 Q46.6008 405.716 46.6008 397.695 Q46.6008 390.502 51.2478 386.332 Q55.8629 382.131 63.8201 382.131 M62.1013 387.988 Q57.2952 388.051 54.4306 390.693 Q51.5661 393.303 51.5661 397.632 Q51.5661 402.533 54.3352 405.493 Q57.1042 408.421 62.1332 408.867 L62.1013 387.988 Z" fill="#000000" fill-rule="nonzero" fill-opacity="1" /><path clip-path="url(#clip530)" d="M47.4602 372.742 L47.4602 366.917 L64.202 366.917 L47.4602 350.398 L47.4602 343.205 L61.242 356.827 L83.1082 341.454 L83.1082 348.011 L65.125 360.647 L71.4907 366.917 L83.1082 366.917 L83.1082 372.742 L47.4602 372.742 Z" fill="#000000" fill-rule="nonzero" fill-opacity="1" /><path clip-path="url(#clip530)" d="M300.261 11.0023 Q310.226 11.0023 316.545 15.2557 Q322.865 19.4686 322.865 26.6793 Q322.865 31.7024 319.989 35.1862 Q317.112 38.6294 311.806 39.9662 Q317.68 41.222 320.961 45.1919 Q324.283 49.1618 324.283 54.9951 Q324.283 64.3122 317.072 69.0517 Q309.902 73.7508 300.261 73.7508 Q295.319 73.7508 289.566 72.414 Q283.814 71.0772 282.032 69.9429 L282.032 61.517 Q288.23 65.1223 291.632 66.0135 Q295.076 66.8642 300.099 66.8642 Q307.714 66.8642 311.927 63.9476 Q316.14 61.0309 316.14 54.9951 Q316.14 49.6479 312.373 46.6502 Q308.646 43.612 300.747 43.612 L292.483 43.612 L292.483 36.8875 L301.071 36.8875 Q308.322 36.8875 311.522 34.4975 Q314.722 32.067 314.722 27.5299 Q314.722 22.8714 311.401 20.4004 Q308.119 17.8888 300.099 17.8888 Q294.67 17.8888 292.807 18.3749 Q290.944 18.861 282.639 21.9802 L282.639 13.9999 Q287.217 12.3796 291.997 11.6909 Q296.777 11.0023 300.261 11.0023 Z" fill="#000000" fill-rule="nonzero" fill-opacity="1" /><path clip-path="url(#clip530)" d="M358.189 49.7694 Q349.155 49.7694 345.671 51.8354 Q342.188 53.9013 342.188 58.8839 Q342.188 62.8538 344.78 65.2034 Q347.413 67.5124 351.91 67.5124 Q358.108 67.5124 361.834 63.1374 Q365.602 58.7219 365.602 51.4303 L365.602 49.7694 L358.189 49.7694 M373.055 46.6907 L373.055 72.576 L365.602 72.576 L365.602 65.6895 Q363.05 69.8214 359.242 71.8063 Q355.434 73.7508 349.925 73.7508 Q342.957 73.7508 338.825 69.8619 Q334.734 65.9325 334.734 59.3701 Q334.734 51.7138 339.838 47.825 Q344.983 43.9361 355.15 43.9361 L365.602 43.9361 L365.602 43.2069 Q365.602 38.0623 362.199 35.2672 Q358.837 32.4315 352.72 32.4315 Q348.831 32.4315 345.145 33.3632 Q341.458 34.295 338.056 36.1584 L338.056 29.2718 Q342.147 27.692 345.995 26.9223 Q349.844 26.1121 353.49 26.1121 Q363.333 26.1121 368.194 31.2163 Q373.055 36.3204 373.055 46.6907 Z" fill="#000000" fill-rule="nonzero" fill-opacity="1" /><path clip-path="url(#clip530)" d="M395.578 51.6733 L395.578 66.6212 L406.192 66.6212 Q411.296 66.6212 413.97 64.7172 Q416.643 62.7728 416.643 59.127 Q416.643 55.4812 413.97 53.5773 Q411.296 51.6733 406.192 51.6733 L395.578 51.6733 M395.578 33.1607 L395.578 45.7185 L405.382 45.7185 Q409.595 45.7185 412.268 44.0576 Q414.942 42.3563 414.942 39.3586 Q414.942 36.3609 412.268 34.7811 Q409.595 33.1607 405.382 33.1607 L395.578 33.1607 M388.125 27.2059 L405.868 27.2059 Q413.848 27.2059 418.142 30.1225 Q422.436 33.0392 422.436 38.4269 Q422.436 42.5993 420.248 45.0704 Q418.061 47.5009 413.767 48.1085 Q418.912 49.0808 421.747 52.1594 Q424.583 55.2381 424.583 59.8562 Q424.583 65.9325 419.884 69.2543 Q415.225 72.576 406.556 72.576 L388.125 72.576 L388.125 27.2059 Z" fill="#000000" fill-rule="nonzero" fill-opacity="1" /><path clip-path="url(#clip530)" d="M475.867 27.2059 L475.867 72.576 L468.454 72.576 L468.454 36.1584 L446.579 72.576 L437.019 72.576 L437.019 27.2059 L444.432 27.2059 L444.432 63.5425 L466.267 27.2059 L475.867 27.2059 Z" fill="#000000" fill-rule="nonzero" fill-opacity="1" /><path clip-path="url(#clip530)" d="M523.871 28.9478 L523.871 35.9153 Q520.711 34.1734 517.511 33.3227 Q514.351 32.4315 511.11 32.4315 Q503.859 32.4315 499.849 37.0496 Q495.838 41.6271 495.838 49.9314 Q495.838 58.2358 499.849 62.8538 Q503.859 67.4314 511.11 67.4314 Q514.351 67.4314 517.511 66.5807 Q520.711 65.6895 523.871 63.9476 L523.871 70.8341 Q520.751 72.2924 517.389 73.0216 Q514.067 73.7508 510.3 73.7508 Q500.051 73.7508 494.015 67.3098 Q487.98 60.8689 487.98 49.9314 Q487.98 38.832 494.056 32.472 Q500.173 26.1121 510.786 26.1121 Q514.229 26.1121 517.511 26.8413 Q520.792 27.5299 523.871 28.9478 Z" fill="#000000" fill-rule="nonzero" fill-opacity="1" /><path clip-path="url(#clip530)" d="M575.398 27.2059 L575.398 72.576 L567.985 72.576 L567.985 36.1584 L546.11 72.576 L536.55 72.576 L536.55 27.2059 L543.963 27.2059 L543.963 63.5425 L565.797 27.2059 L575.398 27.2059 Z" fill="#000000" fill-rule="nonzero" fill-opacity="1" /><path clip-path="url(#clip530)" d="M590.467 27.2059 L601.364 27.2059 L614.246 57.5877 L627.169 27.2059 L637.985 27.2059 L637.985 72.576 L630.49 72.576 L630.49 34.3355 L617.973 63.8666 L610.519 63.8666 L597.962 34.3355 L597.962 72.576 L590.467 72.576 L590.467 27.2059 Z" fill="#000000" fill-rule="nonzero" fill-opacity="1" /><path clip-path="url(#clip530)" d="M670.918 32.4315 Q664.923 32.4315 661.439 37.1306 Q657.956 41.7891 657.956 49.9314 Q657.956 58.0738 661.399 62.7728 Q664.883 67.4314 670.918 67.4314 Q676.873 67.4314 680.357 62.7323 Q683.841 58.0333 683.841 49.9314 Q683.841 41.8701 680.357 37.1711 Q676.873 32.4315 670.918 32.4315 M670.918 26.1121 Q680.641 26.1121 686.19 32.4315 Q691.74 38.7509 691.74 49.9314 Q691.74 61.0714 686.19 67.4314 Q680.641 73.7508 670.918 73.7508 Q661.156 73.7508 655.606 67.4314 Q650.097 61.0714 650.097 49.9314 Q650.097 38.7509 655.606 32.4315 Q661.156 26.1121 670.918 26.1121 Z" fill="#000000" fill-rule="nonzero" fill-opacity="1" /><path clip-path="url(#clip530)" d="M736.746 28.9478 L736.746 35.9153 Q733.586 34.1734 730.386 33.3227 Q727.226 32.4315 723.985 32.4315 Q716.734 32.4315 712.724 37.0496 Q708.713 41.6271 708.713 49.9314 Q708.713 58.2358 712.724 62.8538 Q716.734 67.4314 723.985 67.4314 Q727.226 67.4314 730.386 66.5807 Q733.586 65.6895 736.746 63.9476 L736.746 70.8341 Q733.626 72.2924 730.264 73.0216 Q726.942 73.7508 723.175 73.7508 Q712.926 73.7508 706.89 67.3098 Q700.855 60.8689 700.855 49.9314 Q700.855 38.832 706.931 32.472 Q713.048 26.1121 723.661 26.1121 Q727.104 26.1121 730.386 26.8413 Q733.667 27.5299 736.746 28.9478 Z" fill="#000000" fill-rule="nonzero" fill-opacity="1" /><path clip-path="url(#clip530)" d="M744.321 27.2059 L787.787 27.2059 L787.787 33.1607 L769.72 33.1607 L769.72 72.576 L762.388 72.576 L762.388 33.1607 L744.321 33.1607 L744.321 27.2059 Z" fill="#000000" fill-rule="nonzero" fill-opacity="1" /><path clip-path="url(#clip530)" d="M826.271 59.127 Q826.271 55.4812 823.597 53.5773 Q820.964 51.6733 815.86 51.6733 L805.246 51.6733 L805.246 66.6212 L815.86 66.6212 Q820.964 66.6212 823.597 64.7172 Q826.271 62.7728 826.271 59.127 M797.752 27.2059 L805.246 27.2059 L805.246 45.7185 L816.184 45.7185 Q824.853 45.7185 829.511 49.0402 Q834.21 52.3215 834.21 59.127 Q834.21 65.9325 829.511 69.2543 Q824.853 72.576 816.184 72.576 L797.752 72.576 L797.752 27.2059 Z" fill="#000000" fill-rule="nonzero" fill-opacity="1" /><path clip-path="url(#clip530)" d="M880.472 51.6733 L880.472 66.6212 L891.085 66.6212 Q896.189 66.6212 898.863 64.7172 Q901.536 62.7728 901.536 59.127 Q901.536 55.4812 898.863 53.5773 Q896.189 51.6733 891.085 51.6733 L880.472 51.6733 M880.472 33.1607 L880.472 45.7185 L890.275 45.7185 Q894.488 45.7185 897.161 44.0576 Q899.835 42.3563 899.835 39.3586 Q899.835 36.3609 897.161 34.7811 Q894.488 33.1607 890.275 33.1607 L880.472 33.1607 M873.018 27.2059 L890.761 27.2059 Q898.741 27.2059 903.035 30.1225 Q907.329 33.0392 907.329 38.4269 Q907.329 42.5993 905.142 45.0704 Q902.954 47.5009 898.66 48.1085 Q903.805 49.0808 906.641 52.1594 Q909.476 55.2381 909.476 59.8562 Q909.476 65.9325 904.777 69.2543 Q900.119 72.576 891.45 72.576 L873.018 72.576 L873.018 27.2059 Z" fill="#000000" fill-rule="nonzero" fill-opacity="1" /><path clip-path="url(#clip530)" d="M929.407 65.7705 L929.407 89.8329 L921.912 89.8329 L921.912 27.2059 L929.407 27.2059 L929.407 34.0924 Q931.756 30.0415 935.321 28.0971 Q938.926 26.1121 943.909 26.1121 Q952.173 26.1121 957.317 32.6746 Q962.503 39.2371 962.503 49.9314 Q962.503 60.6258 957.317 67.1883 Q952.173 73.7508 943.909 73.7508 Q938.926 73.7508 935.321 71.8063 Q931.756 69.8214 929.407 65.7705 M954.765 49.9314 Q954.765 41.7081 951.363 37.0496 Q948 32.3505 942.086 32.3505 Q936.172 32.3505 932.769 37.0496 Q929.407 41.7081 929.407 49.9314 Q929.407 58.1548 932.769 62.8538 Q936.172 67.5124 942.086 67.5124 Q948 67.5124 951.363 62.8538 Q954.765 58.1548 954.765 49.9314 Z" fill="#000000" fill-rule="nonzero" fill-opacity="1" /><path clip-path="url(#clip530)" d="M1013.67 48.0275 L1013.67 51.6733 L979.395 51.6733 Q979.881 59.3701 984.013 63.421 Q988.185 67.4314 995.598 67.4314 Q999.892 67.4314 1003.9 66.3781 Q1007.95 65.3249 1011.92 63.2184 L1011.92 70.267 Q1007.91 71.9684 1003.7 72.8596 Q999.487 73.7508 995.153 73.7508 Q984.296 73.7508 977.936 67.4314 Q971.617 61.1119 971.617 50.3365 Q971.617 39.1965 977.612 32.6746 Q983.648 26.1121 993.857 26.1121 Q1003.01 26.1121 1008.32 32.0264 Q1013.67 37.9003 1013.67 48.0275 M1006.21 45.84 Q1006.13 39.7232 1002.77 36.0774 Q999.447 32.4315 993.938 32.4315 Q987.699 32.4315 983.932 35.9558 Q980.205 39.4801 979.638 45.8805 L1006.21 45.84 Z" fill="#000000" fill-rule="nonzero" fill-opacity="1" /><path clip-path="url(#clip530)" d="M1025.62 27.2059 L1036.51 27.2059 L1049.39 57.5877 L1062.32 27.2059 L1073.13 27.2059 L1073.13 72.576 L1065.64 72.576 L1065.64 34.3355 L1053.12 63.8666 L1045.67 63.8666 L1033.11 34.3355 L1033.11 72.576 L1025.62 72.576 L1025.62 27.2059 Z" fill="#000000" fill-rule="nonzero" fill-opacity="1" /><path clip-path="url(#clip530)" d="M1127.29 48.0275 L1127.29 51.6733 L1093.02 51.6733 Q1093.51 59.3701 1097.64 63.421 Q1101.81 67.4314 1109.23 67.4314 Q1113.52 67.4314 1117.53 66.3781 Q1121.58 65.3249 1125.55 63.2184 L1125.55 70.267 Q1121.54 71.9684 1117.33 72.8596 Q1113.12 73.7508 1108.78 73.7508 Q1097.92 73.7508 1091.56 67.4314 Q1085.24 61.1119 1085.24 50.3365 Q1085.24 39.1965 1091.24 32.6746 Q1097.28 26.1121 1107.48 26.1121 Q1116.64 26.1121 1121.95 32.0264 Q1127.29 37.9003 1127.29 48.0275 M1119.84 45.84 Q1119.76 39.7232 1116.4 36.0774 Q1113.07 32.4315 1107.57 32.4315 Q1101.33 32.4315 1097.56 35.9558 Q1093.83 39.4801 1093.27 45.8805 L1119.84 45.84 Z" fill="#000000" fill-rule="nonzero" fill-opacity="1" /><path clip-path="url(#clip530)" d="M1139.24 27.2059 L1146.74 27.2059 L1146.74 45.7185 L1170.92 45.7185 L1170.92 27.2059 L1178.42 27.2059 L1178.42 72.576 L1170.92 72.576 L1170.92 51.6733 L1146.74 51.6733 L1146.74 72.576 L1139.24 72.576 L1139.24 27.2059 Z" fill="#000000" fill-rule="nonzero" fill-opacity="1" /><path clip-path="url(#clip530)" d="M1232.33 27.2059 L1232.33 72.576 L1224.92 72.576 L1224.92 36.1584 L1203.05 72.576 L1193.49 72.576 L1193.49 27.2059 L1200.9 27.2059 L1200.9 63.5425 L1222.73 27.2059 L1232.33 27.2059 Z" fill="#000000" fill-rule="nonzero" fill-opacity="1" /><path clip-path="url(#clip530)" d="M1281.23 51.6733 L1281.23 66.6212 L1291.84 66.6212 Q1296.95 66.6212 1299.62 64.7172 Q1302.29 62.7728 1302.29 59.127 Q1302.29 55.4812 1299.62 53.5773 Q1296.95 51.6733 1291.84 51.6733 L1281.23 51.6733 M1281.23 33.1607 L1281.23 45.7185 L1291.03 45.7185 Q1295.24 45.7185 1297.92 44.0576 Q1300.59 42.3563 1300.59 39.3586 Q1300.59 36.3609 1297.92 34.7811 Q1295.24 33.1607 1291.03 33.1607 L1281.23 33.1607 M1273.77 27.2059 L1291.52 27.2059 Q1299.5 27.2059 1303.79 30.1225 Q1308.09 33.0392 1308.09 38.4269 Q1308.09 42.5993 1305.9 45.0704 Q1303.71 47.5009 1299.42 48.1085 Q1304.56 49.0808 1307.4 52.1594 Q1310.23 55.2381 1310.23 59.8562 Q1310.23 65.9325 1305.53 69.2543 Q1300.87 72.576 1292.21 72.576 L1273.77 72.576 L1273.77 27.2059 Z" fill="#000000" fill-rule="nonzero" fill-opacity="1" /><path clip-path="url(#clip530)" d="M1365.81 27.2059 L1373.26 27.2059 L1373.26 72.576 L1365.81 72.576 L1365.81 27.2059 M1369.54 26.1121 L1369.54 26.1121 M1351.19 59.127 Q1351.19 55.4812 1348.51 53.5773 Q1345.88 51.6733 1340.78 51.6733 L1330.16 51.6733 L1330.16 66.6212 L1340.78 66.6212 Q1345.88 66.6212 1348.51 64.7172 Q1351.19 62.7728 1351.19 59.127 M1322.67 27.2059 L1330.16 27.2059 L1330.16 45.7185 L1341.1 45.7185 Q1349.77 45.7185 1354.43 49.0402 Q1359.13 52.3215 1359.13 59.127 Q1359.13 65.9325 1354.43 69.2543 Q1349.77 72.576 1341.1 72.576 L1322.67 72.576 L1322.67 27.2059 Z" fill="#000000" fill-rule="nonzero" fill-opacity="1" /><path clip-path="url(#clip530)" d="M1414.66 72.576 L1414.66 53.4962 L1400.77 53.4962 Q1394.57 53.4962 1390.44 49.6479 Q1386.71 46.1641 1386.71 38.7104 L1386.71 27.2059 L1394.17 27.2059 L1394.17 38.0218 Q1394.17 42.7613 1396.27 45.1514 Q1398.42 47.5414 1402.63 47.5414 L1414.66 47.5414 L1414.66 27.2059 L1422.12 27.2059 L1422.12 72.576 L1414.66 72.576 Z" fill="#000000" fill-rule="nonzero" fill-opacity="1" /><path clip-path="url(#clip530)" d="M1476.04 27.2059 L1476.04 72.576 L1468.62 72.576 L1468.62 36.1584 L1446.75 72.576 L1437.19 72.576 L1437.19 27.2059 L1444.6 27.2059 L1444.6 63.5425 L1466.44 27.2059 L1476.04 27.2059 Z" fill="#000000" fill-rule="nonzero" fill-opacity="1" /><path clip-path="url(#clip530)" d="M1524.04 28.9478 L1524.04 35.9153 Q1520.88 34.1734 1517.68 33.3227 Q1514.52 32.4315 1511.28 32.4315 Q1504.03 32.4315 1500.02 37.0496 Q1496.01 41.6271 1496.01 49.9314 Q1496.01 58.2358 1500.02 62.8538 Q1504.03 67.4314 1511.28 67.4314 Q1514.52 67.4314 1517.68 66.5807 Q1520.88 65.6895 1524.04 63.9476 L1524.04 70.8341 Q1520.92 72.2924 1517.56 73.0216 Q1514.24 73.7508 1510.47 73.7508 Q1500.22 73.7508 1494.18 67.3098 Q1488.15 60.8689 1488.15 49.9314 Q1488.15 38.832 1494.22 32.472 Q1500.34 26.1121 1510.95 26.1121 Q1514.4 26.1121 1517.68 26.8413 Q1520.96 27.5299 1524.04 28.9478 Z" fill="#000000" fill-rule="nonzero" fill-opacity="1" /><path clip-path="url(#clip530)" d="M1532.26 72.576 L1532.26 66.3781 Q1539.63 65.2439 1541.9 60.1397 Q1544.66 52.9696 1544.66 34.619 L1544.66 27.2059 L1575.32 27.2059 L1575.32 72.576 L1567.87 72.576 L1567.87 33.1607 L1552.11 33.1607 L1552.11 37.6572 Q1552.11 55.1571 1548.55 63.0159 Q1544.74 71.4012 1532.26 72.576 Z" fill="#000000" fill-rule="nonzero" fill-opacity="1" /><path clip-path="url(#clip530)" d="M1628.84 48.0275 L1628.84 51.6733 L1594.57 51.6733 Q1595.05 59.3701 1599.18 63.421 Q1603.36 67.4314 1610.77 67.4314 Q1615.06 67.4314 1619.07 66.3781 Q1623.12 65.3249 1627.09 63.2184 L1627.09 70.267 Q1623.08 71.9684 1618.87 72.8596 Q1614.66 73.7508 1610.32 73.7508 Q1599.47 73.7508 1593.11 67.4314 Q1586.79 61.1119 1586.79 50.3365 Q1586.79 39.1965 1592.78 32.6746 Q1598.82 26.1121 1609.03 26.1121 Q1618.18 26.1121 1623.49 32.0264 Q1628.84 37.9003 1628.84 48.0275 M1621.38 45.84 Q1621.3 39.7232 1617.94 36.0774 Q1614.62 32.4315 1609.11 32.4315 Q1602.87 32.4315 1599.1 35.9558 Q1595.38 39.4801 1594.81 45.8805 L1621.38 45.84 Z" fill="#000000" fill-rule="nonzero" fill-opacity="1" /><path clip-path="url(#clip530)" d="M1640.79 27.2059 L1648.28 27.2059 L1648.28 45.7185 L1672.46 45.7185 L1672.46 27.2059 L1679.96 27.2059 L1679.96 72.576 L1672.46 72.576 L1672.46 51.6733 L1648.28 51.6733 L1648.28 72.576 L1640.79 72.576 L1640.79 27.2059 Z" fill="#000000" fill-rule="nonzero" fill-opacity="1" /><path clip-path="url(#clip530)" d="M1733.88 27.2059 L1733.88 72.576 L1726.46 72.576 L1726.46 36.1584 L1704.59 72.576 L1695.03 72.576 L1695.03 27.2059 L1702.44 27.2059 L1702.44 63.5425 L1724.28 27.2059 L1733.88 27.2059 Z" fill="#000000" fill-rule="nonzero" fill-opacity="1" /><path clip-path="url(#clip530)" d="M1756.72 40.2903 Q1756.72 43.6525 1759.32 45.5565 Q1761.91 47.4604 1766.73 47.4604 L1776.77 47.4604 L1776.77 33.1607 L1766.73 33.1607 Q1761.91 33.1607 1759.32 35.0241 Q1756.72 36.8875 1756.72 40.2903 M1746.11 72.576 L1759.96 52.6861 Q1755.26 51.6328 1752.15 48.8782 Q1749.03 46.0831 1749.03 40.2903 Q1749.03 33.7278 1753.36 30.4871 Q1757.74 27.2059 1766.53 27.2059 L1784.27 27.2059 L1784.27 72.576 L1776.77 72.576 L1776.77 53.4152 L1767.5 53.4152 L1754.13 72.576 L1746.11 72.576 Z" fill="#000000" fill-rule="nonzero" fill-opacity="1" /><path clip-path="url(#clip530)" d="M1843.09 32.4315 Q1837.09 32.4315 1833.61 37.1306 Q1830.13 41.7891 1830.13 49.9314 Q1830.13 58.0738 1833.57 62.7728 Q1837.05 67.4314 1843.09 67.4314 Q1849.04 67.4314 1852.53 62.7323 Q1856.01 58.0333 1856.01 49.9314 Q1856.01 41.8701 1852.53 37.1711 Q1849.04 32.4315 1843.09 32.4315 M1843.09 26.1121 Q1852.81 26.1121 1858.36 32.4315 Q1863.91 38.7509 1863.91 49.9314 Q1863.91 61.0714 1858.36 67.4314 Q1852.81 73.7508 1843.09 73.7508 Q1833.33 73.7508 1827.78 67.4314 Q1822.27 61.0714 1822.27 49.9314 Q1822.27 38.7509 1827.78 32.4315 Q1833.33 26.1121 1843.09 26.1121 Z" fill="#000000" fill-rule="nonzero" fill-opacity="1" /><path clip-path="url(#clip530)" d="M1870.88 27.2059 L1914.34 27.2059 L1914.34 33.1607 L1896.28 33.1607 L1896.28 72.576 L1888.94 72.576 L1888.94 33.1607 L1870.88 33.1607 L1870.88 27.2059 Z" fill="#000000" fill-rule="nonzero" fill-opacity="1" /><path clip-path="url(#clip530)" d="M1977.42 51.4708 L1975.63 42.1132 Q1973.81 32.5126 1966.6 32.5126 Q1961.17 32.5126 1958.7 36.9686 Q1955.58 42.5588 1955.58 49.9314 Q1955.58 58.8434 1958.62 63.0969 Q1961.7 67.4314 1966.6 67.4314 Q1972.03 67.4314 1974.95 58.8029 L1977.42 51.4708 M1981.59 39.075 L1985.6 27.2059 L1992.24 27.2059 L1983.94 51.7949 L1985.56 60.6663 Q1985.92 62.6513 1987.34 64.3122 Q1989 66.2566 1990.3 66.2566 L1993.86 66.2566 L1993.86 72.576 L1989.41 72.576 Q1985.6 72.576 1982.2 69.1732 Q1980.54 67.4719 1979.85 63.9071 Q1977.98 68.4036 1974.18 71.9279 Q1972.39 73.5887 1966.6 73.5887 Q1957.08 73.5887 1952.46 67.4314 Q1947.72 61.0714 1947.72 49.9314 Q1947.72 38.0218 1952.87 32.4315 Q1958.58 26.1931 1966.6 26.1931 Q1979.2 26.1931 1981.59 39.075 Z" fill="#000000" fill-rule="nonzero" fill-opacity="1" /><circle clip-path="url(#clip532)" cx="444.731" cy="1243.48" r="28.8" fill="#008000" fill-rule="evenodd" fill-opacity="1" stroke="#000000" stroke-opacity="1" stroke-width="3.072"/>
<circle clip-path="url(#clip532)" cx="752.827" cy="1166.79" r="28.8" fill="#008000" fill-rule="evenodd" fill-opacity="1" stroke="#000000" stroke-opacity="1" stroke-width="3.072"/>
<circle clip-path="url(#clip532)" cx="1060.92" cy="169.752" r="28.8" fill="#008000" fill-rule="evenodd" fill-opacity="1" stroke="#000000" stroke-opacity="1" stroke-width="3.072"/>
<circle clip-path="url(#clip532)" cx="1523.07" cy="240.969" r="28.8" fill="#008000" fill-rule="evenodd" fill-opacity="1" stroke="#000000" stroke-opacity="1" stroke-width="3.072"/>
<circle clip-path="url(#clip532)" cx="1831.16" cy="1309.22" r="28.8" fill="#008000" fill-rule="evenodd" fill-opacity="1" stroke="#000000" stroke-opacity="1" stroke-width="3.072"/>
<path clip-path="url(#clip530)" d="M452.126 279.509 L1061.58 279.509 L1061.58 175.829 L452.126 175.829  Z" fill="#ffffff" fill-rule="evenodd" fill-opacity="1"/>
<polyline clip-path="url(#clip530)" style="stroke:#000000; stroke-linecap:round; stroke-linejoin:round; stroke-width:4; stroke-opacity:1; fill:none" points="452.126,279.509 1061.58,279.509 1061.58,175.829 452.126,175.829 452.126,279.509 "/>
<circle clip-path="url(#clip530)" cx="517.442" cy="227.669" r="21.6847" fill="#008000" fill-rule="evenodd" fill-opacity="1" stroke="#000000" stroke-opacity="1" stroke-width="2.31304"/>
<path clip-path="url(#clip530)" d="M587.434 228.445 L587.434 241.107 L594.934 241.107 Q598.707 241.107 600.513 239.556 Q602.342 237.982 602.342 234.764 Q602.342 231.523 600.513 229.996 Q598.707 228.445 594.934 228.445 L587.434 228.445 M587.434 214.232 L587.434 224.648 L594.356 224.648 Q597.781 224.648 599.448 223.375 Q601.138 222.079 601.138 219.44 Q601.138 216.824 599.448 215.528 Q597.781 214.232 594.356 214.232 L587.434 214.232 M582.758 210.389 L594.703 210.389 Q600.05 210.389 602.943 212.612 Q605.837 214.834 605.837 218.931 Q605.837 222.102 604.355 223.977 Q602.874 225.852 600.004 226.315 Q603.453 227.056 605.351 229.417 Q607.272 231.755 607.272 235.273 Q607.272 239.903 604.124 242.426 Q600.976 244.949 595.166 244.949 L582.758 244.949 L582.758 210.389 Z" fill="#000000" fill-rule="nonzero" fill-opacity="1" /><path clip-path="url(#clip530)" d="M619.217 241.06 L619.217 254.81 L614.934 254.81 L614.934 219.024 L619.217 219.024 L619.217 222.959 Q620.559 220.644 622.596 219.533 Q624.656 218.399 627.504 218.399 Q632.226 218.399 635.166 222.149 Q638.128 225.898 638.128 232.01 Q638.128 238.121 635.166 241.871 Q632.226 245.621 627.504 245.621 Q624.656 245.621 622.596 244.51 Q620.559 243.375 619.217 241.06 M633.707 232.01 Q633.707 227.311 631.763 224.648 Q629.841 221.963 626.462 221.963 Q623.082 221.963 621.138 224.648 Q619.217 227.311 619.217 232.01 Q619.217 236.709 621.138 239.394 Q623.082 242.056 626.462 242.056 Q629.841 242.056 631.763 239.394 Q633.707 236.709 633.707 232.01 Z" fill="#000000" fill-rule="nonzero" fill-opacity="1" /><path clip-path="url(#clip530)" d="M667.364 230.922 L667.364 233.005 L647.781 233.005 Q648.059 237.403 650.42 239.718 Q652.804 242.01 657.04 242.01 Q659.494 242.01 661.786 241.408 Q664.101 240.806 666.369 239.602 L666.369 243.63 Q664.077 244.602 661.67 245.111 Q659.263 245.621 656.786 245.621 Q650.582 245.621 646.948 242.01 Q643.337 238.398 643.337 232.241 Q643.337 225.875 646.763 222.149 Q650.212 218.399 656.045 218.399 Q661.276 218.399 664.309 221.778 Q667.364 225.135 667.364 230.922 M663.105 229.672 Q663.059 226.176 661.138 224.093 Q659.239 222.01 656.091 222.01 Q652.527 222.01 650.374 224.024 Q648.244 226.037 647.92 229.695 L663.105 229.672 Z" fill="#000000" fill-rule="nonzero" fill-opacity="1" /><path clip-path="url(#clip530)" d="M674.193 219.024 L680.42 219.024 L687.781 236.385 L695.165 219.024 L701.346 219.024 L701.346 244.949 L697.063 244.949 L697.063 223.098 L689.911 239.972 L685.651 239.972 L678.475 223.098 L678.475 244.949 L674.193 244.949 L674.193 219.024 Z" fill="#000000" fill-rule="nonzero" fill-opacity="1" /><path clip-path="url(#clip530)" d="M714.401 226.5 Q714.401 228.422 715.883 229.51 Q717.364 230.598 720.119 230.598 L725.859 230.598 L725.859 222.426 L720.119 222.426 Q717.364 222.426 715.883 223.491 Q714.401 224.556 714.401 226.5 M708.336 244.949 L716.253 233.584 Q713.568 232.982 711.785 231.408 Q710.003 229.811 710.003 226.5 Q710.003 222.75 712.48 220.899 Q714.98 219.024 720.003 219.024 L730.142 219.024 L730.142 244.949 L725.859 244.949 L725.859 234 L720.559 234 L712.92 244.949 L708.336 244.949 Z" fill="#000000" fill-rule="nonzero" fill-opacity="1" /><path clip-path="url(#clip530)" d="M757.804 233.005 L757.804 241.547 L763.869 241.547 Q766.785 241.547 768.313 240.459 Q769.841 239.347 769.841 237.264 Q769.841 235.181 768.313 234.093 Q766.785 233.005 763.869 233.005 L757.804 233.005 M757.804 222.426 L757.804 229.602 L763.406 229.602 Q765.813 229.602 767.341 228.653 Q768.868 227.681 768.868 225.968 Q768.868 224.255 767.341 223.352 Q765.813 222.426 763.406 222.426 L757.804 222.426 M753.544 219.024 L763.683 219.024 Q768.243 219.024 770.697 220.69 Q773.151 222.357 773.151 225.436 Q773.151 227.82 771.901 229.232 Q770.651 230.621 768.197 230.968 Q771.137 231.523 772.757 233.283 Q774.378 235.042 774.378 237.681 Q774.378 241.153 771.693 243.051 Q769.031 244.949 764.077 244.949 L753.544 244.949 L753.544 219.024 Z" fill="#000000" fill-rule="nonzero" fill-opacity="1" /><path clip-path="url(#clip530)" d="M806.137 219.024 L810.396 219.024 L810.396 244.949 L806.137 244.949 L806.137 219.024 M808.266 218.399 L808.266 218.399 M797.78 237.264 Q797.78 235.181 796.253 234.093 Q794.748 233.005 791.831 233.005 L785.767 233.005 L785.767 241.547 L791.831 241.547 Q794.748 241.547 796.253 240.459 Q797.78 239.347 797.78 237.264 M781.484 219.024 L785.767 219.024 L785.767 229.602 L792.017 229.602 Q796.97 229.602 799.632 231.5 Q802.317 233.375 802.317 237.264 Q802.317 241.153 799.632 243.051 Q796.97 244.949 792.017 244.949 L781.484 244.949 L781.484 219.024 Z" fill="#000000" fill-rule="nonzero" fill-opacity="1" /><path clip-path="url(#clip530)" d="M834.053 244.949 L834.053 234.047 L826.114 234.047 Q822.572 234.047 820.211 231.848 Q818.081 229.857 818.081 225.598 L818.081 219.024 L822.34 219.024 L822.34 225.204 Q822.34 227.912 823.544 229.278 Q824.771 230.644 827.178 230.644 L834.053 230.644 L834.053 219.024 L838.313 219.024 L838.313 244.949 L834.053 244.949 Z" fill="#000000" fill-rule="nonzero" fill-opacity="1" /><path clip-path="url(#clip530)" d="M869.123 219.024 L869.123 244.949 L864.886 244.949 L864.886 224.139 L852.387 244.949 L846.924 244.949 L846.924 219.024 L851.16 219.024 L851.16 239.787 L863.636 219.024 L869.123 219.024 Z" fill="#000000" fill-rule="nonzero" fill-opacity="1" /><path clip-path="url(#clip530)" d="M896.553 220.019 L896.553 224 Q894.747 223.005 892.919 222.519 Q891.113 222.01 889.261 222.01 Q885.118 222.01 882.826 224.648 Q880.535 227.264 880.535 232.01 Q880.535 236.755 882.826 239.394 Q885.118 242.01 889.261 242.01 Q891.113 242.01 892.919 241.523 Q894.747 241.014 896.553 240.019 L896.553 243.954 Q894.771 244.787 892.849 245.204 Q890.951 245.621 888.798 245.621 Q882.942 245.621 879.493 241.94 Q876.044 238.26 876.044 232.01 Q876.044 225.667 879.516 222.033 Q883.011 218.399 889.076 218.399 Q891.044 218.399 892.919 218.815 Q894.794 219.209 896.553 220.019 Z" fill="#000000" fill-rule="nonzero" fill-opacity="1" /><path clip-path="url(#clip530)" d="M901.252 244.949 L901.252 241.408 Q905.465 240.76 906.761 237.843 Q908.335 233.746 908.335 223.26 L908.335 219.024 L925.858 219.024 L925.858 244.949 L921.599 244.949 L921.599 222.426 L912.595 222.426 L912.595 224.996 Q912.595 234.996 910.558 239.486 Q908.382 244.278 901.252 244.949 Z" fill="#000000" fill-rule="nonzero" fill-opacity="1" /><path clip-path="url(#clip530)" d="M956.437 230.922 L956.437 233.005 L936.854 233.005 Q937.131 237.403 939.493 239.718 Q941.877 242.01 946.113 242.01 Q948.567 242.01 950.858 241.408 Q953.173 240.806 955.442 239.602 L955.442 243.63 Q953.15 244.602 950.743 245.111 Q948.335 245.621 945.858 245.621 Q939.655 245.621 936.02 242.01 Q932.409 238.398 932.409 232.241 Q932.409 225.875 935.835 222.149 Q939.284 218.399 945.118 218.399 Q950.349 218.399 953.381 221.778 Q956.437 225.135 956.437 230.922 M952.178 229.672 Q952.131 226.176 950.21 224.093 Q948.312 222.01 945.164 222.01 Q941.599 222.01 939.446 224.024 Q937.317 226.037 936.993 229.695 L952.178 229.672 Z" fill="#000000" fill-rule="nonzero" fill-opacity="1" /><path clip-path="url(#clip530)" d="M963.266 219.024 L967.548 219.024 L967.548 229.602 L981.367 229.602 L981.367 219.024 L985.65 219.024 L985.65 244.949 L981.367 244.949 L981.367 233.005 L967.548 233.005 L967.548 244.949 L963.266 244.949 L963.266 219.024 Z" fill="#000000" fill-rule="nonzero" fill-opacity="1" /><path clip-path="url(#clip530)" d="M1016.46 219.024 L1016.46 244.949 L1012.22 244.949 L1012.22 224.139 L999.724 244.949 L994.261 244.949 L994.261 219.024 L998.497 219.024 L998.497 239.787 L1010.97 219.024 L1016.46 219.024 Z" fill="#000000" fill-rule="nonzero" fill-opacity="1" /><path clip-path="url(#clip530)" d="M1029.52 226.5 Q1029.52 228.422 1031 229.51 Q1032.48 230.598 1035.23 230.598 L1040.97 230.598 L1040.97 222.426 L1035.23 222.426 Q1032.48 222.426 1031 223.491 Q1029.52 224.556 1029.52 226.5 M1023.45 244.949 L1031.37 233.584 Q1028.68 232.982 1026.9 231.408 Q1025.12 229.811 1025.12 226.5 Q1025.12 222.75 1027.59 220.899 Q1030.09 219.024 1035.12 219.024 L1045.26 219.024 L1045.26 244.949 L1040.97 244.949 L1040.97 234 L1035.67 234 L1028.03 244.949 L1023.45 244.949 Z" fill="#000000" fill-rule="nonzero" fill-opacity="1" /></svg>
