<?xml version="1.0" encoding="utf-8"?>
<svg xmlns="http://www.w3.org/2000/svg" xmlns:xlink="http://www.w3.org/1999/xlink" width="480" height="384" viewBox="0 0 1920 1536">
<defs>
  <clipPath id="clip580">
    <rect x="0" y="0" width="1920" height="1536"/>
  </clipPath>
</defs>
<path clip-path="url(#clip580)" d="M0 1536 L1920 1536 L1920 0 L0 0  Z" fill="#ffffff" fill-rule="evenodd" fill-opacity="1"/>
<defs>
  <clipPath id="clip581">
    <rect x="384" y="0" width="1345" height="1345"/>
  </clipPath>
</defs>
<path clip-path="url(#clip580)" d="M208.668 1343.4 L1872.76 1343.4 L1872.76 135.568 L208.668 135.568  Z" fill="#ffffff" fill-rule="evenodd" fill-opacity="1"/>
<defs>
  <clipPath id="clip582">
    <rect x="208" y="135" width="1665" height="1209"/>
  </clipPath>
</defs>
<polyline clip-path="url(#clip582)" style="stroke:#000000; stroke-linecap:round; stroke-linejoin:round; stroke-width:2; stroke-opacity:0.1; fill:none" points="208.668,1343.4 208.668,135.568 "/>
<polyline clip-path="url(#clip582)" style="stroke:#000000; stroke-linecap:round; stroke-linejoin:round; stroke-width:2; stroke-opacity:0.1; fill:none" points="541.485,1343.4 541.485,135.568 "/>
<polyline clip-path="url(#clip582)" style="stroke:#000000; stroke-linecap:round; stroke-linejoin:round; stroke-width:2; stroke-opacity:0.1; fill:none" points="874.303,1343.4 874.303,135.568 "/>
<polyline clip-path="url(#clip582)" style="stroke:#000000; stroke-linecap:round; stroke-linejoin:round; stroke-width:2; stroke-opacity:0.1; fill:none" points="1207.12,1343.4 1207.12,135.568 "/>
<polyline clip-path="url(#clip582)" style="stroke:#000000; stroke-linecap:round; stroke-linejoin:round; stroke-width:2; stroke-opacity:0.1; fill:none" points="1539.94,1343.4 1539.94,135.568 "/>
<polyline clip-path="url(#clip582)" style="stroke:#000000; stroke-linecap:round; stroke-linejoin:round; stroke-width:2; stroke-opacity:0.1; fill:none" points="1872.76,1343.4 1872.76,135.568 "/>
<polyline clip-path="url(#clip582)" style="stroke:#000000; stroke-linecap:round; stroke-linejoin:round; stroke-width:2; stroke-opacity:0.1; fill:none" points="208.668,1070.41 1872.76,1070.41 "/>
<polyline clip-path="url(#clip582)" style="stroke:#000000; stroke-linecap:round; stroke-linejoin:round; stroke-width:2; stroke-opacity:0.1; fill:none" points="208.668,771.889 1872.76,771.889 "/>
<polyline clip-path="url(#clip582)" style="stroke:#000000; stroke-linecap:round; stroke-linejoin:round; stroke-width:2; stroke-opacity:0.1; fill:none" points="208.668,473.371 1872.76,473.371 "/>
<polyline clip-path="url(#clip582)" style="stroke:#000000; stroke-linecap:round; stroke-linejoin:round; stroke-width:2; stroke-opacity:0.1; fill:none" points="208.668,174.854 1872.76,174.854 "/>
<polyline clip-path="url(#clip580)" style="stroke:#000000; stroke-linecap:round; stroke-linejoin:round; stroke-width:4; stroke-opacity:1; fill:none" points="208.668,1343.4 1872.76,1343.4 "/>
<polyline clip-path="url(#clip580)" style="stroke:#000000; stroke-linecap:round; stroke-linejoin:round; stroke-width:4; stroke-opacity:1; fill:none" points="208.668,1343.4 208.668,1324.51 "/>
<polyline clip-path="url(#clip580)" style="stroke:#000000; stroke-linecap:round; stroke-linejoin:round; stroke-width:4; stroke-opacity:1; fill:none" points="541.485,1343.4 541.485,1324.51 "/>
<polyline clip-path="url(#clip580)" style="stroke:#000000; stroke-linecap:round; stroke-linejoin:round; stroke-width:4; stroke-opacity:1; fill:none" points="874.303,1343.4 874.303,1324.51 "/>
<polyline clip-path="url(#clip580)" style="stroke:#000000; stroke-linecap:round; stroke-linejoin:round; stroke-width:4; stroke-opacity:1; fill:none" points="1207.12,1343.4 1207.12,1324.51 "/>
<polyline clip-path="url(#clip580)" style="stroke:#000000; stroke-linecap:round; stroke-linejoin:round; stroke-width:4; stroke-opacity:1; fill:none" points="1539.94,1343.4 1539.94,1324.51 "/>
<polyline clip-path="url(#clip580)" style="stroke:#000000; stroke-linecap:round; stroke-linejoin:round; stroke-width:4; stroke-opacity:1; fill:none" points="1872.76,1343.4 1872.76,1324.51 "/>
<path clip-path="url(#clip580)" d="M208.668 1370.48 Q205.056 1370.48 203.228 1374.05 Q201.422 1377.59 201.422 1384.72 Q201.422 1391.83 203.228 1395.39 Q205.056 1398.93 208.668 1398.93 Q212.302 1398.93 214.107 1395.39 Q215.936 1391.83 215.936 1384.72 Q215.936 1377.59 214.107 1374.05 Q212.302 1370.48 208.668 1370.48 M208.668 1366.78 Q214.478 1366.78 217.533 1371.39 Q220.612 1375.97 220.612 1384.72 Q220.612 1393.45 217.533 1398.05 Q214.478 1402.64 208.668 1402.64 Q202.857 1402.64 199.779 1398.05 Q196.723 1393.45 196.723 1384.72 Q196.723 1375.97 199.779 1371.39 Q202.857 1366.78 208.668 1366.78 Z" fill="#000000" fill-rule="nonzero" fill-opacity="1" /><path clip-path="url(#clip580)" d="M536.138 1398.03 L552.457 1398.03 L552.457 1401.96 L530.513 1401.96 L530.513 1398.03 Q533.175 1395.27 537.758 1390.64 Q542.365 1385.99 543.545 1384.65 Q545.791 1382.13 546.67 1380.39 Q547.573 1378.63 547.573 1376.94 Q547.573 1374.19 545.629 1372.45 Q543.707 1370.71 540.606 1370.71 Q538.407 1370.71 535.953 1371.48 Q533.522 1372.24 530.745 1373.79 L530.745 1369.07 Q533.569 1367.94 536.022 1367.36 Q538.476 1366.78 540.513 1366.78 Q545.883 1366.78 549.078 1369.46 Q552.272 1372.15 552.272 1376.64 Q552.272 1378.77 551.462 1380.69 Q550.675 1382.59 548.569 1385.18 Q547.99 1385.85 544.888 1389.07 Q541.786 1392.26 536.138 1398.03 Z" fill="#000000" fill-rule="nonzero" fill-opacity="1" /><path clip-path="url(#clip580)" d="M877.312 1371.48 L865.507 1389.93 L877.312 1389.93 L877.312 1371.48 M876.085 1367.4 L881.965 1367.4 L881.965 1389.93 L886.895 1389.93 L886.895 1393.82 L881.965 1393.82 L881.965 1401.96 L877.312 1401.96 L877.312 1393.82 L861.71 1393.82 L861.71 1389.3 L876.085 1367.4 Z" fill="#000000" fill-rule="nonzero" fill-opacity="1" /><path clip-path="url(#clip580)" d="M1207.53 1382.82 Q1204.38 1382.82 1202.53 1384.97 Q1200.7 1387.13 1200.7 1390.88 Q1200.7 1394.6 1202.53 1396.78 Q1204.38 1398.93 1207.53 1398.93 Q1210.67 1398.93 1212.5 1396.78 Q1214.35 1394.6 1214.35 1390.88 Q1214.35 1387.13 1212.5 1384.97 Q1210.67 1382.82 1207.53 1382.82 M1216.81 1368.17 L1216.81 1372.43 Q1215.05 1371.59 1213.24 1371.15 Q1211.46 1370.71 1209.7 1370.71 Q1205.07 1370.71 1202.62 1373.84 Q1200.19 1376.96 1199.84 1383.28 Q1201.21 1381.27 1203.27 1380.2 Q1205.33 1379.12 1207.8 1379.12 Q1213.01 1379.12 1216.02 1382.29 Q1219.05 1385.44 1219.05 1390.88 Q1219.05 1396.2 1215.91 1399.42 Q1212.76 1402.64 1207.53 1402.64 Q1201.53 1402.64 1198.36 1398.05 Q1195.19 1393.45 1195.19 1384.72 Q1195.19 1376.52 1199.08 1371.66 Q1202.97 1366.78 1209.52 1366.78 Q1211.28 1366.78 1213.06 1367.13 Q1214.86 1367.47 1216.81 1368.17 Z" fill="#000000" fill-rule="nonzero" fill-opacity="1" /><path clip-path="url(#clip580)" d="M1539.94 1385.55 Q1536.6 1385.55 1534.68 1387.33 Q1532.79 1389.12 1532.79 1392.24 Q1532.79 1395.37 1534.68 1397.15 Q1536.6 1398.93 1539.94 1398.93 Q1543.27 1398.93 1545.19 1397.15 Q1547.11 1395.34 1547.11 1392.24 Q1547.11 1389.12 1545.19 1387.33 Q1543.29 1385.55 1539.94 1385.55 M1535.26 1383.56 Q1532.25 1382.82 1530.56 1380.76 Q1528.9 1378.7 1528.9 1375.74 Q1528.9 1371.59 1531.84 1369.19 Q1534.8 1366.78 1539.94 1366.78 Q1545.1 1366.78 1548.04 1369.19 Q1550.98 1371.59 1550.98 1375.74 Q1550.98 1378.7 1549.29 1380.76 Q1547.62 1382.82 1544.64 1383.56 Q1548.02 1384.35 1549.89 1386.64 Q1551.79 1388.93 1551.79 1392.24 Q1551.79 1397.26 1548.71 1399.95 Q1545.66 1402.64 1539.94 1402.64 Q1534.22 1402.64 1531.14 1399.95 Q1528.09 1397.26 1528.09 1392.24 Q1528.09 1388.93 1529.98 1386.64 Q1531.88 1384.35 1535.26 1383.56 M1533.55 1376.18 Q1533.55 1378.86 1535.22 1380.37 Q1536.91 1381.87 1539.94 1381.87 Q1542.95 1381.87 1544.64 1380.37 Q1546.35 1378.86 1546.35 1376.18 Q1546.35 1373.49 1544.64 1371.99 Q1542.95 1370.48 1539.94 1370.48 Q1536.91 1370.48 1535.22 1371.99 Q1533.55 1373.49 1533.55 1376.18 Z" fill="#000000" fill-rule="nonzero" fill-opacity="1" /><path clip-path="url(#clip580)" d="M1847.44 1398.03 L1855.08 1398.03 L1855.08 1371.66 L1846.77 1373.33 L1846.77 1369.07 L1855.04 1367.4 L1859.71 1367.4 L1859.71 1398.03 L1867.35 1398.03 L1867.35 1401.96 L1847.44 1401.96 L1847.44 1398.03 Z" fill="#000000" fill-rule="nonzero" fill-opacity="1" /><path clip-path="url(#clip580)" d="M1886.8 1370.48 Q1883.18 1370.48 1881.36 1374.05 Q1879.55 1377.59 1879.55 1384.72 Q1879.55 1391.83 1881.36 1395.39 Q1883.18 1398.93 1886.8 1398.93 Q1890.43 1398.93 1892.23 1395.39 Q1894.06 1391.83 1894.06 1384.72 Q1894.06 1377.59 1892.23 1374.05 Q1890.43 1370.48 1886.8 1370.48 M1886.8 1366.78 Q1892.61 1366.78 1895.66 1371.39 Q1898.74 1375.97 1898.74 1384.72 Q1898.74 1393.45 1895.66 1398.05 Q1892.61 1402.64 1886.8 1402.64 Q1880.99 1402.64 1877.91 1398.05 Q1874.85 1393.45 1874.85 1384.72 Q1874.85 1375.97 1877.91 1371.39 Q1880.99 1366.78 1886.8 1366.78 Z" fill="#000000" fill-rule="nonzero" fill-opacity="1" /><path clip-path="url(#clip580)" d="M920.686 1458.37 L920.686 1475.78 L930.999 1475.78 Q936.187 1475.78 938.669 1473.65 Q941.184 1471.49 941.184 1467.06 Q941.184 1462.61 938.669 1460.51 Q936.187 1458.37 930.999 1458.37 L920.686 1458.37 M920.686 1438.83 L920.686 1453.15 L930.203 1453.15 Q934.914 1453.15 937.205 1451.4 Q939.529 1449.62 939.529 1445.99 Q939.529 1442.4 937.205 1440.61 Q934.914 1438.83 930.203 1438.83 L920.686 1438.83 M914.257 1433.55 L930.681 1433.55 Q938.033 1433.55 942.011 1436.6 Q945.99 1439.66 945.99 1445.29 Q945.99 1449.65 943.953 1452.23 Q941.916 1454.81 937.969 1455.45 Q942.712 1456.46 945.322 1459.71 Q947.963 1462.93 947.963 1467.76 Q947.963 1474.13 943.635 1477.6 Q939.306 1481.07 931.317 1481.07 L914.257 1481.07 L914.257 1433.55 Z" fill="#000000" fill-rule="nonzero" fill-opacity="1" /><path clip-path="url(#clip580)" d="M964.387 1475.72 L964.387 1494.63 L958.499 1494.63 L958.499 1445.42 L964.387 1445.42 L964.387 1450.83 Q966.233 1447.65 969.034 1446.12 Q971.867 1444.56 975.782 1444.56 Q982.275 1444.56 986.317 1449.72 Q990.391 1454.87 990.391 1463.28 Q990.391 1471.68 986.317 1476.83 Q982.275 1481.99 975.782 1481.99 Q971.867 1481.99 969.034 1480.46 Q966.233 1478.9 964.387 1475.72 M984.312 1463.28 Q984.312 1456.81 981.638 1453.15 Q978.996 1449.46 974.349 1449.46 Q969.702 1449.46 967.029 1453.15 Q964.387 1456.81 964.387 1463.28 Q964.387 1469.74 967.029 1473.43 Q969.702 1477.09 974.349 1477.09 Q978.996 1477.09 981.638 1473.43 Q984.312 1469.74 984.312 1463.28 Z" fill="#000000" fill-rule="nonzero" fill-opacity="1" /><path clip-path="url(#clip580)" d="M1030.59 1461.78 L1030.59 1464.64 L1003.66 1464.64 Q1004.05 1470.69 1007.29 1473.87 Q1010.57 1477.03 1016.39 1477.03 Q1019.77 1477.03 1022.92 1476.2 Q1026.1 1475.37 1029.22 1473.72 L1029.22 1479.25 Q1026.07 1480.59 1022.76 1481.29 Q1019.45 1481.99 1016.04 1481.99 Q1007.51 1481.99 1002.52 1477.03 Q997.552 1472.06 997.552 1463.59 Q997.552 1454.84 1002.26 1449.72 Q1007.01 1444.56 1015.03 1444.56 Q1022.22 1444.56 1026.39 1449.21 Q1030.59 1453.82 1030.59 1461.78 M1024.73 1460.06 Q1024.67 1455.25 1022.03 1452.39 Q1019.42 1449.53 1015.09 1449.53 Q1010.19 1449.53 1007.23 1452.29 Q1004.3 1455.06 1003.85 1460.09 L1024.73 1460.06 Z" fill="#000000" fill-rule="nonzero" fill-opacity="1" /><path clip-path="url(#clip580)" d="M1039.98 1445.42 L1048.54 1445.42 L1058.66 1469.29 L1068.82 1445.42 L1077.31 1445.42 L1077.31 1481.07 L1071.43 1481.07 L1071.43 1451.02 L1061.59 1474.22 L1055.73 1474.22 L1045.87 1451.02 L1045.87 1481.07 L1039.98 1481.07 L1039.98 1445.42 Z" fill="#000000" fill-rule="nonzero" fill-opacity="1" /><path clip-path="url(#clip580)" d="M1095.27 1455.7 Q1095.27 1458.34 1097.3 1459.84 Q1099.34 1461.33 1103.13 1461.33 L1111.02 1461.33 L1111.02 1450.1 L1103.13 1450.1 Q1099.34 1450.1 1097.3 1451.56 Q1095.27 1453.03 1095.27 1455.7 M1086.93 1481.07 L1097.81 1465.44 Q1094.12 1464.61 1091.67 1462.45 Q1089.22 1460.25 1089.22 1455.7 Q1089.22 1450.54 1092.62 1448 Q1096.06 1445.42 1102.97 1445.42 L1116.91 1445.42 L1116.91 1481.07 L1111.02 1481.07 L1111.02 1466.01 L1103.73 1466.01 L1093.23 1481.07 L1086.93 1481.07 Z" fill="#000000" fill-rule="nonzero" fill-opacity="1" /><path clip-path="url(#clip580)" d="M1155.1 1435.3 L1155.1 1445.42 L1167.17 1445.42 L1167.17 1449.97 L1155.1 1449.97 L1155.1 1469.32 Q1155.1 1473.68 1156.28 1474.92 Q1157.49 1476.17 1161.15 1476.17 L1167.17 1476.17 L1167.17 1481.07 L1161.15 1481.07 Q1154.37 1481.07 1151.79 1478.55 Q1149.22 1476.01 1149.22 1469.32 L1149.22 1449.97 L1144.92 1449.97 L1144.92 1445.42 L1149.22 1445.42 L1149.22 1435.3 L1155.1 1435.3 Z" fill="#000000" fill-rule="nonzero" fill-opacity="1" /><polyline clip-path="url(#clip580)" style="stroke:#000000; stroke-linecap:round; stroke-linejoin:round; stroke-width:4; stroke-opacity:1; fill:none" points="208.668,1343.4 208.668,135.568 "/>
<polyline clip-path="url(#clip580)" style="stroke:#000000; stroke-linecap:round; stroke-linejoin:round; stroke-width:4; stroke-opacity:1; fill:none" points="208.668,1070.41 227.565,1070.41 "/>
<polyline clip-path="url(#clip580)" style="stroke:#000000; stroke-linecap:round; stroke-linejoin:round; stroke-width:4; stroke-opacity:1; fill:none" points="208.668,771.889 227.565,771.889 "/>
<polyline clip-path="url(#clip580)" style="stroke:#000000; stroke-linecap:round; stroke-linejoin:round; stroke-width:4; stroke-opacity:1; fill:none" points="208.668,473.371 227.565,473.371 "/>
<polyline clip-path="url(#clip580)" style="stroke:#000000; stroke-linecap:round; stroke-linejoin:round; stroke-width:4; stroke-opacity:1; fill:none" points="208.668,174.854 227.565,174.854 "/>
<path clip-path="url(#clip580)" d="M158.965 1053.13 L177.321 1053.13 L177.321 1057.06 L163.247 1057.06 L163.247 1065.53 Q164.266 1065.19 165.284 1065.02 Q166.303 1064.84 167.321 1064.84 Q173.108 1064.84 176.488 1068.01 Q179.868 1071.18 179.868 1076.6 Q179.868 1082.18 176.395 1085.28 Q172.923 1088.36 166.604 1088.36 Q164.428 1088.36 162.159 1087.99 Q159.914 1087.62 157.507 1086.88 L157.507 1082.18 Q159.59 1083.31 161.812 1083.87 Q164.034 1084.42 166.511 1084.42 Q170.516 1084.42 172.854 1082.32 Q175.192 1080.21 175.192 1076.6 Q175.192 1072.99 172.854 1070.88 Q170.516 1068.77 166.511 1068.77 Q164.636 1068.77 162.761 1069.19 Q160.909 1069.61 158.965 1070.49 L158.965 1053.13 Z" fill="#000000" fill-rule="nonzero" fill-opacity="1" /><path clip-path="url(#clip580)" d="M128.572 785.233 L136.21 785.233 L136.21 758.868 L127.9 760.534 L127.9 756.275 L136.164 754.609 L140.84 754.609 L140.84 785.233 L148.479 785.233 L148.479 789.169 L128.572 789.169 L128.572 785.233 Z" fill="#000000" fill-rule="nonzero" fill-opacity="1" /><path clip-path="url(#clip580)" d="M167.923 757.687 Q164.312 757.687 162.483 761.252 Q160.678 764.794 160.678 771.923 Q160.678 779.03 162.483 782.594 Q164.312 786.136 167.923 786.136 Q171.557 786.136 173.363 782.594 Q175.192 779.03 175.192 771.923 Q175.192 764.794 173.363 761.252 Q171.557 757.687 167.923 757.687 M167.923 753.984 Q173.733 753.984 176.789 758.59 Q179.868 763.173 179.868 771.923 Q179.868 780.65 176.789 785.256 Q173.733 789.84 167.923 789.84 Q162.113 789.84 159.034 785.256 Q155.979 780.65 155.979 771.923 Q155.979 763.173 159.034 758.59 Q162.113 753.984 167.923 753.984 Z" fill="#000000" fill-rule="nonzero" fill-opacity="1" /><path clip-path="url(#clip580)" d="M129.567 486.716 L137.206 486.716 L137.206 460.35 L128.896 462.017 L128.896 457.758 L137.159 456.091 L141.835 456.091 L141.835 486.716 L149.474 486.716 L149.474 490.651 L129.567 490.651 L129.567 486.716 Z" fill="#000000" fill-rule="nonzero" fill-opacity="1" /><path clip-path="url(#clip580)" d="M158.965 456.091 L177.321 456.091 L177.321 460.026 L163.247 460.026 L163.247 468.498 Q164.266 468.151 165.284 467.989 Q166.303 467.804 167.321 467.804 Q173.108 467.804 176.488 470.975 Q179.868 474.147 179.868 479.563 Q179.868 485.142 176.395 488.244 Q172.923 491.322 166.604 491.322 Q164.428 491.322 162.159 490.952 Q159.914 490.582 157.507 489.841 L157.507 485.142 Q159.59 486.276 161.812 486.832 Q164.034 487.387 166.511 487.387 Q170.516 487.387 172.854 485.281 Q175.192 483.174 175.192 479.563 Q175.192 475.952 172.854 473.846 Q170.516 471.739 166.511 471.739 Q164.636 471.739 162.761 472.156 Q160.909 472.573 158.965 473.452 L158.965 456.091 Z" fill="#000000" fill-rule="nonzero" fill-opacity="1" /><path clip-path="url(#clip580)" d="M131.789 188.199 L148.108 188.199 L148.108 192.134 L126.164 192.134 L126.164 188.199 Q128.826 185.444 133.409 180.814 Q138.016 176.162 139.196 174.819 Q141.442 172.296 142.321 170.56 Q143.224 168.801 143.224 167.111 Q143.224 164.356 141.28 162.62 Q139.359 160.884 136.257 160.884 Q134.058 160.884 131.604 161.648 Q129.173 162.412 126.396 163.963 L126.396 159.24 Q129.22 158.106 131.673 157.527 Q134.127 156.949 136.164 156.949 Q141.534 156.949 144.729 159.634 Q147.923 162.319 147.923 166.81 Q147.923 168.939 147.113 170.861 Q146.326 172.759 144.22 175.351 Q143.641 176.023 140.539 179.24 Q137.437 182.435 131.789 188.199 Z" fill="#000000" fill-rule="nonzero" fill-opacity="1" /><path clip-path="url(#clip580)" d="M167.923 160.652 Q164.312 160.652 162.483 164.217 Q160.678 167.759 160.678 174.888 Q160.678 181.995 162.483 185.56 Q164.312 189.101 167.923 189.101 Q171.557 189.101 173.363 185.56 Q175.192 181.995 175.192 174.888 Q175.192 167.759 173.363 164.217 Q171.557 160.652 167.923 160.652 M167.923 156.949 Q173.733 156.949 176.789 161.555 Q179.868 166.138 179.868 174.888 Q179.868 183.615 176.789 188.222 Q173.733 192.805 167.923 192.805 Q162.113 192.805 159.034 188.222 Q155.979 183.615 155.979 174.888 Q155.979 166.138 159.034 161.555 Q162.113 156.949 167.923 156.949 Z" fill="#000000" fill-rule="nonzero" fill-opacity="1" /><path clip-path="url(#clip580)" d="M35.5882 916.58 L83.1082 916.58 L83.1082 923.009 L40.999 923.009 L40.999 946.371 L83.1082 946.371 L83.1082 952.801 L35.5882 952.801 L35.5882 916.58 Z" fill="#000000" fill-rule="nonzero" fill-opacity="1" /><path clip-path="url(#clip580)" d="M51.5661 890.226 Q51.5661 894.937 55.2582 897.674 Q58.9185 900.411 65.316 900.411 Q71.7135 900.411 75.4057 897.706 Q79.0659 894.968 79.0659 890.226 Q79.0659 885.547 75.3738 882.81 Q71.6817 880.073 65.316 880.073 Q58.9821 880.073 55.29 882.81 Q51.5661 885.547 51.5661 890.226 M46.6008 890.226 Q46.6008 882.587 51.5661 878.227 Q56.5313 873.866 65.316 873.866 Q74.0689 873.866 79.0659 878.227 Q84.0312 882.587 84.0312 890.226 Q84.0312 897.897 79.0659 902.257 Q74.0689 906.586 65.316 906.586 Q56.5313 906.586 51.5661 902.257 Q46.6008 897.897 46.6008 890.226 Z" fill="#000000" fill-rule="nonzero" fill-opacity="1" /><path clip-path="url(#clip580)" d="M47.4602 833.603 L83.1082 833.603 L83.1082 839.491 L52.139 839.491 L52.139 858.493 L83.1082 858.493 L83.1082 864.381 L47.4602 864.381 L47.4602 833.603 Z" fill="#000000" fill-rule="nonzero" fill-opacity="1" /><path clip-path="url(#clip580)" d="M86.4183 806.708 Q92.784 809.19 94.7256 811.546 Q96.6671 813.901 96.6671 817.848 L96.6671 822.527 L91.7655 822.527 L91.7655 819.089 Q91.7655 816.67 90.6197 815.333 Q89.4739 813.997 85.2088 812.373 L82.5352 811.323 L47.4602 825.741 L47.4602 819.535 L75.342 808.395 L47.4602 797.255 L47.4602 791.048 L86.4183 806.708 Z" fill="#000000" fill-rule="nonzero" fill-opacity="1" /><path clip-path="url(#clip580)" d="M83.1082 786.688 L78.2384 786.688 Q77.3472 780.895 73.3368 779.113 Q67.7031 776.948 53.2848 776.948 L47.4602 776.948 L47.4602 752.854 L83.1082 752.854 L83.1082 758.71 L52.139 758.71 L52.139 771.092 L55.672 771.092 Q69.4219 771.092 75.5966 773.893 Q82.1851 776.885 83.1082 786.688 Z" fill="#000000" fill-rule="nonzero" fill-opacity="1" /><path clip-path="url(#clip580)" d="M57.7408 735.412 Q60.3826 735.412 61.8785 733.375 Q63.3745 731.338 63.3745 727.55 L63.3745 719.657 L52.139 719.657 L52.139 727.55 Q52.139 731.338 53.6031 733.375 Q55.0672 735.412 57.7408 735.412 M83.1082 743.751 L67.4803 732.866 Q66.6528 736.558 64.4885 739.009 Q62.2923 741.459 57.7408 741.459 Q52.5846 741.459 50.0383 738.054 Q47.4602 734.616 47.4602 727.709 L47.4602 713.769 L83.1082 713.769 L83.1082 719.657 L68.0533 719.657 L68.0533 726.946 L83.1082 737.449 L83.1082 743.751 Z" fill="#000000" fill-rule="nonzero" fill-opacity="1" /><path clip-path="url(#clip580)" d="M83.1082 671.532 L83.1082 702.31 L47.4602 702.31 L47.4602 696.422 L78.4294 696.422 L78.4294 677.42 L47.4602 677.42 L47.4602 671.532 L78.4294 671.532 L78.4294 666.853 L92.1156 666.853 L92.1156 671.532 L83.1082 671.532 Z" fill="#000000" fill-rule="nonzero" fill-opacity="1" /><path clip-path="url(#clip580)" d="M47.4602 627.418 L83.1082 627.418 L83.1082 633.242 L54.4943 633.242 L83.1082 650.43 L83.1082 657.941 L47.4602 657.941 L47.4602 652.117 L76.0104 652.117 L47.4602 634.961 L47.4602 627.418 Z" fill="#000000" fill-rule="nonzero" fill-opacity="1" /><path clip-path="url(#clip580)" d="M57.7408 609.466 Q60.3826 609.466 61.8785 607.429 Q63.3745 605.392 63.3745 601.605 L63.3745 593.711 L52.139 593.711 L52.139 601.605 Q52.139 605.392 53.6031 607.429 Q55.0672 609.466 57.7408 609.466 M83.1082 617.806 L67.4803 606.92 Q66.6528 610.612 64.4885 613.063 Q62.2923 615.514 57.7408 615.514 Q52.5846 615.514 50.0383 612.108 Q47.4602 608.671 47.4602 601.764 L47.4602 587.823 L83.1082 587.823 L83.1082 593.711 L68.0533 593.711 L68.0533 601 L83.1082 611.503 L83.1082 617.806 Z" fill="#000000" fill-rule="nonzero" fill-opacity="1" /><path clip-path="url(#clip580)" d="M69.0399 556.026 L47.4602 556.026 L47.4602 550.17 L68.8171 550.17 Q73.8779 550.17 76.4242 548.196 Q78.9386 546.223 78.9386 542.276 Q78.9386 537.534 75.9149 534.797 Q72.8912 532.028 67.6713 532.028 L47.4602 532.028 L47.4602 526.171 L83.1082 526.171 L83.1082 532.028 L77.6336 532.028 Q80.8802 534.16 82.4716 536.993 Q84.0312 539.794 84.0312 543.518 Q84.0312 549.661 80.2118 552.843 Q76.3923 556.026 69.0399 556.026 M46.6008 541.29 L46.6008 541.29 Z" fill="#000000" fill-rule="nonzero" fill-opacity="1" /><path clip-path="url(#clip580)" d="M307.174 59.3701 Q315.721 67.0263 326.092 67.0263 Q336.786 67.0263 341.607 61.274 Q346.427 55.5217 347.318 45.84 L314.992 45.84 L314.992 38.9535 L347.318 38.9535 Q346.427 29.2718 341.607 23.5195 Q336.786 17.7268 326.092 17.7268 Q315.721 17.7268 307.174 25.383 L307.174 16.7545 Q315.6 11.0023 326.578 11.0023 Q340.148 11.0023 348.048 19.4281 Q355.947 27.8135 355.947 42.3563 Q355.947 56.9395 348.048 65.3654 Q340.148 73.7508 326.578 73.7508 Q315.762 73.7508 307.174 67.9175 L307.174 59.3701 Z" fill="#000000" fill-rule="nonzero" fill-opacity="1" /><path clip-path="url(#clip580)" d="M368.14 27.2059 L375.553 27.2059 L375.553 48.5136 L396.577 27.2059 L405.733 27.2059 L388.395 44.7463 L407.961 72.576 L399.616 72.576 L383.534 49.6884 L375.553 57.7902 L375.553 72.576 L368.14 72.576 L368.14 27.2059 Z" fill="#000000" fill-rule="nonzero" fill-opacity="1" /><path clip-path="url(#clip580)" d="M451.184 28.9478 L451.184 35.9153 Q448.024 34.1734 444.824 33.3227 Q441.664 32.4315 438.423 32.4315 Q431.172 32.4315 427.162 37.0496 Q423.151 41.6271 423.151 49.9314 Q423.151 58.2358 427.162 62.8538 Q431.172 67.4314 438.423 67.4314 Q441.664 67.4314 444.824 66.5807 Q448.024 65.6895 451.184 63.9476 L451.184 70.8341 Q448.064 72.2924 444.702 73.0216 Q441.38 73.7508 437.613 73.7508 Q427.364 73.7508 421.328 67.3098 Q415.293 60.8689 415.293 49.9314 Q415.293 38.832 421.369 32.472 Q427.486 26.1121 438.099 26.1121 Q441.542 26.1121 444.824 26.8413 Q448.105 27.5299 451.184 28.9478 Z" fill="#000000" fill-rule="nonzero" fill-opacity="1" /><path clip-path="url(#clip580)" d="M503.035 27.2059 L503.035 72.576 L495.541 72.576 L495.541 33.1607 L471.357 33.1607 L471.357 72.576 L463.863 72.576 L463.863 27.2059 L503.035 27.2059 Z" fill="#000000" fill-rule="nonzero" fill-opacity="1" /><path clip-path="url(#clip580)" d="M535.969 32.4315 Q529.974 32.4315 526.49 37.1306 Q523.006 41.7891 523.006 49.9314 Q523.006 58.0738 526.449 62.7728 Q529.933 67.4314 535.969 67.4314 Q541.924 67.4314 545.408 62.7323 Q548.891 58.0333 548.891 49.9314 Q548.891 41.8701 545.408 37.1711 Q541.924 32.4315 535.969 32.4315 M535.969 26.1121 Q545.691 26.1121 551.241 32.4315 Q556.791 38.7509 556.791 49.9314 Q556.791 61.0714 551.241 67.4314 Q545.691 73.7508 535.969 73.7508 Q526.206 73.7508 520.657 67.4314 Q515.147 61.0714 515.147 49.9314 Q515.147 38.7509 520.657 32.4315 Q526.206 26.1121 535.969 26.1121 Z" fill="#000000" fill-rule="nonzero" fill-opacity="1" /><path clip-path="url(#clip580)" d="M568.862 27.2059 L576.357 27.2059 L576.357 45.7185 L600.54 45.7185 L600.54 27.2059 L608.035 27.2059 L608.035 72.576 L600.54 72.576 L600.54 51.6733 L576.357 51.6733 L576.357 72.576 L568.862 72.576 L568.862 27.2059 Z" fill="#000000" fill-rule="nonzero" fill-opacity="1" /><path clip-path="url(#clip580)" d="M662.195 48.0275 L662.195 51.6733 L627.925 51.6733 Q628.411 59.3701 632.543 63.421 Q636.715 67.4314 644.128 67.4314 Q648.422 67.4314 652.433 66.3781 Q656.483 65.3249 660.453 63.2184 L660.453 70.267 Q656.443 71.9684 652.23 72.8596 Q648.017 73.7508 643.683 73.7508 Q632.826 73.7508 626.466 67.4314 Q620.147 61.1119 620.147 50.3365 Q620.147 39.1965 626.142 32.6746 Q632.178 26.1121 642.386 26.1121 Q651.541 26.1121 656.848 32.0264 Q662.195 37.9003 662.195 48.0275 M654.742 45.84 Q654.661 39.7232 651.298 36.0774 Q647.977 32.4315 642.467 32.4315 Q636.229 32.4315 632.462 35.9558 Q628.735 39.4801 628.168 45.8805 L654.742 45.84 Z" fill="#000000" fill-rule="nonzero" fill-opacity="1" /><path clip-path="url(#clip580)" d="M674.145 27.2059 L681.64 27.2059 L681.64 45.7185 L705.823 45.7185 L705.823 27.2059 L713.318 27.2059 L713.318 72.576 L705.823 72.576 L705.823 51.6733 L681.64 51.6733 L681.64 72.576 L674.145 72.576 L674.145 27.2059 Z" fill="#000000" fill-rule="nonzero" fill-opacity="1" /><path clip-path="url(#clip580)" d="M767.559 72.576 L728.387 72.576 L728.387 27.2059 L735.881 27.2059 L735.881 66.6212 L760.065 66.6212 L760.065 27.2059 L767.559 27.2059 L767.559 66.6212 L773.514 66.6212 L773.514 84.0401 L767.559 84.0401 L767.559 72.576 Z" fill="#000000" fill-rule="nonzero" fill-opacity="1" /><path clip-path="url(#clip580)" d="M823.705 27.2059 L823.705 72.576 L816.292 72.576 L816.292 36.1584 L794.417 72.576 L784.857 72.576 L784.857 27.2059 L792.27 27.2059 L792.27 63.5425 L814.104 27.2059 L823.705 27.2059 Z" fill="#000000" fill-rule="nonzero" fill-opacity="1" /><path clip-path="url(#clip580)" d="M859.677 49.7694 Q850.643 49.7694 847.16 51.8354 Q843.676 53.9013 843.676 58.8839 Q843.676 62.8538 846.268 65.2034 Q848.901 67.5124 853.398 67.5124 Q859.596 67.5124 863.323 63.1374 Q867.09 58.7219 867.09 51.4303 L867.09 49.7694 L859.677 49.7694 M874.544 46.6907 L874.544 72.576 L867.09 72.576 L867.09 65.6895 Q864.538 69.8214 860.73 71.8063 Q856.922 73.7508 851.413 73.7508 Q844.445 73.7508 840.314 69.8619 Q836.222 65.9325 836.222 59.3701 Q836.222 51.7138 841.326 47.825 Q846.471 43.9361 856.639 43.9361 L867.09 43.9361 L867.09 43.2069 Q867.09 38.0623 863.687 35.2672 Q860.325 32.4315 854.208 32.4315 Q850.319 32.4315 846.633 33.3632 Q842.947 34.295 839.544 36.1584 L839.544 29.2718 Q843.635 27.692 847.484 26.9223 Q851.332 26.1121 854.978 26.1121 Q864.821 26.1121 869.683 31.2163 Q874.544 36.3204 874.544 46.6907 Z" fill="#000000" fill-rule="nonzero" fill-opacity="1" /><path clip-path="url(#clip580)" d="M885.157 72.576 L885.157 66.3781 Q892.53 65.2439 894.798 60.1397 Q897.553 52.9696 897.553 34.619 L897.553 27.2059 L928.218 27.2059 L928.218 72.576 L920.764 72.576 L920.764 33.1607 L905.006 33.1607 L905.006 37.6572 Q905.006 55.1571 901.442 63.0159 Q897.634 71.4012 885.157 72.576 Z" fill="#000000" fill-rule="nonzero" fill-opacity="1" /><path clip-path="url(#clip580)" d="M971.158 59.127 Q971.158 55.4812 968.484 53.5773 Q965.851 51.6733 960.747 51.6733 L950.134 51.6733 L950.134 66.6212 L960.747 66.6212 Q965.851 66.6212 968.484 64.7172 Q971.158 62.7728 971.158 59.127 M942.639 27.2059 L950.134 27.2059 L950.134 45.7185 L961.071 45.7185 Q969.74 45.7185 974.398 49.0402 Q979.097 52.3215 979.097 59.127 Q979.097 65.9325 974.398 69.2543 Q969.74 72.576 961.071 72.576 L942.639 72.576 L942.639 27.2059 Z" fill="#000000" fill-rule="nonzero" fill-opacity="1" /><path clip-path="url(#clip580)" d="M991.534 27.2059 L999.028 27.2059 L999.028 45.7185 L1023.21 45.7185 L1023.21 27.2059 L1030.71 27.2059 L1030.71 72.576 L1023.21 72.576 L1023.21 51.6733 L999.028 51.6733 L999.028 72.576 L991.534 72.576 L991.534 27.2059 Z" fill="#000000" fill-rule="nonzero" fill-opacity="1" /><path clip-path="url(#clip580)" d="M1088.92 27.2059 L1096.37 27.2059 L1096.37 72.576 L1088.92 72.576 L1088.92 27.2059 M1092.64 26.1121 L1092.64 26.1121 M1074.29 59.127 Q1074.29 55.4812 1071.62 53.5773 Q1068.99 51.6733 1063.88 51.6733 L1053.27 51.6733 L1053.27 66.6212 L1063.88 66.6212 Q1068.99 66.6212 1071.62 64.7172 Q1074.29 62.7728 1074.29 59.127 M1045.78 27.2059 L1053.27 27.2059 L1053.27 45.7185 L1064.21 45.7185 Q1072.88 45.7185 1077.53 49.0402 Q1082.23 52.3215 1082.23 59.127 Q1082.23 65.9325 1077.53 69.2543 Q1072.88 72.576 1064.21 72.576 L1045.78 72.576 L1045.78 27.2059 Z" fill="#000000" fill-rule="nonzero" fill-opacity="1" /><path clip-path="url(#clip580)" d="M1150.13 27.2059 L1150.13 72.576 L1142.71 72.576 L1142.71 36.1584 L1120.84 72.576 L1111.28 72.576 L1111.28 27.2059 L1118.69 27.2059 L1118.69 63.5425 L1140.53 27.2059 L1150.13 27.2059 M1118.04 9.54393 L1122.82 9.54393 Q1123.27 12.5821 1125.21 14.1215 Q1127.2 15.6203 1130.72 15.6203 Q1134.21 15.6203 1136.15 14.1215 Q1138.1 12.6226 1138.62 9.54393 L1143.4 9.54393 Q1143 15.3367 1139.8 18.2534 Q1136.6 21.17 1130.72 21.17 Q1124.85 21.17 1121.65 18.2534 Q1118.45 15.3367 1118.04 9.54393 Z" fill="#000000" fill-rule="nonzero" fill-opacity="1" /><path clip-path="url(#clip580)" d="M1199.06 65.7705 L1199.06 89.8329 L1191.57 89.8329 L1191.57 27.2059 L1199.06 27.2059 L1199.06 34.0924 Q1201.41 30.0415 1204.98 28.0971 Q1208.58 26.1121 1213.56 26.1121 Q1221.83 26.1121 1226.97 32.6746 Q1232.16 39.2371 1232.16 49.9314 Q1232.16 60.6258 1226.97 67.1883 Q1221.83 73.7508 1213.56 73.7508 Q1208.58 73.7508 1204.98 71.8063 Q1201.41 69.8214 1199.06 65.7705 M1224.42 49.9314 Q1224.42 41.7081 1221.02 37.0496 Q1217.66 32.3505 1211.74 32.3505 Q1205.83 32.3505 1202.42 37.0496 Q1199.06 41.7081 1199.06 49.9314 Q1199.06 58.1548 1202.42 62.8538 Q1205.83 67.5124 1211.74 67.5124 Q1217.66 67.5124 1221.02 62.8538 Q1224.42 58.1548 1224.42 49.9314 Z" fill="#000000" fill-rule="nonzero" fill-opacity="1" /><path clip-path="url(#clip580)" d="M1262.09 32.4315 Q1256.1 32.4315 1252.61 37.1306 Q1249.13 41.7891 1249.13 49.9314 Q1249.13 58.0738 1252.57 62.7728 Q1256.06 67.4314 1262.09 67.4314 Q1268.05 67.4314 1271.53 62.7323 Q1275.02 58.0333 1275.02 49.9314 Q1275.02 41.8701 1271.53 37.1711 Q1268.05 32.4315 1262.09 32.4315 M1262.09 26.1121 Q1271.82 26.1121 1277.37 32.4315 Q1282.92 38.7509 1282.92 49.9314 Q1282.92 61.0714 1277.37 67.4314 Q1271.82 73.7508 1262.09 73.7508 Q1252.33 73.7508 1246.78 67.4314 Q1241.27 61.0714 1241.27 49.9314 Q1241.27 38.7509 1246.78 32.4315 Q1252.33 26.1121 1262.09 26.1121 Z" fill="#000000" fill-rule="nonzero" fill-opacity="1" /><path clip-path="url(#clip580)" d="M1327.92 28.9478 L1327.92 35.9153 Q1324.76 34.1734 1321.56 33.3227 Q1318.4 32.4315 1315.16 32.4315 Q1307.91 32.4315 1303.9 37.0496 Q1299.89 41.6271 1299.89 49.9314 Q1299.89 58.2358 1303.9 62.8538 Q1307.91 67.4314 1315.16 67.4314 Q1318.4 67.4314 1321.56 66.5807 Q1324.76 65.6895 1327.92 63.9476 L1327.92 70.8341 Q1324.8 72.2924 1321.44 73.0216 Q1318.12 73.7508 1314.35 73.7508 Q1304.1 73.7508 1298.07 67.3098 Q1292.03 60.8689 1292.03 49.9314 Q1292.03 38.832 1298.11 32.472 Q1304.22 26.1121 1314.84 26.1121 Q1318.28 26.1121 1321.56 26.8413 Q1324.84 27.5299 1327.92 28.9478 Z" fill="#000000" fill-rule="nonzero" fill-opacity="1" /><path clip-path="url(#clip580)" d="M1335.5 27.2059 L1378.96 27.2059 L1378.96 33.1607 L1360.9 33.1607 L1360.9 72.576 L1353.56 72.576 L1353.56 33.1607 L1335.5 33.1607 L1335.5 27.2059 Z" fill="#000000" fill-rule="nonzero" fill-opacity="1" /><path clip-path="url(#clip580)" d="M1433.49 9.62495 Q1428.06 18.942 1425.43 28.0566 Q1422.79 37.1711 1422.79 46.5287 Q1422.79 55.8863 1425.43 65.0818 Q1428.1 74.2369 1433.49 83.5134 L1427.01 83.5134 Q1420.93 73.9938 1417.89 64.7983 Q1414.89 55.6027 1414.89 46.5287 Q1414.89 37.4952 1417.89 28.3401 Q1420.89 19.1851 1427.01 9.62495 L1433.49 9.62495 Z" fill="#000000" fill-rule="nonzero" fill-opacity="1" /><path clip-path="url(#clip580)" d="M1474.4 51.4708 L1472.62 42.1132 Q1470.8 32.5126 1463.59 32.5126 Q1458.16 32.5126 1455.69 36.9686 Q1452.57 42.5588 1452.57 49.9314 Q1452.57 58.8434 1455.61 63.0969 Q1458.68 67.4314 1463.59 67.4314 Q1469.01 67.4314 1471.93 58.8029 L1474.4 51.4708 M1478.57 39.075 L1482.58 27.2059 L1489.23 27.2059 L1480.92 51.7949 L1482.54 60.6663 Q1482.91 62.6513 1484.33 64.3122 Q1485.99 66.2566 1487.28 66.2566 L1490.85 66.2566 L1490.85 72.576 L1486.39 72.576 Q1482.58 72.576 1479.18 69.1732 Q1477.52 67.4719 1476.83 63.9071 Q1474.97 68.4036 1471.16 71.9279 Q1469.38 73.5887 1463.59 73.5887 Q1454.07 73.5887 1449.45 67.4314 Q1444.71 61.0714 1444.71 49.9314 Q1444.71 38.0218 1449.85 32.4315 Q1455.56 26.1931 1463.59 26.1931 Q1476.18 26.1931 1478.57 39.075 Z" fill="#000000" fill-rule="nonzero" fill-opacity="1" /><path clip-path="url(#clip580)" d="M1529.98 34.9026 L1581.91 34.9026 L1581.91 41.7081 L1529.98 41.7081 L1529.98 34.9026 M1529.98 51.4303 L1581.91 51.4303 L1581.91 58.3168 L1529.98 58.3168 L1529.98 51.4303 Z" fill="#000000" fill-rule="nonzero" fill-opacity="1" /><path clip-path="url(#clip580)" d="M1643.45 17.4837 Q1637.13 17.4837 1633.93 23.7221 Q1630.77 29.92 1630.77 42.3968 Q1630.77 54.833 1633.93 61.0714 Q1637.13 67.2693 1643.45 67.2693 Q1649.81 67.2693 1652.97 61.0714 Q1656.17 54.833 1656.17 42.3968 Q1656.17 29.92 1652.97 23.7221 Q1649.81 17.4837 1643.45 17.4837 M1643.45 11.0023 Q1653.61 11.0023 1658.96 19.0636 Q1664.35 27.0843 1664.35 42.3968 Q1664.35 57.6687 1658.96 65.73 Q1653.61 73.7508 1643.45 73.7508 Q1633.28 73.7508 1627.89 65.73 Q1622.54 57.6687 1622.54 42.3968 Q1622.54 27.0843 1627.89 19.0636 Q1633.28 11.0023 1643.45 11.0023 Z" fill="#000000" fill-rule="nonzero" fill-opacity="1" /><path clip-path="url(#clip580)" d="M1678.73 62.2867 L1687.28 62.2867 L1687.28 72.576 L1678.73 72.576 L1678.73 62.2867 Z" fill="#000000" fill-rule="nonzero" fill-opacity="1" /><path clip-path="url(#clip580)" d="M1729.89 39.9662 Q1735.77 41.222 1739.05 45.1919 Q1742.37 49.1618 1742.37 54.9951 Q1742.37 63.9476 1736.21 68.8492 Q1730.05 73.7508 1718.71 73.7508 Q1714.9 73.7508 1710.85 72.9811 Q1706.84 72.2519 1702.55 70.7531 L1702.55 62.8538 Q1705.95 64.8388 1710 65.8515 Q1714.05 66.8642 1718.47 66.8642 Q1726.17 66.8642 1730.18 63.826 Q1734.23 60.7879 1734.23 54.9951 Q1734.23 49.6479 1730.46 46.6502 Q1726.73 43.612 1720.05 43.612 L1713 43.612 L1713 36.8875 L1720.37 36.8875 Q1726.41 36.8875 1729.61 34.4975 Q1732.81 32.067 1732.81 27.5299 Q1732.81 22.8714 1729.49 20.4004 Q1726.21 17.8888 1720.05 17.8888 Q1716.69 17.8888 1712.84 18.618 Q1708.99 19.3471 1704.37 20.8865 L1704.37 13.5948 Q1709.03 12.2985 1713.08 11.6504 Q1717.17 11.0023 1720.78 11.0023 Q1730.09 11.0023 1735.52 15.2557 Q1740.95 19.4686 1740.95 26.6793 Q1740.95 31.7024 1738.07 35.1862 Q1735.2 38.6294 1729.89 39.9662 Z" fill="#000000" fill-rule="nonzero" fill-opacity="1" /><path clip-path="url(#clip580)" d="M1755.66 9.62495 L1762.14 9.62495 Q1768.21 19.1851 1771.21 28.3401 Q1774.25 37.4952 1774.25 46.5287 Q1774.25 55.6027 1771.21 64.7983 Q1768.21 73.9938 1762.14 83.5134 L1755.66 83.5134 Q1761.04 74.2369 1763.68 65.0818 Q1766.35 55.8863 1766.35 46.5287 Q1766.35 37.1711 1763.68 28.0566 Q1761.04 18.942 1755.66 9.62495 Z" fill="#000000" fill-rule="nonzero" fill-opacity="1" /><polyline clip-path="url(#clip582)" style="stroke:#009af9; stroke-linecap:round; stroke-linejoin:round; stroke-width:8; stroke-opacity:1; fill:none" points="208.668,1309.22 225.308,1307.4 241.949,1305.53 258.59,1303.6 275.231,1301.61 291.872,1299.56 308.513,1297.45 325.154,1295.27 341.795,1293.03 358.436,1290.71 375.076,1288.33 391.717,1285.88 408.358,1283.35 424.999,1280.74 441.64,1278.06 458.281,1275.29 474.922,1272.44 491.563,1269.5 508.203,1266.47 524.844,1263.35 541.485,1260.14 558.126,1256.82 574.767,1253.41 591.408,1249.89 608.049,1246.27 624.69,1242.53 641.331,1238.68 657.971,1234.72 674.612,1230.63 691.253,1226.42 707.894,1222.08 724.535,1217.6 741.176,1213 757.817,1208.25 774.458,1203.35 791.098,1198.31 807.739,1193.12 824.38,1187.76 841.021,1182.24 857.662,1176.56 874.303,1170.7 890.944,1164.66 907.585,1158.44 924.226,1152.03 940.866,1145.43 957.507,1138.62 974.148,1131.61 990.789,1124.38 1007.43,1116.93 1024.07,1109.26 1040.71,1101.35 1057.35,1093.2 1073.99,1084.81 1090.63,1076.15 1107.28,1067.24 1123.92,1058.05 1140.56,1048.58 1157.2,1038.83 1173.84,1028.77 1190.48,1018.41 1207.12,1007.74 1223.76,996.739 1240.4,985.404 1257.04,973.724 1273.68,961.688 1290.32,949.286 1306.97,936.506 1323.61,923.337 1340.25,909.768 1356.89,895.785 1373.53,881.377 1390.17,866.53 1406.81,851.231 1423.45,835.466 1440.09,819.22 1456.73,802.479 1473.37,785.228 1490.02,767.451 1506.66,749.132 1523.3,730.256 1539.94,710.804 1556.58,690.761 1573.22,670.107 1589.86,648.825 1606.5,626.894 1623.14,604.296 1639.78,581.009 1656.42,557.015 1673.07,532.289 1689.71,506.812 1706.35,480.558 1722.99,453.504 1739.63,425.627 1756.27,396.9 1772.91,367.298 1789.55,336.793 1806.19,305.359 1822.83,272.967 1839.47,239.589 1856.12,205.194 1872.76,169.752 "/>
<path clip-path="url(#clip580)" d="M264.137 279.509 L508.069 279.509 L508.069 175.829 L264.137 175.829  Z" fill="#ffffff" fill-rule="evenodd" fill-opacity="1"/>
<polyline clip-path="url(#clip580)" style="stroke:#000000; stroke-linecap:round; stroke-linejoin:round; stroke-width:4; stroke-opacity:1; fill:none" points="264.137,279.509 508.069,279.509 508.069,175.829 264.137,175.829 264.137,279.509 "/>
<polyline clip-path="url(#clip580)" style="stroke:#009af9; stroke-linecap:round; stroke-linejoin:round; stroke-width:8; stroke-opacity:1; fill:none" points="282.627,227.669 393.566,227.669 "/>
<path clip-path="url(#clip580)" d="M412.056 234.718 L412.056 219.024 L416.315 219.024 L416.315 234.556 Q416.315 238.236 417.751 240.088 Q419.186 241.917 422.056 241.917 Q425.505 241.917 427.496 239.718 Q429.51 237.519 429.51 233.723 L429.51 219.024 L433.769 219.024 L433.769 244.949 L429.51 244.949 L429.51 240.968 Q427.959 243.329 425.899 244.486 Q423.862 245.621 421.153 245.621 Q416.686 245.621 414.371 242.843 Q412.056 240.065 412.056 234.718 M422.774 218.399 L422.774 218.399 Z" fill="#000000" fill-rule="nonzero" fill-opacity="1" /><path clip-path="url(#clip580)" d="M452.774 208.977 Q449.672 214.301 448.167 219.51 Q446.662 224.718 446.662 230.065 Q446.662 235.412 448.167 240.667 Q449.695 245.898 452.774 251.199 L449.07 251.199 Q445.598 245.759 443.862 240.505 Q442.149 235.25 442.149 230.065 Q442.149 224.903 443.862 219.672 Q445.574 214.44 449.07 208.977 L452.774 208.977 Z" fill="#000000" fill-rule="nonzero" fill-opacity="1" /><path clip-path="url(#clip580)" d="M465.25 211.662 L465.25 219.024 L474.023 219.024 L474.023 222.334 L465.25 222.334 L465.25 236.408 Q465.25 239.579 466.107 240.482 Q466.986 241.385 469.648 241.385 L474.023 241.385 L474.023 244.949 L469.648 244.949 Q464.718 244.949 462.843 243.121 Q460.968 241.269 460.968 236.408 L460.968 222.334 L457.843 222.334 L457.843 219.024 L460.968 219.024 L460.968 211.662 L465.25 211.662 Z" fill="#000000" fill-rule="nonzero" fill-opacity="1" /><path clip-path="url(#clip580)" d="M478.954 208.977 L482.658 208.977 Q486.13 214.44 487.843 219.672 Q489.579 224.903 489.579 230.065 Q489.579 235.25 487.843 240.505 Q486.13 245.759 482.658 251.199 L478.954 251.199 Q482.033 245.898 483.537 240.667 Q485.065 235.412 485.065 230.065 Q485.065 224.718 483.537 219.51 Q482.033 214.301 478.954 208.977 Z" fill="#000000" fill-rule="nonzero" fill-opacity="1" /></svg>
