<?xml version="1.0" encoding="utf-8"?>
<svg xmlns="http://www.w3.org/2000/svg" xmlns:xlink="http://www.w3.org/1999/xlink" width="800" height="500" viewBox="0 0 3200 2000">
<defs>
  <clipPath id="clip220">
    <rect x="0" y="0" width="3200" height="2000"/>
  </clipPath>
</defs>
<path clip-path="url(#clip220)" d="M0 2000 L3200 2000 L3200 0 L0 0  Z" fill="#ffffff" fill-rule="evenodd" fill-opacity="1"/>
<defs>
  <clipPath id="clip221">
    <rect x="347" y="0" width="2774" height="2000"/>
  </clipPath>
</defs>
<path clip-path="url(#clip220)" d="M374.733 1824.31 L3152.76 1824.31 L3152.76 119.692 L374.733 119.692  Z" fill="#ffffff" fill-rule="evenodd" fill-opacity="1"/>
<defs>
  <clipPath id="clip222">
    <rect x="374" y="119" width="2779" height="1706"/>
  </clipPath>
</defs>
<polyline clip-path="url(#clip222)" style="stroke:#000000; stroke-linecap:round; stroke-linejoin:round; stroke-width:2; stroke-opacity:0.1; fill:none" points="453.357,1824.31 453.357,119.692 "/>
<polyline clip-path="url(#clip222)" style="stroke:#000000; stroke-linecap:round; stroke-linejoin:round; stroke-width:2; stroke-opacity:0.1; fill:none" points="1108.55,1824.31 1108.55,119.692 "/>
<polyline clip-path="url(#clip222)" style="stroke:#000000; stroke-linecap:round; stroke-linejoin:round; stroke-width:2; stroke-opacity:0.1; fill:none" points="1763.74,1824.31 1763.74,119.692 "/>
<polyline clip-path="url(#clip222)" style="stroke:#000000; stroke-linecap:round; stroke-linejoin:round; stroke-width:2; stroke-opacity:0.1; fill:none" points="2418.94,1824.31 2418.94,119.692 "/>
<polyline clip-path="url(#clip222)" style="stroke:#000000; stroke-linecap:round; stroke-linejoin:round; stroke-width:2; stroke-opacity:0.1; fill:none" points="3074.13,1824.31 3074.13,119.692 "/>
<polyline clip-path="url(#clip222)" style="stroke:#000000; stroke-linecap:round; stroke-linejoin:round; stroke-width:2; stroke-opacity:0.1; fill:none" points="374.733,1776.14 3152.76,1776.14 "/>
<polyline clip-path="url(#clip222)" style="stroke:#000000; stroke-linecap:round; stroke-linejoin:round; stroke-width:2; stroke-opacity:0.1; fill:none" points="374.733,1410.99 3152.76,1410.99 "/>
<polyline clip-path="url(#clip222)" style="stroke:#000000; stroke-linecap:round; stroke-linejoin:round; stroke-width:2; stroke-opacity:0.1; fill:none" points="374.733,1045.84 3152.76,1045.84 "/>
<polyline clip-path="url(#clip222)" style="stroke:#000000; stroke-linecap:round; stroke-linejoin:round; stroke-width:2; stroke-opacity:0.1; fill:none" points="374.733,680.683 3152.76,680.683 "/>
<polyline clip-path="url(#clip222)" style="stroke:#000000; stroke-linecap:round; stroke-linejoin:round; stroke-width:2; stroke-opacity:0.1; fill:none" points="374.733,315.532 3152.76,315.532 "/>
<polyline clip-path="url(#clip220)" style="stroke:#000000; stroke-linecap:round; stroke-linejoin:round; stroke-width:4; stroke-opacity:1; fill:none" points="374.733,1824.31 3152.76,1824.31 "/>
<polyline clip-path="url(#clip220)" style="stroke:#000000; stroke-linecap:round; stroke-linejoin:round; stroke-width:4; stroke-opacity:1; fill:none" points="453.357,1824.31 453.357,1805.41 "/>
<polyline clip-path="url(#clip220)" style="stroke:#000000; stroke-linecap:round; stroke-linejoin:round; stroke-width:4; stroke-opacity:1; fill:none" points="1108.55,1824.31 1108.55,1805.41 "/>
<polyline clip-path="url(#clip220)" style="stroke:#000000; stroke-linecap:round; stroke-linejoin:round; stroke-width:4; stroke-opacity:1; fill:none" points="1763.74,1824.31 1763.74,1805.41 "/>
<polyline clip-path="url(#clip220)" style="stroke:#000000; stroke-linecap:round; stroke-linejoin:round; stroke-width:4; stroke-opacity:1; fill:none" points="2418.94,1824.31 2418.94,1805.41 "/>
<polyline clip-path="url(#clip220)" style="stroke:#000000; stroke-linecap:round; stroke-linejoin:round; stroke-width:4; stroke-opacity:1; fill:none" points="3074.13,1824.31 3074.13,1805.41 "/>
<path clip-path="url(#clip220)" d="M430.741 1861.63 Q427.13 1861.63 425.301 1865.19 Q423.496 1868.73 423.496 1875.86 Q423.496 1882.97 425.301 1886.54 Q427.13 1890.08 430.741 1890.08 Q434.375 1890.08 436.181 1886.54 Q438.01 1882.97 438.01 1875.86 Q438.01 1868.73 436.181 1865.19 Q434.375 1861.63 430.741 1861.63 M430.741 1857.92 Q436.551 1857.92 439.607 1862.53 Q442.685 1867.11 442.685 1875.86 Q442.685 1884.59 439.607 1889.2 Q436.551 1893.78 430.741 1893.78 Q424.931 1893.78 421.852 1889.2 Q418.797 1884.59 418.797 1875.86 Q418.797 1867.11 421.852 1862.53 Q424.931 1857.92 430.741 1857.92 Z" fill="#000000" fill-rule="nonzero" fill-opacity="1" /><path clip-path="url(#clip220)" d="M450.903 1887.23 L455.787 1887.23 L455.787 1893.11 L450.903 1893.11 L450.903 1887.23 Z" fill="#000000" fill-rule="nonzero" fill-opacity="1" /><path clip-path="url(#clip220)" d="M475.972 1861.63 Q472.361 1861.63 470.533 1865.19 Q468.727 1868.73 468.727 1875.86 Q468.727 1882.97 470.533 1886.54 Q472.361 1890.08 475.972 1890.08 Q479.607 1890.08 481.412 1886.54 Q483.241 1882.97 483.241 1875.86 Q483.241 1868.73 481.412 1865.19 Q479.607 1861.63 475.972 1861.63 M475.972 1857.92 Q481.782 1857.92 484.838 1862.53 Q487.917 1867.11 487.917 1875.86 Q487.917 1884.59 484.838 1889.2 Q481.782 1893.78 475.972 1893.78 Q470.162 1893.78 467.083 1889.2 Q464.028 1884.59 464.028 1875.86 Q464.028 1867.11 467.083 1862.53 Q470.162 1857.92 475.972 1857.92 Z" fill="#000000" fill-rule="nonzero" fill-opacity="1" /><path clip-path="url(#clip220)" d="M1080.29 1889.17 L1096.61 1889.17 L1096.61 1893.11 L1074.66 1893.11 L1074.66 1889.17 Q1077.32 1886.42 1081.91 1881.79 Q1086.51 1877.14 1087.69 1875.8 Q1089.94 1873.27 1090.82 1871.54 Q1091.72 1869.78 1091.72 1868.09 Q1091.72 1865.33 1089.78 1863.6 Q1087.86 1861.86 1084.75 1861.86 Q1082.56 1861.86 1080.1 1862.62 Q1077.67 1863.39 1074.89 1864.94 L1074.89 1860.22 Q1077.72 1859.08 1080.17 1858.5 Q1082.62 1857.92 1084.66 1857.92 Q1090.03 1857.92 1093.23 1860.61 Q1096.42 1863.3 1096.42 1867.79 Q1096.42 1869.92 1095.61 1871.84 Q1094.82 1873.73 1092.72 1876.33 Q1092.14 1877 1089.04 1880.22 Q1085.94 1883.41 1080.29 1889.17 Z" fill="#000000" fill-rule="nonzero" fill-opacity="1" /><path clip-path="url(#clip220)" d="M1106.42 1887.23 L1111.31 1887.23 L1111.31 1893.11 L1106.42 1893.11 L1106.42 1887.23 Z" fill="#000000" fill-rule="nonzero" fill-opacity="1" /><path clip-path="url(#clip220)" d="M1121.54 1858.55 L1139.89 1858.55 L1139.89 1862.49 L1125.82 1862.49 L1125.82 1870.96 Q1126.84 1870.61 1127.86 1870.45 Q1128.87 1870.26 1129.89 1870.26 Q1135.68 1870.26 1139.06 1873.43 Q1142.44 1876.61 1142.44 1882.02 Q1142.44 1887.6 1138.97 1890.7 Q1135.49 1893.78 1129.18 1893.78 Q1127 1893.78 1124.73 1893.41 Q1122.49 1893.04 1120.08 1892.3 L1120.08 1887.6 Q1122.16 1888.73 1124.38 1889.29 Q1126.61 1889.85 1129.08 1889.85 Q1133.09 1889.85 1135.43 1887.74 Q1137.76 1885.63 1137.76 1882.02 Q1137.76 1878.41 1135.43 1876.3 Q1133.09 1874.2 1129.08 1874.2 Q1127.21 1874.2 1125.33 1874.61 Q1123.48 1875.03 1121.54 1875.91 L1121.54 1858.55 Z" fill="#000000" fill-rule="nonzero" fill-opacity="1" /><path clip-path="url(#clip220)" d="M1730.91 1858.55 L1749.27 1858.55 L1749.27 1862.49 L1735.19 1862.49 L1735.19 1870.96 Q1736.21 1870.61 1737.23 1870.45 Q1738.25 1870.26 1739.27 1870.26 Q1745.05 1870.26 1748.43 1873.43 Q1751.81 1876.61 1751.81 1882.02 Q1751.81 1887.6 1748.34 1890.7 Q1744.87 1893.78 1738.55 1893.78 Q1736.37 1893.78 1734.1 1893.41 Q1731.86 1893.04 1729.45 1892.3 L1729.45 1887.6 Q1731.53 1888.73 1733.76 1889.29 Q1735.98 1889.85 1738.46 1889.85 Q1742.46 1889.85 1744.8 1887.74 Q1747.14 1885.63 1747.14 1882.02 Q1747.14 1878.41 1744.8 1876.3 Q1742.46 1874.2 1738.46 1874.2 Q1736.58 1874.2 1734.71 1874.61 Q1732.85 1875.03 1730.91 1875.91 L1730.91 1858.55 Z" fill="#000000" fill-rule="nonzero" fill-opacity="1" /><path clip-path="url(#clip220)" d="M1761.02 1887.23 L1765.91 1887.23 L1765.91 1893.11 L1761.02 1893.11 L1761.02 1887.23 Z" fill="#000000" fill-rule="nonzero" fill-opacity="1" /><path clip-path="url(#clip220)" d="M1786.09 1861.63 Q1782.48 1861.63 1780.65 1865.19 Q1778.85 1868.73 1778.85 1875.86 Q1778.85 1882.97 1780.65 1886.54 Q1782.48 1890.08 1786.09 1890.08 Q1789.73 1890.08 1791.53 1886.54 Q1793.36 1882.97 1793.36 1875.86 Q1793.36 1868.73 1791.53 1865.19 Q1789.73 1861.63 1786.09 1861.63 M1786.09 1857.92 Q1791.9 1857.92 1794.96 1862.53 Q1798.04 1867.11 1798.04 1875.86 Q1798.04 1884.59 1794.96 1889.2 Q1791.9 1893.78 1786.09 1893.78 Q1780.28 1893.78 1777.21 1889.2 Q1774.15 1884.59 1774.15 1875.86 Q1774.15 1867.11 1777.21 1862.53 Q1780.28 1857.92 1786.09 1857.92 Z" fill="#000000" fill-rule="nonzero" fill-opacity="1" /><path clip-path="url(#clip220)" d="M2385.26 1858.55 L2407.48 1858.55 L2407.48 1860.54 L2394.93 1893.11 L2390.05 1893.11 L2401.86 1862.49 L2385.26 1862.49 L2385.26 1858.55 Z" fill="#000000" fill-rule="nonzero" fill-opacity="1" /><path clip-path="url(#clip220)" d="M2416.6 1887.23 L2421.48 1887.23 L2421.48 1893.11 L2416.6 1893.11 L2416.6 1887.23 Z" fill="#000000" fill-rule="nonzero" fill-opacity="1" /><path clip-path="url(#clip220)" d="M2431.72 1858.55 L2450.07 1858.55 L2450.07 1862.49 L2436 1862.49 L2436 1870.96 Q2437.02 1870.61 2438.04 1870.45 Q2439.05 1870.26 2440.07 1870.26 Q2445.86 1870.26 2449.24 1873.43 Q2452.62 1876.61 2452.62 1882.02 Q2452.62 1887.6 2449.15 1890.7 Q2445.67 1893.78 2439.36 1893.78 Q2437.18 1893.78 2434.91 1893.41 Q2432.67 1893.04 2430.26 1892.3 L2430.26 1887.6 Q2432.34 1888.73 2434.56 1889.29 Q2436.79 1889.85 2439.26 1889.85 Q2443.27 1889.85 2445.61 1887.74 Q2447.94 1885.63 2447.94 1882.02 Q2447.94 1878.41 2445.61 1876.3 Q2443.27 1874.2 2439.26 1874.2 Q2437.39 1874.2 2435.51 1874.61 Q2433.66 1875.03 2431.72 1875.91 L2431.72 1858.55 Z" fill="#000000" fill-rule="nonzero" fill-opacity="1" /><path clip-path="url(#clip220)" d="M3026.2 1889.17 L3033.84 1889.17 L3033.84 1862.81 L3025.53 1864.48 L3025.53 1860.22 L3033.8 1858.55 L3038.47 1858.55 L3038.47 1889.17 L3046.11 1889.17 L3046.11 1893.11 L3026.2 1893.11 L3026.2 1889.17 Z" fill="#000000" fill-rule="nonzero" fill-opacity="1" /><path clip-path="url(#clip220)" d="M3065.56 1861.63 Q3061.95 1861.63 3060.12 1865.19 Q3058.31 1868.73 3058.31 1875.86 Q3058.31 1882.97 3060.12 1886.54 Q3061.95 1890.08 3065.56 1890.08 Q3069.19 1890.08 3071 1886.54 Q3072.82 1882.97 3072.82 1875.86 Q3072.82 1868.73 3071 1865.19 Q3069.19 1861.63 3065.56 1861.63 M3065.56 1857.92 Q3071.37 1857.92 3074.42 1862.53 Q3077.5 1867.11 3077.5 1875.86 Q3077.5 1884.59 3074.42 1889.2 Q3071.37 1893.78 3065.56 1893.78 Q3059.75 1893.78 3056.67 1889.2 Q3053.61 1884.59 3053.61 1875.86 Q3053.61 1867.11 3056.67 1862.53 Q3059.75 1857.92 3065.56 1857.92 Z" fill="#000000" fill-rule="nonzero" fill-opacity="1" /><path clip-path="url(#clip220)" d="M3085.72 1887.23 L3090.6 1887.23 L3090.6 1893.11 L3085.72 1893.11 L3085.72 1887.23 Z" fill="#000000" fill-rule="nonzero" fill-opacity="1" /><path clip-path="url(#clip220)" d="M3110.79 1861.63 Q3107.18 1861.63 3105.35 1865.19 Q3103.54 1868.73 3103.54 1875.86 Q3103.54 1882.97 3105.35 1886.54 Q3107.18 1890.08 3110.79 1890.08 Q3114.42 1890.08 3116.23 1886.54 Q3118.06 1882.97 3118.06 1875.86 Q3118.06 1868.73 3116.23 1865.19 Q3114.42 1861.63 3110.79 1861.63 M3110.79 1857.92 Q3116.6 1857.92 3119.65 1862.53 Q3122.73 1867.11 3122.73 1875.86 Q3122.73 1884.59 3119.65 1889.2 Q3116.6 1893.78 3110.79 1893.78 Q3104.98 1893.78 3101.9 1889.2 Q3098.84 1884.59 3098.84 1875.86 Q3098.84 1867.11 3101.9 1862.53 Q3104.98 1857.92 3110.79 1857.92 Z" fill="#000000" fill-rule="nonzero" fill-opacity="1" /><path clip-path="url(#clip220)" d="M1633.36 1958.48 L1633.36 1975.89 L1643.67 1975.89 Q1648.86 1975.89 1651.34 1973.76 Q1653.86 1971.59 1653.86 1967.17 Q1653.86 1962.71 1651.34 1960.61 Q1648.86 1958.48 1643.67 1958.48 L1633.36 1958.48 M1633.36 1938.94 L1633.36 1953.26 L1642.88 1953.26 Q1647.59 1953.26 1649.88 1951.51 Q1652.2 1949.73 1652.2 1946.1 Q1652.2 1942.5 1649.88 1940.72 Q1647.59 1938.94 1642.88 1938.94 L1633.36 1938.94 M1626.93 1933.65 L1643.35 1933.65 Q1650.71 1933.65 1654.68 1936.71 Q1658.66 1939.76 1658.66 1945.4 Q1658.66 1949.76 1656.63 1952.34 Q1654.59 1954.92 1650.64 1955.55 Q1655.38 1956.57 1657.99 1959.82 Q1660.64 1963.03 1660.64 1967.87 Q1660.64 1974.24 1656.31 1977.7 Q1651.98 1981.17 1643.99 1981.17 L1626.93 1981.17 L1626.93 1933.65 Z" fill="#000000" fill-rule="nonzero" fill-opacity="1" /><path clip-path="url(#clip220)" d="M1677.06 1975.83 L1677.06 1994.73 L1671.17 1994.73 L1671.17 1945.53 L1677.06 1945.53 L1677.06 1950.94 Q1678.91 1947.75 1681.71 1946.23 Q1684.54 1944.67 1688.45 1944.67 Q1694.95 1944.67 1698.99 1949.82 Q1703.06 1954.98 1703.06 1963.38 Q1703.06 1971.78 1698.99 1976.94 Q1694.95 1982.1 1688.45 1982.1 Q1684.54 1982.1 1681.71 1980.57 Q1678.91 1979.01 1677.06 1975.83 M1696.98 1963.38 Q1696.98 1956.92 1694.31 1953.26 Q1691.67 1949.57 1687.02 1949.57 Q1682.38 1949.57 1679.7 1953.26 Q1677.06 1956.92 1677.06 1963.38 Q1677.06 1969.84 1679.7 1973.53 Q1682.38 1977.2 1687.02 1977.2 Q1691.67 1977.2 1694.31 1973.53 Q1696.98 1969.84 1696.98 1963.38 Z" fill="#000000" fill-rule="nonzero" fill-opacity="1" /><path clip-path="url(#clip220)" d="M1743.26 1961.89 L1743.26 1964.75 L1716.34 1964.75 Q1716.72 1970.8 1719.96 1973.98 Q1723.24 1977.13 1729.07 1977.13 Q1732.44 1977.13 1735.59 1976.3 Q1738.78 1975.48 1741.89 1973.82 L1741.89 1979.36 Q1738.74 1980.7 1735.43 1981.4 Q1732.12 1982.1 1728.72 1982.1 Q1720.19 1982.1 1715.19 1977.13 Q1710.22 1972.17 1710.22 1963.7 Q1710.22 1954.95 1714.94 1949.82 Q1719.68 1944.67 1727.7 1944.67 Q1734.89 1944.67 1739.06 1949.31 Q1743.26 1953.93 1743.26 1961.89 M1737.41 1960.17 Q1737.34 1955.36 1734.7 1952.5 Q1732.09 1949.63 1727.76 1949.63 Q1722.86 1949.63 1719.9 1952.4 Q1716.97 1955.17 1716.53 1960.2 L1737.41 1960.17 Z" fill="#000000" fill-rule="nonzero" fill-opacity="1" /><path clip-path="url(#clip220)" d="M1752.65 1945.53 L1761.21 1945.53 L1771.34 1969.4 L1781.49 1945.53 L1789.99 1945.53 L1789.99 1981.17 L1784.1 1981.17 L1784.1 1951.13 L1774.26 1974.33 L1768.41 1974.33 L1758.54 1951.13 L1758.54 1981.17 L1752.65 1981.17 L1752.65 1945.53 Z" fill="#000000" fill-rule="nonzero" fill-opacity="1" /><path clip-path="url(#clip220)" d="M1807.94 1955.81 Q1807.94 1958.45 1809.98 1959.94 Q1812.01 1961.44 1815.8 1961.44 L1823.69 1961.44 L1823.69 1950.2 L1815.8 1950.2 Q1812.01 1950.2 1809.98 1951.67 Q1807.94 1953.13 1807.94 1955.81 M1799.6 1981.17 L1810.48 1965.55 Q1806.79 1964.72 1804.34 1962.55 Q1801.89 1960.36 1801.89 1955.81 Q1801.89 1950.65 1805.3 1948.1 Q1808.73 1945.53 1815.64 1945.53 L1829.58 1945.53 L1829.58 1981.17 L1823.69 1981.17 L1823.69 1966.12 L1816.4 1966.12 L1805.9 1981.17 L1799.6 1981.17 Z" fill="#000000" fill-rule="nonzero" fill-opacity="1" /><path clip-path="url(#clip220)" d="M1842.76 1973.09 L1849.47 1973.09 L1849.47 1978.56 L1844.25 1988.75 L1840.15 1988.75 L1842.76 1978.56 L1842.76 1973.09 Z" fill="#000000" fill-rule="nonzero" fill-opacity="1" /><path clip-path="url(#clip220)" d="M1888.5 1935.4 L1888.5 1945.53 L1900.56 1945.53 L1900.56 1950.08 L1888.5 1950.08 L1888.5 1969.43 Q1888.5 1973.79 1889.67 1975.03 Q1890.88 1976.27 1894.54 1976.27 L1900.56 1976.27 L1900.56 1981.17 L1894.54 1981.17 Q1887.76 1981.17 1885.19 1978.66 Q1882.61 1976.11 1882.61 1969.43 L1882.61 1950.08 L1878.31 1950.08 L1878.31 1945.53 L1882.61 1945.53 L1882.61 1935.4 L1888.5 1935.4 Z" fill="#000000" fill-rule="nonzero" fill-opacity="1" /><polyline clip-path="url(#clip220)" style="stroke:#000000; stroke-linecap:round; stroke-linejoin:round; stroke-width:4; stroke-opacity:1; fill:none" points="374.733,1824.31 374.733,119.692 "/>
<polyline clip-path="url(#clip220)" style="stroke:#000000; stroke-linecap:round; stroke-linejoin:round; stroke-width:4; stroke-opacity:1; fill:none" points="374.733,1776.14 393.631,1776.14 "/>
<polyline clip-path="url(#clip220)" style="stroke:#000000; stroke-linecap:round; stroke-linejoin:round; stroke-width:4; stroke-opacity:1; fill:none" points="374.733,1410.99 393.631,1410.99 "/>
<polyline clip-path="url(#clip220)" style="stroke:#000000; stroke-linecap:round; stroke-linejoin:round; stroke-width:4; stroke-opacity:1; fill:none" points="374.733,1045.84 393.631,1045.84 "/>
<polyline clip-path="url(#clip220)" style="stroke:#000000; stroke-linecap:round; stroke-linejoin:round; stroke-width:4; stroke-opacity:1; fill:none" points="374.733,680.683 393.631,680.683 "/>
<polyline clip-path="url(#clip220)" style="stroke:#000000; stroke-linecap:round; stroke-linejoin:round; stroke-width:4; stroke-opacity:1; fill:none" points="374.733,315.532 393.631,315.532 "/>
<path clip-path="url(#clip220)" d="M314.789 1761.94 Q311.178 1761.94 309.349 1765.5 Q307.544 1769.04 307.544 1776.17 Q307.544 1783.28 309.349 1786.84 Q311.178 1790.39 314.789 1790.39 Q318.423 1790.39 320.229 1786.84 Q322.058 1783.28 322.058 1776.17 Q322.058 1769.04 320.229 1765.5 Q318.423 1761.94 314.789 1761.94 M314.789 1758.23 Q320.599 1758.23 323.655 1762.84 Q326.733 1767.42 326.733 1776.17 Q326.733 1784.9 323.655 1789.51 Q320.599 1794.09 314.789 1794.09 Q308.979 1794.09 305.9 1789.51 Q302.845 1784.9 302.845 1776.17 Q302.845 1767.42 305.9 1762.84 Q308.979 1758.23 314.789 1758.23 Z" fill="#000000" fill-rule="nonzero" fill-opacity="1" /><path clip-path="url(#clip220)" d="M110.908 1400.15 L129.265 1400.15 L129.265 1404.09 L115.191 1404.09 L115.191 1412.56 Q116.209 1412.21 117.228 1412.05 Q118.246 1411.87 119.265 1411.87 Q125.052 1411.87 128.432 1415.04 Q131.811 1418.21 131.811 1423.63 Q131.811 1429.21 128.339 1432.31 Q124.867 1435.39 118.547 1435.39 Q116.371 1435.39 114.103 1435.02 Q111.858 1434.65 109.45 1433.9 L109.45 1429.21 Q111.533 1430.34 113.756 1430.9 Q115.978 1431.45 118.455 1431.45 Q122.459 1431.45 124.797 1429.34 Q127.135 1427.24 127.135 1423.63 Q127.135 1420.02 124.797 1417.91 Q122.459 1415.8 118.455 1415.8 Q116.58 1415.8 114.705 1416.22 Q112.853 1416.64 110.908 1417.52 L110.908 1400.15 Z" fill="#000000" fill-rule="nonzero" fill-opacity="1" /><path clip-path="url(#clip220)" d="M141.024 1428.84 L145.908 1428.84 L145.908 1434.71 L141.024 1434.71 L141.024 1428.84 Z" fill="#000000" fill-rule="nonzero" fill-opacity="1" /><path clip-path="url(#clip220)" d="M166.093 1403.23 Q162.482 1403.23 160.654 1406.8 Q158.848 1410.34 158.848 1417.47 Q158.848 1424.58 160.654 1428.14 Q162.482 1431.68 166.093 1431.68 Q169.728 1431.68 171.533 1428.14 Q173.362 1424.58 173.362 1417.47 Q173.362 1410.34 171.533 1406.8 Q169.728 1403.23 166.093 1403.23 M166.093 1399.53 Q171.904 1399.53 174.959 1404.14 Q178.038 1408.72 178.038 1417.47 Q178.038 1426.2 174.959 1430.8 Q171.904 1435.39 166.093 1435.39 Q160.283 1435.39 157.205 1430.8 Q154.149 1426.2 154.149 1417.47 Q154.149 1408.72 157.205 1404.14 Q160.283 1399.53 166.093 1399.53 Z" fill="#000000" fill-rule="nonzero" fill-opacity="1" /><path clip-path="url(#clip220)" d="M196.255 1403.23 Q192.644 1403.23 190.815 1406.8 Q189.01 1410.34 189.01 1417.47 Q189.01 1424.58 190.815 1428.14 Q192.644 1431.68 196.255 1431.68 Q199.889 1431.68 201.695 1428.14 Q203.524 1424.58 203.524 1417.47 Q203.524 1410.34 201.695 1406.8 Q199.889 1403.23 196.255 1403.23 M196.255 1399.53 Q202.065 1399.53 205.121 1404.14 Q208.2 1408.72 208.2 1417.47 Q208.2 1426.2 205.121 1430.8 Q202.065 1435.39 196.255 1435.39 Q190.445 1435.39 187.366 1430.8 Q184.311 1426.2 184.311 1417.47 Q184.311 1408.72 187.366 1404.14 Q190.445 1399.53 196.255 1399.53 Z" fill="#000000" fill-rule="nonzero" fill-opacity="1" /><path clip-path="url(#clip220)" d="M244.588 1409.25 L234.01 1419.88 L244.588 1430.46 L241.834 1433.26 L231.209 1422.63 L220.584 1433.26 L217.852 1430.46 L228.408 1419.88 L217.852 1409.25 L220.584 1406.45 L231.209 1417.08 L241.834 1406.45 L244.588 1409.25 Z" fill="#000000" fill-rule="nonzero" fill-opacity="1" /><path clip-path="url(#clip220)" d="M256.949 1430.78 L264.588 1430.78 L264.588 1404.41 L256.278 1406.08 L256.278 1401.82 L264.542 1400.15 L269.218 1400.15 L269.218 1430.78 L276.857 1430.78 L276.857 1434.71 L256.949 1434.71 L256.949 1430.78 Z" fill="#000000" fill-rule="nonzero" fill-opacity="1" /><path clip-path="url(#clip220)" d="M296.301 1403.23 Q292.69 1403.23 290.861 1406.8 Q289.056 1410.34 289.056 1417.47 Q289.056 1424.58 290.861 1428.14 Q292.69 1431.68 296.301 1431.68 Q299.935 1431.68 301.741 1428.14 Q303.569 1424.58 303.569 1417.47 Q303.569 1410.34 301.741 1406.8 Q299.935 1403.23 296.301 1403.23 M296.301 1399.53 Q302.111 1399.53 305.167 1404.14 Q308.245 1408.72 308.245 1417.47 Q308.245 1426.2 305.167 1430.8 Q302.111 1435.39 296.301 1435.39 Q290.491 1435.39 287.412 1430.8 Q284.357 1426.2 284.357 1417.47 Q284.357 1408.72 287.412 1404.14 Q290.491 1399.53 296.301 1399.53 Z" fill="#000000" fill-rule="nonzero" fill-opacity="1" /><path clip-path="url(#clip220)" d="M320.941 1392.16 Q323.668 1392.75 325.191 1394.59 Q326.733 1396.43 326.733 1399.14 Q326.733 1403.3 323.875 1405.57 Q321.016 1407.85 315.75 1407.85 Q313.982 1407.85 312.101 1407.49 Q310.239 1407.15 308.245 1406.46 L308.245 1402.79 Q309.825 1403.71 311.706 1404.18 Q313.587 1404.65 315.637 1404.65 Q319.21 1404.65 321.072 1403.24 Q322.953 1401.83 322.953 1399.14 Q322.953 1396.66 321.204 1395.27 Q319.474 1393.86 316.37 1393.86 L313.098 1393.86 L313.098 1390.73 L316.521 1390.73 Q319.323 1390.73 320.809 1389.63 Q322.295 1388.5 322.295 1386.39 Q322.295 1384.23 320.753 1383.08 Q319.229 1381.91 316.37 1381.91 Q314.809 1381.91 313.023 1382.25 Q311.236 1382.59 309.092 1383.31 L309.092 1379.92 Q311.255 1379.32 313.135 1379.02 Q315.035 1378.72 316.709 1378.72 Q321.035 1378.72 323.555 1380.69 Q326.075 1382.65 326.075 1386 Q326.075 1388.33 324.74 1389.94 Q323.404 1391.54 320.941 1392.16 Z" fill="#000000" fill-rule="nonzero" fill-opacity="1" /><path clip-path="url(#clip220)" d="M109.698 1065.63 L117.336 1065.63 L117.336 1039.26 L109.026 1040.93 L109.026 1036.67 L117.29 1035 L121.966 1035 L121.966 1065.63 L129.605 1065.63 L129.605 1069.56 L109.698 1069.56 L109.698 1065.63 Z" fill="#000000" fill-rule="nonzero" fill-opacity="1" /><path clip-path="url(#clip220)" d="M139.049 1063.68 L143.933 1063.68 L143.933 1069.56 L139.049 1069.56 L139.049 1063.68 Z" fill="#000000" fill-rule="nonzero" fill-opacity="1" /><path clip-path="url(#clip220)" d="M164.119 1038.08 Q160.507 1038.08 158.679 1041.65 Q156.873 1045.19 156.873 1052.32 Q156.873 1059.42 158.679 1062.99 Q160.507 1066.53 164.119 1066.53 Q167.753 1066.53 169.558 1062.99 Q171.387 1059.42 171.387 1052.32 Q171.387 1045.19 169.558 1041.65 Q167.753 1038.08 164.119 1038.08 M164.119 1034.38 Q169.929 1034.38 172.984 1038.98 Q176.063 1043.57 176.063 1052.32 Q176.063 1061.04 172.984 1065.65 Q169.929 1070.23 164.119 1070.23 Q158.308 1070.23 155.23 1065.65 Q152.174 1061.04 152.174 1052.32 Q152.174 1043.57 155.23 1038.98 Q158.308 1034.38 164.119 1034.38 Z" fill="#000000" fill-rule="nonzero" fill-opacity="1" /><path clip-path="url(#clip220)" d="M194.28 1038.08 Q190.669 1038.08 188.841 1041.65 Q187.035 1045.19 187.035 1052.32 Q187.035 1059.42 188.841 1062.99 Q190.669 1066.53 194.28 1066.53 Q197.915 1066.53 199.72 1062.99 Q201.549 1059.42 201.549 1052.32 Q201.549 1045.19 199.72 1041.65 Q197.915 1038.08 194.28 1038.08 M194.28 1034.38 Q200.091 1034.38 203.146 1038.98 Q206.225 1043.57 206.225 1052.32 Q206.225 1061.04 203.146 1065.65 Q200.091 1070.23 194.28 1070.23 Q188.47 1070.23 185.392 1065.65 Q182.336 1061.04 182.336 1052.32 Q182.336 1043.57 185.392 1038.98 Q188.47 1034.38 194.28 1034.38 Z" fill="#000000" fill-rule="nonzero" fill-opacity="1" /><path clip-path="url(#clip220)" d="M242.614 1044.1 L232.035 1054.72 L242.614 1065.3 L239.859 1068.1 L229.234 1057.48 L218.609 1068.1 L215.878 1065.3 L226.433 1054.72 L215.878 1044.1 L218.609 1041.3 L229.234 1051.92 L239.859 1041.3 L242.614 1044.1 Z" fill="#000000" fill-rule="nonzero" fill-opacity="1" /><path clip-path="url(#clip220)" d="M254.975 1065.63 L262.613 1065.63 L262.613 1039.26 L254.303 1040.93 L254.303 1036.67 L262.567 1035 L267.243 1035 L267.243 1065.63 L274.882 1065.63 L274.882 1069.56 L254.975 1069.56 L254.975 1065.63 Z" fill="#000000" fill-rule="nonzero" fill-opacity="1" /><path clip-path="url(#clip220)" d="M294.326 1038.08 Q290.715 1038.08 288.886 1041.65 Q287.081 1045.19 287.081 1052.32 Q287.081 1059.42 288.886 1062.99 Q290.715 1066.53 294.326 1066.53 Q297.96 1066.53 299.766 1062.99 Q301.595 1059.42 301.595 1052.32 Q301.595 1045.19 299.766 1041.65 Q297.96 1038.08 294.326 1038.08 M294.326 1034.38 Q300.136 1034.38 303.192 1038.98 Q306.271 1043.57 306.271 1052.32 Q306.271 1061.04 303.192 1065.65 Q300.136 1070.23 294.326 1070.23 Q288.516 1070.23 285.437 1065.65 Q282.382 1061.04 282.382 1052.32 Q282.382 1043.57 285.437 1038.98 Q288.516 1034.38 294.326 1034.38 Z" fill="#000000" fill-rule="nonzero" fill-opacity="1" /><path clip-path="url(#clip220)" d="M318.947 1017.38 L309.355 1032.37 L318.947 1032.37 L318.947 1017.38 M317.95 1014.07 L322.727 1014.07 L322.727 1032.37 L326.733 1032.37 L326.733 1035.53 L322.727 1035.53 L322.727 1042.15 L318.947 1042.15 L318.947 1035.53 L306.271 1035.53 L306.271 1031.86 L317.95 1014.07 Z" fill="#000000" fill-rule="nonzero" fill-opacity="1" /><path clip-path="url(#clip220)" d="M109.698 700.476 L117.336 700.476 L117.336 674.11 L109.026 675.777 L109.026 671.518 L117.29 669.851 L121.966 669.851 L121.966 700.476 L129.605 700.476 L129.605 704.411 L109.698 704.411 L109.698 700.476 Z" fill="#000000" fill-rule="nonzero" fill-opacity="1" /><path clip-path="url(#clip220)" d="M139.049 698.531 L143.933 698.531 L143.933 704.411 L139.049 704.411 L139.049 698.531 Z" fill="#000000" fill-rule="nonzero" fill-opacity="1" /><path clip-path="url(#clip220)" d="M154.165 669.851 L172.521 669.851 L172.521 673.786 L158.447 673.786 L158.447 682.258 Q159.466 681.911 160.484 681.749 Q161.503 681.564 162.521 681.564 Q168.308 681.564 171.688 684.735 Q175.068 687.906 175.068 693.323 Q175.068 698.902 171.595 702.004 Q168.123 705.082 161.804 705.082 Q159.628 705.082 157.359 704.712 Q155.114 704.342 152.707 703.601 L152.707 698.902 Q154.79 700.036 157.012 700.592 Q159.234 701.147 161.711 701.147 Q165.716 701.147 168.054 699.041 Q170.392 696.934 170.392 693.323 Q170.392 689.712 168.054 687.606 Q165.716 685.499 161.711 685.499 Q159.836 685.499 157.961 685.916 Q156.109 686.332 154.165 687.212 L154.165 669.851 Z" fill="#000000" fill-rule="nonzero" fill-opacity="1" /><path clip-path="url(#clip220)" d="M194.28 672.93 Q190.669 672.93 188.841 676.494 Q187.035 680.036 187.035 687.166 Q187.035 694.272 188.841 697.837 Q190.669 701.379 194.28 701.379 Q197.915 701.379 199.72 697.837 Q201.549 694.272 201.549 687.166 Q201.549 680.036 199.72 676.494 Q197.915 672.93 194.28 672.93 M194.28 669.226 Q200.091 669.226 203.146 673.832 Q206.225 678.416 206.225 687.166 Q206.225 695.893 203.146 700.499 Q200.091 705.082 194.28 705.082 Q188.47 705.082 185.392 700.499 Q182.336 695.893 182.336 687.166 Q182.336 678.416 185.392 673.832 Q188.47 669.226 194.28 669.226 Z" fill="#000000" fill-rule="nonzero" fill-opacity="1" /><path clip-path="url(#clip220)" d="M242.614 678.948 L232.035 689.573 L242.614 700.152 L239.859 702.953 L229.234 692.328 L218.609 702.953 L215.878 700.152 L226.433 689.573 L215.878 678.948 L218.609 676.147 L229.234 686.772 L239.859 676.147 L242.614 678.948 Z" fill="#000000" fill-rule="nonzero" fill-opacity="1" /><path clip-path="url(#clip220)" d="M254.975 700.476 L262.613 700.476 L262.613 674.11 L254.303 675.777 L254.303 671.518 L262.567 669.851 L267.243 669.851 L267.243 700.476 L274.882 700.476 L274.882 704.411 L254.975 704.411 L254.975 700.476 Z" fill="#000000" fill-rule="nonzero" fill-opacity="1" /><path clip-path="url(#clip220)" d="M294.326 672.93 Q290.715 672.93 288.886 676.494 Q287.081 680.036 287.081 687.166 Q287.081 694.272 288.886 697.837 Q290.715 701.379 294.326 701.379 Q297.96 701.379 299.766 697.837 Q301.595 694.272 301.595 687.166 Q301.595 680.036 299.766 676.494 Q297.96 672.93 294.326 672.93 M294.326 669.226 Q300.136 669.226 303.192 673.832 Q306.271 678.416 306.271 687.166 Q306.271 695.893 303.192 700.499 Q300.136 705.082 294.326 705.082 Q288.516 705.082 285.437 700.499 Q282.382 695.893 282.382 687.166 Q282.382 678.416 285.437 673.832 Q288.516 669.226 294.326 669.226 Z" fill="#000000" fill-rule="nonzero" fill-opacity="1" /><path clip-path="url(#clip220)" d="M318.947 652.231 L309.355 667.221 L318.947 667.221 L318.947 652.231 M317.95 648.921 L322.727 648.921 L322.727 667.221 L326.733 667.221 L326.733 670.38 L322.727 670.38 L322.727 677.001 L318.947 677.001 L318.947 670.38 L306.271 670.38 L306.271 666.713 L317.95 648.921 Z" fill="#000000" fill-rule="nonzero" fill-opacity="1" /><path clip-path="url(#clip220)" d="M112.915 335.324 L129.234 335.324 L129.234 339.259 L107.29 339.259 L107.29 335.324 Q109.952 332.569 114.535 327.94 Q119.142 323.287 120.322 321.944 Q122.568 319.421 123.447 317.685 Q124.35 315.926 124.35 314.236 Q124.35 311.482 122.406 309.745 Q120.485 308.009 117.383 308.009 Q115.184 308.009 112.73 308.773 Q110.299 309.537 107.522 311.088 L107.522 306.366 Q110.346 305.232 112.799 304.653 Q115.253 304.074 117.29 304.074 Q122.66 304.074 125.855 306.759 Q129.049 309.444 129.049 313.935 Q129.049 316.065 128.239 317.986 Q127.452 319.884 125.346 322.477 Q124.767 323.148 121.665 326.366 Q118.563 329.56 112.915 335.324 Z" fill="#000000" fill-rule="nonzero" fill-opacity="1" /><path clip-path="url(#clip220)" d="M139.049 333.38 L143.933 333.38 L143.933 339.259 L139.049 339.259 L139.049 333.38 Z" fill="#000000" fill-rule="nonzero" fill-opacity="1" /><path clip-path="url(#clip220)" d="M164.119 307.778 Q160.507 307.778 158.679 311.343 Q156.873 314.884 156.873 322.014 Q156.873 329.12 158.679 332.685 Q160.507 336.227 164.119 336.227 Q167.753 336.227 169.558 332.685 Q171.387 329.12 171.387 322.014 Q171.387 314.884 169.558 311.343 Q167.753 307.778 164.119 307.778 M164.119 304.074 Q169.929 304.074 172.984 308.681 Q176.063 313.264 176.063 322.014 Q176.063 330.741 172.984 335.347 Q169.929 339.93 164.119 339.93 Q158.308 339.93 155.23 335.347 Q152.174 330.741 152.174 322.014 Q152.174 313.264 155.23 308.681 Q158.308 304.074 164.119 304.074 Z" fill="#000000" fill-rule="nonzero" fill-opacity="1" /><path clip-path="url(#clip220)" d="M194.28 307.778 Q190.669 307.778 188.841 311.343 Q187.035 314.884 187.035 322.014 Q187.035 329.12 188.841 332.685 Q190.669 336.227 194.28 336.227 Q197.915 336.227 199.72 332.685 Q201.549 329.12 201.549 322.014 Q201.549 314.884 199.72 311.343 Q197.915 307.778 194.28 307.778 M194.28 304.074 Q200.091 304.074 203.146 308.681 Q206.225 313.264 206.225 322.014 Q206.225 330.741 203.146 335.347 Q200.091 339.93 194.28 339.93 Q188.47 339.93 185.392 335.347 Q182.336 330.741 182.336 322.014 Q182.336 313.264 185.392 308.681 Q188.47 304.074 194.28 304.074 Z" fill="#000000" fill-rule="nonzero" fill-opacity="1" /><path clip-path="url(#clip220)" d="M242.614 313.796 L232.035 324.421 L242.614 335 L239.859 337.801 L229.234 327.176 L218.609 337.801 L215.878 335 L226.433 324.421 L215.878 313.796 L218.609 310.995 L229.234 321.62 L239.859 310.995 L242.614 313.796 Z" fill="#000000" fill-rule="nonzero" fill-opacity="1" /><path clip-path="url(#clip220)" d="M254.975 335.324 L262.613 335.324 L262.613 308.958 L254.303 310.625 L254.303 306.366 L262.567 304.699 L267.243 304.699 L267.243 335.324 L274.882 335.324 L274.882 339.259 L254.975 339.259 L254.975 335.324 Z" fill="#000000" fill-rule="nonzero" fill-opacity="1" /><path clip-path="url(#clip220)" d="M294.326 307.778 Q290.715 307.778 288.886 311.343 Q287.081 314.884 287.081 322.014 Q287.081 329.12 288.886 332.685 Q290.715 336.227 294.326 336.227 Q297.96 336.227 299.766 332.685 Q301.595 329.12 301.595 322.014 Q301.595 314.884 299.766 311.343 Q297.96 307.778 294.326 307.778 M294.326 304.074 Q300.136 304.074 303.192 308.681 Q306.271 313.264 306.271 322.014 Q306.271 330.741 303.192 335.347 Q300.136 339.93 294.326 339.93 Q288.516 339.93 285.437 335.347 Q282.382 330.741 282.382 322.014 Q282.382 313.264 285.437 308.681 Q288.516 304.074 294.326 304.074 Z" fill="#000000" fill-rule="nonzero" fill-opacity="1" /><path clip-path="url(#clip220)" d="M318.947 287.079 L309.355 302.069 L318.947 302.069 L318.947 287.079 M317.95 283.769 L322.727 283.769 L322.727 302.069 L326.733 302.069 L326.733 305.228 L322.727 305.228 L322.727 311.849 L318.947 311.849 L318.947 305.228 L306.271 305.228 L306.271 301.561 L317.95 283.769 Z" fill="#000000" fill-rule="nonzero" fill-opacity="1" /><path clip-path="url(#clip220)" d="M-2.48584 1197.82 L45.0342 1197.82 L45.0342 1204.25 L2.92501 1204.25 L2.92501 1227.62 L45.0342 1227.62 L45.0342 1234.05 L-2.48584 1234.05 L-2.48584 1197.82 Z" fill="#000000" fill-rule="nonzero" fill-opacity="1" /><path clip-path="url(#clip220)" d="M13.4921 1171.47 Q13.4921 1176.18 17.1842 1178.92 Q20.8445 1181.66 27.242 1181.66 Q33.6395 1181.66 37.3317 1178.95 Q40.9919 1176.21 40.9919 1171.47 Q40.9919 1166.79 37.2998 1164.05 Q33.6077 1161.32 27.242 1161.32 Q20.9081 1161.32 17.216 1164.05 Q13.4921 1166.79 13.4921 1171.47 M8.52683 1171.47 Q8.52683 1163.83 13.4921 1159.47 Q18.4573 1155.11 27.242 1155.11 Q35.9949 1155.11 40.9919 1159.47 Q45.9572 1163.83 45.9572 1171.47 Q45.9572 1179.14 40.9919 1183.5 Q35.9949 1187.83 27.242 1187.83 Q18.4573 1187.83 13.4921 1183.5 Q8.52683 1179.14 8.52683 1171.47 Z" fill="#000000" fill-rule="nonzero" fill-opacity="1" /><path clip-path="url(#clip220)" d="M9.3862 1114.85 L45.0342 1114.85 L45.0342 1120.74 L14.065 1120.74 L14.065 1139.74 L45.0342 1139.74 L45.0342 1145.63 L9.3862 1145.63 L9.3862 1114.85 Z" fill="#000000" fill-rule="nonzero" fill-opacity="1" /><path clip-path="url(#clip220)" d="M48.3443 1087.95 Q54.71 1090.43 56.6516 1092.79 Q58.5931 1095.15 58.5931 1099.09 L58.5931 1103.77 L53.6915 1103.77 L53.6915 1100.33 Q53.6915 1097.91 52.5457 1096.58 Q51.3999 1095.24 47.1348 1093.62 L44.4612 1092.57 L9.3862 1106.99 L9.3862 1100.78 L37.268 1089.64 L9.3862 1078.5 L9.3862 1072.29 L48.3443 1087.95 Z" fill="#000000" fill-rule="nonzero" fill-opacity="1" /><path clip-path="url(#clip220)" d="M45.0342 1067.93 L40.1644 1067.93 Q39.2732 1062.14 35.2628 1060.36 Q29.6291 1058.19 15.2108 1058.19 L9.3862 1058.19 L9.3862 1034.1 L45.0342 1034.1 L45.0342 1039.95 L14.065 1039.95 L14.065 1052.34 L17.598 1052.34 Q31.3479 1052.34 37.5226 1055.14 Q44.1111 1058.13 45.0342 1067.93 Z" fill="#000000" fill-rule="nonzero" fill-opacity="1" /><path clip-path="url(#clip220)" d="M19.6668 1016.66 Q22.3086 1016.66 23.8045 1014.62 Q25.3005 1012.58 25.3005 1008.79 L25.3005 1000.9 L14.065 1000.9 L14.065 1008.79 Q14.065 1012.58 15.5291 1014.62 Q16.9932 1016.66 19.6668 1016.66 M45.0342 1025 L29.4063 1014.11 Q28.5788 1017.8 26.4145 1020.25 Q24.2183 1022.7 19.6668 1022.7 Q14.5106 1022.7 11.9643 1019.3 Q9.3862 1015.86 9.3862 1008.95 L9.3862 995.013 L45.0342 995.013 L45.0342 1000.9 L29.9793 1000.9 L29.9793 1008.19 L45.0342 1018.69 L45.0342 1025 Z" fill="#000000" fill-rule="nonzero" fill-opacity="1" /><path clip-path="url(#clip220)" d="M45.0342 952.777 L45.0342 983.555 L9.3862 983.555 L9.3862 977.666 L40.3554 977.666 L40.3554 958.665 L9.3862 958.665 L9.3862 952.777 L40.3554 952.777 L40.3554 948.098 L54.0416 948.098 L54.0416 952.777 L45.0342 952.777 Z" fill="#000000" fill-rule="nonzero" fill-opacity="1" /><path clip-path="url(#clip220)" d="M9.3862 908.662 L45.0342 908.662 L45.0342 914.487 L16.4203 914.487 L45.0342 931.674 L45.0342 939.186 L9.3862 939.186 L9.3862 933.361 L37.9364 933.361 L9.3862 916.206 L9.3862 908.662 Z" fill="#000000" fill-rule="nonzero" fill-opacity="1" /><path clip-path="url(#clip220)" d="M19.6668 890.711 Q22.3086 890.711 23.8045 888.674 Q25.3005 886.637 25.3005 882.849 L25.3005 874.956 L14.065 874.956 L14.065 882.849 Q14.065 886.637 15.5291 888.674 Q16.9932 890.711 19.6668 890.711 M45.0342 899.05 L29.4063 888.165 Q28.5788 891.857 26.4145 894.308 Q24.2183 896.758 19.6668 896.758 Q14.5106 896.758 11.9643 893.353 Q9.3862 889.915 9.3862 883.008 L9.3862 869.068 L45.0342 869.068 L45.0342 874.956 L29.9793 874.956 L29.9793 882.245 L45.0342 892.748 L45.0342 899.05 Z" fill="#000000" fill-rule="nonzero" fill-opacity="1" /><path clip-path="url(#clip220)" d="M36.9497 855.89 L36.9497 849.175 L42.4242 849.175 L52.6093 854.395 L52.6093 858.5 L42.4242 855.89 L36.9497 855.89 Z" fill="#000000" fill-rule="nonzero" fill-opacity="1" /><path clip-path="url(#clip220)" d="M30.9659 816.55 L9.3862 816.55 L9.3862 810.694 L30.7431 810.694 Q35.8039 810.694 38.3502 808.721 Q40.8646 806.747 40.8646 802.801 Q40.8646 798.058 37.8409 795.321 Q34.8172 792.552 29.5973 792.552 L9.3862 792.552 L9.3862 786.695 L45.0342 786.695 L45.0342 792.552 L39.5596 792.552 Q42.8062 794.684 44.3976 797.517 Q45.9572 800.318 45.9572 804.042 Q45.9572 810.185 42.1378 813.368 Q38.3183 816.55 30.9659 816.55 M8.52683 801.814 L8.52683 801.814 Z" fill="#000000" fill-rule="nonzero" fill-opacity="1" /><path clip-path="url(#clip220)" d="M-4.42738 760.564 Q2.89318 764.829 10.0546 766.898 Q17.216 768.967 24.5684 768.967 Q31.9208 768.967 39.1459 766.898 Q46.3391 764.797 53.6279 760.564 L53.6279 765.657 Q46.1482 770.431 38.9231 772.818 Q31.698 775.173 24.5684 775.173 Q17.4706 775.173 10.2774 772.818 Q3.08415 770.463 -4.42738 765.657 L-4.42738 760.564 Z" fill="#000000" fill-rule="nonzero" fill-opacity="1" /><path clip-path="url(#clip220)" d="M-0.735273 743.408 L9.3862 743.408 L9.3862 731.345 L13.9377 731.345 L13.9377 743.408 L33.2894 743.408 Q37.6499 743.408 38.8913 742.231 Q40.1326 741.021 40.1326 737.361 L40.1326 731.345 L45.0342 731.345 L45.0342 737.361 Q45.0342 744.141 42.5197 746.719 Q39.9734 749.297 33.2894 749.297 L13.9377 749.297 L13.9377 753.594 L9.3862 753.594 L9.3862 749.297 L-0.735273 749.297 L-0.735273 743.408 Z" fill="#000000" fill-rule="nonzero" fill-opacity="1" /><path clip-path="url(#clip220)" d="M-4.42738 724.566 L-4.42738 719.473 Q3.08415 714.699 10.2774 712.344 Q17.4706 709.957 24.5684 709.957 Q31.698 709.957 38.9231 712.344 Q46.1482 714.699 53.6279 719.473 L53.6279 724.566 Q46.3391 720.333 39.1459 718.264 Q31.9208 716.163 24.5684 716.163 Q17.216 716.163 10.0546 718.264 Q2.89318 720.333 -4.42738 724.566 Z" fill="#000000" fill-rule="nonzero" fill-opacity="1" /><path clip-path="url(#clip220)" d="M674.639 12.096 L674.639 72.576 L666.456 72.576 L666.456 18.9825 L636.722 18.9825 L636.722 72.576 L628.54 72.576 L628.54 12.096 L674.639 12.096 Z" fill="#000000" fill-rule="nonzero" fill-opacity="1" /><path clip-path="url(#clip220)" d="M711.218 49.7694 Q702.185 49.7694 698.701 51.8354 Q695.217 53.9013 695.217 58.8839 Q695.217 62.8538 697.81 65.2034 Q700.443 67.5124 704.94 67.5124 Q711.137 67.5124 714.864 63.1374 Q718.632 58.7219 718.632 51.4303 L718.632 49.7694 L711.218 49.7694 M726.085 46.6907 L726.085 72.576 L718.632 72.576 L718.632 65.6895 Q716.08 69.8214 712.272 71.8063 Q708.464 73.7508 702.955 73.7508 Q695.987 73.7508 691.855 69.8619 Q687.764 65.9325 687.764 59.3701 Q687.764 51.7138 692.868 47.825 Q698.013 43.9361 708.18 43.9361 L718.632 43.9361 L718.632 43.2069 Q718.632 38.0623 715.229 35.2672 Q711.867 32.4315 705.75 32.4315 Q701.861 32.4315 698.175 33.3632 Q694.488 34.295 691.085 36.1584 L691.085 29.2718 Q695.177 27.692 699.025 26.9223 Q702.874 26.1121 706.519 26.1121 Q716.363 26.1121 721.224 31.2163 Q726.085 36.3204 726.085 46.6907 Z" fill="#000000" fill-rule="nonzero" fill-opacity="1" /><path clip-path="url(#clip220)" d="M748.649 65.7705 L748.649 89.8329 L741.155 89.8329 L741.155 27.2059 L748.649 27.2059 L748.649 34.0924 Q750.998 30.0415 754.563 28.0971 Q758.168 26.1121 763.151 26.1121 Q771.415 26.1121 776.56 32.6746 Q781.745 39.2371 781.745 49.9314 Q781.745 60.6258 776.56 67.1883 Q771.415 73.7508 763.151 73.7508 Q758.168 73.7508 754.563 71.8063 Q750.998 69.8214 748.649 65.7705 M774.007 49.9314 Q774.007 41.7081 770.605 37.0496 Q767.242 32.3505 761.328 32.3505 Q755.414 32.3505 752.011 37.0496 Q748.649 41.7081 748.649 49.9314 Q748.649 58.1548 752.011 62.8538 Q755.414 67.5124 761.328 67.5124 Q767.242 67.5124 770.605 62.8538 Q774.007 58.1548 774.007 49.9314 Z" fill="#000000" fill-rule="nonzero" fill-opacity="1" /><path clip-path="url(#clip220)" d="M814.719 49.7694 Q805.686 49.7694 802.202 51.8354 Q798.718 53.9013 798.718 58.8839 Q798.718 62.8538 801.311 65.2034 Q803.944 67.5124 808.44 67.5124 Q814.638 67.5124 818.365 63.1374 Q822.132 58.7219 822.132 51.4303 L822.132 49.7694 L814.719 49.7694 M829.586 46.6907 L829.586 72.576 L822.132 72.576 L822.132 65.6895 Q819.58 69.8214 815.772 71.8063 Q811.964 73.7508 806.455 73.7508 Q799.488 73.7508 795.356 69.8619 Q791.264 65.9325 791.264 59.3701 Q791.264 51.7138 796.368 47.825 Q801.513 43.9361 811.681 43.9361 L822.132 43.9361 L822.132 43.2069 Q822.132 38.0623 818.729 35.2672 Q815.367 32.4315 809.25 32.4315 Q805.361 32.4315 801.675 33.3632 Q797.989 34.295 794.586 36.1584 L794.586 29.2718 Q798.677 27.692 802.526 26.9223 Q806.374 26.1121 810.02 26.1121 Q819.864 26.1121 824.725 31.2163 Q829.586 36.3204 829.586 46.6907 Z" fill="#000000" fill-rule="nonzero" fill-opacity="1" /><path clip-path="url(#clip220)" d="M844.655 27.2059 L855.552 27.2059 L868.434 57.5877 L881.356 27.2059 L892.172 27.2059 L892.172 72.576 L884.678 72.576 L884.678 34.3355 L872.161 63.8666 L864.707 63.8666 L852.149 34.3355 L852.149 72.576 L844.655 72.576 L844.655 27.2059 Z" fill="#000000" fill-rule="nonzero" fill-opacity="1" /><path clip-path="url(#clip220)" d="M946.333 48.0275 L946.333 51.6733 L912.062 51.6733 Q912.548 59.3701 916.68 63.421 Q920.853 67.4314 928.266 67.4314 Q932.56 67.4314 936.57 66.3781 Q940.621 65.3249 944.591 63.2184 L944.591 70.267 Q940.581 71.9684 936.368 72.8596 Q932.155 73.7508 927.82 73.7508 Q916.964 73.7508 910.604 67.4314 Q904.285 61.1119 904.285 50.3365 Q904.285 39.1965 910.28 32.6746 Q916.316 26.1121 926.524 26.1121 Q935.679 26.1121 940.986 32.0264 Q946.333 37.9003 946.333 48.0275 M938.879 45.84 Q938.798 39.7232 935.436 36.0774 Q932.114 32.4315 926.605 32.4315 Q920.367 32.4315 916.599 35.9558 Q912.872 39.4801 912.305 45.8805 L938.879 45.84 Z" fill="#000000" fill-rule="nonzero" fill-opacity="1" /><path clip-path="url(#clip220)" d="M953.179 27.2059 L996.645 27.2059 L996.645 33.1607 L978.578 33.1607 L978.578 72.576 L971.246 72.576 L971.246 33.1607 L953.179 33.1607 L953.179 27.2059 Z" fill="#000000" fill-rule="nonzero" fill-opacity="1" /><path clip-path="url(#clip220)" d="M1014.1 65.7705 L1014.1 89.8329 L1006.61 89.8329 L1006.61 27.2059 L1014.1 27.2059 L1014.1 34.0924 Q1016.45 30.0415 1020.02 28.0971 Q1023.62 26.1121 1028.61 26.1121 Q1036.87 26.1121 1042.02 32.6746 Q1047.2 39.2371 1047.2 49.9314 Q1047.2 60.6258 1042.02 67.1883 Q1036.87 73.7508 1028.61 73.7508 Q1023.62 73.7508 1020.02 71.8063 Q1016.45 69.8214 1014.1 65.7705 M1039.46 49.9314 Q1039.46 41.7081 1036.06 37.0496 Q1032.7 32.3505 1026.78 32.3505 Q1020.87 32.3505 1017.47 37.0496 Q1014.1 41.7081 1014.1 49.9314 Q1014.1 58.1548 1017.47 62.8538 Q1020.87 67.5124 1026.78 67.5124 Q1032.7 67.5124 1036.06 62.8538 Q1039.46 58.1548 1039.46 49.9314 Z" fill="#000000" fill-rule="nonzero" fill-opacity="1" /><path clip-path="url(#clip220)" d="M1098.12 27.2059 L1098.12 72.576 L1090.71 72.576 L1090.71 36.1584 L1068.83 72.576 L1059.27 72.576 L1059.27 27.2059 L1066.69 27.2059 L1066.69 63.5425 L1088.52 27.2059 L1098.12 27.2059 Z" fill="#000000" fill-rule="nonzero" fill-opacity="1" /><path clip-path="url(#clip220)" d="M1139.68 72.576 L1139.68 53.4962 L1125.79 53.4962 Q1119.59 53.4962 1115.46 49.6479 Q1111.73 46.1641 1111.73 38.7104 L1111.73 27.2059 L1119.19 27.2059 L1119.19 38.0218 Q1119.19 42.7613 1121.29 45.1514 Q1123.44 47.5414 1127.65 47.5414 L1139.68 47.5414 L1139.68 27.2059 L1147.14 27.2059 L1147.14 72.576 L1139.68 72.576 Z" fill="#000000" fill-rule="nonzero" fill-opacity="1" /><path clip-path="url(#clip220)" d="M1201.3 48.0275 L1201.3 51.6733 L1167.03 51.6733 Q1167.51 59.3701 1171.64 63.421 Q1175.82 67.4314 1183.23 67.4314 Q1187.52 67.4314 1191.53 66.3781 Q1195.59 65.3249 1199.55 63.2184 L1199.55 70.267 Q1195.54 71.9684 1191.33 72.8596 Q1187.12 73.7508 1182.78 73.7508 Q1171.93 73.7508 1165.57 67.4314 Q1159.25 61.1119 1159.25 50.3365 Q1159.25 39.1965 1165.24 32.6746 Q1171.28 26.1121 1181.49 26.1121 Q1190.64 26.1121 1195.95 32.0264 Q1201.3 37.9003 1201.3 48.0275 M1193.84 45.84 Q1193.76 39.7232 1190.4 36.0774 Q1187.08 32.4315 1181.57 32.4315 Q1175.33 32.4315 1171.56 35.9558 Q1167.84 39.4801 1167.27 45.8805 L1193.84 45.84 Z" fill="#000000" fill-rule="nonzero" fill-opacity="1" /><path clip-path="url(#clip220)" d="M1246.18 28.9478 L1246.18 35.9153 Q1243.02 34.1734 1239.82 33.3227 Q1236.66 32.4315 1233.42 32.4315 Q1226.17 32.4315 1222.16 37.0496 Q1218.15 41.6271 1218.15 49.9314 Q1218.15 58.2358 1222.16 62.8538 Q1226.17 67.4314 1233.42 67.4314 Q1236.66 67.4314 1239.82 66.5807 Q1243.02 65.6895 1246.18 63.9476 L1246.18 70.8341 Q1243.06 72.2924 1239.7 73.0216 Q1236.38 73.7508 1232.61 73.7508 Q1222.36 73.7508 1216.33 67.3098 Q1210.29 60.8689 1210.29 49.9314 Q1210.29 38.832 1216.37 32.472 Q1222.48 26.1121 1233.1 26.1121 Q1236.54 26.1121 1239.82 26.8413 Q1243.1 27.5299 1246.18 28.9478 Z" fill="#000000" fill-rule="nonzero" fill-opacity="1" /><path clip-path="url(#clip220)" d="M1258.86 27.2059 L1266.27 27.2059 L1266.27 48.5136 L1287.3 27.2059 L1296.45 27.2059 L1279.11 44.7463 L1298.68 72.576 L1290.34 72.576 L1274.25 49.6884 L1266.27 57.7902 L1266.27 72.576 L1258.86 72.576 L1258.86 27.2059 Z" fill="#000000" fill-rule="nonzero" fill-opacity="1" /><path clip-path="url(#clip220)" d="M1326.83 32.4315 Q1320.84 32.4315 1317.36 37.1306 Q1313.87 41.7891 1313.87 49.9314 Q1313.87 58.0738 1317.31 62.7728 Q1320.8 67.4314 1326.83 67.4314 Q1332.79 67.4314 1336.27 62.7323 Q1339.76 58.0333 1339.76 49.9314 Q1339.76 41.8701 1336.27 37.1711 Q1332.79 32.4315 1326.83 32.4315 M1326.83 26.1121 Q1336.56 26.1121 1342.11 32.4315 Q1347.66 38.7509 1347.66 49.9314 Q1347.66 61.0714 1342.11 67.4314 Q1336.56 73.7508 1326.83 73.7508 Q1317.07 73.7508 1311.52 67.4314 Q1306.01 61.0714 1306.01 49.9314 Q1306.01 38.7509 1311.52 32.4315 Q1317.07 26.1121 1326.83 26.1121 Z" fill="#000000" fill-rule="nonzero" fill-opacity="1" /><path clip-path="url(#clip220)" d="M1398.82 48.0275 L1398.82 51.6733 L1364.55 51.6733 Q1365.03 59.3701 1369.17 63.421 Q1373.34 67.4314 1380.75 67.4314 Q1385.05 67.4314 1389.06 66.3781 Q1393.11 65.3249 1397.08 63.2184 L1397.08 70.267 Q1393.07 71.9684 1388.85 72.8596 Q1384.64 73.7508 1380.31 73.7508 Q1369.45 73.7508 1363.09 67.4314 Q1356.77 61.1119 1356.77 50.3365 Q1356.77 39.1965 1362.77 32.6746 Q1368.8 26.1121 1379.01 26.1121 Q1388.17 26.1121 1393.47 32.0264 Q1398.82 37.9003 1398.82 48.0275 M1391.37 45.84 Q1391.28 39.7232 1387.92 36.0774 Q1384.6 32.4315 1379.09 32.4315 Q1372.85 32.4315 1369.09 35.9558 Q1365.36 39.4801 1364.79 45.8805 L1391.37 45.84 Z" fill="#000000" fill-rule="nonzero" fill-opacity="1" /><path clip-path="url(#clip220)" d="M1475.99 27.2059 L1475.99 72.576 L1468.58 72.576 L1468.58 36.1584 L1446.7 72.576 L1437.14 72.576 L1437.14 27.2059 L1444.55 27.2059 L1444.55 63.5425 L1466.39 27.2059 L1475.99 27.2059 Z" fill="#000000" fill-rule="nonzero" fill-opacity="1" /><path clip-path="url(#clip220)" d="M1523.99 28.9478 L1523.99 35.9153 Q1520.83 34.1734 1517.63 33.3227 Q1514.47 32.4315 1511.23 32.4315 Q1503.98 32.4315 1499.97 37.0496 Q1495.96 41.6271 1495.96 49.9314 Q1495.96 58.2358 1499.97 62.8538 Q1503.98 67.4314 1511.23 67.4314 Q1514.47 67.4314 1517.63 66.5807 Q1520.83 65.6895 1523.99 63.9476 L1523.99 70.8341 Q1520.87 72.2924 1517.51 73.0216 Q1514.19 73.7508 1510.42 73.7508 Q1500.17 73.7508 1494.14 67.3098 Q1488.1 60.8689 1488.1 49.9314 Q1488.1 38.832 1494.18 32.472 Q1500.29 26.1121 1510.91 26.1121 Q1514.35 26.1121 1517.63 26.8413 Q1520.91 27.5299 1523.99 28.9478 Z" fill="#000000" fill-rule="nonzero" fill-opacity="1" /><path clip-path="url(#clip220)" d="M1569.61 28.9478 L1569.61 35.9153 Q1566.45 34.1734 1563.25 33.3227 Q1560.09 32.4315 1556.84 32.4315 Q1549.59 32.4315 1545.58 37.0496 Q1541.57 41.6271 1541.57 49.9314 Q1541.57 58.2358 1545.58 62.8538 Q1549.59 67.4314 1556.84 67.4314 Q1560.09 67.4314 1563.25 66.5807 Q1566.45 65.6895 1569.61 63.9476 L1569.61 70.8341 Q1566.49 72.2924 1563.12 73.0216 Q1559.8 73.7508 1556.03 73.7508 Q1545.79 73.7508 1539.75 67.3098 Q1533.71 60.8689 1533.71 49.9314 Q1533.71 38.832 1539.79 32.472 Q1545.91 26.1121 1556.52 26.1121 Q1559.96 26.1121 1563.25 26.8413 Q1566.53 27.5299 1569.61 28.9478 Z" fill="#000000" fill-rule="nonzero" fill-opacity="1" /><path clip-path="url(#clip220)" d="M1577.83 72.576 L1577.83 66.3781 Q1585.2 65.2439 1587.47 60.1397 Q1590.22 52.9696 1590.22 34.619 L1590.22 27.2059 L1620.89 27.2059 L1620.89 72.576 L1613.44 72.576 L1613.44 33.1607 L1597.68 33.1607 L1597.68 37.6572 Q1597.68 55.1571 1594.11 63.0159 Q1590.31 71.4012 1577.83 72.576 Z" fill="#000000" fill-rule="nonzero" fill-opacity="1" /><path clip-path="url(#clip220)" d="M1674.4 48.0275 L1674.4 51.6733 L1640.13 51.6733 Q1640.62 59.3701 1644.75 63.421 Q1648.92 67.4314 1656.33 67.4314 Q1660.63 67.4314 1664.64 66.3781 Q1668.69 65.3249 1672.66 63.2184 L1672.66 70.267 Q1668.65 71.9684 1664.44 72.8596 Q1660.22 73.7508 1655.89 73.7508 Q1645.03 73.7508 1638.67 67.4314 Q1632.35 61.1119 1632.35 50.3365 Q1632.35 39.1965 1638.35 32.6746 Q1644.38 26.1121 1654.59 26.1121 Q1663.75 26.1121 1669.05 32.0264 Q1674.4 37.9003 1674.4 48.0275 M1666.95 45.84 Q1666.87 39.7232 1663.51 36.0774 Q1660.18 32.4315 1654.67 32.4315 Q1648.44 32.4315 1644.67 35.9558 Q1640.94 39.4801 1640.37 45.8805 L1666.95 45.84 Z" fill="#000000" fill-rule="nonzero" fill-opacity="1" /><path clip-path="url(#clip220)" d="M1696.76 66.6212 L1718.39 66.6212 L1718.39 33.1607 L1702.72 33.1607 L1702.72 38.832 Q1702.72 55.5217 1697.94 64.4337 L1696.76 66.6212 M1685.95 66.6212 Q1689.63 65.0008 1691.25 61.5575 Q1695.22 53.0101 1695.22 35.7938 L1695.22 27.2059 L1725.89 27.2059 L1725.89 66.6212 L1731.84 66.6212 L1731.84 84.0401 L1725.89 84.0401 L1725.89 72.576 L1689.11 72.576 L1689.11 84.0401 L1683.15 84.0401 L1683.15 66.6212 L1685.95 66.6212 Z" fill="#000000" fill-rule="nonzero" fill-opacity="1" /><path clip-path="url(#clip220)" d="M1761.58 32.4315 Q1755.58 32.4315 1752.1 37.1306 Q1748.61 41.7891 1748.61 49.9314 Q1748.61 58.0738 1752.06 62.7728 Q1755.54 67.4314 1761.58 67.4314 Q1767.53 67.4314 1771.02 62.7323 Q1774.5 58.0333 1774.5 49.9314 Q1774.5 41.8701 1771.02 37.1711 Q1767.53 32.4315 1761.58 32.4315 M1761.58 26.1121 Q1771.3 26.1121 1776.85 32.4315 Q1782.4 38.7509 1782.4 49.9314 Q1782.4 61.0714 1776.85 67.4314 Q1771.3 73.7508 1761.58 73.7508 Q1751.81 73.7508 1746.27 67.4314 Q1740.76 61.0714 1740.76 49.9314 Q1740.76 38.7509 1746.27 32.4315 Q1751.81 26.1121 1761.58 26.1121 Z" fill="#000000" fill-rule="nonzero" fill-opacity="1" /><path clip-path="url(#clip220)" d="M1801.92 51.6733 L1801.92 66.6212 L1812.54 66.6212 Q1817.64 66.6212 1820.32 64.7172 Q1822.99 62.7728 1822.99 59.127 Q1822.99 55.4812 1820.32 53.5773 Q1817.64 51.6733 1812.54 51.6733 L1801.92 51.6733 M1801.92 33.1607 L1801.92 45.7185 L1811.73 45.7185 Q1815.94 45.7185 1818.61 44.0576 Q1821.29 42.3563 1821.29 39.3586 Q1821.29 36.3609 1818.61 34.7811 Q1815.94 33.1607 1811.73 33.1607 L1801.92 33.1607 M1794.47 27.2059 L1812.21 27.2059 Q1820.19 27.2059 1824.49 30.1225 Q1828.78 33.0392 1828.78 38.4269 Q1828.78 42.5993 1826.59 45.0704 Q1824.41 47.5009 1820.11 48.1085 Q1825.26 49.0808 1828.09 52.1594 Q1830.93 55.2381 1830.93 59.8562 Q1830.93 65.9325 1826.23 69.2543 Q1821.57 72.576 1812.9 72.576 L1794.47 72.576 L1794.47 27.2059 Z" fill="#000000" fill-rule="nonzero" fill-opacity="1" /><path clip-path="url(#clip220)" d="M1864.27 49.7694 Q1855.23 49.7694 1851.75 51.8354 Q1848.27 53.9013 1848.27 58.8839 Q1848.27 62.8538 1850.86 65.2034 Q1853.49 67.5124 1857.99 67.5124 Q1864.19 67.5124 1867.91 63.1374 Q1871.68 58.7219 1871.68 51.4303 L1871.68 49.7694 L1864.27 49.7694 M1879.13 46.6907 L1879.13 72.576 L1871.68 72.576 L1871.68 65.6895 Q1869.13 69.8214 1865.32 71.8063 Q1861.51 73.7508 1856 73.7508 Q1849.04 73.7508 1844.9 69.8619 Q1840.81 65.9325 1840.81 59.3701 Q1840.81 51.7138 1845.92 47.825 Q1851.06 43.9361 1861.23 43.9361 L1871.68 43.9361 L1871.68 43.2069 Q1871.68 38.0623 1868.28 35.2672 Q1864.92 32.4315 1858.8 32.4315 Q1854.91 32.4315 1851.22 33.3632 Q1847.54 34.295 1844.13 36.1584 L1844.13 29.2718 Q1848.23 27.692 1852.07 26.9223 Q1855.92 26.1121 1859.57 26.1121 Q1869.41 26.1121 1874.27 31.2163 Q1879.13 36.3204 1879.13 46.6907 Z" fill="#000000" fill-rule="nonzero" fill-opacity="1" /><path clip-path="url(#clip220)" d="M1894.2 27.2059 L1901.7 27.2059 L1901.7 45.7185 L1925.88 45.7185 L1925.88 27.2059 L1933.38 27.2059 L1933.38 72.576 L1925.88 72.576 L1925.88 51.6733 L1901.7 51.6733 L1901.7 72.576 L1894.2 72.576 L1894.2 27.2059 Z" fill="#000000" fill-rule="nonzero" fill-opacity="1" /><path clip-path="url(#clip220)" d="M1987.29 27.2059 L1987.29 72.576 L1979.88 72.576 L1979.88 36.1584 L1958.01 72.576 L1948.45 72.576 L1948.45 27.2059 L1955.86 27.2059 L1955.86 63.5425 L1977.69 27.2059 L1987.29 27.2059 Z" fill="#000000" fill-rule="nonzero" fill-opacity="1" /><path clip-path="url(#clip220)" d="M2041.45 48.0275 L2041.45 51.6733 L2007.18 51.6733 Q2007.67 59.3701 2011.8 63.421 Q2015.97 67.4314 2023.39 67.4314 Q2027.68 67.4314 2031.69 66.3781 Q2035.74 65.3249 2039.71 63.2184 L2039.71 70.267 Q2035.7 71.9684 2031.49 72.8596 Q2027.28 73.7508 2022.94 73.7508 Q2012.09 73.7508 2005.73 67.4314 Q1999.41 61.1119 1999.41 50.3365 Q1999.41 39.1965 2005.4 32.6746 Q2011.44 26.1121 2021.65 26.1121 Q2030.8 26.1121 2036.11 32.0264 Q2041.45 37.9003 2041.45 48.0275 M2034 45.84 Q2033.92 39.7232 2030.56 36.0774 Q2027.24 32.4315 2021.73 32.4315 Q2015.49 32.4315 2011.72 35.9558 Q2007.99 39.4801 2007.43 45.8805 L2034 45.84 Z" fill="#000000" fill-rule="nonzero" fill-opacity="1" /><path clip-path="url(#clip220)" d="M2055.59 62.2867 L2064.14 62.2867 L2064.14 72.576 L2055.59 72.576 L2055.59 62.2867 M2055.59 29.6769 L2064.14 29.6769 L2064.14 39.9662 L2055.59 39.9662 L2055.59 29.6769 Z" fill="#000000" fill-rule="nonzero" fill-opacity="1" /><path clip-path="url(#clip220)" d="M2115.18 51.6733 L2115.18 66.6212 L2125.79 66.6212 Q2130.9 66.6212 2133.57 64.7172 Q2136.25 62.7728 2136.25 59.127 Q2136.25 55.4812 2133.57 53.5773 Q2130.9 51.6733 2125.79 51.6733 L2115.18 51.6733 M2115.18 33.1607 L2115.18 45.7185 L2124.98 45.7185 Q2129.2 45.7185 2131.87 44.0576 Q2134.54 42.3563 2134.54 39.3586 Q2134.54 36.3609 2131.87 34.7811 Q2129.2 33.1607 2124.98 33.1607 L2115.18 33.1607 M2107.73 27.2059 L2125.47 27.2059 Q2133.45 27.2059 2137.74 30.1225 Q2142.04 33.0392 2142.04 38.4269 Q2142.04 42.5993 2139.85 45.0704 Q2137.66 47.5009 2133.37 48.1085 Q2138.51 49.0808 2141.35 52.1594 Q2144.19 55.2381 2144.19 59.8562 Q2144.19 65.9325 2139.49 69.2543 Q2134.83 72.576 2126.16 72.576 L2107.73 72.576 L2107.73 27.2059 Z" fill="#000000" fill-rule="nonzero" fill-opacity="1" /><path clip-path="url(#clip220)" d="M2152.17 72.576 L2152.17 66.3781 Q2159.54 65.2439 2161.81 60.1397 Q2164.56 52.9696 2164.56 34.619 L2164.56 27.2059 L2195.23 27.2059 L2195.23 72.576 L2187.77 72.576 L2187.77 33.1607 L2172.02 33.1607 L2172.02 37.6572 Q2172.02 55.1571 2168.45 63.0159 Q2164.64 71.4012 2152.17 72.576 Z" fill="#000000" fill-rule="nonzero" fill-opacity="1" /><path clip-path="url(#clip220)" d="M2248.5 27.2059 L2248.5 72.576 L2241.08 72.576 L2241.08 36.1584 L2219.21 72.576 L2209.65 72.576 L2209.65 27.2059 L2217.06 27.2059 L2217.06 63.5425 L2238.9 27.2059 L2248.5 27.2059 Z" fill="#000000" fill-rule="nonzero" fill-opacity="1" /><path clip-path="url(#clip220)" d="M2271.34 40.2903 Q2271.34 43.6525 2273.94 45.5565 Q2276.53 47.4604 2281.35 47.4604 L2291.4 47.4604 L2291.4 33.1607 L2281.35 33.1607 Q2276.53 33.1607 2273.94 35.0241 Q2271.34 36.8875 2271.34 40.2903 M2260.73 72.576 L2274.58 52.6861 Q2269.88 51.6328 2266.77 48.8782 Q2263.65 46.0831 2263.65 40.2903 Q2263.65 33.7278 2267.98 30.4871 Q2272.36 27.2059 2281.15 27.2059 L2298.89 27.2059 L2298.89 72.576 L2291.4 72.576 L2291.4 53.4152 L2282.12 53.4152 L2268.75 72.576 L2260.73 72.576 Z" fill="#000000" fill-rule="nonzero" fill-opacity="1" /><path clip-path="url(#clip220)" d="M2313.47 27.2059 L2320.97 27.2059 L2320.97 45.7185 L2345.15 45.7185 L2345.15 27.2059 L2352.64 27.2059 L2352.64 72.576 L2345.15 72.576 L2345.15 51.6733 L2320.97 51.6733 L2320.97 72.576 L2313.47 72.576 L2313.47 27.2059 Z" fill="#000000" fill-rule="nonzero" fill-opacity="1" /><path clip-path="url(#clip220)" d="M2406.56 27.2059 L2406.56 72.576 L2399.15 72.576 L2399.15 36.1584 L2377.27 72.576 L2367.71 72.576 L2367.71 27.2059 L2375.13 27.2059 L2375.13 63.5425 L2396.96 27.2059 L2406.56 27.2059 Z" fill="#000000" fill-rule="nonzero" fill-opacity="1" /><path clip-path="url(#clip220)" d="M2460.72 48.0275 L2460.72 51.6733 L2426.45 51.6733 Q2426.94 59.3701 2431.07 63.421 Q2435.24 67.4314 2442.66 67.4314 Q2446.95 67.4314 2450.96 66.3781 Q2455.01 65.3249 2458.98 63.2184 L2458.98 70.267 Q2454.97 71.9684 2450.76 72.8596 Q2446.54 73.7508 2442.21 73.7508 Q2431.35 73.7508 2424.99 67.4314 Q2418.67 61.1119 2418.67 50.3365 Q2418.67 39.1965 2424.67 32.6746 Q2430.71 26.1121 2440.91 26.1121 Q2450.07 26.1121 2455.38 32.0264 Q2460.72 37.9003 2460.72 48.0275 M2453.27 45.84 Q2453.19 39.7232 2449.83 36.0774 Q2446.5 32.4315 2441 32.4315 Q2434.76 32.4315 2430.99 35.9558 Q2427.26 39.4801 2426.7 45.8805 L2453.27 45.84 Z" fill="#000000" fill-rule="nonzero" fill-opacity="1" /><path clip-path="url(#clip220)" d="M2525.78 51.4708 L2524 42.1132 Q2522.18 32.5126 2514.96 32.5126 Q2509.54 32.5126 2507.07 36.9686 Q2503.95 42.5588 2503.95 49.9314 Q2503.95 58.8434 2506.98 63.0969 Q2510.06 67.4314 2514.96 67.4314 Q2520.39 67.4314 2523.31 58.8029 L2525.78 51.4708 M2529.95 39.075 L2533.96 27.2059 L2540.61 27.2059 L2532.3 51.7949 L2533.92 60.6663 Q2534.29 62.6513 2535.71 64.3122 Q2537.37 66.2566 2538.66 66.2566 L2542.23 66.2566 L2542.23 72.576 L2537.77 72.576 Q2533.96 72.576 2530.56 69.1732 Q2528.9 67.4719 2528.21 63.9071 Q2526.35 68.4036 2522.54 71.9279 Q2520.76 73.5887 2514.96 73.5887 Q2505.44 73.5887 2500.83 67.4314 Q2496.09 61.0714 2496.09 49.9314 Q2496.09 38.0218 2501.23 32.4315 Q2506.94 26.1931 2514.96 26.1931 Q2527.56 26.1931 2529.95 39.075 Z" fill="#000000" fill-rule="nonzero" fill-opacity="1" /><path clip-path="url(#clip220)" d="M2580.1 27.2059 L2587.6 27.2059 L2587.6 45.7185 L2611.78 45.7185 L2611.78 27.2059 L2619.28 27.2059 L2619.28 72.576 L2611.78 72.576 L2611.78 51.6733 L2587.6 51.6733 L2587.6 72.576 L2580.1 72.576 L2580.1 27.2059 Z" fill="#000000" fill-rule="nonzero" fill-opacity="1" /><path clip-path="url(#clip220)" d="M2655.25 49.7694 Q2646.21 49.7694 2642.73 51.8354 Q2639.25 53.9013 2639.25 58.8839 Q2639.25 62.8538 2641.84 65.2034 Q2644.47 67.5124 2648.97 67.5124 Q2655.17 67.5124 2658.89 63.1374 Q2662.66 58.7219 2662.66 51.4303 L2662.66 49.7694 L2655.25 49.7694 M2670.11 46.6907 L2670.11 72.576 L2662.66 72.576 L2662.66 65.6895 Q2660.11 69.8214 2656.3 71.8063 Q2652.49 73.7508 2646.98 73.7508 Q2640.02 73.7508 2635.88 69.8619 Q2631.79 65.9325 2631.79 59.3701 Q2631.79 51.7138 2636.9 47.825 Q2642.04 43.9361 2652.21 43.9361 L2662.66 43.9361 L2662.66 43.2069 Q2662.66 38.0623 2659.26 35.2672 Q2655.9 32.4315 2649.78 32.4315 Q2645.89 32.4315 2642.2 33.3632 Q2638.52 34.295 2635.11 36.1584 L2635.11 29.2718 Q2639.21 27.692 2643.05 26.9223 Q2646.9 26.1121 2650.55 26.1121 Q2660.39 26.1121 2665.25 31.2163 Q2670.11 36.3204 2670.11 46.6907 Z" fill="#000000" fill-rule="nonzero" fill-opacity="1" /><path clip-path="url(#clip220)" d="M2719.05 65.7705 L2719.05 89.8329 L2711.55 89.8329 L2711.55 27.2059 L2719.05 27.2059 L2719.05 34.0924 Q2721.4 30.0415 2724.96 28.0971 Q2728.57 26.1121 2733.55 26.1121 Q2741.82 26.1121 2746.96 32.6746 Q2752.15 39.2371 2752.15 49.9314 Q2752.15 60.6258 2746.96 67.1883 Q2741.82 73.7508 2733.55 73.7508 Q2728.57 73.7508 2724.96 71.8063 Q2721.4 69.8214 2719.05 65.7705 M2744.41 49.9314 Q2744.41 41.7081 2741.01 37.0496 Q2737.64 32.3505 2731.73 32.3505 Q2725.81 32.3505 2722.41 37.0496 Q2719.05 41.7081 2719.05 49.9314 Q2719.05 58.1548 2722.41 62.8538 Q2725.81 67.5124 2731.73 67.5124 Q2737.64 67.5124 2741.01 62.8538 Q2744.41 58.1548 2744.41 49.9314 Z" fill="#000000" fill-rule="nonzero" fill-opacity="1" /><path clip-path="url(#clip220)" d="M2782.08 32.4315 Q2776.09 32.4315 2772.6 37.1306 Q2769.12 41.7891 2769.12 49.9314 Q2769.12 58.0738 2772.56 62.7728 Q2776.05 67.4314 2782.08 67.4314 Q2788.04 67.4314 2791.52 62.7323 Q2795 58.0333 2795 49.9314 Q2795 41.8701 2791.52 37.1711 Q2788.04 32.4315 2782.08 32.4315 M2782.08 26.1121 Q2791.8 26.1121 2797.35 32.4315 Q2802.9 38.7509 2802.9 49.9314 Q2802.9 61.0714 2797.35 67.4314 Q2791.8 73.7508 2782.08 73.7508 Q2772.32 73.7508 2766.77 67.4314 Q2761.26 61.0714 2761.26 49.9314 Q2761.26 38.7509 2766.77 32.4315 Q2772.32 26.1121 2782.08 26.1121 Z" fill="#000000" fill-rule="nonzero" fill-opacity="1" /><path clip-path="url(#clip220)" d="M2847.91 28.9478 L2847.91 35.9153 Q2844.75 34.1734 2841.55 33.3227 Q2838.39 32.4315 2835.15 32.4315 Q2827.9 32.4315 2823.89 37.0496 Q2819.88 41.6271 2819.88 49.9314 Q2819.88 58.2358 2823.89 62.8538 Q2827.9 67.4314 2835.15 67.4314 Q2838.39 67.4314 2841.55 66.5807 Q2844.75 65.6895 2847.91 63.9476 L2847.91 70.8341 Q2844.79 72.2924 2841.43 73.0216 Q2838.11 73.7508 2834.34 73.7508 Q2824.09 73.7508 2818.05 67.3098 Q2812.02 60.8689 2812.02 49.9314 Q2812.02 38.832 2818.09 32.472 Q2824.21 26.1121 2834.82 26.1121 Q2838.27 26.1121 2841.55 26.8413 Q2844.83 27.5299 2847.91 28.9478 Z" fill="#000000" fill-rule="nonzero" fill-opacity="1" /><path clip-path="url(#clip220)" d="M2855.48 27.2059 L2898.95 27.2059 L2898.95 33.1607 L2880.88 33.1607 L2880.88 72.576 L2873.55 72.576 L2873.55 33.1607 L2855.48 33.1607 L2855.48 27.2059 Z" fill="#000000" fill-rule="nonzero" fill-opacity="1" /><polyline clip-path="url(#clip222)" style="stroke:#009af9; stroke-linecap:round; stroke-linejoin:round; stroke-width:8; stroke-opacity:0.8; fill:none" points="453.357,1776.07 479.564,1776.07 505.772,1776.06 531.98,1776.06 558.188,1776.06 584.395,1776.06 610.603,1776.06 636.811,1776.06 663.019,1776.06 689.227,1776.06 715.434,1776.06 741.642,1776.06 767.85,1776.06 794.058,1776.06 820.265,1776.05 846.473,1776.05 872.681,1776.05 898.889,1776.05 925.096,1776.05 951.304,1776.05 977.512,1776.05 1003.72,1776.05 1029.93,1776.05 1056.14,1776.05 1082.34,1776.05 1108.55,1776.05 1134.76,1776.04 1160.97,1776.04 1187.17,1776.04 1213.38,1776.04 1239.59,1776.04 1265.8,1776.04 1292,1776.04 1318.21,1776.04 1344.42,1776.04 1370.63,1776.04 1396.84,1776.03 1423.04,1776.03 1449.25,1776.03 1475.46,1776.03 1501.67,1776.03 1527.87,1776.03 1554.08,1776.03 1580.29,1776.03 1606.5,1776.03 1632.71,1776.02 1658.91,1776.02 1685.12,1776.02 1711.33,1776.02 1737.54,1776.02 1763.74,1776.02 1789.95,1776.02 1816.16,1776.02 1842.37,1776.01 1868.58,1776.01 1894.78,1776.01 1920.99,1776.01 1947.2,1776.01 1973.41,1776.01 1999.61,1776.01 2025.82,1776.01 2052.03,1776 2078.24,1776 2104.45,1776 2130.65,1776 2156.86,1776 2183.07,1776 2209.28,1776 2235.48,1775.99 2261.69,1775.99 2287.9,1775.99 2314.11,1775.99 2340.32,1775.99 2366.52,1775.99 2392.73,1775.99 2418.94,1775.98 2445.15,1775.98 2471.35,1775.98 2497.56,1775.98 2523.77,1775.98 2549.98,1775.98 2576.19,1775.97 2602.39,1775.97 2628.6,1775.97 2654.81,1775.97 2681.02,1775.97 2707.22,1775.97 2733.43,1775.96 2759.64,1775.96 2785.85,1775.96 2812.06,1775.96 2838.26,1775.96 2864.47,1775.96 2890.68,1775.95 2916.89,1775.95 2943.09,1775.95 2969.3,1775.95 2995.51,1775.95 3021.72,1775.94 3047.92,1775.94 3074.13,1775.94 "/>
<polyline clip-path="url(#clip222)" style="stroke:#e26f46; stroke-linecap:round; stroke-linejoin:round; stroke-width:8; stroke-opacity:0.8; fill:none" points="453.357,1776.07 479.564,1776.06 505.772,1776.06 531.98,1776.06 558.188,1776.06 584.395,1776.05 610.603,1776.05 636.811,1776.05 663.019,1776.05 689.227,1776.04 715.434,1776.04 741.642,1776.04 767.85,1776.03 794.058,1776.03 820.265,1776.03 846.473,1776.02 872.681,1776.02 898.889,1776.02 925.096,1776.01 951.304,1776.01 977.512,1776.01 1003.72,1776 1029.93,1776 1056.14,1775.99 1082.34,1775.99 1108.55,1775.98 1134.76,1775.98 1160.97,1775.97 1187.17,1775.97 1213.38,1775.96 1239.59,1775.96 1265.8,1775.95 1292,1775.95 1318.21,1775.94 1344.42,1775.94 1370.63,1775.93 1396.84,1775.92 1423.04,1775.92 1449.25,1775.91 1475.46,1775.9 1501.67,1775.9 1527.87,1775.89 1554.08,1775.88 1580.29,1775.87 1606.5,1775.87 1632.71,1775.86 1658.91,1775.85 1685.12,1775.84 1711.33,1775.83 1737.54,1775.82 1763.74,1775.81 1789.95,1775.8 1816.16,1775.79 1842.37,1775.78 1868.58,1775.77 1894.78,1775.76 1920.99,1775.75 1947.2,1775.74 1973.41,1775.72 1999.61,1775.71 2025.82,1775.7 2052.03,1775.68 2078.24,1775.67 2104.45,1775.66 2130.65,1775.64 2156.86,1775.63 2183.07,1775.61 2209.28,1775.59 2235.48,1775.58 2261.69,1775.56 2287.9,1775.54 2314.11,1775.52 2340.32,1775.51 2366.52,1775.49 2392.73,1775.47 2418.94,1775.45 2445.15,1775.42 2471.35,1775.4 2497.56,1775.38 2523.77,1775.36 2549.98,1775.33 2576.19,1775.31 2602.39,1775.28 2628.6,1775.26 2654.81,1775.23 2681.02,1775.2 2707.22,1775.18 2733.43,1775.15 2759.64,1775.12 2785.85,1775.08 2812.06,1775.05 2838.26,1775.02 2864.47,1774.99 2890.68,1774.95 2916.89,1774.91 2943.09,1774.88 2969.3,1774.84 2995.51,1774.8 3021.72,1774.76 3047.92,1774.72 3074.13,1774.67 "/>
<polyline clip-path="url(#clip222)" style="stroke:#3da44d; stroke-linecap:round; stroke-linejoin:round; stroke-width:8; stroke-opacity:0.8; fill:none" points="453.357,1776.07 479.564,1776.06 505.772,1776.06 531.98,1776.05 558.188,1776.05 584.395,1776.05 610.603,1776.04 636.811,1776.04 663.019,1776.03 689.227,1776.02 715.434,1776.02 741.642,1776.01 767.85,1776.01 794.058,1776 820.265,1775.99 846.473,1775.98 872.681,1775.98 898.889,1775.97 925.096,1775.96 951.304,1775.95 977.512,1775.94 1003.72,1775.93 1029.93,1775.92 1056.14,1775.91 1082.34,1775.9 1108.55,1775.88 1134.76,1775.87 1160.97,1775.86 1187.17,1775.84 1213.38,1775.83 1239.59,1775.81 1265.8,1775.79 1292,1775.78 1318.21,1775.76 1344.42,1775.74 1370.63,1775.72 1396.84,1775.7 1423.04,1775.67 1449.25,1775.65 1475.46,1775.63 1501.67,1775.6 1527.87,1775.57 1554.08,1775.54 1580.29,1775.51 1606.5,1775.48 1632.71,1775.45 1658.91,1775.41 1685.12,1775.37 1711.33,1775.33 1737.54,1775.29 1763.74,1775.25 1789.95,1775.2 1816.16,1775.16 1842.37,1775.11 1868.58,1775.05 1894.78,1775 1920.99,1774.94 1947.2,1774.88 1973.41,1774.81 1999.61,1774.74 2025.82,1774.67 2052.03,1774.6 2078.24,1774.52 2104.45,1774.43 2130.65,1774.35 2156.86,1774.26 2183.07,1774.16 2209.28,1774.06 2235.48,1773.95 2261.69,1773.84 2287.9,1773.72 2314.11,1773.6 2340.32,1773.47 2366.52,1773.33 2392.73,1773.19 2418.94,1773.03 2445.15,1772.87 2471.35,1772.71 2497.56,1772.53 2523.77,1772.35 2549.98,1772.15 2576.19,1771.95 2602.39,1771.73 2628.6,1771.51 2654.81,1771.27 2681.02,1771.02 2707.22,1770.76 2733.43,1770.48 2759.64,1770.19 2785.85,1769.89 2812.06,1769.57 2838.26,1769.23 2864.47,1768.87 2890.68,1768.5 2916.89,1768.11 2943.09,1767.7 2969.3,1767.27 2995.51,1766.81 3021.72,1766.33 3047.92,1765.83 3074.13,1765.3 "/>
<polyline clip-path="url(#clip222)" style="stroke:#c271d2; stroke-linecap:round; stroke-linejoin:round; stroke-width:8; stroke-opacity:0.8; fill:none" points="453.357,1776.07 479.564,1776.06 505.772,1776.05 531.98,1776.05 558.188,1776.04 584.395,1776.03 610.603,1776.02 636.811,1776.01 663.019,1776 689.227,1775.99 715.434,1775.98 741.642,1775.96 767.85,1775.95 794.058,1775.93 820.265,1775.92 846.473,1775.9 872.681,1775.88 898.889,1775.85 925.096,1775.83 951.304,1775.81 977.512,1775.78 1003.72,1775.75 1029.93,1775.71 1056.14,1775.68 1082.34,1775.64 1108.55,1775.6 1134.76,1775.55 1160.97,1775.51 1187.17,1775.45 1213.38,1775.4 1239.59,1775.33 1265.8,1775.27 1292,1775.19 1318.21,1775.12 1344.42,1775.03 1370.63,1774.94 1396.84,1774.84 1423.04,1774.73 1449.25,1774.61 1475.46,1774.49 1501.67,1774.35 1527.87,1774.2 1554.08,1774.04 1580.29,1773.86 1606.5,1773.67 1632.71,1773.47 1658.91,1773.24 1685.12,1773 1711.33,1772.74 1737.54,1772.46 1763.74,1772.15 1789.95,1771.82 1816.16,1771.46 1842.37,1771.07 1868.58,1770.65 1894.78,1770.19 1920.99,1769.7 1947.2,1769.16 1973.41,1768.58 1999.61,1767.95 2025.82,1767.27 2052.03,1766.53 2078.24,1765.73 2104.45,1764.86 2130.65,1763.92 2156.86,1762.9 2183.07,1761.8 2209.28,1760.61 2235.48,1759.31 2261.69,1757.91 2287.9,1756.39 2314.11,1754.75 2340.32,1752.96 2366.52,1751.03 2392.73,1748.94 2418.94,1746.68 2445.15,1744.23 2471.35,1741.57 2497.56,1738.69 2523.77,1735.57 2549.98,1732.19 2576.19,1728.53 2602.39,1724.57 2628.6,1720.27 2654.81,1715.62 2681.02,1710.57 2707.22,1705.11 2733.43,1699.2 2759.64,1692.8 2785.85,1685.86 2812.06,1678.34 2838.26,1670.2 2864.47,1661.37 2890.68,1651.81 2916.89,1641.45 2943.09,1630.23 2969.3,1618.08 2995.51,1604.91 3021.72,1590.65 3047.92,1575.2 3074.13,1558.47 "/>
<polyline clip-path="url(#clip222)" style="stroke:#ac8d18; stroke-linecap:round; stroke-linejoin:round; stroke-width:8; stroke-opacity:0.8; fill:none" points="453.357,1776.07 479.564,1776.06 505.772,1776.05 531.98,1776.04 558.188,1776.03 584.395,1776.02 610.603,1776.01 636.811,1775.99 663.019,1775.98 689.227,1775.96 715.434,1775.94 741.642,1775.92 767.85,1775.9 794.058,1775.87 820.265,1775.84 846.473,1775.81 872.681,1775.78 898.889,1775.74 925.096,1775.7 951.304,1775.65 977.512,1775.6 1003.72,1775.54 1029.93,1775.48 1056.14,1775.41 1082.34,1775.33 1108.55,1775.25 1134.76,1775.16 1160.97,1775.05 1187.17,1774.94 1213.38,1774.81 1239.59,1774.67 1265.8,1774.52 1292,1774.35 1318.21,1774.16 1344.42,1773.95 1370.63,1773.72 1396.84,1773.47 1423.04,1773.19 1449.25,1772.87 1475.46,1772.53 1501.67,1772.15 1527.87,1771.73 1554.08,1771.27 1580.29,1770.76 1606.5,1770.19 1632.71,1769.57 1658.91,1768.87 1685.12,1768.11 1711.33,1767.27 1737.54,1766.33 1763.74,1765.3 1789.95,1764.16 1816.16,1762.9 1842.37,1761.51 1868.58,1759.97 1894.78,1758.27 1920.99,1756.39 1947.2,1754.31 1973.41,1752.02 1999.61,1749.48 2025.82,1746.68 2052.03,1743.58 2078.24,1740.16 2104.45,1736.37 2130.65,1732.19 2156.86,1727.57 2183.07,1722.46 2209.28,1716.81 2235.48,1710.57 2261.69,1703.68 2287.9,1696.06 2314.11,1687.64 2340.32,1678.34 2366.52,1668.06 2392.73,1656.69 2418.94,1644.12 2445.15,1630.23 2471.35,1614.88 2497.56,1597.92 2523.77,1579.18 2549.98,1558.48 2576.19,1535.6 2602.39,1510.31 2628.6,1482.36 2654.81,1451.46 2681.02,1417.29 2707.22,1379.54 2733.43,1337.82 2759.64,1291.72 2785.85,1240.79 2812.06,1184.52 2838.26,1122.34 2864.47,1053.61 2890.68,977.624 2916.89,893.618 2943.09,800.754 2969.3,698.131 2995.51,584.752 3021.72,459.454 3047.92,320.978 3074.13,167.936 "/>
<path clip-path="url(#clip220)" d="M467.334 487.553 L915.876 487.553 L915.876 176.513 L467.334 176.513  Z" fill="#ffffff" fill-rule="evenodd" fill-opacity="1"/>
<polyline clip-path="url(#clip220)" style="stroke:#000000; stroke-linecap:round; stroke-linejoin:round; stroke-width:4; stroke-opacity:1; fill:none" points="467.334,487.553 915.876,487.553 915.876,176.513 467.334,176.513 467.334,487.553 "/>
<polyline clip-path="url(#clip220)" style="stroke:#009af9; stroke-linecap:round; stroke-linejoin:round; stroke-width:8; stroke-opacity:0.8; fill:none" points="498.201,228.353 683.403,228.353 "/>
<path clip-path="url(#clip220)" d="M731.237 233.573 L730.218 228.225 Q729.177 222.739 725.056 222.739 Q721.955 222.739 720.543 225.286 Q718.76 228.48 718.76 232.693 Q718.76 237.786 720.496 240.216 Q722.256 242.693 725.056 242.693 Q728.158 242.693 729.825 237.762 L731.237 233.573 M733.621 226.489 L735.913 219.707 L739.709 219.707 L734.964 233.758 L735.89 238.827 Q736.098 239.961 736.908 240.911 Q737.857 242.022 738.598 242.022 L740.635 242.022 L740.635 245.633 L738.089 245.633 Q735.913 245.633 733.968 243.688 Q733.019 242.716 732.626 240.679 Q731.561 243.248 729.385 245.262 Q728.367 246.211 725.056 246.211 Q719.617 246.211 716.978 242.693 Q714.27 239.059 714.27 232.693 Q714.27 225.887 717.209 222.693 Q720.473 219.128 725.056 219.128 Q732.256 219.128 733.621 226.489 Z" fill="#000000" fill-rule="nonzero" fill-opacity="1" /><path clip-path="url(#clip220)" d="M762.996 224.105 L792.672 224.105 L792.672 227.994 L762.996 227.994 L762.996 224.105 M762.996 233.549 L792.672 233.549 L792.672 237.485 L762.996 237.485 L762.996 233.549 Z" fill="#000000" fill-rule="nonzero" fill-opacity="1" /><path clip-path="url(#clip220)" d="M827.834 214.151 Q824.223 214.151 822.394 217.716 Q820.588 221.258 820.588 228.387 Q820.588 235.494 822.394 239.059 Q824.223 242.6 827.834 242.6 Q831.468 242.6 833.273 239.059 Q835.102 235.494 835.102 228.387 Q835.102 221.258 833.273 217.716 Q831.468 214.151 827.834 214.151 M827.834 210.448 Q833.644 210.448 836.699 215.054 Q839.778 219.637 839.778 228.387 Q839.778 237.114 836.699 241.721 Q833.644 246.304 827.834 246.304 Q822.024 246.304 818.945 241.721 Q815.889 237.114 815.889 228.387 Q815.889 219.637 818.945 215.054 Q822.024 210.448 827.834 210.448 Z" fill="#000000" fill-rule="nonzero" fill-opacity="1" /><path clip-path="url(#clip220)" d="M847.996 239.753 L852.88 239.753 L852.88 245.633 L847.996 245.633 L847.996 239.753 Z" fill="#000000" fill-rule="nonzero" fill-opacity="1" /><path clip-path="url(#clip220)" d="M863.875 241.698 L871.514 241.698 L871.514 215.332 L863.204 216.999 L863.204 212.739 L871.468 211.073 L876.144 211.073 L876.144 241.698 L883.782 241.698 L883.782 245.633 L863.875 245.633 L863.875 241.698 Z" fill="#000000" fill-rule="nonzero" fill-opacity="1" /><polyline clip-path="url(#clip220)" style="stroke:#e26f46; stroke-linecap:round; stroke-linejoin:round; stroke-width:8; stroke-opacity:0.8; fill:none" points="498.201,280.193 683.403,280.193 "/>
<path clip-path="url(#clip220)" d="M731.237 285.413 L730.218 280.065 Q729.177 274.579 725.056 274.579 Q721.955 274.579 720.543 277.126 Q718.76 280.32 718.76 284.533 Q718.76 289.626 720.496 292.056 Q722.256 294.533 725.056 294.533 Q728.158 294.533 729.825 289.602 L731.237 285.413 M733.621 278.329 L735.913 271.547 L739.709 271.547 L734.964 285.598 L735.89 290.667 Q736.098 291.801 736.908 292.751 Q737.857 293.862 738.598 293.862 L740.635 293.862 L740.635 297.473 L738.089 297.473 Q735.913 297.473 733.968 295.528 Q733.019 294.556 732.626 292.519 Q731.561 295.088 729.385 297.102 Q728.367 298.051 725.056 298.051 Q719.617 298.051 716.978 294.533 Q714.27 290.899 714.27 284.533 Q714.27 277.727 717.209 274.533 Q720.473 270.968 725.056 270.968 Q732.256 270.968 733.621 278.329 Z" fill="#000000" fill-rule="nonzero" fill-opacity="1" /><path clip-path="url(#clip220)" d="M762.996 275.945 L792.672 275.945 L792.672 279.834 L762.996 279.834 L762.996 275.945 M762.996 285.389 L792.672 285.389 L792.672 289.325 L762.996 289.325 L762.996 285.389 Z" fill="#000000" fill-rule="nonzero" fill-opacity="1" /><path clip-path="url(#clip220)" d="M827.834 265.991 Q824.223 265.991 822.394 269.556 Q820.588 273.098 820.588 280.227 Q820.588 287.334 822.394 290.899 Q824.223 294.44 827.834 294.44 Q831.468 294.44 833.273 290.899 Q835.102 287.334 835.102 280.227 Q835.102 273.098 833.273 269.556 Q831.468 265.991 827.834 265.991 M827.834 262.288 Q833.644 262.288 836.699 266.894 Q839.778 271.477 839.778 280.227 Q839.778 288.954 836.699 293.561 Q833.644 298.144 827.834 298.144 Q822.024 298.144 818.945 293.561 Q815.889 288.954 815.889 280.227 Q815.889 271.477 818.945 266.894 Q822.024 262.288 827.834 262.288 Z" fill="#000000" fill-rule="nonzero" fill-opacity="1" /><path clip-path="url(#clip220)" d="M847.996 291.593 L852.88 291.593 L852.88 297.473 L847.996 297.473 L847.996 291.593 Z" fill="#000000" fill-rule="nonzero" fill-opacity="1" /><path clip-path="url(#clip220)" d="M877.232 278.839 Q880.588 279.556 882.463 281.825 Q884.361 284.093 884.361 287.426 Q884.361 292.542 880.843 295.343 Q877.324 298.144 870.843 298.144 Q868.667 298.144 866.352 297.704 Q864.06 297.288 861.607 296.431 L861.607 291.917 Q863.551 293.051 865.866 293.63 Q868.181 294.209 870.704 294.209 Q875.102 294.209 877.394 292.473 Q879.708 290.737 879.708 287.426 Q879.708 284.371 877.556 282.658 Q875.426 280.922 871.607 280.922 L867.579 280.922 L867.579 277.079 L871.792 277.079 Q875.241 277.079 877.07 275.714 Q878.898 274.325 878.898 271.732 Q878.898 269.07 877 267.658 Q875.125 266.223 871.607 266.223 Q869.685 266.223 867.486 266.64 Q865.287 267.056 862.648 267.936 L862.648 263.769 Q865.31 263.028 867.625 262.658 Q869.963 262.288 872.023 262.288 Q877.347 262.288 880.449 264.718 Q883.551 267.126 883.551 271.246 Q883.551 274.116 881.907 276.107 Q880.264 278.075 877.232 278.839 Z" fill="#000000" fill-rule="nonzero" fill-opacity="1" /><polyline clip-path="url(#clip220)" style="stroke:#3da44d; stroke-linecap:round; stroke-linejoin:round; stroke-width:8; stroke-opacity:0.8; fill:none" points="498.201,332.033 683.403,332.033 "/>
<path clip-path="url(#clip220)" d="M731.237 337.253 L730.218 331.905 Q729.177 326.419 725.056 326.419 Q721.955 326.419 720.543 328.966 Q718.76 332.16 718.76 336.373 Q718.76 341.466 720.496 343.896 Q722.256 346.373 725.056 346.373 Q728.158 346.373 729.825 341.442 L731.237 337.253 M733.621 330.169 L735.913 323.387 L739.709 323.387 L734.964 337.438 L735.89 342.507 Q736.098 343.641 736.908 344.591 Q737.857 345.702 738.598 345.702 L740.635 345.702 L740.635 349.313 L738.089 349.313 Q735.913 349.313 733.968 347.368 Q733.019 346.396 732.626 344.359 Q731.561 346.928 729.385 348.942 Q728.367 349.891 725.056 349.891 Q719.617 349.891 716.978 346.373 Q714.27 342.739 714.27 336.373 Q714.27 329.567 717.209 326.373 Q720.473 322.808 725.056 322.808 Q732.256 322.808 733.621 330.169 Z" fill="#000000" fill-rule="nonzero" fill-opacity="1" /><path clip-path="url(#clip220)" d="M762.996 327.785 L792.672 327.785 L792.672 331.674 L762.996 331.674 L762.996 327.785 M762.996 337.229 L792.672 337.229 L792.672 341.165 L762.996 341.165 L762.996 337.229 Z" fill="#000000" fill-rule="nonzero" fill-opacity="1" /><path clip-path="url(#clip220)" d="M827.834 317.831 Q824.223 317.831 822.394 321.396 Q820.588 324.938 820.588 332.067 Q820.588 339.174 822.394 342.739 Q824.223 346.28 827.834 346.28 Q831.468 346.28 833.273 342.739 Q835.102 339.174 835.102 332.067 Q835.102 324.938 833.273 321.396 Q831.468 317.831 827.834 317.831 M827.834 314.128 Q833.644 314.128 836.699 318.734 Q839.778 323.317 839.778 332.067 Q839.778 340.794 836.699 345.401 Q833.644 349.984 827.834 349.984 Q822.024 349.984 818.945 345.401 Q815.889 340.794 815.889 332.067 Q815.889 323.317 818.945 318.734 Q822.024 314.128 827.834 314.128 Z" fill="#000000" fill-rule="nonzero" fill-opacity="1" /><path clip-path="url(#clip220)" d="M847.996 343.433 L852.88 343.433 L852.88 349.313 L847.996 349.313 L847.996 343.433 Z" fill="#000000" fill-rule="nonzero" fill-opacity="1" /><path clip-path="url(#clip220)" d="M863.111 314.753 L881.468 314.753 L881.468 318.688 L867.394 318.688 L867.394 327.16 Q868.412 326.813 869.431 326.651 Q870.449 326.466 871.468 326.466 Q877.255 326.466 880.634 329.637 Q884.014 332.808 884.014 338.225 Q884.014 343.803 880.542 346.905 Q877.07 349.984 870.75 349.984 Q868.574 349.984 866.306 349.614 Q864.06 349.243 861.653 348.503 L861.653 343.803 Q863.736 344.938 865.959 345.493 Q868.181 346.049 870.658 346.049 Q874.662 346.049 877 343.942 Q879.338 341.836 879.338 338.225 Q879.338 334.614 877 332.507 Q874.662 330.401 870.658 330.401 Q868.783 330.401 866.908 330.817 Q865.056 331.234 863.111 332.114 L863.111 314.753 Z" fill="#000000" fill-rule="nonzero" fill-opacity="1" /><polyline clip-path="url(#clip220)" style="stroke:#c271d2; stroke-linecap:round; stroke-linejoin:round; stroke-width:8; stroke-opacity:0.8; fill:none" points="498.201,383.873 683.403,383.873 "/>
<path clip-path="url(#clip220)" d="M731.237 389.093 L730.218 383.745 Q729.177 378.259 725.056 378.259 Q721.955 378.259 720.543 380.806 Q718.76 384 718.76 388.213 Q718.76 393.306 720.496 395.736 Q722.256 398.213 725.056 398.213 Q728.158 398.213 729.825 393.282 L731.237 389.093 M733.621 382.009 L735.913 375.227 L739.709 375.227 L734.964 389.278 L735.89 394.347 Q736.098 395.481 736.908 396.431 Q737.857 397.542 738.598 397.542 L740.635 397.542 L740.635 401.153 L738.089 401.153 Q735.913 401.153 733.968 399.208 Q733.019 398.236 732.626 396.199 Q731.561 398.768 729.385 400.782 Q728.367 401.731 725.056 401.731 Q719.617 401.731 716.978 398.213 Q714.27 394.579 714.27 388.213 Q714.27 381.407 717.209 378.213 Q720.473 374.648 725.056 374.648 Q732.256 374.648 733.621 382.009 Z" fill="#000000" fill-rule="nonzero" fill-opacity="1" /><path clip-path="url(#clip220)" d="M762.996 379.625 L792.672 379.625 L792.672 383.514 L762.996 383.514 L762.996 379.625 M762.996 389.069 L792.672 389.069 L792.672 393.005 L762.996 393.005 L762.996 389.069 Z" fill="#000000" fill-rule="nonzero" fill-opacity="1" /><path clip-path="url(#clip220)" d="M827.834 369.671 Q824.223 369.671 822.394 373.236 Q820.588 376.778 820.588 383.907 Q820.588 391.014 822.394 394.579 Q824.223 398.12 827.834 398.12 Q831.468 398.12 833.273 394.579 Q835.102 391.014 835.102 383.907 Q835.102 376.778 833.273 373.236 Q831.468 369.671 827.834 369.671 M827.834 365.968 Q833.644 365.968 836.699 370.574 Q839.778 375.157 839.778 383.907 Q839.778 392.634 836.699 397.241 Q833.644 401.824 827.834 401.824 Q822.024 401.824 818.945 397.241 Q815.889 392.634 815.889 383.907 Q815.889 375.157 818.945 370.574 Q822.024 365.968 827.834 365.968 Z" fill="#000000" fill-rule="nonzero" fill-opacity="1" /><path clip-path="url(#clip220)" d="M847.996 395.273 L852.88 395.273 L852.88 401.153 L847.996 401.153 L847.996 395.273 Z" fill="#000000" fill-rule="nonzero" fill-opacity="1" /><path clip-path="url(#clip220)" d="M873.065 384.741 Q869.732 384.741 867.81 386.523 Q865.912 388.306 865.912 391.431 Q865.912 394.556 867.81 396.338 Q869.732 398.12 873.065 398.12 Q876.398 398.12 878.32 396.338 Q880.241 394.532 880.241 391.431 Q880.241 388.306 878.32 386.523 Q876.421 384.741 873.065 384.741 M868.389 382.75 Q865.38 382.009 863.69 379.949 Q862.023 377.889 862.023 374.926 Q862.023 370.783 864.963 368.375 Q867.926 365.968 873.065 365.968 Q878.227 365.968 881.167 368.375 Q884.107 370.783 884.107 374.926 Q884.107 377.889 882.417 379.949 Q880.75 382.009 877.764 382.75 Q881.144 383.537 883.019 385.829 Q884.917 388.12 884.917 391.431 Q884.917 396.454 881.838 399.139 Q878.783 401.824 873.065 401.824 Q867.347 401.824 864.269 399.139 Q861.213 396.454 861.213 391.431 Q861.213 388.12 863.111 385.829 Q865.009 383.537 868.389 382.75 M866.676 375.366 Q866.676 378.051 868.343 379.556 Q870.033 381.06 873.065 381.06 Q876.074 381.06 877.764 379.556 Q879.477 378.051 879.477 375.366 Q879.477 372.681 877.764 371.176 Q876.074 369.671 873.065 369.671 Q870.033 369.671 868.343 371.176 Q866.676 372.681 866.676 375.366 Z" fill="#000000" fill-rule="nonzero" fill-opacity="1" /><polyline clip-path="url(#clip220)" style="stroke:#ac8d18; stroke-linecap:round; stroke-linejoin:round; stroke-width:8; stroke-opacity:0.8; fill:none" points="498.201,435.713 683.403,435.713 "/>
<path clip-path="url(#clip220)" d="M731.237 440.933 L730.218 435.585 Q729.177 430.099 725.056 430.099 Q721.955 430.099 720.543 432.646 Q718.76 435.84 718.76 440.053 Q718.76 445.146 720.496 447.576 Q722.256 450.053 725.056 450.053 Q728.158 450.053 729.825 445.122 L731.237 440.933 M733.621 433.849 L735.913 427.067 L739.709 427.067 L734.964 441.118 L735.89 446.187 Q736.098 447.321 736.908 448.271 Q737.857 449.382 738.598 449.382 L740.635 449.382 L740.635 452.993 L738.089 452.993 Q735.913 452.993 733.968 451.048 Q733.019 450.076 732.626 448.039 Q731.561 450.608 729.385 452.622 Q728.367 453.571 725.056 453.571 Q719.617 453.571 716.978 450.053 Q714.27 446.419 714.27 440.053 Q714.27 433.247 717.209 430.053 Q720.473 426.488 725.056 426.488 Q732.256 426.488 733.621 433.849 Z" fill="#000000" fill-rule="nonzero" fill-opacity="1" /><path clip-path="url(#clip220)" d="M762.996 431.465 L792.672 431.465 L792.672 435.354 L762.996 435.354 L762.996 431.465 M762.996 440.909 L792.672 440.909 L792.672 444.845 L762.996 444.845 L762.996 440.909 Z" fill="#000000" fill-rule="nonzero" fill-opacity="1" /><path clip-path="url(#clip220)" d="M818.644 449.058 L826.283 449.058 L826.283 422.692 L817.973 424.359 L817.973 420.099 L826.236 418.433 L830.912 418.433 L830.912 449.058 L838.551 449.058 L838.551 452.993 L818.644 452.993 L818.644 449.058 Z" fill="#000000" fill-rule="nonzero" fill-opacity="1" /><path clip-path="url(#clip220)" d="M847.996 447.113 L852.88 447.113 L852.88 452.993 L847.996 452.993 L847.996 447.113 Z" fill="#000000" fill-rule="nonzero" fill-opacity="1" /><path clip-path="url(#clip220)" d="M873.065 421.511 Q869.454 421.511 867.625 425.076 Q865.82 428.618 865.82 435.747 Q865.82 442.854 867.625 446.419 Q869.454 449.96 873.065 449.96 Q876.699 449.96 878.505 446.419 Q880.333 442.854 880.333 435.747 Q880.333 428.618 878.505 425.076 Q876.699 421.511 873.065 421.511 M873.065 417.808 Q878.875 417.808 881.931 422.414 Q885.009 426.997 885.009 435.747 Q885.009 444.474 881.931 449.081 Q878.875 453.664 873.065 453.664 Q867.255 453.664 864.176 449.081 Q861.121 444.474 861.121 435.747 Q861.121 426.997 864.176 422.414 Q867.255 417.808 873.065 417.808 Z" fill="#000000" fill-rule="nonzero" fill-opacity="1" /></svg>
