<?xml version="1.0" encoding="utf-8"?>
<svg xmlns="http://www.w3.org/2000/svg" xmlns:xlink="http://www.w3.org/1999/xlink" width="480" height="384" viewBox="0 0 1920 1536">
<defs>
  <clipPath id="clip420">
    <rect x="0" y="0" width="1920" height="1536"/>
  </clipPath>
</defs>
<path clip-path="url(#clip420)" d="M0 1536 L1920 1536 L1920 0 L0 0  Z" fill="#ffffff" fill-rule="evenodd" fill-opacity="1"/>
<defs>
  <clipPath id="clip421">
    <rect x="180" y="135" width="1694" height="1209"/>
  </clipPath>
</defs>
<path clip-path="url(#clip420)" d="M180.149 1343.4 L1872.76 1343.4 L1872.76 135.568 L180.149 135.568  Z" fill="#ffffff" fill-rule="evenodd" fill-opacity="1"/>
<polyline clip-path="url(#clip421)" style="stroke:#000000; stroke-linecap:round; stroke-linejoin:round; stroke-width:2; stroke-opacity:0.1; fill:none" points="405.475,1343.4 405.475,135.568 "/>
<polyline clip-path="url(#clip421)" style="stroke:#000000; stroke-linecap:round; stroke-linejoin:round; stroke-width:2; stroke-opacity:0.1; fill:none" points="760.319,1343.4 760.319,135.568 "/>
<polyline clip-path="url(#clip421)" style="stroke:#000000; stroke-linecap:round; stroke-linejoin:round; stroke-width:2; stroke-opacity:0.1; fill:none" points="1115.16,1343.4 1115.16,135.568 "/>
<polyline clip-path="url(#clip421)" style="stroke:#000000; stroke-linecap:round; stroke-linejoin:round; stroke-width:2; stroke-opacity:0.1; fill:none" points="1470.01,1343.4 1470.01,135.568 "/>
<polyline clip-path="url(#clip421)" style="stroke:#000000; stroke-linecap:round; stroke-linejoin:round; stroke-width:2; stroke-opacity:0.1; fill:none" points="1824.85,1343.4 1824.85,135.568 "/>
<polyline clip-path="url(#clip421)" style="stroke:#000000; stroke-linecap:round; stroke-linejoin:round; stroke-width:2; stroke-opacity:0.1; fill:none" points="180.149,1253.17 1872.76,1253.17 "/>
<polyline clip-path="url(#clip421)" style="stroke:#000000; stroke-linecap:round; stroke-linejoin:round; stroke-width:2; stroke-opacity:0.1; fill:none" points="180.149,1070.52 1872.76,1070.52 "/>
<polyline clip-path="url(#clip421)" style="stroke:#000000; stroke-linecap:round; stroke-linejoin:round; stroke-width:2; stroke-opacity:0.1; fill:none" points="180.149,887.859 1872.76,887.859 "/>
<polyline clip-path="url(#clip421)" style="stroke:#000000; stroke-linecap:round; stroke-linejoin:round; stroke-width:2; stroke-opacity:0.1; fill:none" points="180.149,705.203 1872.76,705.203 "/>
<polyline clip-path="url(#clip421)" style="stroke:#000000; stroke-linecap:round; stroke-linejoin:round; stroke-width:2; stroke-opacity:0.1; fill:none" points="180.149,522.547 1872.76,522.547 "/>
<polyline clip-path="url(#clip421)" style="stroke:#000000; stroke-linecap:round; stroke-linejoin:round; stroke-width:2; stroke-opacity:0.1; fill:none" points="180.149,339.891 1872.76,339.891 "/>
<polyline clip-path="url(#clip421)" style="stroke:#000000; stroke-linecap:round; stroke-linejoin:round; stroke-width:2; stroke-opacity:0.1; fill:none" points="180.149,157.235 1872.76,157.235 "/>
<polyline clip-path="url(#clip420)" style="stroke:#000000; stroke-linecap:round; stroke-linejoin:round; stroke-width:4; stroke-opacity:1; fill:none" points="180.149,1343.4 1872.76,1343.4 "/>
<polyline clip-path="url(#clip420)" style="stroke:#000000; stroke-linecap:round; stroke-linejoin:round; stroke-width:4; stroke-opacity:1; fill:none" points="405.475,1343.4 405.475,1324.51 "/>
<polyline clip-path="url(#clip420)" style="stroke:#000000; stroke-linecap:round; stroke-linejoin:round; stroke-width:4; stroke-opacity:1; fill:none" points="760.319,1343.4 760.319,1324.51 "/>
<polyline clip-path="url(#clip420)" style="stroke:#000000; stroke-linecap:round; stroke-linejoin:round; stroke-width:4; stroke-opacity:1; fill:none" points="1115.16,1343.4 1115.16,1324.51 "/>
<polyline clip-path="url(#clip420)" style="stroke:#000000; stroke-linecap:round; stroke-linejoin:round; stroke-width:4; stroke-opacity:1; fill:none" points="1470.01,1343.4 1470.01,1324.51 "/>
<polyline clip-path="url(#clip420)" style="stroke:#000000; stroke-linecap:round; stroke-linejoin:round; stroke-width:4; stroke-opacity:1; fill:none" points="1824.85,1343.4 1824.85,1324.51 "/>
<path clip-path="url(#clip420)" d="M383.658 1370.48 Q380.047 1370.48 378.218 1374.05 Q376.413 1377.59 376.413 1384.72 Q376.413 1391.83 378.218 1395.39 Q380.047 1398.93 383.658 1398.93 Q387.292 1398.93 389.098 1395.39 Q390.927 1391.83 390.927 1384.72 Q390.927 1377.59 389.098 1374.05 Q387.292 1370.48 383.658 1370.48 M383.658 1366.78 Q389.468 1366.78 392.524 1371.39 Q395.603 1375.97 395.603 1384.72 Q395.603 1393.45 392.524 1398.05 Q389.468 1402.64 383.658 1402.64 Q377.848 1402.64 374.769 1398.05 Q371.714 1393.45 371.714 1384.72 Q371.714 1375.97 374.769 1371.39 Q377.848 1366.78 383.658 1366.78 Z" fill="#000000" fill-rule="nonzero" fill-opacity="1" /><path clip-path="url(#clip420)" d="M403.82 1396.08 L408.704 1396.08 L408.704 1401.96 L403.82 1401.96 L403.82 1396.08 Z" fill="#000000" fill-rule="nonzero" fill-opacity="1" /><path clip-path="url(#clip420)" d="M422.917 1398.03 L439.237 1398.03 L439.237 1401.96 L417.292 1401.96 L417.292 1398.03 Q419.954 1395.27 424.538 1390.64 Q429.144 1385.99 430.325 1384.65 Q432.57 1382.13 433.45 1380.39 Q434.352 1378.63 434.352 1376.94 Q434.352 1374.19 432.408 1372.45 Q430.487 1370.71 427.385 1370.71 Q425.186 1370.71 422.732 1371.48 Q420.302 1372.24 417.524 1373.79 L417.524 1369.07 Q420.348 1367.94 422.802 1367.36 Q425.255 1366.78 427.292 1366.78 Q432.663 1366.78 435.857 1369.46 Q439.051 1372.15 439.051 1376.64 Q439.051 1378.77 438.241 1380.69 Q437.454 1382.59 435.348 1385.18 Q434.769 1385.85 431.667 1389.07 Q428.565 1392.26 422.917 1398.03 Z" fill="#000000" fill-rule="nonzero" fill-opacity="1" /><path clip-path="url(#clip420)" d="M737.461 1370.48 Q733.85 1370.48 732.021 1374.05 Q730.215 1377.59 730.215 1384.72 Q730.215 1391.83 732.021 1395.39 Q733.85 1398.93 737.461 1398.93 Q741.095 1398.93 742.901 1395.39 Q744.729 1391.83 744.729 1384.72 Q744.729 1377.59 742.901 1374.05 Q741.095 1370.48 737.461 1370.48 M737.461 1366.78 Q743.271 1366.78 746.326 1371.39 Q749.405 1375.97 749.405 1384.72 Q749.405 1393.45 746.326 1398.05 Q743.271 1402.64 737.461 1402.64 Q731.651 1402.64 728.572 1398.05 Q725.516 1393.45 725.516 1384.72 Q725.516 1375.97 728.572 1371.39 Q731.651 1366.78 737.461 1366.78 Z" fill="#000000" fill-rule="nonzero" fill-opacity="1" /><path clip-path="url(#clip420)" d="M757.623 1396.08 L762.507 1396.08 L762.507 1401.96 L757.623 1401.96 L757.623 1396.08 Z" fill="#000000" fill-rule="nonzero" fill-opacity="1" /><path clip-path="url(#clip420)" d="M785.539 1371.48 L773.734 1389.93 L785.539 1389.93 L785.539 1371.48 M784.312 1367.4 L790.192 1367.4 L790.192 1389.93 L795.122 1389.93 L795.122 1393.82 L790.192 1393.82 L790.192 1401.96 L785.539 1401.96 L785.539 1393.82 L769.937 1393.82 L769.937 1389.3 L784.312 1367.4 Z" fill="#000000" fill-rule="nonzero" fill-opacity="1" /><path clip-path="url(#clip420)" d="M1092.47 1370.48 Q1088.86 1370.48 1087.03 1374.05 Q1085.22 1377.59 1085.22 1384.72 Q1085.22 1391.83 1087.03 1395.39 Q1088.86 1398.93 1092.47 1398.93 Q1096.1 1398.93 1097.91 1395.39 Q1099.74 1391.83 1099.74 1384.72 Q1099.74 1377.59 1097.91 1374.05 Q1096.1 1370.48 1092.47 1370.48 M1092.47 1366.78 Q1098.28 1366.78 1101.33 1371.39 Q1104.41 1375.97 1104.41 1384.72 Q1104.41 1393.45 1101.33 1398.05 Q1098.28 1402.64 1092.47 1402.64 Q1086.66 1402.64 1083.58 1398.05 Q1080.52 1393.45 1080.52 1384.72 Q1080.52 1375.97 1083.58 1371.39 Q1086.66 1366.78 1092.47 1366.78 Z" fill="#000000" fill-rule="nonzero" fill-opacity="1" /><path clip-path="url(#clip420)" d="M1112.63 1396.08 L1117.51 1396.08 L1117.51 1401.96 L1112.63 1401.96 L1112.63 1396.08 Z" fill="#000000" fill-rule="nonzero" fill-opacity="1" /><path clip-path="url(#clip420)" d="M1138.28 1382.82 Q1135.13 1382.82 1133.28 1384.97 Q1131.45 1387.13 1131.45 1390.88 Q1131.45 1394.6 1133.28 1396.78 Q1135.13 1398.93 1138.28 1398.93 Q1141.43 1398.93 1143.25 1396.78 Q1145.11 1394.6 1145.11 1390.88 Q1145.11 1387.13 1143.25 1384.97 Q1141.43 1382.82 1138.28 1382.82 M1147.56 1368.17 L1147.56 1372.43 Q1145.8 1371.59 1143.99 1371.15 Q1142.21 1370.71 1140.45 1370.71 Q1135.82 1370.71 1133.37 1373.84 Q1130.94 1376.96 1130.59 1383.28 Q1131.96 1381.27 1134.02 1380.2 Q1136.08 1379.12 1138.55 1379.12 Q1143.76 1379.12 1146.77 1382.29 Q1149.8 1385.44 1149.8 1390.88 Q1149.8 1396.2 1146.66 1399.42 Q1143.51 1402.64 1138.28 1402.64 Q1132.28 1402.64 1129.11 1398.05 Q1125.94 1393.45 1125.94 1384.72 Q1125.94 1376.52 1129.83 1371.66 Q1133.72 1366.78 1140.27 1366.78 Q1142.03 1366.78 1143.81 1367.13 Q1145.61 1367.47 1147.56 1368.17 Z" fill="#000000" fill-rule="nonzero" fill-opacity="1" /><path clip-path="url(#clip420)" d="M1447.44 1370.48 Q1443.83 1370.48 1442 1374.05 Q1440.19 1377.59 1440.19 1384.72 Q1440.19 1391.83 1442 1395.39 Q1443.83 1398.93 1447.44 1398.93 Q1451.07 1398.93 1452.88 1395.39 Q1454.71 1391.83 1454.71 1384.72 Q1454.71 1377.59 1452.88 1374.05 Q1451.07 1370.48 1447.44 1370.48 M1447.44 1366.78 Q1453.25 1366.78 1456.3 1371.39 Q1459.38 1375.97 1459.38 1384.72 Q1459.38 1393.45 1456.3 1398.05 Q1453.25 1402.64 1447.44 1402.64 Q1441.63 1402.64 1438.55 1398.05 Q1435.49 1393.45 1435.49 1384.72 Q1435.49 1375.97 1438.55 1371.39 Q1441.63 1366.78 1447.44 1366.78 Z" fill="#000000" fill-rule="nonzero" fill-opacity="1" /><path clip-path="url(#clip420)" d="M1467.6 1396.08 L1472.48 1396.08 L1472.48 1401.96 L1467.6 1401.96 L1467.6 1396.08 Z" fill="#000000" fill-rule="nonzero" fill-opacity="1" /><path clip-path="url(#clip420)" d="M1492.67 1385.55 Q1489.34 1385.55 1487.42 1387.33 Q1485.52 1389.12 1485.52 1392.24 Q1485.52 1395.37 1487.42 1397.15 Q1489.34 1398.93 1492.67 1398.93 Q1496 1398.93 1497.92 1397.15 Q1499.85 1395.34 1499.85 1392.24 Q1499.85 1389.12 1497.92 1387.33 Q1496.03 1385.55 1492.67 1385.55 M1487.99 1383.56 Q1484.98 1382.82 1483.29 1380.76 Q1481.63 1378.7 1481.63 1375.74 Q1481.63 1371.59 1484.57 1369.19 Q1487.53 1366.78 1492.67 1366.78 Q1497.83 1366.78 1500.77 1369.19 Q1503.71 1371.59 1503.71 1375.74 Q1503.71 1378.7 1502.02 1380.76 Q1500.35 1382.82 1497.37 1383.56 Q1500.75 1384.35 1502.62 1386.64 Q1504.52 1388.93 1504.52 1392.24 Q1504.52 1397.26 1501.44 1399.95 Q1498.39 1402.64 1492.67 1402.64 Q1486.95 1402.64 1483.87 1399.95 Q1480.82 1397.26 1480.82 1392.24 Q1480.82 1388.93 1482.72 1386.64 Q1484.61 1384.35 1487.99 1383.56 M1486.28 1376.18 Q1486.28 1378.86 1487.95 1380.37 Q1489.64 1381.87 1492.67 1381.87 Q1495.68 1381.87 1497.37 1380.37 Q1499.08 1378.86 1499.08 1376.18 Q1499.08 1373.49 1497.37 1371.99 Q1495.68 1370.48 1492.67 1370.48 Q1489.64 1370.48 1487.95 1371.99 Q1486.28 1373.49 1486.28 1376.18 Z" fill="#000000" fill-rule="nonzero" fill-opacity="1" /><path clip-path="url(#clip420)" d="M1792 1398.03 L1799.64 1398.03 L1799.64 1371.66 L1791.33 1373.33 L1791.33 1369.07 L1799.6 1367.4 L1804.27 1367.4 L1804.27 1398.03 L1811.91 1398.03 L1811.91 1401.96 L1792 1401.96 L1792 1398.03 Z" fill="#000000" fill-rule="nonzero" fill-opacity="1" /><path clip-path="url(#clip420)" d="M1821.36 1396.08 L1826.24 1396.08 L1826.24 1401.96 L1821.36 1401.96 L1821.36 1396.08 Z" fill="#000000" fill-rule="nonzero" fill-opacity="1" /><path clip-path="url(#clip420)" d="M1846.43 1370.48 Q1842.81 1370.48 1840.99 1374.05 Q1839.18 1377.59 1839.18 1384.72 Q1839.18 1391.83 1840.99 1395.39 Q1842.81 1398.93 1846.43 1398.93 Q1850.06 1398.93 1851.87 1395.39 Q1853.69 1391.83 1853.69 1384.72 Q1853.69 1377.59 1851.87 1374.05 Q1850.06 1370.48 1846.43 1370.48 M1846.43 1366.78 Q1852.24 1366.78 1855.29 1371.39 Q1858.37 1375.97 1858.37 1384.72 Q1858.37 1393.45 1855.29 1398.05 Q1852.24 1402.64 1846.43 1402.64 Q1840.62 1402.64 1837.54 1398.05 Q1834.48 1393.45 1834.48 1384.72 Q1834.48 1375.97 1837.54 1371.39 Q1840.62 1366.78 1846.43 1366.78 Z" fill="#000000" fill-rule="nonzero" fill-opacity="1" /><path clip-path="url(#clip420)" d="M758.966 1437.21 L758.966 1443.99 Q755.719 1440.96 752.027 1439.47 Q748.367 1437.97 744.229 1437.97 Q736.081 1437.97 731.752 1442.97 Q727.423 1447.93 727.423 1457.36 Q727.423 1466.75 731.752 1471.74 Q736.081 1476.71 744.229 1476.71 Q748.367 1476.71 752.027 1475.21 Q755.719 1473.72 758.966 1470.69 L758.966 1477.41 Q755.592 1479.7 751.804 1480.85 Q748.048 1481.99 743.847 1481.99 Q733.057 1481.99 726.851 1475.4 Q720.644 1468.78 720.644 1457.36 Q720.644 1445.9 726.851 1439.31 Q733.057 1432.69 743.847 1432.69 Q748.112 1432.69 751.868 1433.83 Q755.655 1434.95 758.966 1437.21 Z" fill="#000000" fill-rule="nonzero" fill-opacity="1" /><path clip-path="url(#clip420)" d="M768.419 1445.42 L774.243 1445.42 L774.243 1462.16 L790.762 1445.42 L797.956 1445.42 L784.333 1459.2 L799.706 1481.07 L793.149 1481.07 L780.513 1463.08 L774.243 1469.45 L774.243 1481.07 L768.419 1481.07 L768.419 1445.42 Z" fill="#000000" fill-rule="nonzero" fill-opacity="1" /><path clip-path="url(#clip420)" d="M821.827 1449.53 Q817.116 1449.53 814.379 1453.22 Q811.642 1456.88 811.642 1463.28 Q811.642 1469.67 814.347 1473.37 Q817.084 1477.03 821.827 1477.03 Q826.506 1477.03 829.243 1473.33 Q831.98 1469.64 831.98 1463.28 Q831.98 1456.94 829.243 1453.25 Q826.506 1449.53 821.827 1449.53 M821.827 1444.56 Q829.466 1444.56 833.826 1449.53 Q838.187 1454.49 838.187 1463.28 Q838.187 1472.03 833.826 1477.03 Q829.466 1481.99 821.827 1481.99 Q814.156 1481.99 809.796 1477.03 Q805.467 1472.03 805.467 1463.28 Q805.467 1454.49 809.796 1449.53 Q814.156 1444.56 821.827 1444.56 Z" fill="#000000" fill-rule="nonzero" fill-opacity="1" /><path clip-path="url(#clip420)" d="M853.56 1475.72 L853.56 1494.63 L847.672 1494.63 L847.672 1445.42 L853.56 1445.42 L853.56 1450.83 Q855.406 1447.65 858.207 1446.12 Q861.04 1444.56 864.955 1444.56 Q871.448 1444.56 875.49 1449.72 Q879.564 1454.87 879.564 1463.28 Q879.564 1471.68 875.49 1476.83 Q871.448 1481.99 864.955 1481.99 Q861.04 1481.99 858.207 1480.46 Q855.406 1478.9 853.56 1475.72 M873.485 1463.28 Q873.485 1456.81 870.811 1453.15 Q868.169 1449.46 863.522 1449.46 Q858.875 1449.46 856.202 1453.15 Q853.56 1456.81 853.56 1463.28 Q853.56 1469.74 856.202 1473.43 Q858.875 1477.09 863.522 1477.09 Q868.169 1477.09 870.811 1473.43 Q873.485 1469.74 873.485 1463.28 Z" fill="#000000" fill-rule="nonzero" fill-opacity="1" /><path clip-path="url(#clip420)" d="M903.085 1449.53 Q898.375 1449.53 895.637 1453.22 Q892.9 1456.88 892.9 1463.28 Q892.9 1469.67 895.605 1473.37 Q898.343 1477.03 903.085 1477.03 Q907.764 1477.03 910.501 1473.33 Q913.238 1469.64 913.238 1463.28 Q913.238 1456.94 910.501 1453.25 Q907.764 1449.53 903.085 1449.53 M903.085 1444.56 Q910.724 1444.56 915.085 1449.53 Q919.445 1454.49 919.445 1463.28 Q919.445 1472.03 915.085 1477.03 Q910.724 1481.99 903.085 1481.99 Q895.414 1481.99 891.054 1477.03 Q886.725 1472.03 886.725 1463.28 Q886.725 1454.49 891.054 1449.53 Q895.414 1444.56 903.085 1444.56 Z" fill="#000000" fill-rule="nonzero" fill-opacity="1" /><path clip-path="url(#clip420)" d="M954.807 1446.79 L954.807 1452.26 Q952.324 1450.89 949.809 1450.23 Q947.327 1449.53 944.781 1449.53 Q939.083 1449.53 935.932 1453.15 Q932.781 1456.75 932.781 1463.28 Q932.781 1469.8 935.932 1473.43 Q939.083 1477.03 944.781 1477.03 Q947.327 1477.03 949.809 1476.36 Q952.324 1475.66 954.807 1474.29 L954.807 1479.7 Q952.356 1480.85 949.714 1481.42 Q947.104 1481.99 944.144 1481.99 Q936.091 1481.99 931.349 1476.93 Q926.606 1471.87 926.606 1463.28 Q926.606 1454.55 931.381 1449.56 Q936.187 1444.56 944.526 1444.56 Q947.231 1444.56 949.809 1445.13 Q952.388 1445.67 954.807 1446.79 Z" fill="#000000" fill-rule="nonzero" fill-opacity="1" /><path clip-path="url(#clip420)" d="M960.758 1445.42 L994.91 1445.42 L994.91 1450.1 L980.715 1450.1 L980.715 1481.07 L974.954 1481.07 L974.954 1450.1 L960.758 1450.1 L960.758 1445.42 Z" fill="#000000" fill-rule="nonzero" fill-opacity="1" /><path clip-path="url(#clip420)" d="M1025.15 1470.5 Q1025.15 1467.64 1023.05 1466.14 Q1020.98 1464.64 1016.97 1464.64 L1008.63 1464.64 L1008.63 1476.39 L1016.97 1476.39 Q1020.98 1476.39 1023.05 1474.89 Q1025.15 1473.37 1025.15 1470.5 M1002.74 1445.42 L1008.63 1445.42 L1008.63 1459.97 L1017.22 1459.97 Q1024.03 1459.97 1027.69 1462.58 Q1031.39 1465.15 1031.39 1470.5 Q1031.39 1475.85 1027.69 1478.46 Q1024.03 1481.07 1017.22 1481.07 L1002.74 1481.07 L1002.74 1445.42 Z" fill="#000000" fill-rule="nonzero" fill-opacity="1" /><path clip-path="url(#clip420)" d="M1067.77 1475.72 L1067.77 1494.63 L1061.88 1494.63 L1061.88 1445.42 L1067.77 1445.42 L1067.77 1450.83 Q1069.61 1447.65 1072.41 1446.12 Q1075.25 1444.56 1079.16 1444.56 Q1085.65 1444.56 1089.7 1449.72 Q1093.77 1454.87 1093.77 1463.28 Q1093.77 1471.68 1089.7 1476.83 Q1085.65 1481.99 1079.16 1481.99 Q1075.25 1481.99 1072.41 1480.46 Q1069.61 1478.9 1067.77 1475.72 M1087.69 1463.28 Q1087.69 1456.81 1085.02 1453.15 Q1082.38 1449.46 1077.73 1449.46 Q1073.08 1449.46 1070.41 1453.15 Q1067.77 1456.81 1067.77 1463.28 Q1067.77 1469.74 1070.41 1473.43 Q1073.08 1477.09 1077.73 1477.09 Q1082.38 1477.09 1085.02 1473.43 Q1087.69 1469.74 1087.69 1463.28 Z" fill="#000000" fill-rule="nonzero" fill-opacity="1" /><path clip-path="url(#clip420)" d="M1117.29 1449.53 Q1112.58 1449.53 1109.84 1453.22 Q1107.11 1456.88 1107.11 1463.28 Q1107.11 1469.67 1109.81 1473.37 Q1112.55 1477.03 1117.29 1477.03 Q1121.97 1477.03 1124.71 1473.33 Q1127.44 1469.64 1127.44 1463.28 Q1127.44 1456.94 1124.71 1453.25 Q1121.97 1449.53 1117.29 1449.53 M1117.29 1444.56 Q1124.93 1444.56 1129.29 1449.53 Q1133.65 1454.49 1133.65 1463.28 Q1133.65 1472.03 1129.29 1477.03 Q1124.93 1481.99 1117.29 1481.99 Q1109.62 1481.99 1105.26 1477.03 Q1100.93 1472.03 1100.93 1463.28 Q1100.93 1454.49 1105.26 1449.53 Q1109.62 1444.56 1117.29 1444.56 Z" fill="#000000" fill-rule="nonzero" fill-opacity="1" /><path clip-path="url(#clip420)" d="M1169.01 1446.79 L1169.01 1452.26 Q1166.53 1450.89 1164.02 1450.23 Q1161.53 1449.53 1158.99 1449.53 Q1153.29 1449.53 1150.14 1453.15 Q1146.99 1456.75 1146.99 1463.28 Q1146.99 1469.8 1150.14 1473.43 Q1153.29 1477.03 1158.99 1477.03 Q1161.53 1477.03 1164.02 1476.36 Q1166.53 1475.66 1169.01 1474.29 L1169.01 1479.7 Q1166.56 1480.85 1163.92 1481.42 Q1161.31 1481.99 1158.35 1481.99 Q1150.3 1481.99 1145.55 1476.93 Q1140.81 1471.87 1140.81 1463.28 Q1140.81 1454.55 1145.59 1449.56 Q1150.39 1444.56 1158.73 1444.56 Q1161.44 1444.56 1164.02 1445.13 Q1166.59 1445.67 1169.01 1446.79 Z" fill="#000000" fill-rule="nonzero" fill-opacity="1" /><path clip-path="url(#clip420)" d="M1174.96 1445.42 L1209.12 1445.42 L1209.12 1450.1 L1194.92 1450.1 L1194.92 1481.07 L1189.16 1481.07 L1189.16 1450.1 L1174.96 1450.1 L1174.96 1445.42 Z" fill="#000000" fill-rule="nonzero" fill-opacity="1" /><path clip-path="url(#clip420)" d="M1233.37 1463.15 Q1226.27 1463.15 1223.53 1464.77 Q1220.8 1466.39 1220.8 1470.31 Q1220.8 1473.43 1222.83 1475.28 Q1224.9 1477.09 1228.44 1477.09 Q1233.31 1477.09 1236.23 1473.65 Q1239.19 1470.18 1239.19 1464.45 L1239.19 1463.15 L1233.37 1463.15 M1245.05 1460.73 L1245.05 1481.07 L1239.19 1481.07 L1239.19 1475.66 Q1237.19 1478.9 1234.2 1480.46 Q1231.21 1481.99 1226.88 1481.99 Q1221.4 1481.99 1218.16 1478.94 Q1214.94 1475.85 1214.94 1470.69 Q1214.94 1464.68 1218.95 1461.62 Q1222.99 1458.57 1230.98 1458.57 L1239.19 1458.57 L1239.19 1457.99 Q1239.19 1453.95 1236.52 1451.75 Q1233.88 1449.53 1229.07 1449.53 Q1226.02 1449.53 1223.12 1450.26 Q1220.22 1450.99 1217.55 1452.45 L1217.55 1447.04 Q1220.77 1445.8 1223.79 1445.2 Q1226.81 1444.56 1229.68 1444.56 Q1237.41 1444.56 1241.23 1448.57 Q1245.05 1452.58 1245.05 1460.73 Z" fill="#000000" fill-rule="nonzero" fill-opacity="1" /><path clip-path="url(#clip420)" d="M1258.61 1472.98 L1265.33 1472.98 L1265.33 1478.46 L1260.11 1488.64 L1256 1488.64 L1258.61 1478.46 L1258.61 1472.98 Z" fill="#000000" fill-rule="nonzero" fill-opacity="1" /><path clip-path="url(#clip420)" d="M1319.34 1464.49 L1317.94 1457.13 Q1316.51 1449.59 1310.84 1449.59 Q1306.58 1449.59 1304.63 1453.09 Q1302.18 1457.48 1302.18 1463.28 Q1302.18 1470.28 1304.57 1473.62 Q1306.99 1477.03 1310.84 1477.03 Q1315.11 1477.03 1317.4 1470.25 L1319.34 1464.49 M1322.62 1454.75 L1325.77 1445.42 L1330.99 1445.42 L1324.46 1464.74 L1325.74 1471.71 Q1326.02 1473.27 1327.14 1474.57 Q1328.44 1476.1 1329.46 1476.1 L1332.26 1476.1 L1332.26 1481.07 L1328.76 1481.07 Q1325.77 1481.07 1323.09 1478.39 Q1321.79 1477.06 1321.25 1474.26 Q1319.78 1477.79 1316.79 1480.56 Q1315.39 1481.86 1310.84 1481.86 Q1303.36 1481.86 1299.73 1477.03 Q1296.01 1472.03 1296.01 1463.28 Q1296.01 1453.92 1300.05 1449.53 Q1304.54 1444.62 1310.84 1444.62 Q1320.74 1444.62 1322.62 1454.75 Z" fill="#000000" fill-rule="nonzero" fill-opacity="1" /><polyline clip-path="url(#clip420)" style="stroke:#000000; stroke-linecap:round; stroke-linejoin:round; stroke-width:4; stroke-opacity:1; fill:none" points="180.149,1343.4 180.149,135.568 "/>
<polyline clip-path="url(#clip420)" style="stroke:#000000; stroke-linecap:round; stroke-linejoin:round; stroke-width:4; stroke-opacity:1; fill:none" points="180.149,1253.17 199.047,1253.17 "/>
<polyline clip-path="url(#clip420)" style="stroke:#000000; stroke-linecap:round; stroke-linejoin:round; stroke-width:4; stroke-opacity:1; fill:none" points="180.149,1070.52 199.047,1070.52 "/>
<polyline clip-path="url(#clip420)" style="stroke:#000000; stroke-linecap:round; stroke-linejoin:round; stroke-width:4; stroke-opacity:1; fill:none" points="180.149,887.859 199.047,887.859 "/>
<polyline clip-path="url(#clip420)" style="stroke:#000000; stroke-linecap:round; stroke-linejoin:round; stroke-width:4; stroke-opacity:1; fill:none" points="180.149,705.203 199.047,705.203 "/>
<polyline clip-path="url(#clip420)" style="stroke:#000000; stroke-linecap:round; stroke-linejoin:round; stroke-width:4; stroke-opacity:1; fill:none" points="180.149,522.547 199.047,522.547 "/>
<polyline clip-path="url(#clip420)" style="stroke:#000000; stroke-linecap:round; stroke-linejoin:round; stroke-width:4; stroke-opacity:1; fill:none" points="180.149,339.891 199.047,339.891 "/>
<polyline clip-path="url(#clip420)" style="stroke:#000000; stroke-linecap:round; stroke-linejoin:round; stroke-width:4; stroke-opacity:1; fill:none" points="180.149,157.235 199.047,157.235 "/>
<path clip-path="url(#clip420)" d="M131.442 1266.52 L139.081 1266.52 L139.081 1240.15 L130.771 1241.82 L130.771 1237.56 L139.034 1235.89 L143.71 1235.89 L143.71 1266.52 L151.349 1266.52 L151.349 1270.45 L131.442 1270.45 L131.442 1266.52 Z" fill="#000000" fill-rule="nonzero" fill-opacity="1" /><path clip-path="url(#clip420)" d="M135.03 1083.86 L151.349 1083.86 L151.349 1087.8 L129.405 1087.8 L129.405 1083.86 Q132.067 1081.11 136.65 1076.48 Q141.257 1071.82 142.437 1070.48 Q144.683 1067.96 145.562 1066.22 Q146.465 1064.46 146.465 1062.77 Q146.465 1060.02 144.521 1058.28 Q142.599 1056.55 139.497 1056.55 Q137.298 1056.55 134.845 1057.31 Q132.414 1058.07 129.636 1059.62 L129.636 1054.9 Q132.46 1053.77 134.914 1053.19 Q137.368 1052.61 139.405 1052.61 Q144.775 1052.61 147.97 1055.3 Q151.164 1057.98 151.164 1062.47 Q151.164 1064.6 150.354 1066.52 Q149.567 1068.42 147.46 1071.01 Q146.882 1071.68 143.78 1074.9 Q140.678 1078.1 135.03 1083.86 Z" fill="#000000" fill-rule="nonzero" fill-opacity="1" /><path clip-path="url(#clip420)" d="M144.22 886.505 Q147.576 887.223 149.451 889.491 Q151.349 891.76 151.349 895.093 Q151.349 900.209 147.831 903.01 Q144.312 905.811 137.831 905.811 Q135.655 905.811 133.34 905.371 Q131.048 904.954 128.595 904.098 L128.595 899.584 Q130.539 900.718 132.854 901.297 Q135.169 901.875 137.692 901.875 Q142.09 901.875 144.382 900.139 Q146.696 898.403 146.696 895.093 Q146.696 892.037 144.544 890.324 Q142.414 888.588 138.595 888.588 L134.567 888.588 L134.567 884.746 L138.78 884.746 Q142.229 884.746 144.058 883.38 Q145.886 881.991 145.886 879.399 Q145.886 876.737 143.988 875.325 Q142.113 873.889 138.595 873.889 Q136.673 873.889 134.474 874.306 Q132.275 874.723 129.636 875.602 L129.636 871.436 Q132.298 870.695 134.613 870.325 Q136.951 869.954 139.011 869.954 Q144.335 869.954 147.437 872.385 Q150.539 874.792 150.539 878.913 Q150.539 881.783 148.896 883.774 Q147.252 885.741 144.22 886.505 Z" fill="#000000" fill-rule="nonzero" fill-opacity="1" /><path clip-path="url(#clip420)" d="M141.766 691.997 L129.96 710.446 L141.766 710.446 L141.766 691.997 M140.539 687.923 L146.419 687.923 L146.419 710.446 L151.349 710.446 L151.349 714.335 L146.419 714.335 L146.419 722.483 L141.766 722.483 L141.766 714.335 L126.164 714.335 L126.164 709.821 L140.539 687.923 Z" fill="#000000" fill-rule="nonzero" fill-opacity="1" /><path clip-path="url(#clip420)" d="M130.447 505.267 L148.803 505.267 L148.803 509.202 L134.729 509.202 L134.729 517.674 Q135.747 517.327 136.766 517.165 Q137.784 516.98 138.803 516.98 Q144.59 516.98 147.97 520.151 Q151.349 523.323 151.349 528.739 Q151.349 534.318 147.877 537.42 Q144.405 540.498 138.085 540.498 Q135.909 540.498 133.641 540.128 Q131.396 539.758 128.988 539.017 L128.988 534.318 Q131.072 535.452 133.294 536.008 Q135.516 536.563 137.993 536.563 Q141.997 536.563 144.335 534.457 Q146.673 532.35 146.673 528.739 Q146.673 525.128 144.335 523.022 Q141.997 520.915 137.993 520.915 Q136.118 520.915 134.243 521.332 Q132.391 521.749 130.447 522.628 L130.447 505.267 Z" fill="#000000" fill-rule="nonzero" fill-opacity="1" /><path clip-path="url(#clip420)" d="M139.821 338.028 Q136.673 338.028 134.822 340.18 Q132.993 342.333 132.993 346.083 Q132.993 349.81 134.822 351.986 Q136.673 354.139 139.821 354.139 Q142.97 354.139 144.798 351.986 Q146.65 349.81 146.65 346.083 Q146.65 342.333 144.798 340.18 Q142.97 338.028 139.821 338.028 M149.104 323.375 L149.104 327.634 Q147.345 326.801 145.539 326.361 Q143.757 325.921 141.997 325.921 Q137.368 325.921 134.914 329.046 Q132.484 332.171 132.136 338.491 Q133.502 336.477 135.562 335.412 Q137.622 334.324 140.099 334.324 Q145.308 334.324 148.317 337.495 Q151.349 340.643 151.349 346.083 Q151.349 351.407 148.201 354.625 Q145.053 357.842 139.821 357.842 Q133.826 357.842 130.655 353.259 Q127.484 348.653 127.484 339.926 Q127.484 331.731 131.372 326.87 Q135.261 321.986 141.812 321.986 Q143.571 321.986 145.354 322.333 Q147.159 322.681 149.104 323.375 Z" fill="#000000" fill-rule="nonzero" fill-opacity="1" /><path clip-path="url(#clip420)" d="M129.127 139.955 L151.349 139.955 L151.349 141.946 L138.803 174.515 L133.919 174.515 L145.724 143.89 L129.127 143.89 L129.127 139.955 Z" fill="#000000" fill-rule="nonzero" fill-opacity="1" /><path clip-path="url(#clip420)" d="M60.4144 1055.15 L77.8246 1055.15 L77.8246 1044.83 Q77.8246 1039.64 75.6921 1037.16 Q73.5278 1034.65 69.1036 1034.65 Q64.6476 1034.65 62.5469 1037.16 Q60.4144 1039.64 60.4144 1044.83 L60.4144 1055.15 M40.8717 1055.15 L55.1945 1055.15 L55.1945 1045.63 Q55.1945 1040.92 53.444 1038.63 Q51.6616 1036.3 48.0331 1036.3 Q44.4365 1036.3 42.6541 1038.63 Q40.8717 1040.92 40.8717 1045.63 L40.8717 1055.15 M35.5882 1061.57 L35.5882 1045.15 Q35.5882 1037.8 38.6437 1033.82 Q41.6992 1029.84 47.3329 1029.84 Q51.6934 1029.84 54.2715 1031.88 Q56.8496 1033.92 57.4862 1037.86 Q58.5047 1033.12 61.7512 1030.51 Q64.9659 1027.87 69.8038 1027.87 Q76.1695 1027.87 79.6388 1032.2 Q83.1082 1036.53 83.1082 1044.51 L83.1082 1061.57 L35.5882 1061.57 Z" fill="#000000" fill-rule="nonzero" fill-opacity="1" /><path clip-path="url(#clip420)" d="M77.761 1011.44 L96.6671 1011.44 L96.6671 1017.33 L47.4602 1017.33 L47.4602 1011.44 L52.8711 1011.44 Q49.6882 1009.6 48.1604 1006.8 Q46.6008 1003.97 46.6008 1000.05 Q46.6008 993.557 51.7571 989.515 Q56.9133 985.441 65.316 985.441 Q73.7187 985.441 78.875 989.515 Q84.0312 993.557 84.0312 1000.05 Q84.0312 1003.97 82.5034 1006.8 Q80.9438 1009.6 77.761 1011.44 M65.316 991.52 Q58.8548 991.52 55.1945 994.194 Q51.5024 996.836 51.5024 1001.48 Q51.5024 1006.13 55.1945 1008.8 Q58.8548 1011.44 65.316 1011.44 Q71.7772 1011.44 75.4693 1008.8 Q79.1296 1006.13 79.1296 1001.48 Q79.1296 996.836 75.4693 994.194 Q71.7772 991.52 65.316 991.52 Z" fill="#000000" fill-rule="nonzero" fill-opacity="1" /><path clip-path="url(#clip420)" d="M63.8201 945.242 L66.6846 945.242 L66.6846 972.168 Q72.7321 971.787 75.9149 968.54 Q79.0659 965.262 79.0659 959.437 Q79.0659 956.063 78.2384 952.912 Q77.4109 949.729 75.7558 946.61 L81.2939 946.61 Q82.6307 949.761 83.331 953.071 Q84.0312 956.382 84.0312 959.787 Q84.0312 968.317 79.0659 973.314 Q74.1007 978.28 65.6343 978.28 Q56.8814 978.28 51.7571 973.569 Q46.6008 968.826 46.6008 960.806 Q46.6008 953.612 51.2478 949.443 Q55.8629 945.242 63.8201 945.242 M62.1013 951.098 Q57.2952 951.162 54.4306 953.803 Q51.5661 956.413 51.5661 960.742 Q51.5661 965.644 54.3352 968.604 Q57.1042 971.532 62.1332 971.978 L62.1013 951.098 Z" fill="#000000" fill-rule="nonzero" fill-opacity="1" /><path clip-path="url(#clip420)" d="M47.4602 935.852 L47.4602 927.29 L71.3316 917.169 L47.4602 907.015 L47.4602 898.517 L83.1082 898.517 L83.1082 904.406 L53.062 904.406 L76.265 914.241 L76.265 920.097 L53.062 929.964 L83.1082 929.964 L83.1082 935.852 L47.4602 935.852 Z" fill="#000000" fill-rule="nonzero" fill-opacity="1" /><path clip-path="url(#clip420)" d="M57.7408 880.566 Q60.3826 880.566 61.8785 878.529 Q63.3745 876.492 63.3745 872.704 L63.3745 864.811 L52.139 864.811 L52.139 872.704 Q52.139 876.492 53.6031 878.529 Q55.0672 880.566 57.7408 880.566 M83.1082 888.905 L67.4803 878.02 Q66.6528 881.712 64.4885 884.163 Q62.2923 886.613 57.7408 886.613 Q52.5846 886.613 50.0383 883.208 Q47.4602 879.77 47.4602 872.863 L47.4602 858.923 L83.1082 858.923 L83.1082 864.811 L68.0533 864.811 L68.0533 872.1 L83.1082 882.603 L83.1082 888.905 Z" fill="#000000" fill-rule="nonzero" fill-opacity="1" /><path clip-path="url(#clip420)" d="M86.4183 811.689 Q92.784 814.172 94.7256 816.527 Q96.6671 818.882 96.6671 822.829 L96.6671 827.508 L91.7655 827.508 L91.7655 824.07 Q91.7655 821.651 90.6197 820.315 Q89.4739 818.978 85.2088 817.354 L82.5352 816.304 L47.4602 830.722 L47.4602 824.516 L75.342 813.376 L47.4602 802.236 L47.4602 796.029 L86.4183 811.689 Z" fill="#000000" fill-rule="nonzero" fill-opacity="1" /><path clip-path="url(#clip420)" d="M78.4294 779.988 L78.4294 762.991 L52.139 762.991 L52.139 775.309 L56.595 775.309 Q69.7083 775.309 76.7106 779.065 L78.4294 779.988 M78.4294 788.486 Q77.1562 785.59 74.4508 784.316 Q67.735 781.197 54.2078 781.197 L47.4602 781.197 L47.4602 757.103 L78.4294 757.103 L78.4294 752.424 L92.1156 752.424 L92.1156 757.103 L83.1082 757.103 L83.1082 786.003 L92.1156 786.003 L92.1156 790.682 L78.4294 790.682 L78.4294 788.486 Z" fill="#000000" fill-rule="nonzero" fill-opacity="1" /><path clip-path="url(#clip420)" d="M66.6846 737.242 L78.4294 737.242 L78.4294 728.903 Q78.4294 724.893 76.9334 722.792 Q75.4057 720.691 72.5411 720.691 Q69.6765 720.691 68.1806 722.792 Q66.6846 724.893 66.6846 728.903 L66.6846 737.242 M52.139 737.242 L62.0058 737.242 L62.0058 729.54 Q62.0058 726.229 60.7009 724.129 Q59.3641 722.028 57.0088 722.028 Q54.6534 722.028 53.4121 724.129 Q52.139 726.229 52.139 729.54 L52.139 737.242 M47.4602 743.099 L47.4602 729.158 Q47.4602 722.887 49.7519 719.514 Q52.0435 716.14 56.2767 716.14 Q59.555 716.14 61.4966 717.858 Q63.4063 719.577 63.8837 722.951 Q64.6476 718.909 67.0666 716.681 Q69.4855 714.453 73.114 714.453 Q77.8883 714.453 80.4982 718.145 Q83.1082 721.805 83.1082 728.617 L83.1082 743.099 L47.4602 743.099 Z" fill="#000000" fill-rule="nonzero" fill-opacity="1" /><path clip-path="url(#clip420)" d="M51.5661 690.645 Q51.5661 695.356 55.2582 698.093 Q58.9185 700.83 65.316 700.83 Q71.7135 700.83 75.4057 698.125 Q79.0659 695.388 79.0659 690.645 Q79.0659 685.966 75.3738 683.229 Q71.6817 680.492 65.316 680.492 Q58.9821 680.492 55.29 683.229 Q51.5661 685.966 51.5661 690.645 M46.6008 690.645 Q46.6008 683.006 51.5661 678.646 Q56.5313 674.285 65.316 674.285 Q74.0689 674.285 79.0659 678.646 Q84.0312 683.006 84.0312 690.645 Q84.0312 698.316 79.0659 702.676 Q74.0689 707.005 65.316 707.005 Q56.5313 707.005 51.5661 702.676 Q46.6008 698.316 46.6008 690.645 Z" fill="#000000" fill-rule="nonzero" fill-opacity="1" /><path clip-path="url(#clip420)" d="M63.8201 634.086 L66.6846 634.086 L66.6846 661.013 Q72.7321 660.631 75.9149 657.384 Q79.0659 654.106 79.0659 648.281 Q79.0659 644.907 78.2384 641.756 Q77.4109 638.574 75.7558 635.454 L81.2939 635.454 Q82.6307 638.605 83.331 641.916 Q84.0312 645.226 84.0312 648.631 Q84.0312 657.161 79.0659 662.159 Q74.1007 667.124 65.6343 667.124 Q56.8814 667.124 51.7571 662.413 Q46.6008 657.671 46.6008 649.65 Q46.6008 642.457 51.2478 638.287 Q55.8629 634.086 63.8201 634.086 M62.1013 639.942 Q57.2952 640.006 54.4306 642.648 Q51.5661 645.258 51.5661 649.586 Q51.5661 654.488 54.3352 657.448 Q57.1042 660.376 62.1332 660.822 L62.1013 639.942 Z" fill="#000000" fill-rule="nonzero" fill-opacity="1" /><path clip-path="url(#clip420)" d="M47.4602 624.696 L47.4602 618.808 L62.0058 618.808 L62.0058 599.806 L47.4602 599.806 L47.4602 593.918 L83.1082 593.918 L83.1082 599.806 L66.6846 599.806 L66.6846 618.808 L83.1082 618.808 L83.1082 624.696 L47.4602 624.696 Z" fill="#000000" fill-rule="nonzero" fill-opacity="1" /><path clip-path="url(#clip420)" d="M47.4602 551.554 L83.1082 551.554 L83.1082 557.379 L54.4943 557.379 L83.1082 574.566 L83.1082 582.078 L47.4602 582.078 L47.4602 576.253 L76.0104 576.253 L47.4602 559.098 L47.4602 551.554 Z" fill="#000000" fill-rule="nonzero" fill-opacity="1" /><path clip-path="url(#clip420)" d="M57.7408 533.603 Q60.3826 533.603 61.8785 531.566 Q63.3745 529.529 63.3745 525.741 L63.3745 517.848 L52.139 517.848 L52.139 525.741 Q52.139 529.529 53.6031 531.566 Q55.0672 533.603 57.7408 533.603 M83.1082 541.942 L67.4803 531.057 Q66.6528 534.749 64.4885 537.2 Q62.2923 539.651 57.7408 539.651 Q52.5846 539.651 50.0383 536.245 Q47.4602 532.807 47.4602 525.901 L47.4602 511.96 L83.1082 511.96 L83.1082 517.848 L68.0533 517.848 L68.0533 525.137 L83.1082 535.64 L83.1082 541.942 Z" fill="#000000" fill-rule="nonzero" fill-opacity="1" /><path clip-path="url(#clip420)" d="M75.0237 498.783 L75.0237 492.067 L80.4982 492.067 L90.6833 497.287 L90.6833 501.393 L80.4982 498.783 L75.0237 498.783 Z" fill="#000000" fill-rule="nonzero" fill-opacity="1" /><path clip-path="url(#clip420)" d="M37.3387 453.045 L47.4602 453.045 L47.4602 440.982 L52.0117 440.982 L52.0117 453.045 L71.3634 453.045 Q75.7239 453.045 76.9653 451.867 Q78.2066 450.658 78.2066 446.998 L78.2066 440.982 L83.1082 440.982 L83.1082 446.998 Q83.1082 453.777 80.5937 456.355 Q78.0474 458.933 71.3634 458.933 L52.0117 458.933 L52.0117 463.23 L47.4602 463.23 L47.4602 458.933 L37.3387 458.933 L37.3387 453.045 Z" fill="#000000" fill-rule="nonzero" fill-opacity="1" /><path clip-path="url(#clip420)" d="M79.4797 430.892 L79.4797 417.397 L83.1082 417.397 L83.1082 436.431 L79.607 436.431 Q78.6203 435.348 76.8379 433.343 Q67.1302 422.394 64.1384 422.394 Q62.0377 422.394 60.7645 424.049 Q59.4596 425.704 59.4596 428.41 Q59.4596 430.065 60.0325 432.006 Q60.5736 433.948 61.6876 436.24 L57.7726 436.24 Q56.8814 433.789 56.4358 431.688 Q55.9902 429.556 55.9902 427.741 Q55.9902 423.126 58.0909 420.357 Q60.1916 417.588 63.6291 417.588 Q68.0533 417.588 77.0926 428.123 Q78.6203 429.906 79.4797 430.892 Z" fill="#000000" fill-rule="nonzero" fill-opacity="1" /><path clip-path="url(#clip420)" d="M243.696 11.0023 Q253.662 11.0023 259.981 15.2557 Q266.3 19.4686 266.3 26.6793 Q266.3 31.7024 263.424 35.1862 Q260.548 38.6294 255.241 39.9662 Q261.115 41.222 264.396 45.1919 Q267.718 49.1618 267.718 54.9951 Q267.718 64.3122 260.508 69.0517 Q253.337 73.7508 243.696 73.7508 Q238.754 73.7508 233.002 72.414 Q227.25 71.0772 225.467 69.9429 L225.467 61.517 Q231.665 65.1223 235.068 66.0135 Q238.511 66.8642 243.534 66.8642 Q251.15 66.8642 255.363 63.9476 Q259.576 61.0309 259.576 54.9951 Q259.576 49.6479 255.809 46.6502 Q252.082 43.612 244.182 43.612 L235.919 43.612 L235.919 36.8875 L244.507 36.8875 Q251.758 36.8875 254.958 34.4975 Q258.158 32.067 258.158 27.5299 Q258.158 22.8714 254.836 20.4004 Q251.555 17.8888 243.534 17.8888 Q238.106 17.8888 236.243 18.3749 Q234.379 18.861 226.075 21.9802 L226.075 13.9999 Q230.652 12.3796 235.432 11.6909 Q240.213 11.0023 243.696 11.0023 Z" fill="#000000" fill-rule="nonzero" fill-opacity="1" /><path clip-path="url(#clip420)" d="M301.624 49.7694 Q292.591 49.7694 289.107 51.8354 Q285.623 53.9013 285.623 58.8839 Q285.623 62.8538 288.216 65.2034 Q290.849 67.5124 295.345 67.5124 Q301.543 67.5124 305.27 63.1374 Q309.037 58.7219 309.037 51.4303 L309.037 49.7694 L301.624 49.7694 M316.491 46.6907 L316.491 72.576 L309.037 72.576 L309.037 65.6895 Q306.485 69.8214 302.677 71.8063 Q298.87 73.7508 293.36 73.7508 Q286.393 73.7508 282.261 69.8619 Q278.17 65.9325 278.17 59.3701 Q278.17 51.7138 283.274 47.825 Q288.418 43.9361 298.586 43.9361 L309.037 43.9361 L309.037 43.2069 Q309.037 38.0623 305.635 35.2672 Q302.272 32.4315 296.156 32.4315 Q292.267 32.4315 288.58 33.3632 Q284.894 34.295 281.491 36.1584 L281.491 29.2718 Q285.583 27.692 289.431 26.9223 Q293.279 26.1121 296.925 26.1121 Q306.769 26.1121 311.63 31.2163 Q316.491 36.3204 316.491 46.6907 Z" fill="#000000" fill-rule="nonzero" fill-opacity="1" /><path clip-path="url(#clip420)" d="M339.014 51.6733 L339.014 66.6212 L349.627 66.6212 Q354.732 66.6212 357.405 64.7172 Q360.079 62.7728 360.079 59.127 Q360.079 55.4812 357.405 53.5773 Q354.732 51.6733 349.627 51.6733 L339.014 51.6733 M339.014 33.1607 L339.014 45.7185 L348.817 45.7185 Q353.03 45.7185 355.704 44.0576 Q358.377 42.3563 358.377 39.3586 Q358.377 36.3609 355.704 34.7811 Q353.03 33.1607 348.817 33.1607 L339.014 33.1607 M331.56 27.2059 L349.303 27.2059 Q357.284 27.2059 361.578 30.1225 Q365.872 33.0392 365.872 38.4269 Q365.872 42.5993 363.684 45.0704 Q361.497 47.5009 357.203 48.1085 Q362.347 49.0808 365.183 52.1594 Q368.019 55.2381 368.019 59.8562 Q368.019 65.9325 363.32 69.2543 Q358.661 72.576 349.992 72.576 L331.56 72.576 L331.56 27.2059 Z" fill="#000000" fill-rule="nonzero" fill-opacity="1" /><path clip-path="url(#clip420)" d="M419.303 27.2059 L419.303 72.576 L411.89 72.576 L411.89 36.1584 L390.015 72.576 L380.455 72.576 L380.455 27.2059 L387.868 27.2059 L387.868 63.5425 L409.702 27.2059 L419.303 27.2059 Z" fill="#000000" fill-rule="nonzero" fill-opacity="1" /><path clip-path="url(#clip420)" d="M467.306 28.9478 L467.306 35.9153 Q464.147 34.1734 460.946 33.3227 Q457.787 32.4315 454.546 32.4315 Q447.295 32.4315 443.284 37.0496 Q439.274 41.6271 439.274 49.9314 Q439.274 58.2358 443.284 62.8538 Q447.295 67.4314 454.546 67.4314 Q457.787 67.4314 460.946 66.5807 Q464.147 65.6895 467.306 63.9476 L467.306 70.8341 Q464.187 72.2924 460.825 73.0216 Q457.503 73.7508 453.736 73.7508 Q443.487 73.7508 437.451 67.3098 Q431.415 60.8689 431.415 49.9314 Q431.415 38.832 437.492 32.472 Q443.608 26.1121 454.222 26.1121 Q457.665 26.1121 460.946 26.8413 Q464.228 27.5299 467.306 28.9478 Z" fill="#000000" fill-rule="nonzero" fill-opacity="1" /><path clip-path="url(#clip420)" d="M518.834 27.2059 L518.834 72.576 L511.421 72.576 L511.421 36.1584 L489.546 72.576 L479.986 72.576 L479.986 27.2059 L487.399 27.2059 L487.399 63.5425 L509.233 27.2059 L518.834 27.2059 Z" fill="#000000" fill-rule="nonzero" fill-opacity="1" /><path clip-path="url(#clip420)" d="M533.903 27.2059 L544.8 27.2059 L557.682 57.5877 L570.604 27.2059 L581.42 27.2059 L581.42 72.576 L573.926 72.576 L573.926 34.3355 L561.409 63.8666 L553.955 63.8666 L541.397 34.3355 L541.397 72.576 L533.903 72.576 L533.903 27.2059 Z" fill="#000000" fill-rule="nonzero" fill-opacity="1" /><path clip-path="url(#clip420)" d="M614.354 32.4315 Q608.359 32.4315 604.875 37.1306 Q601.391 41.7891 601.391 49.9314 Q601.391 58.0738 604.834 62.7728 Q608.318 67.4314 614.354 67.4314 Q620.309 67.4314 623.793 62.7323 Q627.276 58.0333 627.276 49.9314 Q627.276 41.8701 623.793 37.1711 Q620.309 32.4315 614.354 32.4315 M614.354 26.1121 Q624.076 26.1121 629.626 32.4315 Q635.176 38.7509 635.176 49.9314 Q635.176 61.0714 629.626 67.4314 Q624.076 73.7508 614.354 73.7508 Q604.591 73.7508 599.042 67.4314 Q593.532 61.0714 593.532 49.9314 Q593.532 38.7509 599.042 32.4315 Q604.591 26.1121 614.354 26.1121 Z" fill="#000000" fill-rule="nonzero" fill-opacity="1" /><path clip-path="url(#clip420)" d="M680.181 28.9478 L680.181 35.9153 Q677.022 34.1734 673.821 33.3227 Q670.662 32.4315 667.421 32.4315 Q660.17 32.4315 656.159 37.0496 Q652.149 41.6271 652.149 49.9314 Q652.149 58.2358 656.159 62.8538 Q660.17 67.4314 667.421 67.4314 Q670.662 67.4314 673.821 66.5807 Q677.022 65.6895 680.181 63.9476 L680.181 70.8341 Q677.062 72.2924 673.7 73.0216 Q670.378 73.7508 666.611 73.7508 Q656.362 73.7508 650.326 67.3098 Q644.29 60.8689 644.29 49.9314 Q644.29 38.832 650.367 32.472 Q656.483 26.1121 667.097 26.1121 Q670.54 26.1121 673.821 26.8413 Q677.103 27.5299 680.181 28.9478 Z" fill="#000000" fill-rule="nonzero" fill-opacity="1" /><path clip-path="url(#clip420)" d="M687.756 27.2059 L731.223 27.2059 L731.223 33.1607 L713.156 33.1607 L713.156 72.576 L705.823 72.576 L705.823 33.1607 L687.756 33.1607 L687.756 27.2059 Z" fill="#000000" fill-rule="nonzero" fill-opacity="1" /><path clip-path="url(#clip420)" d="M769.706 59.127 Q769.706 55.4812 767.033 53.5773 Q764.4 51.6733 759.295 51.6733 L748.682 51.6733 L748.682 66.6212 L759.295 66.6212 Q764.4 66.6212 767.033 64.7172 Q769.706 62.7728 769.706 59.127 M741.188 27.2059 L748.682 27.2059 L748.682 45.7185 L759.619 45.7185 Q768.288 45.7185 772.947 49.0402 Q777.646 52.3215 777.646 59.127 Q777.646 65.9325 772.947 69.2543 Q768.288 72.576 759.619 72.576 L741.188 72.576 L741.188 27.2059 Z" fill="#000000" fill-rule="nonzero" fill-opacity="1" /><path clip-path="url(#clip420)" d="M823.907 51.6733 L823.907 66.6212 L834.521 66.6212 Q839.625 66.6212 842.298 64.7172 Q844.972 62.7728 844.972 59.127 Q844.972 55.4812 842.298 53.5773 Q839.625 51.6733 834.521 51.6733 L823.907 51.6733 M823.907 33.1607 L823.907 45.7185 L833.711 45.7185 Q837.923 45.7185 840.597 44.0576 Q843.271 42.3563 843.271 39.3586 Q843.271 36.3609 840.597 34.7811 Q837.923 33.1607 833.711 33.1607 L823.907 33.1607 M816.454 27.2059 L834.197 27.2059 Q842.177 27.2059 846.471 30.1225 Q850.765 33.0392 850.765 38.4269 Q850.765 42.5993 848.577 45.0704 Q846.39 47.5009 842.096 48.1085 Q847.241 49.0808 850.076 52.1594 Q852.912 55.2381 852.912 59.8562 Q852.912 65.9325 848.213 69.2543 Q843.554 72.576 834.885 72.576 L816.454 72.576 L816.454 27.2059 Z" fill="#000000" fill-rule="nonzero" fill-opacity="1" /><path clip-path="url(#clip420)" d="M872.842 65.7705 L872.842 89.8329 L865.348 89.8329 L865.348 27.2059 L872.842 27.2059 L872.842 34.0924 Q875.192 30.0415 878.757 28.0971 Q882.362 26.1121 887.345 26.1121 Q895.608 26.1121 900.753 32.6746 Q905.938 39.2371 905.938 49.9314 Q905.938 60.6258 900.753 67.1883 Q895.608 73.7508 887.345 73.7508 Q882.362 73.7508 878.757 71.8063 Q875.192 69.8214 872.842 65.7705 M898.201 49.9314 Q898.201 41.7081 894.798 37.0496 Q891.436 32.3505 885.522 32.3505 Q879.607 32.3505 876.205 37.0496 Q872.842 41.7081 872.842 49.9314 Q872.842 58.1548 876.205 62.8538 Q879.607 67.5124 885.522 67.5124 Q891.436 67.5124 894.798 62.8538 Q898.201 58.1548 898.201 49.9314 Z" fill="#000000" fill-rule="nonzero" fill-opacity="1" /><path clip-path="url(#clip420)" d="M957.101 48.0275 L957.101 51.6733 L922.83 51.6733 Q923.317 59.3701 927.448 63.421 Q931.621 67.4314 939.034 67.4314 Q943.328 67.4314 947.338 66.3781 Q951.389 65.3249 955.359 63.2184 L955.359 70.267 Q951.349 71.9684 947.136 72.8596 Q942.923 73.7508 938.588 73.7508 Q927.732 73.7508 921.372 67.4314 Q915.053 61.1119 915.053 50.3365 Q915.053 39.1965 921.048 32.6746 Q927.084 26.1121 937.292 26.1121 Q946.447 26.1121 951.754 32.0264 Q957.101 37.9003 957.101 48.0275 M949.647 45.84 Q949.566 39.7232 946.204 36.0774 Q942.882 32.4315 937.373 32.4315 Q931.135 32.4315 927.367 35.9558 Q923.641 39.4801 923.073 45.8805 L949.647 45.84 Z" fill="#000000" fill-rule="nonzero" fill-opacity="1" /><path clip-path="url(#clip420)" d="M969.051 27.2059 L979.948 27.2059 L992.83 57.5877 L1005.75 27.2059 L1016.57 27.2059 L1016.57 72.576 L1009.07 72.576 L1009.07 34.3355 L996.557 63.8666 L989.103 63.8666 L976.545 34.3355 L976.545 72.576 L969.051 72.576 L969.051 27.2059 Z" fill="#000000" fill-rule="nonzero" fill-opacity="1" /><path clip-path="url(#clip420)" d="M1070.73 48.0275 L1070.73 51.6733 L1036.46 51.6733 Q1036.94 59.3701 1041.08 63.421 Q1045.25 67.4314 1052.66 67.4314 Q1056.96 67.4314 1060.97 66.3781 Q1065.02 65.3249 1068.99 63.2184 L1068.99 70.267 Q1064.98 71.9684 1060.76 72.8596 Q1056.55 73.7508 1052.22 73.7508 Q1041.36 73.7508 1035 67.4314 Q1028.68 61.1119 1028.68 50.3365 Q1028.68 39.1965 1034.68 32.6746 Q1040.71 26.1121 1050.92 26.1121 Q1060.08 26.1121 1065.38 32.0264 Q1070.73 37.9003 1070.73 48.0275 M1063.28 45.84 Q1063.19 39.7232 1059.83 36.0774 Q1056.51 32.4315 1051 32.4315 Q1044.76 32.4315 1041 35.9558 Q1037.27 39.4801 1036.7 45.8805 L1063.28 45.84 Z" fill="#000000" fill-rule="nonzero" fill-opacity="1" /><path clip-path="url(#clip420)" d="M1082.68 27.2059 L1090.17 27.2059 L1090.17 45.7185 L1114.36 45.7185 L1114.36 27.2059 L1121.85 27.2059 L1121.85 72.576 L1114.36 72.576 L1114.36 51.6733 L1090.17 51.6733 L1090.17 72.576 L1082.68 72.576 L1082.68 27.2059 Z" fill="#000000" fill-rule="nonzero" fill-opacity="1" /><path clip-path="url(#clip420)" d="M1175.77 27.2059 L1175.77 72.576 L1168.36 72.576 L1168.36 36.1584 L1146.48 72.576 L1136.92 72.576 L1136.92 27.2059 L1144.33 27.2059 L1144.33 63.5425 L1166.17 27.2059 L1175.77 27.2059 Z" fill="#000000" fill-rule="nonzero" fill-opacity="1" /><path clip-path="url(#clip420)" d="M1236.37 76.7889 Q1233.21 84.8907 1230.21 87.3618 Q1227.22 89.8329 1222.19 89.8329 L1216.24 89.8329 L1216.24 83.5945 L1220.61 83.5945 Q1223.69 83.5945 1225.39 82.1361 Q1227.09 80.6778 1229.16 75.2496 L1230.5 71.8468 L1212.15 27.2059 L1220.05 27.2059 L1234.22 62.6918 L1248.4 27.2059 L1256.3 27.2059 L1236.37 76.7889 Z" fill="#000000" fill-rule="nonzero" fill-opacity="1" /><path clip-path="url(#clip420)" d="M1276.72 66.6212 L1298.35 66.6212 L1298.35 33.1607 L1282.67 33.1607 L1282.67 38.832 Q1282.67 55.5217 1277.89 64.4337 L1276.72 66.6212 M1265.9 66.6212 Q1269.59 65.0008 1271.21 61.5575 Q1275.18 53.0101 1275.18 35.7938 L1275.18 27.2059 L1305.84 27.2059 L1305.84 66.6212 L1311.8 66.6212 L1311.8 84.0401 L1305.84 84.0401 L1305.84 72.576 L1269.06 72.576 L1269.06 84.0401 L1263.11 84.0401 L1263.11 66.6212 L1265.9 66.6212 Z" fill="#000000" fill-rule="nonzero" fill-opacity="1" /><path clip-path="url(#clip420)" d="M1331.12 51.6733 L1331.12 66.6212 L1341.73 66.6212 Q1346.84 66.6212 1349.51 64.7172 Q1352.19 62.7728 1352.19 59.127 Q1352.19 55.4812 1349.51 53.5773 Q1346.84 51.6733 1341.73 51.6733 L1331.12 51.6733 M1331.12 33.1607 L1331.12 45.7185 L1340.92 45.7185 Q1345.14 45.7185 1347.81 44.0576 Q1350.48 42.3563 1350.48 39.3586 Q1350.48 36.3609 1347.81 34.7811 Q1345.14 33.1607 1340.92 33.1607 L1331.12 33.1607 M1323.67 27.2059 L1341.41 27.2059 Q1349.39 27.2059 1353.68 30.1225 Q1357.98 33.0392 1357.98 38.4269 Q1357.98 42.5993 1355.79 45.0704 Q1353.6 47.5009 1349.31 48.1085 Q1354.45 49.0808 1357.29 52.1594 Q1360.13 55.2381 1360.13 59.8562 Q1360.13 65.9325 1355.43 69.2543 Q1350.77 72.576 1342.1 72.576 L1323.67 72.576 L1323.67 27.2059 Z" fill="#000000" fill-rule="nonzero" fill-opacity="1" /><path clip-path="url(#clip420)" d="M1390.43 32.4315 Q1384.43 32.4315 1380.95 37.1306 Q1377.46 41.7891 1377.46 49.9314 Q1377.46 58.0738 1380.91 62.7728 Q1384.39 67.4314 1390.43 67.4314 Q1396.38 67.4314 1399.86 62.7323 Q1403.35 58.0333 1403.35 49.9314 Q1403.35 41.8701 1399.86 37.1711 Q1396.38 32.4315 1390.43 32.4315 M1390.43 26.1121 Q1400.15 26.1121 1405.7 32.4315 Q1411.25 38.7509 1411.25 49.9314 Q1411.25 61.0714 1405.7 67.4314 Q1400.15 73.7508 1390.43 73.7508 Q1380.66 73.7508 1375.11 67.4314 Q1369.6 61.0714 1369.6 49.9314 Q1369.6 38.7509 1375.11 32.4315 Q1380.66 26.1121 1390.43 26.1121 Z" fill="#000000" fill-rule="nonzero" fill-opacity="1" /><path clip-path="url(#clip420)" d="M1462.41 48.0275 L1462.41 51.6733 L1428.14 51.6733 Q1428.63 59.3701 1432.76 63.421 Q1436.93 67.4314 1444.34 67.4314 Q1448.64 67.4314 1452.65 66.3781 Q1456.7 65.3249 1460.67 63.2184 L1460.67 70.267 Q1456.66 71.9684 1452.45 72.8596 Q1448.23 73.7508 1443.9 73.7508 Q1433.04 73.7508 1426.68 67.4314 Q1420.36 61.1119 1420.36 50.3365 Q1420.36 39.1965 1426.36 32.6746 Q1432.39 26.1121 1442.6 26.1121 Q1451.76 26.1121 1457.06 32.0264 Q1462.41 37.9003 1462.41 48.0275 M1454.96 45.84 Q1454.88 39.7232 1451.51 36.0774 Q1448.19 32.4315 1442.68 32.4315 Q1436.44 32.4315 1432.68 35.9558 Q1428.95 39.4801 1428.38 45.8805 L1454.96 45.84 Z" fill="#000000" fill-rule="nonzero" fill-opacity="1" /><path clip-path="url(#clip420)" d="M1474.36 27.2059 L1481.86 27.2059 L1481.86 45.7185 L1506.04 45.7185 L1506.04 27.2059 L1513.53 27.2059 L1513.53 72.576 L1506.04 72.576 L1506.04 51.6733 L1481.86 51.6733 L1481.86 72.576 L1474.36 72.576 L1474.36 27.2059 Z" fill="#000000" fill-rule="nonzero" fill-opacity="1" /><path clip-path="url(#clip420)" d="M1567.45 27.2059 L1567.45 72.576 L1560.04 72.576 L1560.04 36.1584 L1538.16 72.576 L1528.6 72.576 L1528.6 27.2059 L1536.02 27.2059 L1536.02 63.5425 L1557.85 27.2059 L1567.45 27.2059 Z" fill="#000000" fill-rule="nonzero" fill-opacity="1" /><path clip-path="url(#clip420)" d="M1590.3 40.2903 Q1590.3 43.6525 1592.89 45.5565 Q1595.48 47.4604 1600.3 47.4604 L1610.35 47.4604 L1610.35 33.1607 L1600.3 33.1607 Q1595.48 33.1607 1592.89 35.0241 Q1590.3 36.8875 1590.3 40.2903 M1579.68 72.576 L1593.54 52.6861 Q1588.84 51.6328 1585.72 48.8782 Q1582.6 46.0831 1582.6 40.2903 Q1582.6 33.7278 1586.94 30.4871 Q1591.31 27.2059 1600.1 27.2059 L1617.84 27.2059 L1617.84 72.576 L1610.35 72.576 L1610.35 53.4152 L1601.07 53.4152 L1587.71 72.576 L1579.68 72.576 Z" fill="#000000" fill-rule="nonzero" fill-opacity="1" /><path clip-path="url(#clip420)" d="M1676.66 32.4315 Q1670.67 32.4315 1667.18 37.1306 Q1663.7 41.7891 1663.7 49.9314 Q1663.7 58.0738 1667.14 62.7728 Q1670.63 67.4314 1676.66 67.4314 Q1682.62 67.4314 1686.1 62.7323 Q1689.59 58.0333 1689.59 49.9314 Q1689.59 41.8701 1686.1 37.1711 Q1682.62 32.4315 1676.66 32.4315 M1676.66 26.1121 Q1686.39 26.1121 1691.94 32.4315 Q1697.48 38.7509 1697.48 49.9314 Q1697.48 61.0714 1691.94 67.4314 Q1686.39 73.7508 1676.66 73.7508 Q1666.9 73.7508 1661.35 67.4314 Q1655.84 61.0714 1655.84 49.9314 Q1655.84 38.7509 1661.35 32.4315 Q1666.9 26.1121 1676.66 26.1121 Z" fill="#000000" fill-rule="nonzero" fill-opacity="1" /><path clip-path="url(#clip420)" d="M1704.45 27.2059 L1747.92 27.2059 L1747.92 33.1607 L1729.85 33.1607 L1729.85 72.576 L1722.52 72.576 L1722.52 33.1607 L1704.45 33.1607 L1704.45 27.2059 Z" fill="#000000" fill-rule="nonzero" fill-opacity="1" /><path clip-path="url(#clip420)" d="M1810.99 51.4708 L1809.21 42.1132 Q1807.39 32.5126 1800.18 32.5126 Q1794.75 32.5126 1792.28 36.9686 Q1789.16 42.5588 1789.16 49.9314 Q1789.16 58.8434 1792.19 63.0969 Q1795.27 67.4314 1800.18 67.4314 Q1805.6 67.4314 1808.52 58.8029 L1810.99 51.4708 M1815.16 39.075 L1819.17 27.2059 L1825.82 27.2059 L1817.51 51.7949 L1819.13 60.6663 Q1819.5 62.6513 1820.92 64.3122 Q1822.58 66.2566 1823.87 66.2566 L1827.44 66.2566 L1827.44 72.576 L1822.98 72.576 Q1819.17 72.576 1815.77 69.1732 Q1814.11 67.4719 1813.42 63.9071 Q1811.56 68.4036 1807.75 71.9279 Q1805.97 73.5887 1800.18 73.5887 Q1790.66 73.5887 1786.04 67.4314 Q1781.3 61.0714 1781.3 49.9314 Q1781.3 38.0218 1786.44 32.4315 Q1792.15 26.1931 1800.18 26.1931 Q1812.77 26.1931 1815.16 39.075 Z" fill="#000000" fill-rule="nonzero" fill-opacity="1" /><circle clip-path="url(#clip421)" cx="228.053" cy="169.752" r="28.8" fill="#ff0000" fill-rule="evenodd" fill-opacity="1" stroke="#000000" stroke-opacity="1" stroke-width="3.072"/>
<circle clip-path="url(#clip421)" cx="582.897" cy="1013.8" r="28.8" fill="#ff0000" fill-rule="evenodd" fill-opacity="1" stroke="#000000" stroke-opacity="1" stroke-width="3.072"/>
<circle clip-path="url(#clip421)" cx="937.742" cy="1182.61" r="28.8" fill="#ff0000" fill-rule="evenodd" fill-opacity="1" stroke="#000000" stroke-opacity="1" stroke-width="3.072"/>
<circle clip-path="url(#clip421)" cx="1470.01" cy="1277.57" r="28.8" fill="#ff0000" fill-rule="evenodd" fill-opacity="1" stroke="#000000" stroke-opacity="1" stroke-width="3.072"/>
<circle clip-path="url(#clip421)" cx="1824.85" cy="1309.22" r="28.8" fill="#ff0000" fill-rule="evenodd" fill-opacity="1" stroke="#000000" stroke-opacity="1" stroke-width="3.072"/>
<polyline clip-path="url(#clip421)" style="stroke:#0000ff; stroke-linecap:round; stroke-linejoin:round; stroke-width:8; stroke-opacity:1; fill:none" stroke-dasharray="32, 20" points="228.053,169.752 245.795,284.85 263.538,380.765 281.28,461.923 299.022,531.488 316.764,591.777 334.506,644.53 352.249,691.077 369.991,732.452 387.733,769.472 405.475,802.79 423.217,832.934 440.96,860.339 458.702,885.36 476.444,908.296 494.186,929.397 511.929,948.875 529.671,966.911 547.413,983.658 565.155,999.25 582.897,1013.8 600.64,1027.42 618.382,1040.18 636.124,1052.17 653.866,1063.45 671.608,1074.09 689.351,1084.14 707.093,1093.64 724.835,1102.65 742.577,1111.19 760.319,1119.31 778.062,1127.03 795.804,1134.38 813.546,1141.39 831.288,1148.08 849.03,1154.48 866.773,1160.59 884.515,1166.45 902.257,1172.06 919.999,1177.44 937.742,1182.61 955.484,1187.58 973.226,1192.35 990.968,1196.95 1008.71,1201.37 1026.45,1205.63 1044.19,1209.74 1061.94,1213.71 1079.68,1217.54 1097.42,1221.24 1115.16,1224.81 1132.91,1228.27 1150.65,1231.62 1168.39,1234.86 1186.13,1238 1203.87,1241.05 1221.62,1244 1239.36,1246.86 1257.1,1249.64 1274.84,1252.34 1292.59,1254.96 1310.33,1257.51 1328.07,1259.98 1345.81,1262.39 1363.55,1264.74 1381.3,1267.02 1399.04,1269.24 1416.78,1271.4 1434.52,1273.51 1452.27,1275.56 1470.01,1277.57 1487.75,1279.52 1505.49,1281.43 1523.23,1283.29 1540.98,1285.1 1558.72,1286.88 1576.46,1288.61 1594.2,1290.3 1611.95,1291.96 1629.69,1293.57 1647.43,1295.15 1665.17,1296.7 1682.91,1298.21 1700.66,1299.69 1718.4,1301.14 1736.14,1302.56 1753.88,1303.94 1771.63,1305.3 1789.37,1306.64 1807.11,1307.94 1824.85,1309.22 "/>
<path clip-path="url(#clip420)" d="M1146.8 331.349 L1816.34 331.349 L1816.34 175.829 L1146.8 175.829  Z" fill="#ffffff" fill-rule="evenodd" fill-opacity="1"/>
<polyline clip-path="url(#clip420)" style="stroke:#000000; stroke-linecap:round; stroke-linejoin:round; stroke-width:4; stroke-opacity:1; fill:none" points="1146.8,331.349 1816.34,331.349 1816.34,175.829 1146.8,175.829 1146.8,331.349 "/>
<circle clip-path="url(#clip420)" cx="1222.03" cy="227.669" r="21.6847" fill="#ff0000" fill-rule="evenodd" fill-opacity="1" stroke="#000000" stroke-opacity="1" stroke-width="2.31304"/>
<path clip-path="url(#clip420)" d="M1316.35 244.949 L1316.35 230.783 L1306.7 230.783 Q1302.39 230.783 1299.82 228.098 Q1297.25 225.389 1297.25 219.88 L1297.25 210.389 L1301.91 210.389 L1301.91 219.51 Q1301.91 223.19 1303.34 225.019 Q1304.78 226.848 1307.65 226.848 L1316.35 226.848 L1316.35 210.389 L1321.05 210.389 L1321.05 244.949 L1316.35 244.949 Z" fill="#000000" fill-rule="nonzero" fill-opacity="1" /><path clip-path="url(#clip420)" d="M1352.21 219.024 L1352.21 244.949 L1347.97 244.949 L1347.97 224.139 L1335.47 244.949 L1330.01 244.949 L1330.01 219.024 L1334.24 219.024 L1334.24 239.787 L1346.72 219.024 L1352.21 219.024 Z" fill="#000000" fill-rule="nonzero" fill-opacity="1" /><path clip-path="url(#clip420)" d="M1379.64 220.019 L1379.64 224 Q1377.83 223.005 1376 222.519 Q1374.2 222.01 1372.35 222.01 Q1368.2 222.01 1365.91 224.648 Q1363.62 227.264 1363.62 232.01 Q1363.62 236.755 1365.91 239.394 Q1368.2 242.01 1372.35 242.01 Q1374.2 242.01 1376 241.523 Q1377.83 241.014 1379.64 240.019 L1379.64 243.954 Q1377.86 244.787 1375.93 245.204 Q1374.04 245.621 1371.88 245.621 Q1366.03 245.621 1362.58 241.94 Q1359.13 238.26 1359.13 232.01 Q1359.13 225.667 1362.6 222.033 Q1366.1 218.399 1372.16 218.399 Q1374.13 218.399 1376 218.815 Q1377.88 219.209 1379.64 220.019 Z" fill="#000000" fill-rule="nonzero" fill-opacity="1" /><path clip-path="url(#clip420)" d="M1384.34 244.949 L1384.34 241.408 Q1388.55 240.76 1389.85 237.843 Q1391.42 233.746 1391.42 223.26 L1391.42 219.024 L1408.94 219.024 L1408.94 244.949 L1404.68 244.949 L1404.68 222.426 L1395.68 222.426 L1395.68 224.996 Q1395.68 234.996 1393.64 239.486 Q1391.47 244.278 1384.34 244.949 Z" fill="#000000" fill-rule="nonzero" fill-opacity="1" /><path clip-path="url(#clip420)" d="M1439.52 230.922 L1439.52 233.005 L1419.94 233.005 Q1420.22 237.403 1422.58 239.718 Q1424.96 242.01 1429.2 242.01 Q1431.65 242.01 1433.94 241.408 Q1436.26 240.806 1438.53 239.602 L1438.53 243.63 Q1436.23 244.602 1433.83 245.111 Q1431.42 245.621 1428.94 245.621 Q1422.74 245.621 1419.11 242.01 Q1415.49 238.398 1415.49 232.241 Q1415.49 225.875 1418.92 222.149 Q1422.37 218.399 1428.2 218.399 Q1433.43 218.399 1436.47 221.778 Q1439.52 225.135 1439.52 230.922 M1435.26 229.672 Q1435.22 226.176 1433.29 224.093 Q1431.4 222.01 1428.25 222.01 Q1424.68 222.01 1422.53 224.024 Q1420.4 226.037 1420.08 229.695 L1435.26 229.672 Z" fill="#000000" fill-rule="nonzero" fill-opacity="1" /><path clip-path="url(#clip420)" d="M1446.35 219.024 L1450.63 219.024 L1450.63 229.602 L1464.45 229.602 L1464.45 219.024 L1468.73 219.024 L1468.73 244.949 L1464.45 244.949 L1464.45 233.005 L1450.63 233.005 L1450.63 244.949 L1446.35 244.949 L1446.35 219.024 Z" fill="#000000" fill-rule="nonzero" fill-opacity="1" /><path clip-path="url(#clip420)" d="M1477.35 219.024 L1481.63 219.024 L1481.63 229.602 L1495.45 229.602 L1495.45 219.024 L1499.73 219.024 L1499.73 244.949 L1495.45 244.949 L1495.45 233.005 L1481.63 233.005 L1481.63 244.949 L1477.35 244.949 L1477.35 219.024 Z" fill="#000000" fill-rule="nonzero" fill-opacity="1" /><path clip-path="url(#clip420)" d="M1518.55 222.01 Q1515.12 222.01 1513.13 224.695 Q1511.14 227.357 1511.14 232.01 Q1511.14 236.662 1513.11 239.347 Q1515.1 242.01 1518.55 242.01 Q1521.95 242.01 1523.94 239.324 Q1525.93 236.639 1525.93 232.01 Q1525.93 227.403 1523.94 224.718 Q1521.95 222.01 1518.55 222.01 M1518.55 218.399 Q1524.1 218.399 1527.28 222.01 Q1530.45 225.621 1530.45 232.01 Q1530.45 238.375 1527.28 242.01 Q1524.1 245.621 1518.55 245.621 Q1512.97 245.621 1509.8 242.01 Q1506.65 238.375 1506.65 232.01 Q1506.65 225.621 1509.8 222.01 Q1512.97 218.399 1518.55 218.399 Z" fill="#000000" fill-rule="nonzero" fill-opacity="1" /><path clip-path="url(#clip420)" d="M1559.68 230.922 L1559.68 233.005 L1540.1 233.005 Q1540.38 237.403 1542.74 239.718 Q1545.12 242.01 1549.36 242.01 Q1551.81 242.01 1554.1 241.408 Q1556.42 240.806 1558.69 239.602 L1558.69 243.63 Q1556.4 244.602 1553.99 245.111 Q1551.58 245.621 1549.1 245.621 Q1542.9 245.621 1539.27 242.01 Q1535.66 238.398 1535.66 232.241 Q1535.66 225.875 1539.08 222.149 Q1542.53 218.399 1548.36 218.399 Q1553.6 218.399 1556.63 221.778 Q1559.68 225.135 1559.68 230.922 M1555.42 229.672 Q1555.38 226.176 1553.46 224.093 Q1551.56 222.01 1548.41 222.01 Q1544.85 222.01 1542.69 224.024 Q1540.56 226.037 1540.24 229.695 L1555.42 229.672 Z" fill="#000000" fill-rule="nonzero" fill-opacity="1" /><path clip-path="url(#clip420)" d="M1585.86 241.06 L1585.86 254.81 L1581.58 254.81 L1581.58 219.024 L1585.86 219.024 L1585.86 222.959 Q1587.21 220.644 1589.24 219.533 Q1591.3 218.399 1594.15 218.399 Q1598.87 218.399 1601.81 222.149 Q1604.78 225.898 1604.78 232.01 Q1604.78 238.121 1601.81 241.871 Q1598.87 245.621 1594.15 245.621 Q1591.3 245.621 1589.24 244.51 Q1587.21 243.375 1585.86 241.06 M1600.35 232.01 Q1600.35 227.311 1598.41 224.648 Q1596.49 221.963 1593.11 221.963 Q1589.73 221.963 1587.78 224.648 Q1585.86 227.311 1585.86 232.01 Q1585.86 236.709 1587.78 239.394 Q1589.73 242.056 1593.11 242.056 Q1596.49 242.056 1598.41 239.394 Q1600.35 236.709 1600.35 232.01 Z" fill="#000000" fill-rule="nonzero" fill-opacity="1" /><path clip-path="url(#clip420)" d="M1634.01 230.922 L1634.01 233.005 L1614.43 233.005 Q1614.71 237.403 1617.07 239.718 Q1619.45 242.01 1623.69 242.01 Q1626.14 242.01 1628.43 241.408 Q1630.75 240.806 1633.02 239.602 L1633.02 243.63 Q1630.72 244.602 1628.32 245.111 Q1625.91 245.621 1623.43 245.621 Q1617.23 245.621 1613.59 242.01 Q1609.98 238.398 1609.98 232.241 Q1609.98 225.875 1613.41 222.149 Q1616.86 218.399 1622.69 218.399 Q1627.92 218.399 1630.96 221.778 Q1634.01 225.135 1634.01 230.922 M1629.75 229.672 Q1629.71 226.176 1627.78 224.093 Q1625.89 222.01 1622.74 222.01 Q1619.17 222.01 1617.02 224.024 Q1614.89 226.037 1614.57 229.695 L1629.75 229.672 Z" fill="#000000" fill-rule="nonzero" fill-opacity="1" /><path clip-path="url(#clip420)" d="M1660.35 241.547 L1671.33 241.547 L1671.33 219.024 L1675.61 219.024 L1675.61 244.949 L1640.84 244.949 L1640.84 219.024 L1645.12 219.024 L1645.12 241.547 L1656.07 241.547 L1656.07 219.024 L1660.35 219.024 L1660.35 241.547 Z" fill="#000000" fill-rule="nonzero" fill-opacity="1" /><path clip-path="url(#clip420)" d="M1706.56 230.922 L1706.56 233.005 L1686.97 233.005 Q1687.25 237.403 1689.61 239.718 Q1692 242.01 1696.23 242.01 Q1698.69 242.01 1700.98 241.408 Q1703.29 240.806 1705.56 239.602 L1705.56 243.63 Q1703.27 244.602 1700.86 245.111 Q1698.46 245.621 1695.98 245.621 Q1689.77 245.621 1686.14 242.01 Q1682.53 238.398 1682.53 232.241 Q1682.53 225.875 1685.96 222.149 Q1689.4 218.399 1695.24 218.399 Q1700.47 218.399 1703.5 221.778 Q1706.56 225.135 1706.56 230.922 M1702.3 229.672 Q1702.25 226.176 1700.33 224.093 Q1698.43 222.01 1695.28 222.01 Q1691.72 222.01 1689.57 224.024 Q1687.44 226.037 1687.11 229.695 L1702.3 229.672 Z" fill="#000000" fill-rule="nonzero" fill-opacity="1" /><path clip-path="url(#clip420)" d="M1713.39 219.024 L1717.67 219.024 L1717.67 229.602 L1731.49 229.602 L1731.49 219.024 L1735.77 219.024 L1735.77 244.949 L1731.49 244.949 L1731.49 233.005 L1717.67 233.005 L1717.67 244.949 L1713.39 244.949 L1713.39 219.024 Z" fill="#000000" fill-rule="nonzero" fill-opacity="1" /><path clip-path="url(#clip420)" d="M1766.58 219.024 L1766.58 244.949 L1762.34 244.949 L1762.34 224.139 L1749.84 244.949 L1744.38 244.949 L1744.38 219.024 L1748.62 219.024 L1748.62 239.787 L1761.09 219.024 L1766.58 219.024 Z" fill="#000000" fill-rule="nonzero" fill-opacity="1" /><path clip-path="url(#clip420)" d="M1797.53 230.922 L1797.53 233.005 L1777.95 233.005 Q1778.22 237.403 1780.58 239.718 Q1782.97 242.01 1787.2 242.01 Q1789.66 242.01 1791.95 241.408 Q1794.27 240.806 1796.53 239.602 L1796.53 243.63 Q1794.24 244.602 1791.83 245.111 Q1789.43 245.621 1786.95 245.621 Q1780.75 245.621 1777.11 242.01 Q1773.5 238.398 1773.5 232.241 Q1773.5 225.875 1776.93 222.149 Q1780.38 218.399 1786.21 218.399 Q1791.44 218.399 1794.47 221.778 Q1797.53 225.135 1797.53 230.922 M1793.27 229.672 Q1793.22 226.176 1791.3 224.093 Q1789.4 222.01 1786.26 222.01 Q1782.69 222.01 1780.54 224.024 Q1778.41 226.037 1778.08 229.695 L1793.27 229.672 Z" fill="#000000" fill-rule="nonzero" fill-opacity="1" /><polyline clip-path="url(#clip420)" style="stroke:#0000ff; stroke-linecap:round; stroke-linejoin:round; stroke-width:8; stroke-opacity:1; fill:none" stroke-dasharray="32, 20" points="1165.61,279.509 1278.45,279.509 "/>
<path clip-path="url(#clip420)" d="M1297.25 262.229 L1326.49 262.229 L1326.49 266.164 L1314.22 266.164 L1314.22 296.789 L1309.52 296.789 L1309.52 266.164 L1297.25 266.164 L1297.25 262.229 Z" fill="#000000" fill-rule="nonzero" fill-opacity="1" /><path clip-path="url(#clip420)" d="M1352.99 282.762 L1352.99 284.845 L1333.41 284.845 Q1333.69 289.243 1336.05 291.558 Q1338.43 293.85 1342.67 293.85 Q1345.12 293.85 1347.42 293.248 Q1349.73 292.646 1352 291.442 L1352 295.47 Q1349.71 296.442 1347.3 296.951 Q1344.89 297.461 1342.42 297.461 Q1336.21 297.461 1332.58 293.85 Q1328.97 290.238 1328.97 284.081 Q1328.97 277.715 1332.39 273.989 Q1335.84 270.239 1341.67 270.239 Q1346.91 270.239 1349.94 273.618 Q1352.99 276.975 1352.99 282.762 M1348.74 281.512 Q1348.69 278.016 1346.77 275.933 Q1344.87 273.85 1341.72 273.85 Q1338.16 273.85 1336 275.864 Q1333.87 277.877 1333.55 281.535 L1348.74 281.512 Z" fill="#000000" fill-rule="nonzero" fill-opacity="1" /><path clip-path="url(#clip420)" d="M1370.03 273.85 Q1366.61 273.85 1364.61 276.535 Q1362.62 279.197 1362.62 283.85 Q1362.62 288.502 1364.59 291.187 Q1366.58 293.85 1370.03 293.85 Q1373.43 293.85 1375.42 291.164 Q1377.42 288.479 1377.42 283.85 Q1377.42 279.243 1375.42 276.558 Q1373.43 273.85 1370.03 273.85 M1370.03 270.239 Q1375.59 270.239 1378.76 273.85 Q1381.93 277.461 1381.93 283.85 Q1381.93 290.215 1378.76 293.85 Q1375.59 297.461 1370.03 297.461 Q1364.45 297.461 1361.28 293.85 Q1358.13 290.215 1358.13 283.85 Q1358.13 277.461 1361.28 273.85 Q1364.45 270.239 1370.03 270.239 Z" fill="#000000" fill-rule="nonzero" fill-opacity="1" /><path clip-path="url(#clip420)" d="M1393.11 292.9 L1393.11 306.65 L1388.83 306.65 L1388.83 270.864 L1393.11 270.864 L1393.11 274.799 Q1394.45 272.484 1396.49 271.373 Q1398.55 270.239 1401.4 270.239 Q1406.12 270.239 1409.06 273.989 Q1412.02 277.738 1412.02 283.85 Q1412.02 289.961 1409.06 293.711 Q1406.12 297.461 1401.4 297.461 Q1398.55 297.461 1396.49 296.35 Q1394.45 295.215 1393.11 292.9 M1407.6 283.85 Q1407.6 279.151 1405.66 276.488 Q1403.73 273.803 1400.36 273.803 Q1396.98 273.803 1395.03 276.488 Q1393.11 279.151 1393.11 283.85 Q1393.11 288.549 1395.03 291.234 Q1396.98 293.896 1400.36 293.896 Q1403.73 293.896 1405.66 291.234 Q1407.6 288.549 1407.6 283.85 Z" fill="#000000" fill-rule="nonzero" fill-opacity="1" /><path clip-path="url(#clip420)" d="M1441.12 270.864 L1441.12 296.789 L1436.88 296.789 L1436.88 275.979 L1424.38 296.789 L1418.92 296.789 L1418.92 270.864 L1423.16 270.864 L1423.16 291.627 L1435.63 270.864 L1441.12 270.864 Z" fill="#000000" fill-rule="nonzero" fill-opacity="1" /><path clip-path="url(#clip420)" d="M1454.17 278.34 Q1454.17 280.262 1455.66 281.35 Q1457.14 282.438 1459.89 282.438 L1465.63 282.438 L1465.63 274.266 L1459.89 274.266 Q1457.14 274.266 1455.66 275.331 Q1454.17 276.396 1454.17 278.34 M1448.11 296.789 L1456.03 285.424 Q1453.34 284.822 1451.56 283.248 Q1449.78 281.651 1449.78 278.34 Q1449.78 274.59 1452.25 272.739 Q1454.75 270.864 1459.78 270.864 L1469.91 270.864 L1469.91 296.789 L1465.63 296.789 L1465.63 285.84 L1460.33 285.84 L1452.69 296.789 L1448.11 296.789 Z" fill="#000000" fill-rule="nonzero" fill-opacity="1" /><path clip-path="url(#clip420)" d="M1479.5 290.91 L1484.38 290.91 L1484.38 296.789 L1479.5 296.789 L1479.5 290.91 M1479.5 272.276 L1484.38 272.276 L1484.38 278.155 L1479.5 278.155 L1479.5 272.276 Z" fill="#000000" fill-rule="nonzero" fill-opacity="1" /><path clip-path="url(#clip420)" d="M1513.66 263.502 L1513.66 270.864 L1522.44 270.864 L1522.44 274.174 L1513.66 274.174 L1513.66 288.248 Q1513.66 291.419 1514.52 292.322 Q1515.4 293.225 1518.06 293.225 L1522.44 293.225 L1522.44 296.789 L1518.06 296.789 Q1513.13 296.789 1511.26 294.961 Q1509.38 293.109 1509.38 288.248 L1509.38 274.174 L1506.26 274.174 L1506.26 270.864 L1509.38 270.864 L1509.38 263.502 L1513.66 263.502 Z" fill="#000000" fill-rule="nonzero" fill-opacity="1" /><path clip-path="url(#clip420)" d="M1529.78 294.15 L1539.59 294.15 L1539.59 296.789 L1525.75 296.789 L1525.75 294.243 Q1526.54 293.525 1527.99 292.229 Q1535.96 285.169 1535.96 282.993 Q1535.96 281.465 1534.75 280.539 Q1533.55 279.59 1531.58 279.59 Q1530.38 279.59 1528.97 280.007 Q1527.55 280.401 1525.89 281.211 L1525.89 278.363 Q1527.67 277.715 1529.2 277.391 Q1530.75 277.067 1532.07 277.067 Q1535.42 277.067 1537.44 278.595 Q1539.45 280.123 1539.45 282.623 Q1539.45 285.84 1531.79 292.414 Q1530.49 293.525 1529.78 294.15 Z" fill="#000000" fill-rule="nonzero" fill-opacity="1" /><path clip-path="url(#clip420)" d="M1562.67 275.262 L1592.34 275.262 L1592.34 279.151 L1562.67 279.151 L1562.67 275.262 M1562.67 284.706 L1592.34 284.706 L1592.34 288.641 L1562.67 288.641 L1562.67 284.706 Z" fill="#000000" fill-rule="nonzero" fill-opacity="1" /><path clip-path="url(#clip420)" d="M1616.9 260.771 L1621.16 260.771 L1621.16 296.789 L1616.9 296.789 L1616.9 260.771 Z" fill="#000000" fill-rule="nonzero" fill-opacity="1" /><path clip-path="url(#clip420)" d="M1651.63 281.141 L1651.63 296.789 L1647.37 296.789 L1647.37 281.28 Q1647.37 277.6 1645.93 275.771 Q1644.5 273.942 1641.63 273.942 Q1638.18 273.942 1636.19 276.141 Q1634.2 278.34 1634.2 282.137 L1634.2 296.789 L1629.91 296.789 L1629.91 270.864 L1634.2 270.864 L1634.2 274.891 Q1635.72 272.553 1637.78 271.396 Q1639.87 270.239 1642.58 270.239 Q1647.04 270.239 1649.34 273.016 Q1651.63 275.771 1651.63 281.141 Z" fill="#000000" fill-rule="nonzero" fill-opacity="1" /><path clip-path="url(#clip420)" d="M1670.35 260.817 Q1667.25 266.141 1665.75 271.35 Q1664.24 276.558 1664.24 281.905 Q1664.24 287.252 1665.75 292.507 Q1667.28 297.738 1670.35 303.039 L1666.65 303.039 Q1663.18 297.599 1661.44 292.345 Q1659.73 287.09 1659.73 281.905 Q1659.73 276.743 1661.44 271.512 Q1663.15 266.28 1666.65 260.817 L1670.35 260.817 Z" fill="#000000" fill-rule="nonzero" fill-opacity="1" /><path clip-path="url(#clip420)" d="M1683.25 292.854 L1699.57 292.854 L1699.57 296.789 L1677.62 296.789 L1677.62 292.854 Q1680.28 290.1 1684.87 285.47 Q1689.47 280.817 1690.65 279.475 Q1692.9 276.951 1693.78 275.215 Q1694.68 273.456 1694.68 271.766 Q1694.68 269.012 1692.74 267.276 Q1690.82 265.539 1687.71 265.539 Q1685.52 265.539 1683.06 266.303 Q1680.63 267.067 1677.85 268.618 L1677.85 263.896 Q1680.68 262.762 1683.13 262.183 Q1685.59 261.604 1687.62 261.604 Q1692.99 261.604 1696.19 264.289 Q1699.38 266.975 1699.38 271.465 Q1699.38 273.595 1698.57 275.516 Q1697.78 277.414 1695.68 280.007 Q1695.1 280.678 1692 283.896 Q1688.9 287.09 1683.25 292.854 Z" fill="#000000" fill-rule="nonzero" fill-opacity="1" /><path clip-path="url(#clip420)" d="M1708.11 260.817 L1711.81 260.817 Q1715.28 266.28 1717 271.512 Q1718.73 276.743 1718.73 281.905 Q1718.73 287.09 1717 292.345 Q1715.28 297.599 1711.81 303.039 L1708.11 303.039 Q1711.19 297.738 1712.69 292.507 Q1714.22 287.252 1714.22 281.905 Q1714.22 276.558 1712.69 271.35 Q1711.19 266.141 1708.11 260.817 Z" fill="#000000" fill-rule="nonzero" fill-opacity="1" /><path clip-path="url(#clip420)" d="M1734.84 262.229 L1738.78 262.229 L1726.74 301.187 L1722.81 301.187 L1734.84 262.229 Z" fill="#000000" fill-rule="nonzero" fill-opacity="1" /><path clip-path="url(#clip420)" d="M1758.36 284.729 L1757.34 279.382 Q1756.3 273.896 1752.18 273.896 Q1749.08 273.896 1747.67 276.442 Q1745.89 279.637 1745.89 283.85 Q1745.89 288.942 1747.62 291.373 Q1749.38 293.85 1752.18 293.85 Q1755.28 293.85 1756.95 288.919 L1758.36 284.729 M1760.75 277.646 L1763.04 270.864 L1766.83 270.864 L1762.09 284.914 L1763.02 289.984 Q1763.22 291.118 1764.03 292.067 Q1764.98 293.178 1765.72 293.178 L1767.76 293.178 L1767.76 296.789 L1765.21 296.789 Q1763.04 296.789 1761.09 294.845 Q1760.14 293.873 1759.75 291.836 Q1758.69 294.405 1756.51 296.419 Q1755.49 297.368 1752.18 297.368 Q1746.74 297.368 1744.1 293.85 Q1741.39 290.215 1741.39 283.85 Q1741.39 277.044 1744.33 273.85 Q1747.6 270.285 1752.18 270.285 Q1759.38 270.285 1760.75 277.646 Z" fill="#000000" fill-rule="nonzero" fill-opacity="1" /></svg>
