<?xml version="1.0" encoding="utf-8"?>
<svg xmlns="http://www.w3.org/2000/svg" xmlns:xlink="http://www.w3.org/1999/xlink" width="480" height="384" viewBox="0 0 1920 1536">
<defs>
  <clipPath id="clip110">
    <rect x="0" y="0" width="1920" height="1536"/>
  </clipPath>
</defs>
<path clip-path="url(#clip110)" d="M0 1536 L1920 1536 L1920 0 L0 0  Z" fill="#ffffff" fill-rule="evenodd" fill-opacity="1"/>
<defs>
  <clipPath id="clip111">
    <rect x="384" y="0" width="1345" height="1345"/>
  </clipPath>
</defs>
<path clip-path="url(#clip110)" d="M208.668 1343.4 L1872.76 1343.4 L1872.76 135.568 L208.668 135.568  Z" fill="#ffffff" fill-rule="evenodd" fill-opacity="1"/>
<defs>
  <clipPath id="clip112">
    <rect x="208" y="135" width="1665" height="1209"/>
  </clipPath>
</defs>
<polyline clip-path="url(#clip112)" style="stroke:#000000; stroke-linecap:round; stroke-linejoin:round; stroke-width:2; stroke-opacity:0.1; fill:none" points="255.764,1343.4 255.764,135.568 "/>
<polyline clip-path="url(#clip112)" style="stroke:#000000; stroke-linecap:round; stroke-linejoin:round; stroke-width:2; stroke-opacity:0.1; fill:none" points="648.238,1343.4 648.238,135.568 "/>
<polyline clip-path="url(#clip112)" style="stroke:#000000; stroke-linecap:round; stroke-linejoin:round; stroke-width:2; stroke-opacity:0.1; fill:none" points="1040.71,1343.4 1040.71,135.568 "/>
<polyline clip-path="url(#clip112)" style="stroke:#000000; stroke-linecap:round; stroke-linejoin:round; stroke-width:2; stroke-opacity:0.1; fill:none" points="1433.19,1343.4 1433.19,135.568 "/>
<polyline clip-path="url(#clip112)" style="stroke:#000000; stroke-linecap:round; stroke-linejoin:round; stroke-width:2; stroke-opacity:0.1; fill:none" points="1825.66,1343.4 1825.66,135.568 "/>
<polyline clip-path="url(#clip112)" style="stroke:#000000; stroke-linecap:round; stroke-linejoin:round; stroke-width:2; stroke-opacity:0.1; fill:none" points="208.668,1070.41 1872.76,1070.41 "/>
<polyline clip-path="url(#clip112)" style="stroke:#000000; stroke-linecap:round; stroke-linejoin:round; stroke-width:2; stroke-opacity:0.1; fill:none" points="208.668,771.889 1872.76,771.889 "/>
<polyline clip-path="url(#clip112)" style="stroke:#000000; stroke-linecap:round; stroke-linejoin:round; stroke-width:2; stroke-opacity:0.1; fill:none" points="208.668,473.371 1872.76,473.371 "/>
<polyline clip-path="url(#clip112)" style="stroke:#000000; stroke-linecap:round; stroke-linejoin:round; stroke-width:2; stroke-opacity:0.1; fill:none" points="208.668,174.854 1872.76,174.854 "/>
<polyline clip-path="url(#clip110)" style="stroke:#000000; stroke-linecap:round; stroke-linejoin:round; stroke-width:4; stroke-opacity:1; fill:none" points="208.668,1343.4 1872.76,1343.4 "/>
<polyline clip-path="url(#clip110)" style="stroke:#000000; stroke-linecap:round; stroke-linejoin:round; stroke-width:4; stroke-opacity:1; fill:none" points="255.764,1343.4 255.764,1324.51 "/>
<polyline clip-path="url(#clip110)" style="stroke:#000000; stroke-linecap:round; stroke-linejoin:round; stroke-width:4; stroke-opacity:1; fill:none" points="648.238,1343.4 648.238,1324.51 "/>
<polyline clip-path="url(#clip110)" style="stroke:#000000; stroke-linecap:round; stroke-linejoin:round; stroke-width:4; stroke-opacity:1; fill:none" points="1040.71,1343.4 1040.71,1324.51 "/>
<polyline clip-path="url(#clip110)" style="stroke:#000000; stroke-linecap:round; stroke-linejoin:round; stroke-width:4; stroke-opacity:1; fill:none" points="1433.19,1343.4 1433.19,1324.51 "/>
<polyline clip-path="url(#clip110)" style="stroke:#000000; stroke-linecap:round; stroke-linejoin:round; stroke-width:4; stroke-opacity:1; fill:none" points="1825.66,1343.4 1825.66,1324.51 "/>
<path clip-path="url(#clip110)" d="M233.149 1370.48 Q229.538 1370.48 227.709 1374.05 Q225.903 1377.59 225.903 1384.72 Q225.903 1391.83 227.709 1395.39 Q229.538 1398.93 233.149 1398.93 Q236.783 1398.93 238.589 1395.39 Q240.417 1391.83 240.417 1384.72 Q240.417 1377.59 238.589 1374.05 Q236.783 1370.48 233.149 1370.48 M233.149 1366.78 Q238.959 1366.78 242.014 1371.39 Q245.093 1375.97 245.093 1384.72 Q245.093 1393.45 242.014 1398.05 Q238.959 1402.64 233.149 1402.64 Q227.339 1402.64 224.26 1398.05 Q221.204 1393.45 221.204 1384.72 Q221.204 1375.97 224.26 1371.39 Q227.339 1366.78 233.149 1366.78 Z" fill="#000000" fill-rule="nonzero" fill-opacity="1" /><path clip-path="url(#clip110)" d="M253.311 1396.08 L258.195 1396.08 L258.195 1401.96 L253.311 1401.96 L253.311 1396.08 Z" fill="#000000" fill-rule="nonzero" fill-opacity="1" /><path clip-path="url(#clip110)" d="M278.38 1370.48 Q274.769 1370.48 272.94 1374.05 Q271.135 1377.59 271.135 1384.72 Q271.135 1391.83 272.94 1395.39 Q274.769 1398.93 278.38 1398.93 Q282.014 1398.93 283.82 1395.39 Q285.649 1391.83 285.649 1384.72 Q285.649 1377.59 283.82 1374.05 Q282.014 1370.48 278.38 1370.48 M278.38 1366.78 Q284.19 1366.78 287.246 1371.39 Q290.324 1375.97 290.324 1384.72 Q290.324 1393.45 287.246 1398.05 Q284.19 1402.64 278.38 1402.64 Q272.57 1402.64 269.491 1398.05 Q266.436 1393.45 266.436 1384.72 Q266.436 1375.97 269.491 1371.39 Q272.57 1366.78 278.38 1366.78 Z" fill="#000000" fill-rule="nonzero" fill-opacity="1" /><path clip-path="url(#clip110)" d="M619.974 1398.03 L636.294 1398.03 L636.294 1401.96 L614.349 1401.96 L614.349 1398.03 Q617.011 1395.27 621.595 1390.64 Q626.201 1385.99 627.382 1384.65 Q629.627 1382.13 630.507 1380.39 Q631.409 1378.63 631.409 1376.94 Q631.409 1374.19 629.465 1372.45 Q627.544 1370.71 624.442 1370.71 Q622.243 1370.71 619.789 1371.48 Q617.359 1372.24 614.581 1373.79 L614.581 1369.07 Q617.405 1367.94 619.859 1367.36 Q622.312 1366.78 624.349 1366.78 Q629.72 1366.78 632.914 1369.46 Q636.109 1372.15 636.109 1376.64 Q636.109 1378.77 635.298 1380.69 Q634.511 1382.59 632.405 1385.18 Q631.826 1385.85 628.724 1389.07 Q625.622 1392.26 619.974 1398.03 Z" fill="#000000" fill-rule="nonzero" fill-opacity="1" /><path clip-path="url(#clip110)" d="M646.108 1396.08 L650.993 1396.08 L650.993 1401.96 L646.108 1401.96 L646.108 1396.08 Z" fill="#000000" fill-rule="nonzero" fill-opacity="1" /><path clip-path="url(#clip110)" d="M661.224 1367.4 L679.581 1367.4 L679.581 1371.34 L665.507 1371.34 L665.507 1379.81 Q666.525 1379.46 667.544 1379.3 Q668.562 1379.12 669.581 1379.12 Q675.368 1379.12 678.747 1382.29 Q682.127 1385.46 682.127 1390.88 Q682.127 1396.45 678.655 1399.56 Q675.182 1402.64 668.863 1402.64 Q666.687 1402.64 664.419 1402.26 Q662.173 1401.89 659.766 1401.15 L659.766 1396.45 Q661.849 1397.59 664.071 1398.14 Q666.294 1398.7 668.77 1398.7 Q672.775 1398.7 675.113 1396.59 Q677.451 1394.49 677.451 1390.88 Q677.451 1387.26 675.113 1385.16 Q672.775 1383.05 668.77 1383.05 Q666.895 1383.05 665.02 1383.47 Q663.169 1383.89 661.224 1384.76 L661.224 1367.4 Z" fill="#000000" fill-rule="nonzero" fill-opacity="1" /><path clip-path="url(#clip110)" d="M1007.88 1367.4 L1026.23 1367.4 L1026.23 1371.34 L1012.16 1371.34 L1012.16 1379.81 Q1013.18 1379.46 1014.2 1379.3 Q1015.21 1379.12 1016.23 1379.12 Q1022.02 1379.12 1025.4 1382.29 Q1028.78 1385.46 1028.78 1390.88 Q1028.78 1396.45 1025.31 1399.56 Q1021.83 1402.64 1015.52 1402.64 Q1013.34 1402.64 1011.07 1402.26 Q1008.83 1401.89 1006.42 1401.15 L1006.42 1396.45 Q1008.5 1397.59 1010.72 1398.14 Q1012.95 1398.7 1015.42 1398.7 Q1019.43 1398.7 1021.77 1396.59 Q1024.1 1394.49 1024.1 1390.88 Q1024.1 1387.26 1021.77 1385.16 Q1019.43 1383.05 1015.42 1383.05 Q1013.55 1383.05 1011.67 1383.47 Q1009.82 1383.89 1007.88 1384.76 L1007.88 1367.4 Z" fill="#000000" fill-rule="nonzero" fill-opacity="1" /><path clip-path="url(#clip110)" d="M1037.99 1396.08 L1042.88 1396.08 L1042.88 1401.96 L1037.99 1401.96 L1037.99 1396.08 Z" fill="#000000" fill-rule="nonzero" fill-opacity="1" /><path clip-path="url(#clip110)" d="M1063.06 1370.48 Q1059.45 1370.48 1057.62 1374.05 Q1055.82 1377.59 1055.82 1384.72 Q1055.82 1391.83 1057.62 1395.39 Q1059.45 1398.93 1063.06 1398.93 Q1066.7 1398.93 1068.5 1395.39 Q1070.33 1391.83 1070.33 1384.72 Q1070.33 1377.59 1068.5 1374.05 Q1066.7 1370.48 1063.06 1370.48 M1063.06 1366.78 Q1068.87 1366.78 1071.93 1371.39 Q1075.01 1375.97 1075.01 1384.72 Q1075.01 1393.45 1071.93 1398.05 Q1068.87 1402.64 1063.06 1402.64 Q1057.25 1402.64 1054.17 1398.05 Q1051.12 1393.45 1051.12 1384.72 Q1051.12 1375.97 1054.17 1371.39 Q1057.25 1366.78 1063.06 1366.78 Z" fill="#000000" fill-rule="nonzero" fill-opacity="1" /><path clip-path="url(#clip110)" d="M1399.51 1367.4 L1421.73 1367.4 L1421.73 1369.39 L1409.18 1401.96 L1404.3 1401.96 L1416.1 1371.34 L1399.51 1371.34 L1399.51 1367.4 Z" fill="#000000" fill-rule="nonzero" fill-opacity="1" /><path clip-path="url(#clip110)" d="M1430.85 1396.08 L1435.73 1396.08 L1435.73 1401.96 L1430.85 1401.96 L1430.85 1396.08 Z" fill="#000000" fill-rule="nonzero" fill-opacity="1" /><path clip-path="url(#clip110)" d="M1445.96 1367.4 L1464.32 1367.4 L1464.32 1371.34 L1450.25 1371.34 L1450.25 1379.81 Q1451.26 1379.46 1452.28 1379.3 Q1453.3 1379.12 1454.32 1379.12 Q1460.11 1379.12 1463.49 1382.29 Q1466.87 1385.46 1466.87 1390.88 Q1466.87 1396.45 1463.39 1399.56 Q1459.92 1402.64 1453.6 1402.64 Q1451.43 1402.64 1449.16 1402.26 Q1446.91 1401.89 1444.5 1401.15 L1444.5 1396.45 Q1446.59 1397.59 1448.81 1398.14 Q1451.03 1398.7 1453.51 1398.7 Q1457.51 1398.7 1459.85 1396.59 Q1462.19 1394.49 1462.19 1390.88 Q1462.19 1387.26 1459.85 1385.16 Q1457.51 1383.05 1453.51 1383.05 Q1451.63 1383.05 1449.76 1383.47 Q1447.91 1383.89 1445.96 1384.76 L1445.96 1367.4 Z" fill="#000000" fill-rule="nonzero" fill-opacity="1" /><path clip-path="url(#clip110)" d="M1777.73 1398.03 L1785.37 1398.03 L1785.37 1371.66 L1777.06 1373.33 L1777.06 1369.07 L1785.32 1367.4 L1790 1367.4 L1790 1398.03 L1797.64 1398.03 L1797.64 1401.96 L1777.73 1401.96 L1777.73 1398.03 Z" fill="#000000" fill-rule="nonzero" fill-opacity="1" /><path clip-path="url(#clip110)" d="M1817.08 1370.48 Q1813.47 1370.48 1811.64 1374.05 Q1809.84 1377.59 1809.84 1384.72 Q1809.84 1391.83 1811.64 1395.39 Q1813.47 1398.93 1817.08 1398.93 Q1820.72 1398.93 1822.52 1395.39 Q1824.35 1391.83 1824.35 1384.72 Q1824.35 1377.59 1822.52 1374.05 Q1820.72 1370.48 1817.08 1370.48 M1817.08 1366.78 Q1822.89 1366.78 1825.95 1371.39 Q1829.03 1375.97 1829.03 1384.72 Q1829.03 1393.45 1825.95 1398.05 Q1822.89 1402.64 1817.08 1402.64 Q1811.27 1402.64 1808.19 1398.05 Q1805.14 1393.45 1805.14 1384.72 Q1805.14 1375.97 1808.19 1371.39 Q1811.27 1366.78 1817.08 1366.78 Z" fill="#000000" fill-rule="nonzero" fill-opacity="1" /><path clip-path="url(#clip110)" d="M1837.24 1396.08 L1842.13 1396.08 L1842.13 1401.96 L1837.24 1401.96 L1837.24 1396.08 Z" fill="#000000" fill-rule="nonzero" fill-opacity="1" /><path clip-path="url(#clip110)" d="M1862.31 1370.48 Q1858.7 1370.48 1856.87 1374.05 Q1855.07 1377.59 1855.07 1384.72 Q1855.07 1391.83 1856.87 1395.39 Q1858.7 1398.93 1862.31 1398.93 Q1865.95 1398.93 1867.75 1395.39 Q1869.58 1391.83 1869.58 1384.72 Q1869.58 1377.59 1867.75 1374.05 Q1865.95 1370.48 1862.31 1370.48 M1862.31 1366.78 Q1868.12 1366.78 1871.18 1371.39 Q1874.26 1375.97 1874.26 1384.72 Q1874.26 1393.45 1871.18 1398.05 Q1868.12 1402.64 1862.31 1402.64 Q1856.5 1402.64 1853.43 1398.05 Q1850.37 1393.45 1850.37 1384.72 Q1850.37 1375.97 1853.43 1371.39 Q1856.5 1366.78 1862.31 1366.78 Z" fill="#000000" fill-rule="nonzero" fill-opacity="1" /><path clip-path="url(#clip110)" d="M910.326 1458.37 L910.326 1475.78 L920.639 1475.78 Q925.827 1475.78 928.309 1473.65 Q930.824 1471.49 930.824 1467.06 Q930.824 1462.61 928.309 1460.51 Q925.827 1458.37 920.639 1458.37 L910.326 1458.37 M910.326 1438.83 L910.326 1453.15 L919.843 1453.15 Q924.554 1453.15 926.845 1451.4 Q929.169 1449.62 929.169 1445.99 Q929.169 1442.4 926.845 1440.61 Q924.554 1438.83 919.843 1438.83 L910.326 1438.83 M903.897 1433.55 L920.32 1433.55 Q927.673 1433.55 931.651 1436.6 Q935.63 1439.66 935.63 1445.29 Q935.63 1449.65 933.593 1452.23 Q931.556 1454.81 927.609 1455.45 Q932.351 1456.46 934.961 1459.71 Q937.603 1462.93 937.603 1467.76 Q937.603 1474.13 933.275 1477.6 Q928.946 1481.07 920.957 1481.07 L903.897 1481.07 L903.897 1433.55 Z" fill="#000000" fill-rule="nonzero" fill-opacity="1" /><path clip-path="url(#clip110)" d="M954.027 1475.72 L954.027 1494.63 L948.138 1494.63 L948.138 1445.42 L954.027 1445.42 L954.027 1450.83 Q955.873 1447.65 958.674 1446.12 Q961.506 1444.56 965.421 1444.56 Q971.914 1444.56 975.957 1449.72 Q980.031 1454.87 980.031 1463.28 Q980.031 1471.68 975.957 1476.83 Q971.914 1481.99 965.421 1481.99 Q961.506 1481.99 958.674 1480.46 Q955.873 1478.9 954.027 1475.72 M973.951 1463.28 Q973.951 1456.81 971.278 1453.15 Q968.636 1449.46 963.989 1449.46 Q959.342 1449.46 956.668 1453.15 Q954.027 1456.81 954.027 1463.28 Q954.027 1469.74 956.668 1473.43 Q959.342 1477.09 963.989 1477.09 Q968.636 1477.09 971.278 1473.43 Q973.951 1469.74 973.951 1463.28 Z" fill="#000000" fill-rule="nonzero" fill-opacity="1" /><path clip-path="url(#clip110)" d="M1020.23 1461.78 L1020.23 1464.64 L993.303 1464.64 Q993.685 1470.69 996.932 1473.87 Q1000.21 1477.03 1006.03 1477.03 Q1009.41 1477.03 1012.56 1476.2 Q1015.74 1475.37 1018.86 1473.72 L1018.86 1479.25 Q1015.71 1480.59 1012.4 1481.29 Q1009.09 1481.99 1005.68 1481.99 Q997.154 1481.99 992.157 1477.03 Q987.192 1472.06 987.192 1463.59 Q987.192 1454.84 991.903 1449.72 Q996.645 1444.56 1004.67 1444.56 Q1011.86 1444.56 1016.03 1449.21 Q1020.23 1453.82 1020.23 1461.78 M1014.37 1460.06 Q1014.31 1455.25 1011.67 1452.39 Q1009.06 1449.53 1004.73 1449.53 Q999.828 1449.53 996.868 1452.29 Q993.94 1455.06 993.494 1460.09 L1014.37 1460.06 Z" fill="#000000" fill-rule="nonzero" fill-opacity="1" /><path clip-path="url(#clip110)" d="M1029.62 1445.42 L1038.18 1445.42 L1048.3 1469.29 L1058.46 1445.42 L1066.95 1445.42 L1066.95 1481.07 L1061.07 1481.07 L1061.07 1451.02 L1051.23 1474.22 L1045.37 1474.22 L1035.51 1451.02 L1035.51 1481.07 L1029.62 1481.07 L1029.62 1445.42 Z" fill="#000000" fill-rule="nonzero" fill-opacity="1" /><path clip-path="url(#clip110)" d="M1084.91 1455.7 Q1084.91 1458.34 1086.94 1459.84 Q1088.98 1461.33 1092.77 1461.33 L1100.66 1461.33 L1100.66 1450.1 L1092.77 1450.1 Q1088.98 1450.1 1086.94 1451.56 Q1084.91 1453.03 1084.91 1455.7 M1076.57 1481.07 L1087.45 1465.44 Q1083.76 1464.61 1081.31 1462.45 Q1078.86 1460.25 1078.86 1455.7 Q1078.86 1450.54 1082.26 1448 Q1085.7 1445.42 1092.61 1445.42 L1106.55 1445.42 L1106.55 1481.07 L1100.66 1481.07 L1100.66 1466.01 L1093.37 1466.01 L1082.87 1481.07 L1076.57 1481.07 Z" fill="#000000" fill-rule="nonzero" fill-opacity="1" /><path clip-path="url(#clip110)" d="M1119.73 1472.98 L1126.44 1472.98 L1126.44 1478.46 L1121.22 1488.64 L1117.12 1488.64 L1119.73 1478.46 L1119.73 1472.98 Z" fill="#000000" fill-rule="nonzero" fill-opacity="1" /><path clip-path="url(#clip110)" d="M1165.46 1435.3 L1165.46 1445.42 L1177.53 1445.42 L1177.53 1449.97 L1165.46 1449.97 L1165.46 1469.32 Q1165.46 1473.68 1166.64 1474.92 Q1167.85 1476.17 1171.51 1476.17 L1177.53 1476.17 L1177.53 1481.07 L1171.51 1481.07 Q1164.73 1481.07 1162.15 1478.55 Q1159.58 1476.01 1159.58 1469.32 L1159.58 1449.97 L1155.28 1449.97 L1155.28 1445.42 L1159.58 1445.42 L1159.58 1435.3 L1165.46 1435.3 Z" fill="#000000" fill-rule="nonzero" fill-opacity="1" /><polyline clip-path="url(#clip110)" style="stroke:#000000; stroke-linecap:round; stroke-linejoin:round; stroke-width:4; stroke-opacity:1; fill:none" points="208.668,1343.4 208.668,135.568 "/>
<polyline clip-path="url(#clip110)" style="stroke:#000000; stroke-linecap:round; stroke-linejoin:round; stroke-width:4; stroke-opacity:1; fill:none" points="208.668,1070.41 227.565,1070.41 "/>
<polyline clip-path="url(#clip110)" style="stroke:#000000; stroke-linecap:round; stroke-linejoin:round; stroke-width:4; stroke-opacity:1; fill:none" points="208.668,771.889 227.565,771.889 "/>
<polyline clip-path="url(#clip110)" style="stroke:#000000; stroke-linecap:round; stroke-linejoin:round; stroke-width:4; stroke-opacity:1; fill:none" points="208.668,473.371 227.565,473.371 "/>
<polyline clip-path="url(#clip110)" style="stroke:#000000; stroke-linecap:round; stroke-linejoin:round; stroke-width:4; stroke-opacity:1; fill:none" points="208.668,174.854 227.565,174.854 "/>
<path clip-path="url(#clip110)" d="M158.965 1053.13 L177.321 1053.13 L177.321 1057.06 L163.247 1057.06 L163.247 1065.53 Q164.266 1065.19 165.284 1065.02 Q166.303 1064.84 167.321 1064.84 Q173.108 1064.84 176.488 1068.01 Q179.868 1071.18 179.868 1076.6 Q179.868 1082.18 176.395 1085.28 Q172.923 1088.36 166.604 1088.36 Q164.428 1088.36 162.159 1087.99 Q159.914 1087.62 157.507 1086.88 L157.507 1082.18 Q159.59 1083.31 161.812 1083.87 Q164.034 1084.42 166.511 1084.42 Q170.516 1084.42 172.854 1082.32 Q175.192 1080.21 175.192 1076.6 Q175.192 1072.99 172.854 1070.88 Q170.516 1068.77 166.511 1068.77 Q164.636 1068.77 162.761 1069.19 Q160.909 1069.61 158.965 1070.49 L158.965 1053.13 Z" fill="#000000" fill-rule="nonzero" fill-opacity="1" /><path clip-path="url(#clip110)" d="M128.572 785.233 L136.21 785.233 L136.21 758.868 L127.9 760.534 L127.9 756.275 L136.164 754.609 L140.84 754.609 L140.84 785.233 L148.479 785.233 L148.479 789.169 L128.572 789.169 L128.572 785.233 Z" fill="#000000" fill-rule="nonzero" fill-opacity="1" /><path clip-path="url(#clip110)" d="M167.923 757.687 Q164.312 757.687 162.483 761.252 Q160.678 764.794 160.678 771.923 Q160.678 779.03 162.483 782.594 Q164.312 786.136 167.923 786.136 Q171.557 786.136 173.363 782.594 Q175.192 779.03 175.192 771.923 Q175.192 764.794 173.363 761.252 Q171.557 757.687 167.923 757.687 M167.923 753.984 Q173.733 753.984 176.789 758.59 Q179.868 763.173 179.868 771.923 Q179.868 780.65 176.789 785.256 Q173.733 789.84 167.923 789.84 Q162.113 789.84 159.034 785.256 Q155.979 780.65 155.979 771.923 Q155.979 763.173 159.034 758.59 Q162.113 753.984 167.923 753.984 Z" fill="#000000" fill-rule="nonzero" fill-opacity="1" /><path clip-path="url(#clip110)" d="M129.567 486.716 L137.206 486.716 L137.206 460.35 L128.896 462.017 L128.896 457.758 L137.159 456.091 L141.835 456.091 L141.835 486.716 L149.474 486.716 L149.474 490.651 L129.567 490.651 L129.567 486.716 Z" fill="#000000" fill-rule="nonzero" fill-opacity="1" /><path clip-path="url(#clip110)" d="M158.965 456.091 L177.321 456.091 L177.321 460.026 L163.247 460.026 L163.247 468.498 Q164.266 468.151 165.284 467.989 Q166.303 467.804 167.321 467.804 Q173.108 467.804 176.488 470.975 Q179.868 474.147 179.868 479.563 Q179.868 485.142 176.395 488.244 Q172.923 491.322 166.604 491.322 Q164.428 491.322 162.159 490.952 Q159.914 490.582 157.507 489.841 L157.507 485.142 Q159.59 486.276 161.812 486.832 Q164.034 487.387 166.511 487.387 Q170.516 487.387 172.854 485.281 Q175.192 483.174 175.192 479.563 Q175.192 475.952 172.854 473.846 Q170.516 471.739 166.511 471.739 Q164.636 471.739 162.761 472.156 Q160.909 472.573 158.965 473.452 L158.965 456.091 Z" fill="#000000" fill-rule="nonzero" fill-opacity="1" /><path clip-path="url(#clip110)" d="M131.789 188.199 L148.108 188.199 L148.108 192.134 L126.164 192.134 L126.164 188.199 Q128.826 185.444 133.409 180.814 Q138.016 176.162 139.196 174.819 Q141.442 172.296 142.321 170.56 Q143.224 168.801 143.224 167.111 Q143.224 164.356 141.28 162.62 Q139.359 160.884 136.257 160.884 Q134.058 160.884 131.604 161.648 Q129.173 162.412 126.396 163.963 L126.396 159.24 Q129.22 158.106 131.673 157.527 Q134.127 156.949 136.164 156.949 Q141.534 156.949 144.729 159.634 Q147.923 162.319 147.923 166.81 Q147.923 168.939 147.113 170.861 Q146.326 172.759 144.22 175.351 Q143.641 176.023 140.539 179.24 Q137.437 182.435 131.789 188.199 Z" fill="#000000" fill-rule="nonzero" fill-opacity="1" /><path clip-path="url(#clip110)" d="M167.923 160.652 Q164.312 160.652 162.483 164.217 Q160.678 167.759 160.678 174.888 Q160.678 181.995 162.483 185.56 Q164.312 189.101 167.923 189.101 Q171.557 189.101 173.363 185.56 Q175.192 181.995 175.192 174.888 Q175.192 167.759 173.363 164.217 Q171.557 160.652 167.923 160.652 M167.923 156.949 Q173.733 156.949 176.789 161.555 Q179.868 166.138 179.868 174.888 Q179.868 183.615 176.789 188.222 Q173.733 192.805 167.923 192.805 Q162.113 192.805 159.034 188.222 Q155.979 183.615 155.979 174.888 Q155.979 166.138 159.034 161.555 Q162.113 156.949 167.923 156.949 Z" fill="#000000" fill-rule="nonzero" fill-opacity="1" /><path clip-path="url(#clip110)" d="M35.5882 965.309 L83.1082 965.309 L83.1082 971.739 L40.999 971.739 L40.999 995.101 L83.1082 995.101 L83.1082 1001.53 L35.5882 1001.53 L35.5882 965.309 Z" fill="#000000" fill-rule="nonzero" fill-opacity="1" /><path clip-path="url(#clip110)" d="M51.5661 938.955 Q51.5661 943.666 55.2582 946.403 Q58.9185 949.141 65.316 949.141 Q71.7135 949.141 75.4057 946.435 Q79.0659 943.698 79.0659 938.955 Q79.0659 934.277 75.3738 931.539 Q71.6817 928.802 65.316 928.802 Q58.9821 928.802 55.29 931.539 Q51.5661 934.277 51.5661 938.955 M46.6008 938.955 Q46.6008 931.317 51.5661 926.956 Q56.5313 922.596 65.316 922.596 Q74.0689 922.596 79.0659 926.956 Q84.0312 931.317 84.0312 938.955 Q84.0312 946.626 79.0659 950.987 Q74.0689 955.315 65.316 955.315 Q56.5313 955.315 51.5661 950.987 Q46.6008 946.626 46.6008 938.955 Z" fill="#000000" fill-rule="nonzero" fill-opacity="1" /><path clip-path="url(#clip110)" d="M47.4602 882.332 L83.1082 882.332 L83.1082 888.221 L52.139 888.221 L52.139 907.222 L83.1082 907.222 L83.1082 913.111 L47.4602 913.111 L47.4602 882.332 Z" fill="#000000" fill-rule="nonzero" fill-opacity="1" /><path clip-path="url(#clip110)" d="M86.4183 855.437 Q92.784 857.92 94.7256 860.275 Q96.6671 862.631 96.6671 866.577 L96.6671 871.256 L91.7655 871.256 L91.7655 867.819 Q91.7655 865.4 90.6197 864.063 Q89.4739 862.726 85.2088 861.103 L82.5352 860.052 L47.4602 874.471 L47.4602 868.264 L75.342 857.124 L47.4602 845.984 L47.4602 839.778 L86.4183 855.437 Z" fill="#000000" fill-rule="nonzero" fill-opacity="1" /><path clip-path="url(#clip110)" d="M83.1082 835.417 L78.2384 835.417 Q77.3472 829.624 73.3368 827.842 Q67.7031 825.678 53.2848 825.678 L47.4602 825.678 L47.4602 801.583 L83.1082 801.583 L83.1082 807.44 L52.139 807.44 L52.139 819.821 L55.672 819.821 Q69.4219 819.821 75.5966 822.622 Q82.1851 825.614 83.1082 835.417 Z" fill="#000000" fill-rule="nonzero" fill-opacity="1" /><path clip-path="url(#clip110)" d="M57.7408 784.141 Q60.3826 784.141 61.8785 782.104 Q63.3745 780.067 63.3745 776.28 L63.3745 768.386 L52.139 768.386 L52.139 776.28 Q52.139 780.067 53.6031 782.104 Q55.0672 784.141 57.7408 784.141 M83.1082 792.48 L67.4803 781.595 Q66.6528 785.287 64.4885 787.738 Q62.2923 790.189 57.7408 790.189 Q52.5846 790.189 50.0383 786.783 Q47.4602 783.346 47.4602 776.439 L47.4602 762.498 L83.1082 762.498 L83.1082 768.386 L68.0533 768.386 L68.0533 775.675 L83.1082 786.178 L83.1082 792.48 Z" fill="#000000" fill-rule="nonzero" fill-opacity="1" /><path clip-path="url(#clip110)" d="M83.1082 720.262 L83.1082 751.04 L47.4602 751.04 L47.4602 745.151 L78.4294 745.151 L78.4294 726.15 L47.4602 726.15 L47.4602 720.262 L78.4294 720.262 L78.4294 715.583 L92.1156 715.583 L92.1156 720.262 L83.1082 720.262 Z" fill="#000000" fill-rule="nonzero" fill-opacity="1" /><path clip-path="url(#clip110)" d="M47.4602 676.147 L83.1082 676.147 L83.1082 681.972 L54.4943 681.972 L83.1082 699.159 L83.1082 706.671 L47.4602 706.671 L47.4602 700.846 L76.0104 700.846 L47.4602 683.691 L47.4602 676.147 Z" fill="#000000" fill-rule="nonzero" fill-opacity="1" /><path clip-path="url(#clip110)" d="M57.7408 658.196 Q60.3826 658.196 61.8785 656.159 Q63.3745 654.122 63.3745 650.334 L63.3745 642.441 L52.139 642.441 L52.139 650.334 Q52.139 654.122 53.6031 656.159 Q55.0672 658.196 57.7408 658.196 M83.1082 666.535 L67.4803 655.65 Q66.6528 659.342 64.4885 661.793 Q62.2923 664.243 57.7408 664.243 Q52.5846 664.243 50.0383 660.838 Q47.4602 657.4 47.4602 650.493 L47.4602 636.553 L83.1082 636.553 L83.1082 642.441 L68.0533 642.441 L68.0533 649.73 L83.1082 660.233 L83.1082 666.535 Z" fill="#000000" fill-rule="nonzero" fill-opacity="1" /><path clip-path="url(#clip110)" d="M75.0237 623.375 L75.0237 616.66 L80.4982 616.66 L90.6833 621.88 L90.6833 625.985 L80.4982 623.375 L75.0237 623.375 Z" fill="#000000" fill-rule="nonzero" fill-opacity="1" /><path clip-path="url(#clip110)" d="M69.0399 584.035 L47.4602 584.035 L47.4602 578.179 L68.8171 578.179 Q73.8779 578.179 76.4242 576.206 Q78.9386 574.232 78.9386 570.286 Q78.9386 565.543 75.9149 562.806 Q72.8912 560.037 67.6713 560.037 L47.4602 560.037 L47.4602 554.18 L83.1082 554.18 L83.1082 560.037 L77.6336 560.037 Q80.8802 562.169 82.4716 565.002 Q84.0312 567.803 84.0312 571.527 Q84.0312 577.67 80.2118 580.853 Q76.3923 584.035 69.0399 584.035 M46.6008 569.299 L46.6008 569.299 Z" fill="#000000" fill-rule="nonzero" fill-opacity="1" /><path clip-path="url(#clip110)" d="M33.6466 528.049 Q40.9672 532.314 48.1286 534.383 Q55.29 536.452 62.6424 536.452 Q69.9948 536.452 77.2199 534.383 Q84.4131 532.282 91.7019 528.049 L91.7019 533.142 Q84.2222 537.916 76.9971 540.303 Q69.772 542.658 62.6424 542.658 Q55.5446 542.658 48.3514 540.303 Q41.1582 537.948 33.6466 533.142 L33.6466 528.049 Z" fill="#000000" fill-rule="nonzero" fill-opacity="1" /><path clip-path="url(#clip110)" d="M37.3387 510.893 L47.4602 510.893 L47.4602 498.83 L52.0117 498.83 L52.0117 510.893 L71.3634 510.893 Q75.7239 510.893 76.9653 509.716 Q78.2066 508.506 78.2066 504.846 L78.2066 498.83 L83.1082 498.83 L83.1082 504.846 Q83.1082 511.626 80.5937 514.204 Q78.0474 516.782 71.3634 516.782 L52.0117 516.782 L52.0117 521.079 L47.4602 521.079 L47.4602 516.782 L37.3387 516.782 L37.3387 510.893 Z" fill="#000000" fill-rule="nonzero" fill-opacity="1" /><path clip-path="url(#clip110)" d="M33.6466 492.051 L33.6466 486.958 Q41.1582 482.184 48.3514 479.829 Q55.5446 477.442 62.6424 477.442 Q69.772 477.442 76.9971 479.829 Q84.2222 482.184 91.7019 486.958 L91.7019 492.051 Q84.4131 487.818 77.2199 485.749 Q69.9948 483.648 62.6424 483.648 Q55.29 483.648 48.1286 485.749 Q40.9672 487.818 33.6466 492.051 Z" fill="#000000" fill-rule="nonzero" fill-opacity="1" /><path clip-path="url(#clip110)" d="M-18.8225 59.3701 Q-10.2751 67.0263 0.095209 67.0263 Q10.7896 67.0263 15.6102 61.274 Q20.4307 55.5217 21.3219 45.84 L-11.0043 45.84 L-11.0043 38.9535 L21.3219 38.9535 Q20.4307 29.2718 15.6102 23.5195 Q10.7896 17.7268 0.095209 17.7268 Q-10.2751 17.7268 -18.8225 25.383 L-18.8225 16.7545 Q-10.3966 11.0023 0.581317 11.0023 Q14.1518 11.0023 22.0511 19.4281 Q29.9504 27.8135 29.9504 42.3563 Q29.9504 56.9395 22.0511 65.3654 Q14.1518 73.7508 0.581317 73.7508 Q-10.2346 73.7508 -18.8225 67.9175 L-18.8225 59.3701 Z" fill="#000000" fill-rule="nonzero" fill-opacity="1" /><path clip-path="url(#clip110)" d="M42.1436 27.2059 L49.5567 27.2059 L49.5567 48.5136 L70.5809 27.2059 L79.736 27.2059 L62.3981 44.7463 L81.964 72.576 L73.6191 72.576 L57.537 49.6884 L49.5567 57.7902 L49.5567 72.576 L42.1436 72.576 L42.1436 27.2059 Z" fill="#000000" fill-rule="nonzero" fill-opacity="1" /><path clip-path="url(#clip110)" d="M125.187 28.9478 L125.187 35.9153 Q122.027 34.1734 118.827 33.3227 Q115.668 32.4315 112.427 32.4315 Q105.176 32.4315 101.165 37.0496 Q97.1549 41.6271 97.1549 49.9314 Q97.1549 58.2358 101.165 62.8538 Q105.176 67.4314 112.427 67.4314 Q115.668 67.4314 118.827 66.5807 Q122.027 65.6895 125.187 63.9476 L125.187 70.8341 Q122.068 72.2924 118.706 73.0216 Q115.384 73.7508 111.617 73.7508 Q101.368 73.7508 95.332 67.3098 Q89.2961 60.8689 89.2961 49.9314 Q89.2961 38.832 95.3725 32.472 Q101.489 26.1121 112.103 26.1121 Q115.546 26.1121 118.827 26.8413 Q122.108 27.5299 125.187 28.9478 Z" fill="#000000" fill-rule="nonzero" fill-opacity="1" /><path clip-path="url(#clip110)" d="M177.039 27.2059 L177.039 72.576 L169.545 72.576 L169.545 33.1607 L145.361 33.1607 L145.361 72.576 L137.866 72.576 L137.866 27.2059 L177.039 27.2059 Z" fill="#000000" fill-rule="nonzero" fill-opacity="1" /><path clip-path="url(#clip110)" d="M209.973 32.4315 Q203.977 32.4315 200.493 37.1306 Q197.01 41.7891 197.01 49.9314 Q197.01 58.0738 200.453 62.7728 Q203.937 67.4314 209.973 67.4314 Q215.927 67.4314 219.411 62.7323 Q222.895 58.0333 222.895 49.9314 Q222.895 41.8701 219.411 37.1711 Q215.927 32.4315 209.973 32.4315 M209.973 26.1121 Q219.695 26.1121 225.244 32.4315 Q230.794 38.7509 230.794 49.9314 Q230.794 61.0714 225.244 67.4314 Q219.695 73.7508 209.973 73.7508 Q200.21 73.7508 194.66 67.4314 Q189.151 61.0714 189.151 49.9314 Q189.151 38.7509 194.66 32.4315 Q200.21 26.1121 209.973 26.1121 Z" fill="#000000" fill-rule="nonzero" fill-opacity="1" /><path clip-path="url(#clip110)" d="M242.866 27.2059 L250.36 27.2059 L250.36 45.7185 L274.544 45.7185 L274.544 27.2059 L282.038 27.2059 L282.038 72.576 L274.544 72.576 L274.544 51.6733 L250.36 51.6733 L250.36 72.576 L242.866 72.576 L242.866 27.2059 Z" fill="#000000" fill-rule="nonzero" fill-opacity="1" /><path clip-path="url(#clip110)" d="M336.199 48.0275 L336.199 51.6733 L301.928 51.6733 Q302.414 59.3701 306.546 63.421 Q310.719 67.4314 318.132 67.4314 Q322.426 67.4314 326.436 66.3781 Q330.487 65.3249 334.457 63.2184 L334.457 70.267 Q330.446 71.9684 326.234 72.8596 Q322.021 73.7508 317.686 73.7508 Q306.83 73.7508 300.47 67.4314 Q294.15 61.1119 294.15 50.3365 Q294.15 39.1965 300.146 32.6746 Q306.182 26.1121 316.39 26.1121 Q325.545 26.1121 330.852 32.0264 Q336.199 37.9003 336.199 48.0275 M328.745 45.84 Q328.664 39.7232 325.302 36.0774 Q321.98 32.4315 316.471 32.4315 Q310.232 32.4315 306.465 35.9558 Q302.738 39.4801 302.171 45.8805 L328.745 45.84 Z" fill="#000000" fill-rule="nonzero" fill-opacity="1" /><path clip-path="url(#clip110)" d="M348.149 27.2059 L355.643 27.2059 L355.643 45.7185 L379.827 45.7185 L379.827 27.2059 L387.321 27.2059 L387.321 72.576 L379.827 72.576 L379.827 51.6733 L355.643 51.6733 L355.643 72.576 L348.149 72.576 L348.149 27.2059 Z" fill="#000000" fill-rule="nonzero" fill-opacity="1" /><path clip-path="url(#clip110)" d="M441.563 72.576 L402.391 72.576 L402.391 27.2059 L409.885 27.2059 L409.885 66.6212 L434.069 66.6212 L434.069 27.2059 L441.563 27.2059 L441.563 66.6212 L447.518 66.6212 L447.518 84.0401 L441.563 84.0401 L441.563 72.576 Z" fill="#000000" fill-rule="nonzero" fill-opacity="1" /><path clip-path="url(#clip110)" d="M497.708 27.2059 L497.708 72.576 L490.295 72.576 L490.295 36.1584 L468.42 72.576 L458.86 72.576 L458.86 27.2059 L466.273 27.2059 L466.273 63.5425 L488.108 27.2059 L497.708 27.2059 Z" fill="#000000" fill-rule="nonzero" fill-opacity="1" /><path clip-path="url(#clip110)" d="M533.68 49.7694 Q524.647 49.7694 521.163 51.8354 Q517.679 53.9013 517.679 58.8839 Q517.679 62.8538 520.272 65.2034 Q522.905 67.5124 527.401 67.5124 Q533.599 67.5124 537.326 63.1374 Q541.093 58.7219 541.093 51.4303 L541.093 49.7694 L533.68 49.7694 M548.547 46.6907 L548.547 72.576 L541.093 72.576 L541.093 65.6895 Q538.541 69.8214 534.734 71.8063 Q530.926 73.7508 525.416 73.7508 Q518.449 73.7508 514.317 69.8619 Q510.226 65.9325 510.226 59.3701 Q510.226 51.7138 515.33 47.825 Q520.474 43.9361 530.642 43.9361 L541.093 43.9361 L541.093 43.2069 Q541.093 38.0623 537.691 35.2672 Q534.328 32.4315 528.212 32.4315 Q524.323 32.4315 520.636 33.3632 Q516.95 34.295 513.547 36.1584 L513.547 29.2718 Q517.639 27.692 521.487 26.9223 Q525.335 26.1121 528.981 26.1121 Q538.825 26.1121 543.686 31.2163 Q548.547 36.3204 548.547 46.6907 Z" fill="#000000" fill-rule="nonzero" fill-opacity="1" /><path clip-path="url(#clip110)" d="M559.161 72.576 L559.161 66.3781 Q566.533 65.2439 568.802 60.1397 Q571.556 52.9696 571.556 34.619 L571.556 27.2059 L602.222 27.2059 L602.222 72.576 L594.768 72.576 L594.768 33.1607 L579.01 33.1607 L579.01 37.6572 Q579.01 55.1571 575.445 63.0159 Q571.637 71.4012 559.161 72.576 Z" fill="#000000" fill-rule="nonzero" fill-opacity="1" /><path clip-path="url(#clip110)" d="M645.161 59.127 Q645.161 55.4812 642.488 53.5773 Q639.855 51.6733 634.75 51.6733 L624.137 51.6733 L624.137 66.6212 L634.75 66.6212 Q639.855 66.6212 642.488 64.7172 Q645.161 62.7728 645.161 59.127 M616.643 27.2059 L624.137 27.2059 L624.137 45.7185 L635.074 45.7185 Q643.743 45.7185 648.402 49.0402 Q653.101 52.3215 653.101 59.127 Q653.101 65.9325 648.402 69.2543 Q643.743 72.576 635.074 72.576 L616.643 72.576 L616.643 27.2059 Z" fill="#000000" fill-rule="nonzero" fill-opacity="1" /><path clip-path="url(#clip110)" d="M665.537 27.2059 L673.031 27.2059 L673.031 45.7185 L697.215 45.7185 L697.215 27.2059 L704.709 27.2059 L704.709 72.576 L697.215 72.576 L697.215 51.6733 L673.031 51.6733 L673.031 72.576 L665.537 72.576 L665.537 27.2059 Z" fill="#000000" fill-rule="nonzero" fill-opacity="1" /><path clip-path="url(#clip110)" d="M762.921 27.2059 L770.375 27.2059 L770.375 72.576 L762.921 72.576 L762.921 27.2059 M766.648 26.1121 L766.648 26.1121 M748.297 59.127 Q748.297 55.4812 745.624 53.5773 Q742.991 51.6733 737.886 51.6733 L727.273 51.6733 L727.273 66.6212 L737.886 66.6212 Q742.991 66.6212 745.624 64.7172 Q748.297 62.7728 748.297 59.127 M719.779 27.2059 L727.273 27.2059 L727.273 45.7185 L738.21 45.7185 Q746.879 45.7185 751.538 49.0402 Q756.237 52.3215 756.237 59.127 Q756.237 65.9325 751.538 69.2543 Q746.879 72.576 738.21 72.576 L719.779 72.576 L719.779 27.2059 Z" fill="#000000" fill-rule="nonzero" fill-opacity="1" /><path clip-path="url(#clip110)" d="M824.13 27.2059 L824.13 72.576 L816.717 72.576 L816.717 36.1584 L794.842 72.576 L785.282 72.576 L785.282 27.2059 L792.695 27.2059 L792.695 63.5425 L814.53 27.2059 L824.13 27.2059 M792.047 9.54393 L796.827 9.54393 Q797.273 12.5821 799.217 14.1215 Q801.202 15.6203 804.726 15.6203 Q808.21 15.6203 810.155 14.1215 Q812.099 12.6226 812.626 9.54393 L817.406 9.54393 Q817.001 15.3367 813.8 18.2534 Q810.6 21.17 804.726 21.17 Q798.853 21.17 795.652 18.2534 Q792.452 15.3367 792.047 9.54393 Z" fill="#000000" fill-rule="nonzero" fill-opacity="1" /><path clip-path="url(#clip110)" d="M873.065 65.7705 L873.065 89.8329 L865.571 89.8329 L865.571 27.2059 L873.065 27.2059 L873.065 34.0924 Q875.415 30.0415 878.979 28.0971 Q882.585 26.1121 887.567 26.1121 Q895.831 26.1121 900.976 32.6746 Q906.161 39.2371 906.161 49.9314 Q906.161 60.6258 900.976 67.1883 Q895.831 73.7508 887.567 73.7508 Q882.585 73.7508 878.979 71.8063 Q875.415 69.8214 873.065 65.7705 M898.424 49.9314 Q898.424 41.7081 895.021 37.0496 Q891.659 32.3505 885.744 32.3505 Q879.83 32.3505 876.427 37.0496 Q873.065 41.7081 873.065 49.9314 Q873.065 58.1548 876.427 62.8538 Q879.83 67.5124 885.744 67.5124 Q891.659 67.5124 895.021 62.8538 Q898.424 58.1548 898.424 49.9314 Z" fill="#000000" fill-rule="nonzero" fill-opacity="1" /><path clip-path="url(#clip110)" d="M936.097 32.4315 Q930.102 32.4315 926.618 37.1306 Q923.134 41.7891 923.134 49.9314 Q923.134 58.0738 926.578 62.7728 Q930.061 67.4314 936.097 67.4314 Q942.052 67.4314 945.536 62.7323 Q949.02 58.0333 949.02 49.9314 Q949.02 41.8701 945.536 37.1711 Q942.052 32.4315 936.097 32.4315 M936.097 26.1121 Q945.819 26.1121 951.369 32.4315 Q956.919 38.7509 956.919 49.9314 Q956.919 61.0714 951.369 67.4314 Q945.819 73.7508 936.097 73.7508 Q926.334 73.7508 920.785 67.4314 Q915.275 61.0714 915.275 49.9314 Q915.275 38.7509 920.785 32.4315 Q926.334 26.1121 936.097 26.1121 Z" fill="#000000" fill-rule="nonzero" fill-opacity="1" /><path clip-path="url(#clip110)" d="M1001.92 28.9478 L1001.92 35.9153 Q998.765 34.1734 995.564 33.3227 Q992.405 32.4315 989.164 32.4315 Q981.913 32.4315 977.902 37.0496 Q973.892 41.6271 973.892 49.9314 Q973.892 58.2358 977.902 62.8538 Q981.913 67.4314 989.164 67.4314 Q992.405 67.4314 995.564 66.5807 Q998.765 65.6895 1001.92 63.9476 L1001.92 70.8341 Q998.805 72.2924 995.443 73.0216 Q992.121 73.7508 988.354 73.7508 Q978.105 73.7508 972.069 67.3098 Q966.033 60.8689 966.033 49.9314 Q966.033 38.832 972.11 32.472 Q978.227 26.1121 988.84 26.1121 Q992.283 26.1121 995.564 26.8413 Q998.846 27.5299 1001.92 28.9478 Z" fill="#000000" fill-rule="nonzero" fill-opacity="1" /><path clip-path="url(#clip110)" d="M1009.5 27.2059 L1052.97 27.2059 L1052.97 33.1607 L1034.9 33.1607 L1034.9 72.576 L1027.57 72.576 L1027.57 33.1607 L1009.5 33.1607 L1009.5 27.2059 Z" fill="#000000" fill-rule="nonzero" fill-opacity="1" /><path clip-path="url(#clip110)" d="M1107.49 9.62495 Q1102.06 18.942 1099.43 28.0566 Q1096.8 37.1711 1096.8 46.5287 Q1096.8 55.8863 1099.43 65.0818 Q1102.1 74.2369 1107.49 83.5134 L1101.01 83.5134 Q1094.93 73.9938 1091.89 64.7983 Q1088.9 55.6027 1088.9 46.5287 Q1088.9 37.4952 1091.89 28.3401 Q1094.89 19.1851 1101.01 9.62495 L1107.49 9.62495 Z" fill="#000000" fill-rule="nonzero" fill-opacity="1" /><path clip-path="url(#clip110)" d="M1139.94 26.1121 Q1149.66 26.1121 1155.21 32.4315 Q1160.76 38.7509 1160.76 49.9314 Q1160.76 61.0714 1155.21 67.4314 Q1149.66 73.7508 1139.94 73.7508 Q1130.18 73.7508 1124.79 67.5934 Q1119.4 61.436 1119.12 49.9314 L1118.87 40.6549 Q1118.67 35.8343 1118.67 34.1734 Q1118.67 27.692 1121.02 22.9119 Q1124.71 15.4177 1131.07 12.177 Q1137.47 8.93629 1148.16 8.85528 Q1153.1 8.81477 1155.29 8.12611 L1157.36 14.0404 Q1155.37 14.8506 1153.55 14.8911 L1143.42 15.5798 Q1138.32 15.9444 1135.24 17.7268 Q1127.18 22.4663 1126.41 28.6642 L1126.13 30.9327 Q1131.39 26.1121 1139.94 26.1121 M1139.94 32.4315 Q1133.94 32.4315 1130.46 37.1306 Q1126.98 41.7891 1126.98 49.9314 Q1126.98 58.0738 1130.42 62.7728 Q1133.9 67.4314 1139.94 67.4314 Q1145.89 67.4314 1149.38 62.7323 Q1152.86 58.0333 1152.86 49.9314 Q1152.86 41.8701 1149.38 37.1711 Q1145.89 32.4315 1139.94 32.4315 Z" fill="#000000" fill-rule="nonzero" fill-opacity="1" /><path clip-path="url(#clip110)" d="M1193.73 49.7694 Q1184.7 49.7694 1181.22 51.8354 Q1177.73 53.9013 1177.73 58.8839 Q1177.73 62.8538 1180.33 65.2034 Q1182.96 67.5124 1187.46 67.5124 Q1193.65 67.5124 1197.38 63.1374 Q1201.15 58.7219 1201.15 51.4303 L1201.15 49.7694 L1193.73 49.7694 M1208.6 46.6907 L1208.6 72.576 L1201.15 72.576 L1201.15 65.6895 Q1198.6 69.8214 1194.79 71.8063 Q1190.98 73.7508 1185.47 73.7508 Q1178.5 73.7508 1174.37 69.8619 Q1170.28 65.9325 1170.28 59.3701 Q1170.28 51.7138 1175.38 47.825 Q1180.53 43.9361 1190.7 43.9361 L1201.15 43.9361 L1201.15 43.2069 Q1201.15 38.0623 1197.75 35.2672 Q1194.38 32.4315 1188.27 32.4315 Q1184.38 32.4315 1180.69 33.3632 Q1177 34.295 1173.6 36.1584 L1173.6 29.2718 Q1177.69 27.692 1181.54 26.9223 Q1185.39 26.1121 1189.04 26.1121 Q1198.88 26.1121 1203.74 31.2163 Q1208.6 36.3204 1208.6 46.6907 Z" fill="#000000" fill-rule="nonzero" fill-opacity="1" /><path clip-path="url(#clip110)" d="M1244.74 48.1085 Q1249.76 49.0808 1252.55 52.0379 Q1255.35 54.9951 1255.35 59.3701 Q1255.35 66.3781 1250.12 70.0644 Q1244.9 73.7508 1235.26 73.7508 Q1232.02 73.7508 1228.57 73.1836 Q1225.17 72.6165 1221.52 71.4823 L1221.52 64.5552 Q1224.4 66.054 1227.84 66.8237 Q1231.29 67.5529 1235.05 67.5529 Q1241.17 67.5529 1244.57 65.2844 Q1248.02 63.0159 1248.02 59.3701 Q1248.02 55.8053 1244.98 53.6583 Q1241.94 51.4708 1236.39 51.4708 L1230.4 51.4708 L1230.4 45.3134 L1236.67 45.3134 Q1241.37 45.3134 1244.09 43.531 Q1246.84 41.7081 1246.84 38.8725 Q1246.84 36.2799 1244.01 34.4165 Q1241.21 32.5531 1236.39 32.5531 Q1233.51 32.5531 1230.23 33.0797 Q1226.99 33.6063 1223.06 34.7811 L1223.06 28.0161 Q1227.03 27.0438 1230.48 26.5577 Q1233.92 26.0716 1237 26.0716 Q1244.94 26.0716 1249.52 29.2718 Q1254.13 32.4315 1254.13 38.1433 Q1254.13 41.9107 1251.7 44.5437 Q1249.27 47.1363 1244.74 48.1085 Z" fill="#000000" fill-rule="nonzero" fill-opacity="1" /><path clip-path="url(#clip110)" d="M1285.65 32.4315 Q1279.65 32.4315 1276.17 37.1306 Q1272.69 41.7891 1272.69 49.9314 Q1272.69 58.0738 1276.13 62.7728 Q1279.61 67.4314 1285.65 67.4314 Q1291.6 67.4314 1295.09 62.7323 Q1298.57 58.0333 1298.57 49.9314 Q1298.57 41.8701 1295.09 37.1711 Q1291.6 32.4315 1285.65 32.4315 M1285.65 26.1121 Q1295.37 26.1121 1300.92 32.4315 Q1306.47 38.7509 1306.47 49.9314 Q1306.47 61.0714 1300.92 67.4314 Q1295.37 73.7508 1285.65 73.7508 Q1275.89 73.7508 1270.34 67.4314 Q1264.83 61.0714 1264.83 49.9314 Q1264.83 38.7509 1270.34 32.4315 Q1275.89 26.1121 1285.65 26.1121 Z" fill="#000000" fill-rule="nonzero" fill-opacity="1" /><path clip-path="url(#clip110)" d="M1326 51.6733 L1326 66.6212 L1336.61 66.6212 Q1341.71 66.6212 1344.39 64.7172 Q1347.06 62.7728 1347.06 59.127 Q1347.06 55.4812 1344.39 53.5773 Q1341.71 51.6733 1336.61 51.6733 L1326 51.6733 M1326 33.1607 L1326 45.7185 L1335.8 45.7185 Q1340.01 45.7185 1342.69 44.0576 Q1345.36 42.3563 1345.36 39.3586 Q1345.36 36.3609 1342.69 34.7811 Q1340.01 33.1607 1335.8 33.1607 L1326 33.1607 M1318.54 27.2059 L1336.29 27.2059 Q1344.27 27.2059 1348.56 30.1225 Q1352.85 33.0392 1352.85 38.4269 Q1352.85 42.5993 1350.67 45.0704 Q1348.48 47.5009 1344.19 48.1085 Q1349.33 49.0808 1352.17 52.1594 Q1355 55.2381 1355 59.8562 Q1355 65.9325 1350.3 69.2543 Q1345.64 72.576 1336.97 72.576 L1318.54 72.576 L1318.54 27.2059 Z" fill="#000000" fill-rule="nonzero" fill-opacity="1" /><path clip-path="url(#clip110)" d="M1410.58 27.2059 L1418.03 27.2059 L1418.03 72.576 L1410.58 72.576 L1410.58 27.2059 M1414.31 26.1121 L1414.31 26.1121 M1395.96 59.127 Q1395.96 55.4812 1393.28 53.5773 Q1390.65 51.6733 1385.54 51.6733 L1374.93 51.6733 L1374.93 66.6212 L1385.54 66.6212 Q1390.65 66.6212 1393.28 64.7172 Q1395.96 62.7728 1395.96 59.127 M1367.44 27.2059 L1374.93 27.2059 L1374.93 45.7185 L1385.87 45.7185 Q1394.54 45.7185 1399.2 49.0402 Q1403.9 52.3215 1403.9 59.127 Q1403.9 65.9325 1399.2 69.2543 Q1394.54 72.576 1385.87 72.576 L1367.44 72.576 L1367.44 27.2059 Z" fill="#000000" fill-rule="nonzero" fill-opacity="1" /><path clip-path="url(#clip110)" d="M1471.79 27.2059 L1471.79 72.576 L1464.38 72.576 L1464.38 36.1584 L1442.5 72.576 L1432.94 72.576 L1432.94 27.2059 L1440.35 27.2059 L1440.35 63.5425 L1462.19 27.2059 L1471.79 27.2059 M1439.71 9.54393 L1444.49 9.54393 Q1444.93 12.5821 1446.88 14.1215 Q1448.86 15.6203 1452.38 15.6203 Q1455.87 15.6203 1457.81 14.1215 Q1459.76 12.6226 1460.28 9.54393 L1465.06 9.54393 Q1464.66 15.3367 1461.46 18.2534 Q1458.26 21.17 1452.38 21.17 Q1446.51 21.17 1443.31 18.2534 Q1440.11 15.3367 1439.71 9.54393 Z" fill="#000000" fill-rule="nonzero" fill-opacity="1" /><path clip-path="url(#clip110)" d="M1510.27 63.9476 Q1516.67 67.4314 1523.03 67.4314 Q1528.99 67.4314 1533.24 63.9881 Q1537.49 60.5043 1538.26 51.6733 L1515.25 51.6733 L1515.25 45.7185 L1538.02 45.7185 Q1537.53 41.4651 1534.29 36.9686 Q1531.09 32.4315 1523.03 32.4315 Q1516.79 32.4315 1510.27 35.9153 L1510.27 28.9478 Q1516.63 26.1121 1523.36 26.1121 Q1533.97 26.1121 1540.05 32.5531 Q1546.16 38.9535 1546.16 49.9314 Q1546.16 60.8689 1540.21 67.3098 Q1534.29 73.7508 1523.88 73.7508 Q1516.23 73.7508 1510.27 70.8341 L1510.27 63.9476 Z" fill="#000000" fill-rule="nonzero" fill-opacity="1" /><path clip-path="url(#clip110)" d="M1558.76 27.2059 L1566.17 27.2059 L1566.17 48.5136 L1587.2 27.2059 L1596.35 27.2059 L1579.02 44.7463 L1598.58 72.576 L1590.24 72.576 L1574.16 49.6884 L1566.17 57.7902 L1566.17 72.576 L1558.76 72.576 L1558.76 27.2059 Z" fill="#000000" fill-rule="nonzero" fill-opacity="1" /><path clip-path="url(#clip110)" d="M1641.81 28.9478 L1641.81 35.9153 Q1638.65 34.1734 1635.45 33.3227 Q1632.29 32.4315 1629.04 32.4315 Q1621.79 32.4315 1617.78 37.0496 Q1613.77 41.6271 1613.77 49.9314 Q1613.77 58.2358 1617.78 62.8538 Q1621.79 67.4314 1629.04 67.4314 Q1632.29 67.4314 1635.45 66.5807 Q1638.65 65.6895 1641.81 63.9476 L1641.81 70.8341 Q1638.69 72.2924 1635.32 73.0216 Q1632 73.7508 1628.23 73.7508 Q1617.99 73.7508 1611.95 67.3098 Q1605.91 60.8689 1605.91 49.9314 Q1605.91 38.832 1611.99 32.472 Q1618.11 26.1121 1628.72 26.1121 Q1632.16 26.1121 1635.45 26.8413 Q1638.73 27.5299 1641.81 28.9478 Z" fill="#000000" fill-rule="nonzero" fill-opacity="1" /><path clip-path="url(#clip110)" d="M1693.66 27.2059 L1693.66 72.576 L1686.16 72.576 L1686.16 33.1607 L1661.98 33.1607 L1661.98 72.576 L1654.48 72.576 L1654.48 27.2059 L1693.66 27.2059 Z" fill="#000000" fill-rule="nonzero" fill-opacity="1" /><path clip-path="url(#clip110)" d="M1747.82 48.0275 L1747.82 51.6733 L1713.55 51.6733 Q1714.03 59.3701 1718.16 63.421 Q1722.34 67.4314 1729.75 67.4314 Q1734.04 67.4314 1738.05 66.3781 Q1742.11 65.3249 1746.08 63.2184 L1746.08 70.267 Q1742.07 71.9684 1737.85 72.8596 Q1733.64 73.7508 1729.3 73.7508 Q1718.45 73.7508 1712.09 67.4314 Q1705.77 61.1119 1705.77 50.3365 Q1705.77 39.1965 1711.76 32.6746 Q1717.8 26.1121 1728.01 26.1121 Q1737.16 26.1121 1742.47 32.0264 Q1747.82 37.9003 1747.82 48.0275 M1740.36 45.84 Q1740.28 39.7232 1736.92 36.0774 Q1733.6 32.4315 1728.09 32.4315 Q1721.85 32.4315 1718.08 35.9558 Q1714.36 39.4801 1713.79 45.8805 L1740.36 45.84 Z" fill="#000000" fill-rule="nonzero" fill-opacity="1" /><path clip-path="url(#clip110)" d="M1767.26 65.7705 L1767.26 89.8329 L1759.77 89.8329 L1759.77 27.2059 L1767.26 27.2059 L1767.26 34.0924 Q1769.61 30.0415 1773.18 28.0971 Q1776.78 26.1121 1781.76 26.1121 Q1790.03 26.1121 1795.17 32.6746 Q1800.36 39.2371 1800.36 49.9314 Q1800.36 60.6258 1795.17 67.1883 Q1790.03 73.7508 1781.76 73.7508 Q1776.78 73.7508 1773.18 71.8063 Q1769.61 69.8214 1767.26 65.7705 M1792.62 49.9314 Q1792.62 41.7081 1789.22 37.0496 Q1785.86 32.3505 1779.94 32.3505 Q1774.03 32.3505 1770.62 37.0496 Q1767.26 41.7081 1767.26 49.9314 Q1767.26 58.1548 1770.62 62.8538 Q1774.03 67.5124 1779.94 67.5124 Q1785.86 67.5124 1789.22 62.8538 Q1792.62 58.1548 1792.62 49.9314 Z" fill="#000000" fill-rule="nonzero" fill-opacity="1" /><path clip-path="url(#clip110)" d="M1851.28 27.2059 L1851.28 72.576 L1843.86 72.576 L1843.86 36.1584 L1821.99 72.576 L1812.43 72.576 L1812.43 27.2059 L1819.84 27.2059 L1819.84 63.5425 L1841.68 27.2059 L1851.28 27.2059 Z" fill="#000000" fill-rule="nonzero" fill-opacity="1" /><path clip-path="url(#clip110)" d="M1866.35 27.2059 L1877.24 27.2059 L1890.13 57.5877 L1903.05 27.2059 L1913.86 27.2059 L1913.86 72.576 L1906.37 72.576 L1906.37 34.3355 L1893.85 63.8666 L1886.4 63.8666 L1873.84 34.3355 L1873.84 72.576 L1866.35 72.576 L1866.35 27.2059 Z" fill="#000000" fill-rule="nonzero" fill-opacity="1" /><path clip-path="url(#clip110)" d="M1968.02 48.0275 L1968.02 51.6733 L1933.75 51.6733 Q1934.24 59.3701 1938.37 63.421 Q1942.54 67.4314 1949.96 67.4314 Q1954.25 67.4314 1958.26 66.3781 Q1962.31 65.3249 1966.28 63.2184 L1966.28 70.267 Q1962.27 71.9684 1958.06 72.8596 Q1953.85 73.7508 1949.51 73.7508 Q1938.66 73.7508 1932.3 67.4314 Q1925.98 61.1119 1925.98 50.3365 Q1925.98 39.1965 1931.97 32.6746 Q1938.01 26.1121 1948.22 26.1121 Q1957.37 26.1121 1962.68 32.0264 Q1968.02 37.9003 1968.02 48.0275 M1960.57 45.84 Q1960.49 39.7232 1957.13 36.0774 Q1953.81 32.4315 1948.3 32.4315 Q1942.06 32.4315 1938.29 35.9558 Q1934.56 39.4801 1934 45.8805 L1960.57 45.84 Z" fill="#000000" fill-rule="nonzero" fill-opacity="1" /><path clip-path="url(#clip110)" d="M1979.97 27.2059 L1987.47 27.2059 L1987.47 45.7185 L2011.65 45.7185 L2011.65 27.2059 L2019.15 27.2059 L2019.15 72.576 L2011.65 72.576 L2011.65 51.6733 L1987.47 51.6733 L1987.47 72.576 L1979.97 72.576 L1979.97 27.2059 Z" fill="#000000" fill-rule="nonzero" fill-opacity="1" /><path clip-path="url(#clip110)" d="M2029.11 27.2059 L2072.58 27.2059 L2072.58 33.1607 L2054.51 33.1607 L2054.51 72.576 L2047.18 72.576 L2047.18 33.1607 L2029.11 33.1607 L2029.11 27.2059 Z" fill="#000000" fill-rule="nonzero" fill-opacity="1" /><path clip-path="url(#clip110)" d="M2081.65 9.62495 L2088.13 9.62495 Q2094.21 19.1851 2097.21 28.3401 Q2100.25 37.4952 2100.25 46.5287 Q2100.25 55.6027 2097.21 64.7983 Q2094.21 73.9938 2088.13 83.5134 L2081.65 83.5134 Q2087.04 74.2369 2089.67 65.0818 Q2092.35 55.8863 2092.35 46.5287 Q2092.35 37.1711 2089.67 28.0566 Q2087.04 18.942 2081.65 9.62495 Z" fill="#000000" fill-rule="nonzero" fill-opacity="1" /><polyline clip-path="url(#clip112)" style="stroke:#009af9; stroke-linecap:round; stroke-linejoin:round; stroke-width:8; stroke-opacity:1; fill:none" points="255.764,1309.22 271.463,1307.4 287.162,1305.53 302.861,1303.6 318.56,1301.61 334.259,1299.56 349.958,1297.45 365.657,1295.27 381.356,1293.03 397.055,1290.71 412.754,1288.33 428.453,1285.88 444.152,1283.35 459.851,1280.74 475.55,1278.06 491.249,1275.29 506.948,1272.44 522.647,1269.5 538.345,1266.47 554.044,1263.35 569.743,1260.14 585.442,1256.82 601.141,1253.41 616.84,1249.89 632.539,1246.27 648.238,1242.53 663.937,1238.68 679.636,1234.72 695.335,1230.63 711.034,1226.42 726.733,1222.08 742.432,1217.6 758.131,1213 773.83,1208.25 789.529,1203.35 805.228,1198.31 820.926,1193.12 836.625,1187.76 852.324,1182.24 868.023,1176.56 883.722,1170.7 899.421,1164.66 915.12,1158.44 930.819,1152.03 946.518,1145.43 962.217,1138.62 977.916,1131.61 993.615,1124.38 1009.31,1116.93 1025.01,1109.26 1040.71,1101.35 1056.41,1093.2 1072.11,1084.81 1087.81,1076.15 1103.51,1067.24 1119.21,1058.05 1134.91,1048.58 1150.6,1038.83 1166.3,1028.77 1182,1018.41 1197.7,1007.74 1213.4,996.739 1229.1,985.404 1244.8,973.724 1260.5,961.688 1276.2,949.286 1291.89,936.506 1307.59,923.337 1323.29,909.768 1338.99,895.785 1354.69,881.377 1370.39,866.53 1386.09,851.231 1401.79,835.466 1417.49,819.22 1433.19,802.479 1448.88,785.228 1464.58,767.451 1480.28,749.132 1495.98,730.256 1511.68,710.804 1527.38,690.761 1543.08,670.107 1558.78,648.825 1574.48,626.894 1590.17,604.296 1605.87,581.009 1621.57,557.015 1637.27,532.289 1652.97,506.812 1668.67,480.558 1684.37,453.504 1700.07,425.627 1715.77,396.9 1731.47,367.298 1747.16,336.793 1762.86,305.359 1778.56,272.967 1794.26,239.589 1809.96,205.194 1825.66,169.752 "/>
<path clip-path="url(#clip110)" d="M264.137 279.509 L600.638 279.509 L600.638 175.829 L264.137 175.829  Z" fill="#ffffff" fill-rule="evenodd" fill-opacity="1"/>
<polyline clip-path="url(#clip110)" style="stroke:#000000; stroke-linecap:round; stroke-linejoin:round; stroke-width:4; stroke-opacity:1; fill:none" points="264.137,279.509 600.638,279.509 600.638,175.829 264.137,175.829 264.137,279.509 "/>
<polyline clip-path="url(#clip110)" style="stroke:#009af9; stroke-linecap:round; stroke-linejoin:round; stroke-width:8; stroke-opacity:1; fill:none" points="282.627,227.669 393.566,227.669 "/>
<path clip-path="url(#clip110)" d="M429.024 232.889 L428.005 227.542 Q426.963 222.056 422.843 222.056 Q419.741 222.056 418.329 224.602 Q416.547 227.797 416.547 232.01 Q416.547 237.102 418.283 239.533 Q420.042 242.01 422.843 242.01 Q425.945 242.01 427.612 237.079 L429.024 232.889 M431.408 225.806 L433.7 219.024 L437.496 219.024 L432.75 233.074 L433.676 238.144 Q433.885 239.278 434.695 240.227 Q435.644 241.338 436.385 241.338 L438.422 241.338 L438.422 244.949 L435.875 244.949 Q433.7 244.949 431.755 243.005 Q430.806 242.033 430.413 239.996 Q429.348 242.565 427.172 244.579 Q426.153 245.528 422.843 245.528 Q417.403 245.528 414.764 242.01 Q412.056 238.375 412.056 232.01 Q412.056 225.204 414.996 222.01 Q418.26 218.445 422.843 218.445 Q430.042 218.445 431.408 225.806 Z" fill="#000000" fill-rule="nonzero" fill-opacity="1" /><path clip-path="url(#clip110)" d="M460.783 223.422 L490.459 223.422 L490.459 227.311 L460.783 227.311 L460.783 223.422 M460.783 232.866 L490.459 232.866 L490.459 236.801 L460.783 236.801 L460.783 232.866 Z" fill="#000000" fill-rule="nonzero" fill-opacity="1" /><path clip-path="url(#clip110)" d="M525.62 213.468 Q522.009 213.468 520.181 217.033 Q518.375 220.574 518.375 227.704 Q518.375 234.81 520.181 238.375 Q522.009 241.917 525.62 241.917 Q529.255 241.917 531.06 238.375 Q532.889 234.81 532.889 227.704 Q532.889 220.574 531.06 217.033 Q529.255 213.468 525.62 213.468 M525.62 209.764 Q531.431 209.764 534.486 214.371 Q537.565 218.954 537.565 227.704 Q537.565 236.431 534.486 241.037 Q531.431 245.621 525.62 245.621 Q519.81 245.621 516.732 241.037 Q513.676 236.431 513.676 227.704 Q513.676 218.954 516.732 214.371 Q519.81 209.764 525.62 209.764 Z" fill="#000000" fill-rule="nonzero" fill-opacity="1" /><path clip-path="url(#clip110)" d="M545.782 239.07 L550.667 239.07 L550.667 244.949 L545.782 244.949 L545.782 239.07 Z" fill="#000000" fill-rule="nonzero" fill-opacity="1" /><path clip-path="url(#clip110)" d="M575.018 226.315 Q578.375 227.033 580.25 229.301 Q582.148 231.57 582.148 234.903 Q582.148 240.019 578.629 242.82 Q575.111 245.621 568.629 245.621 Q566.453 245.621 564.139 245.181 Q561.847 244.764 559.393 243.908 L559.393 239.394 Q561.338 240.528 563.653 241.107 Q565.967 241.685 568.49 241.685 Q572.889 241.685 575.18 239.949 Q577.495 238.213 577.495 234.903 Q577.495 231.848 575.342 230.135 Q573.213 228.398 569.393 228.398 L565.366 228.398 L565.366 224.556 L569.578 224.556 Q573.028 224.556 574.856 223.19 Q576.685 221.801 576.685 219.209 Q576.685 216.547 574.787 215.135 Q572.912 213.699 569.393 213.699 Q567.472 213.699 565.273 214.116 Q563.074 214.533 560.435 215.412 L560.435 211.246 Q563.097 210.505 565.412 210.135 Q567.75 209.764 569.81 209.764 Q575.134 209.764 578.236 212.195 Q581.338 214.602 581.338 218.723 Q581.338 221.593 579.694 223.584 Q578.051 225.551 575.018 226.315 Z" fill="#000000" fill-rule="nonzero" fill-opacity="1" /></svg>
